<?xml version="1.0" encoding="utf-8"?>
<!-- Generator: Adobe Illustrator 16.0.0, SVG Export Plug-In . SVG Version: 6.00 Build 0)  -->
<!DOCTYPE svg PUBLIC "-//W3C//DTD SVG 1.1//EN" "http://www.w3.org/Graphics/SVG/1.1/DTD/svg11.dtd">
<svg version="1.1" id="Layer_1" xmlns="http://www.w3.org/2000/svg" xmlns:xlink="http://www.w3.org/1999/xlink" x="0px" y="0px"
	 width="190px" height="50px" viewBox="0 0 190 50" enable-background="new 0 0 190 50" xml:space="preserve">
<g>
	<g>
		<defs>
			<path id="SVGID_85_" d="M7.464,0.5c-3.026,0-5.48,2.452-5.48,5.478v25.188c0,3.025,2.454,5.479,5.48,5.479H182.54
				c3.025,0,5.477-2.454,5.477-5.479V5.978c0-3.025-2.451-5.478-5.477-5.478H7.464z"/>
		</defs>
		<clipPath id="SVGID_2_">
			<use xlink:href="#SVGID_85_"  overflow="visible"/>
		</clipPath>
		
			<linearGradient id="SVGID_3_" gradientUnits="userSpaceOnUse" x1="-219.521" y1="264.5244" x2="-218.6377" y2="264.5244" gradientTransform="matrix(210.599 0 0 -210.599 46232.9648 55727.3281)">
			<stop  offset="0" style="stop-color:#0EB9CD"/>
			<stop  offset="1" style="stop-color:#05ADE2"/>
		</linearGradient>
		<rect x="1.983" y="0.5" clip-path="url(#SVGID_2_)" fill="url(#SVGID_3_)" width="186.033" height="36.146"/>
	</g>
	<g>
		<defs>
			<path id="SVGID_88_" d="M7.464,0.5c-3.026,0-5.48,2.452-5.48,5.478v25.188c0,3.025,2.454,5.479,5.48,5.479H182.54
				c3.025,0,5.477-2.454,5.477-5.479V5.978c0-3.025-2.451-5.478-5.477-5.478H7.464z"/>
		</defs>
		<clipPath id="SVGID_5_">
			<use xlink:href="#SVGID_88_"  overflow="visible"/>
		</clipPath>
		<g opacity="0.75" clip-path="url(#SVGID_5_)">
			<g>
				<defs>
					<rect id="SVGID_90_" x="101.669" y="-30.521" width="120.611" height="95.009"/>
				</defs>
				<clipPath id="SVGID_7_">
					<use xlink:href="#SVGID_90_"  overflow="visible"/>
				</clipPath>
				<g clip-path="url(#SVGID_7_)">
					<defs>
						<rect id="SVGID_92_" x="101.669" y="-30.521" width="120.611" height="95.009"/>
					</defs>
					<clipPath id="SVGID_9_">
						<use xlink:href="#SVGID_92_"  overflow="visible"/>
					</clipPath>
					<g opacity="0.3" clip-path="url(#SVGID_9_)">
						<g>
							<defs>
								<rect id="SVGID_94_" x="101.669" y="2.466" width="120.611" height="57.807"/>
							</defs>
							<clipPath id="SVGID_11_">
								<use xlink:href="#SVGID_94_"  overflow="visible"/>
							</clipPath>
							<g clip-path="url(#SVGID_11_)">
								<defs>
									<rect id="SVGID_96_" x="101.669" y="2.466" width="120.611" height="57.807"/>
								</defs>
								<clipPath id="SVGID_13_">
									<use xlink:href="#SVGID_96_"  overflow="visible"/>
								</clipPath>
								<path clip-path="url(#SVGID_13_)" fill="#5BC7D4" d="M102.127,49.977c0.074,0.381,0.446,0.629,0.829,0.552
									c0.077-0.015,0.148-0.043,0.214-0.08l5.447,7.619c-0.166,0.159-0.25,0.4-0.2,0.645c0.076,0.381,0.446,0.629,0.83,0.554
									c0.285-0.056,0.496-0.282,0.552-0.548l16.307,0.914c0.001,0.023,0.004,0.049,0.01,0.073c0.076,0.381,0.448,0.63,0.83,0.553
									c0.382-0.076,0.629-0.448,0.551-0.829c-0.01-0.048-0.022-0.093-0.04-0.138l7.746-4.731c0.158,0.193,0.418,0.292,0.678,0.242
									c0.384-0.077,0.63-0.45,0.555-0.831c-0.032-0.156-0.113-0.288-0.223-0.387l5.5-8.316c0.131,0.061,0.284,0.083,0.437,0.052
									c0.168-0.032,0.309-0.123,0.408-0.244l20.25,12.014c-0.05,0.126-0.066,0.266-0.039,0.407
									c0.077,0.381,0.449,0.629,0.83,0.552c0.383-0.075,0.629-0.448,0.552-0.828c-0.018-0.099-0.058-0.187-0.109-0.265
									l20.745-19.46c0.12,0.317,0.454,0.511,0.797,0.442c0.383-0.078,0.631-0.446,0.554-0.831
									c-0.004-0.02-0.011-0.043-0.017-0.063l9.481-4.448c0.153,0.232,0.437,0.36,0.724,0.303c0.35-0.07,0.581-0.384,0.567-0.728
									l12.991-2.599c0.115,0.324,0.453,0.522,0.8,0.453c0.206-0.041,0.373-0.168,0.47-0.336l9.735,3.896
									c-0.022,0.094-0.023,0.193-0.006,0.294c0.078,0.382,0.45,0.63,0.831,0.552c0.383-0.075,0.629-0.445,0.552-0.83
									c-0.068-0.349-0.385-0.585-0.731-0.563l-4.101-21.829c0.327-0.111,0.53-0.453,0.46-0.804
									c-0.078-0.381-0.447-0.629-0.83-0.552c-0.136,0.027-0.255,0.093-0.35,0.182l-8.44-6.52c0.078-0.143,0.11-0.313,0.075-0.482
									c-0.075-0.383-0.447-0.629-0.829-0.554c-0.384,0.076-0.63,0.448-0.552,0.829c0.021,0.111,0.068,0.212,0.134,0.296
									l-6.093,6.389c-0.154-0.107-0.349-0.155-0.545-0.116c-0.209,0.043-0.378,0.172-0.475,0.344l-7.081-2.544
									c0.013-0.079,0.01-0.163-0.006-0.247c-0.077-0.381-0.447-0.629-0.829-0.554c-0.384,0.077-0.631,0.449-0.554,0.832v0.002
									l-0.029-0.104l-22.242,6.156c-0.13-0.294-0.452-0.471-0.78-0.405c-0.165,0.033-0.302,0.119-0.401,0.237l-8.22-5.068
									c0.055-0.127,0.071-0.271,0.044-0.417c-0.076-0.382-0.448-0.628-0.829-0.552c-0.381,0.075-0.631,0.447-0.554,0.829
									c0.026,0.134,0.091,0.253,0.182,0.345l-8.996,11.478c-0.143-0.081-0.313-0.113-0.487-0.078
									c-0.381,0.075-0.628,0.447-0.553,0.83c0.029,0.145,0.103,0.271,0.2,0.365l-5.221,7.247c-0.137-0.07-0.299-0.098-0.462-0.065
									c-0.381,0.075-0.63,0.448-0.554,0.829c0.008,0.027,0.015,0.054,0.022,0.08l-14.515,7.57
									c-0.158-0.208-0.425-0.32-0.698-0.267c-0.202,0.042-0.367,0.165-0.465,0.328l-10.455-4.12
									c0.024-0.099,0.03-0.202,0.008-0.311c-0.075-0.381-0.447-0.629-0.83-0.551c-0.37,0.074-0.614,0.427-0.558,0.798
									l-12.187,5.118c-0.155-0.213-0.428-0.327-0.702-0.271c-0.381,0.074-0.63,0.446-0.555,0.829
									c0.058,0.281,0.277,0.491,0.542,0.548l0.446,10.06C102.294,49.228,102.051,49.597,102.127,49.977 M103.066,38.263
									c-0.007-0.033-0.018-0.065-0.027-0.096l11.005-4.622l1.145-0.482c0.017,0.039,0.039,0.074,0.064,0.107l-7.975,10.514
									l-4.381-4.81C103.042,38.714,103.111,38.491,103.066,38.263 M168.743,14.738c0.09-0.017,0.174-0.053,0.246-0.101
									l6.704,7.543l-7.165-6.109l0.117-1.32C168.677,14.748,168.71,14.747,168.743,14.738 M192.691,8.081l4.917,4.472
									l-4.142,3.061c-0.119-0.12-0.281-0.195-0.452-0.205l-0.587-7.17C192.528,8.205,192.619,8.152,192.691,8.081 M207.796,3.861
									c0.137-0.027,0.256-0.094,0.35-0.184l8.441,6.521c-0.042,0.073-0.068,0.156-0.082,0.241l-9.849,0.014l0.998-6.58
									C207.702,3.877,207.748,3.871,207.796,3.861 M127.175,58.965c-0.147-0.088-0.324-0.126-0.505-0.089
									c-0.159,0.031-0.294,0.113-0.395,0.228l-11.388-7.326c0.015-0.033,0.029-0.067,0.038-0.103l16.646,2.03L127.175,58.965z
									 M115.559,33.41l-1.361,17.375c-0.03,0.003-0.059,0.005-0.088,0.013c-0.096,0.018-0.182,0.056-0.256,0.104l-6.435-7.063
									l7.98-10.52C115.448,33.355,115.5,33.387,115.559,33.41 M113.753,51.991l-1.19,1.643l-8.918-3.645l9.895,1.497
									c0,0.047,0.006,0.093,0.017,0.141C113.585,51.771,113.652,51.896,113.753,51.991 M113.921,52.113
									c0.136,0.072,0.3,0.099,0.461,0.066c0.162-0.031,0.297-0.114,0.395-0.229l11.026,7.094l-13.043-5.331L113.921,52.113z
									 M115.839,51.577l9.567-0.084l7.602-0.066c0,0.011,0.001,0.021,0.004,0.029c0.025,0.128,0.084,0.239,0.165,0.33
									l-1.445,1.729L115.839,51.577z M133.336,51.919c0.146,0.089,0.323,0.126,0.505,0.091c0.069-0.013,0.132-0.037,0.19-0.068
									l1.216,1.665c-0.086,0.088-0.149,0.195-0.182,0.314l-3.09-0.375L133.336,51.919z M135.605,53.416
									c-0.068,0.014-0.133,0.039-0.19,0.07l-1.218-1.667c0.165-0.161,0.246-0.399,0.197-0.641
									c-0.016-0.078-0.045-0.151-0.085-0.217l7.223-5.814c0.001,0,0.005,0.004,0.007,0.006l-5.498,8.317
									C135.91,53.409,135.758,53.387,135.605,53.416 M149.997,21.087l6.438,1.586l-1.7,9.227
									c-0.052-0.003-0.107,0.001-0.162,0.011c-0.021,0.006-0.037,0.01-0.056,0.017l-4.79-10.515
									C149.848,21.335,149.941,21.221,149.997,21.087 M216.871,11.166l-4.942,13.947l-6.13-5.407
									c0.097-0.149,0.136-0.334,0.1-0.523c-0.013-0.068-0.038-0.13-0.068-0.189l10.871-7.955
									C216.749,11.089,216.808,11.133,216.871,11.166 M220.962,33.393l-9.732-3.896c0.025-0.098,0.027-0.2,0.008-0.302
									c-0.046-0.217-0.182-0.391-0.361-0.485l1.147-3.239l8.952,7.896C220.972,33.375,220.968,33.383,220.962,33.393
									 M202.575,23.21l2.281-3.276c0.143,0.081,0.314,0.113,0.488,0.08c0.035-0.007,0.065-0.016,0.098-0.028l4.681,8.782
									c-0.024,0.021-0.05,0.04-0.073,0.063L202.575,23.21z M196.499,31.574c-0.104-0.052-0.224-0.079-0.347-0.072l-2.946-14.729
									c0.098-0.035,0.185-0.089,0.256-0.159l8.831,6.641L196.499,31.574z M184.989,36.709c-0.026,0.021-0.047,0.046-0.069,0.069
									l-11.576-7.586l3.189-5.294c0.116,0.04,0.242,0.051,0.371,0.025c0.045-0.008,0.084-0.021,0.123-0.036l6.301,10.148
									L184.989,36.709z M142.588,44.225l8.322-7.878l8.718,7.98c-0.058,0.082-0.096,0.182-0.11,0.285l-16.812-0.083
									c-0.001-0.013-0.002-0.026-0.004-0.04C142.682,44.392,142.642,44.302,142.588,44.225 M176.133,23.539
									c0.049,0.106,0.124,0.193,0.217,0.262l-3.18,5.278l-5.035-3.298c0.126-0.142,0.193-0.333,0.174-0.533L176.133,23.539z
									 M210.407,28.643c-0.035,0.006-0.067,0.016-0.098,0.027l-4.683-8.784c0.013-0.01,0.022-0.017,0.032-0.024l6.195,5.462
									l-1.176,3.318C210.591,28.625,210.501,28.623,210.407,28.643 M160.075,44.027c-0.02,0.006-0.038,0.009-0.056,0.016
									l-4.813-10.604l-0.113-0.245c0.146-0.093,0.252-0.238,0.297-0.405l8.701,1.048l-3.736,10.192
									C160.267,44.011,160.172,44.01,160.075,44.027 M155.415,32.584c0-0.04-0.005-0.08-0.014-0.119
									c-0.007-0.043-0.02-0.081-0.034-0.121l2.801-1.608l8.826-5.073c0.017,0.03,0.038,0.061,0.06,0.089l-2.889,7.885
									L155.415,32.584z M167.22,25.902c0.051,0.034,0.107,0.063,0.167,0.082l1.326,4.388l1.047,3.455
									c-0.185,0.084-0.318,0.246-0.375,0.436l-5.009-0.603L167.22,25.902z M170.321,33.808c-0.111-0.044-0.237-0.061-0.363-0.041
									l-1.05-3.472l-1.295-4.275c0.044-0.001,0.089-0.004,0.134-0.012c0.079-0.016,0.152-0.047,0.222-0.087l5.095,3.336
									L170.321,33.808z M154.851,33.296c0.018-0.005,0.035-0.012,0.056-0.016l4.924,10.848c-0.021,0.013-0.043,0.028-0.063,0.044
									l-8.708-7.97l3.218-3.045C154.433,33.28,154.64,33.336,154.851,33.296 M160.551,44.101l3.752-10.24l5.052,0.609
									c0,0.042,0.006,0.087,0.014,0.132c0.021,0.106,0.066,0.203,0.129,0.283l-8.878,9.261
									C160.597,44.128,160.575,44.114,160.551,44.101 M170.5,33.914l2.735-4.543l11.569,7.579
									c-0.011,0.022-0.02,0.045-0.027,0.068l-14.013-2.546c0.002-0.049-0.004-0.098-0.014-0.149
									C170.718,34.155,170.624,34.013,170.5,33.914 M193.587,16.445c0.01-0.017,0.02-0.038,0.03-0.059l10.888,2.859
									c-0.007,0.068-0.005,0.141,0.01,0.214c0.027,0.136,0.092,0.253,0.18,0.347l-2.284,3.277L193.587,16.445z M176.069,23.34
									l-7.809,1.708c-0.088-0.212-0.271-0.367-0.489-0.418l0.735-8.306l7.662,6.536C176.081,22.997,176.043,23.166,176.069,23.34
									 M167.565,24.612c-0.033,0.001-0.063,0.005-0.097,0.011c-0.025,0.006-0.051,0.013-0.077,0.021L159.6,8.826
									c0.021-0.015,0.042-0.031,0.061-0.048l8.653,7.381L167.565,24.612z M166.919,25.465l-11.654,6.701
									c-0.086-0.106-0.197-0.186-0.325-0.229l1.697-9.215l10.27,2.526c-0.007,0.068-0.003,0.136,0.01,0.205
									C166.916,25.458,166.919,25.461,166.919,25.465 M154.133,33.006l-3.227,3.057l-7.038-6.438
									c0.027-0.034,0.05-0.069,0.07-0.107l10.074,2.987c-0.01,0.079-0.008,0.158,0.007,0.236
									C154.038,32.84,154.078,32.93,154.133,33.006 M143.447,29.89c0.103-0.02,0.194-0.063,0.272-0.121l7.034,6.437l-8.31,7.869
									c-0.08-0.063-0.174-0.109-0.274-0.132l1.139-14.04C143.354,29.902,143.401,29.898,143.447,29.89 M142.705,44.737
									l16.811,0.082c0.002,0.014,0.004,0.026,0.006,0.039c0.071,0.359,0.405,0.6,0.764,0.562l2.9,11.287
									c-0.107,0.045-0.199,0.116-0.273,0.205l-20.249-12.017C142.683,44.846,142.696,44.791,142.705,44.737 M163.386,56.655
									l-2.898-11.287c0.291-0.121,0.469-0.428,0.423-0.749l6.69-2.001l-4.048,14.04C163.499,56.651,163.444,56.649,163.386,56.655
									 M160.85,44.42c-0.021-0.047-0.049-0.091-0.08-0.132l8.873-9.259c0.038,0.029,0.081,0.055,0.124,0.074l-2.099,7.28
									L160.85,44.42z M169.966,35.161c0.076,0.01,0.153,0.008,0.231-0.007c0.262-0.051,0.459-0.241,0.534-0.478l14.009,2.546
									c-0.001,0.019-0.001,0.038,0,0.058l-16.836,5.033L169.966,35.161z M185.307,36.556c-0.05,0.009-0.099,0.024-0.143,0.042
									l-6.761-10.887l-1.197-1.927c0.046-0.038,0.086-0.079,0.12-0.126l11.04,5.07l-2.785,7.826
									C185.493,36.535,185.399,36.534,185.307,36.556 M177.428,23.476c0.041-0.115,0.056-0.242,0.031-0.373l14.914-6.615
									c0.064,0.104,0.155,0.188,0.262,0.246l-4.199,11.799L177.428,23.476z M192.832,16.802c0.056,0.011,0.113,0.013,0.17,0.012
									l2.947,14.729c-0.149,0.053-0.27,0.153-0.354,0.28l-6.971-3.203L192.832,16.802z M196.671,31.692l5.788-8.313l7.466,5.619
									c-0.063,0.11-0.091,0.239-0.084,0.37l-12.992,2.6C196.813,31.861,196.749,31.768,196.671,31.692 M221.112,33.21
									l-9.015-7.948l4.969-14.026c0.052,0.01,0.106,0.012,0.161,0.011l4.104,21.834C221.248,33.109,221.175,33.153,221.112,33.21
									 M216.506,10.648c0.001,0.012,0.001,0.021,0.006,0.034c0.011,0.066,0.035,0.13,0.065,0.19l-10.87,7.953
									c-0.081-0.084-0.184-0.144-0.295-0.18l1.213-7.983L216.506,10.648z M205.208,18.616c-0.045,0-0.096,0.005-0.139,0.015
									c-0.006,0-0.01,0.003-0.016,0.004l-4.064-7.479c0.168-0.109,0.277-0.287,0.308-0.485l5.119-0.007L205.208,18.616z
									 M200.738,11.26c0.023-0.004,0.044-0.013,0.065-0.017l4.053,7.466c-0.034,0.02-0.065,0.043-0.096,0.067l-6.826-6.206
									l2.115-1.562C200.21,11.207,200.471,11.314,200.738,11.26 M204.619,18.93c-0.017,0.025-0.032,0.052-0.046,0.08
									l-10.905-2.825c0.008-0.069,0.005-0.141-0.009-0.214c-0.014-0.067-0.038-0.133-0.069-0.19l4.176-3.086L204.619,18.93z
									 M191.821,8.156c0.117,0.076,0.255,0.119,0.4,0.116l0.585,7.151c-0.369,0.086-0.605,0.451-0.531,0.824
									c0.004,0.016,0.01,0.032,0.013,0.051l-3.918,1.736l-10.979,4.872c-0.01-0.021-0.021-0.039-0.032-0.057L191.821,8.156z
									 M168.438,14.734l-0.104,1.172l-8.045-6.865l7.665,4.729c-0.056,0.127-0.072,0.27-0.042,0.417
									C167.968,14.463,168.18,14.67,168.438,14.734 M159.336,8.938c0.026-0.005,0.052-0.013,0.078-0.018l7.791,15.815
									c-0.111,0.078-0.198,0.188-0.251,0.313l-10.279-2.529l2.499-13.565C159.228,8.954,159.279,8.951,159.336,8.938
									 M158.97,8.914l-2.496,13.554l-6.427-1.58c0.005-0.067,0.001-0.136-0.01-0.206c-0.028-0.134-0.094-0.252-0.181-0.344
									l8.992-11.478C158.888,8.882,158.929,8.9,158.97,8.914 M149.483,21.513c0.018-0.005,0.037-0.009,0.055-0.015l4.791,10.513
									c-0.112,0.073-0.2,0.176-0.255,0.294l-10.07-2.985c0.014-0.082,0.014-0.172-0.005-0.259
									c-0.028-0.146-0.099-0.271-0.198-0.367l5.221-7.247C149.158,21.517,149.318,21.546,149.483,21.513 M143.088,29.867
									c0.006,0.003,0.01,0.005,0.016,0.006l-1.14,14.053c-0.03,0.003-0.062,0.005-0.092,0.011
									c-0.186,0.037-0.339,0.145-0.439,0.288l-3.74-1.873L143.088,29.867z M141.341,44.408c-0.038,0.112-0.048,0.236-0.022,0.359
									c0.015,0.079,0.046,0.152,0.083,0.218l-7.221,5.814c-0.032-0.03-0.069-0.056-0.106-0.079l3.534-8.178L141.341,44.408z
									 M133.885,50.638c-0.103-0.028-0.212-0.032-0.322-0.011c-0.016,0.004-0.03,0.007-0.046,0.011l-4.381-9.927l-1.19-2.705
									c0.079-0.052,0.147-0.12,0.202-0.197l9.276,4.641L133.885,50.638z M127.702,38.103c0.018-0.003,0.034-0.009,0.053-0.013
									l1.167,2.646l4.404,9.985c-0.011,0.009-0.023,0.016-0.033,0.022l-9.208-9.517l3.064-3.245
									C127.305,38.093,127.502,38.145,127.702,38.103 M133.144,50.889c-0.072,0.098-0.12,0.209-0.138,0.331l-5.771,0.052
									l-12.293,0.107c0-0.01-0.003-0.019-0.005-0.028c-0.023-0.113-0.071-0.212-0.137-0.298l9.143-9.673L133.144,50.889z
									 M114.648,50.909c-0.072-0.051-0.156-0.087-0.244-0.109l1.358-17.342c0.064,0.007,0.131,0.004,0.198-0.01
									c0.079-0.016,0.154-0.047,0.225-0.087l7.612,7.867L114.648,50.909z M113.699,51.042c-0.057,0.07-0.099,0.151-0.127,0.239
									l-10.054-1.522c-0.002-0.019-0.004-0.041-0.009-0.061c-0.033-0.162-0.117-0.298-0.233-0.396l4.016-5.294L113.699,51.042z
									 M103.333,50.32c0.05-0.056,0.093-0.117,0.121-0.186l8.983,3.671l-3.005,4.145c-0.137-0.073-0.301-0.101-0.463-0.068
									c-0.067,0.013-0.126,0.036-0.184,0.063L103.333,50.32z M109.81,58.508c-0.003-0.023-0.005-0.049-0.011-0.072
									c-0.027-0.145-0.1-0.269-0.198-0.365l3.035-4.185l13.486,5.513c-0.002,0.009-0.006,0.017-0.007,0.026L109.81,58.508z
									 M127.348,59.116c-0.005-0.007-0.01-0.012-0.014-0.019l4.483-5.364l3.221,0.395c0,0.038,0.005,0.079,0.013,0.118
									c0.01,0.049,0.024,0.096,0.043,0.139L127.348,59.116z M163.897,56.804c-0.045-0.035-0.094-0.064-0.146-0.088l4.084-14.168
									l16.524-4.938L163.897,56.804z M186.031,36.855c-0.064-0.097-0.152-0.178-0.255-0.232l2.777-7.809l6.955,3.192
									c-0.029,0.107-0.039,0.221-0.015,0.337c0.006,0.023,0.012,0.043,0.017,0.064L186.031,36.855z M207.249,3.745
									c0.063,0.043,0.13,0.076,0.2,0.098l-1.001,6.613l-5.151,0.007c-0.001-0.011-0.003-0.021-0.004-0.032
									c-0.022-0.112-0.071-0.213-0.136-0.295L207.249,3.745z M199.914,10.411c-0.023,0.096-0.027,0.194-0.004,0.294
									c0.007,0.043,0.021,0.084,0.036,0.122l-2.167,1.602l-4.959-4.511c0.009-0.015,0.017-0.028,0.024-0.046L199.914,10.411z
									 M191.542,7.795c0.027,0.082,0.07,0.158,0.126,0.224l-14.449,14.677c-0.156-0.136-0.372-0.197-0.592-0.152
									c-0.089,0.017-0.173,0.053-0.247,0.101l-7.236-8.144c0.123-0.146,0.183-0.339,0.159-0.537l22.242-6.156L191.542,7.795z
									 M142.729,29.602c0.048,0.067,0.108,0.126,0.174,0.172l-5.396,12.485l-9.271-4.638c0.035-0.11,0.043-0.228,0.02-0.348
									c-0.009-0.036-0.02-0.071-0.033-0.106L142.729,29.602z M126.882,37.24c-0.024,0.099-0.03,0.204-0.011,0.31
									c0.023,0.109,0.068,0.206,0.132,0.287l-3.063,3.242l-7.596-7.851c0.028-0.032,0.059-0.069,0.081-0.109L126.882,37.24z
									 M102.512,39.094c0.084-0.017,0.158-0.049,0.226-0.088l4.412,4.846l-4.051,5.339c-0.068-0.03-0.143-0.049-0.219-0.056
									l-0.448-10.03C102.457,39.102,102.486,39.1,102.512,39.094"/>
							</g>
						</g>
					</g>
					<g opacity="0.1" clip-path="url(#SVGID_9_)">
						<g>
							<defs>
								<rect id="SVGID_98_" x="114.103" y="-10.959" width="85.137" height="55.184"/>
							</defs>
							<clipPath id="SVGID_15_">
								<use xlink:href="#SVGID_98_"  overflow="visible"/>
							</clipPath>
							<g clip-path="url(#SVGID_15_)">
								<defs>
									<rect id="SVGID_100_" x="114.103" y="-10.959" width="85.137" height="55.184"/>
								</defs>
								<clipPath id="SVGID_17_">
									<use xlink:href="#SVGID_100_"  overflow="visible"/>
								</clipPath>
								<path clip-path="url(#SVGID_17_)" fill="#5BC7D4" d="M197.872-4.212l-4.537-5.907c0.123-0.16,0.146-0.383,0.043-0.57
									c-0.138-0.253-0.455-0.345-0.707-0.205c-0.185,0.1-0.282,0.294-0.271,0.49l-9.337,2.905
									c-0.146-0.238-0.451-0.322-0.697-0.188c-0.252,0.139-0.346,0.456-0.207,0.71c0.041,0.07,0.091,0.128,0.152,0.173
									l-3.956,7.312c-0.135-0.046-0.287-0.038-0.421,0.035c-0.182,0.101-0.278,0.291-0.269,0.483L165.84,3.651
									c-0.008-0.017-0.016-0.035-0.027-0.055c-0.138-0.251-0.455-0.344-0.707-0.205c-0.109,0.059-0.186,0.152-0.23,0.257
									l-6.408-1.616c0.01-0.103-0.009-0.207-0.061-0.304c-0.139-0.253-0.456-0.346-0.709-0.205
									c-0.116,0.062-0.197,0.161-0.238,0.274l-10.561-2.215c0.005-0.095-0.015-0.193-0.063-0.28
									c-0.137-0.254-0.454-0.346-0.707-0.207c-0.254,0.138-0.346,0.455-0.206,0.708c0.051,0.096,0.13,0.169,0.223,0.214
									l-2.241,6.786c-0.112-0.02-0.231-0.004-0.34,0.058c-0.218,0.119-0.316,0.371-0.25,0.6l-15.528,7.109l0.033,0.073
									c0-0.002,0-0.002,0-0.002c-0.141-0.254-0.458-0.345-0.71-0.207c-0.251,0.139-0.345,0.456-0.206,0.711
									c0.03,0.053,0.069,0.101,0.115,0.14l-2.8,4.815c-0.138-0.052-0.294-0.046-0.433,0.029c-0.128,0.073-0.217,0.192-0.253,0.325
									l-6.494-0.716c-0.003-0.077-0.023-0.156-0.064-0.23c-0.138-0.252-0.454-0.344-0.707-0.207
									c-0.253,0.142-0.346,0.457-0.207,0.709c0.063,0.113,0.161,0.194,0.272,0.236l-1.673,7.715
									c-0.097-0.007-0.194,0.014-0.285,0.063c-0.254,0.139-0.345,0.456-0.207,0.708c0.127,0.232,0.403,0.328,0.643,0.236
									l8.076,14.315c-0.205,0.153-0.273,0.438-0.146,0.669c0.138,0.253,0.455,0.343,0.71,0.206
									c0.252-0.139,0.343-0.456,0.205-0.71c-0.037-0.064-0.087-0.119-0.143-0.161l3.656-6.844c0.137,0.048,0.289,0.04,0.427-0.033
									c0.23-0.128,0.325-0.401,0.238-0.641l8.596-4.716c0.153,0.202,0.437,0.269,0.666,0.143c0.191-0.105,0.289-0.313,0.266-0.517
									l7.486-1.996c0.008,0.014,0.015,0.029,0.022,0.044c0.139,0.253,0.456,0.344,0.708,0.206c0.228-0.126,0.324-0.394,0.242-0.63
									l21.017,1.138c0.007,0.067,0.028,0.137,0.063,0.203c0.139,0.251,0.456,0.344,0.71,0.205
									c0.251-0.138,0.344-0.457,0.206-0.709c-0.052-0.094-0.127-0.165-0.215-0.211l5.743-16.45
									c0.116,0.022,0.238,0.007,0.349-0.055c0.103-0.056,0.177-0.141,0.223-0.237l7.074,2.09
									c-0.015,0.106,0.003,0.222,0.061,0.323c0.137,0.254,0.454,0.347,0.709,0.207c0.172-0.095,0.27-0.274,0.27-0.459l6.64-1.011
									c0.011,0.033,0.025,0.065,0.042,0.097c0.139,0.254,0.454,0.347,0.707,0.207c0.254-0.139,0.347-0.455,0.207-0.708
									c-0.01-0.018-0.018-0.033-0.027-0.047l8.797-8.285c0.159,0.125,0.386,0.151,0.574,0.048
									c0.252-0.139,0.346-0.456,0.205-0.708c-0.088-0.164-0.25-0.259-0.42-0.271l-0.544-6.908
									c0.056-0.011,0.107-0.027,0.159-0.058c0.252-0.137,0.344-0.455,0.207-0.707C198.437-4.251,198.125-4.346,197.872-4.212
									 M192.85-9.92l-0.191,4.809l-9.521-2.156c-0.001-0.03-0.007-0.061-0.016-0.09L184-7.63l8.432-2.623
									c0.009,0.021,0.02,0.043,0.032,0.065C192.544-10.036,192.691-9.943,192.85-9.92 M144.125,7.735l0.696,0.693l-1.146,6.872
									l0.203-7.465c0.063-0.009,0.127-0.028,0.188-0.062C144.088,7.764,144.107,7.749,144.125,7.735 M127.557,15.376l3.081,4.339
									c-0.092,0.089-0.146,0.208-0.158,0.331l-3.802,0.241l0.653-4.875C127.408,15.417,127.482,15.405,127.557,15.376
									 M116.855,20.157l3.699,3.253l-5.583,4.684c-0.051-0.044-0.104-0.077-0.165-0.1l1.676-7.714
									c0.095,0.007,0.195-0.014,0.286-0.062C116.798,20.201,116.828,20.181,116.855,20.157 M183.675,12.137l8.461-9.079
									c0.023,0.015,0.046,0.028,0.071,0.04l-2.962,9.573c-0.107-0.019-0.225,0-0.328,0.057c-0.12,0.066-0.204,0.173-0.244,0.293
									L183.675,12.137z M183.124-7.112l9.528,2.157l-0.276,7.064c-0.067,0.004-0.134,0.027-0.194,0.06
									c-0.02,0.013-0.039,0.024-0.056,0.037l-9.048-9.19C183.098-7.024,183.113-7.068,183.124-7.112 M192.891,2.378
									c-0.019-0.032-0.039-0.062-0.059-0.087l4.889-5.563l-3.314,6.313l-1.456-0.362C192.96,2.577,192.94,2.472,192.891,2.378
									 M194.333,3.182l-4.847,9.231l2.867-9.271c0.108,0.017,0.225,0,0.33-0.058c0.108-0.06,0.188-0.152,0.23-0.259L194.333,3.182
									z M183.495,12.104l-1.643-0.291c0.004-0.091-0.017-0.181-0.063-0.266c-0.003-0.007-0.007-0.011-0.01-0.018l4.334-3.584
									l5.46-4.509L183.495,12.104z M183.372,12.237l-1.57,1.686c-0.077-0.054-0.163-0.085-0.253-0.092l-0.104-1.521
									c0.045-0.011,0.091-0.029,0.139-0.052c0.118-0.068,0.202-0.173,0.243-0.293L183.372,12.237z M181.034,14.132l-7.077-2.092
									c0-0.001,0-0.003,0-0.007l6.861-0.146c0.011,0.055,0.027,0.111,0.057,0.164c0.088,0.159,0.247,0.255,0.415,0.268
									l0.104,1.521c-0.046,0.012-0.094,0.028-0.137,0.053C181.154,13.95,181.08,14.035,181.034,14.132 M158.013,2.496l2.295,8.236
									c-0.013,0.006-0.025,0.012-0.038,0.02c-0.036,0.019-0.07,0.042-0.098,0.067l-5.358-4.413l2.892-3.963
									C157.799,2.491,157.905,2.509,158.013,2.496 M115.144,28.523l9.946-0.672c0.011,0.048,0.026,0.095,0.052,0.14
									c0.068,0.123,0.181,0.208,0.305,0.248l-0.896,5.982l-9.443-5.544C115.128,28.629,115.14,28.578,115.144,28.523
									 M123.357,43.205l1.31-8.736l2.193,1.288c-0.055,0.141-0.052,0.303,0.027,0.445c0.036,0.07,0.089,0.125,0.146,0.169
									l-3.654,6.842C123.372,43.21,123.365,43.208,123.357,43.205 M127.386,35.432c-0.025-0.003-0.049-0.001-0.073,0l-1.532-7.204
									c0.024-0.01,0.047-0.019,0.068-0.029c0.116-0.064,0.197-0.165,0.241-0.279l2.85,0.77L127.386,35.432z M129.122,28.58
									l1.838-7.969c0.072,0.006,0.148-0.005,0.222-0.031l5.345,9.745c-0.071,0.056-0.125,0.126-0.16,0.205L129.122,28.58z
									 M144.996,25.652l-1.264-8.751c0.028-0.01,0.059-0.021,0.087-0.035c0.085-0.048,0.151-0.114,0.198-0.194l4.326,1.48
									l-2.941,9.808c-0.024-0.002-0.048-0.005-0.073-0.005L144.996,25.652z M172.985,12.221c0.003,0.008,0.009,0.015,0.013,0.022
									l-9.479,8.056c-0.058-0.052-0.127-0.09-0.199-0.11l1.137-8.673l8.466,0.499C172.928,12.085,172.949,12.154,172.985,12.221
									 M149.316,13.521c0.086,0.122,0.213,0.197,0.353,0.22l-1.279,4.267l-4.315-1.475c0.021-0.084,0.021-0.171-0.002-0.254
									L149.316,13.521z M126.938,35.625l-2.247-1.319l0.906-6.045c0.01,0,0.02,0,0.029,0l1.535,7.202
									c-0.023,0.01-0.046,0.019-0.068,0.032C127.03,35.528,126.979,35.572,126.938,35.625 M162.767,20.366l-6.971-3.993
									l4.428-4.737c0.106,0.073,0.235,0.106,0.361,0.09l0.055,0.191l2.324,8.298c-0.014,0.006-0.025,0.01-0.038,0.017
									C162.861,20.267,162.809,20.313,162.767,20.366 M155.66,16.296l-5.393-3.09c-0.002-0.025-0.004-0.051-0.01-0.079
									l7.417-1.332l2.351-0.421c0.012,0.028,0.021,0.057,0.037,0.085c0.016,0.026,0.032,0.05,0.049,0.073L155.66,16.296z
									 M155.551,16.41l-2.548,2.728c-0.124-0.082-0.276-0.107-0.422-0.068l-1.054-2.455l-1.337-3.117
									c0.023-0.04,0.042-0.081,0.056-0.125L155.551,16.41z M148.533,18.055l1.297-4.317c0.057-0.008,0.113-0.026,0.167-0.056
									c0.028-0.017,0.057-0.035,0.081-0.056l1.304,3.038l1.059,2.466c-0.08,0.051-0.144,0.119-0.187,0.196L148.533,18.055z
									 M161.03,11.315l3.272,0.192l-1.135,8.66c-0.02,0.001-0.038,0.001-0.058,0.005l-2.377-8.488
									c0.012-0.006,0.025-0.012,0.038-0.021C160.911,11.59,160.999,11.459,161.03,11.315 M162.673,20.558l-9.438-1.017
									c-0.003-0.074-0.023-0.149-0.063-0.221c-0.017-0.028-0.035-0.055-0.057-0.08l2.571-2.751l7.005,4.012
									C162.684,20.519,162.679,20.539,162.673,20.558 M152.257,19.823c0.02,0.032,0.04,0.064,0.063,0.09l-6.722,8.117
									c-0.016-0.008-0.031-0.017-0.049-0.026l2.94-9.803l3.713,1.27C152.18,19.587,152.196,19.712,152.257,19.823 M128.973,28.539
									l-2.853-0.769c0.005-0.097-0.015-0.191-0.063-0.282c-0.028-0.048-0.062-0.09-0.1-0.125l4.807-6.808
									c0.016,0.008,0.029,0.015,0.045,0.021L128.973,28.539z M143.729,15.911l1.226-7.351l4.371,4.354
									c-0.097,0.133-0.127,0.308-0.076,0.468l-5.235,2.755C143.946,16.026,143.843,15.948,143.729,15.911 M144.985,8.374
									l1.383-8.301c0.019,0,0.04,0,0.059-0.001l3.122,12.67c-0.02,0.008-0.036,0.014-0.055,0.023
									c-0.02,0.013-0.041,0.025-0.06,0.039L144.985,8.374z M150.204,12.974c-0.025-0.047-0.057-0.086-0.094-0.12l4.614-6.324
									l5.351,4.409c-0.053,0.085-0.078,0.186-0.077,0.285l-9.791,1.758C150.206,12.979,150.206,12.976,150.204,12.974
									 M160.979,10.958c-0.03-0.055-0.068-0.1-0.111-0.139l4.283-6.492c0.031,0.014,0.059,0.023,0.09,0.03l-0.918,6.996
									l-3.285-0.191C161.034,11.092,161.014,11.022,160.979,10.958 M165.691,4.25l7.333,7.405
									c-0.046,0.063-0.077,0.132-0.095,0.207l-8.452-0.498l0.916-6.996c0.071-0.005,0.146-0.023,0.212-0.063
									C165.637,4.289,165.666,4.27,165.691,4.25 M173.199,12.43l-5.745,16.449c-0.082-0.014-0.168-0.011-0.25,0.017l-3.735-7.773
									c0.22-0.149,0.296-0.445,0.164-0.684c-0.002-0.009-0.008-0.016-0.015-0.023l9.48-8.055
									C173.13,12.387,173.163,12.412,173.199,12.43 M166.972,29.043l-8.979-6.022l4.741-2.055
									c0.127,0.202,0.374,0.292,0.598,0.223l3.734,7.773C167.031,28.984,166.999,29.013,166.972,29.043 M157.841,22.919
									l-4.655-3.124c0.016-0.03,0.026-0.065,0.036-0.099l9.434,1.015c0.002,0.038,0.008,0.076,0.018,0.115L157.841,22.919z
									 M157.675,22.99l-11.933,5.171c-0.009-0.011-0.018-0.024-0.025-0.033l6.719-8.114c0.156,0.098,0.358,0.11,0.53,0.017
									c0.053-0.029,0.097-0.064,0.134-0.107L157.675,22.99z M144.921,28.15l-5.305-3.106l3.836-8.13
									c0.043,0.011,0.085,0.017,0.129,0.015l0.241,1.66l1.355,9.389c-0.033,0.01-0.069,0.023-0.102,0.042
									C145.017,28.054,144.963,28.098,144.921,28.15 M139.483,24.966l-8-4.68c0.033-0.084,0.046-0.175,0.033-0.266l11.597-3.356
									c0.049,0.085,0.116,0.149,0.195,0.196L139.483,24.966z M139.417,25.106l-2.422,5.133c-0.107-0.032-0.223-0.029-0.332,0.011
									l-5.348-9.743c0.034-0.026,0.064-0.057,0.091-0.089L139.417,25.106z M136.354,30.92l-8.596,4.718
									c-0.059-0.08-0.137-0.138-0.224-0.172l1.554-6.737l7.237,1.951C136.315,30.758,136.326,30.841,136.354,30.92
									 M123.021,43.211l-8.075-14.316c0.031-0.026,0.061-0.055,0.085-0.086l9.493,5.576l-1.317,8.796
									C123.144,43.179,123.081,43.188,123.021,43.211 M120.671,23.512l4.49,3.944c-0.048,0.072-0.075,0.156-0.084,0.241
									l-9.943,0.674c-0.011-0.049-0.027-0.095-0.052-0.141l-0.014-0.021L120.671,23.512z M120.79,23.411l2.9-2.433
									c0.11,0.098,0.26,0.145,0.405,0.129l1.262,6.171c-0.003,0-0.006,0.001-0.01,0.003c-0.031,0.017-0.059,0.039-0.087,0.06
									L120.79,23.411z M124.559,20.576l1.94-0.124l-0.908,6.766c-0.028,0-0.057,0.004-0.087,0.009l-1.26-6.159
									c0.016-0.007,0.029-0.014,0.045-0.022C124.466,20.95,124.562,20.763,124.559,20.576 M126.656,20.442l3.832-0.241
									c0.013,0.047,0.029,0.095,0.053,0.141c0.028,0.048,0.061,0.091,0.096,0.125l-4.829,6.795
									c-0.02-0.009-0.041-0.016-0.064-0.022L126.656,20.442z M143.052,16.471c0.001,0.017,0.003,0.033,0.007,0.049l-8.538,2.472
									l-3.047,0.883c-0.005-0.012-0.011-0.023-0.015-0.034c-0.136-0.247-0.443-0.341-0.694-0.214l-3.077-4.328
									c0.084-0.068,0.143-0.157,0.172-0.256L143.052,16.471z M144.272,7.066c-0.054-0.095-0.132-0.169-0.223-0.214l2.089-6.33
									l-1.286,7.721l-0.618-0.615C144.352,7.469,144.371,7.25,144.272,7.066 M146.728-0.06l7.878,6.491l-4.616,6.33
									c-0.091-0.048-0.19-0.067-0.292-0.058l-3.122-12.668c0.02-0.009,0.037-0.019,0.054-0.026
									C146.666-0.01,146.698-0.033,146.728-0.06 M146.867-0.267l10.562,2.215c-0.008,0.094,0.014,0.193,0.062,0.281
									c0.026,0.046,0.056,0.087,0.091,0.121l-2.886,3.957l-7.869-6.486C146.842-0.206,146.857-0.235,146.867-0.267 M158.429,2.181
									l6.407,1.616c-0.01,0.101,0.01,0.205,0.063,0.304c0.032,0.057,0.074,0.106,0.122,0.146l-4.279,6.488
									c-0.09-0.042-0.188-0.056-0.284-0.044l-2.296-8.235c0.013-0.006,0.026-0.012,0.038-0.02
									C158.308,2.378,158.386,2.285,158.429,2.181 M174.802,8.622l-1.227,2.842c-0.126-0.033-0.263-0.021-0.385,0.046
									c-0.02,0.013-0.039,0.024-0.059,0.038l-7.338-7.414c0.001-0.003,0.003-0.007,0.005-0.01L174.802,8.622z M174.939,8.691
									l5.897,2.947c-0.01,0.029-0.017,0.062-0.022,0.094l-6.86,0.147c-0.008-0.055-0.025-0.111-0.055-0.161
									c-0.046-0.084-0.109-0.147-0.183-0.194L174.939,8.691z M175,8.55l3.041-7.048c0.069,0.02,0.14,0.024,0.213,0.016
									l0.612,2.101l2.248,7.708c-0.013,0.004-0.022,0.01-0.032,0.015c-0.072,0.041-0.133,0.096-0.176,0.159L175,8.55z
									 M178.689,1.126l3.284,0.378l-0.682,9.775c-0.012,0-0.021,0.002-0.031,0.004l-2.262-7.754l-0.598-2.055
									c0.01-0.006,0.024-0.012,0.034-0.017C178.568,1.384,178.656,1.262,178.689,1.126 M182.125,1.521l9.787,1.123
									c0.001,0.08,0.021,0.159,0.061,0.235c0.005,0.007,0.009,0.01,0.013,0.018l-7.014,5.794l-3.292,2.721
									c-0.066-0.062-0.147-0.102-0.234-0.121L182.125,1.521z M182.136,1.367l0.564-8.083c0.057-0.008,0.113-0.026,0.167-0.055
									c0.046-0.024,0.082-0.056,0.117-0.089l9.031,9.173c-0.04,0.055-0.069,0.114-0.087,0.179L182.136,1.367z M192.805-4.922
									l4.799,1.086c-0.02,0.112-0.002,0.229,0.055,0.336c0.008,0.014,0.018,0.025,0.023,0.038l-4.966,5.65
									c-0.059-0.036-0.12-0.06-0.188-0.075L192.805-4.922z M198.601,3.684c-0.047,0.012-0.094,0.027-0.135,0.052
									c-0.109,0.059-0.188,0.152-0.23,0.257l-3.675-0.914l3.338-6.357c0.05,0.024,0.101,0.039,0.156,0.047L198.601,3.684z
									 M189.489,12.775c-0.003-0.004-0.009-0.007-0.015-0.011l5.013-9.545l3.709,0.922c-0.009,0.103,0.012,0.207,0.063,0.303
									c0.009,0.015,0.019,0.032,0.029,0.046L189.489,12.775z M182.005,14.198c-0.01-0.034-0.024-0.066-0.041-0.098
									c-0.017-0.026-0.032-0.052-0.049-0.074l1.636-1.757l5.095,0.901c0,0.007-0.003,0.012-0.003,0.017L182.005,14.198z
									 M146.115,28.167l11.709-5.074l9.063,6.076c-0.019,0.038-0.031,0.079-0.04,0.118L146.115,28.167z M137.322,30.531
									c-0.007-0.014-0.013-0.027-0.021-0.042c-0.043-0.078-0.101-0.14-0.169-0.183l2.418-5.123l5.294,3.099
									c-0.033,0.081-0.044,0.166-0.036,0.253L137.322,30.531z M123.516,20.609c0.006,0.078,0.023,0.155,0.064,0.23
									c0.004,0.007,0.009,0.014,0.013,0.021l-2.919,2.448l-3.718-3.266c0.027-0.045,0.05-0.098,0.065-0.151L123.516,20.609z
									 M127.146,15.367c0.01,0.006,0.022,0.012,0.032,0.016l-0.658,4.916l-1.988,0.124c-0.01-0.027-0.021-0.059-0.039-0.085
									c-0.035-0.067-0.084-0.122-0.14-0.165L127.146,15.367z M127.85,14.711l15.529-7.11c0.081,0.126,0.207,0.206,0.346,0.231
									l-0.22,8.059c-0.064,0.007-0.128,0.026-0.188,0.059c-0.145,0.08-0.237,0.218-0.262,0.37l-15.173-1.432
									c0-0.06-0.013-0.123-0.036-0.186L127.85,14.711z M177.695,1.177c0.009,0.025,0.019,0.052,0.032,0.075
									c0.043,0.08,0.104,0.143,0.175,0.188l-3.038,7.041l-9.005-4.499c0.016-0.059,0.022-0.119,0.016-0.181L177.695,1.177z
									 M182.448-6.736c0.03,0.013,0.063,0.02,0.099,0.023l-0.564,8.063l-3.278-0.375c-0.002-0.077-0.022-0.155-0.063-0.227
									c-0.037-0.07-0.091-0.127-0.153-0.171L182.448-6.736z M193.223-10.013l4.526,5.892c-0.039,0.041-0.075,0.088-0.1,0.139
									l-4.838-1.094l0.192-4.847c0.056-0.009,0.114-0.028,0.166-0.058C193.19-9.99,193.206-10,193.223-10.013"/>
							</g>
						</g>
					</g>
					<path clip-path="url(#SVGID_9_)" fill="#5BC7D4" d="M130.867,59.056l7.887,4.621c-0.064,0.238,0.01,0.502,0.211,0.667
						c0.275,0.224,0.679,0.182,0.902-0.091c0.16-0.199,0.183-0.467,0.079-0.683l9.272-7.614c0.272,0.203,0.661,0.157,0.878-0.11
						c0.223-0.272,0.182-0.677-0.092-0.9c-0.077-0.063-0.164-0.102-0.254-0.124l1.122-10.14c0.173-0.011,0.341-0.091,0.459-0.234
						c0.16-0.197,0.183-0.46,0.085-0.674l12.228-8.445c0.016,0.018,0.033,0.034,0.052,0.05c0.275,0.223,0.68,0.182,0.901-0.092
						c0.096-0.118,0.144-0.258,0.144-0.399l8.03-1.121c0.035,0.12,0.104,0.23,0.21,0.315c0.275,0.223,0.677,0.182,0.9-0.092
						c0.1-0.125,0.146-0.275,0.143-0.425l13.024-2.359c0.037,0.11,0.104,0.214,0.201,0.291c0.275,0.226,0.677,0.184,0.901-0.091
						c0.225-0.273,0.182-0.678-0.092-0.9c-0.106-0.085-0.229-0.132-0.354-0.143l-0.587-8.746c0.136-0.03,0.266-0.104,0.36-0.222
						c0.193-0.237,0.188-0.568,0.006-0.8l14.365-15.25l-0.071-0.064c0.002,0,0.002,0.001,0.002,0.001
						c0.275,0.223,0.679,0.181,0.901-0.094c0.224-0.275,0.184-0.676-0.092-0.901c-0.061-0.048-0.128-0.084-0.196-0.106l0.96-6.764
						c0.177-0.006,0.352-0.086,0.474-0.236c0.116-0.142,0.161-0.317,0.139-0.485l7.711-2.187c0.04,0.088,0.101,0.168,0.18,0.233
						c0.272,0.223,0.68,0.182,0.901-0.092c0.223-0.274,0.181-0.679-0.094-0.901c-0.124-0.099-0.272-0.147-0.419-0.144l-1.659-9.541
						c0.111-0.036,0.215-0.104,0.295-0.204c0.222-0.272,0.183-0.675-0.093-0.898c-0.25-0.204-0.61-0.187-0.842,0.029l-15.786-12.54
						c0.162-0.27,0.107-0.625-0.144-0.828c-0.273-0.222-0.677-0.182-0.899,0.093c-0.226,0.274-0.183,0.677,0.091,0.9
						c0.071,0.059,0.154,0.1,0.237,0.12l-0.995,9.468c-0.176,0.007-0.348,0.086-0.47,0.235c-0.202,0.247-0.186,0.605,0.025,0.835
						l-7.592,9.331c-0.269-0.161-0.619-0.105-0.82,0.144c-0.172,0.208-0.188,0.489-0.067,0.71l-7.588,5.728
						c-0.013-0.015-0.028-0.028-0.043-0.04c-0.275-0.222-0.68-0.182-0.902,0.093c-0.199,0.245-0.186,0.597,0.018,0.827L150.6,6.479
						c-0.04-0.077-0.094-0.146-0.164-0.203c-0.275-0.222-0.679-0.182-0.902,0.094c-0.222,0.275-0.179,0.679,0.094,0.901
						c0.103,0.082,0.221,0.128,0.341,0.139l1.068,21.352c-0.141,0.027-0.271,0.102-0.37,0.222c-0.09,0.111-0.136,0.242-0.143,0.373
						l-9.007,0.892c-0.032-0.131-0.104-0.251-0.217-0.342c-0.275-0.223-0.68-0.181-0.901,0.093
						c-0.151,0.189-0.181,0.438-0.096,0.648l-7.08,4.214c-0.025-0.034-0.057-0.063-0.091-0.09c-0.275-0.227-0.678-0.183-0.9,0.09
						c-0.225,0.275-0.182,0.68,0.093,0.901c0.018,0.015,0.037,0.027,0.054,0.04l-6.174,13.479c-0.237-0.07-0.507,0.005-0.674,0.21
						c-0.223,0.275-0.182,0.679,0.094,0.9c0.175,0.145,0.403,0.178,0.602,0.112l3.81,7.603c-0.058,0.035-0.107,0.081-0.155,0.138
						c-0.223,0.273-0.182,0.676,0.093,0.899C130.246,59.365,130.643,59.327,130.867,59.056 M139.214,63.229l-2.007-5.555
						l11.82-1.949c0.015,0.033,0.036,0.065,0.058,0.097l-0.87,0.714l-8.375,6.878c-0.02-0.022-0.04-0.045-0.065-0.063
						C139.61,63.218,139.402,63.18,139.214,63.229 M186.436,20.659l-1.107-0.466l-1.872-8.341l3.216,8.579
						c-0.069,0.038-0.133,0.091-0.184,0.155C186.468,20.61,186.451,20.636,186.436,20.659 M201.74,4.324l-5.509-3.508
						c0.066-0.142,0.073-0.304,0.028-0.451l4.211-2.029l1.506,5.844C201.891,4.209,201.811,4.258,201.74,4.324 M211.693-6.053
						l-5.704-1.985l4.182-7.902c0.076,0.027,0.154,0.039,0.23,0.037l1.657,9.541c-0.111,0.037-0.215,0.105-0.294,0.203
						C211.737-6.126,211.715-6.089,211.693-6.053 M139.453,33.923l-5.424,14.225c-0.033-0.007-0.064-0.012-0.097-0.014
						l-1.056-12.246c0.132-0.032,0.255-0.104,0.346-0.218c0.107-0.13,0.154-0.291,0.142-0.445L139.453,33.923z M148.969,55.545
						l-11.825,1.948l-2.947-8.156c0.072-0.04,0.138-0.093,0.192-0.161c0.019-0.02,0.034-0.045,0.048-0.065l14.526,6.269
						C148.959,55.434,148.96,55.491,148.969,55.545 M133.489,49.27c0.034,0.027,0.069,0.05,0.106,0.069l-2.991,8.58l0.853-8.704
						l1.824-0.259C133.315,49.075,133.387,49.184,133.489,49.27 M131.477,49.021l1.246-12.729l1.021,11.858
						c-0.13,0.03-0.255,0.104-0.348,0.219c-0.096,0.116-0.143,0.258-0.145,0.399L131.477,49.021z M139.673,33.876l2.001-0.428
						c0.038,0.102,0.103,0.197,0.195,0.271c0.007,0.006,0.013,0.01,0.021,0.016l-3.272,6.076l-4.12,7.646L139.673,33.876z
						 M139.754,33.665l1.006-2.637c0.108,0.023,0.223,0.018,0.329-0.015l0.822,1.682c-0.049,0.033-0.096,0.074-0.136,0.124
						c-0.104,0.128-0.149,0.289-0.142,0.444L139.754,33.665z M141.533,30.434l9.008-0.889c0.003,0.001,0.003,0.004,0.005,0.007
						l-7.73,3.334c-0.035-0.059-0.081-0.111-0.14-0.16c-0.172-0.141-0.398-0.175-0.597-0.113l-0.82-1.683
						c0.05-0.033,0.095-0.075,0.135-0.123C141.482,30.696,141.529,30.567,141.533,30.434 M173.073,33.027l-6.412-8.3
						c0.013-0.013,0.024-0.026,0.035-0.039c0.032-0.04,0.058-0.081,0.08-0.127l8.127,2.546l-1.456,5.84
						C173.318,32.937,173.187,32.963,173.073,33.027 M209.775-16.35l-10.992,5.357c-0.034-0.051-0.075-0.094-0.123-0.135
						c-0.135-0.11-0.301-0.155-0.463-0.141l-1.743-7.216l13.289,1.943C209.743-16.476,209.756-16.412,209.775-16.35 M193.659-29.242
						l2.546,10.533l-3.086-0.451c0-0.185-0.081-0.369-0.236-0.495c-0.073-0.062-0.157-0.101-0.245-0.122l0.996-9.465
						C193.643-29.242,193.65-29.242,193.659-29.242 M192.674-18.549c0.026-0.01,0.056-0.02,0.081-0.034l5.068,7.481
						c-0.023,0.021-0.046,0.043-0.064,0.067c-0.103,0.124-0.148,0.276-0.143,0.425l-3.598,0.443L192.674-18.549z M193.863-9.958
						l1.591,9.904c-0.085,0.026-0.166,0.073-0.237,0.137l-10.578-8.605c0.06-0.095,0.09-0.202,0.091-0.309L193.863-9.958z
						 M177.173,0.7l5.478,9.358c-0.028,0.025-0.055,0.054-0.082,0.084c-0.073,0.093-0.119,0.198-0.136,0.31l-5.602,0.317
						l-1.187-12.505c0.03-0.009,0.058-0.018,0.085-0.029L177.173,0.7z M151.567,28.892c-0.009-0.01-0.02-0.014-0.028-0.021
						l7.054-13.532c0.091,0.031,0.187,0.041,0.277,0.031l2.712,10.381l-9.853,3.345C151.693,29.019,151.638,28.947,151.567,28.892
						 M177.863,16.48c-0.151-0.099-0.333-0.126-0.499-0.083l-0.516-5.439l5.584-0.317c0.016,0.102,0.055,0.201,0.119,0.285
						L177.863,16.48z M193.092-18.975l3.162,0.463l1.761,7.287c-0.011,0.004-0.021,0.012-0.032,0.016l-5.069-7.48
						c0.022-0.02,0.042-0.04,0.063-0.065C193.03-18.822,193.066-18.896,193.092-18.975 M159.418,14.912l9.765,1.319l-2.846,7.43
						c-0.152-0.036-0.313-0.012-0.449,0.064l-0.15-0.193l-6.475-8.354c0.013-0.013,0.024-0.027,0.035-0.038
						C159.354,15.069,159.393,14.991,159.418,14.912 M169.377,16.257l7.554,1.021c0.013,0.028,0.028,0.058,0.045,0.084l-7.812,4.938
						l-2.48,1.567c-0.023-0.029-0.05-0.058-0.081-0.081c-0.027-0.021-0.059-0.042-0.089-0.06L169.377,16.257z M169.444,16.076
						l1.638-4.275c0.177,0.036,0.364-0.006,0.511-0.117l2.331,2.304l2.96,2.926c-0.011,0.056-0.013,0.111-0.006,0.167
						L169.444,16.076z M176.659,10.968l0.523,5.503c-0.063,0.039-0.117,0.085-0.166,0.144c-0.024,0.031-0.047,0.064-0.066,0.1
						l-2.884-2.851l-2.342-2.313c0.068-0.096,0.107-0.201,0.12-0.311L176.659,10.968z M165.57,24.397l-3.809,1.294l-2.709-10.368
						c0.021-0.01,0.042-0.02,0.063-0.031l6.623,8.549c-0.015,0.013-0.024,0.027-0.037,0.04
						C165.58,24.03,165.536,24.221,165.57,24.397 M159.437,14.65l11.193-3.203c0.04,0.083,0.097,0.161,0.175,0.221
						c0.03,0.028,0.065,0.051,0.102,0.068l-1.655,4.313l-9.81-1.324C159.441,14.701,159.44,14.674,159.437,14.65 M171.612,10.677
						c-0.037-0.029-0.075-0.053-0.113-0.074l3.893-12.328c0.022,0.003,0.043,0.005,0.066,0.005l1.185,12.501l-4.805,0.272
						C171.811,10.91,171.734,10.776,171.612,10.677 M194.049-9.981l3.601-0.442c0.038,0.109,0.106,0.212,0.2,0.291
						c0.053,0.041,0.11,0.073,0.17,0.098l-2.32,9.952c-0.02-0.001-0.039-0.001-0.058-0.001L194.049-9.981z M183.112,11.185
						l2.002,8.92l-6.979-2.929c0.048-0.196,0.004-0.41-0.129-0.568l4.679-5.546C182.813,11.155,182.964,11.195,183.112,11.185
						 M185.166,20.331l2.259,10.073c-0.023,0.009-0.044,0.017-0.064,0.028l-9.399-12.957c0.017-0.018,0.035-0.036,0.051-0.054
						c0.018-0.022,0.035-0.048,0.049-0.072L185.166,20.331z M177.11,17.513c0.05,0.043,0.103,0.072,0.16,0.098l-2.322,9.314
						l-8.117-2.541c0.019-0.121,0.003-0.246-0.047-0.357l10.317-6.521C177.104,17.51,177.108,17.511,177.11,17.513 M165.794,24.78
						c0.059,0.048,0.122,0.082,0.188,0.105l-1.869,9.357c-0.038-0.001-0.077,0.002-0.116,0.009l-2.188-8.379l3.821-1.297
						C165.669,24.654,165.724,24.724,165.794,24.78 M163.537,34.583l-11.756-5.034c0.024-0.09,0.026-0.185,0.012-0.276l9.838-3.339
						l2.188,8.374c-0.083,0.041-0.152,0.096-0.213,0.171C163.577,34.511,163.557,34.547,163.537,34.583 M151.227,28.749
						l-1.071-21.348c0.103-0.02,0.199-0.064,0.281-0.133l7.834,7.109c-0.182,0.272-0.133,0.642,0.127,0.853
						c0.01,0.007,0.019,0.014,0.029,0.021l-7.057,13.533C151.323,28.768,151.275,28.755,151.227,28.749 M150.631,6.994l12.987,2.698
						l-4.441,4.524c-0.238-0.173-0.56-0.16-0.781,0.021l-7.833-7.109C150.592,7.088,150.615,7.041,150.631,6.994 M163.837,9.737
						l6.732,1.398c-0.001,0.046,0,0.088,0.007,0.133l-11.191,3.201c-0.02-0.042-0.044-0.083-0.073-0.121L163.837,9.737z
						 M163.993,9.578l11.175-11.387c0.014,0.009,0.029,0.019,0.045,0.025l-3.892,12.326c-0.222-0.041-0.457,0.039-0.61,0.227
						c-0.045,0.055-0.079,0.118-0.104,0.183L163.993,9.578z M176.104-2.174l7.466,1.078l-0.608,11.011
						c-0.053,0.008-0.104,0.023-0.15,0.045l-1.043-1.777l-5.874-10.041c0.034-0.028,0.064-0.061,0.093-0.096
						C176.043-2.022,176.081-2.098,176.104-2.174 M183.755-1.068l11.254,1.627c0,0.11,0.029,0.22,0.085,0.315l-11.631,9.171
						c-0.091-0.074-0.2-0.117-0.311-0.132L183.755-1.068z M183.766-1.258l0.384-6.952c0.137-0.013,0.266-0.07,0.373-0.165
						l10.575,8.604c-0.026,0.048-0.049,0.096-0.062,0.145L183.766-1.258z M184.562-9.278l7.591-9.33
						c0.104,0.061,0.218,0.091,0.334,0.09l1.348,8.376l-9.127,1.123C184.678-9.114,184.633-9.202,184.562-9.278 M194.041-29.405
						l15.792,12.543c-0.027,0.044-0.047,0.087-0.061,0.135l-13.364-1.952l-2.565-10.604
						C193.914-29.313,193.982-29.353,194.041-29.405 M205.808-8.102l-6.924-2.41c0.02-0.104,0.015-0.212-0.017-0.312l10.989-5.357
						c0.035,0.051,0.075,0.095,0.124,0.134c0.009,0.006,0.018,0.013,0.027,0.02L205.808-8.102z M205.72-7.934l-2.174,4.106
						c-0.173-0.062-0.361-0.046-0.521,0.041l-4.284-6.431c0.003-0.003,0.008-0.006,0.012-0.01c0.027-0.034,0.05-0.069,0.069-0.107
						L205.72-7.934z M202.745-2.969l-2.148,1.036l-2.093-8.108c0.032-0.015,0.065-0.03,0.097-0.051l4.275,6.419
						c-0.013,0.014-0.027,0.027-0.041,0.046C202.679-3.436,202.653-3.18,202.745-2.969 M200.422-1.848l-4.243,2.046
						c-0.035-0.052-0.077-0.097-0.126-0.139c-0.053-0.042-0.107-0.074-0.166-0.098l2.352-9.953c0.027,0.001,0.055,0,0.084-0.003
						L200.422-1.848z M183.625,10.233c-0.011-0.017-0.021-0.034-0.03-0.05l8.56-6.753l3.057-2.408
						c0.012,0.009,0.021,0.021,0.032,0.031c0.271,0.218,0.662,0.183,0.89-0.077l5.494,3.498c-0.063,0.116-0.091,0.243-0.078,0.371
						L183.625,10.233z M186.579,21.488c0.104,0.084,0.228,0.131,0.354,0.142l0.547,8.156l-2.104-9.366l0.987,0.414
						C186.304,21.067,186.379,21.325,186.579,21.488 M187.078,30.722l-11.951-3.741l2.326-9.327
						c0.121,0.013,0.247-0.011,0.357-0.068l9.396,12.958c-0.016,0.017-0.032,0.036-0.048,0.055
						C187.127,30.635,187.101,30.68,187.078,30.722 M187.016,31.021l-13.023,2.357c-0.039-0.11-0.106-0.212-0.203-0.289
						c-0.05-0.042-0.104-0.071-0.159-0.094l1.452-5.832l11.941,3.739C187.017,30.941,187.016,30.981,187.016,31.021 M172.745,33.578
						l-8.029,1.123c-0.035-0.119-0.105-0.229-0.211-0.316c-0.063-0.05-0.132-0.088-0.206-0.112l1.868-9.351
						c0.12,0.008,0.239-0.02,0.344-0.079l6.413,8.299c-0.011,0.013-0.025,0.024-0.035,0.038
						C172.791,33.298,172.747,33.439,172.745,33.578 M151.162,33.819l0.081-3.798c0.156-0.02,0.308-0.098,0.415-0.229
						c0.02-0.022,0.035-0.045,0.048-0.068l11.767,5.038c0,0.005-0.001,0.009-0.001,0.013L151.162,33.819z M150.974,33.804
						l-8.063-0.625c-0.002-0.041-0.01-0.08-0.021-0.121l7.729-3.333c0.037,0.058,0.081,0.113,0.141,0.158
						c0.088,0.074,0.189,0.117,0.295,0.135L150.974,33.804z M150.969,33.993l-0.201,9.414c-0.086,0.01-0.172,0.037-0.247,0.08
						l-1.665-2.104l-6.114-7.724c0.009-0.011,0.019-0.022,0.028-0.032c0.063-0.079,0.105-0.17,0.127-0.264L150.969,33.993z
						 M150.204,44.133l-3.905,1.089l-3.739-11.427c0.01-0.007,0.022-0.012,0.032-0.019l6.15,7.769l1.629,2.059
						c-0.01,0.012-0.021,0.024-0.031,0.035C150.223,43.783,150.181,43.962,150.204,44.133 M146.116,45.271l-11.641,3.242
						c-0.039-0.088-0.098-0.171-0.179-0.237l-0.021-0.016l5.295-9.825l2.484-4.61c0.105,0.038,0.219,0.048,0.324,0.029
						L146.116,45.271z M146.175,45.451l3.093,9.445c-0.062,0.036-0.116,0.083-0.165,0.143c-0.038,0.048-0.068,0.1-0.094,0.154
						l-14.498-6.256c0.022-0.081,0.027-0.163,0.017-0.246L146.175,45.451z M136.954,57.523l-5.953,0.983
						c-0.031-0.136-0.104-0.262-0.221-0.356c-0.013-0.012-0.029-0.022-0.045-0.032l3.037-8.718c0.082,0.017,0.168,0.016,0.247-0.001
						L136.954,57.523z M126.395,50.418c0.048-0.031,0.089-0.071,0.129-0.117c0.098-0.12,0.141-0.261,0.144-0.399l4.598-0.659
						l-0.857,8.767c-0.066-0.004-0.135,0.003-0.2,0.021L126.395,50.418z M132.552,35.881c0.006,0.001,0.014,0.003,0.021,0.004
						l-1.288,13.166l-4.644,0.663c-0.035-0.119-0.104-0.229-0.21-0.314c-0.017-0.015-0.036-0.027-0.055-0.039L132.552,35.881z
						 M140.398,30.807c0.028,0.034,0.06,0.064,0.094,0.094c0.03,0.022,0.061,0.042,0.089,0.06l-1.049,2.754l-6.206,1.327
						c-0.001-0.008-0.003-0.013-0.006-0.018L140.398,30.807z M174.74-1.641L163.773,9.532l-13.106-2.724
						c0.006-0.05,0-0.103-0.008-0.151L174.74-1.641z M183.642-8.392c0.014,0.014,0.028,0.028,0.044,0.041
						c0.083,0.066,0.179,0.11,0.276,0.131l-0.382,6.936l-7.447-1.076c0-0.105-0.028-0.21-0.078-0.304L183.642-8.392z M203.916-3.487
						c-0.04-0.088-0.1-0.168-0.179-0.233c-0.009-0.006-0.018-0.012-0.025-0.019l2.187-4.131l5.735,1.995
						c-0.015,0.066-0.016,0.135-0.006,0.201L203.916-3.487z M202.209,4.146c-0.016-0.003-0.031-0.003-0.046,0l-1.519-5.892
						l2.203-1.063c0.023,0.027,0.049,0.056,0.08,0.079c0.072,0.061,0.153,0.1,0.238,0.122L202.209,4.146z M201.715,5.217
						l-14.367,15.248c-0.15-0.104-0.331-0.134-0.5-0.101l-3.472-9.26c0.07-0.038,0.133-0.089,0.188-0.153
						c0.127-0.158,0.168-0.356,0.127-0.541l17.904-5.382c0.028,0.071,0.071,0.136,0.128,0.194L201.715,5.217z M151.313,43.615
						c-0.024-0.024-0.047-0.048-0.072-0.07c-0.086-0.068-0.186-0.113-0.287-0.131l0.204-9.408l12.311,0.956
						c0.008,0.074,0.03,0.147,0.065,0.213L151.313,43.615z M149.563,54.804c-0.041,0.003-0.08,0.009-0.121,0.021l-3.084-9.425
						l3.899-1.085c0.04,0.084,0.098,0.162,0.176,0.225c0.075,0.063,0.162,0.104,0.252,0.125L149.563,54.804z M138.831,63.504
						l-7.864-4.607c0.027-0.064,0.043-0.134,0.049-0.201l6.003-0.99l2.02,5.597c-0.061,0.035-0.116,0.083-0.164,0.143
						C138.858,63.463,138.845,63.484,138.831,63.504"/>
				</g>
			</g>
		</g>
	</g>
	<g>
		<path fill="#FFFFFF" d="M12.618,7.293h3.547v11.302h0.07l5.181-11.302h3.548l-4.834,9.911l5.737,14.849h-3.755l-4.034-10.989
			l-1.913,3.582v7.407h-3.547V7.293z"/>
		<path fill="#FFFFFF" d="M39.742,26.488c0,0.813-0.15,1.565-0.452,2.261c-0.301,0.695-0.713,1.304-1.234,1.826
			c-0.521,0.521-1.13,0.933-1.825,1.234c-0.695,0.301-1.438,0.452-2.226,0.452c-0.789,0-1.53-0.151-2.226-0.452
			c-0.695-0.302-1.305-0.713-1.826-1.234c-0.521-0.522-0.934-1.131-1.234-1.826c-0.302-0.695-0.452-1.448-0.452-2.261V7.293h3.547
			v18.848c0,0.882,0.209,1.53,0.626,1.948c0.418,0.417,0.939,0.625,1.565,0.625s1.147-0.208,1.564-0.625
			c0.418-0.418,0.626-1.066,0.626-1.948V7.293h3.547V26.488z"/>
		<path fill="#FFFFFF" d="M43.95,7.293h5.703c4.173,0,6.26,2.423,6.26,7.268c0,1.438-0.227,2.673-0.678,3.704
			c-0.452,1.031-1.247,1.86-2.383,2.486l3.825,11.302h-3.755l-3.304-10.571h-2.122v10.571H43.95V7.293z M47.497,18.352h2.018
			c0.626,0,1.124-0.087,1.495-0.261c0.37-0.174,0.654-0.423,0.852-0.748c0.197-0.324,0.331-0.725,0.4-1.199
			c0.069-0.476,0.104-1.026,0.104-1.652s-0.035-1.176-0.104-1.651s-0.215-0.881-0.435-1.218c-0.221-0.335-0.527-0.585-0.922-0.747
			s-0.916-0.243-1.564-0.243h-1.844V18.352z"/>
		<path fill="#FFFFFF" d="M59.599,7.293h5.182c1.136,0,2.104,0.174,2.903,0.521s1.455,0.812,1.965,1.392
			c0.51,0.579,0.875,1.246,1.096,1.999c0.22,0.754,0.33,1.536,0.33,2.348v0.904c0,0.672-0.052,1.24-0.156,1.703
			c-0.104,0.465-0.261,0.87-0.47,1.218c-0.208,0.348-0.464,0.655-0.765,0.921c-0.302,0.268-0.649,0.517-1.043,0.748
			c0.834,0.395,1.448,0.979,1.843,1.756c0.394,0.777,0.591,1.814,0.591,3.112v1.392c0,2.179-0.527,3.849-1.582,5.008
			s-2.741,1.738-5.06,1.738h-4.834V7.293z M63.146,17.447h1.6c1.183,0,1.977-0.296,2.383-0.887c0.405-0.591,0.608-1.455,0.608-2.591
			c0-1.112-0.227-1.947-0.679-2.504c-0.451-0.557-1.269-0.834-2.451-0.834h-1.461V17.447z M63.146,28.506h1.53
			c0.719,0,1.281-0.104,1.687-0.313c0.405-0.208,0.713-0.498,0.922-0.869c0.209-0.37,0.336-0.812,0.383-1.321
			c0.046-0.51,0.069-1.066,0.069-1.669c0-0.626-0.035-1.171-0.104-1.635s-0.215-0.852-0.435-1.165
			c-0.221-0.313-0.527-0.551-0.922-0.713s-0.916-0.243-1.564-0.243h-1.565V28.506z"/>
		<path fill="#FFFFFF" d="M78.76,7.293h2.956l5.529,24.76h-3.547l-1.044-5.32h-4.833l-1.044,5.32H73.23L78.76,7.293z M80.255,14.422
			h-0.069l-1.738,8.972h3.547L80.255,14.422z"/>
		<path fill="#FFFFFF" d="M89.679,7.293h3.408l5.354,14.919h0.07V7.293h3.547v24.76H98.72l-5.425-14.884h-0.069v14.884h-3.547V7.293
			z"/>
		<path fill="#FFFFFF" d="M120.419,32.053h-3.13l-5.042-24.76h3.756l2.816,17.283h0.069l2.852-17.283h3.756L120.419,32.053z"/>
	</g>
	<text transform="matrix(1 0 0 1 126.957 32.0527)" fill="#FFFFFF" font-family="'MyriadPro-Regular'" font-size="34.7749"></text>
	<g>
		<path fill="#FFFFFF" d="M137.808,7.293h5.251c2.018,0,3.559,0.563,4.625,1.687c1.066,1.125,1.6,2.695,1.6,4.712v11.58
			c0,2.318-0.562,4.028-1.687,5.13c-1.124,1.101-2.741,1.651-4.851,1.651h-4.938V7.293z M141.354,28.714h1.635
			c0.997,0,1.704-0.248,2.121-0.747c0.418-0.498,0.626-1.281,0.626-2.348V13.691c0-0.974-0.197-1.727-0.591-2.26
			c-0.395-0.533-1.113-0.8-2.156-0.8h-1.635V28.714z"/>
		<path fill="#FFFFFF" d="M153.456,7.293h10.572v3.339h-7.025v7.268h6.121v3.338h-6.121v7.269h7.025v3.547h-10.572V7.293z"/>
		<path fill="#FFFFFF" d="M166.949,13.135c0-0.996,0.174-1.877,0.521-2.643c0.348-0.765,0.805-1.396,1.373-1.896
			c0.568-0.498,1.205-0.874,1.913-1.13c0.707-0.255,1.42-0.383,2.139-0.383c0.718,0,1.431,0.128,2.139,0.383
			c0.707,0.256,1.344,0.632,1.912,1.13c0.568,0.499,1.026,1.131,1.374,1.896c0.348,0.766,0.521,1.646,0.521,2.643v13.076
			c0,1.021-0.174,1.907-0.521,2.66s-0.806,1.379-1.374,1.878c-0.568,0.498-1.205,0.875-1.912,1.13
			c-0.708,0.255-1.421,0.383-2.139,0.383c-0.719,0-1.432-0.128-2.139-0.383c-0.708-0.255-1.345-0.632-1.913-1.13
			c-0.568-0.499-1.025-1.125-1.373-1.878s-0.521-1.64-0.521-2.66V13.135z M170.496,26.211c0,0.857,0.237,1.489,0.713,1.895
			c0.475,0.406,1.037,0.608,1.687,0.608c0.648,0,1.211-0.202,1.687-0.608c0.475-0.405,0.713-1.037,0.713-1.895V13.135
			c0-0.857-0.238-1.489-0.713-1.895c-0.476-0.405-1.038-0.608-1.687-0.608c-0.649,0-1.212,0.203-1.687,0.608
			c-0.476,0.405-0.713,1.037-0.713,1.895V26.211z"/>
	</g>
	<g>
		<path fill="#1EADE4" d="M4.36,39.242h1.303v4.866h0.046c0.269-0.39,0.539-0.749,0.793-1.079l3.085-3.787h1.617L7.55,43.524
			l3.938,5.81H9.945l-3.324-4.957l-0.958,1.11v3.847H4.36V39.242z"/>
		<path fill="#1EADE4" d="M14.514,39.242v5.974c0,2.263,1.003,3.22,2.351,3.22c1.497,0,2.455-0.988,2.455-3.22v-5.974h1.318v5.885
			c0,3.1-1.633,4.373-3.818,4.373c-2.066,0-3.624-1.183-3.624-4.313v-5.944H14.514z"/>
		<path fill="#1EADE4" d="M23.646,39.377c0.659-0.135,1.603-0.209,2.5-0.209c1.394,0,2.292,0.253,2.921,0.822
			c0.509,0.449,0.794,1.138,0.794,1.918c0,1.331-0.839,2.216-1.901,2.575v0.045c0.779,0.269,1.243,0.987,1.482,2.037
			c0.328,1.406,0.568,2.381,0.778,2.769h-1.348c-0.165-0.283-0.389-1.153-0.674-2.411c-0.301-1.393-0.839-1.916-2.021-1.961H24.95
			v4.372h-1.304V39.377z M24.95,43.974h1.333c1.392,0,2.274-0.764,2.274-1.917c0-1.302-0.942-1.872-2.321-1.887
			c-0.629,0-1.077,0.061-1.286,0.119V43.974z"/>
		<path fill="#1EADE4" d="M32.452,39.377c0.569-0.121,1.468-0.209,2.38-0.209c1.304,0,2.143,0.224,2.772,0.733
			c0.523,0.388,0.837,0.987,0.837,1.78c0,0.975-0.644,1.827-1.707,2.217v0.03c0.959,0.239,2.082,1.033,2.082,2.53
			c0,0.868-0.344,1.528-0.853,2.021c-0.705,0.644-1.844,0.944-3.49,0.944c-0.898,0-1.587-0.06-2.021-0.121V39.377z M33.755,43.509
			h1.182c1.379,0,2.187-0.719,2.187-1.691c0-1.185-0.897-1.647-2.216-1.647c-0.599,0-0.942,0.044-1.152,0.09V43.509z M33.755,48.347
			c0.254,0.043,0.63,0.06,1.093,0.06c1.348,0,2.59-0.493,2.59-1.961c0-1.378-1.182-1.948-2.605-1.948h-1.077V48.347z"/>
		<path fill="#1EADE4" d="M42.979,46.16l-1.049,3.174h-1.348l3.43-10.092h1.573l3.444,10.092h-1.394l-1.078-3.174H42.979z
			 M46.288,45.141L45.3,42.236c-0.224-0.659-0.375-1.258-0.523-1.843h-0.03c-0.149,0.6-0.315,1.214-0.51,1.827l-0.987,2.92H46.288z"
			/>
		<path fill="#1EADE4" d="M51.244,49.334V39.242h1.422l3.235,5.105c0.749,1.183,1.334,2.246,1.813,3.28l0.03-0.016
			c-0.121-1.348-0.149-2.576-0.149-4.147v-4.223h1.228v10.092h-1.318l-3.203-5.12c-0.705-1.124-1.378-2.278-1.888-3.371
			l-0.046,0.017c0.075,1.272,0.104,2.484,0.104,4.162v4.313H51.244z"/>
		<path fill="#1EADE4" d="M68.001,49.334v-4.281l-3.189-5.811h1.482l1.423,2.784c0.389,0.764,0.688,1.379,1.003,2.082h0.029
			c0.285-0.659,0.629-1.318,1.019-2.082l1.453-2.784h1.481l-3.383,5.794v4.298H68.001z"/>
		<path fill="#1EADE4" d="M83.2,44.183c0,3.475-2.111,5.317-4.688,5.317c-2.666,0-4.538-2.067-4.538-5.123
			c0-3.203,1.992-5.3,4.688-5.3C81.419,39.077,83.2,41.189,83.2,44.183z M75.368,44.348c0,2.156,1.168,4.088,3.219,4.088
			c2.066,0,3.235-1.901,3.235-4.192c0-2.007-1.049-4.104-3.22-4.104C76.446,40.14,75.368,42.132,75.368,44.348z M76.477,37.773
			c0-0.405,0.314-0.747,0.733-0.747c0.42,0,0.719,0.328,0.719,0.747c0,0.42-0.285,0.765-0.719,0.765
			C76.762,38.538,76.477,38.193,76.477,37.773z M79.247,37.773c0-0.405,0.314-0.747,0.748-0.747c0.419,0,0.72,0.328,0.72,0.747
			c0,0.42-0.285,0.765-0.733,0.765C79.547,38.538,79.247,38.193,79.247,37.773z"/>
		<path fill="#1EADE4" d="M85.64,49.334V39.242h1.423l3.235,5.105c0.748,1.183,1.334,2.246,1.813,3.28l0.029-0.016
			c-0.121-1.348-0.15-2.576-0.15-4.147v-4.223h1.229v10.092H91.9l-3.205-5.12c-0.703-1.124-1.378-2.278-1.888-3.371l-0.044,0.017
			c0.075,1.272,0.104,2.484,0.104,4.162v4.313H85.64z"/>
		<path fill="#1EADE4" d="M101.469,44.603h-3.923v3.639h4.373v1.093h-5.677V39.242h5.45v1.093h-4.146v3.189h3.923V44.603z"/>
		<path fill="#1EADE4" d="M106.274,40.349h-3.069v-1.106h7.474v1.106h-3.085v8.985h-1.319V40.349z"/>
		<path fill="#1EADE4" d="M112.475,37.773c0-0.389,0.329-0.747,0.748-0.747c0.404,0,0.719,0.358,0.719,0.747
			c0,0.391-0.314,0.765-0.719,0.765C112.788,38.538,112.475,38.164,112.475,37.773z M113.853,39.242v10.092h-1.304V39.242H113.853z"
			/>
		<path fill="#1EADE4" d="M125.382,44.901c-0.072-1.406-0.163-3.1-0.147-4.356h-0.046c-0.345,1.182-0.764,2.441-1.272,3.832
			l-1.783,4.897h-0.987l-1.633-4.807c-0.479-1.423-0.884-2.726-1.167-3.923h-0.031c-0.029,1.257-0.104,2.95-0.194,4.462l-0.27,4.327
			h-1.243l0.703-10.092h1.663l1.724,4.882c0.418,1.243,0.762,2.351,1.017,3.399h0.046c0.255-1.02,0.613-2.127,1.063-3.399
			l1.797-4.882h1.662l0.629,10.092h-1.272L125.382,44.901z"/>
		<path fill="#1EADE4" d="M133.394,47.747c0.583,0.36,1.438,0.659,2.336,0.659c1.332,0,2.111-0.703,2.111-1.722
			c0-0.944-0.538-1.482-1.901-2.007c-1.646-0.586-2.666-1.438-2.666-2.86c0-1.571,1.303-2.74,3.265-2.74
			c1.033,0,1.782,0.24,2.231,0.493l-0.361,1.063c-0.328-0.178-1.002-0.478-1.915-0.478c-1.379,0-1.901,0.823-1.901,1.511
			c0,0.944,0.613,1.409,2.006,1.949c1.708,0.658,2.577,1.48,2.577,2.964c0,1.558-1.153,2.905-3.534,2.905
			c-0.974,0-2.038-0.285-2.577-0.644L133.394,47.747z"/>
		<path fill="#1EADE4" d="M141.63,37.773c0-0.389,0.328-0.747,0.748-0.747c0.404,0,0.72,0.358,0.72,0.747
			c0,0.391-0.315,0.765-0.72,0.765C141.944,38.538,141.63,38.164,141.63,37.773z M143.007,39.242v10.092h-1.303V39.242H143.007z"/>
		<path fill="#1EADE4" d="M145.837,47.747c0.584,0.36,1.437,0.659,2.336,0.659c1.333,0,2.112-0.703,2.112-1.722
			c0-0.944-0.539-1.482-1.902-2.007c-1.647-0.586-2.666-1.438-2.666-2.86c0-1.571,1.303-2.74,3.265-2.74
			c1.033,0,1.782,0.24,2.231,0.493l-0.359,1.063c-0.329-0.178-1.004-0.478-1.917-0.478c-1.378,0-1.9,0.823-1.9,1.511
			c0,0.944,0.612,1.409,2.006,1.949c1.708,0.658,2.576,1.48,2.576,2.964c0,1.558-1.153,2.905-3.535,2.905
			c-0.973,0-2.036-0.285-2.575-0.644L145.837,47.747z"/>
		<path fill="#1EADE4" d="M156.004,40.349h-3.069v-1.106h7.474v1.106h-3.085v8.985h-1.319V40.349z"/>
		<path fill="#1EADE4" d="M167.506,44.603h-3.924v3.639h4.373v1.093h-5.677V39.242h5.451v1.093h-4.147v3.189h3.924V44.603z"/>
		<path fill="#1EADE4" d="M178.899,44.901c-0.073-1.406-0.164-3.1-0.148-4.356h-0.046c-0.344,1.182-0.764,2.441-1.272,3.832
			l-1.782,4.897h-0.987l-1.633-4.807c-0.479-1.423-0.884-2.726-1.168-3.923h-0.03c-0.029,1.257-0.105,2.95-0.194,4.462l-0.269,4.327
			h-1.243l0.702-10.092h1.662l1.724,4.882c0.42,1.243,0.763,2.351,1.017,3.399h0.046c0.255-1.02,0.614-2.127,1.063-3.399
			l1.796-4.882h1.664l0.628,10.092h-1.272L178.899,44.901z"/>
		<path fill="#1EADE4" d="M183.107,37.773c0-0.389,0.33-0.747,0.749-0.747c0.403,0,0.718,0.358,0.718,0.747
			c0,0.391-0.314,0.765-0.718,0.765C183.421,38.538,183.107,38.164,183.107,37.773z M184.486,39.242v10.092h-1.305V39.242H184.486z"
			/>
	</g>
</g>
<g>
	<g>
		<defs>
			<path id="SVGID_116_" d="M66.817,74.515c-2.912,0-5.272,2.361-5.272,5.274v24.243c0,2.91,2.36,5.271,5.272,5.271h54.755
				c2.912,0,5.273-2.361,5.273-5.271V79.789c0-2.913-2.361-5.274-5.273-5.274H66.817z"/>
		</defs>
		<clipPath id="SVGID_19_">
			<use xlink:href="#SVGID_116_"  overflow="visible"/>
		</clipPath>
		<g opacity="0.75" clip-path="url(#SVGID_19_)">
			<g>
				<defs>
					<rect id="SVGID_118_" x="43.736" y="44.657" width="116.085" height="91.445"/>
				</defs>
				<clipPath id="SVGID_21_">
					<use xlink:href="#SVGID_118_"  overflow="visible"/>
				</clipPath>
				<g clip-path="url(#SVGID_21_)">
					<defs>
						<rect id="SVGID_120_" x="43.736" y="44.657" width="116.085" height="91.445"/>
					</defs>
					<clipPath id="SVGID_22_">
						<use xlink:href="#SVGID_120_"  overflow="visible"/>
					</clipPath>
					<path clip-path="url(#SVGID_22_)" fill="#5BC7D4" d="M71.839,130.877l7.59,4.445c-0.063,0.229,0.009,0.483,0.205,0.643
						c0.264,0.214,0.652,0.174,0.866-0.088c0.155-0.192,0.177-0.448,0.077-0.658l8.924-7.328c0.264,0.196,0.636,0.153,0.846-0.105
						c0.214-0.263,0.174-0.651-0.09-0.865c-0.073-0.062-0.156-0.1-0.242-0.12l1.078-9.761c0.168-0.009,0.33-0.085,0.444-0.225
						c0.153-0.19,0.176-0.443,0.079-0.648l11.769-8.129c0.017,0.017,0.033,0.033,0.053,0.048c0.264,0.215,0.651,0.175,0.867-0.089
						c0.092-0.112,0.137-0.248,0.138-0.383l7.728-1.08c0.034,0.115,0.102,0.223,0.202,0.304c0.264,0.216,0.652,0.176,0.866-0.089
						c0.098-0.119,0.142-0.266,0.138-0.408l12.536-2.27c0.036,0.105,0.101,0.204,0.194,0.28c0.265,0.214,0.652,0.175,0.866-0.09
						c0.215-0.264,0.176-0.65-0.089-0.866c-0.101-0.082-0.219-0.127-0.339-0.137l-0.565-8.419c0.133-0.027,0.255-0.099,0.348-0.213
						c0.185-0.228,0.18-0.548,0.005-0.769l13.827-14.68l-0.067-0.063c0,0.001,0.001,0.001,0.001,0.001
						c0.265,0.215,0.652,0.176,0.867-0.09c0.214-0.263,0.175-0.65-0.09-0.865c-0.057-0.048-0.121-0.081-0.188-0.104l0.922-6.51
						c0.173-0.006,0.341-0.082,0.458-0.227c0.11-0.137,0.153-0.306,0.133-0.469l7.422-2.103c0.038,0.083,0.097,0.161,0.173,0.223
						c0.264,0.216,0.652,0.176,0.866-0.088c0.215-0.264,0.175-0.652-0.088-0.866c-0.119-0.097-0.263-0.142-0.404-0.139l-1.598-9.183
						c0.107-0.035,0.207-0.1,0.284-0.195c0.216-0.263,0.175-0.651-0.089-0.867c-0.242-0.196-0.588-0.178-0.809,0.029l-15.196-12.07
						c0.157-0.258,0.104-0.6-0.138-0.797c-0.264-0.215-0.652-0.175-0.866,0.089c-0.215,0.265-0.175,0.652,0.089,0.867
						c0.069,0.057,0.146,0.095,0.229,0.116l-0.958,9.111c-0.171,0.007-0.337,0.084-0.452,0.227c-0.196,0.24-0.18,0.583,0.024,0.804
						l-7.307,8.98c-0.259-0.155-0.597-0.1-0.792,0.14c-0.162,0.2-0.179,0.471-0.063,0.684l-7.304,5.513
						c-0.013-0.015-0.027-0.027-0.043-0.039c-0.264-0.215-0.65-0.175-0.866,0.089c-0.193,0.237-0.18,0.573,0.017,0.796
						l-23.498,8.097c-0.037-0.073-0.09-0.138-0.157-0.193c-0.264-0.214-0.652-0.174-0.867,0.089
						c-0.214,0.265-0.174,0.652,0.089,0.868c0.099,0.078,0.213,0.123,0.33,0.134l1.027,20.549c-0.135,0.027-0.263,0.1-0.357,0.216
						c-0.086,0.105-0.13,0.231-0.136,0.358l-8.67,0.857c-0.031-0.124-0.101-0.24-0.208-0.328c-0.264-0.214-0.651-0.174-0.867,0.089
						c-0.147,0.182-0.174,0.421-0.092,0.624l-6.814,4.056c-0.025-0.031-0.056-0.062-0.089-0.088
						c-0.263-0.215-0.651-0.175-0.866,0.088c-0.215,0.265-0.175,0.652,0.089,0.868c0.017,0.014,0.034,0.025,0.053,0.038
						l-5.941,12.973c-0.231-0.066-0.489,0.005-0.649,0.205c-0.215,0.262-0.175,0.65,0.089,0.864
						c0.169,0.139,0.388,0.172,0.581,0.108l3.665,7.318c-0.055,0.035-0.105,0.078-0.148,0.131c-0.215,0.265-0.175,0.652,0.089,0.867
						C71.239,131.172,71.623,131.136,71.839,130.877 M79.87,134.891l-1.929-5.346l11.374-1.875c0.018,0.032,0.035,0.063,0.058,0.093
						l-0.839,0.688l-8.06,6.619c-0.02-0.021-0.04-0.041-0.063-0.062C80.254,134.882,80.053,134.844,79.87,134.891 M125.322,93.919
						l-1.067-0.447l-1.801-8.028l3.096,8.256c-0.066,0.037-0.128,0.088-0.18,0.149C125.353,93.871,125.337,93.896,125.322,93.919
						 M140.053,78.197l-5.301-3.377c0.061-0.138,0.069-0.292,0.024-0.434l4.055-1.952l1.45,5.622
						C140.198,78.085,140.119,78.133,140.053,78.197 M149.633,68.209l-5.492-1.911l4.027-7.604c0.071,0.025,0.146,0.036,0.22,0.034
						l1.597,9.184c-0.107,0.034-0.206,0.1-0.284,0.194C149.675,68.139,149.651,68.173,149.633,68.209 M80.103,106.685l-5.22,13.69
						c-0.031-0.007-0.063-0.01-0.095-0.013l-1.017-11.787c0.128-0.03,0.246-0.1,0.336-0.209c0.102-0.126,0.146-0.279,0.136-0.429
						L80.103,106.685z M89.261,127.496l-11.383,1.874l-2.836-7.851c0.07-0.038,0.134-0.088,0.187-0.154
						c0.018-0.021,0.031-0.042,0.046-0.063l13.98,6.033C89.25,127.388,89.252,127.442,89.261,127.496 M74.361,121.456
						c0.032,0.025,0.067,0.049,0.104,0.066l-2.879,8.26l0.82-8.379l1.754-0.251C74.194,121.267,74.262,121.373,74.361,121.456
						 M72.425,121.217l1.198-12.253l0.985,11.415c-0.128,0.029-0.247,0.1-0.337,0.209c-0.091,0.112-0.137,0.251-0.138,0.385
						L72.425,121.217z M80.313,106.639l1.926-0.411c0.037,0.099,0.1,0.188,0.187,0.26c0.008,0.007,0.016,0.012,0.021,0.017
						l-3.151,5.848l-3.966,7.357L80.313,106.639z M80.391,106.438l0.968-2.54c0.105,0.023,0.216,0.019,0.318-0.014l0.791,1.619
						c-0.048,0.031-0.092,0.071-0.13,0.119c-0.102,0.125-0.146,0.278-0.137,0.428L80.391,106.438z M82.105,103.326l8.67-0.857
						c0,0.003,0.001,0.007,0.002,0.009l-7.438,3.209c-0.035-0.058-0.08-0.108-0.135-0.153c-0.166-0.137-0.383-0.17-0.574-0.11
						l-0.79-1.618c0.047-0.033,0.091-0.072,0.129-0.12C82.055,103.58,82.099,103.454,82.105,103.326 M112.46,105.822l-6.171-7.987
						c0.012-0.013,0.022-0.025,0.034-0.039c0.03-0.037,0.055-0.078,0.076-0.121l7.822,2.45l-1.402,5.62
						C112.696,105.735,112.57,105.761,112.46,105.822 M147.785,58.3l-10.579,5.154c-0.032-0.047-0.072-0.091-0.119-0.129
						c-0.13-0.105-0.29-0.149-0.443-0.136l-1.679-6.944l12.793,1.869C147.758,58.177,147.767,58.238,147.785,58.3 M132.275,45.889
						l2.451,10.139l-2.972-0.434c-0.001-0.179-0.078-0.355-0.229-0.478c-0.07-0.059-0.151-0.097-0.234-0.117l0.958-9.11
						C132.258,45.889,132.267,45.889,132.275,45.889 M131.324,56.183c0.027-0.009,0.055-0.021,0.08-0.034l4.878,7.201
						c-0.022,0.02-0.044,0.041-0.063,0.064c-0.098,0.12-0.142,0.266-0.137,0.409l-3.462,0.428L131.324,56.183z M132.471,64.451
						l1.532,9.531c-0.084,0.026-0.161,0.071-0.229,0.132l-10.181-8.281c0.055-0.093,0.084-0.195,0.085-0.299L132.471,64.451z
						 M116.406,74.708l5.271,9.008c-0.027,0.025-0.054,0.051-0.077,0.081c-0.072,0.089-0.115,0.191-0.131,0.296l-5.393,0.307
						l-1.141-12.036c0.027-0.008,0.056-0.017,0.081-0.027L116.406,74.708z M91.761,101.842c-0.008-0.008-0.019-0.014-0.027-0.021
						l6.79-13.023c0.087,0.029,0.178,0.04,0.268,0.03l2.61,9.992l-9.481,3.217C91.883,101.964,91.829,101.897,91.761,101.842
						 M117.071,89.898c-0.145-0.096-0.32-0.123-0.481-0.083l-0.495-5.235l5.375-0.305c0.014,0.099,0.053,0.193,0.113,0.276
						L117.071,89.898z M131.728,55.772l3.043,0.444l1.697,7.015c-0.012,0.005-0.022,0.01-0.033,0.015l-4.88-7.198
						c0.022-0.02,0.042-0.042,0.062-0.064C131.668,55.919,131.705,55.848,131.728,55.772 M99.316,88.388l9.401,1.269l-2.739,7.15
						c-0.148-0.033-0.303-0.01-0.436,0.063l-0.145-0.187l-6.229-8.042c0.012-0.012,0.023-0.024,0.033-0.037
						C99.257,88.538,99.294,88.464,99.316,88.388 M108.901,89.682l7.271,0.982c0.012,0.028,0.027,0.057,0.044,0.083l-7.521,4.751
						l-2.385,1.508c-0.023-0.026-0.05-0.053-0.078-0.076c-0.027-0.021-0.056-0.042-0.087-0.059L108.901,89.682z M108.968,89.509
						l1.576-4.116c0.17,0.034,0.351-0.006,0.491-0.112l2.244,2.216l2.85,2.816c-0.01,0.053-0.013,0.107-0.006,0.162L108.968,89.509z
						 M115.913,84.59l0.502,5.298c-0.059,0.036-0.112,0.082-0.158,0.137c-0.024,0.03-0.046,0.063-0.063,0.097l-2.776-2.743
						l-2.254-2.227c0.065-0.092,0.104-0.194,0.115-0.299L115.913,84.59z M105.239,97.518l-3.666,1.243l-2.606-9.979
						c0.021-0.01,0.039-0.019,0.059-0.029l6.375,8.229c-0.012,0.013-0.023,0.024-0.033,0.038
						C105.249,97.164,105.209,97.347,105.239,97.518 M99.335,88.135l10.774-3.082c0.038,0.08,0.094,0.153,0.167,0.213
						c0.032,0.025,0.063,0.047,0.098,0.064l-1.591,4.153l-9.442-1.275C99.34,88.184,99.338,88.159,99.335,88.135 M111.055,84.311
						c-0.034-0.028-0.07-0.052-0.108-0.071l3.745-11.866c0.022,0.003,0.042,0.005,0.064,0.007l1.141,12.03l-4.626,0.263
						C111.244,84.535,111.172,84.405,111.055,84.311 M132.65,64.429l3.465-0.427c0.036,0.106,0.102,0.203,0.193,0.279
						c0.051,0.041,0.105,0.071,0.163,0.094l-2.232,9.581c-0.019-0.002-0.039-0.002-0.058-0.002L132.65,64.429z M122.123,84.799
						l1.927,8.585l-6.718-2.817c0.048-0.189,0.005-0.394-0.124-0.548l4.504-5.339C121.835,84.771,121.98,84.809,122.123,84.799
						 M124.099,93.602l2.175,9.696c-0.021,0.008-0.042,0.018-0.063,0.028l-9.045-12.473c0.017-0.017,0.032-0.031,0.047-0.052
						c0.019-0.021,0.034-0.045,0.049-0.069L124.099,93.602z M116.346,90.892c0.049,0.038,0.101,0.069,0.154,0.092l-2.234,8.966
						l-7.813-2.446c0.018-0.117,0.003-0.234-0.046-0.344l9.932-6.275C116.341,90.887,116.344,90.889,116.346,90.892 M105.456,97.886
						c0.056,0.045,0.117,0.078,0.181,0.102l-1.8,9.005c-0.037-0.001-0.074,0.002-0.11,0.009l-2.107-8.063l3.678-1.248
						C105.335,97.763,105.388,97.83,105.456,97.886 M103.281,107.319l-11.313-4.844c0.022-0.088,0.026-0.178,0.01-0.268l9.47-3.212
						l2.106,8.06c-0.077,0.038-0.147,0.092-0.206,0.164C103.322,107.251,103.301,107.285,103.281,107.319 M91.433,101.705
						l-1.028-20.548c0.097-0.02,0.189-0.062,0.27-0.127l7.539,6.843c-0.176,0.262-0.127,0.617,0.123,0.821
						c0.009,0.007,0.018,0.012,0.026,0.019l-6.789,13.024C91.527,101.722,91.479,101.71,91.433,101.705 M90.861,80.766l12.498,2.597
						l-4.272,4.355c-0.23-0.166-0.539-0.154-0.753,0.022l-7.538-6.845C90.822,80.855,90.845,80.811,90.861,80.766 M103.57,83.406
						l6.48,1.347c-0.003,0.043,0,0.084,0.006,0.126l-10.771,3.082c-0.019-0.04-0.042-0.08-0.069-0.116L103.57,83.406z
						 M103.723,83.253l10.753-10.958c0.015,0.008,0.029,0.017,0.043,0.023l-3.744,11.863c-0.213-0.039-0.44,0.038-0.587,0.218
						c-0.044,0.054-0.077,0.114-0.101,0.176L103.723,83.253z M115.379,71.941l7.184,1.039l-0.584,10.597
						c-0.05,0.009-0.1,0.022-0.146,0.044l-1.002-1.712l-5.656-9.664c0.033-0.026,0.064-0.057,0.091-0.092
						C115.319,72.089,115.356,72.018,115.379,71.941 M122.742,73.006l10.831,1.565c0,0.106,0.028,0.211,0.082,0.305l-11.193,8.827
						c-0.091-0.071-0.195-0.114-0.302-0.128L122.742,73.006z M122.753,72.824l0.368-6.691c0.131-0.013,0.256-0.067,0.358-0.159
						l10.181,8.282c-0.026,0.044-0.048,0.092-0.062,0.138L122.753,72.824z M123.519,65.103l7.306-8.979
						c0.1,0.06,0.211,0.088,0.321,0.086l1.296,8.063l-8.784,1.081C123.633,65.263,123.585,65.178,123.519,65.103 M132.642,45.732
						l15.198,12.072c-0.024,0.041-0.043,0.085-0.057,0.13l-12.864-1.879l-2.467-10.207
						C132.521,45.822,132.584,45.783,132.642,45.732 M143.968,66.237l-6.664-2.319c0.019-0.101,0.012-0.203-0.019-0.302l10.58-5.155
						c0.032,0.048,0.072,0.091,0.119,0.129c0.008,0.007,0.015,0.013,0.024,0.019L143.968,66.237z M143.882,66.398l-2.093,3.952
						c-0.164-0.058-0.347-0.044-0.499,0.039l-4.123-6.188c0.003-0.003,0.006-0.007,0.009-0.01c0.027-0.033,0.049-0.066,0.068-0.104
						L143.882,66.398z M141.02,71.177l-2.069,0.998l-2.012-7.805c0.031-0.013,0.062-0.029,0.091-0.048l4.116,6.178
						c-0.014,0.013-0.027,0.026-0.038,0.043C140.957,70.728,140.931,70.973,141.02,71.177 M138.784,72.255l-4.085,1.97
						c-0.033-0.05-0.073-0.093-0.121-0.132c-0.051-0.041-0.104-0.072-0.161-0.096l2.264-9.579c0.027,0.001,0.054,0.001,0.081-0.003
						L138.784,72.255z M122.615,83.884c-0.009-0.016-0.019-0.033-0.029-0.048l8.241-6.5l2.94-2.317
						c0.011,0.01,0.021,0.02,0.033,0.029c0.258,0.211,0.637,0.176,0.854-0.074l5.288,3.368c-0.062,0.11-0.085,0.235-0.074,0.356
						L122.615,83.884z M125.459,94.716c0.101,0.081,0.22,0.127,0.34,0.137l0.527,7.851l-2.022-9.015l0.948,0.398
						C125.195,94.312,125.268,94.56,125.459,94.716 M125.941,103.604l-11.503-3.602l2.237-8.976
						c0.118,0.011,0.237-0.013,0.344-0.066l9.045,12.472c-0.017,0.015-0.032,0.033-0.047,0.051
						C125.986,103.521,125.962,103.562,125.941,103.604 M125.88,103.893l-12.536,2.27c-0.036-0.106-0.101-0.204-0.193-0.28
						c-0.048-0.04-0.1-0.07-0.154-0.092l1.398-5.61l11.492,3.598C125.881,103.815,125.879,103.854,125.88,103.893 M112.145,106.354
						l-7.728,1.08c-0.034-0.115-0.102-0.222-0.201-0.305c-0.062-0.048-0.129-0.083-0.199-0.106l1.798-9
						c0.114,0.005,0.229-0.021,0.331-0.078l6.171,7.989c-0.011,0.012-0.022,0.022-0.034,0.037
						C112.191,106.083,112.146,106.219,112.145,106.354 M91.371,106.584l0.079-3.654c0.15-0.019,0.296-0.094,0.399-0.222
						c0.018-0.021,0.033-0.043,0.047-0.066l11.324,4.85c-0.001,0.005-0.001,0.009-0.002,0.015L91.371,106.584z M91.19,106.57
						l-7.761-0.603c-0.002-0.04-0.01-0.078-0.019-0.116l7.438-3.208c0.036,0.057,0.08,0.108,0.135,0.152
						c0.085,0.07,0.184,0.113,0.285,0.131L91.19,106.57z M91.187,106.752l-0.195,9.06c-0.082,0.011-0.163,0.037-0.238,0.078
						l-1.604-2.025l-5.885-7.432c0.01-0.012,0.021-0.021,0.029-0.033c0.063-0.075,0.102-0.162,0.122-0.251L91.187,106.752z
						 M90.449,116.511l-3.758,1.048l-3.601-10.998c0.011-0.005,0.022-0.01,0.032-0.017l5.92,7.477l1.569,1.981
						c-0.011,0.011-0.021,0.022-0.032,0.034C90.468,116.175,90.426,116.349,90.449,116.511 M86.517,117.607l-11.203,3.118
						c-0.039-0.085-0.097-0.163-0.174-0.226c-0.007-0.005-0.015-0.01-0.021-0.016l5.096-9.457l2.393-4.438
						c0.101,0.037,0.207,0.047,0.312,0.029L86.517,117.607z M86.572,117.779l2.976,9.092c-0.058,0.037-0.112,0.082-0.158,0.137
						c-0.037,0.046-0.066,0.096-0.088,0.149l-13.956-6.021c0.02-0.076,0.025-0.158,0.016-0.235L86.572,117.779z M77.696,129.4
						l-5.73,0.946c-0.028-0.131-0.1-0.252-0.211-0.344c-0.014-0.01-0.028-0.021-0.043-0.031l2.924-8.39
						c0.079,0.016,0.158,0.016,0.236-0.001L77.696,129.4z M67.533,122.563c0.046-0.032,0.088-0.07,0.125-0.115
						c0.092-0.112,0.137-0.249,0.137-0.385l4.427-0.633l-0.826,8.438c-0.064-0.004-0.13,0.003-0.191,0.021L67.533,122.563z
						 M73.457,108.568c0.007,0.002,0.016,0.004,0.022,0.005l-1.239,12.672l-4.47,0.638c-0.034-0.114-0.102-0.221-0.201-0.302
						c-0.018-0.014-0.035-0.026-0.054-0.038L73.457,108.568z M81.014,103.687c0.026,0.031,0.055,0.062,0.088,0.088
						c0.028,0.023,0.058,0.042,0.088,0.058l-1.01,2.65l-5.975,1.277c-0.002-0.005-0.004-0.011-0.006-0.017L81.014,103.687z
						 M114.066,72.454L103.512,83.21l-12.614-2.622c0.004-0.049,0-0.099-0.009-0.146L114.066,72.454z M122.632,65.958
						c0.015,0.014,0.028,0.026,0.044,0.038c0.079,0.064,0.17,0.106,0.265,0.126l-0.367,6.676l-7.169-1.036
						c0-0.102-0.025-0.201-0.074-0.291L122.632,65.958z M142.146,70.678c-0.038-0.085-0.096-0.161-0.173-0.225l-0.023-0.018
						l2.106-3.977l5.518,1.921c-0.012,0.064-0.014,0.129-0.005,0.193L142.146,70.678z M140.505,78.023c-0.016,0-0.03-0.001-0.045,0
						l-1.463-5.67l2.12-1.021c0.023,0.027,0.05,0.053,0.078,0.077c0.069,0.057,0.148,0.095,0.229,0.117L140.505,78.023z
						 M140.026,79.055L126.2,93.732c-0.145-0.101-0.319-0.131-0.48-0.096l-3.343-8.912c0.066-0.038,0.129-0.089,0.18-0.15
						c0.123-0.152,0.162-0.343,0.124-0.52l17.231-5.181c0.028,0.068,0.069,0.131,0.123,0.188L140.026,79.055z M91.517,116.015
						c-0.022-0.025-0.044-0.047-0.069-0.068c-0.082-0.066-0.178-0.109-0.275-0.127l0.195-9.055l11.849,0.92
						c0.009,0.072,0.03,0.142,0.063,0.205L91.517,116.015z M89.834,126.781c-0.041,0.004-0.08,0.009-0.119,0.021l-2.968-9.071
						l3.754-1.045c0.037,0.081,0.094,0.157,0.168,0.218c0.074,0.06,0.158,0.1,0.243,0.12L89.834,126.781z M79.503,135.156
						l-7.57-4.436c0.027-0.062,0.043-0.126,0.048-0.192l5.778-0.953l1.945,5.385c-0.06,0.037-0.114,0.081-0.16,0.138
						C79.529,135.116,79.516,135.136,79.503,135.156"/>
				</g>
			</g>
		</g>
	</g>
</g>
</svg>
