<?xml version="1.0" encoding="utf-8"?>
<!-- Generator: Adobe Illustrator 16.0.0, SVG Export Plug-In . SVG Version: 6.00 Build 0)  -->
<!DOCTYPE svg PUBLIC "-//W3C//DTD SVG 1.1//EN" "http://www.w3.org/Graphics/SVG/1.1/DTD/svg11.dtd">
<svg version="1.1" id="Layer_1" xmlns="http://www.w3.org/2000/svg" xmlns:xlink="http://www.w3.org/1999/xlink" x="0px" y="0px"
	 width="196.75px" height="50px" viewBox="0 0 196.75 50" enable-background="new 0 0 196.75 50" xml:space="preserve">
<g>
	<g>
		<defs>
			<path id="SVGID_1_" d="M83.929,0.5c-4.647,0-8.415,3.769-8.415,8.415v17.89c0,4.646,3.768,8.417,8.415,8.417h102.458
				c4.648,0,8.416-3.771,8.416-8.417V8.915c0-4.646-3.768-8.415-8.416-8.415H83.929z"/>
		</defs>
		<clipPath id="SVGID_2_">
			<use xlink:href="#SVGID_1_"  overflow="visible"/>
		</clipPath>
		
			<linearGradient id="SVGID_3_" gradientUnits="userSpaceOnUse" x1="-179.4092" y1="439.2441" x2="-178.0523" y2="439.2441" gradientTransform="matrix(88.891 0 0 -88.891 16022.1221 39062.7148)">
			<stop  offset="0" style="stop-color:#0EB9CD"/>
			<stop  offset="1" style="stop-color:#05ADE2"/>
		</linearGradient>
		<rect x="75.515" y="0.5" clip-path="url(#SVGID_2_)" fill="url(#SVGID_3_)" width="119.289" height="34.722"/>
	</g>
	<g>
		<defs>
			<path id="SVGID_4_" d="M83.929,0.5c-4.647,0-8.415,3.769-8.415,8.415v17.89c0,4.646,3.768,8.417,8.415,8.417h102.458
				c4.648,0,8.416-3.771,8.416-8.417V8.915c0-4.646-3.768-8.415-8.416-8.415H83.929z"/>
		</defs>
		<clipPath id="SVGID_5_">
			<use xlink:href="#SVGID_4_"  overflow="visible"/>
		</clipPath>
		<g opacity="0.75" clip-path="url(#SVGID_5_)">
			<g>
				<defs>
					<rect id="SVGID_6_" x="111.86" y="-29.298" width="115.853" height="91.261"/>
				</defs>
				<clipPath id="SVGID_7_">
					<use xlink:href="#SVGID_6_"  overflow="visible"/>
				</clipPath>
				<g clip-path="url(#SVGID_7_)">
					<defs>
						<rect id="SVGID_8_" x="111.86" y="-29.298" width="115.853" height="91.261"/>
					</defs>
					<clipPath id="SVGID_9_">
						<use xlink:href="#SVGID_8_"  overflow="visible"/>
					</clipPath>
					<g opacity="0.3" clip-path="url(#SVGID_9_)">
						<g>
							<defs>
								<rect id="SVGID_10_" x="111.86" y="2.388" width="115.853" height="55.525"/>
							</defs>
							<clipPath id="SVGID_11_">
								<use xlink:href="#SVGID_10_"  overflow="visible"/>
							</clipPath>
							<g clip-path="url(#SVGID_11_)">
								<defs>
									<rect id="SVGID_12_" x="111.86" y="2.388" width="115.853" height="55.525"/>
								</defs>
								<clipPath id="SVGID_13_">
									<use xlink:href="#SVGID_12_"  overflow="visible"/>
								</clipPath>
								<path clip-path="url(#SVGID_13_)" fill="#5BC7D4" d="M112.299,48.023c0.073,0.366,0.429,0.604,0.795,0.533
									c0.076-0.017,0.145-0.044,0.208-0.077l5.229,7.316c-0.157,0.154-0.237,0.385-0.191,0.619
									c0.073,0.366,0.431,0.604,0.797,0.531c0.275-0.054,0.478-0.268,0.531-0.527l15.661,0.879
									c0.003,0.025,0.007,0.049,0.012,0.071c0.073,0.366,0.429,0.605,0.797,0.529c0.366-0.073,0.604-0.429,0.53-0.793
									c-0.008-0.048-0.022-0.09-0.039-0.134l7.439-4.546c0.154,0.185,0.4,0.283,0.653,0.232c0.367-0.075,0.603-0.433,0.531-0.797
									c-0.03-0.148-0.107-0.276-0.214-0.373l5.283-7.985c0.127,0.059,0.273,0.079,0.418,0.05c0.163-0.031,0.298-0.119,0.393-0.236
									l19.452,11.542c-0.05,0.119-0.063,0.251-0.036,0.389c0.073,0.366,0.432,0.605,0.797,0.529
									c0.366-0.07,0.604-0.429,0.53-0.795c-0.02-0.094-0.056-0.18-0.106-0.253l19.929-18.691c0.114,0.302,0.436,0.49,0.766,0.423
									c0.365-0.073,0.605-0.429,0.529-0.797c-0.005-0.021-0.009-0.04-0.016-0.061l9.107-4.273
									c0.147,0.224,0.418,0.345,0.695,0.291c0.334-0.067,0.559-0.369,0.544-0.699l12.479-2.497
									c0.112,0.313,0.438,0.505,0.769,0.438c0.199-0.04,0.358-0.161,0.454-0.324l9.35,3.742c-0.022,0.09-0.023,0.188-0.004,0.284
									c0.071,0.366,0.431,0.603,0.796,0.529c0.366-0.073,0.606-0.429,0.53-0.795c-0.064-0.337-0.368-0.563-0.703-0.544
									l-3.939-20.968c0.316-0.108,0.512-0.437,0.444-0.771c-0.074-0.367-0.432-0.604-0.797-0.532
									c-0.133,0.027-0.247,0.09-0.337,0.177l-8.109-6.264c0.077-0.137,0.108-0.3,0.074-0.464c-0.071-0.366-0.433-0.604-0.798-0.53
									c-0.366,0.072-0.604,0.429-0.532,0.797c0.022,0.107,0.067,0.201,0.133,0.281l-5.854,6.138
									c-0.146-0.104-0.334-0.147-0.522-0.11c-0.201,0.039-0.363,0.165-0.455,0.328l-6.804-2.443
									c0.012-0.076,0.012-0.154-0.005-0.235c-0.075-0.366-0.43-0.604-0.798-0.531c-0.366,0.074-0.604,0.431-0.53,0.797
									c0,0.001,0,0.001,0,0.001l-0.026-0.098l-21.365,5.913c-0.127-0.283-0.435-0.453-0.751-0.389
									c-0.158,0.03-0.29,0.113-0.386,0.228l-7.894-4.868c0.052-0.122,0.068-0.261,0.042-0.4c-0.074-0.366-0.432-0.604-0.799-0.53
									c-0.365,0.073-0.604,0.43-0.531,0.796c0.026,0.13,0.09,0.243,0.175,0.333l-8.643,11.023
									c-0.135-0.077-0.299-0.107-0.467-0.076c-0.366,0.074-0.604,0.431-0.529,0.799c0.027,0.139,0.096,0.259,0.19,0.351
									l-5.015,6.961c-0.132-0.069-0.287-0.095-0.442-0.063c-0.368,0.074-0.604,0.431-0.531,0.797
									c0.005,0.027,0.011,0.052,0.02,0.077l-13.939,7.272c-0.153-0.201-0.41-0.308-0.672-0.255
									c-0.195,0.037-0.353,0.158-0.448,0.313l-10.042-3.957c0.024-0.095,0.028-0.195,0.008-0.298
									c-0.074-0.366-0.43-0.604-0.796-0.533c-0.357,0.073-0.592,0.414-0.536,0.77l-11.706,4.914
									c-0.151-0.203-0.41-0.312-0.675-0.259c-0.368,0.073-0.606,0.429-0.532,0.795c0.056,0.274,0.263,0.475,0.519,0.529
									l0.429,9.66C112.46,47.305,112.227,47.661,112.299,48.023 M113.201,36.774c-0.007-0.031-0.015-0.065-0.026-0.095
									l10.569-4.438l1.101-0.463c0.018,0.038,0.038,0.069,0.061,0.103l-7.658,10.099l-4.208-4.621
									C113.178,37.205,113.245,36.994,113.201,36.774 M176.288,14.178c0.087-0.018,0.167-0.053,0.235-0.098l6.439,7.246
									l-6.882-5.869l0.111-1.268C176.225,14.187,176.254,14.184,176.288,14.178 M199.291,7.782l4.723,4.295l-3.978,2.938
									c-0.115-0.113-0.271-0.186-0.436-0.196l-0.564-6.887C199.135,7.9,199.222,7.849,199.291,7.782 M213.799,3.729
									c0.131-0.026,0.248-0.091,0.337-0.177l8.107,6.264c-0.039,0.071-0.066,0.149-0.079,0.232l-9.458,0.015l0.958-6.321
									C213.709,3.742,213.754,3.737,213.799,3.729 M136.357,56.66c-0.141-0.088-0.312-0.122-0.485-0.088
									c-0.154,0.031-0.281,0.108-0.377,0.218l-10.938-7.034c0.014-0.031,0.027-0.064,0.036-0.101l15.988,1.95L136.357,56.66z
									 M125.199,32.113l-1.308,16.688c-0.027,0.002-0.058,0.006-0.085,0.01c-0.09,0.018-0.172,0.055-0.245,0.103l-6.178-6.784
									l7.663-10.104C125.094,32.06,125.145,32.089,125.199,32.113 M123.467,49.961l-1.144,1.576l-8.566-3.502l9.506,1.44
									c0,0.042,0.005,0.086,0.012,0.134C123.304,49.747,123.373,49.867,123.467,49.961 M123.627,50.076
									c0.132,0.069,0.288,0.096,0.447,0.064c0.15-0.029,0.279-0.11,0.374-0.218l10.591,6.814l-12.526-5.123L123.627,50.076z
									 M125.47,49.562l9.189-0.078l7.302-0.064c0.002,0.008,0.002,0.019,0.004,0.027c0.022,0.121,0.08,0.228,0.158,0.315
									l-1.389,1.662L125.47,49.562z M142.276,49.892c0.141,0.084,0.312,0.119,0.485,0.088c0.065-0.017,0.125-0.037,0.182-0.066
									l1.17,1.601c-0.086,0.082-0.147,0.185-0.178,0.302l-2.967-0.364L142.276,49.892z M144.456,51.329
									c-0.066,0.015-0.126,0.036-0.183,0.065l-1.169-1.601c0.157-0.151,0.235-0.379,0.188-0.616
									c-0.014-0.073-0.041-0.142-0.078-0.207l6.937-5.585c0.002,0.002,0.005,0.002,0.008,0.006l-5.285,7.988
									C144.749,51.319,144.603,51.303,144.456,51.329 M158.28,20.276l6.186,1.521l-1.633,8.863c-0.052-0.004-0.103,0-0.158,0.013
									c-0.017,0.002-0.035,0.006-0.054,0.013l-4.598-10.1C158.137,20.512,158.228,20.402,158.28,20.276 M222.516,10.744
									l-4.746,13.397l-5.889-5.193c0.094-0.144,0.13-0.322,0.094-0.502c-0.012-0.065-0.035-0.126-0.064-0.182l10.441-7.641
									C222.402,10.671,222.455,10.714,222.516,10.744 M226.445,32.093l-9.346-3.74c0.021-0.094,0.023-0.19,0.005-0.288
									c-0.043-0.208-0.175-0.375-0.348-0.466l1.103-3.113l8.604,7.584C226.454,32.078,226.449,32.086,226.445,32.093
									 M208.786,22.313l2.19-3.146c0.137,0.077,0.3,0.109,0.467,0.075c0.033-0.006,0.064-0.016,0.096-0.026l4.497,8.436
									c-0.022,0.019-0.05,0.04-0.071,0.061L208.786,22.313z M202.95,30.348c-0.103-0.051-0.218-0.073-0.336-0.069l-2.828-14.147
									c0.093-0.033,0.178-0.087,0.244-0.154l8.482,6.382L202.95,30.348z M191.892,35.28c-0.023,0.021-0.045,0.042-0.065,0.066
									l-11.12-7.285l3.063-5.086c0.112,0.038,0.234,0.05,0.358,0.025c0.039-0.008,0.079-0.021,0.117-0.036l6.054,9.749
									L191.892,35.28z M151.166,42.5l7.991-7.567l8.374,7.664c-0.055,0.081-0.092,0.174-0.107,0.273l-16.145-0.079
									c-0.002-0.013-0.002-0.023-0.006-0.035C151.255,42.659,151.215,42.573,151.166,42.5 M183.385,22.631
									c0.048,0.1,0.121,0.187,0.209,0.251l-3.056,5.07l-4.833-3.169c0.119-0.136,0.186-0.319,0.166-0.511L183.385,22.631z
									 M216.308,27.53c-0.036,0.009-0.064,0.017-0.094,0.029l-4.494-8.439c0.008-0.008,0.019-0.015,0.028-0.022l5.95,5.247
									l-1.129,3.186C216.484,27.515,216.396,27.515,216.308,27.53 M167.961,42.312c-0.021,0.002-0.037,0.009-0.053,0.011
									l-4.624-10.182l-0.106-0.236c0.138-0.092,0.239-0.23,0.284-0.387l8.358,1.002l-3.589,9.792
									C168.144,42.293,168.052,42.293,167.961,42.312 M163.485,31.318c0-0.04-0.005-0.077-0.014-0.115
									c-0.004-0.04-0.018-0.077-0.031-0.113l2.688-1.548l8.478-4.874c0.018,0.031,0.04,0.06,0.058,0.087l-2.774,7.572
									L163.485,31.318z M174.823,24.901c0.05,0.033,0.105,0.06,0.161,0.078l1.274,4.215l1.005,3.317
									c-0.175,0.083-0.305,0.236-0.36,0.42l-4.811-0.579L174.823,24.901z M177.804,32.494c-0.108-0.041-0.228-0.059-0.35-0.039
									l-1.007-3.336l-1.243-4.106c0.04,0,0.082-0.004,0.124-0.014c0.078-0.015,0.151-0.043,0.215-0.082l4.892,3.208
									L177.804,32.494z M162.942,32.003c0.016-0.007,0.036-0.009,0.054-0.015l4.729,10.42c-0.021,0.013-0.04,0.025-0.059,0.042
									l-8.366-7.655l3.09-2.926C162.541,31.988,162.738,32.042,162.942,32.003 M168.418,42.381l3.603-9.836l4.854,0.582
									c0,0.044,0.005,0.088,0.013,0.129c0.021,0.103,0.063,0.195,0.122,0.272l-8.522,8.896
									C168.463,42.408,168.441,42.392,168.418,42.381 M177.976,32.595l2.627-4.361l11.113,7.279
									c-0.009,0.021-0.018,0.041-0.028,0.066l-13.46-2.446c0-0.048-0.003-0.097-0.011-0.141
									C178.183,32.827,178.095,32.691,177.976,32.595 M200.152,15.818c0.008-0.019,0.016-0.038,0.025-0.058l10.46,2.745
									c-0.007,0.068-0.005,0.138,0.011,0.205c0.025,0.13,0.085,0.242,0.171,0.332l-2.192,3.15L200.152,15.818z M183.327,22.438
									l-7.503,1.641c-0.086-0.203-0.261-0.351-0.47-0.401l0.705-7.979l7.36,6.278C183.337,22.111,183.3,22.273,183.327,22.438
									 M175.157,23.66c-0.029,0.003-0.063,0.006-0.094,0.011c-0.022,0.006-0.05,0.013-0.074,0.021l-7.483-15.192
									c0.019-0.015,0.036-0.031,0.059-0.047l8.311,7.089L175.157,23.66z M174.536,24.481l-11.196,6.436
									c-0.08-0.101-0.188-0.181-0.31-0.22l1.627-8.852l9.866,2.427c-0.006,0.065-0.003,0.13,0.011,0.196
									C174.534,24.473,174.534,24.477,174.536,24.481 M162.256,31.725l-3.101,2.936l-6.761-6.186
									c0.026-0.032,0.048-0.067,0.066-0.103l9.679,2.869c-0.011,0.075-0.009,0.15,0.005,0.228
									C162.166,31.563,162.202,31.649,162.256,31.725 M151.989,28.729c0.099-0.019,0.188-0.059,0.265-0.115l6.756,6.183
									l-7.981,7.557c-0.078-0.057-0.168-0.103-0.266-0.125l1.094-13.486C151.901,28.742,151.943,28.74,151.989,28.729
									 M151.279,42.99l16.145,0.079c0,0.015,0.002,0.027,0.005,0.038c0.068,0.347,0.393,0.577,0.734,0.539l2.787,10.843
									c-0.105,0.042-0.192,0.111-0.262,0.197l-19.451-11.542C151.255,43.097,151.269,43.044,151.279,42.99 M171.142,54.439
									l-2.785-10.839c0.281-0.119,0.451-0.414,0.408-0.722l6.426-1.921l-3.888,13.485
									C171.25,54.436,171.197,54.434,171.142,54.439 M168.706,42.688c-0.021-0.046-0.047-0.088-0.077-0.128l8.521-8.892
									c0.039,0.029,0.079,0.052,0.121,0.07l-2.016,6.99L168.706,42.688z M177.462,33.796c0.071,0.007,0.146,0.007,0.223-0.008
									c0.251-0.051,0.439-0.23,0.514-0.459l13.455,2.444c0,0.02,0,0.038,0,0.055l-16.171,4.837L177.462,33.796z M192.196,35.132
									c-0.048,0.01-0.093,0.026-0.135,0.044l-6.496-10.46l-1.15-1.85c0.045-0.036,0.083-0.077,0.119-0.122l10.602,4.871
									l-2.674,7.517C192.377,35.114,192.286,35.114,192.196,35.132 M184.63,22.569c0.04-0.111,0.054-0.234,0.029-0.358
									l14.324-6.354c0.063,0.099,0.151,0.181,0.254,0.234l-4.032,11.334L184.63,22.569z M199.424,16.158
									c0.056,0.012,0.11,0.015,0.166,0.013l2.831,14.147c-0.144,0.05-0.26,0.146-0.339,0.266l-6.698-3.074L199.424,16.158z
									 M203.112,30.462l5.56-7.984l7.174,5.396c-0.059,0.104-0.088,0.229-0.083,0.355l-12.479,2.497
									C203.247,30.624,203.189,30.533,203.112,30.462 M226.589,31.919l-8.657-7.634l4.772-13.473
									c0.051,0.01,0.104,0.014,0.155,0.012l3.942,20.969C226.722,31.825,226.65,31.866,226.589,31.919 M222.166,10.248
									c0,0.011,0.002,0.021,0.002,0.032c0.014,0.065,0.039,0.125,0.067,0.183l-10.442,7.642c-0.079-0.08-0.175-0.141-0.282-0.173
									l1.166-7.67L222.166,10.248z M211.314,17.901c-0.045,0-0.091,0.005-0.136,0.014c-0.005,0.002-0.007,0.003-0.014,0.004
									l-3.902-7.184c0.158-0.105,0.268-0.275,0.296-0.466l4.914-0.007L211.314,17.901z M207.021,10.836
									c0.022-0.006,0.04-0.01,0.062-0.017l3.895,7.171c-0.034,0.019-0.063,0.04-0.092,0.064l-6.557-5.962l2.031-1.5
									C206.512,10.785,206.765,10.886,207.021,10.836 M210.75,18.202c-0.019,0.025-0.032,0.051-0.045,0.078l-10.477-2.714
									c0.008-0.067,0.006-0.136-0.011-0.205c-0.009-0.065-0.034-0.128-0.063-0.184l4.009-2.963L210.75,18.202z M198.457,7.854
									c0.11,0.073,0.246,0.113,0.383,0.11l0.562,6.87c-0.354,0.083-0.582,0.434-0.512,0.793c0.006,0.015,0.009,0.03,0.014,0.046
									l-3.763,1.67l-10.548,4.679c-0.008-0.019-0.019-0.036-0.031-0.054L198.457,7.854z M175.996,14.171l-0.1,1.128l-7.73-6.594
									l7.366,4.541c-0.053,0.123-0.071,0.261-0.042,0.4C175.543,13.913,175.745,14.111,175.996,14.171 M167.251,8.606
									c0.026-0.006,0.051-0.013,0.074-0.02l7.486,15.191c-0.107,0.076-0.19,0.181-0.24,0.301l-9.874-2.43l2.398-13.03
									C167.145,8.62,167.198,8.616,167.251,8.606 M166.898,8.582L164.5,21.603l-6.175-1.521c0.009-0.063,0.006-0.129-0.008-0.195
									c-0.025-0.13-0.087-0.242-0.172-0.332l8.639-11.025C166.822,8.551,166.859,8.568,166.898,8.582 M157.789,20.683
									c0.018-0.003,0.033-0.008,0.051-0.013l4.603,10.098c-0.107,0.071-0.191,0.17-0.245,0.283l-9.672-2.867
									c0.013-0.082,0.013-0.166-0.003-0.249c-0.03-0.143-0.099-0.26-0.193-0.354l5.014-6.96
									C157.475,20.688,157.631,20.715,157.789,20.683 M151.645,28.711c0.005,0,0.008,0.002,0.014,0.004l-1.094,13.496
									c-0.03,0.005-0.059,0.005-0.088,0.011c-0.18,0.038-0.326,0.141-0.422,0.276l-3.593-1.798L151.645,28.711z M149.965,42.678
									c-0.034,0.107-0.042,0.222-0.019,0.342c0.014,0.077,0.043,0.148,0.079,0.209l-6.938,5.588
									c-0.031-0.029-0.064-0.057-0.103-0.078l3.396-7.854L149.965,42.678z M142.803,48.659c-0.096-0.027-0.201-0.031-0.307-0.011
									c-0.015,0.002-0.032,0.009-0.045,0.011l-4.208-9.532l-1.146-2.6c0.078-0.05,0.144-0.115,0.194-0.194l8.911,4.462
									L142.803,48.659z M136.865,36.619c0.018-0.002,0.032-0.006,0.049-0.013l1.122,2.543l4.23,9.592l-0.03,0.021l-8.847-9.142
									l2.945-3.118C136.483,36.609,136.673,36.659,136.865,36.619 M142.093,48.899c-0.07,0.095-0.116,0.201-0.134,0.318
									l-5.543,0.051l-11.808,0.104l-0.004-0.029c-0.022-0.109-0.068-0.205-0.133-0.287l8.782-9.292L142.093,48.899z
									 M124.328,48.921c-0.072-0.046-0.152-0.084-0.236-0.103l1.306-16.661c0.062,0.007,0.126,0.002,0.188-0.008
									c0.08-0.017,0.15-0.044,0.215-0.084l7.312,7.557L124.328,48.921z M123.415,49.049c-0.055,0.066-0.098,0.146-0.122,0.228
									l-9.657-1.461c-0.003-0.019-0.005-0.039-0.009-0.056c-0.03-0.155-0.112-0.289-0.223-0.384l3.855-5.085L123.415,49.049z
									 M113.457,48.354c0.047-0.052,0.089-0.11,0.118-0.176l8.627,3.526l-2.887,3.979c-0.13-0.069-0.286-0.097-0.445-0.064
									c-0.063,0.012-0.121,0.035-0.175,0.061L113.457,48.354z M119.679,56.221c-0.002-0.023-0.006-0.049-0.009-0.069
									c-0.028-0.141-0.098-0.262-0.191-0.352l2.914-4.019l12.954,5.295c-0.001,0.007-0.004,0.015-0.005,0.023L119.679,56.221z
									 M136.525,56.802c-0.005-0.004-0.01-0.01-0.016-0.017l4.309-5.15l3.092,0.377c0.001,0.036,0.007,0.075,0.014,0.115
									c0.01,0.046,0.024,0.088,0.04,0.13L136.525,56.802z M171.632,54.582c-0.043-0.034-0.088-0.061-0.138-0.084l3.922-13.609
									l15.871-4.742L171.632,54.582z M192.895,35.422c-0.063-0.094-0.146-0.169-0.247-0.222l2.671-7.502L202,30.766
									c-0.033,0.103-0.039,0.21-0.017,0.32c0.005,0.021,0.011,0.044,0.017,0.063L192.895,35.422z M213.275,3.618
									c0.058,0.041,0.122,0.073,0.191,0.094l-0.962,6.352l-4.948,0.007l-0.002-0.032c-0.024-0.107-0.07-0.203-0.134-0.282
									L213.275,3.618z M206.229,10.021c-0.022,0.091-0.025,0.187-0.006,0.282c0.008,0.04,0.021,0.079,0.034,0.117l-2.08,1.537
									l-4.763-4.332c0.009-0.015,0.014-0.029,0.023-0.044L206.229,10.021z M198.186,7.507c0.029,0.08,0.068,0.154,0.122,0.215
									l-13.876,14.098c-0.154-0.129-0.36-0.188-0.57-0.146c-0.09,0.017-0.166,0.051-0.237,0.097l-6.952-7.821
									c0.117-0.14,0.178-0.326,0.154-0.519l21.363-5.912L198.186,7.507z M151.3,28.453c0.049,0.065,0.104,0.121,0.167,0.168
									l-5.186,11.989l-8.902-4.456c0.032-0.104,0.04-0.22,0.018-0.332c-0.006-0.034-0.018-0.069-0.028-0.101L151.3,28.453z
									 M136.076,35.791c-0.026,0.096-0.03,0.194-0.008,0.299c0.021,0.103,0.064,0.194,0.125,0.274l-2.942,3.116l-7.295-7.543
									c0.027-0.031,0.056-0.064,0.079-0.104L136.076,35.791z M112.67,37.571c0.079-0.017,0.15-0.046,0.215-0.086l4.238,4.655
									l-3.89,5.129c-0.066-0.027-0.141-0.048-0.213-0.053l-0.43-9.635C112.619,37.58,112.643,37.576,112.67,37.571"/>
							</g>
						</g>
					</g>
					<g opacity="0.1" clip-path="url(#SVGID_9_)">
						<g>
							<defs>
								<rect id="SVGID_14_" x="123.802" y="-10.507" width="81.778" height="53.005"/>
							</defs>
							<clipPath id="SVGID_15_">
								<use xlink:href="#SVGID_14_"  overflow="visible"/>
							</clipPath>
							<g clip-path="url(#SVGID_15_)">
								<defs>
									<rect id="SVGID_16_" x="123.802" y="-10.507" width="81.778" height="53.005"/>
								</defs>
								<clipPath id="SVGID_17_">
									<use xlink:href="#SVGID_16_"  overflow="visible"/>
								</clipPath>
								<path clip-path="url(#SVGID_17_)" fill="#5BC7D4" d="M204.268-4.025l-4.359-5.676c0.117-0.151,0.141-0.365,0.043-0.547
									c-0.133-0.241-0.438-0.331-0.683-0.198c-0.174,0.099-0.269,0.284-0.257,0.471l-8.97,2.792
									c-0.138-0.229-0.435-0.309-0.671-0.18c-0.241,0.133-0.331,0.438-0.195,0.68c0.034,0.068,0.084,0.124,0.142,0.166
									l-3.799,7.026c-0.128-0.046-0.275-0.038-0.403,0.033c-0.175,0.095-0.268,0.278-0.26,0.464l-11.358,2.522
									c-0.007-0.018-0.014-0.035-0.023-0.053c-0.134-0.241-0.44-0.331-0.682-0.198c-0.103,0.057-0.178,0.145-0.22,0.246
									l-6.155-1.553c0.007-0.096-0.008-0.198-0.059-0.291c-0.133-0.243-0.44-0.331-0.681-0.197
									c-0.112,0.059-0.189,0.156-0.229,0.267l-10.145-2.13c0.006-0.09-0.014-0.185-0.061-0.27
									c-0.133-0.244-0.438-0.332-0.679-0.198c-0.246,0.133-0.333,0.438-0.198,0.681c0.049,0.093,0.124,0.162,0.211,0.207
									l-2.151,6.517c-0.105-0.019-0.223-0.003-0.326,0.054c-0.208,0.116-0.302,0.358-0.238,0.58l-14.918,6.827l0.032,0.069
									c0-0.001,0-0.001-0.003-0.001c-0.131-0.244-0.435-0.333-0.679-0.198c-0.242,0.133-0.331,0.437-0.198,0.679
									c0.028,0.054,0.068,0.099,0.11,0.137l-2.689,4.624c-0.13-0.047-0.283-0.042-0.414,0.03c-0.125,0.07-0.211,0.184-0.242,0.313
									l-6.241-0.688c-0.002-0.075-0.02-0.15-0.06-0.223c-0.132-0.242-0.437-0.331-0.681-0.198
									c-0.241,0.135-0.332,0.438-0.197,0.681c0.06,0.108,0.152,0.188,0.26,0.229l-1.604,7.409
									c-0.095-0.006-0.188,0.013-0.275,0.061c-0.242,0.133-0.332,0.438-0.198,0.681c0.122,0.225,0.388,0.316,0.619,0.229
									l7.757,13.747c-0.2,0.146-0.263,0.423-0.141,0.643c0.132,0.243,0.438,0.331,0.679,0.199
									c0.244-0.134,0.331-0.438,0.199-0.681c-0.034-0.064-0.084-0.115-0.137-0.156l3.513-6.574c0.13,0.047,0.277,0.038,0.41-0.033
									c0.22-0.121,0.311-0.383,0.227-0.611l8.258-4.532c0.146,0.192,0.418,0.259,0.639,0.138c0.183-0.103,0.279-0.299,0.257-0.498
									l7.192-1.917c0.008,0.015,0.013,0.03,0.021,0.043c0.133,0.241,0.438,0.332,0.679,0.199c0.22-0.121,0.313-0.379,0.233-0.606
									l20.188,1.093c0.007,0.066,0.027,0.134,0.061,0.194c0.133,0.241,0.438,0.331,0.681,0.199
									c0.241-0.132,0.329-0.439,0.196-0.681c-0.048-0.09-0.121-0.159-0.206-0.204l5.518-15.802
									c0.11,0.021,0.231,0.007,0.336-0.053c0.098-0.053,0.169-0.134,0.212-0.229l6.798,2.01c-0.016,0.103,0.003,0.212,0.057,0.31
									c0.132,0.243,0.437,0.332,0.68,0.198c0.168-0.091,0.261-0.263,0.261-0.44l6.375-0.97c0.013,0.031,0.026,0.063,0.042,0.093
									c0.134,0.244,0.438,0.332,0.683,0.199c0.241-0.136,0.331-0.439,0.195-0.682c-0.008-0.016-0.019-0.03-0.025-0.045l8.45-7.958
									c0.15,0.121,0.368,0.146,0.549,0.045c0.245-0.133,0.333-0.437,0.2-0.68c-0.087-0.155-0.24-0.247-0.404-0.26l-0.524-6.638
									c0.052-0.008,0.104-0.025,0.155-0.053c0.242-0.133,0.332-0.438,0.197-0.682C204.809-4.064,204.509-4.154,204.268-4.025
									 M199.441-9.51l-0.18,4.62l-9.151-2.071c0-0.029-0.005-0.058-0.013-0.087l0.842-0.261l8.103-2.521
									c0.008,0.022,0.018,0.044,0.029,0.065C199.149-9.619,199.291-9.531,199.441-9.51 M152.642,7.451l0.664,0.665l-1.1,6.601
									l0.194-7.169c0.063-0.009,0.125-0.028,0.183-0.06C152.604,7.477,152.623,7.465,152.642,7.451 M136.725,14.79l2.961,4.166
									c-0.088,0.086-0.142,0.2-0.151,0.32l-3.653,0.231l0.629-4.683C136.581,14.829,136.654,14.819,136.725,14.79 M126.445,19.383
									l3.554,3.124l-5.363,4.498c-0.047-0.042-0.099-0.073-0.157-0.094l1.61-7.41c0.091,0.006,0.187-0.013,0.274-0.062
									C126.392,19.424,126.42,19.405,126.445,19.383 M190.631,11.678l8.124-8.721c0.024,0.015,0.045,0.027,0.069,0.038
									l-2.844,9.195c-0.106-0.017-0.217,0.002-0.315,0.056c-0.116,0.063-0.196,0.165-0.235,0.281L190.631,11.678z M190.103-6.812
									l9.153,2.071l-0.27,6.787c-0.061,0.005-0.125,0.025-0.187,0.058c-0.018,0.011-0.036,0.022-0.052,0.034l-8.692-8.827
									C190.076-6.729,190.092-6.77,190.103-6.812 M199.482,2.303c-0.017-0.029-0.039-0.057-0.059-0.083l4.698-5.343l-3.184,6.064
									l-1.398-0.35C199.548,2.496,199.531,2.395,199.482,2.303 M200.868,3.074l-4.657,8.867l2.755-8.903
									c0.105,0.018,0.217,0,0.316-0.056c0.104-0.057,0.182-0.145,0.22-0.247L200.868,3.074z M190.458,11.647l-1.577-0.279
									c0.004-0.087-0.019-0.174-0.063-0.255c-0.003-0.008-0.008-0.013-0.011-0.018l4.166-3.442l5.244-4.331L190.458,11.647z
									 M190.337,11.775l-1.506,1.616c-0.074-0.049-0.157-0.08-0.244-0.087l-0.101-1.462c0.046-0.01,0.093-0.025,0.136-0.049
									c0.114-0.063,0.192-0.165,0.232-0.281L190.337,11.775z M188.095,13.595l-6.801-2.009c0.002-0.002,0.002-0.005,0.002-0.008
									l6.592-0.14c0.008,0.053,0.023,0.105,0.053,0.156c0.083,0.152,0.238,0.245,0.399,0.259l0.102,1.463
									c-0.048,0.01-0.093,0.026-0.136,0.049C188.207,13.42,188.137,13.501,188.095,13.595 M165.979,2.418l2.204,7.911
									c-0.014,0.005-0.023,0.01-0.036,0.018c-0.035,0.019-0.063,0.041-0.094,0.067l-5.146-4.24l2.777-3.809
									C165.776,2.412,165.879,2.433,165.979,2.418 M124.803,27.42l9.553-0.647c0.009,0.045,0.026,0.091,0.051,0.136
									c0.064,0.119,0.173,0.198,0.293,0.235l-0.861,5.749l-9.07-5.326C124.787,27.519,124.798,27.47,124.803,27.42
									 M132.693,41.521l1.258-8.39l2.106,1.234c-0.056,0.134-0.053,0.293,0.024,0.43c0.035,0.066,0.085,0.119,0.142,0.161
									l-3.511,6.573C132.707,41.524,132.699,41.522,132.693,41.521 M136.562,34.056c-0.022-0.002-0.048-0.002-0.071,0l-1.47-6.92
									c0.021-0.009,0.044-0.019,0.065-0.032c0.111-0.061,0.188-0.154,0.229-0.265l2.738,0.737L136.562,34.056z M138.229,27.471
									l1.765-7.652c0.069,0.006,0.142-0.004,0.213-0.029l5.136,9.359c-0.071,0.052-0.124,0.123-0.155,0.198L138.229,27.471z
									 M153.476,24.66l-1.213-8.405c0.028-0.009,0.059-0.02,0.082-0.035c0.084-0.045,0.147-0.109,0.19-0.184l4.158,1.42
									l-2.828,9.423c-0.021-0.006-0.046-0.006-0.065-0.006L153.476,24.66z M180.361,11.758c0.006,0.009,0.011,0.015,0.016,0.022
									l-9.105,7.737c-0.059-0.05-0.121-0.084-0.193-0.106l1.092-8.329l8.132,0.479C180.309,11.629,180.327,11.693,180.361,11.758
									 M157.629,13.009c0.079,0.117,0.202,0.188,0.336,0.209l-1.229,4.098l-4.146-1.417c0.022-0.078,0.022-0.161,0-0.243
									L157.629,13.009z M136.132,34.24l-2.159-1.267l0.873-5.807c0.008,0,0.018,0,0.026,0l1.473,6.918
									c-0.02,0.011-0.043,0.017-0.063,0.027C136.222,34.147,136.17,34.188,136.132,34.24 M170.545,19.584l-6.693-3.836l4.253-4.55
									c0.102,0.069,0.226,0.101,0.347,0.085l0.054,0.184l2.23,7.97c-0.012,0.006-0.023,0.012-0.036,0.019
									C170.639,19.488,170.588,19.532,170.545,19.584 M163.719,15.674l-5.179-2.968c0-0.025-0.002-0.051-0.007-0.076l7.122-1.278
									l2.259-0.405c0.01,0.027,0.021,0.054,0.034,0.081c0.016,0.024,0.031,0.047,0.048,0.069L163.719,15.674z M163.615,15.783
									l-2.448,2.62c-0.116-0.079-0.266-0.103-0.403-0.066l-1.014-2.356l-1.283-2.995c0.023-0.038,0.04-0.079,0.053-0.12
									L163.615,15.783z M156.876,17.363l1.243-4.147c0.055-0.008,0.108-0.025,0.161-0.055c0.029-0.015,0.054-0.032,0.077-0.053
									l1.254,2.917l1.018,2.369c-0.08,0.049-0.142,0.114-0.178,0.19L156.876,17.363z M168.879,10.89l3.142,0.184l-1.088,8.32
									c-0.019,0-0.037,0.001-0.054,0.004l-2.284-8.154c0.011-0.005,0.024-0.011,0.034-0.018
									C168.765,11.152,168.85,11.027,168.879,10.89 M170.455,19.769l-9.065-0.978c-0.003-0.071-0.021-0.146-0.058-0.211
									c-0.017-0.029-0.036-0.055-0.057-0.079l2.473-2.642l6.727,3.853C170.466,19.73,170.461,19.748,170.455,19.769
									 M160.451,19.062c0.019,0.032,0.036,0.061,0.062,0.087l-6.456,7.797c-0.02-0.008-0.032-0.019-0.048-0.024l2.824-9.417
									l3.567,1.22C160.378,18.835,160.394,18.954,160.451,19.062 M138.087,27.432l-2.741-0.738
									c0.005-0.09-0.017-0.185-0.062-0.271c-0.024-0.045-0.056-0.086-0.093-0.119l4.615-6.538c0.015,0.007,0.028,0.013,0.041,0.02
									L138.087,27.432z M152.26,15.304l1.176-7.061l4.201,4.182c-0.096,0.128-0.124,0.296-0.074,0.45l-5.029,2.646
									C152.469,15.414,152.37,15.339,152.26,15.304 M153.466,8.065l1.33-7.974c0.018,0,0.038,0,0.056-0.002l2.997,12.168
									c-0.018,0.009-0.035,0.017-0.051,0.024c-0.021,0.013-0.039,0.024-0.058,0.039L153.466,8.065z M158.479,12.48
									c-0.026-0.043-0.053-0.083-0.09-0.115l4.432-6.073l5.14,4.236c-0.05,0.083-0.076,0.176-0.073,0.273l-9.406,1.688
									L158.479,12.48z M168.828,10.545c-0.029-0.051-0.063-0.096-0.104-0.132l4.112-6.236c0.027,0.012,0.057,0.021,0.085,0.028
									l-0.879,6.722l-3.154-0.185C168.884,10.675,168.861,10.608,168.828,10.545 M173.357,4.101l7.043,7.115
									c-0.045,0.059-0.076,0.126-0.09,0.198l-8.122-0.479l0.883-6.718c0.068-0.007,0.138-0.024,0.204-0.06
									C173.304,4.14,173.331,4.121,173.357,4.101 M180.567,11.96l-5.518,15.801c-0.079-0.015-0.161-0.011-0.24,0.014l-3.588-7.465
									c0.211-0.144,0.282-0.427,0.157-0.656c-0.005-0.009-0.009-0.017-0.012-0.024l9.104-7.736
									C180.499,11.919,180.533,11.941,180.567,11.96 M174.587,27.915l-8.627-5.784l4.556-1.972
									c0.123,0.195,0.358,0.28,0.573,0.213l3.585,7.466C174.642,27.862,174.613,27.889,174.587,27.915 M165.815,22.034
									l-4.475-2.999c0.02-0.03,0.029-0.063,0.037-0.097l9.061,0.975c0.003,0.036,0.009,0.074,0.019,0.11L165.815,22.034z
									 M165.655,22.104l-11.461,4.965c-0.009-0.01-0.016-0.021-0.027-0.031l6.456-7.794c0.149,0.095,0.345,0.105,0.509,0.017
									c0.051-0.028,0.094-0.062,0.13-0.104L165.655,22.104z M153.404,27.06l-5.096-2.983l3.687-7.809
									c0.039,0.009,0.081,0.015,0.121,0.014l0.231,1.596l1.303,9.017c-0.031,0.009-0.066,0.024-0.095,0.04
									C153.494,26.967,153.447,27.01,153.404,27.06 M148.181,24.002l-7.683-4.497c0.031-0.078,0.043-0.166,0.03-0.253
									l11.142-3.227c0.045,0.082,0.11,0.146,0.187,0.189L148.181,24.002z M148.118,24.136l-2.329,4.931
									c-0.1-0.029-0.212-0.027-0.316,0.013l-5.137-9.363c0.032-0.024,0.063-0.052,0.086-0.083L148.118,24.136z M145.177,29.722
									l-8.256,4.528c-0.057-0.073-0.132-0.13-0.216-0.163l1.492-6.472l6.951,1.874C145.139,29.566,145.148,29.646,145.177,29.722
									 M132.37,41.529l-7.76-13.755c0.029-0.024,0.06-0.054,0.083-0.081l9.12,5.355l-1.267,8.446
									C132.488,41.495,132.428,41.506,132.37,41.529 M130.111,22.604l4.311,3.79c-0.042,0.069-0.07,0.15-0.076,0.233l-9.553,0.644
									c-0.011-0.045-0.026-0.09-0.051-0.132c-0.004-0.009-0.008-0.015-0.012-0.021L130.111,22.604z M130.226,22.51l2.787-2.339
									c0.105,0.094,0.249,0.139,0.388,0.124l1.214,5.927c-0.004,0.001-0.007,0.003-0.011,0.004
									c-0.029,0.018-0.057,0.037-0.082,0.057L130.226,22.51z M133.845,19.784l1.865-0.119l-0.872,6.499
									c-0.028,0-0.055,0.003-0.083,0.01l-1.211-5.917c0.015-0.007,0.027-0.014,0.042-0.021
									C133.755,20.143,133.85,19.965,133.845,19.784 M135.861,19.657l3.683-0.233c0.008,0.046,0.025,0.092,0.049,0.136
									c0.026,0.046,0.058,0.087,0.09,0.12l-4.638,6.527c-0.02-0.009-0.039-0.018-0.063-0.022L135.861,19.657z M151.607,15.843
									c0,0.016,0.002,0.03,0.009,0.045l-8.204,2.375l-2.924,0.849c-0.005-0.013-0.011-0.022-0.018-0.034
									c-0.129-0.238-0.424-0.326-0.665-0.206l-2.954-4.157c0.08-0.063,0.137-0.15,0.165-0.246L151.607,15.843z M152.782,6.808
									c-0.051-0.093-0.127-0.161-0.215-0.206l2.009-6.08l-1.237,7.415l-0.594-0.59C152.856,7.194,152.879,6.985,152.782,6.808
									 M155.141-0.038l7.565,6.236l-4.434,6.081c-0.085-0.046-0.184-0.064-0.28-0.056l-2.997-12.17
									c0.018-0.008,0.034-0.014,0.053-0.023C155.082,0.012,155.111-0.013,155.141-0.038 M155.275-0.236l10.142,2.128
									c-0.005,0.092,0.014,0.185,0.062,0.271c0.024,0.045,0.053,0.084,0.087,0.116l-2.771,3.802l-7.562-6.231
									C155.252-0.179,155.265-0.208,155.275-0.236 M166.379,2.114l6.156,1.553c-0.01,0.098,0.008,0.197,0.059,0.292
									c0.032,0.055,0.071,0.103,0.119,0.142l-4.113,6.231c-0.084-0.039-0.18-0.056-0.272-0.042l-2.205-7.911
									c0.014-0.005,0.024-0.011,0.038-0.019C166.263,2.305,166.339,2.217,166.379,2.114 M182.107,8.302l-1.179,2.731
									c-0.119-0.033-0.252-0.021-0.371,0.044c-0.016,0.01-0.035,0.022-0.053,0.036l-7.05-7.123
									c0.004-0.003,0.004-0.007,0.006-0.01L182.107,8.302z M182.24,8.368l5.664,2.83c-0.009,0.03-0.017,0.061-0.022,0.093
									l-6.588,0.141c-0.009-0.054-0.026-0.107-0.056-0.157c-0.042-0.077-0.104-0.14-0.175-0.183L182.24,8.368z M182.299,8.232
									l2.919-6.77c0.067,0.02,0.136,0.023,0.203,0.016l0.59,2.016l2.16,7.404c-0.01,0.006-0.021,0.012-0.034,0.017
									c-0.066,0.038-0.125,0.091-0.167,0.151L182.299,8.232z M185.842,1.103l3.153,0.362l-0.655,9.391
									c-0.009,0-0.018,0.001-0.029,0.003l-2.17-7.448l-0.577-1.974c0.014-0.005,0.021-0.01,0.034-0.016
									C185.726,1.35,185.811,1.232,185.842,1.103 M189.142,1.482l9.4,1.079c0.001,0.075,0.02,0.153,0.06,0.223
									c0.003,0.007,0.008,0.013,0.011,0.019l-6.736,5.567l-3.161,2.611c-0.066-0.059-0.144-0.098-0.226-0.116L189.142,1.482z
									 M189.151,1.334l0.544-7.764c0.053-0.008,0.107-0.027,0.158-0.055c0.043-0.024,0.083-0.053,0.114-0.085l8.673,8.813
									c-0.039,0.052-0.065,0.11-0.084,0.171L189.151,1.334z M199.401-4.708l4.606,1.044c-0.016,0.106,0,0.221,0.056,0.322
									c0.005,0.013,0.014,0.024,0.021,0.037l-4.771,5.429c-0.054-0.036-0.116-0.06-0.179-0.072L199.401-4.708z M204.968,3.56
									c-0.046,0.009-0.088,0.025-0.131,0.049c-0.103,0.057-0.181,0.146-0.222,0.248l-3.531-0.879l3.208-6.105
									c0.048,0.021,0.101,0.036,0.15,0.043L204.968,3.56z M196.215,12.292c-0.004-0.004-0.009-0.009-0.014-0.011l4.815-9.169
									l3.561,0.887c-0.009,0.096,0.012,0.198,0.062,0.289c0.009,0.017,0.018,0.031,0.028,0.046L196.215,12.292z M189.026,13.658
									c-0.01-0.032-0.022-0.063-0.043-0.093c-0.01-0.026-0.027-0.049-0.045-0.072l1.572-1.687l4.895,0.865v0.015L189.026,13.658z
									 M154.549,27.074l11.25-4.872l8.703,5.838c-0.016,0.036-0.026,0.073-0.038,0.113L154.549,27.074z M146.105,29.349
									c-0.006-0.015-0.014-0.029-0.021-0.041c-0.04-0.076-0.096-0.135-0.16-0.179l2.322-4.918l5.083,2.976
									c-0.028,0.076-0.042,0.161-0.031,0.243L146.105,29.349z M132.844,19.816c0.004,0.073,0.023,0.15,0.063,0.22
									c0.005,0.009,0.008,0.016,0.012,0.021l-2.806,2.353l-3.569-3.137c0.026-0.044,0.05-0.094,0.063-0.145L132.844,19.816z
									 M136.331,14.781c0.01,0.006,0.021,0.01,0.034,0.015l-0.634,4.722l-1.91,0.12c-0.01-0.028-0.023-0.056-0.037-0.083
									c-0.037-0.063-0.082-0.116-0.136-0.157L136.331,14.781z M137.008,14.151l14.916-6.829c0.076,0.12,0.197,0.196,0.33,0.22
									l-0.209,7.74c-0.062,0.008-0.121,0.026-0.18,0.059c-0.142,0.078-0.229,0.209-0.256,0.354l-14.571-1.374
									c0-0.059-0.013-0.119-0.035-0.179L137.008,14.151z M184.885,1.151c0.011,0.022,0.02,0.047,0.032,0.071
									c0.041,0.075,0.1,0.136,0.167,0.18l-2.918,6.764l-8.647-4.321c0.014-0.056,0.019-0.113,0.014-0.172L184.885,1.151z
									 M189.45-6.45c0.033,0.012,0.064,0.019,0.094,0.021l-0.538,7.745l-3.148-0.361c-0.004-0.073-0.024-0.147-0.061-0.215
									c-0.04-0.068-0.09-0.124-0.148-0.165L189.45-6.45z M199.803-9.598l4.346,5.661c-0.04,0.039-0.071,0.082-0.096,0.132
									l-4.646-1.052l0.183-4.654c0.057-0.01,0.111-0.027,0.161-0.057C199.771-9.576,199.783-9.588,199.803-9.598"/>
							</g>
						</g>
					</g>
					<path clip-path="url(#SVGID_9_)" fill="#5BC7D4" d="M139.905,56.746l7.573,4.438c-0.063,0.23,0.012,0.483,0.207,0.641
						c0.263,0.213,0.651,0.174,0.862-0.088c0.158-0.19,0.178-0.448,0.079-0.655l8.905-7.314c0.263,0.194,0.636,0.15,0.845-0.104
						c0.215-0.262,0.175-0.648-0.088-0.864c-0.074-0.061-0.157-0.099-0.244-0.119l1.076-9.742c0.166-0.009,0.331-0.084,0.445-0.226
						c0.149-0.188,0.172-0.439,0.079-0.647l11.742-8.109c0.019,0.017,0.034,0.033,0.054,0.048c0.266,0.214,0.651,0.174,0.866-0.09
						c0.09-0.112,0.135-0.247,0.137-0.383l7.71-1.077c0.037,0.114,0.104,0.224,0.204,0.303c0.263,0.216,0.649,0.176,0.864-0.088
						c0.099-0.119,0.144-0.264,0.139-0.406l12.51-2.266c0.037,0.104,0.101,0.202,0.193,0.278c0.266,0.218,0.652,0.173,0.867-0.088
						c0.211-0.264,0.172-0.653-0.09-0.867c-0.102-0.079-0.221-0.125-0.34-0.136l-0.564-8.401c0.13-0.028,0.254-0.099,0.344-0.211
						c0.188-0.228,0.184-0.546,0.009-0.769l13.799-14.647l-0.068-0.064c0,0,0.003,0,0.003,0.002c0.265,0.213,0.65,0.174,0.866-0.091
						c0.211-0.262,0.171-0.65-0.091-0.863c-0.058-0.048-0.122-0.082-0.188-0.104l0.922-6.498c0.169-0.005,0.339-0.081,0.456-0.226
						c0.11-0.135,0.153-0.305,0.13-0.466l7.409-2.101c0.04,0.085,0.096,0.161,0.173,0.225c0.265,0.215,0.651,0.174,0.866-0.089
						c0.213-0.264,0.173-0.651-0.09-0.864c-0.119-0.098-0.263-0.143-0.403-0.138l-1.595-9.164c0.108-0.037,0.207-0.102,0.283-0.195
						c0.214-0.265,0.175-0.651-0.09-0.865c-0.238-0.197-0.583-0.18-0.806,0.027l-15.164-12.045c0.156-0.258,0.103-0.599-0.141-0.795
						c-0.263-0.215-0.649-0.174-0.864,0.089s-0.172,0.65,0.091,0.864c0.069,0.057,0.146,0.096,0.228,0.117l-0.957,9.092
						c-0.17,0.008-0.334,0.084-0.45,0.227c-0.196,0.239-0.178,0.581,0.023,0.803l-7.293,8.962c-0.257-0.154-0.593-0.1-0.788,0.14
						c-0.163,0.199-0.179,0.469-0.063,0.683l-7.29,5.5c-0.014-0.012-0.027-0.026-0.042-0.038c-0.263-0.215-0.649-0.175-0.864,0.089
						c-0.193,0.236-0.18,0.573,0.016,0.794l-23.45,8.08c-0.038-0.071-0.089-0.138-0.156-0.192c-0.266-0.214-0.653-0.176-0.867,0.09
						c-0.212,0.264-0.175,0.649,0.09,0.864c0.099,0.08,0.212,0.123,0.33,0.136l1.025,20.506c-0.136,0.026-0.263,0.102-0.355,0.216
						c-0.088,0.105-0.133,0.23-0.138,0.356l-8.652,0.856c-0.033-0.124-0.101-0.239-0.206-0.327c-0.267-0.213-0.652-0.174-0.869,0.09
						c-0.146,0.181-0.174,0.421-0.09,0.622l-6.802,4.045c-0.024-0.029-0.057-0.061-0.088-0.088c-0.265-0.211-0.651-0.171-0.865,0.09
						c-0.213,0.264-0.173,0.653,0.089,0.865c0.017,0.017,0.036,0.026,0.054,0.039l-5.931,12.946
						c-0.229-0.067-0.487,0.008-0.647,0.203c-0.214,0.266-0.175,0.652,0.088,0.864c0.168,0.138,0.389,0.169,0.58,0.108l3.657,7.302
						c-0.055,0.034-0.104,0.08-0.147,0.132c-0.215,0.262-0.175,0.649,0.088,0.864C139.308,57.043,139.69,57.003,139.905,56.746
						 M147.921,60.753l-1.926-5.334l11.354-1.871c0.015,0.031,0.036,0.061,0.058,0.095l-0.838,0.686l-8.044,6.604
						c-0.02-0.021-0.04-0.042-0.063-0.059C148.306,60.743,148.103,60.709,147.921,60.753 M193.283,19.864l-1.064-0.447l-1.797-8.012
						l3.089,8.241c-0.068,0.036-0.13,0.087-0.181,0.149C193.312,19.816,193.296,19.84,193.283,19.864 M207.982,4.174l-5.29-3.368
						c0.062-0.139,0.07-0.293,0.025-0.435l4.047-1.949l1.445,5.612C208.129,4.063,208.049,4.11,207.982,4.174 M217.545-5.793
						l-5.48-1.908l4.017-7.589c0.071,0.024,0.146,0.037,0.221,0.034l1.595,9.164c-0.108,0.035-0.209,0.101-0.283,0.195
						C217.585-5.864,217.563-5.83,217.545-5.793 M148.151,32.604l-5.208,13.666c-0.03-0.009-0.063-0.011-0.094-0.015l-1.014-11.764
						c0.127-0.031,0.244-0.099,0.332-0.207c0.103-0.126,0.147-0.278,0.139-0.43L148.151,32.604z M157.295,53.374l-11.361,1.869
						l-2.83-7.836c0.069-0.035,0.131-0.088,0.185-0.15c0.018-0.021,0.031-0.042,0.047-0.063l13.955,6.017
						C157.284,53.268,157.284,53.322,157.295,53.374 M142.424,47.345c0.031,0.027,0.066,0.048,0.103,0.067l-2.872,8.243l0.816-8.36
						l1.751-0.254C142.257,47.158,142.324,47.266,142.424,47.345 M140.49,47.108l1.196-12.229l0.98,11.39
						c-0.125,0.031-0.243,0.103-0.333,0.211c-0.093,0.111-0.138,0.249-0.138,0.385L140.49,47.108z M148.364,32.56l1.921-0.412
						c0.037,0.1,0.102,0.19,0.188,0.261c0.006,0.007,0.013,0.013,0.021,0.016l-3.146,5.836l-3.957,7.344L148.364,32.56z
						 M148.439,32.356l0.967-2.532c0.105,0.022,0.215,0.017,0.317-0.015l0.79,1.615c-0.048,0.034-0.093,0.073-0.13,0.119
						c-0.101,0.126-0.144,0.276-0.136,0.425L148.439,32.356z M150.152,29.253l8.653-0.856c0,0.002,0,0.007,0.002,0.009l-7.426,3.202
						c-0.033-0.055-0.076-0.107-0.131-0.153c-0.169-0.136-0.385-0.169-0.575-0.106l-0.788-1.618c0.048-0.031,0.09-0.07,0.127-0.117
						C150.102,29.506,150.146,29.381,150.152,29.253 M180.446,31.745l-6.159-7.974c0.011-0.012,0.024-0.024,0.033-0.038
						c0.031-0.037,0.057-0.078,0.079-0.118l7.804,2.441l-1.396,5.611C180.682,31.655,180.555,31.683,180.446,31.745 M215.7-15.685
						l-10.558,5.146c-0.031-0.047-0.071-0.092-0.119-0.128c-0.13-0.106-0.289-0.15-0.443-0.136l-1.675-6.931l12.766,1.865
						C215.673-15.808,215.682-15.744,215.7-15.685 M200.221-28.07l2.445,10.119l-2.965-0.434c0-0.177-0.076-0.353-0.228-0.476
						c-0.069-0.058-0.151-0.096-0.233-0.117l0.957-9.092C200.205-28.069,200.213-28.069,200.221-28.07 M199.272-17.796
						c0.026-0.01,0.053-0.021,0.08-0.033l4.868,7.187c-0.022,0.019-0.045,0.039-0.063,0.063c-0.098,0.119-0.143,0.265-0.138,0.408
						l-3.455,0.426L199.272-17.796z M200.418-9.544l1.528,9.513c-0.085,0.026-0.162,0.071-0.228,0.134l-10.161-8.268
						c0.056-0.093,0.082-0.196,0.085-0.297L200.418-9.544z M184.384,0.693l5.261,8.99c-0.026,0.023-0.053,0.05-0.077,0.078
						c-0.072,0.089-0.113,0.191-0.13,0.297l-5.382,0.305l-1.14-12.012c0.029-0.007,0.056-0.016,0.081-0.026L184.384,0.693z
						 M159.789,27.772c-0.008-0.008-0.02-0.016-0.026-0.022l6.772-12.997c0.088,0.029,0.182,0.041,0.268,0.031l2.605,9.972
						l-9.461,3.212C159.908,27.894,159.854,27.827,159.789,27.772 M185.049,15.851c-0.145-0.095-0.32-0.12-0.481-0.081l-0.493-5.226
						l5.363-0.304c0.017,0.098,0.05,0.192,0.114,0.275L185.049,15.851z M199.675-18.206l3.038,0.444l1.689,7
						c-0.008,0.005-0.018,0.011-0.029,0.015l-4.871-7.184c0.022-0.021,0.04-0.04,0.062-0.063
						C199.616-18.06,199.651-18.13,199.675-18.206 M167.328,14.345l9.382,1.267l-2.732,7.135c-0.148-0.032-0.303-0.009-0.435,0.063
						l-0.145-0.186l-6.216-8.025c0.01-0.013,0.021-0.024,0.032-0.038C167.268,14.494,167.307,14.421,167.328,14.345 M176.895,15.636
						l7.256,0.98c0.011,0.028,0.029,0.056,0.045,0.083l-7.505,4.742l-2.379,1.503c-0.024-0.026-0.051-0.051-0.08-0.075
						c-0.026-0.022-0.055-0.041-0.084-0.059L176.895,15.636z M176.962,15.462l1.573-4.107c0.17,0.033,0.348-0.004,0.487-0.111
						l2.242,2.212l2.841,2.811c-0.007,0.053-0.011,0.107-0.004,0.16L176.962,15.462z M183.891,10.555l0.502,5.287
						c-0.059,0.035-0.112,0.081-0.157,0.136c-0.023,0.031-0.045,0.063-0.066,0.098l-2.769-2.739l-2.248-2.222
						c0.064-0.092,0.102-0.192,0.114-0.297L183.891,10.555z M173.241,23.455l-3.661,1.242l-2.602-9.959
						c0.021-0.008,0.042-0.02,0.059-0.029l6.361,8.212c-0.01,0.013-0.022,0.023-0.033,0.037
						C173.249,23.103,173.209,23.285,173.241,23.455 M167.347,14.093l10.754-3.076c0.037,0.08,0.093,0.152,0.167,0.213
						c0.028,0.024,0.064,0.047,0.099,0.065l-1.588,4.142l-9.426-1.272C167.353,14.142,167.35,14.117,167.347,14.093 M179.044,10.275
						c-0.034-0.026-0.071-0.051-0.108-0.07l3.739-11.844c0.02,0.004,0.042,0.007,0.063,0.007l1.137,12.007l-4.616,0.262
						C179.232,10.5,179.16,10.37,179.044,10.275 M200.594-9.565l3.459-0.426c0.038,0.104,0.101,0.202,0.193,0.276
						c0.051,0.04,0.104,0.073,0.161,0.096l-2.226,9.561c-0.019-0.001-0.039-0.003-0.058-0.003L200.594-9.565z M190.089,10.763
						l1.924,8.568l-6.707-2.813c0.048-0.188,0.005-0.394-0.121-0.547l4.494-5.328C189.801,10.734,189.946,10.773,190.089,10.763
						 M192.062,19.548l2.17,9.676c-0.021,0.008-0.043,0.019-0.063,0.029l-9.027-12.446c0.019-0.018,0.031-0.035,0.048-0.052
						c0.019-0.023,0.035-0.047,0.048-0.069L192.062,19.548z M184.325,16.843c0.048,0.039,0.099,0.069,0.151,0.092l-2.231,8.948
						l-7.797-2.442c0.022-0.115,0.003-0.234-0.042-0.343l9.911-6.262C184.32,16.839,184.322,16.84,184.325,16.843 M173.455,23.822
						c0.055,0.047,0.116,0.08,0.181,0.102l-1.797,8.989c-0.035-0.002-0.072,0-0.112,0.009l-2.099-8.05l3.671-1.245
						C173.336,23.7,173.389,23.769,173.455,23.822 M171.285,33.239l-11.289-4.834c0.022-0.088,0.025-0.18,0.01-0.266l9.45-3.209
						l2.099,8.045c-0.074,0.036-0.145,0.093-0.201,0.163C171.327,33.171,171.306,33.204,171.285,33.239 M159.46,27.637
						l-1.025-20.508c0.099-0.019,0.19-0.063,0.27-0.127l7.523,6.829c-0.175,0.262-0.126,0.616,0.123,0.819
						c0.008,0.007,0.016,0.012,0.026,0.019l-6.777,13C159.555,27.651,159.507,27.641,159.46,27.637 M158.891,6.739l12.474,2.591
						l-4.267,4.346c-0.229-0.167-0.536-0.153-0.75,0.021l-7.524-6.83C158.854,6.827,158.874,6.783,158.891,6.739 M171.576,9.374
						l6.466,1.342c-0.002,0.043,0,0.086,0.005,0.129L167.3,13.919c-0.021-0.041-0.043-0.079-0.071-0.117L171.576,9.374z
						 M171.725,9.22l10.732-10.937c0.014,0.009,0.028,0.017,0.042,0.023l-3.735,11.84c-0.214-0.038-0.44,0.039-0.586,0.217
						c-0.043,0.057-0.077,0.115-0.099,0.177L171.725,9.22z M183.358-2.069l7.171,1.039l-0.583,10.575
						c-0.05,0.007-0.101,0.022-0.148,0.043L188.8,7.88l-5.646-9.646c0.034-0.026,0.063-0.056,0.093-0.092
						C183.3-1.922,183.337-1.993,183.358-2.069 M190.707-1.006l10.81,1.563c0,0.105,0.029,0.21,0.083,0.304l-11.172,8.809
						c-0.091-0.07-0.195-0.114-0.301-0.127L190.707-1.006z M190.718-1.188l0.368-6.68c0.13-0.012,0.254-0.064,0.358-0.158
						l10.16,8.268c-0.029,0.043-0.048,0.088-0.062,0.137L190.718-1.188z M191.483-8.893l7.29-8.962
						c0.099,0.061,0.21,0.088,0.318,0.087l1.296,8.045l-8.766,1.08C191.595-8.734,191.55-8.819,191.483-8.893 M200.587-28.225
						l15.169,12.048c-0.024,0.041-0.045,0.085-0.059,0.13l-12.837-1.875l-2.465-10.188
						C200.467-28.135,200.531-28.175,200.587-28.225 M211.892-7.761l-6.651-2.316c0.015-0.099,0.01-0.201-0.019-0.3l10.559-5.146
						c0.031,0.048,0.07,0.092,0.118,0.13c0.008,0.007,0.017,0.012,0.024,0.017L211.892-7.761z M211.805-7.6l-2.089,3.943
						c-0.164-0.058-0.344-0.044-0.498,0.039l-4.115-6.176c0.003-0.003,0.009-0.007,0.011-0.011c0.023-0.032,0.048-0.066,0.065-0.103
						L211.805-7.6z M208.948-2.831l-2.065,0.995l-2.009-7.789c0.033-0.014,0.064-0.029,0.094-0.05l4.106,6.166
						c-0.014,0.016-0.028,0.028-0.039,0.044C208.883-3.281,208.86-3.034,208.948-2.831 M206.719-1.757l-4.078,1.966
						c-0.035-0.049-0.074-0.092-0.123-0.132c-0.047-0.04-0.103-0.072-0.159-0.094l2.259-9.562c0.03,0.002,0.057,0.002,0.082-0.003
						L206.719-1.757z M190.583,9.85c-0.011-0.017-0.022-0.033-0.031-0.048l8.226-6.485l2.933-2.314
						c0.011,0.009,0.022,0.02,0.036,0.029c0.256,0.21,0.633,0.176,0.85-0.074l5.278,3.36c-0.062,0.111-0.088,0.236-0.076,0.356
						L190.583,9.85z M193.421,20.659c0.098,0.081,0.218,0.128,0.336,0.136l0.524,7.839l-2.016-9l0.945,0.397
						C193.153,20.257,193.227,20.505,193.421,20.659 M193.897,29.529l-11.477-3.593l2.234-8.958
						c0.116,0.011,0.235-0.013,0.342-0.066l9.025,12.447c-0.016,0.015-0.031,0.031-0.045,0.051
						C193.946,29.447,193.922,29.489,193.897,29.529 M193.837,29.817l-12.509,2.267c-0.037-0.106-0.104-0.205-0.193-0.282
						c-0.048-0.038-0.101-0.067-0.152-0.092l1.396-5.599l11.47,3.592C193.84,29.74,193.837,29.78,193.837,29.817 M180.13,32.274
						l-7.712,1.078c-0.033-0.115-0.1-0.222-0.2-0.304c-0.061-0.048-0.127-0.086-0.199-0.106l1.794-8.981
						c0.115,0.004,0.228-0.022,0.332-0.079l6.157,7.975c-0.009,0.01-0.022,0.021-0.033,0.035
						C180.178,32.005,180.133,32.139,180.13,32.274 M159.399,32.505l0.079-3.647c0.147-0.019,0.294-0.095,0.401-0.222
						c0.015-0.021,0.028-0.042,0.045-0.065l11.299,4.841c0,0.004,0,0.006,0,0.013L159.399,32.505z M159.219,32.492l-7.744-0.604
						c-0.002-0.038-0.009-0.075-0.021-0.113l7.426-3.202c0.034,0.057,0.077,0.109,0.132,0.151c0.085,0.071,0.184,0.112,0.284,0.13
						L159.219,32.492z M159.216,32.673l-0.195,9.04c-0.082,0.011-0.162,0.034-0.238,0.075l-1.599-2.017l-5.873-7.417
						c0.009-0.013,0.017-0.023,0.027-0.034c0.063-0.075,0.101-0.161,0.122-0.251L159.216,32.673z M158.479,42.412l-3.75,1.044
						l-3.594-10.977c0.011-0.004,0.022-0.008,0.032-0.015l5.907,7.459l1.566,1.979c-0.011,0.011-0.022,0.021-0.032,0.036
						C158.498,42.077,158.455,42.249,158.479,42.412 M154.555,43.505l-11.182,3.114c-0.037-0.086-0.096-0.166-0.173-0.229
						c-0.007-0.004-0.016-0.011-0.022-0.017l5.086-9.437l2.391-4.426c0.098,0.035,0.206,0.044,0.309,0.024L154.555,43.505z
						 M154.611,43.676l2.969,9.075c-0.057,0.035-0.11,0.079-0.158,0.136c-0.037,0.048-0.065,0.096-0.087,0.146l-13.931-6.007
						c0.021-0.077,0.027-0.156,0.018-0.236L154.611,43.676z M145.751,55.276l-5.718,0.942c-0.029-0.132-0.099-0.249-0.21-0.344
						c-0.016-0.011-0.03-0.021-0.044-0.029l2.917-8.375c0.079,0.017,0.159,0.017,0.235-0.002L145.751,55.276z M135.608,48.45
						c0.045-0.031,0.089-0.069,0.126-0.115c0.09-0.113,0.137-0.249,0.138-0.383l4.416-0.633l-0.825,8.422
						c-0.064-0.004-0.128,0.002-0.191,0.019L135.608,48.45z M141.521,34.484c0.009,0.003,0.014,0.005,0.022,0.005l-1.237,12.646
						l-4.462,0.636c-0.032-0.114-0.101-0.22-0.2-0.303c-0.018-0.013-0.036-0.023-0.053-0.038L141.521,34.484z M149.061,29.612
						c0.026,0.029,0.057,0.062,0.091,0.088c0.024,0.023,0.056,0.042,0.085,0.059l-1.007,2.646l-5.962,1.274
						c-0.001-0.006-0.004-0.013-0.005-0.019L149.061,29.612z M182.05-1.558L171.516,9.177L158.928,6.56
						c0.003-0.047,0-0.097-0.011-0.146L182.05-1.558z M190.599-8.039c0.014,0.012,0.026,0.026,0.042,0.038
						c0.08,0.063,0.169,0.105,0.263,0.124l-0.365,6.664l-7.153-1.033c-0.003-0.103-0.026-0.203-0.074-0.294L190.599-8.039z
						 M210.072-3.33c-0.038-0.084-0.097-0.16-0.173-0.223c-0.009-0.008-0.016-0.014-0.024-0.02l2.102-3.968l5.51,1.917
						c-0.014,0.064-0.017,0.13-0.006,0.193L210.072-3.33z M208.434,4.002h-0.046l-1.457-5.66l2.112-1.019
						c0.026,0.027,0.05,0.053,0.083,0.077c0.068,0.056,0.145,0.096,0.227,0.115L208.434,4.002z M207.956,5.03l-13.799,14.647
						c-0.144-0.1-0.317-0.13-0.479-0.096l-3.335-8.895c0.067-0.037,0.128-0.086,0.179-0.15c0.124-0.149,0.162-0.342,0.124-0.518
						l17.197-5.17c0.028,0.067,0.068,0.131,0.122,0.188L207.956,5.03z M159.545,41.914c-0.021-0.023-0.043-0.044-0.069-0.064
						c-0.082-0.067-0.178-0.109-0.276-0.128l0.197-9.037l11.821,0.919c0.011,0.069,0.032,0.141,0.064,0.203L159.545,41.914z
						 M157.865,52.66c-0.04,0.003-0.08,0.009-0.117,0.02l-2.963-9.052l3.744-1.042c0.04,0.082,0.096,0.155,0.17,0.218
						c0.074,0.057,0.157,0.096,0.244,0.117L157.865,52.66z M147.554,61.02L140,56.593c0.026-0.063,0.043-0.125,0.047-0.196
						l5.767-0.948l1.939,5.374c-0.058,0.036-0.112,0.084-0.157,0.139C147.58,60.979,147.567,60.998,147.554,61.02"/>
				</g>
			</g>
		</g>
	</g>
	<g>
		<path fill="#1EADE4" d="M8.676,15.176H1.933V49.4h9.785V19.472C11.688,15.664,9.369,15.223,8.676,15.176"/>
	</g>
	<g>
		<defs>
			<path id="SVGID_23_" d="M41.729,0.5c-4.106,0-39.796,0.031-39.796,0.031v6.603c0.015,0.544,0.301,3.137,4.374,3.137H16.62V49.4
				h9.767l0.006-1.725V10.312h13.685c5.032,0.014,17.061,0.329,20.849,3.907c4.845-0.82,9.504-2.64,9.491-5.941
				C70.865,1.284,49.976,0.512,42.045,0.5H41.729z"/>
		</defs>
		<clipPath id="SVGID_19_">
			<use xlink:href="#SVGID_23_"  overflow="visible"/>
		</clipPath>
		
			<linearGradient id="SVGID_21_" gradientUnits="userSpaceOnUse" x1="-181.0493" y1="436.4629" x2="-179.6933" y2="436.4629" gradientTransform="matrix(50.4773 0 0 -50.4773 9140.8105 22056.3828)">
			<stop  offset="0" style="stop-color:#05ADE2"/>
			<stop  offset="0.183" style="stop-color:#0EA8DA"/>
			<stop  offset="0.3566" style="stop-color:#199DCA"/>
			<stop  offset="0.5266" style="stop-color:#208CB3"/>
			<stop  offset="0.6942" style="stop-color:#237796"/>
			<stop  offset="0.8586" style="stop-color:#215E76"/>
			<stop  offset="1" style="stop-color:#1B4759"/>
		</linearGradient>
		<rect x="1.933" y="0.5" clip-path="url(#SVGID_19_)" fill="url(#SVGID_21_)" width="68.933" height="48.9"/>
	</g>
	<g>
		<defs>
			<path id="SVGID_26_" d="M62.75,13.861c-0.718,0.174-2.25,0.457-2.39,0.481h-0.005c-3.782,0.64-7.717,0.802-10.006,0.834H31.296
				v6.656c0.02,0.574,0.336,3.068,4.254,3.117h5.493V49.4h9.786V25.115l1.629-0.002c6.369-0.07,17.93-0.894,17.928-5.969
				c-0.004-5.188-0.004-8.835-0.005-10.379C69.932,11.383,66.632,12.917,62.75,13.861"/>
		</defs>
		<clipPath id="SVGID_22_">
			<use xlink:href="#SVGID_26_"  overflow="visible"/>
		</clipPath>
		
			<linearGradient id="SVGID_24_" gradientUnits="userSpaceOnUse" x1="-183.2632" y1="431.6191" x2="-181.9063" y2="431.6191" gradientTransform="matrix(28.8098 0 0 -28.8098 5311.0537 12463.9814)">
			<stop  offset="0" style="stop-color:#05ADE2"/>
			<stop  offset="1" style="stop-color:#0BAFCC"/>
		</linearGradient>
		<rect x="31.296" y="8.766" clip-path="url(#SVGID_22_)" fill="url(#SVGID_24_)" width="39.093" height="40.635"/>
	</g>
	<g>
		<path fill="#FFFFFF" d="M81.615,7.023h3.407V17.21h4.209V7.023h3.407v23.783h-3.407V20.217h-4.209v10.589h-3.407V7.023z"/>
		<path fill="#FFFFFF" d="M106.867,25.461c0,0.78-0.145,1.502-0.434,2.171c-0.29,0.668-0.685,1.252-1.187,1.753
			c-0.501,0.501-1.085,0.896-1.753,1.187c-0.668,0.289-1.381,0.434-2.138,0.434c-0.758,0-1.47-0.145-2.139-0.434
			c-0.668-0.29-1.252-0.686-1.753-1.187s-0.896-1.085-1.187-1.753c-0.289-0.669-0.434-1.392-0.434-2.171V7.023h3.407v18.104
			c0,0.847,0.2,1.47,0.601,1.871c0.401,0.4,0.902,0.601,1.504,0.601c0.601,0,1.102-0.2,1.503-0.601
			c0.4-0.401,0.601-1.024,0.601-1.871V7.023h3.407V25.461z"/>
		<path fill="#FFFFFF" d="M110.074,7.023h3.273l4.376,12.593h0.066l4.343-12.593h3.307v23.783h-3.407V16.342h-0.066l-3.374,10.221
			h-1.703l-3.341-10.221h-0.066v14.463h-3.407V7.023z"/>
		<path fill="#FFFFFF" d="M132.421,7.023h2.839l5.312,23.783h-3.407l-1.002-5.11h-4.644l-1.002,5.11h-3.407L132.421,7.023z
			 M133.857,13.87h-0.067l-1.67,8.618h3.407L133.857,13.87z"/>
		<path fill="#FFFFFF" d="M142.107,7.023h3.273l5.145,14.33h0.066V7.023h3.407v23.783h-3.207l-5.211-14.296h-0.066v14.296h-3.407
			V7.023z"/>
		<path fill="#FFFFFF" d="M160.846,7.023h2.839l5.312,23.783h-3.407l-1.002-5.11h-4.644l-1.002,5.11h-3.407L160.846,7.023z
			 M162.282,13.87h-0.067l-1.67,8.618h3.407L162.282,13.87z"/>
	</g>
	<text transform="matrix(1 0 0 1 169.0654 30.8057)" fill="#FFFFFF" font-family="'MyriadPro-Regular'" font-size="33.403"></text>
	<text transform="matrix(1 0 0 1 177.0479 30.8057)" fill="#FFFFFF" font-family="'DINCondensed-Bold'" font-size="33.403">D</text>
	<g>
		<path fill="#1EADE4" d="M100.147,39.644c0-0.327,0.277-0.631,0.631-0.631c0.34,0,0.604,0.304,0.604,0.631
			s-0.265,0.643-0.604,0.643C100.412,40.286,100.147,39.971,100.147,39.644z M101.308,40.878v8.497h-1.097v-8.497H101.308z"/>
		<path fill="#1EADE4" d="M103.222,49.375v-8.497h1.197l2.723,4.299c0.63,0.996,1.121,1.891,1.525,2.762l0.025-0.013
			c-0.101-1.136-0.127-2.168-0.127-3.492v-3.556h1.034v8.497h-1.109l-2.698-4.312c-0.592-0.945-1.159-1.916-1.588-2.837
			l-0.038,0.013c0.063,1.072,0.088,2.093,0.088,3.505v3.631H103.222z"/>
		<path fill="#1EADE4" d="M111.359,48.039c0.491,0.302,1.21,0.555,1.966,0.555c1.122,0,1.778-0.593,1.778-1.45
			c0-0.794-0.454-1.248-1.602-1.689c-1.386-0.491-2.243-1.21-2.243-2.408c0-1.322,1.097-2.306,2.748-2.306
			c0.869,0,1.499,0.202,1.878,0.415l-0.303,0.896c-0.276-0.151-0.844-0.403-1.613-0.403c-1.16,0-1.601,0.693-1.601,1.273
			c0,0.794,0.517,1.185,1.688,1.639c1.437,0.555,2.168,1.248,2.168,2.495c0,1.312-0.971,2.445-2.975,2.445
			c-0.819,0-1.714-0.238-2.168-0.542L111.359,48.039z"/>
		<path fill="#1EADE4" d="M119.097,46.702l-0.884,2.673h-1.134l2.887-8.497h1.323l2.9,8.497h-1.174l-0.907-2.673H119.097z
			 M121.882,45.846L121.05,43.4c-0.189-0.555-0.314-1.06-0.441-1.551h-0.025c-0.125,0.504-0.265,1.021-0.428,1.538l-0.832,2.458
			H121.882z"/>
		<path fill="#1EADE4" d="M125.433,49.375v-8.497h1.196l2.723,4.299c0.63,0.996,1.122,1.891,1.526,2.762l0.024-0.013
			c-0.1-1.136-0.126-2.168-0.126-3.492v-3.556h1.033v8.497h-1.108l-2.698-4.312c-0.592-0.945-1.159-1.916-1.588-2.837l-0.038,0.013
			c0.063,1.072,0.088,2.093,0.088,3.505v3.631H125.433z"/>
		<path fill="#1EADE4" d="M133.658,39.644c0-0.327,0.277-0.631,0.631-0.631c0.34,0,0.604,0.304,0.604,0.631
			s-0.265,0.643-0.604,0.643C133.923,40.286,133.658,39.971,133.658,39.644z M134.818,40.878v8.497h-1.097v-8.497H134.818z"/>
		<path fill="#1EADE4" d="M141.293,49.375v-3.604l-2.685-4.893h1.247l1.198,2.346c0.327,0.644,0.58,1.159,0.845,1.752h0.025
			c0.239-0.555,0.529-1.108,0.856-1.752l1.224-2.346h1.247l-2.849,4.88v3.617H141.293z"/>
		<path fill="#1EADE4" d="M147.276,46.702l-0.883,2.673h-1.135l2.888-8.497h1.323l2.899,8.497h-1.173l-0.907-2.673H147.276z
			 M150.063,45.846L149.23,43.4c-0.189-0.555-0.315-1.06-0.441-1.551h-0.025c-0.126,0.504-0.265,1.021-0.428,1.538l-0.832,2.458
			H150.063z"/>
		<path fill="#1EADE4" d="M153.613,40.992c0.555-0.114,1.35-0.177,2.104-0.177c1.173,0,1.93,0.215,2.459,0.693
			c0.428,0.378,0.668,0.958,0.668,1.614c0,1.121-0.706,1.865-1.602,2.168v0.037c0.655,0.228,1.047,0.832,1.249,1.715
			c0.277,1.186,0.478,2.005,0.655,2.332h-1.135c-0.14-0.239-0.327-0.971-0.567-2.03c-0.252-1.172-0.706-1.613-1.702-1.651h-1.033
			v3.682h-1.097V40.992z M154.71,44.862h1.122c1.172,0,1.916-0.643,1.916-1.614c0-1.097-0.794-1.575-1.954-1.588
			c-0.529,0-0.908,0.051-1.084,0.102V44.862z"/>
		<path fill="#1EADE4" d="M160.392,40.992c0.667-0.102,1.461-0.177,2.331-0.177c1.576,0,2.697,0.366,3.441,1.059
			c0.757,0.694,1.197,1.677,1.197,3.051c0,1.388-0.428,2.521-1.223,3.304c-0.794,0.794-2.105,1.222-3.756,1.222
			c-0.782,0-1.438-0.038-1.991-0.101V40.992z M161.487,48.505c0.277,0.051,0.681,0.063,1.109,0.063c2.344,0,3.617-1.312,3.617-3.605
			c0.013-2.005-1.121-3.278-3.441-3.278c-0.566,0-0.995,0.052-1.285,0.114V48.505z"/>
		<path fill="#1EADE4" d="M169.878,40.878v8.497h-1.097v-8.497H169.878z"/>
		<path fill="#1EADE4" d="M178.951,45.644c-0.063-1.185-0.139-2.609-0.126-3.669h-0.037c-0.29,0.996-0.644,2.056-1.072,3.228
			l-1.5,4.122h-0.832l-1.374-4.046c-0.403-1.198-0.744-2.295-0.983-3.304h-0.025c-0.024,1.06-0.088,2.484-0.164,3.757l-0.226,3.644
			h-1.047l0.593-8.497h1.398l1.45,4.11c0.353,1.047,0.643,1.979,0.857,2.861h0.037c0.215-0.857,0.518-1.79,0.896-2.861l1.513-4.11
			h1.399l0.529,8.497h-1.071L178.951,45.644z"/>
	</g>
</g>
</svg>
