<?xml version="1.0" encoding="utf-8"?>
<!-- Generator: Adobe Illustrator 16.0.0, SVG Export Plug-In . SVG Version: 6.00 Build 0)  -->
<!DOCTYPE svg PUBLIC "-//W3C//DTD SVG 1.1//EN" "http://www.w3.org/Graphics/SVG/1.1/DTD/svg11.dtd">
<svg version="1.1" id="Layer_1" xmlns="http://www.w3.org/2000/svg" xmlns:xlink="http://www.w3.org/1999/xlink" x="0px" y="0px"
	 width="186px" height="50px" viewBox="0 0 186 50" enable-background="new 0 0 186 50" xml:space="preserve">
<g>
	<g>
		<defs>
			<path id="SVGID_57_" d="M81.542,0.5c-3.036,0-5.497,2.462-5.497,5.498v25.273c0,3.034,2.461,5.495,5.497,5.495h96.024
				c3.035,0,5.497-2.461,5.497-5.495V5.998c0-3.036-2.462-5.498-5.497-5.498H81.542z"/>
		</defs>
		<clipPath id="SVGID_2_">
			<use xlink:href="#SVGID_57_"  overflow="visible"/>
		</clipPath>
		
			<linearGradient id="SVGID_3_" gradientUnits="userSpaceOnUse" x1="-184.1392" y1="344.4707" x2="-183.2524" y2="344.4707" gradientTransform="matrix(120.7422 0 0 -120.7422 22309.3828 41610.7852)">
			<stop  offset="0" style="stop-color:#0EB9CD"/>
			<stop  offset="1" style="stop-color:#05ADE2"/>
		</linearGradient>
		<rect x="76.045" y="0.5" clip-path="url(#SVGID_2_)" fill="url(#SVGID_3_)" width="107.017" height="36.267"/>
	</g>
	<g>
		<defs>
			<path id="SVGID_60_" d="M81.542,0.5c-3.036,0-5.497,2.462-5.497,5.498v25.273c0,3.034,2.461,5.495,5.497,5.495h96.024
				c3.035,0,5.497-2.461,5.497-5.495V5.998c0-3.036-2.462-5.498-5.497-5.498H81.542z"/>
		</defs>
		<clipPath id="SVGID_5_">
			<use xlink:href="#SVGID_60_"  overflow="visible"/>
		</clipPath>
		<g opacity="0.75" clip-path="url(#SVGID_5_)">
			<g>
				<defs>
					<rect id="SVGID_62_" x="96.423" y="-30.626" width="121.016" height="95.33"/>
				</defs>
				<clipPath id="SVGID_7_">
					<use xlink:href="#SVGID_62_"  overflow="visible"/>
				</clipPath>
				<g clip-path="url(#SVGID_7_)">
					<defs>
						<rect id="SVGID_64_" x="96.423" y="-30.625" width="121.016" height="95.329"/>
					</defs>
					<clipPath id="SVGID_9_">
						<use xlink:href="#SVGID_64_"  overflow="visible"/>
					</clipPath>
					<g opacity="0.3" clip-path="url(#SVGID_9_)">
						<g>
							<defs>
								<rect id="SVGID_66_" x="96.423" y="2.473" width="121.016" height="58.002"/>
							</defs>
							<clipPath id="SVGID_11_">
								<use xlink:href="#SVGID_66_"  overflow="visible"/>
							</clipPath>
							<g clip-path="url(#SVGID_11_)">
								<defs>
									<rect id="SVGID_68_" x="96.423" y="2.473" width="121.016" height="58.002"/>
								</defs>
								<clipPath id="SVGID_13_">
									<use xlink:href="#SVGID_68_"  overflow="visible"/>
								</clipPath>
								<path clip-path="url(#SVGID_13_)" fill="#5BC7D4" d="M96.882,50.143c0.075,0.383,0.449,0.633,0.832,0.556
									c0.077-0.016,0.148-0.044,0.214-0.081l5.467,7.644c-0.168,0.163-0.252,0.404-0.202,0.648
									c0.076,0.384,0.449,0.631,0.833,0.555c0.285-0.057,0.498-0.282,0.554-0.551l16.36,0.918c0.002,0.025,0.006,0.051,0.01,0.073
									c0.077,0.385,0.45,0.633,0.834,0.556c0.383-0.077,0.631-0.448,0.554-0.831c-0.01-0.05-0.023-0.095-0.042-0.138l7.772-4.747
									c0.161,0.191,0.419,0.292,0.681,0.24c0.384-0.077,0.632-0.45,0.557-0.833c-0.032-0.156-0.113-0.289-0.223-0.387l5.517-8.347
									c0.134,0.063,0.284,0.085,0.439,0.054c0.166-0.033,0.31-0.124,0.408-0.246l20.319,12.056
									c-0.052,0.125-0.067,0.265-0.04,0.407c0.078,0.383,0.449,0.631,0.834,0.555c0.384-0.076,0.632-0.449,0.554-0.832
									c-0.02-0.099-0.06-0.187-0.11-0.265l20.815-19.525c0.121,0.317,0.454,0.513,0.8,0.442c0.383-0.075,0.631-0.447,0.554-0.831
									c-0.004-0.021-0.008-0.043-0.014-0.064l9.511-4.463c0.153,0.232,0.438,0.36,0.727,0.302c0.35-0.068,0.586-0.385,0.568-0.729
									l13.035-2.608c0.117,0.326,0.456,0.524,0.804,0.456c0.207-0.042,0.373-0.17,0.473-0.339l9.766,3.911
									c-0.021,0.094-0.022,0.192-0.004,0.295c0.077,0.382,0.45,0.631,0.834,0.554c0.383-0.076,0.631-0.449,0.554-0.832
									c-0.069-0.351-0.388-0.587-0.734-0.566l-4.116-21.902c0.33-0.113,0.532-0.455,0.463-0.807
									c-0.077-0.384-0.448-0.633-0.832-0.557c-0.139,0.029-0.258,0.095-0.352,0.187l-8.471-6.544
									c0.081-0.142,0.111-0.312,0.077-0.484c-0.077-0.383-0.448-0.631-0.831-0.556c-0.384,0.077-0.632,0.451-0.557,0.834
									c0.024,0.112,0.071,0.211,0.136,0.295l-6.115,6.411c-0.152-0.107-0.348-0.156-0.546-0.116
									c-0.208,0.042-0.377,0.173-0.475,0.344L187.966,7.7c0.014-0.08,0.012-0.162-0.005-0.247
									c-0.077-0.383-0.448-0.632-0.833-0.554c-0.384,0.075-0.632,0.448-0.555,0.832v0.002l-0.027-0.103l-22.318,6.178
									c-0.131-0.298-0.454-0.474-0.784-0.407c-0.163,0.03-0.302,0.119-0.403,0.237l-8.246-5.085
									c0.056-0.128,0.073-0.272,0.044-0.418c-0.078-0.384-0.449-0.632-0.832-0.556c-0.384,0.077-0.632,0.449-0.556,0.834
									c0.027,0.135,0.093,0.252,0.181,0.346l-9.023,11.517c-0.143-0.083-0.313-0.114-0.488-0.08
									c-0.383,0.078-0.632,0.45-0.556,0.834c0.029,0.145,0.101,0.271,0.2,0.366l-5.237,7.271c-0.139-0.07-0.3-0.098-0.464-0.064
									c-0.384,0.076-0.632,0.448-0.555,0.832c0.004,0.026,0.013,0.054,0.021,0.079l-14.561,7.597
									c-0.16-0.21-0.429-0.322-0.702-0.267c-0.205,0.04-0.367,0.165-0.467,0.329l-10.49-4.134c0.024-0.099,0.03-0.204,0.008-0.312
									c-0.077-0.383-0.448-0.631-0.831-0.555c-0.374,0.074-0.618,0.428-0.561,0.801L97.698,38.11
									c-0.157-0.214-0.429-0.329-0.707-0.272c-0.383,0.076-0.632,0.448-0.554,0.832c0.056,0.282,0.274,0.494,0.541,0.552
									l0.449,10.091C97.049,49.393,96.806,49.763,96.882,50.143 M97.823,38.392c-0.006-0.033-0.017-0.065-0.026-0.098l11.04-4.639
									l1.149-0.482c0.019,0.038,0.04,0.074,0.063,0.107l-8,10.549l-4.394-4.825C97.799,38.843,97.87,38.62,97.823,38.392
									 M163.72,14.788c0.093-0.019,0.177-0.053,0.25-0.103l6.726,7.57l-7.188-6.132l0.117-1.324
									C163.656,14.798,163.689,14.795,163.72,14.788 M187.751,8.107l4.934,4.486l-4.157,3.07c-0.119-0.119-0.28-0.194-0.453-0.204
									l-0.587-7.194C187.588,8.231,187.678,8.178,187.751,8.107 M202.904,3.874c0.139-0.028,0.258-0.095,0.352-0.184l8.471,6.543
									c-0.041,0.074-0.069,0.155-0.083,0.242l-9.881,0.015l1.001-6.604C202.812,3.888,202.858,3.883,202.904,3.874
									 M122.014,59.164c-0.147-0.089-0.326-0.127-0.509-0.091c-0.158,0.031-0.294,0.114-0.393,0.227l-11.428-7.348
									c0.017-0.034,0.028-0.067,0.038-0.103l16.704,2.036L122.014,59.164z M110.357,33.521l-1.365,17.435
									c-0.03,0.002-0.06,0.005-0.09,0.011c-0.093,0.019-0.181,0.057-0.256,0.106l-6.456-7.087l8.007-10.556
									C110.247,33.467,110.301,33.499,110.357,33.521 M108.545,52.166l-1.192,1.646l-8.949-3.657l9.93,1.504
									c0,0.047,0.004,0.093,0.014,0.14C108.377,51.945,108.448,52.071,108.545,52.166 M108.714,52.287
									c0.14,0.072,0.302,0.101,0.467,0.067c0.159-0.032,0.294-0.114,0.393-0.228l11.064,7.115l-13.087-5.349L108.714,52.287z
									 M110.64,51.75l9.599-0.082l7.628-0.067c0.002,0.01,0.002,0.019,0.004,0.028c0.025,0.128,0.085,0.241,0.164,0.331
									l-1.449,1.735L110.64,51.75z M128.195,52.094c0.146,0.089,0.325,0.127,0.506,0.09c0.07-0.015,0.134-0.036,0.191-0.068
									l1.221,1.671c-0.088,0.086-0.151,0.195-0.185,0.315l-3.098-0.378L128.195,52.094z M130.473,53.596
									c-0.069,0.014-0.131,0.037-0.19,0.068l-1.224-1.671c0.165-0.161,0.248-0.399,0.199-0.643
									c-0.017-0.079-0.046-0.152-0.084-0.218l7.244-5.835c0.004,0.002,0.006,0.004,0.008,0.006l-5.517,8.346
									C130.778,53.589,130.625,53.566,130.473,53.596 M144.911,21.159l6.462,1.59l-1.705,9.257
									c-0.054-0.002-0.109,0.001-0.165,0.013c-0.018,0.003-0.035,0.008-0.056,0.015l-4.804-10.549
									C144.765,21.405,144.857,21.292,144.911,21.159 M212.011,11.202l-4.957,13.994l-6.152-5.426
									c0.095-0.149,0.137-0.335,0.1-0.523c-0.013-0.067-0.036-0.132-0.068-0.189l10.907-7.982
									C211.89,11.126,211.949,11.17,212.011,11.202 M216.116,33.504l-9.766-3.909c0.024-0.096,0.028-0.198,0.008-0.302
									c-0.043-0.216-0.183-0.39-0.363-0.485l1.151-3.252l8.985,7.924C216.128,33.487,216.122,33.496,216.116,33.504
									 M197.669,23.288L199.956,20c0.146,0.081,0.315,0.114,0.49,0.079c0.034-0.007,0.065-0.016,0.098-0.027l4.699,8.812
									c-0.028,0.02-0.052,0.042-0.075,0.064L197.669,23.288z M191.572,31.681c-0.106-0.054-0.226-0.081-0.35-0.074l-2.955-14.777
									c0.099-0.035,0.187-0.092,0.256-0.162l8.86,6.665L191.572,31.681z M180.022,36.831c-0.026,0.021-0.048,0.046-0.071,0.069
									l-11.614-7.609l3.2-5.313c0.117,0.041,0.244,0.053,0.373,0.028c0.042-0.011,0.084-0.022,0.123-0.038l6.323,10.183
									L180.022,36.831z M137.479,44.372l8.35-7.904l8.747,8.006c-0.058,0.086-0.095,0.184-0.111,0.288l-16.866-0.085
									c-0.002-0.012-0.004-0.023-0.004-0.038C137.571,44.541,137.532,44.45,137.479,44.372 M171.135,23.618
									c0.051,0.105,0.127,0.195,0.218,0.263l-3.19,5.297l-5.05-3.312c0.127-0.142,0.194-0.333,0.175-0.532L171.135,23.618z
									 M205.525,28.738c-0.034,0.006-0.066,0.016-0.098,0.027l-4.695-8.814c0.01-0.008,0.02-0.016,0.032-0.023l6.216,5.48
									l-1.182,3.329C205.712,28.72,205.618,28.719,205.525,28.738 M155.024,44.176c-0.021,0.004-0.038,0.01-0.056,0.015
									l-4.83-10.637l-0.111-0.247c0.145-0.096,0.252-0.24,0.298-0.408l8.729,1.05l-3.748,10.229
									C155.215,44.157,155.121,44.155,155.024,44.176 M150.349,32.691c0-0.038-0.004-0.078-0.012-0.117
									c-0.008-0.042-0.021-0.082-0.036-0.12l2.81-1.615l8.856-5.092c0.018,0.032,0.037,0.061,0.062,0.091l-2.9,7.911
									L150.349,32.691z M162.19,25.989c0.054,0.035,0.109,0.062,0.169,0.082l1.332,4.401l1.051,3.467
									c-0.185,0.087-0.32,0.247-0.378,0.438l-5.024-0.604L162.19,25.989z M165.306,33.922c-0.113-0.045-0.238-0.061-0.363-0.043
									l-1.054-3.482l-1.299-4.29c0.042,0,0.087-0.004,0.131-0.013c0.082-0.017,0.157-0.047,0.225-0.087l5.11,3.349L165.306,33.922
									z M149.781,33.405c0.02-0.003,0.037-0.009,0.058-0.014l4.939,10.884c-0.022,0.015-0.042,0.028-0.062,0.045l-8.737-7.995
									l3.228-3.058C149.364,33.392,149.57,33.447,149.781,33.405 M155.501,44.248l3.766-10.273l5.068,0.61
									c0,0.044,0.006,0.088,0.014,0.133c0.022,0.107,0.067,0.202,0.127,0.284l-8.903,9.291
									C155.548,44.277,155.526,44.262,155.501,44.248 M165.484,34.027l2.745-4.558l11.608,7.605
									c-0.01,0.021-0.02,0.045-0.028,0.068l-14.06-2.555c0-0.05-0.004-0.1-0.014-0.149
									C165.703,34.271,165.609,34.127,165.484,34.027 M188.65,16.501c0.01-0.02,0.02-0.039,0.027-0.06l10.925,2.868
									c-0.006,0.069-0.004,0.142,0.011,0.214c0.027,0.137,0.091,0.255,0.181,0.348l-2.291,3.291L188.65,16.501z M171.075,23.419
									l-7.838,1.712c-0.088-0.212-0.272-0.367-0.49-0.419l0.738-8.333l7.687,6.558C171.085,23.074,171.047,23.244,171.075,23.419
									 M162.54,24.693c-0.031,0.003-0.065,0.005-0.097,0.013c-0.026,0.004-0.052,0.012-0.076,0.02l-7.819-15.871
									c0.021-0.015,0.041-0.029,0.062-0.048l8.682,7.405L162.54,24.693z M161.891,25.551l-11.694,6.724
									c-0.084-0.106-0.197-0.188-0.324-0.23l1.703-9.247l10.304,2.537c-0.008,0.065-0.004,0.135,0.01,0.204
									C161.889,25.541,161.891,25.547,161.891,25.551 M149.064,33.117l-3.24,3.065l-7.06-6.461
									c0.026-0.032,0.048-0.069,0.067-0.107l10.111,2.999c-0.012,0.076-0.01,0.156,0.006,0.237
									C148.969,32.95,149.009,33.039,149.064,33.117 M138.34,29.99c0.104-0.021,0.196-0.063,0.276-0.121l7.058,6.457l-8.338,7.896
									c-0.082-0.065-0.175-0.109-0.276-0.133l1.142-14.086C138.249,30.003,138.294,29.998,138.34,29.99 M137.598,44.887
									l16.864,0.083c0.002,0.013,0.004,0.024,0.006,0.039c0.074,0.361,0.407,0.603,0.767,0.564l2.91,11.324
									c-0.106,0.045-0.2,0.118-0.273,0.205l-20.319-12.057C137.573,44.994,137.588,44.94,137.598,44.887 M158.348,56.846
									l-2.911-11.324c0.292-0.123,0.473-0.431,0.426-0.752l6.714-2.007l-4.063,14.085
									C158.459,56.841,158.403,56.841,158.348,56.846 M155.803,44.569c-0.022-0.049-0.05-0.092-0.082-0.133l8.904-9.289
									c0.037,0.029,0.079,0.054,0.125,0.074l-2.106,7.304L155.803,44.569z M164.948,35.278c0.075,0.012,0.155,0.009,0.232-0.006
									c0.262-0.053,0.461-0.243,0.538-0.48l14.054,2.556c0,0.02,0,0.038,0,0.058l-16.891,5.049L164.948,35.278z M180.342,36.678
									c-0.052,0.009-0.099,0.024-0.143,0.043l-6.786-10.923l-1.201-1.935c0.048-0.037,0.088-0.079,0.124-0.126l11.075,5.086
									l-2.795,7.853C180.528,36.658,180.434,36.658,180.342,36.678 M172.435,23.554c0.044-0.115,0.056-0.243,0.032-0.373
									l14.965-6.639c0.065,0.105,0.156,0.189,0.264,0.247l-4.213,11.838L172.435,23.554z M187.89,16.858
									c0.056,0.01,0.113,0.015,0.173,0.012l2.956,14.778c-0.148,0.053-0.271,0.153-0.354,0.279l-6.994-3.213L187.89,16.858z
									 M191.743,31.8l5.807-8.343l7.493,5.637c-0.063,0.112-0.092,0.24-0.084,0.373l-13.037,2.607
									C191.884,31.967,191.822,31.874,191.743,31.8 M216.268,33.32l-9.045-7.975l4.984-14.072
									c0.054,0.009,0.107,0.013,0.163,0.011l4.115,21.905C216.404,33.221,216.331,33.266,216.268,33.32 M211.646,10.684
									c0,0.012,0.002,0.022,0.004,0.033c0.014,0.068,0.036,0.132,0.067,0.19l-10.907,7.981c-0.081-0.082-0.183-0.144-0.294-0.178
									l1.216-8.014L211.646,10.684z M200.31,18.679c-0.046-0.001-0.093,0.005-0.141,0.013c-0.004,0.001-0.01,0.004-0.017,0.005
									l-4.073-7.504c0.165-0.111,0.278-0.289,0.306-0.486l5.136-0.007L200.31,18.679z M195.825,11.297
									c0.021-0.004,0.043-0.011,0.065-0.016l4.067,7.49c-0.035,0.021-0.067,0.042-0.097,0.067l-6.85-6.227l2.122-1.567
									C195.295,11.244,195.557,11.351,195.825,11.297 M199.72,18.991c-0.018,0.027-0.033,0.055-0.047,0.083l-10.943-2.836
									c0.008-0.068,0.006-0.142-0.008-0.213c-0.014-0.069-0.038-0.134-0.069-0.193l4.188-3.095L199.72,18.991z M186.88,8.184
									c0.114,0.076,0.256,0.119,0.4,0.115l0.586,7.177c-0.369,0.086-0.607,0.451-0.532,0.827c0.004,0.017,0.008,0.032,0.012,0.05
									l-3.931,1.744l-11.016,4.887c-0.013-0.02-0.022-0.038-0.032-0.058L186.88,8.184z M163.416,14.782l-0.104,1.176l-8.072-6.887
									l7.691,4.745c-0.054,0.127-0.072,0.271-0.044,0.417C162.943,14.513,163.157,14.719,163.416,14.782 M154.283,8.968
									c0.026-0.006,0.052-0.013,0.078-0.02l7.817,15.87c-0.111,0.077-0.198,0.188-0.25,0.313l-10.315-2.537l2.508-13.612
									C154.173,8.982,154.228,8.979,154.283,8.968 M153.916,8.942l-2.505,13.601l-6.448-1.586
									c0.006-0.067,0.002-0.136-0.012-0.204c-0.026-0.138-0.092-0.256-0.181-0.348l9.024-11.518
									C153.833,8.91,153.873,8.929,153.916,8.942 M144.395,21.584c0.021-0.004,0.04-0.009,0.058-0.014l4.805,10.548
									c-0.111,0.072-0.198,0.177-0.254,0.296l-10.105-2.997c0.015-0.083,0.015-0.171-0.002-0.259
									c-0.029-0.148-0.101-0.273-0.2-0.369l5.237-7.271C144.071,21.589,144.232,21.617,144.395,21.584 M137.98,29.968
									c0.004,0.002,0.01,0.003,0.016,0.005l-1.146,14.101c-0.029,0.002-0.062,0.005-0.091,0.012
									c-0.187,0.037-0.34,0.145-0.44,0.287l-3.753-1.878L137.98,29.968z M136.228,44.558c-0.037,0.112-0.048,0.235-0.023,0.359
									c0.016,0.079,0.046,0.152,0.083,0.22l-7.244,5.834c-0.031-0.03-0.069-0.059-0.105-0.08l3.546-8.206L136.228,44.558z
									 M128.745,50.808c-0.102-0.027-0.21-0.033-0.321-0.012c-0.016,0.005-0.032,0.008-0.046,0.014l-4.396-9.961l-1.197-2.715
									c0.082-0.053,0.151-0.121,0.205-0.2l9.309,4.658L128.745,50.808z M122.543,38.231c0.019-0.005,0.034-0.009,0.052-0.013
									l1.172,2.655l4.421,10.019c-0.014,0.007-0.023,0.015-0.036,0.021l-9.239-9.548l3.077-3.256
									C122.143,38.222,122.341,38.271,122.543,38.231 M128.003,51.06c-0.073,0.096-0.123,0.209-0.139,0.332l-5.789,0.052
									l-12.337,0.107c-0.002-0.01-0.002-0.019-0.004-0.028c-0.021-0.112-0.071-0.214-0.137-0.298l9.172-9.707L128.003,51.06z
									 M109.444,51.08c-0.073-0.052-0.154-0.088-0.244-0.108l1.362-17.4c0.065,0.005,0.133,0.003,0.2-0.011
									c0.082-0.017,0.155-0.047,0.225-0.088l7.637,7.895L109.444,51.08z M108.492,51.214c-0.056,0.069-0.102,0.151-0.128,0.238
									l-10.087-1.526c-0.003-0.02-0.006-0.04-0.009-0.061c-0.032-0.161-0.118-0.3-0.235-0.398l4.03-5.313L108.492,51.214z
									 M98.091,50.487c0.05-0.055,0.094-0.117,0.124-0.185l9.013,3.683l-3.015,4.157c-0.139-0.071-0.301-0.099-0.466-0.066
									c-0.065,0.014-0.127,0.036-0.183,0.063L98.091,50.487z M104.59,58.705c-0.001-0.024-0.005-0.049-0.011-0.073
									c-0.029-0.146-0.1-0.271-0.199-0.367l3.044-4.196l13.535,5.529c-0.004,0.009-0.006,0.018-0.008,0.026L104.59,58.705z
									 M122.186,59.313c-0.004-0.005-0.008-0.012-0.014-0.018l4.501-5.381l3.231,0.395c0,0.039,0.004,0.079,0.013,0.119
									c0.008,0.048,0.023,0.094,0.041,0.139L122.186,59.313z M158.859,56.995c-0.046-0.035-0.093-0.065-0.145-0.088l4.098-14.216
									l16.58-4.956L158.859,56.995z M181.068,36.979c-0.065-0.099-0.154-0.179-0.256-0.232l2.787-7.837l6.979,3.206
									c-0.03,0.105-0.038,0.221-0.014,0.335c0.004,0.022,0.01,0.044,0.016,0.065L181.068,36.979z M202.358,3.757
									c0.062,0.044,0.129,0.076,0.2,0.1l-1.006,6.634l-5.168,0.008c-0.002-0.012-0.002-0.022-0.004-0.034
									c-0.023-0.111-0.071-0.211-0.137-0.296L202.358,3.757z M194.997,10.447c-0.021,0.093-0.025,0.193-0.006,0.295
									c0.01,0.042,0.021,0.082,0.038,0.121l-2.174,1.604l-4.976-4.524c0.008-0.015,0.016-0.029,0.024-0.044L194.997,10.447z
									 M186.598,7.819c0.029,0.085,0.071,0.161,0.125,0.226L172.227,22.77c-0.157-0.133-0.373-0.196-0.594-0.152
									c-0.092,0.019-0.175,0.054-0.248,0.102l-7.261-8.171c0.123-0.146,0.183-0.34,0.159-0.54l22.318-6.175L186.598,7.819z
									 M137.621,29.7c0.048,0.068,0.107,0.126,0.175,0.175L132.38,42.4l-9.301-4.654c0.034-0.109,0.042-0.228,0.021-0.349
									c-0.011-0.036-0.021-0.071-0.032-0.104L137.621,29.7z M121.718,37.365c-0.024,0.099-0.028,0.204-0.008,0.311
									c0.023,0.109,0.067,0.205,0.131,0.289l-3.073,3.252l-7.619-7.877c0.029-0.032,0.058-0.07,0.081-0.109L121.718,37.365z
									 M97.27,39.225c0.081-0.019,0.156-0.047,0.224-0.089l4.428,4.862l-4.064,5.358c-0.069-0.031-0.145-0.05-0.222-0.056
									l-0.447-10.065C97.215,39.233,97.241,39.229,97.27,39.225"/>
							</g>
						</g>
					</g>
					<g opacity="0.1" clip-path="url(#SVGID_9_)">
						<g>
							<defs>
								<rect id="SVGID_70_" x="108.896" y="-10.998" width="85.424" height="55.37"/>
							</defs>
							<clipPath id="SVGID_15_">
								<use xlink:href="#SVGID_70_"  overflow="visible"/>
							</clipPath>
							<g clip-path="url(#SVGID_15_)">
								<defs>
									<rect id="SVGID_72_" x="108.896" y="-10.998" width="85.424" height="55.37"/>
								</defs>
								<clipPath id="SVGID_17_">
									<use xlink:href="#SVGID_72_"  overflow="visible"/>
								</clipPath>
								<path clip-path="url(#SVGID_17_)" fill="#5BC7D4" d="M192.948-4.226l-4.552-5.93c0.123-0.159,0.146-0.383,0.043-0.57
									c-0.139-0.252-0.458-0.347-0.71-0.206c-0.185,0.101-0.284,0.294-0.271,0.492l-9.37,2.915
									c-0.146-0.239-0.453-0.323-0.699-0.188c-0.254,0.139-0.347,0.457-0.208,0.711c0.041,0.071,0.093,0.129,0.154,0.173
									l-3.972,7.338c-0.134-0.046-0.286-0.038-0.421,0.035c-0.183,0.101-0.28,0.292-0.271,0.486l-11.866,2.633
									c-0.008-0.018-0.016-0.036-0.025-0.054c-0.139-0.254-0.457-0.346-0.711-0.207c-0.107,0.06-0.187,0.152-0.23,0.258
									l-6.43-1.622c0.012-0.102-0.008-0.208-0.062-0.305c-0.139-0.254-0.457-0.345-0.711-0.206
									c-0.115,0.063-0.196,0.163-0.238,0.277l-10.595-2.223c0.006-0.097-0.015-0.194-0.063-0.283
									c-0.14-0.254-0.457-0.347-0.711-0.207c-0.254,0.139-0.348,0.457-0.207,0.71c0.052,0.097,0.131,0.171,0.223,0.216
									l-2.247,6.809c-0.113-0.019-0.232-0.002-0.342,0.058c-0.219,0.119-0.317,0.374-0.25,0.604l-15.58,7.133l0.031,0.07V14.69
									c-0.139-0.253-0.458-0.347-0.71-0.207c-0.255,0.139-0.346,0.457-0.209,0.712c0.032,0.055,0.071,0.102,0.115,0.142
									l-2.81,4.829c-0.135-0.05-0.293-0.044-0.431,0.032c-0.131,0.072-0.22,0.191-0.254,0.326l-6.518-0.718
									c-0.004-0.078-0.023-0.159-0.063-0.232c-0.139-0.253-0.459-0.347-0.711-0.207c-0.254,0.14-0.345,0.457-0.208,0.711
									c0.063,0.114,0.162,0.195,0.273,0.236l-1.677,7.742c-0.098-0.008-0.197,0.012-0.288,0.063
									c-0.252,0.139-0.346,0.457-0.207,0.71c0.127,0.232,0.405,0.33,0.646,0.236l8.102,14.363
									c-0.204,0.154-0.271,0.44-0.145,0.673c0.139,0.252,0.456,0.345,0.711,0.206c0.252-0.139,0.345-0.458,0.206-0.711
									c-0.038-0.066-0.085-0.121-0.143-0.165l3.669-6.866c0.137,0.048,0.291,0.041,0.429-0.033
									c0.229-0.127,0.327-0.402,0.24-0.642l8.621-4.731c0.155,0.202,0.439,0.269,0.67,0.143c0.19-0.105,0.289-0.314,0.268-0.519
									l7.512-2.003c0.007,0.015,0.015,0.029,0.022,0.043c0.139,0.255,0.456,0.348,0.711,0.208
									c0.226-0.124,0.325-0.395,0.242-0.633l21.087,1.143c0.006,0.068,0.028,0.139,0.063,0.204
									c0.139,0.252,0.457,0.345,0.711,0.205c0.252-0.138,0.346-0.457,0.206-0.711c-0.052-0.094-0.127-0.164-0.216-0.211
									l5.763-16.507c0.115,0.023,0.24,0.007,0.352-0.055c0.102-0.057,0.177-0.141,0.223-0.238l7.099,2.098
									c-0.016,0.108,0.002,0.222,0.06,0.325c0.14,0.254,0.457,0.346,0.711,0.207c0.173-0.096,0.272-0.276,0.272-0.461l6.66-1.013
									c0.012,0.032,0.025,0.065,0.042,0.096c0.139,0.255,0.458,0.347,0.711,0.208c0.256-0.14,0.347-0.457,0.208-0.711
									c-0.01-0.018-0.02-0.032-0.027-0.047l8.826-8.313c0.158,0.126,0.385,0.153,0.575,0.049c0.255-0.14,0.348-0.458,0.207-0.713
									c-0.088-0.16-0.25-0.258-0.423-0.269l-0.544-6.934c0.054-0.009,0.109-0.027,0.158-0.057c0.255-0.139,0.346-0.458,0.207-0.71
									C193.516-4.267,193.2-4.36,192.948-4.226 M187.91-9.955l-0.191,4.826l-9.557-2.163c0-0.03-0.006-0.061-0.014-0.092
									l0.879-0.273l8.464-2.632c0.01,0.022,0.018,0.046,0.029,0.067C187.604-10.071,187.751-9.978,187.91-9.955 M139.021,7.761
									l0.697,0.694l-1.149,6.896l0.204-7.49c0.063-0.008,0.127-0.027,0.188-0.061C138.983,7.79,139.003,7.776,139.021,7.761
									 M122.395,15.427l3.095,4.354c-0.093,0.088-0.148,0.209-0.158,0.333l-3.816,0.241l0.655-4.891
									C122.245,15.469,122.323,15.457,122.395,15.427 M111.658,20.227l3.713,3.261l-5.603,4.699
									c-0.048-0.043-0.104-0.075-0.163-0.099l1.68-7.739c0.097,0.007,0.196-0.014,0.288-0.063
									C111.603,20.269,111.633,20.247,111.658,20.227 M178.704,12.176l8.491-9.108c0.021,0.015,0.043,0.028,0.067,0.04
									l-2.968,9.604c-0.111-0.017-0.229,0-0.332,0.058c-0.121,0.066-0.202,0.173-0.244,0.294L178.704,12.176z M178.15-7.138
									l9.563,2.164l-0.279,7.09c-0.067,0.007-0.133,0.026-0.195,0.062c-0.02,0.011-0.039,0.022-0.055,0.036l-9.079-9.222
									C178.124-7.049,178.143-7.093,178.15-7.138 M187.949,2.384c-0.016-0.03-0.037-0.06-0.06-0.086l4.908-5.581l-3.326,6.333
									l-1.461-0.363C188.021,2.586,188.001,2.479,187.949,2.384 M189.398,3.191l-4.863,9.263l2.876-9.301
									c0.109,0.017,0.227,0,0.332-0.059c0.107-0.06,0.188-0.152,0.23-0.259L189.398,3.191z M178.523,12.145l-1.647-0.292
									c0.002-0.089-0.019-0.182-0.063-0.266c-0.004-0.006-0.008-0.012-0.012-0.02l4.352-3.594l5.475-4.524L178.523,12.145z
									 M178.398,12.277l-1.574,1.691c-0.075-0.053-0.163-0.084-0.254-0.091l-0.105-1.528c0.048-0.01,0.096-0.027,0.141-0.053
									c0.119-0.066,0.203-0.171,0.244-0.292L178.398,12.277z M176.054,14.18l-7.102-2.1c0.002-0.002,0.002-0.004,0.002-0.006
									l6.884-0.147c0.01,0.055,0.027,0.111,0.057,0.164c0.088,0.16,0.247,0.256,0.417,0.271l0.104,1.526
									c-0.048,0.011-0.093,0.027-0.139,0.052C176.175,13.996,176.1,14.081,176.054,14.18 M152.955,2.505l2.304,8.263
									c-0.015,0.006-0.026,0.012-0.038,0.019c-0.038,0.021-0.069,0.044-0.1,0.07l-5.374-4.43l2.9-3.977
									C152.741,2.498,152.849,2.518,152.955,2.505 M109.943,28.619l9.978-0.675c0.012,0.048,0.027,0.095,0.052,0.14
									c0.069,0.125,0.181,0.21,0.308,0.25l-0.901,6.003l-9.474-5.563C109.925,28.725,109.939,28.673,109.943,28.619
									 M118.184,43.352l1.314-8.767l2.199,1.291c-0.056,0.143-0.051,0.306,0.028,0.449c0.037,0.068,0.087,0.124,0.146,0.167
									l-3.669,6.865C118.197,43.354,118.191,43.353,118.184,43.352 M122.226,35.551c-0.025-0.002-0.05-0.002-0.073,0l-1.537-7.229
									c0.024-0.009,0.046-0.018,0.068-0.03c0.117-0.064,0.198-0.164,0.24-0.278l2.862,0.771L122.226,35.551z M123.969,28.675
									l1.843-7.995c0.073,0.007,0.148-0.004,0.222-0.03l5.366,9.776c-0.075,0.057-0.129,0.127-0.165,0.207L123.969,28.675z
									 M139.896,25.737l-1.269-8.778c0.027-0.01,0.058-0.022,0.085-0.037c0.086-0.048,0.151-0.114,0.199-0.193l4.344,1.485
									l-2.952,9.842c-0.026-0.004-0.048-0.007-0.074-0.007L139.896,25.737z M167.978,12.26c0.004,0.009,0.008,0.016,0.015,0.024
									l-9.512,8.081c-0.058-0.051-0.127-0.089-0.2-0.109l1.142-8.701l8.494,0.499C167.92,12.126,167.94,12.194,167.978,12.26
									 M144.23,13.566c0.085,0.122,0.212,0.198,0.354,0.219l-1.285,4.281l-4.329-1.479c0.02-0.083,0.02-0.169-0.002-0.255
									L144.23,13.566z M121.777,35.744l-2.256-1.324l0.909-6.063c0.011,0,0.021-0.001,0.03-0.002l1.54,7.228
									c-0.023,0.01-0.047,0.02-0.069,0.031C121.87,35.647,121.818,35.692,121.777,35.744 M157.726,20.435l-6.996-4.006
									l4.445-4.754c0.105,0.072,0.234,0.105,0.361,0.09l0.056,0.193l2.331,8.324c-0.013,0.006-0.026,0.011-0.038,0.019
									C157.821,20.335,157.768,20.382,157.726,20.435 M150.595,16.351l-5.411-3.1c0-0.027-0.005-0.053-0.009-0.079l7.441-1.336
									l2.36-0.424c0.008,0.029,0.02,0.059,0.035,0.085c0.017,0.027,0.032,0.051,0.05,0.074L150.595,16.351z M150.485,16.466
									l-2.557,2.735c-0.125-0.08-0.278-0.108-0.423-0.069l-1.058-2.462l-1.343-3.127c0.026-0.04,0.044-0.083,0.058-0.126
									L150.485,16.466z M143.444,18.116l1.3-4.333c0.058-0.008,0.113-0.027,0.169-0.056c0.03-0.017,0.056-0.035,0.081-0.057
									l1.309,3.049l1.061,2.474c-0.08,0.051-0.144,0.119-0.185,0.197L143.444,18.116z M155.983,11.354l3.283,0.192l-1.14,8.69
									c-0.018,0-0.038,0.001-0.056,0.004l-2.386-8.517c0.012-0.007,0.025-0.012,0.037-0.019
									C155.862,11.627,155.953,11.497,155.983,11.354 M157.631,20.628l-9.47-1.02c-0.002-0.076-0.023-0.152-0.062-0.222
									c-0.018-0.031-0.036-0.057-0.058-0.082l2.581-2.761l7.027,4.025C157.641,20.587,157.635,20.606,157.631,20.628
									 M147.181,19.89c0.02,0.033,0.039,0.063,0.062,0.09l-6.744,8.146c-0.016-0.009-0.032-0.02-0.048-0.026l2.95-9.837
									l3.727,1.273C147.103,19.651,147.119,19.777,147.181,19.89 M123.82,28.635l-2.865-0.772
									c0.004-0.095-0.014-0.191-0.063-0.281c-0.025-0.049-0.06-0.091-0.098-0.126l4.822-6.829c0.017,0.007,0.03,0.014,0.044,0.02
									L123.82,28.635z M138.622,15.965l1.23-7.376l4.388,4.369c-0.1,0.134-0.129,0.309-0.077,0.47l-5.255,2.763
									C138.84,16.079,138.737,16.003,138.622,15.965 M139.885,8.401l1.388-8.328c0.02,0.001,0.039,0,0.06-0.002l3.131,12.712
									c-0.021,0.009-0.036,0.017-0.054,0.026c-0.022,0.012-0.042,0.023-0.062,0.04L139.885,8.401z M145.119,13.017
									c-0.025-0.046-0.055-0.086-0.091-0.121l4.628-6.345l5.368,4.426c-0.054,0.084-0.08,0.185-0.076,0.284l-9.824,1.765
									C145.122,13.022,145.119,13.019,145.119,13.017 M155.93,10.993c-0.028-0.054-0.065-0.1-0.109-0.138l4.298-6.513
									c0.028,0.012,0.058,0.021,0.09,0.028l-0.922,7.022l-3.293-0.194C155.987,11.128,155.965,11.059,155.93,10.993 M160.66,4.263
									l7.357,7.431c-0.046,0.063-0.079,0.135-0.094,0.209l-8.482-0.5l0.919-7.02c0.073-0.005,0.147-0.025,0.215-0.063
									C160.606,4.303,160.635,4.283,160.66,4.263 M168.192,12.471l-5.764,16.507c-0.081-0.015-0.168-0.012-0.252,0.014
									l-3.746-7.798c0.221-0.15,0.296-0.446,0.165-0.686c-0.004-0.01-0.01-0.018-0.014-0.024l9.509-8.081
									C168.123,12.43,168.156,12.452,168.192,12.471 M161.944,29.14l-9.009-6.043l4.757-2.062c0.127,0.205,0.375,0.294,0.6,0.225
									l3.746,7.798C162.002,29.082,161.973,29.109,161.944,29.14 M152.782,22.995l-4.671-3.133
									c0.016-0.033,0.028-0.066,0.036-0.103l9.468,1.021c0,0.038,0.006,0.075,0.016,0.113L152.782,22.995z M152.616,23.067
									l-11.974,5.188c-0.008-0.012-0.016-0.022-0.025-0.033l6.742-8.143c0.156,0.099,0.359,0.112,0.531,0.018
									c0.054-0.028,0.098-0.066,0.136-0.107L152.616,23.067z M139.819,28.245l-5.323-3.116l3.85-8.156
									c0.042,0.009,0.086,0.014,0.129,0.013l0.24,1.666l1.362,9.419c-0.034,0.011-0.069,0.024-0.102,0.044
									C139.914,28.146,139.86,28.192,139.819,28.245 M134.363,25.05l-8.026-4.696c0.034-0.083,0.046-0.175,0.034-0.265
									l11.634-3.369c0.049,0.085,0.117,0.151,0.196,0.196L134.363,25.05z M134.296,25.189l-2.43,5.153
									c-0.105-0.034-0.223-0.031-0.332,0.01l-5.366-9.777c0.034-0.026,0.066-0.057,0.092-0.089L134.296,25.189z M131.223,31.023
									l-8.622,4.733c-0.06-0.08-0.139-0.137-0.226-0.172l1.558-6.762l7.263,1.959C131.186,30.862,131.195,30.945,131.223,31.023
									 M117.847,43.355l-8.104-14.366c0.032-0.023,0.062-0.053,0.086-0.083l9.527,5.594l-1.324,8.825
									C117.97,43.324,117.906,43.334,117.847,43.355 M115.487,23.591l4.505,3.958c-0.048,0.072-0.073,0.156-0.081,0.241
									l-9.98,0.676c-0.01-0.047-0.025-0.096-0.051-0.141c-0.005-0.007-0.009-0.014-0.015-0.021L115.487,23.591z M115.606,23.49
									l2.913-2.441c0.109,0.098,0.258,0.145,0.404,0.129l1.267,6.191c-0.004,0.002-0.008,0.002-0.01,0.004
									c-0.031,0.019-0.06,0.038-0.087,0.06L115.606,23.49z M119.389,20.645l1.947-0.123l-0.911,6.787
									c-0.029,0-0.06,0.004-0.087,0.009l-1.265-6.18c0.014-0.007,0.029-0.014,0.044-0.021
									C119.296,21.02,119.393,20.833,119.389,20.645 M121.493,20.511l3.848-0.243c0.01,0.049,0.027,0.096,0.052,0.143
									c0.025,0.048,0.06,0.09,0.097,0.125l-4.848,6.818c-0.02-0.008-0.042-0.017-0.063-0.024L121.493,20.511z M137.943,16.528
									c0.002,0.015,0.004,0.03,0.008,0.047l-8.566,2.479l-3.058,0.886c-0.006-0.011-0.01-0.023-0.016-0.034
									c-0.137-0.249-0.447-0.342-0.697-0.214l-3.085-4.344c0.084-0.067,0.141-0.158,0.171-0.257L137.943,16.528z M139.168,7.089
									c-0.054-0.094-0.131-0.169-0.223-0.214l2.097-6.352L139.75,8.27l-0.62-0.617C139.247,7.494,139.27,7.274,139.168,7.089
									 M141.632-0.06l7.903,6.514l-4.632,6.351c-0.09-0.048-0.19-0.067-0.292-0.058L141.48,0.035
									c0.018-0.008,0.036-0.016,0.054-0.025C141.57-0.01,141.602-0.035,141.632-0.06 M141.772-0.268l10.596,2.223
									c-0.006,0.096,0.014,0.191,0.063,0.283c0.023,0.046,0.056,0.085,0.091,0.12l-2.896,3.972l-7.896-6.51
									C141.747-0.207,141.761-0.237,141.772-0.268 M153.372,2.188l6.431,1.622c-0.01,0.102,0.008,0.207,0.063,0.305
									c0.029,0.058,0.073,0.107,0.121,0.146l-4.294,6.511c-0.09-0.041-0.188-0.058-0.286-0.045l-2.303-8.262
									c0.012-0.008,0.025-0.014,0.037-0.021C153.251,2.385,153.329,2.293,153.372,2.188 M169.801,8.651l-1.231,2.851
									c-0.125-0.032-0.262-0.02-0.385,0.047c-0.021,0.011-0.04,0.023-0.058,0.037l-7.365-7.439
									c0.004-0.004,0.004-0.007,0.006-0.011L169.801,8.651z M169.939,8.72l5.918,2.957c-0.012,0.031-0.02,0.063-0.024,0.097
									l-6.881,0.146c-0.01-0.057-0.027-0.111-0.058-0.163c-0.045-0.084-0.108-0.147-0.183-0.194L169.939,8.72z M170.001,8.578
									l3.051-7.071c0.07,0.019,0.142,0.024,0.213,0.016l0.613,2.106l2.255,7.734c-0.01,0.006-0.02,0.01-0.031,0.016
									c-0.073,0.04-0.133,0.096-0.177,0.159L170.001,8.578z M173.703,1.13l3.294,0.379l-0.686,9.808
									c-0.01,0-0.02,0.002-0.029,0.004l-2.27-7.779l-0.602-2.063c0.013-0.005,0.024-0.01,0.036-0.016
									C173.58,1.39,173.668,1.267,173.703,1.13 M177.149,1.525l9.817,1.129c0.004,0.079,0.023,0.159,0.063,0.234
									c0.004,0.007,0.008,0.012,0.012,0.018l-7.035,5.813l-3.304,2.729c-0.067-0.061-0.151-0.101-0.238-0.121L177.149,1.525z
									 M177.159,1.371l0.566-8.108c0.058-0.01,0.113-0.027,0.167-0.058c0.045-0.023,0.085-0.055,0.119-0.088l9.061,9.204
									c-0.04,0.055-0.069,0.115-0.088,0.179L177.159,1.371z M187.866-4.938l4.813,1.089c-0.019,0.112-0.002,0.23,0.058,0.338
									c0.006,0.014,0.016,0.025,0.023,0.038l-4.985,5.669c-0.058-0.035-0.121-0.062-0.187-0.074L187.866-4.938z M193.679,3.695
									c-0.046,0.012-0.091,0.027-0.135,0.052c-0.107,0.06-0.188,0.152-0.232,0.259l-3.687-0.917l3.35-6.379
									c0.049,0.024,0.103,0.039,0.158,0.047L193.679,3.695z M184.539,12.817c-0.004-0.003-0.01-0.007-0.017-0.01l5.029-9.579
									l3.722,0.928c-0.008,0.101,0.013,0.207,0.064,0.303c0.008,0.015,0.018,0.031,0.027,0.046L184.539,12.817z M177.028,14.245
									c-0.01-0.033-0.023-0.065-0.041-0.098c-0.015-0.026-0.032-0.052-0.05-0.074l1.642-1.763l5.112,0.905
									c0,0.005,0,0.011,0,0.016L177.028,14.245z M141.016,28.261l11.751-5.091l9.093,6.098c-0.02,0.038-0.032,0.078-0.04,0.12
									L141.016,28.261z M132.195,30.634c-0.006-0.014-0.014-0.028-0.021-0.042c-0.042-0.079-0.102-0.14-0.169-0.184l2.426-5.141
									l5.311,3.109c-0.031,0.08-0.043,0.167-0.033,0.254L132.195,30.634z M118.343,20.677c0.002,0.079,0.023,0.158,0.063,0.232
									l0.014,0.021l-2.93,2.457l-3.73-3.277c0.031-0.046,0.052-0.098,0.065-0.152L118.343,20.677z M121.985,15.419
									c0.01,0.006,0.022,0.01,0.034,0.014l-0.661,4.933l-1.997,0.126c-0.008-0.028-0.022-0.059-0.038-0.086
									c-0.036-0.066-0.085-0.121-0.143-0.165L121.985,15.419z M122.69,14.76l15.58-7.134c0.081,0.126,0.208,0.207,0.348,0.231
									l-0.221,8.085c-0.062,0.009-0.127,0.027-0.188,0.061c-0.145,0.079-0.238,0.219-0.264,0.37l-15.222-1.435
									c-0.002-0.062-0.014-0.125-0.037-0.188L122.69,14.76z M172.703,1.18c0.01,0.026,0.02,0.052,0.033,0.075
									c0.044,0.08,0.105,0.144,0.175,0.189l-3.049,7.065l-9.033-4.516c0.016-0.058,0.021-0.119,0.016-0.18L172.703,1.18z
									 M177.474-6.759c0.031,0.012,0.063,0.019,0.097,0.023l-0.563,8.09l-3.29-0.378c-0.004-0.075-0.023-0.154-0.063-0.225
									c-0.037-0.071-0.091-0.129-0.152-0.174L177.474-6.759z M188.285-10.047l4.54,5.912c-0.042,0.041-0.075,0.088-0.1,0.138
									l-4.854-1.099l0.19-4.86c0.06-0.009,0.115-0.028,0.169-0.058C188.251-10.024,188.268-10.035,188.285-10.047"/>
							</g>
						</g>
					</g>
					<path clip-path="url(#SVGID_9_)" fill="#5BC7D4" d="M125.72,59.256l7.911,4.636c-0.065,0.237,0.01,0.503,0.215,0.67
						c0.273,0.223,0.679,0.182,0.903-0.094c0.16-0.199,0.185-0.467,0.079-0.683l9.303-7.641c0.276,0.203,0.663,0.157,0.882-0.11
						c0.224-0.274,0.183-0.68-0.094-0.904c-0.075-0.062-0.163-0.102-0.254-0.125l1.126-10.173c0.175-0.012,0.345-0.09,0.462-0.236
						c0.161-0.196,0.185-0.46,0.084-0.676l12.269-8.473c0.016,0.017,0.036,0.034,0.054,0.05c0.275,0.225,0.679,0.183,0.903-0.094
						c0.097-0.118,0.143-0.258,0.145-0.399l8.057-1.126c0.033,0.122,0.104,0.232,0.21,0.317c0.276,0.224,0.679,0.182,0.903-0.093
						c0.102-0.124,0.149-0.276,0.144-0.425l13.068-2.366c0.038,0.11,0.105,0.213,0.202,0.292c0.276,0.224,0.68,0.182,0.903-0.093
						c0.225-0.276,0.183-0.681-0.091-0.904c-0.107-0.086-0.229-0.132-0.355-0.142l-0.59-8.776c0.14-0.029,0.267-0.104,0.363-0.222
						c0.193-0.237,0.187-0.571,0.006-0.802L196.94,5.363l-0.069-0.067c0,0.001,0,0.001,0,0.001c0.276,0.224,0.681,0.184,0.905-0.093
						c0.223-0.275,0.181-0.679-0.093-0.903c-0.062-0.049-0.128-0.084-0.197-0.108l0.961-6.786c0.181-0.006,0.355-0.087,0.479-0.236
						c0.115-0.143,0.159-0.317,0.137-0.487l7.739-2.194c0.039,0.089,0.099,0.169,0.179,0.234c0.275,0.224,0.681,0.182,0.905-0.092
						c0.224-0.275,0.183-0.681-0.094-0.904c-0.123-0.101-0.273-0.147-0.421-0.144l-1.666-9.571c0.113-0.038,0.217-0.106,0.296-0.206
						c0.225-0.273,0.183-0.679-0.091-0.903c-0.254-0.205-0.613-0.187-0.844,0.029L189.224-29.65c0.165-0.27,0.109-0.625-0.143-0.83
						c-0.276-0.224-0.679-0.182-0.903,0.093c-0.225,0.275-0.183,0.679,0.094,0.903c0.071,0.059,0.152,0.1,0.236,0.122l-0.999,9.499
						c-0.177,0.008-0.35,0.086-0.471,0.233c-0.202,0.252-0.187,0.606,0.026,0.839l-7.618,9.361c-0.268-0.16-0.621-0.104-0.823,0.146
						c-0.171,0.208-0.188,0.489-0.067,0.713l-7.612,5.746c-0.016-0.014-0.029-0.028-0.045-0.041
						c-0.276-0.223-0.68-0.182-0.903,0.093c-0.201,0.247-0.187,0.6,0.018,0.83l-24.496,8.441c-0.04-0.076-0.093-0.145-0.165-0.202
						c-0.273-0.224-0.679-0.182-0.903,0.094c-0.224,0.274-0.183,0.679,0.094,0.903c0.102,0.083,0.221,0.129,0.342,0.141
						l1.071,21.421c-0.141,0.028-0.273,0.104-0.371,0.225c-0.089,0.11-0.137,0.242-0.143,0.374l-9.039,0.896
						c-0.031-0.131-0.105-0.252-0.217-0.344c-0.275-0.224-0.679-0.182-0.903,0.093c-0.152,0.189-0.183,0.439-0.097,0.649
						l-7.104,4.229c-0.025-0.033-0.058-0.064-0.091-0.092c-0.276-0.225-0.682-0.183-0.903,0.093
						c-0.225,0.274-0.183,0.679,0.093,0.902c0.019,0.016,0.036,0.028,0.054,0.04l-6.194,13.525
						c-0.239-0.069-0.508,0.006-0.677,0.212c-0.224,0.275-0.181,0.68,0.094,0.904c0.177,0.143,0.405,0.178,0.605,0.111l3.821,7.627
						c-0.058,0.036-0.111,0.081-0.156,0.138c-0.223,0.275-0.181,0.68,0.093,0.903C125.095,59.565,125.493,59.524,125.72,59.256
						 M134.094,63.44l-2.014-5.573l11.858-1.954c0.018,0.034,0.038,0.064,0.06,0.096l-0.874,0.719l-8.401,6.898
						c-0.021-0.021-0.044-0.042-0.067-0.063C134.49,63.431,134.282,63.392,134.094,63.44 M181.474,20.729l-1.111-0.468l-1.879-8.367
						l3.229,8.606c-0.069,0.038-0.135,0.091-0.187,0.156C181.505,20.679,181.489,20.705,181.474,20.729 M196.831,4.339l-5.526-3.52
						c0.063-0.145,0.071-0.307,0.025-0.451l4.227-2.038l1.511,5.862C196.98,4.223,196.899,4.271,196.831,4.339 M206.817-6.074
						l-5.726-1.992l4.199-7.927c0.073,0.025,0.152,0.038,0.228,0.036l1.666,9.572c-0.111,0.038-0.217,0.105-0.296,0.203
						C206.861-6.146,206.837-6.111,206.817-6.074 M134.334,34.036l-5.441,14.272c-0.034-0.007-0.066-0.012-0.1-0.014l-1.059-12.287
						c0.132-0.031,0.257-0.104,0.35-0.219c0.105-0.131,0.151-0.29,0.142-0.446L134.334,34.036z M143.881,55.731l-11.866,1.956
						l-2.956-8.187c0.072-0.038,0.14-0.093,0.193-0.159c0.018-0.022,0.033-0.044,0.047-0.067l14.576,6.289
						C143.869,55.619,143.873,55.677,143.881,55.731 M128.349,49.435c0.035,0.027,0.069,0.05,0.106,0.069l-2.999,8.61l0.855-8.733
						l1.828-0.262C128.174,49.239,128.245,49.349,128.349,49.435 M126.329,49.187l1.251-12.772l1.026,11.897
						c-0.135,0.032-0.258,0.104-0.352,0.22c-0.096,0.118-0.141,0.26-0.141,0.401L126.329,49.187z M134.554,33.988l2.008-0.428
						c0.037,0.102,0.103,0.197,0.194,0.271c0.008,0.006,0.016,0.011,0.021,0.016l-3.283,6.097l-4.136,7.671L134.554,33.988z
						 M134.634,33.777l1.01-2.646c0.109,0.023,0.225,0.019,0.332-0.015l0.824,1.688c-0.05,0.034-0.096,0.075-0.136,0.123
						c-0.106,0.133-0.152,0.291-0.143,0.447L134.634,33.777z M136.422,30.536l9.037-0.894c0.002,0.002,0.002,0.005,0.004,0.009
						l-7.754,3.344c-0.038-0.058-0.084-0.112-0.142-0.158c-0.175-0.142-0.4-0.178-0.6-0.114l-0.823-1.688
						c0.05-0.035,0.095-0.075,0.135-0.124C136.368,30.8,136.416,30.668,136.422,30.536 M168.065,33.138l-6.435-8.326
						c0.014-0.014,0.026-0.027,0.036-0.041c0.031-0.039,0.06-0.081,0.079-0.125l8.155,2.552l-1.459,5.862
						C168.312,33.046,168.183,33.074,168.065,33.138 M204.892-16.405l-11.028,5.375c-0.033-0.049-0.075-0.096-0.125-0.135
						c-0.135-0.11-0.302-0.156-0.462-0.143l-1.749-7.237l13.335,1.948C204.862-16.532,204.872-16.468,204.892-16.405
						 M188.722-29.343l2.555,10.571l-3.097-0.454c-0.002-0.186-0.081-0.37-0.238-0.495c-0.073-0.061-0.156-0.102-0.244-0.124
						l0.999-9.498C188.704-29.343,188.714-29.343,188.722-29.343 M187.731-18.612c0.027-0.009,0.056-0.02,0.083-0.032l5.084,7.505
						c-0.021,0.021-0.043,0.043-0.063,0.067c-0.101,0.125-0.148,0.277-0.143,0.426l-3.607,0.446L187.731-18.612z M188.926-9.991
						l1.599,9.937c-0.088,0.028-0.169,0.074-0.238,0.139l-10.615-8.635c0.06-0.098,0.088-0.204,0.092-0.311L188.926-9.991z
						 M172.179,0.702l5.497,9.392c-0.029,0.023-0.056,0.052-0.081,0.082c-0.076,0.093-0.121,0.2-0.138,0.31l-5.62,0.319
						l-1.19-12.547c0.029-0.009,0.057-0.018,0.085-0.028L172.179,0.702z M146.487,28.986c-0.01-0.007-0.02-0.012-0.027-0.02
						l7.077-13.576c0.089,0.03,0.185,0.041,0.28,0.03l2.72,10.417l-9.883,3.354C146.614,29.115,146.559,29.045,146.487,28.986
						 M172.873,16.536c-0.152-0.1-0.333-0.126-0.502-0.086l-0.518-5.457l5.604-0.317c0.017,0.103,0.056,0.2,0.119,0.286
						L172.873,16.536z M188.152-19.038l3.172,0.464l1.767,7.313c-0.01,0.004-0.021,0.009-0.031,0.014l-5.088-7.503
						c0.021-0.021,0.043-0.043,0.063-0.067C188.091-18.886,188.128-18.96,188.152-19.038 M154.363,14.962l9.801,1.324l-2.856,7.453
						c-0.153-0.034-0.313-0.011-0.453,0.065l-0.15-0.193l-6.494-8.384c0.012-0.014,0.024-0.025,0.036-0.039
						C154.302,15.119,154.341,15.042,154.363,14.962 M164.354,16.312l7.582,1.023c0.014,0.03,0.027,0.059,0.046,0.087l-7.84,4.954
						l-2.485,1.57c-0.026-0.027-0.052-0.055-0.082-0.079c-0.029-0.022-0.06-0.043-0.091-0.061L164.354,16.312z M164.424,16.131
						l1.645-4.291c0.179,0.037,0.365-0.006,0.512-0.117l2.341,2.311l2.968,2.935c-0.008,0.057-0.012,0.113-0.006,0.17
						L164.424,16.131z M171.664,11.004l0.524,5.522c-0.062,0.036-0.117,0.084-0.165,0.143c-0.025,0.031-0.047,0.066-0.067,0.102
						l-2.895-2.86l-2.349-2.321c0.069-0.095,0.109-0.202,0.119-0.312L171.664,11.004z M160.539,24.479l-3.823,1.298L154,15.373
						c0.02-0.008,0.041-0.02,0.062-0.03l6.645,8.578c-0.012,0.013-0.022,0.025-0.036,0.04
						C160.549,24.111,160.505,24.302,160.539,24.479 M154.383,14.699l11.232-3.214c0.04,0.084,0.098,0.161,0.175,0.224
						c0.032,0.025,0.065,0.048,0.102,0.066l-1.658,4.329l-9.845-1.329C154.389,14.749,154.387,14.724,154.383,14.699 M166.6,10.712
						c-0.035-0.028-0.073-0.053-0.112-0.073l3.904-12.371c0.022,0.004,0.044,0.005,0.067,0.007l1.188,12.54l-4.822,0.274
						C166.799,10.945,166.721,10.812,166.6,10.712 M189.113-10.014l3.612-0.445c0.038,0.109,0.105,0.212,0.203,0.291
						c0.052,0.042,0.109,0.074,0.169,0.099l-2.327,9.986c-0.02-0.002-0.04-0.002-0.06-0.002L189.113-10.014z M178.141,11.222
						l2.009,8.951l-7.004-2.939c0.048-0.197,0.004-0.411-0.131-0.57l4.697-5.566C177.839,11.191,177.991,11.232,178.141,11.222
						 M180.197,20.398l2.269,10.107c-0.021,0.008-0.043,0.019-0.063,0.03l-9.432-13.003c0.018-0.017,0.034-0.034,0.05-0.054
						c0.02-0.022,0.037-0.047,0.05-0.072L180.197,20.398z M172.117,17.573c0.05,0.04,0.104,0.07,0.161,0.094l-2.331,9.347
						l-8.144-2.549c0.018-0.121,0.002-0.246-0.046-0.358l10.352-6.542C172.111,17.568,172.113,17.569,172.117,17.573
						 M160.764,24.864c0.058,0.047,0.123,0.081,0.188,0.104l-1.876,9.389c-0.038-0.001-0.078,0.001-0.115,0.009l-2.196-8.405
						l3.834-1.303C160.637,24.737,160.692,24.806,160.764,24.864 M158.496,34.699l-11.794-5.05c0.025-0.092,0.027-0.187,0.012-0.279
						l9.873-3.349l2.193,8.402c-0.079,0.039-0.153,0.096-0.213,0.17C158.54,34.627,158.516,34.663,158.496,34.699 M146.144,28.848
						l-1.071-21.422c0.103-0.021,0.198-0.065,0.281-0.134l7.858,7.134c-0.181,0.272-0.13,0.645,0.129,0.855
						c0.01,0.008,0.02,0.015,0.029,0.021l-7.079,13.577C146.245,28.863,146.193,28.852,146.144,28.848 M145.549,7.018l13.031,2.707
						l-4.455,4.539c-0.24-0.174-0.563-0.16-0.784,0.021l-7.86-7.134C145.509,7.11,145.53,7.064,145.549,7.018 M158.8,9.77
						l6.754,1.403c-0.002,0.046,0,0.088,0.008,0.133l-11.23,3.212c-0.02-0.043-0.044-0.083-0.071-0.121L158.8,9.77z M158.957,9.61
						l11.211-11.424c0.014,0.009,0.029,0.017,0.045,0.024l-3.904,12.367c-0.223-0.041-0.459,0.039-0.611,0.227
						c-0.046,0.058-0.08,0.119-0.104,0.184L158.957,9.61z M171.108-2.182l7.488,1.083l-0.607,11.047
						c-0.054,0.008-0.105,0.023-0.152,0.044l-1.045-1.781l-5.896-10.077c0.033-0.027,0.065-0.06,0.095-0.095
						C171.047-2.028,171.085-2.104,171.108-2.182 M178.783-1.072l11.292,1.633c0,0.11,0.03,0.22,0.086,0.315l-11.669,9.203
						c-0.094-0.076-0.203-0.119-0.314-0.133L178.783-1.072z M178.796-1.261l0.383-6.979c0.137-0.013,0.268-0.067,0.375-0.165
						l10.611,8.636c-0.025,0.044-0.048,0.093-0.062,0.143L178.796-1.261z M179.596-9.312l7.613-9.361
						c0.105,0.063,0.221,0.094,0.336,0.092l1.352,8.403l-9.158,1.128C179.713-9.146,179.663-9.234,179.596-9.312 M189.103-29.504
						l15.847,12.584c-0.025,0.044-0.046,0.09-0.06,0.136l-13.412-1.959l-2.571-10.641C188.978-29.411,189.045-29.451,189.103-29.504
						 M200.911-8.129l-6.946-2.418c0.02-0.104,0.012-0.214-0.02-0.313l11.029-5.375c0.034,0.051,0.076,0.095,0.123,0.135
						c0.011,0.007,0.019,0.012,0.026,0.018L200.911-8.129z M200.822-7.961l-2.183,4.12c-0.17-0.061-0.359-0.045-0.52,0.042
						l-4.298-6.453c0.002-0.002,0.006-0.006,0.01-0.009c0.027-0.034,0.052-0.07,0.071-0.108L200.822-7.961z M197.838-2.979
						l-2.156,1.04l-2.098-8.136c0.031-0.013,0.063-0.031,0.095-0.051l4.29,6.44c-0.014,0.015-0.027,0.029-0.039,0.044
						C197.772-3.447,197.747-3.191,197.838-2.979 M195.508-1.855l-4.259,2.053c-0.034-0.052-0.077-0.097-0.125-0.138
						c-0.054-0.043-0.109-0.075-0.169-0.099l2.36-9.986c0.028,0.001,0.056,0.001,0.086-0.003L195.508-1.855z M178.652,10.268
						c-0.01-0.017-0.018-0.034-0.029-0.05l8.59-6.775l3.065-2.417c0.01,0.011,0.021,0.021,0.033,0.031
						c0.271,0.22,0.663,0.184,0.89-0.079l5.516,3.512c-0.066,0.116-0.09,0.246-0.078,0.372L178.652,10.268z M181.616,21.56
						c0.105,0.086,0.23,0.132,0.354,0.142l0.55,8.187l-2.108-9.399l0.991,0.415C181.341,21.138,181.416,21.396,181.616,21.56
						 M182.119,30.825l-11.991-3.755l2.333-9.357c0.123,0.012,0.248-0.011,0.359-0.069l9.428,13.003
						c-0.019,0.017-0.034,0.034-0.05,0.053C182.166,30.739,182.143,30.781,182.119,30.825 M182.056,31.124l-13.069,2.367
						c-0.038-0.111-0.104-0.213-0.202-0.293c-0.048-0.04-0.104-0.07-0.159-0.095l1.457-5.85l11.981,3.751
						C182.058,31.045,182.056,31.085,182.056,31.124 M167.737,33.692l-8.056,1.125c-0.036-0.12-0.105-0.231-0.211-0.317
						c-0.065-0.05-0.135-0.088-0.208-0.111l1.874-9.382c0.121,0.006,0.24-0.021,0.346-0.081l6.434,8.327
						c-0.012,0.013-0.023,0.025-0.035,0.038C167.785,33.409,167.739,33.551,167.737,33.692 M146.08,33.933l0.082-3.811
						c0.158-0.02,0.31-0.098,0.419-0.231c0.018-0.021,0.033-0.045,0.048-0.069l11.806,5.057c-0.002,0.004-0.002,0.008-0.002,0.014
						L146.08,33.933z M145.892,33.918l-8.09-0.629c-0.002-0.04-0.01-0.08-0.02-0.12l7.754-3.345c0.036,0.059,0.084,0.112,0.142,0.16
						c0.089,0.072,0.19,0.116,0.296,0.135L145.892,33.918z M145.888,34.106l-0.202,9.446c-0.088,0.01-0.171,0.036-0.248,0.08
						l-1.672-2.111l-6.137-7.749c0.013-0.01,0.022-0.022,0.032-0.032c0.063-0.079,0.105-0.17,0.127-0.264L145.888,34.106z
						 M145.119,44.282l-3.916,1.091l-3.753-11.465c0.011-0.005,0.021-0.013,0.032-0.018l6.17,7.793l1.636,2.066
						c-0.01,0.012-0.021,0.022-0.031,0.035C145.14,43.93,145.096,44.11,145.119,44.282 M141.021,45.423l-11.68,3.252
						c-0.04-0.089-0.1-0.172-0.181-0.238c-0.008-0.005-0.014-0.009-0.021-0.015l5.313-9.857l2.493-4.627
						c0.107,0.038,0.217,0.048,0.325,0.029L141.021,45.423z M141.078,45.603l3.103,9.478c-0.062,0.037-0.117,0.084-0.165,0.144
						c-0.039,0.049-0.069,0.101-0.093,0.154l-14.548-6.276c0.021-0.081,0.025-0.163,0.016-0.246L141.078,45.603z M131.824,57.718
						l-5.972,0.984c-0.029-0.135-0.105-0.262-0.22-0.355c-0.017-0.013-0.03-0.023-0.046-0.033l3.047-8.746
						c0.082,0.016,0.167,0.014,0.246-0.002L131.824,57.718z M121.231,50.589c0.045-0.032,0.091-0.072,0.129-0.119
						c0.095-0.12,0.143-0.262,0.143-0.402l4.616-0.659l-0.862,8.795c-0.067-0.003-0.135,0.004-0.2,0.022L121.231,50.589z
						 M127.407,36.001c0.008,0.001,0.016,0.003,0.021,0.005l-1.292,13.208l-4.659,0.667c-0.036-0.12-0.105-0.231-0.211-0.315
						c-0.018-0.015-0.035-0.027-0.056-0.041L127.407,36.001z M135.282,30.911c0.028,0.032,0.06,0.064,0.094,0.091
						c0.028,0.024,0.06,0.044,0.092,0.063l-1.055,2.759l-6.226,1.334c-0.002-0.006-0.006-0.013-0.008-0.019L135.282,30.911z
						 M169.738-1.648L158.736,9.563l-13.15-2.731c0.004-0.051,0-0.104-0.008-0.155L169.738-1.648z M178.67-8.42
						c0.015,0.013,0.028,0.028,0.044,0.04c0.084,0.067,0.179,0.111,0.276,0.132l-0.382,6.959l-7.472-1.081
						c0-0.104-0.028-0.21-0.08-0.305L178.67-8.42z M199.012-3.499c-0.038-0.089-0.098-0.169-0.179-0.234
						c-0.009-0.007-0.017-0.012-0.026-0.019l2.196-4.146l5.753,2.002c-0.012,0.067-0.014,0.136-0.006,0.202L199.012-3.499z
						 M197.302,4.159c-0.016-0.002-0.031-0.002-0.048,0l-1.524-5.912l2.21-1.064c0.025,0.027,0.052,0.055,0.081,0.079
						c0.075,0.06,0.155,0.101,0.24,0.123L197.302,4.159z M196.804,5.233l-14.415,15.302c-0.148-0.105-0.331-0.138-0.5-0.102
						l-3.484-9.29c0.069-0.039,0.133-0.092,0.187-0.157c0.127-0.157,0.169-0.356,0.129-0.542l17.963-5.399
						c0.029,0.069,0.073,0.138,0.129,0.196L196.804,5.233z M146.233,43.763c-0.023-0.024-0.046-0.048-0.073-0.069
						c-0.086-0.07-0.185-0.114-0.286-0.134l0.202-9.438l12.353,0.959c0.01,0.074,0.03,0.145,0.065,0.213L146.233,43.763z
						 M144.479,54.988c-0.042,0.002-0.084,0.009-0.123,0.019l-3.095-9.455l3.912-1.089c0.04,0.085,0.1,0.162,0.177,0.227
						c0.076,0.062,0.163,0.103,0.255,0.124L144.479,54.988z M133.708,63.718l-7.891-4.623c0.027-0.065,0.045-0.134,0.049-0.203
						l6.023-0.992l2.027,5.614c-0.062,0.036-0.117,0.085-0.165,0.144C133.736,63.677,133.723,63.696,133.708,63.718"/>
				</g>
			</g>
		</g>
	</g>
	<path fill="#1EADE4" d="M8.465,15.206H1.71V49.5h9.803V19.51C11.482,15.696,9.159,15.253,8.465,15.206"/>
	<g>
		<defs>
			<path id="SVGID_79_" d="M41.448,0.502c-4.714,0-39.738,0.03-39.738,0.03v6.616c0.015,0.544,0.3,3.144,4.381,3.144h10.336V49.5
				h9.785l0.007-1.729V10.332h13.713c5.042,0.016,17.096,0.329,20.89,3.916c4.855-0.823,9.523-2.647,9.51-5.953
				c0.45-7.008-20.482-7.782-28.429-7.793H41.448z"/>
		</defs>
		<clipPath id="SVGID_19_">
			<use xlink:href="#SVGID_79_"  overflow="visible"/>
		</clipPath>
		
			<linearGradient id="SVGID_21_" gradientUnits="userSpaceOnUse" x1="-184.5137" y1="342.5908" x2="-183.6272" y2="342.5908" gradientTransform="matrix(77.4297 0 0 -77.4297 14288.5635 26551.707)">
			<stop  offset="0" style="stop-color:#05ADE2"/>
			<stop  offset="0.183" style="stop-color:#0EA8DA"/>
			<stop  offset="0.3566" style="stop-color:#199DCA"/>
			<stop  offset="0.5266" style="stop-color:#208CB3"/>
			<stop  offset="0.6942" style="stop-color:#237796"/>
			<stop  offset="0.8586" style="stop-color:#215E76"/>
			<stop  offset="1" style="stop-color:#1B4759"/>
		</linearGradient>
		<rect x="1.71" y="0.502" clip-path="url(#SVGID_19_)" fill="url(#SVGID_21_)" width="69.071" height="48.998"/>
	</g>
	<g>
		<defs>
			<path id="SVGID_82_" d="M62.648,13.888c-0.72,0.177-2.253,0.458-2.396,0.483c-0.001,0-0.003,0-0.005,0
				c-3.788,0.644-7.732,0.803-10.025,0.836h-19.09v6.669c0.019,0.577,0.336,3.073,4.261,3.125H40.9V49.5h9.804V25.168l1.633-0.005
				c6.383-0.067,17.968-0.896,17.963-5.979c-0.003-5.2-0.003-8.855-0.003-10.402C69.846,11.407,66.538,12.942,62.648,13.888"/>
		</defs>
		<clipPath id="SVGID_22_">
			<use xlink:href="#SVGID_82_"  overflow="visible"/>
		</clipPath>
		
			<linearGradient id="SVGID_24_" gradientUnits="userSpaceOnUse" x1="-185.5479" y1="338.6475" x2="-184.6616" y2="338.6475" gradientTransform="matrix(44.1929 0 0 -44.1929 8231.0605 14994.8936)">
			<stop  offset="0" style="stop-color:#05ADE2"/>
			<stop  offset="1" style="stop-color:#0BAFCC"/>
		</linearGradient>
		<rect x="31.132" y="8.782" clip-path="url(#SVGID_22_)" fill="url(#SVGID_24_)" width="39.173" height="40.718"/>
	</g>
	<g>
		<path fill="#FFFFFF" d="M92.641,7.315h2.966l5.548,24.843h-3.559l-1.047-5.339h-4.85l-1.047,5.339h-3.559L92.641,7.315z
			 M94.142,14.468h-0.07l-1.744,9.002h3.559L94.142,14.468z"/>
		<path fill="#FFFFFF" d="M103.736,7.315h5.199c1.139,0,2.11,0.174,2.913,0.523c0.803,0.349,1.46,0.814,1.972,1.396
			c0.511,0.581,0.878,1.25,1.099,2.006c0.221,0.757,0.332,1.541,0.332,2.355v0.907c0,0.675-0.053,1.244-0.157,1.71
			c-0.104,0.465-0.262,0.872-0.471,1.221c-0.21,0.35-0.466,0.657-0.768,0.925c-0.303,0.268-0.652,0.518-1.047,0.75
			c0.837,0.396,1.453,0.983,1.849,1.763s0.594,1.82,0.594,3.122v1.396c0,2.187-0.529,3.861-1.588,5.024s-2.751,1.744-5.077,1.744
			h-4.85V7.315z M107.295,17.504h1.605c1.187,0,1.982-0.297,2.39-0.89c0.407-0.594,0.611-1.46,0.611-2.6
			c0-1.117-0.228-1.954-0.681-2.513c-0.454-0.558-1.273-0.837-2.46-0.837h-1.466V17.504z M107.295,28.6h1.535
			c0.722,0,1.285-0.105,1.692-0.314s0.716-0.5,0.925-0.872c0.21-0.372,0.337-0.814,0.384-1.326s0.07-1.069,0.07-1.675
			c0-0.628-0.035-1.174-0.105-1.64c-0.069-0.465-0.215-0.855-0.436-1.169c-0.222-0.314-0.529-0.553-0.925-0.716
			c-0.396-0.162-0.919-0.244-1.57-0.244h-1.57V28.6z"/>
		<path fill="#FFFFFF" d="M122.996,7.315h2.966l5.548,24.843h-3.559l-1.047-5.339h-4.85l-1.047,5.339h-3.56L122.996,7.315z
			 M124.497,14.468h-0.07l-1.744,9.002h3.559L124.497,14.468z"/>
		<path fill="#FFFFFF" d="M145.607,14.468h-3.56v-0.803c0-0.813-0.191-1.518-0.575-2.11c-0.384-0.594-1.029-0.89-1.937-0.89
			c-0.488,0-0.89,0.093-1.204,0.279c-0.313,0.186-0.559,0.424-0.732,0.715c-0.175,0.291-0.297,0.628-0.366,1.012
			c-0.07,0.384-0.105,0.785-0.105,1.204c0,0.488,0.018,0.901,0.053,1.238c0.035,0.338,0.122,0.628,0.262,0.872
			c0.14,0.245,0.343,0.46,0.61,0.646c0.268,0.187,0.634,0.373,1.1,0.559l2.722,1.082c0.79,0.303,1.431,0.657,1.919,1.063
			c0.488,0.407,0.866,0.885,1.134,1.431c0.268,0.547,0.447,1.175,0.541,1.885c0.093,0.71,0.14,1.518,0.14,2.425
			c0,1.047-0.104,2.019-0.314,2.913c-0.209,0.896-0.553,1.664-1.029,2.303c-0.477,0.641-1.111,1.146-1.901,1.519
			c-0.791,0.371-1.757,0.558-2.896,0.558c-0.86,0-1.663-0.151-2.407-0.453c-0.745-0.302-1.384-0.716-1.919-1.238
			c-0.535-0.523-0.96-1.146-1.273-1.867c-0.314-0.721-0.472-1.5-0.472-2.338v-1.326h3.56v1.117c0,0.651,0.191,1.238,0.575,1.762
			s1.029,0.785,1.937,0.785c0.604,0,1.076-0.087,1.413-0.262s0.594-0.419,0.768-0.732c0.175-0.314,0.285-0.703,0.332-1.169
			c0.046-0.465,0.069-0.978,0.069-1.535c0-0.651-0.023-1.187-0.069-1.605c-0.047-0.419-0.146-0.756-0.297-1.012
			s-0.36-0.465-0.628-0.628s-0.623-0.337-1.064-0.523l-2.547-1.047c-1.535-0.628-2.564-1.459-3.088-2.495
			c-0.523-1.034-0.785-2.331-0.785-3.89c0-0.931,0.128-1.814,0.384-2.652c0.256-0.837,0.634-1.558,1.134-2.163
			c0.5-0.604,1.134-1.087,1.902-1.448c0.768-0.36,1.662-0.541,2.687-0.541c0.884,0,1.692,0.163,2.425,0.489
			c0.732,0.325,1.36,0.756,1.884,1.291s0.925,1.134,1.204,1.797c0.279,0.662,0.419,1.343,0.419,2.041V14.468z"/>
	</g>
	<text transform="matrix(1 0 0 1 147.5254 32.1582)" fill="#FFFFFF" font-family="'MyriadPro-Regular'" font-size="34.892"></text>
	<text transform="matrix(1 0 0 1 156.7383 32.1582)" fill="#FFFFFF" font-family="'DINCondensed-Bold'" font-size="34.892">S</text>
	<g>
		<path fill="#1EADE4" d="M78.032,45.097l-0.645,1.953h-0.829l2.109-6.21h0.968l2.118,6.21h-0.856l-0.663-1.953H78.032z
			 M80.068,44.471l-0.608-1.787c-0.138-0.406-0.23-0.774-0.322-1.134h-0.019c-0.092,0.368-0.193,0.747-0.313,1.124l-0.607,1.797
			H80.068z"/>
		<path fill="#1EADE4" d="M83.568,47.05v-2.634l-1.962-3.576h0.912l0.875,1.715c0.239,0.47,0.424,0.848,0.617,1.28h0.019
			c0.175-0.406,0.387-0.811,0.626-1.28l0.895-1.715h0.912l-2.082,3.566v2.644H83.568z"/>
		<path fill="#1EADE4" d="M86.949,47.05v-6.21h0.875l1.99,3.143c0.461,0.729,0.82,1.382,1.115,2.018l0.019-0.009
			c-0.074-0.83-0.093-1.585-0.093-2.552v-2.6h0.755v6.21h-0.81l-1.973-3.15c-0.433-0.69-0.847-1.4-1.16-2.072l-0.027,0.009
			c0.046,0.783,0.064,1.529,0.064,2.561v2.653H86.949z"/>
		<path fill="#1EADE4" d="M92.744,39.938c0-0.239,0.202-0.461,0.46-0.461c0.248,0,0.442,0.222,0.442,0.461s-0.194,0.469-0.442,0.469
			C92.938,40.407,92.744,40.178,92.744,39.938z M93.592,40.84v6.21H92.79v-6.21H93.592z"/>
		<path fill="#1EADE4" d="M96.493,40.924c0.351-0.073,0.903-0.129,1.465-0.129c0.801,0,1.317,0.138,1.704,0.451
			c0.323,0.239,0.517,0.607,0.517,1.096c0,0.6-0.396,1.125-1.051,1.364v0.018c0.59,0.148,1.281,0.637,1.281,1.558
			c0,0.534-0.213,0.94-0.525,1.244c-0.434,0.396-1.134,0.58-2.147,0.58c-0.553,0-0.977-0.036-1.243-0.074V40.924z M97.295,43.467
			h0.728c0.848,0,1.345-0.442,1.345-1.041c0-0.728-0.553-1.014-1.363-1.014c-0.368,0-0.58,0.027-0.709,0.056V43.467z M97.295,46.441
			c0.156,0.028,0.386,0.038,0.672,0.038c0.829,0,1.595-0.305,1.595-1.207c0-0.848-0.729-1.198-1.604-1.198h-0.663V46.441z"/>
		<path fill="#1EADE4" d="M102.287,45.097l-0.645,1.953h-0.83l2.11-6.21h0.967l2.119,6.21h-0.856l-0.664-1.953H102.287z
			 M104.322,44.471l-0.607-1.787c-0.138-0.406-0.229-0.774-0.322-1.134h-0.019c-0.092,0.368-0.192,0.747-0.313,1.124l-0.609,1.797
			H104.322z"/>
		<path fill="#1EADE4" d="M111.444,46.774c-0.358,0.129-1.068,0.34-1.907,0.34c-0.939,0-1.714-0.238-2.321-0.819
			c-0.534-0.517-0.866-1.345-0.866-2.313c0.009-1.852,1.28-3.207,3.363-3.207c0.719,0,1.28,0.157,1.547,0.286l-0.193,0.654
			c-0.331-0.146-0.746-0.267-1.373-0.267c-1.511,0-2.496,0.939-2.496,2.496c0,1.575,0.949,2.506,2.396,2.506
			c0.524,0,0.884-0.074,1.068-0.165v-1.853h-1.262v-0.646h2.045V46.774z M108.626,39.431c0.046,0.213,0.211,0.452,0.663,0.452
			c0.441,0,0.617-0.212,0.663-0.452h0.47c-0.01,0.544-0.359,0.977-1.152,0.977c-0.783,0-1.114-0.424-1.123-0.977H108.626z"/>
		<path fill="#1EADE4" d="M113.249,40.84v6.21h-0.802v-6.21H113.249z"/>
		<path fill="#1EADE4" d="M114.309,46.073c0.359,0.222,0.885,0.406,1.438,0.406c0.819,0,1.299-0.434,1.299-1.061
			c0-0.58-0.332-0.912-1.17-1.233c-1.014-0.359-1.64-0.885-1.64-1.76c0-0.968,0.801-1.687,2.008-1.687
			c0.636,0,1.097,0.147,1.373,0.305l-0.222,0.654c-0.202-0.111-0.617-0.295-1.179-0.295c-0.849,0-1.171,0.506-1.171,0.93
			c0,0.581,0.378,0.866,1.235,1.198c1.05,0.405,1.585,0.911,1.585,1.823c0,0.82-0.525,1.549-1.613,1.741l-0.258,0.415
			c0.351,0.046,0.646,0.304,0.646,0.646c0,0.524-0.452,0.736-0.949,0.736c-0.248,0-0.488-0.064-0.646-0.157l0.139-0.396
			c0.147,0.083,0.313,0.139,0.507,0.139c0.202,0,0.387-0.092,0.387-0.295c0-0.23-0.286-0.341-0.719-0.387l0.368-0.654
			c-0.018,0-0.045,0-0.064,0c-0.533,0-1.207-0.166-1.556-0.396L114.309,46.073z"/>
		<path fill="#1EADE4" d="M121.845,47.05v-2.634l-1.963-3.576h0.912l0.875,1.715c0.24,0.47,0.424,0.848,0.617,1.28h0.019
			c0.175-0.406,0.387-0.811,0.627-1.28l0.894-1.715h0.912l-2.083,3.566v2.644H121.845z"/>
		<path fill="#1EADE4" d="M130.513,43.881c0,2.137-1.298,3.271-2.883,3.271c-1.64,0-2.792-1.271-2.792-3.15
			c0-1.972,1.227-3.262,2.884-3.262C129.417,40.739,130.513,42.038,130.513,43.881z M125.695,43.982c0,1.327,0.719,2.515,1.98,2.515
			c1.272,0,1.99-1.17,1.99-2.58c0-1.233-0.645-2.523-1.98-2.523C126.359,41.394,125.695,42.619,125.695,43.982z M126.377,39.938
			c0-0.25,0.193-0.461,0.451-0.461c0.259,0,0.442,0.202,0.442,0.461c0,0.258-0.175,0.469-0.442,0.469
			C126.552,40.407,126.377,40.196,126.377,39.938z M128.081,39.938c0-0.25,0.193-0.461,0.461-0.461c0.258,0,0.442,0.202,0.442,0.461
			c0,0.258-0.176,0.469-0.451,0.469C128.266,40.407,128.081,40.196,128.081,39.938z"/>
		<path fill="#1EADE4" d="M131.333,47.05v-6.21h0.876l1.99,3.143c0.46,0.729,0.819,1.382,1.114,2.018l0.018-0.009
			c-0.073-0.83-0.091-1.585-0.091-2.552v-2.6h0.755v6.21h-0.811l-1.972-3.15c-0.433-0.69-0.848-1.4-1.161-2.072l-0.028,0.009
			c0.047,0.783,0.065,1.529,0.065,2.561v2.653H131.333z"/>
		<path fill="#1EADE4" d="M140.389,44.139h-2.414v2.238h2.69v0.673h-3.492v-6.21h3.354v0.674h-2.552v1.962h2.414V44.139z"/>
		<path fill="#1EADE4" d="M142.664,41.522h-1.888V40.84h4.597v0.683h-1.898v5.527h-0.811V41.522z"/>
		<path fill="#1EADE4" d="M145.796,39.938c0-0.239,0.202-0.461,0.46-0.461c0.249,0,0.443,0.222,0.443,0.461
			s-0.194,0.469-0.443,0.469C145.989,40.407,145.796,40.178,145.796,39.938z M146.644,40.84v6.21h-0.803v-6.21H146.644z"/>
		<path fill="#1EADE4" d="M153.056,44.323c-0.046-0.866-0.102-1.906-0.093-2.681h-0.027c-0.211,0.728-0.47,1.502-0.782,2.358
			l-1.097,3.013h-0.607l-1.005-2.957c-0.295-0.876-0.544-1.678-0.719-2.414h-0.019c-0.018,0.774-0.064,1.814-0.119,2.745
			l-0.166,2.662h-0.765l0.434-6.21h1.022l1.059,3.004c0.258,0.765,0.47,1.446,0.627,2.092h0.027
			c0.157-0.626,0.378-1.309,0.654-2.092l1.105-3.004h1.022l0.388,6.21h-0.783L153.056,44.323z"/>
		<path fill="#1EADE4" d="M156.62,46.073c0.359,0.222,0.885,0.406,1.438,0.406c0.819,0,1.299-0.434,1.299-1.061
			c0-0.58-0.332-0.912-1.17-1.233c-1.014-0.359-1.64-0.885-1.64-1.76c0-0.968,0.801-1.687,2.008-1.687
			c0.636,0,1.097,0.147,1.373,0.305l-0.222,0.654c-0.202-0.111-0.617-0.295-1.179-0.295c-0.848,0-1.171,0.506-1.171,0.93
			c0,0.581,0.379,0.866,1.235,1.198c1.05,0.405,1.585,0.911,1.585,1.823c0,0.959-0.71,1.788-2.175,1.788
			c-0.599,0-1.253-0.176-1.584-0.396L156.62,46.073z"/>
		<path fill="#1EADE4" d="M161.006,39.938c0-0.239,0.202-0.461,0.46-0.461c0.25,0,0.443,0.222,0.443,0.461s-0.193,0.469-0.443,0.469
			C161.199,40.407,161.006,40.178,161.006,39.938z M161.854,40.84v6.21h-0.802v-6.21H161.854z"/>
		<path fill="#1EADE4" d="M162.912,46.073c0.359,0.222,0.885,0.406,1.438,0.406c0.82,0,1.3-0.434,1.3-1.061
			c0-0.58-0.333-0.912-1.171-1.233c-1.013-0.359-1.64-0.885-1.64-1.76c0-0.968,0.801-1.687,2.008-1.687
			c0.636,0,1.098,0.147,1.373,0.305l-0.222,0.654c-0.202-0.111-0.617-0.295-1.179-0.295c-0.848,0-1.169,0.506-1.169,0.93
			c0,0.581,0.377,0.866,1.233,1.198c1.05,0.405,1.585,0.911,1.585,1.823c0,0.959-0.709,1.788-2.175,1.788
			c-0.599,0-1.253-0.176-1.584-0.396L162.912,46.073z"/>
		<path fill="#1EADE4" d="M168.494,41.522h-1.888V40.84h4.597v0.683h-1.898v5.527h-0.811V41.522z"/>
		<path fill="#1EADE4" d="M174.889,44.139h-2.414v2.238h2.689v0.673h-3.491v-6.21h3.354v0.674h-2.552v1.962h2.414V44.139z"/>
		<path fill="#1EADE4" d="M181.217,44.323c-0.046-0.866-0.102-1.906-0.093-2.681h-0.027c-0.212,0.728-0.47,1.502-0.782,2.358
			l-1.097,3.013h-0.608l-1.004-2.957c-0.295-0.876-0.544-1.678-0.719-2.414h-0.019c-0.019,0.774-0.064,1.814-0.119,2.745
			l-0.166,2.662h-0.766l0.434-6.21h1.022l1.06,3.004c0.258,0.765,0.47,1.446,0.626,2.092h0.028c0.156-0.626,0.378-1.309,0.654-2.092
			l1.105-3.004h1.022l0.387,6.21h-0.783L181.217,44.323z"/>
		<path fill="#1EADE4" d="M183.123,39.938c0-0.239,0.203-0.461,0.461-0.461c0.249,0,0.442,0.222,0.442,0.461
			s-0.193,0.469-0.442,0.469C183.316,40.407,183.123,40.178,183.123,39.938z M183.971,40.84v6.21h-0.802v-6.21H183.971z"/>
	</g>
</g>
</svg>
