<?xml version="1.0" encoding="UTF-8"?>
<svg xmlns="http://www.w3.org/2000/svg" xmlns:xlink="http://www.w3.org/1999/xlink" width="500px" height="500px" viewBox="0 0 500 500" version="1.1">
<defs>
<linearGradient id="linear0" gradientUnits="userSpaceOnUse" x1="41.2433" y1="156.03" x2="74.1402" y2="156.03" gradientTransform="matrix(1.763918,0,0,1.763918,0,0)">
<stop offset="0" style="stop-color:rgb(0%,72.941176%,81.176471%);stop-opacity:1;"/>
<stop offset="0.4485" style="stop-color:rgb(0%,72.156863%,82.745098%);stop-opacity:1;"/>
<stop offset="0.8854" style="stop-color:rgb(0%,69.411765%,87.45098%);stop-opacity:1;"/>
<stop offset="1" style="stop-color:rgb(0%,68.235294%,89.019608%);stop-opacity:1;"/>
</linearGradient>
<linearGradient id="linear1" gradientUnits="userSpaceOnUse" x1="41.2432" y1="133.1967" x2="255.6877" y2="133.1967" gradientTransform="matrix(1.763918,0,0,1.763918,0,0)">
<stop offset="0" style="stop-color:rgb(0%,68.235294%,89.019608%);stop-opacity:1;"/>
<stop offset="0.1788" style="stop-color:rgb(0.392157%,67.058824%,87.45098%);stop-opacity:1;"/>
<stop offset="0.3485" style="stop-color:rgb(1.176471%,63.921569%,83.137255%);stop-opacity:1;"/>
<stop offset="0.5146" style="stop-color:rgb(2.352941%,58.039216%,75.686275%);stop-opacity:1;"/>
<stop offset="0.6784" style="stop-color:rgb(3.921569%,50.196078%,65.098039%);stop-opacity:1;"/>
<stop offset="0.8393" style="stop-color:rgb(6.27451%,40%,51.372549%);stop-opacity:1;"/>
<stop offset="0.9982" style="stop-color:rgb(9.019608%,27.45098%,35.294118%);stop-opacity:1;"/>
<stop offset="1" style="stop-color:rgb(9.019608%,27.45098%,34.901961%);stop-opacity:1;"/>
</linearGradient>
<linearGradient id="linear2" gradientUnits="userSpaceOnUse" x1="133.9414" y1="145.3792" x2="255.6582" y2="145.3792" gradientTransform="matrix(1.763918,0,0,1.763918,0,0)">
<stop offset="0" style="stop-color:rgb(0%,68.235294%,89.019608%);stop-opacity:1;"/>
<stop offset="1" style="stop-color:rgb(0%,72.941176%,81.176471%);stop-opacity:1;"/>
</linearGradient>
</defs>
<g id="surface1">
<path style=" stroke:none;fill-rule:nonzero;fill:url(#linear0);" d="M 113.964844 185.175781 L 72.742188 185.175781 L 72.742188 365.273438 L 130.78125 365.273438 L 130.78125 208.898438 C 130.617188 187.871094 117.792969 185.4375 113.964844 185.175781 Z M 113.964844 185.175781 "/>
<path style=" stroke:none;fill-rule:nonzero;fill:url(#linear1);" d="M 283.496094 159.382812 C 311.320312 159.472656 370.460938 160.371094 395.527344 178.417969 C 422.296875 173.886719 447.949219 164.980469 450.929688 147.609375 C 454.472656 108.535156 338.171875 104.6875 294.367188 104.640625 C 284.238281 104.617188 72.742188 104.8125 72.742188 104.8125 L 72.742188 142.507812 C 72.832031 145.507812 74.40625 159.84375 96.914062 159.84375 L 154.5 159.84375 L 154.5 365.304688 L 212.570312 365.304688 L 212.570312 159.382812 Z M 283.496094 159.382812 "/>
<path style=" stroke:none;fill-rule:nonzero;fill:url(#linear2);" d="M 408.75 175.75 C 404.785156 176.726562 396.335938 178.28125 395.554688 178.417969 C 395.539062 178.417969 395.539062 178.417969 395.527344 178.417969 C 374.640625 181.960938 352.890625 182.851562 340.242188 183.027344 L 236.257812 183.027344 L 236.257812 220.820312 C 236.367188 224.003906 238.125 237.773438 259.757812 238.039062 L 293.867188 238.039062 L 293.867188 365.273438 L 351.90625 365.273438 L 351.90625 237.921875 C 387.089844 237.53125 450.976562 232.976562 450.96875 204.953125 C 450.945312 176.289062 450.945312 156.125 450.929688 147.609375 C 448.4375 162.070312 430.214844 170.539062 408.75 175.75 Z M 408.75 175.75 "/>
<path style=" stroke:none;fill-rule:nonzero;fill:rgb(42.745098%,43.137255%,44.313725%);fill-opacity:1;" d="M 72.742188 388.976562 L 75.4375 388.976562 L 75.4375 407.851562 L 72.742188 407.851562 Z M 72.742188 388.976562 "/>
<path style=" stroke:none;fill-rule:nonzero;fill:rgb(42.745098%,43.137255%,44.313725%);fill-opacity:1;" d="M 78.054688 407.851562 L 78.054688 388.976562 L 80.644531 388.976562 L 84.734375 400.351562 L 84.796875 400.351562 L 84.796875 388.976562 L 87.46875 388.976562 L 87.46875 407.851562 L 84.929688 407.851562 L 80.800781 396.492188 L 80.773438 396.492188 L 80.773438 407.851562 Z M 78.054688 407.851562 "/>
<path style=" stroke:none;fill-rule:nonzero;fill:rgb(42.745098%,43.137255%,44.313725%);fill-opacity:1;" d="M 90.097656 407.851562 L 90.097656 388.976562 L 98.164062 388.976562 L 98.164062 391.523438 L 92.804688 391.523438 L 92.804688 397.257812 L 97.460938 397.257812 L 97.460938 399.796875 L 92.804688 399.796875 L 92.804688 407.851562 Z M 90.097656 407.851562 "/>
<path style=" stroke:none;fill-rule:nonzero;fill:rgb(42.745098%,43.137255%,44.313725%);fill-opacity:1;" d="M 102.585938 403.390625 C 102.585938 404.0625 102.765625 404.539062 103.117188 404.851562 C 103.484375 405.15625 103.914062 405.3125 104.421875 405.3125 C 104.921875 405.3125 105.34375 405.15625 105.710938 404.851562 C 106.0625 404.539062 106.257812 404.042969 106.257812 403.390625 L 106.257812 393.4375 C 106.257812 392.792969 106.0625 392.3125 105.710938 392.011719 C 105.34375 391.699219 104.921875 391.554688 104.421875 391.554688 C 103.925781 391.554688 103.484375 391.710938 103.117188 392.011719 C 102.765625 392.3125 102.585938 392.792969 102.585938 393.4375 Z M 99.875 393.429688 C 99.875 392.664062 100 391.992188 100.265625 391.4375 C 100.527344 390.851562 100.878906 390.351562 101.335938 389.96875 C 101.738281 389.601562 102.21875 389.316406 102.765625 389.121094 C 103.289062 388.925781 103.835938 388.820312 104.40625 388.820312 C 104.953125 388.820312 105.5 388.925781 106.023438 389.121094 C 106.570312 389.316406 107.070312 389.601562 107.53125 389.96875 C 107.929688 390.351562 108.289062 390.851562 108.535156 391.4375 C 108.820312 392.011719 108.953125 392.664062 108.953125 393.429688 L 108.953125 403.367188 C 108.953125 404.179688 108.820312 404.875 108.535156 405.421875 C 108.273438 405.984375 107.929688 406.445312 107.53125 406.816406 C 107.070312 407.195312 106.570312 407.5 106.023438 407.695312 C 105.5 407.890625 104.96875 407.976562 104.40625 407.976562 C 103.859375 407.976562 103.3125 407.890625 102.765625 407.695312 C 102.21875 407.5 101.738281 407.195312 101.335938 406.816406 C 100.878906 406.445312 100.527344 405.984375 100.265625 405.421875 C 100 404.851562 99.875 404.171875 99.875 403.367188 Z M 99.875 393.429688 "/>
<path style=" stroke:none;fill-rule:nonzero;fill:rgb(42.745098%,43.137255%,44.313725%);fill-opacity:1;" d="M 111.515625 407.851562 L 111.515625 388.976562 L 115.839844 388.976562 C 119.03125 388.976562 120.617188 390.828125 120.617188 394.523438 C 120.617188 395.625 120.4375 396.5625 120.085938 397.34375 C 119.757812 398.117188 119.132812 398.730469 118.289062 399.226562 L 121.203125 407.851562 L 118.339844 407.851562 L 115.820312 399.796875 L 114.199219 399.796875 L 114.199219 407.851562 Z M 114.199219 391.523438 L 114.199219 397.390625 L 115.75 397.390625 C 116.21875 397.390625 116.59375 397.324219 116.875 397.195312 C 117.15625 397.0625 117.390625 396.867188 117.546875 396.621094 C 117.6875 396.367188 117.773438 396.085938 117.832031 395.710938 C 117.882812 395.351562 117.898438 394.941406 117.898438 394.460938 C 117.898438 393.984375 117.882812 393.5625 117.832031 393.210938 C 117.773438 392.84375 117.675781 392.53125 117.507812 392.257812 C 117.179688 391.765625 116.542969 391.523438 115.605469 391.523438 Z M 114.199219 391.523438 "/>
<path style=" stroke:none;fill-rule:nonzero;fill:rgb(42.745098%,43.137255%,44.313725%);fill-opacity:1;" d="M 122.960938 407.851562 L 122.960938 388.976562 L 125.578125 388.976562 L 129.03125 398.964844 L 129.082031 398.964844 L 132.519531 388.976562 L 135.148438 388.976562 L 135.148438 407.851562 L 132.453125 407.851562 L 132.453125 396.347656 L 132.402344 396.347656 L 129.71875 404.484375 L 128.359375 404.484375 L 125.710938 396.347656 L 125.664062 396.347656 L 125.664062 407.851562 Z M 122.960938 407.851562 "/>
<path style=" stroke:none;fill-rule:nonzero;fill:rgb(42.745098%,43.137255%,44.313725%);fill-opacity:1;" d="M 136.6875 407.851562 L 140.898438 388.976562 L 143.144531 388.976562 L 147.351562 407.851562 L 144.65625 407.851562 L 143.847656 403.820312 L 140.175781 403.820312 L 139.367188 407.851562 Z M 143.367188 401.242188 L 142.03125 394.394531 L 141.984375 394.394531 L 140.65625 401.242188 Z M 143.367188 401.242188 "/>
<path style=" stroke:none;fill-rule:nonzero;fill:rgb(42.745098%,43.137255%,44.313725%);fill-opacity:1;" d="M 149.160156 407.851562 L 149.160156 391.523438 L 146.035156 391.523438 L 146.035156 388.976562 L 155 388.976562 L 155 391.523438 L 151.875 391.523438 L 151.875 407.851562 Z M 149.160156 407.851562 "/>
<path style=" stroke:none;fill-rule:nonzero;fill:rgb(42.745098%,43.137255%,44.313725%);fill-opacity:1;" d="M 156.386719 388.976562 L 159.09375 388.976562 L 159.09375 407.851562 L 156.386719 407.851562 Z M 156.386719 388.976562 "/>
<path style=" stroke:none;fill-rule:nonzero;fill:rgb(42.745098%,43.137255%,44.313725%);fill-opacity:1;" d="M 164.34375 403.390625 C 164.34375 404.0625 164.523438 404.539062 164.875 404.851562 C 165.242188 405.15625 165.664062 405.3125 166.179688 405.3125 C 166.671875 405.3125 167.101562 405.15625 167.46875 404.851562 C 167.820312 404.539062 168.015625 404.042969 168.015625 403.390625 L 168.015625 393.4375 C 168.015625 392.792969 167.820312 392.3125 167.46875 392.011719 C 167.101562 391.699219 166.671875 391.554688 166.179688 391.554688 C 165.683594 391.554688 165.242188 391.710938 164.875 392.011719 C 164.523438 392.3125 164.34375 392.792969 164.34375 393.4375 Z M 161.632812 393.429688 C 161.632812 392.664062 161.75 391.992188 162.011719 391.4375 C 162.285156 390.851562 162.636719 390.351562 163.09375 389.96875 C 163.496094 389.601562 163.976562 389.316406 164.523438 389.121094 C 165.046875 388.925781 165.59375 388.820312 166.164062 388.820312 C 166.710938 388.820312 167.257812 388.925781 167.78125 389.121094 C 168.328125 389.316406 168.828125 389.601562 169.289062 389.96875 C 169.6875 390.351562 170.039062 390.851562 170.292969 391.4375 C 170.566406 392.011719 170.710938 392.664062 170.710938 393.429688 L 170.710938 403.367188 C 170.710938 404.179688 170.566406 404.875 170.292969 405.421875 C 170.019531 405.984375 169.6875 406.445312 169.289062 406.816406 C 168.828125 407.195312 168.328125 407.5 167.78125 407.695312 C 167.257812 407.890625 166.726562 407.976562 166.164062 407.976562 C 165.617188 407.976562 165.070312 407.890625 164.523438 407.695312 C 163.976562 407.5 163.496094 407.195312 163.09375 406.816406 C 162.636719 406.445312 162.285156 405.984375 162.011719 405.421875 C 161.75 404.851562 161.632812 404.171875 161.632812 403.367188 Z M 161.632812 393.429688 "/>
<path style=" stroke:none;fill-rule:nonzero;fill:rgb(42.745098%,43.137255%,44.313725%);fill-opacity:1;" d="M 173.144531 407.851562 L 173.144531 388.976562 L 175.742188 388.976562 L 179.835938 400.351562 L 179.882812 400.351562 L 179.882812 388.976562 L 182.570312 388.976562 L 182.570312 407.851562 L 180.03125 407.851562 L 175.898438 396.492188 L 175.859375 396.492188 L 175.859375 407.851562 Z M 173.144531 407.851562 "/>
<path style=" stroke:none;fill-rule:nonzero;fill:rgb(42.745098%,43.137255%,44.313725%);fill-opacity:1;" d="M 191.960938 407.851562 L 191.960938 391.523438 L 188.847656 391.523438 L 188.847656 388.976562 L 197.804688 388.976562 L 197.804688 391.523438 L 194.6875 391.523438 L 194.6875 407.851562 Z M 191.960938 407.851562 "/>
<path style=" stroke:none;fill-rule:nonzero;fill:rgb(42.745098%,43.137255%,44.313725%);fill-opacity:1;" d="M 199.132812 407.851562 L 199.132812 388.976562 L 203.445312 388.976562 C 206.640625 388.976562 208.234375 390.828125 208.234375 394.523438 C 208.234375 395.625 208.054688 396.5625 207.703125 397.34375 C 207.363281 398.117188 206.75 398.730469 205.898438 399.226562 L 208.808594 407.851562 L 205.957031 407.851562 L 203.429688 399.796875 L 201.804688 399.796875 L 201.804688 407.851562 Z M 201.804688 391.523438 L 201.804688 397.390625 L 203.359375 397.390625 C 203.835938 397.390625 204.210938 397.324219 204.492188 397.195312 C 204.773438 397.0625 205 396.867188 205.164062 396.621094 C 205.304688 396.367188 205.390625 396.085938 205.4375 395.710938 C 205.5 395.351562 205.515625 394.941406 205.515625 394.460938 C 205.515625 393.984375 205.5 393.5625 205.4375 393.210938 C 205.390625 392.84375 205.28125 392.53125 205.125 392.257812 C 204.796875 391.765625 204.160156 391.523438 203.222656 391.523438 Z M 201.804688 391.523438 "/>
<path style=" stroke:none;fill-rule:nonzero;fill:rgb(42.745098%,43.137255%,44.313725%);fill-opacity:1;" d="M 209.355469 407.851562 L 213.574219 388.976562 L 215.8125 388.976562 L 220.03125 407.851562 L 217.335938 407.851562 L 216.523438 403.820312 L 212.851562 403.820312 L 212.039062 407.851562 Z M 216.046875 401.242188 L 214.707031 394.394531 L 214.648438 394.394531 L 213.328125 401.242188 Z M 216.046875 401.242188 "/>
<path style=" stroke:none;fill-rule:nonzero;fill:rgb(42.745098%,43.137255%,44.313725%);fill-opacity:1;" d="M 221.40625 407.851562 L 221.40625 388.976562 L 224.015625 388.976562 L 228.09375 400.351562 L 228.144531 400.351562 L 228.144531 388.976562 L 230.839844 388.976562 L 230.839844 407.851562 L 228.300781 407.851562 L 224.160156 396.492188 L 224.121094 396.492188 L 224.121094 407.851562 Z M 221.40625 407.851562 "/>
<path style=" stroke:none;fill-rule:nonzero;fill:rgb(42.745098%,43.137255%,44.313725%);fill-opacity:1;" d="M 242.207031 394.394531 L 239.5 394.394531 L 239.5 393.796875 C 239.5 393.164062 239.34375 392.625 239.042969 392.1875 C 238.75 391.726562 238.273438 391.523438 237.578125 391.523438 C 237.226562 391.523438 236.914062 391.59375 236.679688 391.726562 C 236.453125 391.875 236.28125 392.050781 236.132812 392.257812 C 235.996094 392.492188 235.890625 392.753906 235.839844 393.054688 C 235.78125 393.339844 235.761719 393.632812 235.761719 393.953125 C 235.761719 394.328125 235.78125 394.640625 235.800781 394.902344 C 235.820312 395.136719 235.890625 395.359375 236.015625 395.554688 C 236.113281 395.75 236.257812 395.90625 236.476562 396.074219 C 236.679688 396.210938 236.960938 396.347656 237.3125 396.492188 L 239.382812 397.324219 C 239.980469 397.546875 240.460938 397.8125 240.828125 398.132812 C 241.203125 398.4375 241.492188 398.808594 241.6875 399.210938 C 241.882812 399.617188 242.03125 400.085938 242.078125 400.632812 C 242.148438 401.171875 242.1875 401.789062 242.1875 402.492188 C 242.1875 403.28125 242.101562 404.023438 241.945312 404.71875 C 241.777344 405.382812 241.53125 405.96875 241.179688 406.445312 C 240.8125 406.933594 240.3125 407.324219 239.71875 407.609375 C 239.121094 407.890625 238.378906 408.027344 237.507812 408.027344 C 236.855469 408.027344 236.257812 407.910156 235.671875 407.695312 C 235.117188 407.460938 234.640625 407.148438 234.226562 406.738281 C 233.808594 406.335938 233.484375 405.878906 233.242188 405.332031 C 233.015625 404.804688 232.890625 404.199219 232.890625 403.5625 L 232.890625 402.578125 L 235.605469 402.578125 L 235.605469 403.429688 C 235.605469 403.914062 235.75 404.367188 236.046875 404.765625 C 236.347656 405.175781 236.84375 405.359375 237.507812 405.359375 C 237.96875 405.359375 238.339844 405.292969 238.585938 405.175781 C 238.847656 405.03125 239.042969 404.835938 239.1875 404.589844 C 239.328125 404.34375 239.414062 404.042969 239.433594 403.710938 C 239.472656 403.359375 239.484375 402.96875 239.484375 402.558594 C 239.484375 402.070312 239.472656 401.640625 239.433594 401.347656 C 239.394531 401.007812 239.328125 400.761719 239.21875 400.566406 C 239.101562 400.351562 238.925781 400.214844 238.710938 400.085938 C 238.515625 399.96875 238.25 399.824219 237.921875 399.707031 L 235.976562 398.898438 C 234.8125 398.417969 234.023438 397.78125 233.613281 397 C 233.203125 396.210938 233.015625 395.226562 233.015625 394.042969 C 233.015625 393.339844 233.105469 392.648438 233.289062 392.03125 C 233.484375 391.398438 233.789062 390.828125 234.179688 390.371094 C 234.550781 389.914062 235.019531 389.5625 235.605469 389.277344 C 236.191406 388.992188 236.855469 388.875 237.65625 388.875 C 238.320312 388.875 238.925781 388.992188 239.472656 389.25 C 240.03125 389.472656 240.507812 389.804688 240.917969 390.234375 C 241.726562 391.074219 242.128906 392.050781 242.128906 393.144531 L 242.128906 394.394531 Z M 242.207031 394.394531 "/>
<path style=" stroke:none;fill-rule:nonzero;fill:rgb(42.745098%,43.137255%,44.313725%);fill-opacity:1;" d="M 244.394531 407.851562 L 244.394531 388.976562 L 252.453125 388.976562 L 252.453125 391.523438 L 247.070312 391.523438 L 247.070312 397.257812 L 251.75 397.257812 L 251.75 399.796875 L 247.070312 399.796875 L 247.070312 407.851562 Z M 244.394531 407.851562 "/>
<path style=" stroke:none;fill-rule:nonzero;fill:rgb(42.745098%,43.137255%,44.313725%);fill-opacity:1;" d="M 256.875 403.390625 C 256.875 404.0625 257.0625 404.539062 257.414062 404.851562 C 257.78125 405.15625 258.203125 405.3125 258.710938 405.3125 C 259.210938 405.3125 259.628906 405.15625 260 404.851562 C 260.351562 404.539062 260.546875 404.042969 260.546875 403.390625 L 260.546875 393.4375 C 260.546875 392.792969 260.351562 392.3125 260 392.011719 C 259.628906 391.699219 259.210938 391.554688 258.710938 391.554688 C 258.222656 391.554688 257.78125 391.710938 257.414062 392.011719 C 257.0625 392.3125 256.875 392.792969 256.875 393.4375 Z M 254.160156 393.429688 C 254.160156 392.664062 254.289062 391.992188 254.550781 391.4375 C 254.8125 390.851562 255.164062 390.351562 255.625 389.96875 C 256.035156 389.601562 256.515625 389.316406 257.0625 389.121094 C 257.585938 388.925781 258.132812 388.820312 258.691406 388.820312 C 259.257812 388.820312 259.785156 388.925781 260.320312 389.121094 C 260.867188 389.316406 261.359375 389.601562 261.816406 389.96875 C 262.226562 390.351562 262.578125 390.851562 262.820312 391.4375 C 263.105469 392.011719 263.242188 392.664062 263.242188 393.429688 L 263.242188 403.367188 C 263.242188 404.179688 263.105469 404.875 262.820312 405.421875 C 262.558594 405.984375 262.226562 406.445312 261.816406 406.816406 C 261.359375 407.195312 260.867188 407.5 260.320312 407.695312 C 259.785156 407.890625 259.257812 407.976562 258.691406 407.976562 C 258.132812 407.976562 257.597656 407.890625 257.0625 407.695312 C 256.515625 407.5 256.035156 407.195312 255.625 406.816406 C 255.164062 406.445312 254.8125 405.984375 254.550781 405.421875 C 254.289062 404.851562 254.160156 404.171875 254.160156 403.367188 Z M 254.160156 393.429688 "/>
<path style=" stroke:none;fill-rule:nonzero;fill:rgb(42.745098%,43.137255%,44.313725%);fill-opacity:1;" d="M 265.789062 407.851562 L 265.789062 388.976562 L 270.109375 388.976562 C 273.300781 388.976562 274.890625 390.828125 274.890625 394.523438 C 274.890625 395.625 274.71875 396.5625 274.355469 397.34375 C 274.023438 398.117188 273.40625 398.730469 272.558594 399.226562 L 275.46875 407.851562 L 272.617188 407.851562 L 270.085938 399.796875 L 268.46875 399.796875 L 268.46875 407.851562 Z M 268.484375 391.523438 L 268.484375 397.390625 L 270.039062 397.390625 C 270.515625 397.390625 270.890625 397.324219 271.171875 397.195312 C 271.445312 397.0625 271.679688 396.867188 271.835938 396.621094 C 271.984375 396.367188 272.070312 396.085938 272.117188 395.710938 C 272.167969 395.351562 272.1875 394.941406 272.1875 394.460938 C 272.1875 393.984375 272.167969 393.5625 272.117188 393.210938 C 272.070312 392.84375 271.960938 392.53125 271.804688 392.257812 C 271.464844 391.765625 270.828125 391.523438 269.890625 391.523438 Z M 268.484375 391.523438 "/>
<path style=" stroke:none;fill-rule:nonzero;fill:rgb(42.745098%,43.137255%,44.313725%);fill-opacity:1;" d="M 277.257812 407.851562 L 277.257812 388.976562 L 279.84375 388.976562 L 283.300781 398.964844 L 283.367188 398.964844 L 286.816406 388.976562 L 289.421875 388.976562 L 289.421875 407.851562 L 286.738281 407.851562 L 286.738281 396.347656 L 286.6875 396.347656 L 284.003906 404.484375 L 282.648438 404.484375 L 280 396.347656 L 279.929688 396.347656 L 279.929688 407.851562 Z M 277.257812 407.851562 "/>
<path style=" stroke:none;fill-rule:nonzero;fill:rgb(42.745098%,43.137255%,44.313725%);fill-opacity:1;" d="M 290.976562 407.851562 L 295.195312 388.976562 L 297.429688 388.976562 L 301.648438 407.851562 L 298.945312 407.851562 L 298.132812 403.820312 L 294.472656 403.820312 L 293.652344 407.851562 Z M 297.65625 401.242188 L 296.320312 394.394531 L 296.269531 394.394531 L 294.941406 401.242188 Z M 297.65625 401.242188 "/>
<path style=" stroke:none;fill-rule:nonzero;fill:rgb(42.745098%,43.137255%,44.313725%);fill-opacity:1;" d="M 303.429688 407.851562 L 303.429688 391.523438 L 300.304688 391.523438 L 300.304688 388.976562 L 309.265625 388.976562 L 309.265625 391.523438 L 306.140625 391.523438 L 306.140625 407.851562 Z M 303.429688 407.851562 "/>
<path style=" stroke:none;fill-rule:nonzero;fill:rgb(42.745098%,43.137255%,44.313725%);fill-opacity:1;" d="M 310.683594 388.976562 L 313.378906 388.976562 L 313.378906 407.851562 L 310.683594 407.851562 Z M 310.683594 388.976562 "/>
<path style=" stroke:none;fill-rule:nonzero;fill:rgb(42.745098%,43.137255%,44.313725%);fill-opacity:1;" d="M 318.613281 403.390625 C 318.613281 404.0625 318.789062 404.539062 319.148438 404.851562 C 319.511719 405.15625 319.941406 405.3125 320.449219 405.3125 C 320.945312 405.3125 321.367188 405.15625 321.738281 404.851562 C 322.089844 404.539062 322.285156 404.042969 322.285156 403.390625 L 322.285156 393.4375 C 322.285156 392.792969 322.089844 392.3125 321.738281 392.011719 C 321.367188 391.699219 320.945312 391.554688 320.449219 391.554688 C 319.960938 391.554688 319.511719 391.710938 319.148438 392.011719 C 318.789062 392.3125 318.613281 392.792969 318.613281 393.4375 Z M 315.917969 393.429688 C 315.917969 392.664062 316.046875 391.992188 316.308594 391.4375 C 316.570312 390.851562 316.921875 390.351562 317.382812 389.96875 C 317.78125 389.601562 318.261719 389.316406 318.808594 389.121094 C 319.335938 388.925781 319.882812 388.820312 320.449219 388.820312 C 321.015625 388.820312 321.542969 388.925781 322.070312 389.121094 C 322.617188 389.316406 323.117188 389.601562 323.574219 389.96875 C 323.976562 390.351562 324.335938 390.851562 324.578125 391.4375 C 324.863281 392.011719 325 392.664062 325 393.429688 L 325 403.367188 C 325 404.179688 324.863281 404.875 324.578125 405.421875 C 324.316406 405.984375 323.976562 406.445312 323.574219 406.816406 C 323.117188 407.195312 322.617188 407.5 322.070312 407.695312 C 321.542969 407.890625 321.015625 407.976562 320.449219 407.976562 C 319.882812 407.976562 319.355469 407.890625 318.808594 407.695312 C 318.261719 407.5 317.78125 407.195312 317.382812 406.816406 C 316.921875 406.445312 316.570312 405.984375 316.308594 405.421875 C 316.046875 404.851562 315.917969 404.171875 315.917969 403.367188 Z M 315.917969 393.429688 "/>
<path style=" stroke:none;fill-rule:nonzero;fill:rgb(42.745098%,43.137255%,44.313725%);fill-opacity:1;" d="M 327.421875 407.851562 L 327.421875 388.976562 L 330.03125 388.976562 L 334.101562 400.351562 L 334.160156 400.351562 L 334.160156 388.976562 L 336.855469 388.976562 L 336.855469 407.851562 L 334.316406 407.851562 L 330.164062 396.492188 L 330.136719 396.492188 L 330.136719 407.851562 Z M 327.421875 407.851562 "/>
<path style=" stroke:none;fill-rule:nonzero;fill:rgb(42.745098%,43.137255%,44.313725%);fill-opacity:1;" d="M 346.242188 407.851562 L 346.242188 391.523438 L 343.117188 391.523438 L 343.117188 388.976562 L 352.078125 388.976562 L 352.078125 391.523438 L 348.953125 391.523438 L 348.953125 407.851562 Z M 346.242188 407.851562 "/>
<path style=" stroke:none;fill-rule:nonzero;fill:rgb(42.745098%,43.137255%,44.313725%);fill-opacity:1;" d="M 353.398438 407.851562 L 353.398438 388.976562 L 361.464844 388.976562 L 361.464844 391.523438 L 356.101562 391.523438 L 356.101562 397.0625 L 360.773438 397.0625 L 360.773438 399.601562 L 356.101562 399.601562 L 356.101562 405.136719 L 361.464844 405.136719 L 361.464844 407.851562 Z M 353.398438 407.851562 "/>
<path style=" stroke:none;fill-rule:nonzero;fill:rgb(42.745098%,43.137255%,44.313725%);fill-opacity:1;" d="M 371.945312 402.453125 L 371.945312 403.625 C 371.945312 404.199219 371.835938 404.765625 371.601562 405.292969 C 371.398438 405.8125 371.09375 406.269531 370.683594 406.671875 C 370.304688 407.078125 369.84375 407.390625 369.304688 407.625 C 368.796875 407.851562 368.234375 407.976562 367.636719 407.976562 C 367.128906 407.976562 366.59375 407.910156 366.046875 407.765625 C 365.515625 407.625 365.039062 407.375 364.640625 407.023438 C 364.210938 406.671875 363.859375 406.210938 363.574219 405.664062 C 363.300781 405.097656 363.15625 404.394531 363.15625 403.515625 L 363.15625 393.125 C 363.15625 392.507812 363.261719 391.945312 363.476562 391.414062 C 363.679688 390.867188 363.984375 390.410156 364.375 390.019531 C 364.757812 389.628906 365.214844 389.335938 365.761719 389.121094 C 366.308594 388.886719 366.914062 388.789062 367.570312 388.789062 C 368.835938 388.789062 369.851562 389.1875 370.671875 390.019531 C 371.054688 390.4375 371.359375 390.917969 371.582031 391.464844 C 371.816406 392.011719 371.921875 392.617188 371.921875 393.261719 L 371.921875 394.34375 L 369.210938 394.34375 L 369.210938 393.4375 C 369.210938 392.910156 369.042969 392.453125 368.75 392.070312 C 368.445312 391.679688 368.039062 391.484375 367.53125 391.484375 C 366.855469 391.484375 366.414062 391.699219 366.191406 392.101562 C 365.976562 392.53125 365.867188 393.054688 365.867188 393.691406 L 365.867188 403.339844 C 365.867188 403.886719 365.996094 404.367188 366.21875 404.726562 C 366.453125 405.097656 366.894531 405.273438 367.492188 405.273438 C 367.675781 405.273438 367.859375 405.242188 368.054688 405.1875 C 368.273438 405.117188 368.46875 405.03125 368.640625 404.890625 C 368.796875 404.726562 368.925781 404.539062 369.015625 404.304688 C 369.132812 404.0625 369.1875 403.742188 369.1875 403.359375 L 369.1875 402.441406 L 371.945312 402.441406 Z M 371.945312 402.453125 "/>
<path style=" stroke:none;fill-rule:nonzero;fill:rgb(42.745098%,43.137255%,44.313725%);fill-opacity:1;" d="M 374.304688 407.851562 L 374.304688 388.976562 L 377 388.976562 L 377 397.0625 L 380.351562 397.0625 L 380.351562 388.976562 L 383.039062 388.976562 L 383.039062 407.851562 L 380.351562 407.851562 L 380.351562 399.445312 L 377 399.445312 L 377 407.851562 Z M 374.304688 407.851562 "/>
<path style=" stroke:none;fill-rule:nonzero;fill:rgb(42.745098%,43.137255%,44.313725%);fill-opacity:1;" d="M 385.644531 407.851562 L 385.644531 388.976562 L 388.242188 388.976562 L 392.335938 400.351562 L 392.382812 400.351562 L 392.382812 388.976562 L 395.078125 388.976562 L 395.078125 407.851562 L 392.539062 407.851562 L 388.398438 396.492188 L 388.359375 396.492188 L 388.359375 407.851562 Z M 385.644531 407.851562 "/>
<path style=" stroke:none;fill-rule:nonzero;fill:rgb(42.745098%,43.137255%,44.313725%);fill-opacity:1;" d="M 400.234375 403.390625 C 400.234375 404.0625 400.410156 404.539062 400.761719 404.851562 C 401.132812 405.15625 401.554688 405.3125 402.070312 405.3125 C 402.558594 405.3125 402.988281 405.15625 403.359375 404.851562 C 403.710938 404.539062 403.90625 404.042969 403.90625 403.390625 L 403.90625 393.4375 C 403.90625 392.792969 403.710938 392.3125 403.359375 392.011719 C 402.988281 391.699219 402.558594 391.554688 402.070312 391.554688 C 401.570312 391.554688 401.132812 391.710938 400.761719 392.011719 C 400.410156 392.3125 400.234375 392.792969 400.234375 393.4375 Z M 397.53125 393.429688 C 397.53125 392.664062 397.65625 391.992188 397.921875 391.4375 C 398.183594 390.851562 398.535156 390.351562 398.992188 389.96875 C 399.40625 389.601562 399.882812 389.316406 400.429688 389.121094 C 400.957031 388.925781 401.503906 388.820312 402.070312 388.820312 C 402.625 388.820312 403.164062 388.925781 403.691406 389.121094 C 404.238281 389.316406 404.726562 389.601562 405.1875 389.96875 C 405.59375 390.351562 405.945312 390.851562 406.191406 391.4375 C 406.476562 392.011719 406.621094 392.664062 406.621094 393.429688 L 406.621094 403.367188 C 406.621094 404.179688 406.476562 404.875 406.191406 405.421875 C 405.929688 405.984375 405.59375 406.445312 405.1875 406.816406 C 404.726562 407.195312 404.238281 407.5 403.691406 407.695312 C 403.164062 407.890625 402.625 407.976562 402.070312 407.976562 C 401.503906 407.976562 400.976562 407.890625 400.429688 407.695312 C 399.882812 407.5 399.40625 407.195312 398.992188 406.816406 C 398.535156 406.445312 398.183594 405.984375 397.921875 405.421875 C 397.65625 404.851562 397.53125 404.171875 397.53125 403.367188 Z M 397.53125 393.429688 "/>
<path style=" stroke:none;fill-rule:nonzero;fill:rgb(42.745098%,43.137255%,44.313725%);fill-opacity:1;" d="M 409.160156 407.851562 L 409.160156 388.976562 L 411.835938 388.976562 L 411.835938 405.136719 L 417.21875 405.136719 L 417.21875 407.851562 Z M 409.160156 407.851562 "/>
<path style=" stroke:none;fill-rule:nonzero;fill:rgb(42.745098%,43.137255%,44.313725%);fill-opacity:1;" d="M 421.648438 403.390625 C 421.648438 404.0625 421.828125 404.539062 422.179688 404.851562 C 422.546875 405.15625 422.96875 405.3125 423.476562 405.3125 C 423.976562 405.3125 424.394531 405.15625 424.765625 404.851562 C 425.117188 404.539062 425.3125 404.042969 425.3125 403.390625 L 425.3125 393.4375 C 425.3125 392.792969 425.117188 392.3125 424.765625 392.011719 C 424.394531 391.699219 423.976562 391.554688 423.476562 391.554688 C 422.988281 391.554688 422.546875 391.710938 422.179688 392.011719 C 421.828125 392.3125 421.648438 392.792969 421.648438 393.4375 Z M 418.925781 393.429688 C 418.925781 392.664062 419.054688 391.992188 419.316406 391.4375 C 419.578125 390.851562 419.929688 390.351562 420.390625 389.96875 C 420.800781 389.601562 421.28125 389.316406 421.828125 389.121094 C 422.351562 388.925781 422.898438 388.820312 423.46875 388.820312 C 424.023438 388.820312 424.5625 388.925781 425.085938 389.121094 C 425.632812 389.316406 426.125 389.601562 426.582031 389.96875 C 426.992188 390.351562 427.34375 390.851562 427.585938 391.4375 C 427.871094 392.011719 428.015625 392.664062 428.015625 393.429688 L 428.015625 403.367188 C 428.015625 404.179688 427.871094 404.875 427.585938 405.421875 C 427.324219 405.984375 426.992188 406.445312 426.582031 406.816406 C 426.125 407.195312 425.632812 407.5 425.085938 407.695312 C 424.5625 407.890625 424.023438 407.976562 423.46875 407.976562 C 422.898438 407.976562 422.375 407.890625 421.828125 407.695312 C 421.28125 407.5 420.800781 407.195312 420.390625 406.816406 C 419.929688 406.445312 419.578125 405.984375 419.316406 405.421875 C 419.054688 404.851562 418.925781 404.171875 418.925781 403.367188 Z M 418.925781 393.429688 "/>
<path style=" stroke:none;fill-rule:nonzero;fill:rgb(42.745098%,43.137255%,44.313725%);fill-opacity:1;" d="M 430.398438 393.429688 C 430.398438 392.664062 430.515625 391.992188 430.78125 391.4375 C 431.046875 390.851562 431.398438 390.351562 431.855469 389.96875 C 432.265625 389.601562 432.742188 389.316406 433.289062 389.121094 C 433.820312 388.925781 434.367188 388.820312 434.929688 388.820312 C 435.476562 388.820312 436.023438 388.925781 436.554688 389.121094 C 437.101562 389.316406 437.585938 389.601562 438.046875 389.96875 C 438.457031 390.351562 438.808594 390.851562 439.054688 391.4375 C 439.335938 392.011719 439.484375 392.664062 439.484375 393.429688 L 439.484375 394.375 L 436.765625 394.375 L 436.765625 393.429688 C 436.765625 392.773438 436.570312 392.296875 436.21875 391.992188 C 435.851562 391.679688 435.421875 391.53125 434.929688 391.53125 C 434.433594 391.53125 433.992188 391.699219 433.625 391.992188 C 433.273438 392.296875 433.09375 392.773438 433.09375 393.429688 L 433.09375 403.367188 C 433.09375 404.042969 433.273438 404.523438 433.625 404.835938 C 433.992188 405.136719 434.414062 405.292969 434.929688 405.292969 C 435.421875 405.292969 435.851562 405.136719 436.21875 404.835938 C 436.570312 404.523438 436.765625 404.023438 436.765625 403.367188 L 436.765625 399.824219 L 434.609375 399.824219 L 434.609375 397.441406 L 439.484375 397.441406 L 439.484375 403.367188 C 439.484375 404.179688 439.335938 404.875 439.054688 405.421875 C 438.789062 405.984375 438.457031 406.445312 438.046875 406.816406 C 437.585938 407.195312 437.101562 407.5 436.554688 407.695312 C 436.023438 407.890625 435.5 407.976562 434.929688 407.976562 C 434.382812 407.976562 433.835938 407.890625 433.289062 407.695312 C 432.742188 407.5 432.265625 407.195312 431.855469 406.816406 C 431.398438 406.445312 431.046875 405.984375 430.78125 405.421875 C 430.515625 404.851562 430.398438 404.171875 430.398438 403.367188 Z M 430.398438 393.429688 "/>
<path style=" stroke:none;fill-rule:nonzero;fill:rgb(42.745098%,43.137255%,44.313725%);fill-opacity:1;" d="M 444.523438 407.851562 L 444.523438 399.863281 L 440.820312 388.976562 L 443.679688 388.976562 L 445.867188 396.476562 L 445.917969 396.476562 L 448.085938 388.976562 L 450.945312 388.976562 L 447.246094 399.863281 L 447.246094 407.851562 Z M 444.523438 407.851562 "/>
</g>
</svg>
