<?xml version="1.0" encoding="UTF-8"?>
<svg xmlns="http://www.w3.org/2000/svg" xmlns:xlink="http://www.w3.org/1999/xlink" width="250px" height="250px" viewBox="0 0 250 249" version="1.1">
<defs>
<linearGradient id="linear0" gradientUnits="userSpaceOnUse" x1="41.2433" y1="156.03" x2="74.1402" y2="156.03" gradientTransform="matrix(0.881959,0,0,0.878431,0,0)">
<stop offset="0" style="stop-color:rgb(0%,72.941176%,81.176471%);stop-opacity:1;"/>
<stop offset="0.4485" style="stop-color:rgb(0%,72.156863%,82.745098%);stop-opacity:1;"/>
<stop offset="0.8854" style="stop-color:rgb(0%,69.411765%,87.45098%);stop-opacity:1;"/>
<stop offset="1" style="stop-color:rgb(0%,68.235294%,89.019608%);stop-opacity:1;"/>
</linearGradient>
<linearGradient id="linear1" gradientUnits="userSpaceOnUse" x1="41.2432" y1="133.1967" x2="255.6877" y2="133.1967" gradientTransform="matrix(0.881959,0,0,0.878431,0,0)">
<stop offset="0" style="stop-color:rgb(0%,68.235294%,89.019608%);stop-opacity:1;"/>
<stop offset="0.1788" style="stop-color:rgb(0.392157%,67.058824%,87.45098%);stop-opacity:1;"/>
<stop offset="0.3485" style="stop-color:rgb(1.176471%,63.921569%,83.137255%);stop-opacity:1;"/>
<stop offset="0.5146" style="stop-color:rgb(2.352941%,58.039216%,75.686275%);stop-opacity:1;"/>
<stop offset="0.6784" style="stop-color:rgb(3.921569%,50.196078%,65.098039%);stop-opacity:1;"/>
<stop offset="0.8393" style="stop-color:rgb(6.27451%,40%,51.372549%);stop-opacity:1;"/>
<stop offset="0.9982" style="stop-color:rgb(9.019608%,27.45098%,35.294118%);stop-opacity:1;"/>
<stop offset="1" style="stop-color:rgb(9.019608%,27.45098%,34.901961%);stop-opacity:1;"/>
</linearGradient>
<linearGradient id="linear2" gradientUnits="userSpaceOnUse" x1="133.9414" y1="145.3792" x2="255.6582" y2="145.3792" gradientTransform="matrix(0.881959,0,0,0.878431,0,0)">
<stop offset="0" style="stop-color:rgb(0%,68.235294%,89.019608%);stop-opacity:1;"/>
<stop offset="1" style="stop-color:rgb(0%,72.941176%,81.176471%);stop-opacity:1;"/>
</linearGradient>
</defs>
<g id="surface1">
<path style=" stroke:none;fill-rule:nonzero;fill:url(#linear0);" d="M 56.984375 92.21875 L 36.371094 92.21875 L 36.371094 181.90625 L 65.386719 181.90625 L 65.386719 104.03125 C 65.308594 93.5625 58.898438 92.347656 56.984375 92.21875 Z M 56.984375 92.21875 "/>
<path style=" stroke:none;fill-rule:nonzero;fill:url(#linear1);" d="M 141.75 79.375 C 155.65625 79.417969 185.230469 79.867188 197.761719 88.851562 C 211.148438 86.597656 223.972656 82.160156 225.464844 73.507812 C 227.238281 54.050781 169.089844 52.136719 147.179688 52.109375 C 142.117188 52.101562 36.371094 52.195312 36.371094 52.195312 L 36.371094 70.96875 C 36.417969 72.460938 37.199219 79.601562 48.453125 79.601562 L 77.25 79.601562 L 77.25 181.921875 L 106.285156 181.921875 L 106.285156 79.375 Z M 141.75 79.375 "/>
<path style=" stroke:none;fill-rule:nonzero;fill:url(#linear2);" d="M 204.375 87.527344 C 202.390625 88.011719 198.167969 88.78125 197.777344 88.851562 C 197.769531 88.851562 197.769531 88.851562 197.761719 88.851562 C 187.320312 90.617188 176.445312 91.058594 170.121094 91.144531 L 118.128906 91.144531 L 118.128906 109.972656 C 118.183594 111.550781 119.0625 118.414062 129.878906 118.542969 L 146.933594 118.542969 L 146.933594 181.90625 L 175.949219 181.90625 L 175.949219 118.484375 C 193.546875 118.289062 225.492188 116.023438 225.480469 102.066406 C 225.472656 87.789062 225.472656 77.75 225.464844 73.507812 C 224.21875 80.710938 215.109375 84.925781 204.375 87.527344 Z M 204.375 87.527344 "/>
<path style=" stroke:none;fill-rule:nonzero;fill:rgb(42.745098%,43.137255%,44.313725%);fill-opacity:1;" d="M 36.371094 193.710938 L 37.722656 193.710938 L 37.722656 203.109375 L 36.371094 203.109375 Z M 36.371094 193.710938 "/>
<path style=" stroke:none;fill-rule:nonzero;fill:rgb(42.745098%,43.137255%,44.313725%);fill-opacity:1;" d="M 39.027344 203.109375 L 39.027344 193.710938 L 40.324219 193.710938 L 42.371094 199.378906 L 42.394531 199.378906 L 42.394531 193.710938 L 43.738281 193.710938 L 43.738281 203.109375 L 42.464844 203.109375 L 40.402344 197.453125 L 40.386719 197.453125 L 40.386719 203.109375 Z M 39.027344 203.109375 "/>
<path style=" stroke:none;fill-rule:nonzero;fill:rgb(42.745098%,43.137255%,44.313725%);fill-opacity:1;" d="M 45.050781 203.109375 L 45.050781 193.710938 L 49.082031 193.710938 L 49.082031 194.976562 L 46.398438 194.976562 L 46.398438 197.832031 L 48.726562 197.832031 L 48.726562 199.097656 L 46.398438 199.097656 L 46.398438 203.109375 Z M 45.050781 203.109375 "/>
<path style=" stroke:none;fill-rule:nonzero;fill:rgb(42.745098%,43.137255%,44.313725%);fill-opacity:1;" d="M 51.292969 200.886719 C 51.292969 201.222656 51.382812 201.460938 51.558594 201.617188 C 51.746094 201.765625 51.957031 201.847656 52.210938 201.847656 C 52.457031 201.847656 52.671875 201.765625 52.855469 201.617188 C 53.03125 201.460938 53.128906 201.214844 53.128906 200.886719 L 53.128906 195.933594 C 53.128906 195.609375 53.03125 195.371094 52.855469 195.222656 C 52.671875 195.0625 52.457031 194.992188 52.210938 194.992188 C 51.964844 194.992188 51.746094 195.074219 51.558594 195.222656 C 51.382812 195.371094 51.292969 195.609375 51.292969 195.933594 Z M 49.9375 195.925781 C 49.9375 195.546875 50 195.214844 50.128906 194.933594 C 50.261719 194.644531 50.4375 194.398438 50.667969 194.203125 C 50.871094 194.019531 51.109375 193.878906 51.382812 193.78125 C 51.648438 193.683594 51.921875 193.632812 52.203125 193.632812 C 52.476562 193.632812 52.75 193.683594 53.015625 193.78125 C 53.289062 193.878906 53.535156 194.019531 53.765625 194.203125 C 53.96875 194.398438 54.144531 194.644531 54.265625 194.933594 C 54.40625 195.222656 54.480469 195.546875 54.480469 195.925781 L 54.480469 200.878906 C 54.480469 201.285156 54.40625 201.625 54.265625 201.898438 C 54.132812 202.179688 53.96875 202.40625 53.765625 202.59375 C 53.535156 202.785156 53.289062 202.933594 53.015625 203.03125 C 52.75 203.128906 52.484375 203.171875 52.203125 203.171875 C 51.929688 203.171875 51.65625 203.128906 51.382812 203.03125 C 51.109375 202.933594 50.871094 202.785156 50.667969 202.59375 C 50.4375 202.40625 50.261719 202.179688 50.128906 201.898438 C 50 201.617188 49.9375 201.273438 49.9375 200.878906 Z M 49.9375 195.925781 "/>
<path style=" stroke:none;fill-rule:nonzero;fill:rgb(42.745098%,43.137255%,44.313725%);fill-opacity:1;" d="M 55.757812 203.109375 L 55.757812 193.710938 L 57.917969 193.710938 C 59.515625 193.710938 60.308594 194.632812 60.308594 196.46875 C 60.308594 197.023438 60.21875 197.488281 60.042969 197.875 C 59.875 198.261719 59.566406 198.570312 59.144531 198.816406 L 60.597656 203.109375 L 59.171875 203.109375 L 57.910156 199.097656 L 57.097656 199.097656 L 57.097656 203.109375 Z M 57.097656 194.976562 L 57.097656 197.902344 L 57.875 197.902344 C 58.113281 197.902344 58.296875 197.867188 58.4375 197.804688 C 58.578125 197.734375 58.695312 197.636719 58.773438 197.515625 C 58.84375 197.390625 58.886719 197.25 58.914062 197.066406 C 58.941406 196.882812 58.949219 196.679688 58.949219 196.445312 C 58.949219 196.207031 58.941406 195.996094 58.914062 195.820312 C 58.886719 195.636719 58.835938 195.476562 58.757812 195.34375 C 58.589844 195.097656 58.269531 194.976562 57.804688 194.976562 Z M 57.097656 194.976562 "/>
<path style=" stroke:none;fill-rule:nonzero;fill:rgb(42.745098%,43.137255%,44.313725%);fill-opacity:1;" d="M 61.480469 203.109375 L 61.480469 193.710938 L 62.785156 193.710938 L 64.515625 198.683594 L 64.542969 198.683594 L 66.261719 193.710938 L 67.574219 193.710938 L 67.574219 203.109375 L 66.226562 203.109375 L 66.226562 197.382812 L 66.199219 197.382812 L 64.859375 201.433594 L 64.179688 201.433594 L 62.855469 197.382812 L 62.832031 197.382812 L 62.832031 203.109375 Z M 61.480469 203.109375 "/>
<path style=" stroke:none;fill-rule:nonzero;fill:rgb(42.745098%,43.137255%,44.313725%);fill-opacity:1;" d="M 68.34375 203.109375 L 70.449219 193.710938 L 71.570312 193.710938 L 73.679688 203.109375 L 72.328125 203.109375 L 71.921875 201.097656 L 70.089844 201.097656 L 69.683594 203.109375 Z M 71.6875 199.816406 L 71.015625 196.410156 L 70.988281 196.410156 L 70.328125 199.816406 Z M 71.6875 199.816406 "/>
<path style=" stroke:none;fill-rule:nonzero;fill:rgb(42.745098%,43.137255%,44.313725%);fill-opacity:1;" d="M 74.578125 203.109375 L 74.578125 194.976562 L 73.015625 194.976562 L 73.015625 193.710938 L 77.496094 193.710938 L 77.496094 194.976562 L 75.9375 194.976562 L 75.9375 203.109375 Z M 74.578125 203.109375 "/>
<path style=" stroke:none;fill-rule:nonzero;fill:rgb(42.745098%,43.137255%,44.313725%);fill-opacity:1;" d="M 78.195312 193.710938 L 79.542969 193.710938 L 79.542969 203.109375 L 78.195312 203.109375 Z M 78.195312 193.710938 "/>
<path style=" stroke:none;fill-rule:nonzero;fill:rgb(42.745098%,43.137255%,44.313725%);fill-opacity:1;" d="M 82.171875 200.886719 C 82.171875 201.222656 82.261719 201.460938 82.4375 201.617188 C 82.621094 201.765625 82.832031 201.847656 83.089844 201.847656 C 83.335938 201.847656 83.546875 201.765625 83.734375 201.617188 C 83.910156 201.460938 84.007812 201.214844 84.007812 200.886719 L 84.007812 195.933594 C 84.007812 195.609375 83.910156 195.371094 83.734375 195.222656 C 83.546875 195.0625 83.335938 194.992188 83.089844 194.992188 C 82.84375 194.992188 82.621094 195.074219 82.4375 195.222656 C 82.261719 195.371094 82.171875 195.609375 82.171875 195.933594 Z M 80.8125 195.925781 C 80.8125 195.546875 80.875 195.214844 81.007812 194.933594 C 81.140625 194.644531 81.316406 194.398438 81.546875 194.203125 C 81.75 194.019531 81.988281 193.878906 82.261719 193.78125 C 82.523438 193.683594 82.796875 193.632812 83.082031 193.632812 C 83.355469 193.632812 83.628906 193.683594 83.890625 193.78125 C 84.164062 193.878906 84.414062 194.019531 84.640625 194.203125 C 84.84375 194.398438 85.019531 194.644531 85.144531 194.933594 C 85.285156 195.222656 85.355469 195.546875 85.355469 195.925781 L 85.355469 200.878906 C 85.355469 201.285156 85.285156 201.625 85.144531 201.898438 C 85.011719 202.179688 84.84375 202.40625 84.640625 202.59375 C 84.414062 202.785156 84.164062 202.933594 83.890625 203.03125 C 83.628906 203.128906 83.363281 203.171875 83.082031 203.171875 C 82.808594 203.171875 82.535156 203.128906 82.261719 203.03125 C 81.988281 202.933594 81.75 202.785156 81.546875 202.59375 C 81.316406 202.40625 81.140625 202.179688 81.007812 201.898438 C 80.875 201.617188 80.8125 201.273438 80.8125 200.878906 Z M 80.8125 195.925781 "/>
<path style=" stroke:none;fill-rule:nonzero;fill:rgb(42.745098%,43.137255%,44.313725%);fill-opacity:1;" d="M 86.574219 203.109375 L 86.574219 193.710938 L 87.871094 193.710938 L 89.914062 199.378906 L 89.941406 199.378906 L 89.941406 193.710938 L 91.28125 193.710938 L 91.28125 203.109375 L 90.011719 203.109375 L 87.949219 197.453125 L 87.929688 197.453125 L 87.929688 203.109375 Z M 86.574219 203.109375 "/>
<path style=" stroke:none;fill-rule:nonzero;fill:rgb(42.745098%,43.137255%,44.313725%);fill-opacity:1;" d="M 95.984375 203.109375 L 95.984375 194.976562 L 94.421875 194.976562 L 94.421875 193.710938 L 98.902344 193.710938 L 98.902344 194.976562 L 97.339844 194.976562 L 97.339844 203.109375 Z M 95.984375 203.109375 "/>
<path style=" stroke:none;fill-rule:nonzero;fill:rgb(42.745098%,43.137255%,44.313725%);fill-opacity:1;" d="M 99.5625 203.109375 L 99.5625 193.710938 L 101.726562 193.710938 C 103.320312 193.710938 104.113281 194.632812 104.113281 196.46875 C 104.113281 197.023438 104.027344 197.488281 103.851562 197.875 C 103.683594 198.261719 103.375 198.570312 102.949219 198.816406 L 104.40625 203.109375 L 102.976562 203.109375 L 101.714844 199.097656 L 100.90625 199.097656 L 100.90625 203.109375 Z M 100.90625 194.976562 L 100.90625 197.902344 L 101.679688 197.902344 C 101.917969 197.902344 102.105469 197.867188 102.246094 197.804688 C 102.386719 197.734375 102.5 197.636719 102.582031 197.515625 C 102.652344 197.390625 102.695312 197.25 102.722656 197.066406 C 102.75 196.882812 102.757812 196.679688 102.757812 196.445312 C 102.757812 196.207031 102.75 195.996094 102.722656 195.820312 C 102.695312 195.636719 102.640625 195.476562 102.5625 195.34375 C 102.394531 195.097656 102.078125 194.976562 101.609375 194.976562 Z M 100.90625 194.976562 "/>
<path style=" stroke:none;fill-rule:nonzero;fill:rgb(42.745098%,43.137255%,44.313725%);fill-opacity:1;" d="M 104.679688 203.109375 L 106.789062 193.710938 L 107.90625 193.710938 L 110.015625 203.109375 L 108.667969 203.109375 L 108.261719 201.097656 L 106.425781 201.097656 L 106.019531 203.109375 Z M 108.023438 199.816406 L 107.351562 196.410156 L 107.324219 196.410156 L 106.664062 199.816406 Z M 108.023438 199.816406 "/>
<path style=" stroke:none;fill-rule:nonzero;fill:rgb(42.745098%,43.137255%,44.313725%);fill-opacity:1;" d="M 110.703125 203.109375 L 110.703125 193.710938 L 112.007812 193.710938 L 114.046875 199.378906 L 114.074219 199.378906 L 114.074219 193.710938 L 115.421875 193.710938 L 115.421875 203.109375 L 114.152344 203.109375 L 112.078125 197.453125 L 112.0625 197.453125 L 112.0625 203.109375 Z M 110.703125 203.109375 "/>
<path style=" stroke:none;fill-rule:nonzero;fill:rgb(42.745098%,43.137255%,44.313725%);fill-opacity:1;" d="M 121.101562 196.410156 L 119.753906 196.410156 L 119.753906 196.109375 C 119.753906 195.792969 119.671875 195.53125 119.523438 195.308594 C 119.375 195.082031 119.136719 194.976562 118.789062 194.976562 C 118.613281 194.976562 118.457031 195.011719 118.339844 195.082031 C 118.226562 195.152344 118.136719 195.238281 118.066406 195.34375 C 117.996094 195.460938 117.945312 195.589844 117.917969 195.742188 C 117.890625 195.882812 117.882812 196.03125 117.882812 196.1875 C 117.882812 196.375 117.890625 196.53125 117.898438 196.664062 C 117.910156 196.777344 117.945312 196.890625 118.007812 196.988281 C 118.058594 197.085938 118.128906 197.164062 118.234375 197.242188 C 118.339844 197.3125 118.480469 197.382812 118.660156 197.453125 L 119.691406 197.867188 C 119.992188 197.980469 120.230469 198.113281 120.414062 198.269531 C 120.597656 198.421875 120.75 198.605469 120.847656 198.804688 C 120.941406 199.007812 121.011719 199.246094 121.039062 199.519531 C 121.074219 199.78125 121.09375 200.089844 121.09375 200.441406 C 121.09375 200.835938 121.046875 201.203125 120.96875 201.546875 C 120.890625 201.882812 120.765625 202.171875 120.589844 202.40625 C 120.40625 202.652344 120.15625 202.847656 119.859375 202.988281 C 119.558594 203.128906 119.1875 203.199219 118.753906 203.199219 C 118.429688 203.199219 118.128906 203.136719 117.839844 203.03125 C 117.554688 202.917969 117.316406 202.757812 117.117188 202.558594 C 116.902344 202.355469 116.746094 202.125 116.621094 201.855469 C 116.507812 201.589844 116.445312 201.292969 116.445312 200.976562 L 116.445312 200.484375 L 117.804688 200.484375 L 117.804688 200.90625 C 117.804688 201.152344 117.875 201.371094 118.023438 201.574219 C 118.171875 201.777344 118.421875 201.871094 118.753906 201.871094 C 118.984375 201.871094 119.171875 201.835938 119.292969 201.777344 C 119.425781 201.707031 119.523438 201.609375 119.59375 201.484375 C 119.664062 201.363281 119.707031 201.214844 119.71875 201.046875 C 119.734375 200.871094 119.742188 200.675781 119.742188 200.476562 C 119.742188 200.230469 119.734375 200.019531 119.71875 199.871094 C 119.699219 199.703125 119.664062 199.578125 119.609375 199.484375 C 119.550781 199.378906 119.460938 199.308594 119.355469 199.246094 C 119.257812 199.183594 119.125 199.113281 118.957031 199.050781 L 117.988281 198.648438 C 117.40625 198.410156 117.007812 198.09375 116.804688 197.707031 C 116.605469 197.3125 116.507812 196.820312 116.507812 196.234375 C 116.507812 195.882812 116.550781 195.539062 116.648438 195.230469 C 116.746094 194.914062 116.894531 194.632812 117.089844 194.40625 C 117.273438 194.175781 117.511719 194 117.804688 193.859375 C 118.09375 193.71875 118.429688 193.660156 118.828125 193.660156 C 119.160156 193.660156 119.460938 193.71875 119.734375 193.84375 C 120.015625 193.957031 120.253906 194.125 120.457031 194.335938 C 120.863281 194.757812 121.066406 195.238281 121.066406 195.785156 L 121.066406 196.410156 Z M 121.101562 196.410156 "/>
<path style=" stroke:none;fill-rule:nonzero;fill:rgb(42.745098%,43.137255%,44.313725%);fill-opacity:1;" d="M 122.195312 203.109375 L 122.195312 193.710938 L 126.226562 193.710938 L 126.226562 194.976562 L 123.535156 194.976562 L 123.535156 197.832031 L 125.875 197.832031 L 125.875 199.097656 L 123.535156 199.097656 L 123.535156 203.109375 Z M 122.195312 203.109375 "/>
<path style=" stroke:none;fill-rule:nonzero;fill:rgb(42.745098%,43.137255%,44.313725%);fill-opacity:1;" d="M 128.441406 200.886719 C 128.441406 201.222656 128.527344 201.460938 128.703125 201.617188 C 128.890625 201.765625 129.101562 201.847656 129.355469 201.847656 C 129.605469 201.847656 129.816406 201.765625 130 201.617188 C 130.175781 201.460938 130.273438 201.214844 130.273438 200.886719 L 130.273438 195.933594 C 130.273438 195.609375 130.175781 195.371094 130 195.222656 C 129.816406 195.0625 129.605469 194.992188 129.355469 194.992188 C 129.109375 194.992188 128.890625 195.074219 128.703125 195.222656 C 128.527344 195.371094 128.441406 195.609375 128.441406 195.933594 Z M 127.082031 195.925781 C 127.082031 195.546875 127.144531 195.214844 127.277344 194.933594 C 127.40625 194.644531 127.585938 194.398438 127.8125 194.203125 C 128.015625 194.019531 128.253906 193.878906 128.527344 193.78125 C 128.792969 193.683594 129.066406 193.632812 129.347656 193.632812 C 129.628906 193.632812 129.894531 193.683594 130.160156 193.78125 C 130.433594 193.878906 130.679688 194.019531 130.910156 194.203125 C 131.113281 194.398438 131.289062 194.644531 131.410156 194.933594 C 131.554688 195.222656 131.625 195.546875 131.625 195.925781 L 131.625 200.878906 C 131.625 201.285156 131.554688 201.625 131.410156 201.898438 C 131.28125 202.179688 131.113281 202.40625 130.910156 202.59375 C 130.679688 202.785156 130.433594 202.933594 130.160156 203.03125 C 129.894531 203.128906 129.628906 203.171875 129.347656 203.171875 C 129.066406 203.171875 128.800781 203.128906 128.527344 203.03125 C 128.253906 202.933594 128.015625 202.785156 127.8125 202.59375 C 127.585938 202.40625 127.40625 202.179688 127.277344 201.898438 C 127.144531 201.617188 127.082031 201.273438 127.082031 200.878906 Z M 127.082031 195.925781 "/>
<path style=" stroke:none;fill-rule:nonzero;fill:rgb(42.745098%,43.137255%,44.313725%);fill-opacity:1;" d="M 132.894531 203.109375 L 132.894531 193.710938 L 135.054688 193.710938 C 136.652344 193.710938 137.445312 194.632812 137.445312 196.46875 C 137.445312 197.023438 137.355469 197.488281 137.179688 197.875 C 137.011719 198.261719 136.703125 198.570312 136.28125 198.816406 L 137.734375 203.109375 L 136.308594 203.109375 L 135.046875 199.097656 L 134.234375 199.097656 L 134.234375 203.109375 Z M 134.242188 194.976562 L 134.242188 197.902344 L 135.019531 197.902344 C 135.257812 197.902344 135.441406 197.867188 135.582031 197.804688 C 135.726562 197.734375 135.839844 197.636719 135.917969 197.515625 C 135.988281 197.390625 136.035156 197.25 136.058594 197.066406 C 136.085938 196.882812 136.09375 196.679688 136.09375 196.445312 C 136.09375 196.207031 136.085938 195.996094 136.058594 195.820312 C 136.035156 195.636719 135.980469 195.476562 135.902344 195.34375 C 135.734375 195.097656 135.414062 194.976562 134.949219 194.976562 Z M 134.242188 194.976562 "/>
<path style=" stroke:none;fill-rule:nonzero;fill:rgb(42.745098%,43.137255%,44.313725%);fill-opacity:1;" d="M 138.625 203.109375 L 138.625 193.710938 L 139.921875 193.710938 L 141.652344 198.683594 L 141.6875 198.683594 L 143.40625 193.710938 L 144.710938 193.710938 L 144.710938 203.109375 L 143.371094 203.109375 L 143.371094 197.382812 L 143.34375 197.382812 L 142.003906 201.433594 L 141.324219 201.433594 L 140.003906 197.382812 L 139.96875 197.382812 L 139.96875 203.109375 Z M 138.625 203.109375 "/>
<path style=" stroke:none;fill-rule:nonzero;fill:rgb(42.745098%,43.137255%,44.313725%);fill-opacity:1;" d="M 145.488281 203.109375 L 147.597656 193.710938 L 148.714844 193.710938 L 150.824219 203.109375 L 149.472656 203.109375 L 149.070312 201.097656 L 147.234375 201.097656 L 146.828125 203.109375 Z M 148.832031 199.816406 L 148.160156 196.410156 L 148.132812 196.410156 L 147.472656 199.816406 Z M 148.832031 199.816406 "/>
<path style=" stroke:none;fill-rule:nonzero;fill:rgb(42.745098%,43.137255%,44.313725%);fill-opacity:1;" d="M 151.714844 203.109375 L 151.714844 194.976562 L 150.152344 194.976562 L 150.152344 193.710938 L 154.632812 193.710938 L 154.632812 194.976562 L 153.074219 194.976562 L 153.074219 203.109375 Z M 151.714844 203.109375 "/>
<path style=" stroke:none;fill-rule:nonzero;fill:rgb(42.745098%,43.137255%,44.313725%);fill-opacity:1;" d="M 155.339844 193.710938 L 156.6875 193.710938 L 156.6875 203.109375 L 155.339844 203.109375 Z M 155.339844 193.710938 "/>
<path style=" stroke:none;fill-rule:nonzero;fill:rgb(42.745098%,43.137255%,44.313725%);fill-opacity:1;" d="M 159.308594 200.886719 C 159.308594 201.222656 159.394531 201.460938 159.574219 201.617188 C 159.757812 201.765625 159.96875 201.847656 160.226562 201.847656 C 160.472656 201.847656 160.683594 201.765625 160.871094 201.617188 C 161.046875 201.460938 161.144531 201.214844 161.144531 200.886719 L 161.144531 195.933594 C 161.144531 195.609375 161.046875 195.371094 160.871094 195.222656 C 160.683594 195.0625 160.472656 194.992188 160.226562 194.992188 C 159.976562 194.992188 159.757812 195.074219 159.574219 195.222656 C 159.394531 195.371094 159.308594 195.609375 159.308594 195.933594 Z M 157.957031 195.925781 C 157.957031 195.546875 158.019531 195.214844 158.152344 194.933594 C 158.285156 194.644531 158.460938 194.398438 158.691406 194.203125 C 158.894531 194.019531 159.132812 193.878906 159.40625 193.78125 C 159.667969 193.683594 159.941406 193.632812 160.226562 193.632812 C 160.507812 193.632812 160.773438 193.683594 161.035156 193.78125 C 161.308594 193.878906 161.558594 194.019531 161.785156 194.203125 C 161.988281 194.398438 162.164062 194.644531 162.289062 194.933594 C 162.429688 195.222656 162.5 195.546875 162.5 195.925781 L 162.5 200.878906 C 162.5 201.285156 162.429688 201.625 162.289062 201.898438 C 162.15625 202.179688 161.988281 202.40625 161.785156 202.59375 C 161.558594 202.785156 161.308594 202.933594 161.035156 203.03125 C 160.773438 203.128906 160.507812 203.171875 160.226562 203.171875 C 159.941406 203.171875 159.679688 203.128906 159.40625 203.03125 C 159.132812 202.933594 158.894531 202.785156 158.691406 202.59375 C 158.460938 202.40625 158.285156 202.179688 158.152344 201.898438 C 158.019531 201.617188 157.957031 201.273438 157.957031 200.878906 Z M 157.957031 195.925781 "/>
<path style=" stroke:none;fill-rule:nonzero;fill:rgb(42.745098%,43.137255%,44.313725%);fill-opacity:1;" d="M 163.710938 203.109375 L 163.710938 193.710938 L 165.015625 193.710938 L 167.050781 199.378906 L 167.078125 199.378906 L 167.078125 193.710938 L 168.425781 193.710938 L 168.425781 203.109375 L 167.15625 203.109375 L 165.085938 197.453125 L 165.066406 197.453125 L 165.066406 203.109375 Z M 163.710938 203.109375 "/>
<path style=" stroke:none;fill-rule:nonzero;fill:rgb(42.745098%,43.137255%,44.313725%);fill-opacity:1;" d="M 173.121094 203.109375 L 173.121094 194.976562 L 171.558594 194.976562 L 171.558594 193.710938 L 176.039062 193.710938 L 176.039062 194.976562 L 174.476562 194.976562 L 174.476562 203.109375 Z M 173.121094 203.109375 "/>
<path style=" stroke:none;fill-rule:nonzero;fill:rgb(42.745098%,43.137255%,44.313725%);fill-opacity:1;" d="M 176.699219 203.109375 L 176.699219 193.710938 L 180.730469 193.710938 L 180.730469 194.976562 L 178.050781 194.976562 L 178.050781 197.734375 L 180.386719 197.734375 L 180.386719 199 L 178.050781 199 L 178.050781 201.757812 L 180.730469 201.757812 L 180.730469 203.109375 Z M 176.699219 203.109375 "/>
<path style=" stroke:none;fill-rule:nonzero;fill:rgb(42.745098%,43.137255%,44.313725%);fill-opacity:1;" d="M 185.96875 200.421875 L 185.96875 201.003906 C 185.96875 201.292969 185.917969 201.574219 185.800781 201.835938 C 185.695312 202.089844 185.546875 202.320312 185.34375 202.523438 C 185.148438 202.722656 184.921875 202.882812 184.65625 202.996094 C 184.398438 203.109375 184.117188 203.171875 183.816406 203.171875 C 183.5625 203.171875 183.296875 203.136719 183.023438 203.066406 C 182.757812 202.996094 182.519531 202.875 182.320312 202.699219 C 182.105469 202.523438 181.929688 202.292969 181.789062 202.023438 C 181.648438 201.742188 181.578125 201.390625 181.578125 200.949219 L 181.578125 195.777344 C 181.578125 195.46875 181.628906 195.1875 181.738281 194.921875 C 181.84375 194.652344 181.992188 194.421875 182.1875 194.230469 C 182.378906 194.035156 182.609375 193.886719 182.882812 193.78125 C 183.15625 193.667969 183.457031 193.613281 183.78125 193.613281 C 184.417969 193.613281 184.929688 193.816406 185.335938 194.230469 C 185.527344 194.441406 185.679688 194.679688 185.792969 194.949219 C 185.90625 195.222656 185.960938 195.519531 185.960938 195.847656 L 185.960938 196.382812 L 184.601562 196.382812 L 184.601562 195.933594 C 184.601562 195.671875 184.523438 195.441406 184.375 195.25 C 184.222656 195.054688 184.019531 194.957031 183.765625 194.957031 C 183.429688 194.957031 183.210938 195.0625 183.09375 195.265625 C 182.988281 195.476562 182.9375 195.742188 182.9375 196.058594 L 182.9375 200.863281 C 182.9375 201.132812 182.996094 201.371094 183.113281 201.554688 C 183.226562 201.742188 183.449219 201.828125 183.746094 201.828125 C 183.835938 201.828125 183.933594 201.8125 184.03125 201.785156 C 184.136719 201.75 184.230469 201.707031 184.320312 201.636719 C 184.398438 201.554688 184.460938 201.460938 184.503906 201.34375 C 184.566406 201.222656 184.59375 201.0625 184.59375 200.871094 L 184.59375 200.414062 L 185.96875 200.414062 Z M 185.96875 200.421875 "/>
<path style=" stroke:none;fill-rule:nonzero;fill:rgb(42.745098%,43.137255%,44.313725%);fill-opacity:1;" d="M 187.152344 203.109375 L 187.152344 193.710938 L 188.5 193.710938 L 188.5 197.734375 L 190.175781 197.734375 L 190.175781 193.710938 L 191.515625 193.710938 L 191.515625 203.109375 L 190.175781 203.109375 L 190.175781 198.921875 L 188.5 198.921875 L 188.5 203.109375 Z M 187.152344 203.109375 "/>
<path style=" stroke:none;fill-rule:nonzero;fill:rgb(42.745098%,43.137255%,44.313725%);fill-opacity:1;" d="M 192.824219 203.109375 L 192.824219 193.710938 L 194.117188 193.710938 L 196.164062 199.378906 L 196.191406 199.378906 L 196.191406 193.710938 L 197.542969 193.710938 L 197.542969 203.109375 L 196.269531 203.109375 L 194.199219 197.453125 L 194.179688 197.453125 L 194.179688 203.109375 Z M 192.824219 203.109375 "/>
<path style=" stroke:none;fill-rule:nonzero;fill:rgb(42.745098%,43.137255%,44.313725%);fill-opacity:1;" d="M 200.117188 200.886719 C 200.117188 201.222656 200.203125 201.460938 200.382812 201.617188 C 200.566406 201.765625 200.777344 201.847656 201.035156 201.847656 C 201.28125 201.847656 201.492188 201.765625 201.675781 201.617188 C 201.855469 201.460938 201.949219 201.214844 201.949219 200.886719 L 201.949219 195.933594 C 201.949219 195.609375 201.855469 195.371094 201.675781 195.222656 C 201.492188 195.0625 201.28125 194.992188 201.035156 194.992188 C 200.785156 194.992188 200.566406 195.074219 200.382812 195.222656 C 200.203125 195.371094 200.117188 195.609375 200.117188 195.933594 Z M 198.765625 195.925781 C 198.765625 195.546875 198.828125 195.214844 198.960938 194.933594 C 199.09375 194.644531 199.269531 194.398438 199.5 194.203125 C 199.703125 194.019531 199.941406 193.878906 200.214844 193.78125 C 200.476562 193.683594 200.75 193.632812 201.035156 193.632812 C 201.316406 193.632812 201.582031 193.683594 201.84375 193.78125 C 202.117188 193.878906 202.367188 194.019531 202.59375 194.203125 C 202.796875 194.398438 202.972656 194.644531 203.097656 194.933594 C 203.238281 195.222656 203.308594 195.546875 203.308594 195.925781 L 203.308594 200.878906 C 203.308594 201.285156 203.238281 201.625 203.097656 201.898438 C 202.964844 202.179688 202.796875 202.40625 202.59375 202.59375 C 202.367188 202.785156 202.117188 202.933594 201.84375 203.03125 C 201.582031 203.128906 201.316406 203.171875 201.035156 203.171875 C 200.75 203.171875 200.488281 203.128906 200.214844 203.03125 C 199.941406 202.933594 199.703125 202.785156 199.5 202.59375 C 199.269531 202.40625 199.09375 202.179688 198.960938 201.898438 C 198.828125 201.617188 198.765625 201.273438 198.765625 200.878906 Z M 198.765625 195.925781 "/>
<path style=" stroke:none;fill-rule:nonzero;fill:rgb(42.745098%,43.137255%,44.313725%);fill-opacity:1;" d="M 204.578125 203.109375 L 204.578125 193.710938 L 205.917969 193.710938 L 205.917969 201.757812 L 208.609375 201.757812 L 208.609375 203.109375 Z M 204.578125 203.109375 "/>
<path style=" stroke:none;fill-rule:nonzero;fill:rgb(42.745098%,43.137255%,44.313725%);fill-opacity:1;" d="M 210.824219 200.886719 C 210.824219 201.222656 210.910156 201.460938 211.089844 201.617188 C 211.273438 201.765625 211.484375 201.847656 211.742188 201.847656 C 211.988281 201.847656 212.199219 201.765625 212.382812 201.617188 C 212.5625 201.460938 212.65625 201.214844 212.65625 200.886719 L 212.65625 195.933594 C 212.65625 195.609375 212.5625 195.371094 212.382812 195.222656 C 212.199219 195.0625 211.988281 194.992188 211.742188 194.992188 C 211.492188 194.992188 211.273438 195.074219 211.089844 195.222656 C 210.910156 195.371094 210.824219 195.609375 210.824219 195.933594 Z M 209.464844 195.925781 C 209.464844 195.546875 209.527344 195.214844 209.660156 194.933594 C 209.792969 194.644531 209.96875 194.398438 210.195312 194.203125 C 210.398438 194.019531 210.636719 193.878906 210.910156 193.78125 C 211.175781 193.683594 211.449219 193.632812 211.730469 193.632812 C 212.015625 193.632812 212.277344 193.683594 212.542969 193.78125 C 212.816406 193.878906 213.0625 194.019531 213.292969 194.203125 C 213.496094 194.398438 213.671875 194.644531 213.796875 194.933594 C 213.9375 195.222656 214.007812 195.546875 214.007812 195.925781 L 214.007812 200.878906 C 214.007812 201.285156 213.9375 201.625 213.796875 201.898438 C 213.664062 202.179688 213.496094 202.40625 213.292969 202.59375 C 213.0625 202.785156 212.816406 202.933594 212.542969 203.03125 C 212.277344 203.128906 212.015625 203.171875 211.730469 203.171875 C 211.449219 203.171875 211.183594 203.128906 210.910156 203.03125 C 210.636719 202.933594 210.398438 202.785156 210.195312 202.59375 C 209.96875 202.40625 209.792969 202.179688 209.660156 201.898438 C 209.527344 201.617188 209.464844 201.273438 209.464844 200.878906 Z M 209.464844 195.925781 "/>
<path style=" stroke:none;fill-rule:nonzero;fill:rgb(42.745098%,43.137255%,44.313725%);fill-opacity:1;" d="M 215.199219 195.925781 C 215.199219 195.546875 215.257812 195.214844 215.390625 194.933594 C 215.523438 194.644531 215.699219 194.398438 215.929688 194.203125 C 216.132812 194.019531 216.371094 193.878906 216.644531 193.78125 C 216.910156 193.683594 217.183594 193.632812 217.464844 193.632812 C 217.738281 193.632812 218.011719 193.683594 218.277344 193.78125 C 218.550781 193.878906 218.796875 194.019531 219.027344 194.203125 C 219.226562 194.398438 219.40625 194.644531 219.527344 194.933594 C 219.667969 195.222656 219.738281 195.546875 219.738281 195.925781 L 219.738281 196.398438 L 218.382812 196.398438 L 218.382812 195.925781 C 218.382812 195.601562 218.285156 195.363281 218.109375 195.214844 C 217.921875 195.054688 217.710938 194.984375 217.464844 194.984375 C 217.21875 194.984375 216.996094 195.0625 216.8125 195.214844 C 216.636719 195.363281 216.546875 195.601562 216.546875 195.925781 L 216.546875 200.878906 C 216.546875 201.214844 216.636719 201.449219 216.8125 201.609375 C 216.996094 201.757812 217.207031 201.835938 217.464844 201.835938 C 217.710938 201.835938 217.921875 201.757812 218.109375 201.609375 C 218.285156 201.449219 218.382812 201.203125 218.382812 200.878906 L 218.382812 199.113281 L 217.304688 199.113281 L 217.304688 197.929688 L 219.738281 197.929688 L 219.738281 200.878906 C 219.738281 201.285156 219.667969 201.625 219.527344 201.898438 C 219.394531 202.179688 219.226562 202.40625 219.027344 202.59375 C 218.796875 202.785156 218.550781 202.933594 218.277344 203.03125 C 218.011719 203.128906 217.746094 203.171875 217.464844 203.171875 C 217.191406 203.171875 216.917969 203.128906 216.644531 203.03125 C 216.371094 202.933594 216.132812 202.785156 215.929688 202.59375 C 215.699219 202.40625 215.523438 202.179688 215.390625 201.898438 C 215.257812 201.617188 215.199219 201.273438 215.199219 200.878906 Z M 215.199219 195.925781 "/>
<path style=" stroke:none;fill-rule:nonzero;fill:rgb(42.745098%,43.137255%,44.313725%);fill-opacity:1;" d="M 222.261719 203.109375 L 222.261719 199.132812 L 220.410156 193.710938 L 221.839844 193.710938 L 222.933594 197.445312 L 222.960938 197.445312 L 224.042969 193.710938 L 225.472656 193.710938 L 223.621094 199.132812 L 223.621094 203.109375 Z M 222.261719 203.109375 "/>
</g>
</svg>
