<?xml version="1.0" encoding="UTF-8"?>
<svg xmlns="http://www.w3.org/2000/svg" xmlns:xlink="http://www.w3.org/1999/xlink" width="200px" height="200px" viewBox="0 0 200 200" version="1.1">
<defs>
<linearGradient id="linear0" gradientUnits="userSpaceOnUse" x1="41.2433" y1="156.03" x2="74.1402" y2="156.03" gradientTransform="matrix(0.705567,0,0,0.705567,0,0)">
<stop offset="0" style="stop-color:rgb(0%,72.941176%,81.176471%);stop-opacity:1;"/>
<stop offset="0.4485" style="stop-color:rgb(0%,72.156863%,82.745098%);stop-opacity:1;"/>
<stop offset="0.8854" style="stop-color:rgb(0%,69.411765%,87.45098%);stop-opacity:1;"/>
<stop offset="1" style="stop-color:rgb(0%,68.235294%,89.019608%);stop-opacity:1;"/>
</linearGradient>
<linearGradient id="linear1" gradientUnits="userSpaceOnUse" x1="41.2432" y1="133.1967" x2="255.6877" y2="133.1967" gradientTransform="matrix(0.705567,0,0,0.705567,0,0)">
<stop offset="0" style="stop-color:rgb(0%,68.235294%,89.019608%);stop-opacity:1;"/>
<stop offset="0.1788" style="stop-color:rgb(0.392157%,67.058824%,87.45098%);stop-opacity:1;"/>
<stop offset="0.3485" style="stop-color:rgb(1.176471%,63.921569%,83.137255%);stop-opacity:1;"/>
<stop offset="0.5146" style="stop-color:rgb(2.352941%,58.039216%,75.686275%);stop-opacity:1;"/>
<stop offset="0.6784" style="stop-color:rgb(3.921569%,50.196078%,65.098039%);stop-opacity:1;"/>
<stop offset="0.8393" style="stop-color:rgb(6.27451%,40%,51.372549%);stop-opacity:1;"/>
<stop offset="0.9982" style="stop-color:rgb(9.019608%,27.45098%,35.294118%);stop-opacity:1;"/>
<stop offset="1" style="stop-color:rgb(9.019608%,27.45098%,34.901961%);stop-opacity:1;"/>
</linearGradient>
<linearGradient id="linear2" gradientUnits="userSpaceOnUse" x1="133.9414" y1="145.3792" x2="255.6582" y2="145.3792" gradientTransform="matrix(0.705567,0,0,0.705567,0,0)">
<stop offset="0" style="stop-color:rgb(0%,68.235294%,89.019608%);stop-opacity:1;"/>
<stop offset="1" style="stop-color:rgb(0%,72.941176%,81.176471%);stop-opacity:1;"/>
</linearGradient>
</defs>
<g id="surface1">
<path style=" stroke:none;fill-rule:nonzero;fill:url(#linear0);" d="M 45.585938 74.070312 L 29.097656 74.070312 L 29.097656 146.109375 L 52.3125 146.109375 L 52.3125 83.558594 C 52.246094 75.148438 47.117188 74.175781 45.585938 74.070312 Z M 45.585938 74.070312 "/>
<path style=" stroke:none;fill-rule:nonzero;fill:url(#linear1);" d="M 113.398438 63.753906 C 124.527344 63.789062 148.183594 64.148438 158.210938 71.367188 C 168.917969 69.554688 179.179688 65.992188 180.371094 59.042969 C 181.789062 43.414062 135.269531 41.875 117.746094 41.855469 C 113.695312 41.847656 29.097656 41.925781 29.097656 41.925781 L 29.097656 57.003906 C 29.132812 58.203125 29.761719 63.9375 38.765625 63.9375 L 61.800781 63.9375 L 61.800781 146.121094 L 85.027344 146.121094 L 85.027344 63.753906 Z M 113.398438 63.753906 "/>
<path style=" stroke:none;fill-rule:nonzero;fill:url(#linear2);" d="M 163.5 70.300781 C 161.914062 70.691406 158.535156 71.3125 158.222656 71.367188 C 158.214844 71.367188 158.214844 71.367188 158.210938 71.367188 C 149.855469 72.785156 141.15625 73.140625 136.097656 73.210938 L 94.503906 73.210938 L 94.503906 88.328125 C 94.546875 89.601562 95.25 95.109375 103.902344 95.214844 L 117.546875 95.214844 L 117.546875 146.109375 L 140.761719 146.109375 L 140.761719 95.167969 C 154.835938 95.011719 180.390625 93.191406 180.386719 81.980469 C 180.378906 70.515625 180.378906 62.449219 180.371094 59.042969 C 179.375 64.828125 172.085938 68.214844 163.5 70.300781 Z M 163.5 70.300781 "/>
<path style=" stroke:none;fill-rule:nonzero;fill:rgb(42.745098%,43.137255%,44.313725%);fill-opacity:1;" d="M 29.097656 155.589844 L 30.175781 155.589844 L 30.175781 163.140625 L 29.097656 163.140625 Z M 29.097656 155.589844 "/>
<path style=" stroke:none;fill-rule:nonzero;fill:rgb(42.745098%,43.137255%,44.313725%);fill-opacity:1;" d="M 31.222656 163.140625 L 31.222656 155.589844 L 32.257812 155.589844 L 33.894531 160.140625 L 33.917969 160.140625 L 33.917969 155.589844 L 34.988281 155.589844 L 34.988281 163.140625 L 33.972656 163.140625 L 32.320312 158.597656 L 32.308594 158.597656 L 32.308594 163.140625 Z M 31.222656 163.140625 "/>
<path style=" stroke:none;fill-rule:nonzero;fill:rgb(42.745098%,43.137255%,44.313725%);fill-opacity:1;" d="M 36.039062 163.140625 L 36.039062 155.589844 L 39.265625 155.589844 L 39.265625 156.609375 L 37.121094 156.609375 L 37.121094 158.902344 L 38.984375 158.902344 L 38.984375 159.917969 L 37.121094 159.917969 L 37.121094 163.140625 Z M 36.039062 163.140625 "/>
<path style=" stroke:none;fill-rule:nonzero;fill:rgb(42.745098%,43.137255%,44.313725%);fill-opacity:1;" d="M 41.035156 161.355469 C 41.035156 161.625 41.105469 161.816406 41.246094 161.941406 C 41.394531 162.0625 41.566406 162.125 41.769531 162.125 C 41.96875 162.125 42.136719 162.0625 42.285156 161.941406 C 42.425781 161.816406 42.503906 161.617188 42.503906 161.355469 L 42.503906 157.375 C 42.503906 157.117188 42.425781 156.925781 42.285156 156.804688 C 42.136719 156.679688 41.96875 156.621094 41.769531 156.621094 C 41.570312 156.621094 41.394531 156.683594 41.246094 156.804688 C 41.105469 156.925781 41.035156 157.117188 41.035156 157.375 Z M 39.949219 157.371094 C 39.949219 157.066406 40 156.796875 40.105469 156.574219 C 40.210938 156.339844 40.351562 156.140625 40.535156 155.988281 C 40.695312 155.839844 40.886719 155.726562 41.105469 155.648438 C 41.316406 155.570312 41.535156 155.527344 41.761719 155.527344 C 41.980469 155.527344 42.199219 155.570312 42.410156 155.648438 C 42.628906 155.726562 42.828125 155.839844 43.011719 155.988281 C 43.171875 156.140625 43.316406 156.339844 43.414062 156.574219 C 43.527344 156.804688 43.582031 157.066406 43.582031 157.371094 L 43.582031 161.347656 C 43.582031 161.671875 43.527344 161.949219 43.414062 162.167969 C 43.308594 162.394531 43.171875 162.578125 43.011719 162.726562 C 42.828125 162.878906 42.628906 163 42.410156 163.078125 C 42.199219 163.15625 41.988281 163.191406 41.761719 163.191406 C 41.542969 163.191406 41.324219 163.15625 41.105469 163.078125 C 40.886719 163 40.695312 162.878906 40.535156 162.726562 C 40.351562 162.578125 40.210938 162.394531 40.105469 162.167969 C 40 161.941406 39.949219 161.667969 39.949219 161.347656 Z M 39.949219 157.371094 "/>
<path style=" stroke:none;fill-rule:nonzero;fill:rgb(42.745098%,43.137255%,44.313725%);fill-opacity:1;" d="M 44.605469 163.140625 L 44.605469 155.589844 L 46.335938 155.589844 C 47.613281 155.589844 48.246094 156.332031 48.246094 157.808594 C 48.246094 158.25 48.175781 158.625 48.035156 158.9375 C 47.902344 159.246094 47.652344 159.492188 47.316406 159.691406 L 48.480469 163.140625 L 47.335938 163.140625 L 46.328125 159.917969 L 45.679688 159.917969 L 45.679688 163.140625 Z M 45.679688 156.609375 L 45.679688 158.957031 L 46.300781 158.957031 C 46.488281 158.957031 46.636719 158.929688 46.75 158.878906 C 46.863281 158.824219 46.957031 158.746094 47.019531 158.648438 C 47.074219 158.546875 47.109375 158.433594 47.132812 158.285156 C 47.152344 158.140625 47.160156 157.976562 47.160156 157.785156 C 47.160156 157.59375 47.152344 157.425781 47.132812 157.285156 C 47.109375 157.136719 47.070312 157.011719 47.003906 156.902344 C 46.871094 156.707031 46.617188 156.609375 46.242188 156.609375 Z M 45.679688 156.609375 "/>
<path style=" stroke:none;fill-rule:nonzero;fill:rgb(42.745098%,43.137255%,44.313725%);fill-opacity:1;" d="M 49.183594 163.140625 L 49.183594 155.589844 L 50.230469 155.589844 L 51.613281 159.585938 L 51.632812 159.585938 L 53.007812 155.589844 L 54.058594 155.589844 L 54.058594 163.140625 L 52.980469 163.140625 L 52.980469 158.539062 L 52.960938 158.539062 L 51.886719 161.792969 L 51.34375 161.792969 L 50.285156 158.539062 L 50.265625 158.539062 L 50.265625 163.140625 Z M 49.183594 163.140625 "/>
<path style=" stroke:none;fill-rule:nonzero;fill:rgb(42.745098%,43.137255%,44.313725%);fill-opacity:1;" d="M 54.675781 163.140625 L 56.359375 155.589844 L 57.257812 155.589844 L 58.941406 163.140625 L 57.863281 163.140625 L 57.539062 161.527344 L 56.070312 161.527344 L 55.746094 163.140625 Z M 57.347656 160.496094 L 56.8125 157.757812 L 56.792969 157.757812 L 56.261719 160.496094 Z M 57.347656 160.496094 "/>
<path style=" stroke:none;fill-rule:nonzero;fill:rgb(42.745098%,43.137255%,44.313725%);fill-opacity:1;" d="M 59.664062 163.140625 L 59.664062 156.609375 L 58.414062 156.609375 L 58.414062 155.589844 L 62 155.589844 L 62 156.609375 L 60.75 156.609375 L 60.75 163.140625 Z M 59.664062 163.140625 "/>
<path style=" stroke:none;fill-rule:nonzero;fill:rgb(42.745098%,43.137255%,44.313725%);fill-opacity:1;" d="M 62.554688 155.589844 L 63.636719 155.589844 L 63.636719 163.140625 L 62.554688 163.140625 Z M 62.554688 155.589844 "/>
<path style=" stroke:none;fill-rule:nonzero;fill:rgb(42.745098%,43.137255%,44.313725%);fill-opacity:1;" d="M 65.738281 161.355469 C 65.738281 161.625 65.808594 161.816406 65.949219 161.941406 C 66.097656 162.0625 66.265625 162.125 66.472656 162.125 C 66.667969 162.125 66.839844 162.0625 66.988281 161.941406 C 67.128906 161.816406 67.207031 161.617188 67.207031 161.355469 L 67.207031 157.375 C 67.207031 157.117188 67.128906 156.925781 66.988281 156.804688 C 66.839844 156.679688 66.667969 156.621094 66.472656 156.621094 C 66.273438 156.621094 66.097656 156.683594 65.949219 156.804688 C 65.808594 156.925781 65.738281 157.117188 65.738281 157.375 Z M 64.652344 157.371094 C 64.652344 157.066406 64.699219 156.796875 64.804688 156.574219 C 64.914062 156.339844 65.054688 156.140625 65.238281 155.988281 C 65.398438 155.839844 65.589844 155.726562 65.808594 155.648438 C 66.019531 155.570312 66.238281 155.527344 66.464844 155.527344 C 66.683594 155.527344 66.902344 155.570312 67.113281 155.648438 C 67.332031 155.726562 67.53125 155.839844 67.714844 155.988281 C 67.875 156.140625 68.015625 156.339844 68.117188 156.574219 C 68.226562 156.804688 68.285156 157.066406 68.285156 157.371094 L 68.285156 161.347656 C 68.285156 161.671875 68.226562 161.949219 68.117188 162.167969 C 68.007812 162.394531 67.875 162.578125 67.714844 162.726562 C 67.53125 162.878906 67.332031 163 67.113281 163.078125 C 66.902344 163.15625 66.691406 163.191406 66.464844 163.191406 C 66.246094 163.191406 66.027344 163.15625 65.808594 163.078125 C 65.589844 163 65.398438 162.878906 65.238281 162.726562 C 65.054688 162.578125 64.914062 162.394531 64.804688 162.167969 C 64.699219 161.941406 64.652344 161.667969 64.652344 161.347656 Z M 64.652344 157.371094 "/>
<path style=" stroke:none;fill-rule:nonzero;fill:rgb(42.745098%,43.137255%,44.313725%);fill-opacity:1;" d="M 69.257812 163.140625 L 69.257812 155.589844 L 70.296875 155.589844 L 71.933594 160.140625 L 71.953125 160.140625 L 71.953125 155.589844 L 73.027344 155.589844 L 73.027344 163.140625 L 72.011719 163.140625 L 70.359375 158.597656 L 70.34375 158.597656 L 70.34375 163.140625 Z M 69.257812 163.140625 "/>
<path style=" stroke:none;fill-rule:nonzero;fill:rgb(42.745098%,43.137255%,44.313725%);fill-opacity:1;" d="M 76.785156 163.140625 L 76.785156 156.609375 L 75.539062 156.609375 L 75.539062 155.589844 L 79.121094 155.589844 L 79.121094 156.609375 L 77.875 156.609375 L 77.875 163.140625 Z M 76.785156 163.140625 "/>
<path style=" stroke:none;fill-rule:nonzero;fill:rgb(42.745098%,43.137255%,44.313725%);fill-opacity:1;" d="M 79.652344 163.140625 L 79.652344 155.589844 L 81.378906 155.589844 C 82.65625 155.589844 83.292969 156.332031 83.292969 157.808594 C 83.292969 158.25 83.222656 158.625 83.082031 158.9375 C 82.945312 159.246094 82.699219 159.492188 82.359375 159.691406 L 83.523438 163.140625 L 82.382812 163.140625 L 81.371094 159.917969 L 80.722656 159.917969 L 80.722656 163.140625 Z M 80.722656 156.609375 L 80.722656 158.957031 L 81.34375 158.957031 C 81.535156 158.957031 81.683594 158.929688 81.796875 158.878906 C 81.910156 158.824219 82 158.746094 82.066406 158.648438 C 82.121094 158.546875 82.15625 158.433594 82.175781 158.285156 C 82.199219 158.140625 82.207031 157.976562 82.207031 157.785156 C 82.207031 157.59375 82.199219 157.425781 82.175781 157.285156 C 82.15625 157.136719 82.113281 157.011719 82.050781 156.902344 C 81.917969 156.707031 81.664062 156.609375 81.289062 156.609375 Z M 80.722656 156.609375 "/>
<path style=" stroke:none;fill-rule:nonzero;fill:rgb(42.745098%,43.137255%,44.313725%);fill-opacity:1;" d="M 83.742188 163.140625 L 85.429688 155.589844 L 86.324219 155.589844 L 88.011719 163.140625 L 86.933594 163.140625 L 86.609375 161.527344 L 85.140625 161.527344 L 84.816406 163.140625 Z M 86.417969 160.496094 L 85.882812 157.757812 L 85.859375 157.757812 L 85.332031 160.496094 Z M 86.417969 160.496094 "/>
<path style=" stroke:none;fill-rule:nonzero;fill:rgb(42.745098%,43.137255%,44.313725%);fill-opacity:1;" d="M 88.5625 163.140625 L 88.5625 155.589844 L 89.605469 155.589844 L 91.238281 160.140625 L 91.257812 160.140625 L 91.257812 155.589844 L 92.335938 155.589844 L 92.335938 163.140625 L 91.320312 163.140625 L 89.664062 158.597656 L 89.648438 158.597656 L 89.648438 163.140625 Z M 88.5625 163.140625 "/>
<path style=" stroke:none;fill-rule:nonzero;fill:rgb(42.745098%,43.137255%,44.313725%);fill-opacity:1;" d="M 96.882812 157.757812 L 95.800781 157.757812 L 95.800781 157.519531 C 95.800781 157.265625 95.738281 157.050781 95.617188 156.875 C 95.5 156.691406 95.308594 156.609375 95.03125 156.609375 C 94.890625 156.609375 94.765625 156.636719 94.671875 156.691406 C 94.582031 156.75 94.511719 156.820312 94.453125 156.902344 C 94.398438 156.996094 94.355469 157.101562 94.335938 157.222656 C 94.3125 157.335938 94.304688 157.453125 94.304688 157.582031 C 94.304688 157.730469 94.3125 157.855469 94.320312 157.960938 C 94.328125 158.054688 94.355469 158.144531 94.40625 158.222656 C 94.445312 158.300781 94.503906 158.363281 94.589844 158.429688 C 94.671875 158.484375 94.785156 158.539062 94.925781 158.597656 L 95.753906 158.929688 C 95.992188 159.019531 96.183594 159.125 96.332031 159.253906 C 96.480469 159.375 96.597656 159.523438 96.675781 159.683594 C 96.753906 159.847656 96.8125 160.035156 96.832031 160.253906 C 96.859375 160.46875 96.875 160.714844 96.875 160.996094 C 96.875 161.3125 96.839844 161.609375 96.777344 161.886719 C 96.710938 162.152344 96.613281 162.386719 96.472656 162.578125 C 96.324219 162.773438 96.125 162.929688 95.886719 163.042969 C 95.648438 163.15625 95.351562 163.210938 95.003906 163.210938 C 94.742188 163.210938 94.503906 163.164062 94.269531 163.078125 C 94.046875 162.984375 93.855469 162.859375 93.691406 162.695312 C 93.523438 162.535156 93.394531 162.351562 93.296875 162.132812 C 93.207031 161.921875 93.15625 161.679688 93.15625 161.425781 L 93.15625 161.03125 L 94.242188 161.03125 L 94.242188 161.371094 C 94.242188 161.566406 94.300781 161.746094 94.417969 161.90625 C 94.539062 162.070312 94.738281 162.144531 95.003906 162.144531 C 95.1875 162.144531 95.335938 162.117188 95.433594 162.070312 C 95.539062 162.011719 95.617188 161.933594 95.675781 161.835938 C 95.730469 161.738281 95.765625 161.617188 95.773438 161.484375 C 95.789062 161.34375 95.792969 161.1875 95.792969 161.023438 C 95.792969 160.828125 95.789062 160.65625 95.773438 160.539062 C 95.757812 160.402344 95.730469 160.304688 95.6875 160.226562 C 95.640625 160.140625 95.570312 160.085938 95.484375 160.035156 C 95.40625 159.988281 95.300781 159.929688 95.167969 159.882812 L 94.390625 159.558594 C 93.925781 159.367188 93.609375 159.113281 93.445312 158.800781 C 93.28125 158.484375 93.207031 158.089844 93.207031 157.617188 C 93.207031 157.335938 93.242188 157.058594 93.316406 156.8125 C 93.394531 156.558594 93.515625 156.332031 93.671875 156.148438 C 93.820312 155.964844 94.007812 155.824219 94.242188 155.710938 C 94.476562 155.597656 94.742188 155.550781 95.0625 155.550781 C 95.328125 155.550781 95.570312 155.597656 95.789062 155.699219 C 96.011719 155.789062 96.203125 155.921875 96.367188 156.09375 C 96.691406 156.429688 96.851562 156.820312 96.851562 157.257812 L 96.851562 157.757812 Z M 96.882812 157.757812 "/>
<path style=" stroke:none;fill-rule:nonzero;fill:rgb(42.745098%,43.137255%,44.313725%);fill-opacity:1;" d="M 97.757812 163.140625 L 97.757812 155.589844 L 100.980469 155.589844 L 100.980469 156.609375 L 98.828125 156.609375 L 98.828125 158.902344 L 100.699219 158.902344 L 100.699219 159.917969 L 98.828125 159.917969 L 98.828125 163.140625 Z M 97.757812 163.140625 "/>
<path style=" stroke:none;fill-rule:nonzero;fill:rgb(42.745098%,43.137255%,44.313725%);fill-opacity:1;" d="M 102.75 161.355469 C 102.75 161.625 102.824219 161.816406 102.964844 161.941406 C 103.113281 162.0625 103.28125 162.125 103.484375 162.125 C 103.683594 162.125 103.851562 162.0625 104 161.941406 C 104.140625 161.816406 104.21875 161.617188 104.21875 161.355469 L 104.21875 157.375 C 104.21875 157.117188 104.140625 156.925781 104 156.804688 C 103.851562 156.679688 103.683594 156.621094 103.484375 156.621094 C 103.289062 156.621094 103.113281 156.683594 102.964844 156.804688 C 102.824219 156.925781 102.75 157.117188 102.75 157.375 Z M 101.664062 157.371094 C 101.664062 157.066406 101.714844 156.796875 101.820312 156.574219 C 101.925781 156.339844 102.066406 156.140625 102.25 155.988281 C 102.414062 155.839844 102.605469 155.726562 102.824219 155.648438 C 103.035156 155.570312 103.253906 155.527344 103.476562 155.527344 C 103.703125 155.527344 103.914062 155.570312 104.128906 155.648438 C 104.347656 155.726562 104.542969 155.839844 104.726562 155.988281 C 104.890625 156.140625 105.03125 156.339844 105.128906 156.574219 C 105.242188 156.804688 105.296875 157.066406 105.296875 157.371094 L 105.296875 161.347656 C 105.296875 161.671875 105.242188 161.949219 105.128906 162.167969 C 105.023438 162.394531 104.890625 162.578125 104.726562 162.726562 C 104.542969 162.878906 104.347656 163 104.128906 163.078125 C 103.914062 163.15625 103.703125 163.191406 103.476562 163.191406 C 103.253906 163.191406 103.039062 163.15625 102.824219 163.078125 C 102.605469 163 102.414062 162.878906 102.25 162.726562 C 102.066406 162.578125 101.925781 162.394531 101.820312 162.167969 C 101.714844 161.941406 101.664062 161.667969 101.664062 161.347656 Z M 101.664062 157.371094 "/>
<path style=" stroke:none;fill-rule:nonzero;fill:rgb(42.745098%,43.137255%,44.313725%);fill-opacity:1;" d="M 106.316406 163.140625 L 106.316406 155.589844 L 108.042969 155.589844 C 109.320312 155.589844 109.957031 156.332031 109.957031 157.808594 C 109.957031 158.25 109.886719 158.625 109.742188 158.9375 C 109.609375 159.246094 109.363281 159.492188 109.023438 159.691406 L 110.1875 163.140625 L 109.046875 163.140625 L 108.035156 159.917969 L 107.386719 159.917969 L 107.386719 163.140625 Z M 107.394531 156.609375 L 107.394531 158.957031 L 108.015625 158.957031 C 108.207031 158.957031 108.355469 158.929688 108.46875 158.878906 C 108.578125 158.824219 108.671875 158.746094 108.734375 158.648438 C 108.792969 158.546875 108.828125 158.433594 108.847656 158.285156 C 108.867188 158.140625 108.875 157.976562 108.875 157.785156 C 108.875 157.59375 108.867188 157.425781 108.847656 157.285156 C 108.828125 157.136719 108.785156 157.011719 108.722656 156.902344 C 108.585938 156.707031 108.332031 156.609375 107.957031 156.609375 Z M 107.394531 156.609375 "/>
<path style=" stroke:none;fill-rule:nonzero;fill:rgb(42.745098%,43.137255%,44.313725%);fill-opacity:1;" d="M 110.902344 163.140625 L 110.902344 155.589844 L 111.9375 155.589844 L 113.320312 159.585938 L 113.347656 159.585938 L 114.726562 155.589844 L 115.769531 155.589844 L 115.769531 163.140625 L 114.695312 163.140625 L 114.695312 158.539062 L 114.675781 158.539062 L 113.601562 161.792969 L 113.058594 161.792969 L 112 158.539062 L 111.972656 158.539062 L 111.972656 163.140625 Z M 110.902344 163.140625 "/>
<path style=" stroke:none;fill-rule:nonzero;fill:rgb(42.745098%,43.137255%,44.313725%);fill-opacity:1;" d="M 116.390625 163.140625 L 118.078125 155.589844 L 118.972656 155.589844 L 120.660156 163.140625 L 119.578125 163.140625 L 119.253906 161.527344 L 117.789062 161.527344 L 117.460938 163.140625 Z M 119.0625 160.496094 L 118.527344 157.757812 L 118.507812 157.757812 L 117.976562 160.496094 Z M 119.0625 160.496094 "/>
<path style=" stroke:none;fill-rule:nonzero;fill:rgb(42.745098%,43.137255%,44.313725%);fill-opacity:1;" d="M 121.371094 163.140625 L 121.371094 156.609375 L 120.121094 156.609375 L 120.121094 155.589844 L 123.707031 155.589844 L 123.707031 156.609375 L 122.457031 156.609375 L 122.457031 163.140625 Z M 121.371094 163.140625 "/>
<path style=" stroke:none;fill-rule:nonzero;fill:rgb(42.745098%,43.137255%,44.313725%);fill-opacity:1;" d="M 124.273438 155.589844 L 125.351562 155.589844 L 125.351562 163.140625 L 124.273438 163.140625 Z M 124.273438 155.589844 "/>
<path style=" stroke:none;fill-rule:nonzero;fill:rgb(42.745098%,43.137255%,44.313725%);fill-opacity:1;" d="M 127.445312 161.355469 C 127.445312 161.625 127.515625 161.816406 127.660156 161.941406 C 127.804688 162.0625 127.976562 162.125 128.179688 162.125 C 128.378906 162.125 128.546875 162.0625 128.695312 161.941406 C 128.835938 161.816406 128.914062 161.617188 128.914062 161.355469 L 128.914062 157.375 C 128.914062 157.117188 128.835938 156.925781 128.695312 156.804688 C 128.546875 156.679688 128.378906 156.621094 128.179688 156.621094 C 127.984375 156.621094 127.804688 156.683594 127.660156 156.804688 C 127.515625 156.925781 127.445312 157.117188 127.445312 157.375 Z M 126.367188 157.371094 C 126.367188 157.066406 126.417969 156.796875 126.523438 156.574219 C 126.628906 156.339844 126.769531 156.140625 126.953125 155.988281 C 127.113281 155.839844 127.304688 155.726562 127.523438 155.648438 C 127.734375 155.570312 127.953125 155.527344 128.179688 155.527344 C 128.40625 155.527344 128.617188 155.570312 128.828125 155.648438 C 129.046875 155.726562 129.246094 155.839844 129.429688 155.988281 C 129.589844 156.140625 129.734375 156.339844 129.832031 156.574219 C 129.945312 156.804688 130 157.066406 130 157.371094 L 130 161.347656 C 130 161.671875 129.945312 161.949219 129.832031 162.167969 C 129.726562 162.394531 129.589844 162.578125 129.429688 162.726562 C 129.246094 162.878906 129.046875 163 128.828125 163.078125 C 128.617188 163.15625 128.40625 163.191406 128.179688 163.191406 C 127.953125 163.191406 127.742188 163.15625 127.523438 163.078125 C 127.304688 163 127.113281 162.878906 126.953125 162.726562 C 126.769531 162.578125 126.628906 162.394531 126.523438 162.167969 C 126.417969 161.941406 126.367188 161.667969 126.367188 161.347656 Z M 126.367188 157.371094 "/>
<path style=" stroke:none;fill-rule:nonzero;fill:rgb(42.745098%,43.137255%,44.313725%);fill-opacity:1;" d="M 130.96875 163.140625 L 130.96875 155.589844 L 132.011719 155.589844 L 133.640625 160.140625 L 133.664062 160.140625 L 133.664062 155.589844 L 134.742188 155.589844 L 134.742188 163.140625 L 133.726562 163.140625 L 132.066406 158.597656 L 132.054688 158.597656 L 132.054688 163.140625 Z M 130.96875 163.140625 "/>
<path style=" stroke:none;fill-rule:nonzero;fill:rgb(42.745098%,43.137255%,44.313725%);fill-opacity:1;" d="M 138.496094 163.140625 L 138.496094 156.609375 L 137.246094 156.609375 L 137.246094 155.589844 L 140.832031 155.589844 L 140.832031 156.609375 L 139.582031 156.609375 L 139.582031 163.140625 Z M 138.496094 163.140625 "/>
<path style=" stroke:none;fill-rule:nonzero;fill:rgb(42.745098%,43.137255%,44.313725%);fill-opacity:1;" d="M 141.359375 163.140625 L 141.359375 155.589844 L 144.585938 155.589844 L 144.585938 156.609375 L 142.441406 156.609375 L 142.441406 158.824219 L 144.308594 158.824219 L 144.308594 159.839844 L 142.441406 159.839844 L 142.441406 162.054688 L 144.585938 162.054688 L 144.585938 163.140625 Z M 141.359375 163.140625 "/>
<path style=" stroke:none;fill-rule:nonzero;fill:rgb(42.745098%,43.137255%,44.313725%);fill-opacity:1;" d="M 148.777344 160.980469 L 148.777344 161.449219 C 148.777344 161.679688 148.734375 161.90625 148.640625 162.117188 C 148.558594 162.324219 148.4375 162.507812 148.273438 162.667969 C 148.121094 162.832031 147.9375 162.957031 147.722656 163.050781 C 147.519531 163.140625 147.292969 163.191406 147.054688 163.191406 C 146.851562 163.191406 146.636719 163.164062 146.417969 163.105469 C 146.207031 163.050781 146.015625 162.949219 145.855469 162.808594 C 145.683594 162.667969 145.542969 162.484375 145.429688 162.265625 C 145.320312 162.039062 145.261719 161.757812 145.261719 161.40625 L 145.261719 157.25 C 145.261719 157.003906 145.304688 156.777344 145.390625 156.566406 C 145.472656 156.347656 145.59375 156.164062 145.75 156.007812 C 145.902344 155.851562 146.085938 155.734375 146.304688 155.648438 C 146.523438 155.554688 146.765625 155.515625 147.027344 155.515625 C 147.535156 155.515625 147.941406 155.675781 148.269531 156.007812 C 148.421875 156.175781 148.542969 156.367188 148.632812 156.585938 C 148.726562 156.804688 148.769531 157.046875 148.769531 157.304688 L 148.769531 157.738281 L 147.683594 157.738281 L 147.683594 157.375 C 147.683594 157.164062 147.617188 156.980469 147.5 156.828125 C 147.378906 156.671875 147.214844 156.59375 147.011719 156.59375 C 146.742188 156.59375 146.566406 156.679688 146.476562 156.839844 C 146.390625 157.011719 146.347656 157.222656 146.347656 157.476562 L 146.347656 161.335938 C 146.347656 161.554688 146.398438 161.746094 146.488281 161.890625 C 146.582031 162.039062 146.757812 162.109375 146.996094 162.109375 C 147.070312 162.109375 147.144531 162.097656 147.222656 162.074219 C 147.308594 162.046875 147.386719 162.011719 147.457031 161.957031 C 147.519531 161.890625 147.570312 161.816406 147.605469 161.722656 C 147.652344 161.625 147.675781 161.496094 147.675781 161.34375 L 147.675781 160.976562 L 148.777344 160.976562 Z M 148.777344 160.980469 "/>
<path style=" stroke:none;fill-rule:nonzero;fill:rgb(42.745098%,43.137255%,44.313725%);fill-opacity:1;" d="M 149.722656 163.140625 L 149.722656 155.589844 L 150.800781 155.589844 L 150.800781 158.824219 L 152.140625 158.824219 L 152.140625 155.589844 L 153.214844 155.589844 L 153.214844 163.140625 L 152.140625 163.140625 L 152.140625 159.777344 L 150.800781 159.777344 L 150.800781 163.140625 Z M 149.722656 163.140625 "/>
<path style=" stroke:none;fill-rule:nonzero;fill:rgb(42.745098%,43.137255%,44.313725%);fill-opacity:1;" d="M 154.257812 163.140625 L 154.257812 155.589844 L 155.296875 155.589844 L 156.933594 160.140625 L 156.953125 160.140625 L 156.953125 155.589844 L 158.03125 155.589844 L 158.03125 163.140625 L 157.015625 163.140625 L 155.359375 158.597656 L 155.34375 158.597656 L 155.34375 163.140625 Z M 154.257812 163.140625 "/>
<path style=" stroke:none;fill-rule:nonzero;fill:rgb(42.745098%,43.137255%,44.313725%);fill-opacity:1;" d="M 160.09375 161.355469 C 160.09375 161.625 160.164062 161.816406 160.304688 161.941406 C 160.453125 162.0625 160.621094 162.125 160.828125 162.125 C 161.023438 162.125 161.195312 162.0625 161.34375 161.941406 C 161.484375 161.816406 161.5625 161.617188 161.5625 161.355469 L 161.5625 157.375 C 161.5625 157.117188 161.484375 156.925781 161.34375 156.804688 C 161.195312 156.679688 161.023438 156.621094 160.828125 156.621094 C 160.628906 156.621094 160.453125 156.683594 160.304688 156.804688 C 160.164062 156.925781 160.09375 157.117188 160.09375 157.375 Z M 159.011719 157.371094 C 159.011719 157.066406 159.0625 156.796875 159.167969 156.574219 C 159.273438 156.339844 159.414062 156.140625 159.597656 155.988281 C 159.761719 155.839844 159.953125 155.726562 160.171875 155.648438 C 160.382812 155.570312 160.601562 155.527344 160.828125 155.527344 C 161.050781 155.527344 161.265625 155.570312 161.476562 155.648438 C 161.695312 155.726562 161.890625 155.839844 162.074219 155.988281 C 162.238281 156.140625 162.378906 156.339844 162.476562 156.574219 C 162.589844 156.804688 162.648438 157.066406 162.648438 157.371094 L 162.648438 161.347656 C 162.648438 161.671875 162.589844 161.949219 162.476562 162.167969 C 162.371094 162.394531 162.238281 162.578125 162.074219 162.726562 C 161.890625 162.878906 161.695312 163 161.476562 163.078125 C 161.265625 163.15625 161.050781 163.191406 160.828125 163.191406 C 160.601562 163.191406 160.390625 163.15625 160.171875 163.078125 C 159.953125 163 159.761719 162.878906 159.597656 162.726562 C 159.414062 162.578125 159.273438 162.394531 159.167969 162.167969 C 159.0625 161.941406 159.011719 161.667969 159.011719 161.347656 Z M 159.011719 157.371094 "/>
<path style=" stroke:none;fill-rule:nonzero;fill:rgb(42.745098%,43.137255%,44.313725%);fill-opacity:1;" d="M 163.664062 163.140625 L 163.664062 155.589844 L 164.734375 155.589844 L 164.734375 162.054688 L 166.886719 162.054688 L 166.886719 163.140625 Z M 163.664062 163.140625 "/>
<path style=" stroke:none;fill-rule:nonzero;fill:rgb(42.745098%,43.137255%,44.313725%);fill-opacity:1;" d="M 168.660156 161.355469 C 168.660156 161.625 168.730469 161.816406 168.871094 161.941406 C 169.019531 162.0625 169.1875 162.125 169.390625 162.125 C 169.589844 162.125 169.757812 162.0625 169.90625 161.941406 C 170.046875 161.816406 170.125 161.617188 170.125 161.355469 L 170.125 157.375 C 170.125 157.117188 170.046875 156.925781 169.90625 156.804688 C 169.757812 156.679688 169.589844 156.621094 169.390625 156.621094 C 169.195312 156.621094 169.019531 156.683594 168.871094 156.804688 C 168.730469 156.925781 168.660156 157.117188 168.660156 157.375 Z M 167.570312 157.371094 C 167.570312 157.066406 167.621094 156.796875 167.726562 156.574219 C 167.832031 156.339844 167.972656 156.140625 168.15625 155.988281 C 168.320312 155.839844 168.511719 155.726562 168.730469 155.648438 C 168.941406 155.570312 169.160156 155.527344 169.386719 155.527344 C 169.609375 155.527344 169.824219 155.570312 170.035156 155.648438 C 170.253906 155.726562 170.449219 155.839844 170.632812 155.988281 C 170.796875 156.140625 170.9375 156.339844 171.035156 156.574219 C 171.148438 156.804688 171.207031 157.066406 171.207031 157.371094 L 171.207031 161.347656 C 171.207031 161.671875 171.148438 161.949219 171.035156 162.167969 C 170.929688 162.394531 170.796875 162.578125 170.632812 162.726562 C 170.449219 162.878906 170.253906 163 170.035156 163.078125 C 169.824219 163.15625 169.609375 163.191406 169.386719 163.191406 C 169.160156 163.191406 168.949219 163.15625 168.730469 163.078125 C 168.511719 163 168.320312 162.878906 168.15625 162.726562 C 167.972656 162.578125 167.832031 162.394531 167.726562 162.167969 C 167.621094 161.941406 167.570312 161.667969 167.570312 161.347656 Z M 167.570312 157.371094 "/>
<path style=" stroke:none;fill-rule:nonzero;fill:rgb(42.745098%,43.137255%,44.313725%);fill-opacity:1;" d="M 172.160156 157.371094 C 172.160156 157.066406 172.207031 156.796875 172.3125 156.574219 C 172.417969 156.339844 172.558594 156.140625 172.742188 155.988281 C 172.90625 155.839844 173.097656 155.726562 173.316406 155.648438 C 173.527344 155.570312 173.746094 155.527344 173.972656 155.527344 C 174.191406 155.527344 174.410156 155.570312 174.621094 155.648438 C 174.839844 155.726562 175.035156 155.839844 175.21875 155.988281 C 175.382812 156.140625 175.523438 156.339844 175.621094 156.574219 C 175.734375 156.804688 175.792969 157.066406 175.792969 157.371094 L 175.792969 157.75 L 174.707031 157.75 L 174.707031 157.371094 C 174.707031 157.109375 174.628906 156.917969 174.488281 156.796875 C 174.339844 156.671875 174.167969 156.613281 173.972656 156.613281 C 173.773438 156.613281 173.597656 156.679688 173.449219 156.796875 C 173.308594 156.917969 173.238281 157.109375 173.238281 157.371094 L 173.238281 161.347656 C 173.238281 161.617188 173.308594 161.808594 173.449219 161.933594 C 173.597656 162.054688 173.765625 162.117188 173.972656 162.117188 C 174.167969 162.117188 174.339844 162.054688 174.488281 161.933594 C 174.628906 161.808594 174.707031 161.609375 174.707031 161.347656 L 174.707031 159.929688 L 173.84375 159.929688 L 173.84375 158.976562 L 175.792969 158.976562 L 175.792969 161.347656 C 175.792969 161.671875 175.734375 161.949219 175.621094 162.167969 C 175.515625 162.394531 175.382812 162.578125 175.21875 162.726562 C 175.035156 162.878906 174.839844 163 174.621094 163.078125 C 174.410156 163.15625 174.199219 163.191406 173.972656 163.191406 C 173.753906 163.191406 173.535156 163.15625 173.316406 163.078125 C 173.097656 163 172.90625 162.878906 172.742188 162.726562 C 172.558594 162.578125 172.417969 162.394531 172.3125 162.167969 C 172.207031 161.941406 172.160156 161.667969 172.160156 161.347656 Z M 172.160156 157.371094 "/>
<path style=" stroke:none;fill-rule:nonzero;fill:rgb(42.745098%,43.137255%,44.313725%);fill-opacity:1;" d="M 177.808594 163.140625 L 177.808594 159.945312 L 176.328125 155.589844 L 177.472656 155.589844 L 178.347656 158.589844 L 178.367188 158.589844 L 179.234375 155.589844 L 180.378906 155.589844 L 178.898438 159.945312 L 178.898438 163.140625 Z M 177.808594 163.140625 "/>
</g>
</svg>
