<?xml version="1.0" encoding="utf-8"?>
<!-- Generator: Adobe Illustrator 16.0.0, SVG Export Plug-In . SVG Version: 6.00 Build 0)  -->
<!DOCTYPE svg PUBLIC "-//W3C//DTD SVG 1.1//EN" "http://www.w3.org/Graphics/SVG/1.1/DTD/svg11.dtd">
<svg version="1.1" id="Layer_1" xmlns="http://www.w3.org/2000/svg" xmlns:xlink="http://www.w3.org/1999/xlink" x="0px" y="0px"
	 width="500px" height="362.755px" viewBox="0 0 500 362.755" enable-background="new 0 0 500 362.755" xml:space="preserve">
<g>
	<path fill="#FFFFFF" d="M1.8,83.417"/>
</g>
<g>
	<path fill="#FFFFFF" d="M52.41,111.801H3.391v246.95h70.854v-216.13C74.032,115.309,57.383,112.136,52.41,111.801z"/>
</g>
<g>
	<path fill="#FFFFFF" d="M497.389,140.207c-0.024-37.228-0.032-67.547-0.032-78.621c0,0-2.843,50.303-143.755,50.153H215.263v49.088
		c0.144,4.121,2.417,22.003,30.522,22.368h39.675V358.75h70.742V183.034C401.906,182.533,497.421,176.611,497.389,140.207z"/>
</g>
<g>
	<path fill="#FFFFFF" d="M489.227,46.469C471.891,9.119,343.141,5.984,291.222,5.909C278.081,5.886,3.391,6.131,3.391,6.131v48.944
		c0.113,3.906,2.148,22.512,31.38,22.512h74.788V358.75h0.038h75.32h0.042V77.029h92.144c34.005,0.097,104.077,1.152,139.334,20.835
		C468.168,88.582,496.316,61.749,489.227,46.469z"/>
</g>
</svg>
