<?xml version="1.0" encoding="utf-8"?>
<!-- Generator: Adobe Illustrator 16.0.0, SVG Export Plug-In . SVG Version: 6.00 Build 0)  -->
<!DOCTYPE svg PUBLIC "-//W3C//DTD SVG 1.1//EN" "http://www.w3.org/Graphics/SVG/1.1/DTD/svg11.dtd">
<svg version="1.1" id="Layer_1" xmlns="http://www.w3.org/2000/svg" xmlns:xlink="http://www.w3.org/1999/xlink" x="0px" y="0px"
	 width="176.667px" height="50px" viewBox="0 0 176.667 50" enable-background="new 0 0 176.667 50" xml:space="preserve">
<g>
	<g>
		<defs>
			<path id="SVGID_113_" d="M6.761,8.106c-2.829,0-5.123,2.293-5.123,5.119v23.545c0,2.828,2.294,5.123,5.123,5.123h163.648
				c2.826,0,5.119-2.295,5.119-5.123V13.226c0-2.826-2.293-5.119-5.119-5.119H6.761z"/>
		</defs>
		<clipPath id="SVGID_2_">
			<use xlink:href="#SVGID_113_"  overflow="visible"/>
		</clipPath>
		
			<linearGradient id="SVGID_3_" gradientUnits="userSpaceOnUse" x1="-225.9087" y1="264.4961" x2="-225.083" y2="264.4961" gradientTransform="matrix(210.599 0 0 -210.599 47577.7031 55727.6953)">
			<stop  offset="0" style="stop-color:#0EB9CD"/>
			<stop  offset="1" style="stop-color:#05ADE2"/>
		</linearGradient>
		<rect x="1.638" y="8.106" clip-path="url(#SVGID_2_)" fill="url(#SVGID_3_)" width="173.89" height="33.787"/>
	</g>
	<g>
		<defs>
			<path id="SVGID_116_" d="M6.761,8.106c-2.829,0-5.123,2.293-5.123,5.119v23.545c0,2.828,2.294,5.123,5.123,5.123h163.648
				c2.826,0,5.119-2.295,5.119-5.123V13.226c0-2.826-2.293-5.119-5.119-5.119H6.761z"/>
		</defs>
		<clipPath id="SVGID_5_">
			<use xlink:href="#SVGID_116_"  overflow="visible"/>
		</clipPath>
		<g opacity="0.75" clip-path="url(#SVGID_5_)">
			<g>
				<defs>
					<rect id="SVGID_118_" x="94.817" y="-20.89" width="112.738" height="88.807"/>
				</defs>
				<clipPath id="SVGID_6_">
					<use xlink:href="#SVGID_118_"  overflow="visible"/>
				</clipPath>
				<g clip-path="url(#SVGID_6_)">
					<defs>
						<rect id="SVGID_120_" x="94.817" y="-20.89" width="112.738" height="88.807"/>
					</defs>
					<clipPath id="SVGID_8_">
						<use xlink:href="#SVGID_120_"  overflow="visible"/>
					</clipPath>
					<g opacity="0.3" clip-path="url(#SVGID_8_)">
						<g>
							<defs>
								<rect id="SVGID_122_" x="94.817" y="9.944" width="112.738" height="54.033"/>
							</defs>
							<clipPath id="SVGID_9_">
								<use xlink:href="#SVGID_122_"  overflow="visible"/>
							</clipPath>
							<g clip-path="url(#SVGID_9_)">
								<defs>
									<rect id="SVGID_124_" x="94.817" y="9.944" width="112.738" height="54.033"/>
								</defs>
								<clipPath id="SVGID_11_">
									<use xlink:href="#SVGID_124_"  overflow="visible"/>
								</clipPath>
								<path clip-path="url(#SVGID_11_)" fill="#5BC7D4" d="M95.245,54.353c0.07,0.357,0.416,0.588,0.775,0.518
									c0.07-0.014,0.139-0.041,0.199-0.074l5.092,7.121c-0.156,0.148-0.234,0.373-0.188,0.602c0.072,0.357,0.416,0.588,0.777,0.52
									c0.266-0.055,0.463-0.266,0.514-0.514l15.242,0.854c0.002,0.023,0.004,0.047,0.01,0.068c0.072,0.357,0.418,0.59,0.777,0.518
									c0.355-0.07,0.586-0.42,0.514-0.775c-0.01-0.043-0.021-0.086-0.039-0.129l7.242-4.422c0.148,0.18,0.391,0.271,0.633,0.227
									c0.359-0.072,0.588-0.42,0.52-0.777c-0.031-0.145-0.105-0.27-0.209-0.361l5.141-7.773c0.123,0.059,0.266,0.078,0.408,0.049
									c0.156-0.029,0.289-0.115,0.381-0.229l18.928,11.229c-0.045,0.119-0.061,0.25-0.035,0.381
									c0.072,0.357,0.42,0.588,0.775,0.516c0.359-0.07,0.588-0.418,0.516-0.773c-0.016-0.092-0.053-0.174-0.102-0.248
									l19.391-18.188c0.113,0.295,0.426,0.477,0.746,0.412c0.357-0.072,0.59-0.416,0.516-0.777
									c-0.002-0.018-0.008-0.039-0.014-0.059l8.861-4.158c0.145,0.219,0.408,0.336,0.676,0.283
									c0.328-0.064,0.543-0.357,0.531-0.68l12.143-2.43c0.109,0.305,0.424,0.488,0.748,0.424c0.193-0.039,0.348-0.156,0.439-0.314
									l9.1,3.643c-0.021,0.088-0.021,0.182-0.004,0.275c0.07,0.357,0.42,0.588,0.775,0.514c0.357-0.068,0.588-0.416,0.516-0.773
									c-0.064-0.326-0.359-0.549-0.684-0.527l-3.832-20.404c0.305-0.104,0.494-0.424,0.43-0.752
									c-0.074-0.355-0.418-0.588-0.775-0.516c-0.129,0.025-0.238,0.088-0.328,0.17l-7.889-6.094
									c0.072-0.133,0.104-0.293,0.07-0.451c-0.07-0.357-0.418-0.588-0.775-0.518c-0.359,0.072-0.59,0.42-0.516,0.775
									c0.018,0.104,0.064,0.197,0.125,0.275l-5.695,5.973c-0.145-0.102-0.326-0.146-0.508-0.109
									c-0.197,0.041-0.355,0.16-0.445,0.322l-6.619-2.379c0.014-0.072,0.01-0.15-0.006-0.23c-0.072-0.355-0.416-0.588-0.773-0.518
									c-0.359,0.072-0.592,0.42-0.52,0.777v0.002l-0.025-0.096l-20.791,5.754c-0.121-0.275-0.422-0.439-0.729-0.379
									c-0.154,0.031-0.283,0.111-0.375,0.221l-7.684-4.736c0.051-0.119,0.066-0.252,0.041-0.389
									c-0.07-0.357-0.42-0.588-0.775-0.516c-0.355,0.07-0.59,0.416-0.518,0.773c0.025,0.125,0.084,0.236,0.17,0.324l-8.408,10.727
									c-0.133-0.074-0.293-0.107-0.455-0.074c-0.357,0.072-0.588,0.42-0.52,0.777c0.029,0.135,0.098,0.254,0.189,0.342
									l-4.881,6.773c-0.127-0.066-0.279-0.092-0.432-0.061c-0.355,0.07-0.588,0.418-0.518,0.775
									c0.008,0.025,0.014,0.049,0.021,0.074l-13.568,7.076c-0.146-0.195-0.396-0.301-0.652-0.25
									c-0.188,0.039-0.342,0.154-0.434,0.307l-9.773-3.85c0.023-0.092,0.029-0.189,0.008-0.291
									c-0.07-0.357-0.418-0.588-0.775-0.516c-0.348,0.07-0.574,0.398-0.521,0.746l-11.391,4.785
									c-0.146-0.199-0.4-0.307-0.656-0.254c-0.357,0.07-0.59,0.416-0.52,0.775c0.055,0.262,0.258,0.459,0.506,0.512l0.418,9.404
									C95.401,53.653,95.173,53.999,95.245,54.353 M96.122,43.405c-0.006-0.031-0.016-0.063-0.025-0.09l10.287-4.32l1.07-0.451
									c0.016,0.037,0.035,0.068,0.061,0.1l-7.455,9.828l-4.096-4.496C96.101,43.825,96.165,43.618,96.122,43.405 M157.513,21.417
									c0.084-0.018,0.162-0.051,0.23-0.094l6.266,7.049l-6.697-5.709l0.109-1.236C157.45,21.425,157.481,21.425,157.513,21.417
									 M179.897,15.192l4.596,4.182l-3.871,2.859c-0.111-0.111-0.264-0.182-0.422-0.191l-0.549-6.701
									C179.745,15.31,179.829,15.261,179.897,15.192 M194.017,11.249c0.127-0.025,0.238-0.088,0.326-0.172l7.891,6.096
									c-0.039,0.068-0.064,0.146-0.076,0.227l-9.207,0.012l0.934-6.15C193.929,11.263,193.972,11.259,194.017,11.249
									 M118.657,62.755c-0.137-0.082-0.303-0.117-0.473-0.082c-0.148,0.029-0.273,0.105-0.367,0.211l-10.645-6.848
									c0.014-0.029,0.027-0.063,0.035-0.096l15.561,1.898L118.657,62.755z M107.8,38.868l-1.273,16.24
									c-0.027,0.004-0.055,0.006-0.082,0.014c-0.09,0.016-0.17,0.051-0.238,0.098l-6.016-6.604l7.461-9.832
									C107.696,38.817,107.745,38.847,107.8,38.868 M106.112,56.237l-1.113,1.535l-8.336-3.406l9.248,1.398
									c0,0.045,0.006,0.088,0.016,0.133C105.954,56.032,106.017,56.147,106.112,56.237 M106.269,56.351
									c0.127,0.068,0.281,0.092,0.432,0.063s0.277-0.107,0.367-0.215l10.309,6.633l-12.193-4.982L106.269,56.351z M108.062,55.851
									l8.943-0.08l7.104-0.061c0,0.01,0.002,0.02,0.004,0.025c0.025,0.121,0.08,0.227,0.156,0.311l-1.352,1.615L108.062,55.851z
									 M124.417,56.169c0.137,0.084,0.303,0.117,0.473,0.086c0.063-0.014,0.123-0.035,0.176-0.064l1.137,1.557
									c-0.08,0.082-0.139,0.182-0.17,0.293l-2.889-0.35L124.417,56.169z M126.538,57.569c-0.064,0.012-0.125,0.037-0.178,0.066
									l-1.139-1.561c0.154-0.148,0.23-0.373,0.184-0.598c-0.014-0.074-0.041-0.141-0.08-0.203l6.752-5.434
									c0.002,0,0.006,0.004,0.008,0.004l-5.139,7.775C126.823,57.562,126.681,57.542,126.538,57.569 M139.991,27.349l6.016,1.484
									l-1.588,8.623c-0.049-0.002-0.102,0.002-0.15,0.012c-0.02,0.004-0.035,0.008-0.053,0.014l-4.477-9.828
									C139.851,27.581,139.938,27.476,139.991,27.349 M202.499,18.077l-4.619,13.037l-5.73-5.055
									c0.09-0.141,0.127-0.313,0.094-0.49c-0.014-0.064-0.037-0.121-0.064-0.176l10.162-7.438
									C202.384,18.005,202.44,18.046,202.499,18.077 M206.321,38.853l-9.096-3.641c0.023-0.092,0.025-0.188,0.006-0.283
									c-0.043-0.203-0.17-0.365-0.338-0.453l1.074-3.027l8.367,7.381C206.331,38.837,206.329,38.843,206.321,38.853
									 M189.136,29.335l2.133-3.063c0.133,0.076,0.293,0.105,0.457,0.074c0.033-0.006,0.061-0.016,0.09-0.025l4.375,8.207
									c-0.021,0.02-0.047,0.039-0.066,0.061L189.136,29.335z M183.456,37.153c-0.098-0.049-0.209-0.074-0.324-0.068l-2.752-13.768
									c0.09-0.033,0.17-0.084,0.238-0.148l8.254,6.207L183.456,37.153z M172.698,41.952c-0.025,0.02-0.045,0.043-0.064,0.064
									l-10.82-7.092l2.98-4.947c0.107,0.037,0.227,0.049,0.348,0.023c0.041-0.006,0.078-0.018,0.115-0.033l5.889,9.486
									L172.698,41.952z M133.065,48.978l7.779-7.363l8.146,7.459c-0.053,0.076-0.088,0.17-0.102,0.268l-15.715-0.078
									c0-0.014-0.002-0.025-0.004-0.037C133.151,49.134,133.114,49.05,133.065,48.978 M164.421,29.642
									c0.045,0.1,0.115,0.182,0.201,0.246l-2.971,4.934l-4.707-3.084c0.117-0.131,0.18-0.311,0.162-0.498L164.421,29.642z
									 M196.458,34.413c-0.033,0.004-0.064,0.014-0.092,0.025l-4.377-8.211c0.01-0.01,0.021-0.016,0.029-0.023l5.791,5.105
									l-1.1,3.102C196.628,34.396,196.544,34.396,196.458,34.413 M149.411,48.792c-0.02,0.006-0.035,0.01-0.053,0.016l-4.5-9.912
									l-0.105-0.229c0.137-0.086,0.236-0.223,0.277-0.379l8.133,0.979l-3.49,9.529C149.589,48.778,149.501,48.776,149.411,48.792
									 M145.054,38.097c0-0.037-0.004-0.074-0.012-0.111c-0.006-0.041-0.018-0.076-0.033-0.113l2.619-1.504l8.25-4.742
									c0.016,0.029,0.035,0.057,0.055,0.084l-2.699,7.371L145.054,38.097z M156.089,31.851c0.047,0.033,0.1,0.059,0.156,0.078
									l1.238,4.102l0.98,3.229c-0.174,0.078-0.299,0.23-0.352,0.408l-4.682-0.564L156.089,31.851z M158.987,39.239
									c-0.104-0.041-0.221-0.055-0.34-0.037l-0.98-3.246l-1.209-3.994c0.039-0.002,0.082-0.006,0.123-0.014
									c0.074-0.014,0.143-0.043,0.209-0.08l4.762,3.119L158.987,39.239z M144.526,38.761c0.018-0.002,0.033-0.01,0.053-0.014
									l4.602,10.141c-0.02,0.012-0.039,0.025-0.059,0.041l-8.139-7.451l3.008-2.846C144.136,38.747,144.329,38.8,144.526,38.761
									 M149.854,48.86l3.508-9.57l4.721,0.568c0,0.039,0.006,0.082,0.014,0.125c0.02,0.098,0.063,0.189,0.121,0.264l-8.299,8.656
									C149.897,48.888,149.878,48.874,149.854,48.86 M159.155,39.341l2.557-4.248l10.813,7.086
									c-0.01,0.02-0.018,0.041-0.023,0.063l-13.098-2.379c0-0.045-0.004-0.092-0.014-0.141
									C159.358,39.565,159.271,39.433,159.155,39.341 M180.733,23.013c0.01-0.016,0.02-0.037,0.029-0.057l10.176,2.672
									c-0.004,0.064-0.004,0.133,0.01,0.201c0.025,0.127,0.086,0.236,0.168,0.324l-2.135,3.063L180.733,23.013z M164.36,29.456
									l-7.299,1.598c-0.082-0.199-0.252-0.344-0.457-0.393l0.688-7.764l7.162,6.109C164.372,29.136,164.335,29.294,164.36,29.456
									 M156.411,30.646c-0.031,0-0.059,0.004-0.09,0.01c-0.023,0.006-0.049,0.012-0.072,0.02l-7.283-14.785
									c0.018-0.014,0.039-0.029,0.057-0.045l8.088,6.9L156.411,30.646z M155.808,31.442l-10.895,6.264
									c-0.08-0.1-0.184-0.172-0.303-0.215l1.586-8.613l9.6,2.361c-0.006,0.064-0.002,0.127,0.008,0.191
									C155.804,31.437,155.808,31.438,155.808,31.442 M143.856,38.491l-3.016,2.857l-6.58-6.02c0.025-0.031,0.047-0.064,0.066-0.1
									l9.416,2.793c-0.008,0.074-0.008,0.146,0.008,0.221C143.767,38.335,143.806,38.421,143.856,38.491 M133.866,35.579
									c0.098-0.02,0.184-0.059,0.256-0.115l6.574,6.018l-7.766,7.355c-0.076-0.059-0.162-0.102-0.258-0.123l1.064-13.125
									C133.78,35.589,133.825,35.585,133.866,35.579 M133.175,49.456l15.713,0.078c0.002,0.012,0.004,0.023,0.004,0.035
									c0.068,0.336,0.381,0.561,0.715,0.525l2.711,10.549c-0.1,0.043-0.188,0.109-0.256,0.193l-18.926-11.232
									C133.153,49.558,133.167,49.507,133.175,49.456 M152.505,60.597l-2.709-10.551c0.271-0.113,0.438-0.398,0.395-0.699
									l6.254-1.871l-3.783,13.123C152.61,60.593,152.56,60.591,152.505,60.597 M150.136,49.159
									c-0.021-0.043-0.047-0.084-0.076-0.123l8.293-8.654c0.037,0.027,0.076,0.053,0.117,0.068l-1.963,6.807L150.136,49.159z
									 M158.655,40.507c0.072,0.008,0.145,0.006,0.217-0.008c0.244-0.049,0.43-0.225,0.5-0.447l13.094,2.381
									c-0.002,0.018-0.002,0.035,0,0.055l-15.738,4.703L158.655,40.507z M172.995,41.81c-0.047,0.008-0.094,0.021-0.133,0.039
									l-6.32-10.176l-1.119-1.801c0.043-0.037,0.08-0.074,0.111-0.119l10.32,4.74l-2.604,7.314
									C173.169,41.79,173.081,41.788,172.995,41.81 M165.63,29.583c0.039-0.107,0.053-0.227,0.029-0.35l13.939-6.184
									c0.063,0.098,0.146,0.176,0.246,0.23l-3.926,11.029L165.63,29.583z M180.028,23.345c0.053,0.01,0.107,0.012,0.158,0.01
									l2.756,13.768c-0.139,0.051-0.252,0.145-0.33,0.262l-6.516-2.992L180.028,23.345z M183.618,37.263l5.408-7.77l6.979,5.252
									c-0.057,0.104-0.084,0.223-0.078,0.346l-12.143,2.43C183.749,37.421,183.69,37.335,183.618,37.263 M206.464,38.683
									l-8.426-7.43l4.643-13.111c0.049,0.008,0.1,0.01,0.152,0.01l3.836,20.41C206.591,38.589,206.521,38.628,206.464,38.683
									 M202.157,17.593c0,0.012,0,0.021,0.006,0.031c0.01,0.063,0.033,0.123,0.061,0.18l-10.16,7.434
									c-0.076-0.078-0.172-0.135-0.275-0.168l1.133-7.463L202.157,17.593z M191.597,25.04c-0.041,0-0.09,0.004-0.129,0.016
									c-0.006,0-0.01,0.002-0.016,0.002l-3.797-6.99c0.154-0.104,0.258-0.27,0.285-0.453l4.785-0.008L191.597,25.04z
									 M187.419,18.165c0.021-0.004,0.041-0.014,0.061-0.016l3.789,6.979c-0.033,0.018-0.063,0.039-0.09,0.063l-6.381-5.801
									l1.979-1.459C186.925,18.116,187.169,18.216,187.419,18.165 M191.048,25.333c-0.016,0.025-0.031,0.049-0.045,0.076
									l-10.191-2.641c0.006-0.064,0.002-0.133-0.01-0.201c-0.012-0.063-0.035-0.123-0.064-0.178l3.904-2.885L191.048,25.333z
									 M179.085,15.265c0.109,0.07,0.238,0.109,0.373,0.107l0.547,6.684c-0.344,0.082-0.566,0.424-0.496,0.771
									c0.004,0.016,0.01,0.029,0.012,0.049l-3.662,1.621l-10.264,4.555c-0.008-0.02-0.02-0.037-0.029-0.053L179.085,15.265z
									 M157.228,21.413l-0.096,1.096l-7.521-6.418l7.166,4.42c-0.053,0.119-0.068,0.252-0.041,0.389
									C156.788,21.159,156.985,21.353,157.228,21.413 M148.72,15.993c0.025-0.004,0.049-0.012,0.072-0.016l7.283,14.783
									c-0.105,0.072-0.186,0.176-0.234,0.293l-9.607-2.365l2.334-12.68C148.618,16.009,148.667,16.007,148.72,15.993
									 M148.378,15.972l-2.334,12.668l-6.006-1.477c0.004-0.063,0-0.127-0.012-0.191c-0.025-0.125-0.086-0.236-0.168-0.32
									l8.404-10.729C148.3,15.94,148.339,15.958,148.378,15.972 M139.511,27.747c0.016-0.004,0.035-0.006,0.051-0.012l4.479,9.826
									c-0.105,0.068-0.188,0.164-0.238,0.273l-9.412-2.789c0.012-0.078,0.012-0.162-0.006-0.244
									c-0.025-0.137-0.094-0.252-0.186-0.342l4.881-6.775C139.206,27.751,139.354,27.778,139.511,27.747 M133.53,35.556
									c0.006,0.004,0.012,0.006,0.016,0.008l-1.064,13.135c-0.027,0.002-0.057,0.004-0.086,0.01
									c-0.174,0.035-0.316,0.135-0.412,0.27l-3.494-1.75L133.53,35.556z M131.899,49.149c-0.037,0.104-0.045,0.221-0.021,0.336
									c0.014,0.074,0.043,0.141,0.078,0.203l-6.75,5.436c-0.029-0.029-0.064-0.053-0.1-0.074l3.303-7.645L131.899,49.149z
									 M124.931,54.972c-0.098-0.027-0.199-0.031-0.301-0.01c-0.018,0.004-0.031,0.006-0.045,0.01l-4.094-9.279l-1.113-2.527
									c0.074-0.049,0.139-0.113,0.189-0.184l8.67,4.336L124.931,54.972z M119.151,43.255c0.016-0.002,0.031-0.008,0.049-0.012
									l1.09,2.473l4.117,9.334c-0.01,0.008-0.021,0.016-0.031,0.021l-8.607-8.896l2.865-3.031
									C118.778,43.245,118.964,43.294,119.151,43.255 M124.235,55.206c-0.066,0.092-0.111,0.195-0.129,0.311l-5.395,0.049
									l-11.488,0.1c0-0.01-0.004-0.018-0.006-0.027c-0.021-0.105-0.066-0.197-0.127-0.277l8.545-9.043L124.235,55.206z
									 M106.95,55.226c-0.068-0.047-0.148-0.082-0.23-0.102l1.27-16.209c0.063,0.006,0.123,0.002,0.188-0.012
									c0.074-0.014,0.143-0.043,0.209-0.08l7.115,7.354L106.95,55.226z M106.062,55.349c-0.053,0.066-0.092,0.143-0.119,0.225
									l-9.396-1.424c-0.002-0.016-0.004-0.037-0.008-0.057c-0.031-0.15-0.111-0.279-0.219-0.371l3.754-4.947L106.062,55.349z
									 M96.372,54.675c0.047-0.051,0.086-0.109,0.113-0.172l8.396,3.43l-2.809,3.875c-0.127-0.068-0.281-0.094-0.434-0.064
									c-0.063,0.012-0.117,0.035-0.17,0.059L96.372,54.675z M102.427,62.329c-0.002-0.023-0.006-0.045-0.012-0.068
									c-0.023-0.135-0.092-0.25-0.184-0.342l2.836-3.91l12.607,5.152c-0.002,0.008-0.006,0.016-0.008,0.023L102.427,62.329z
									 M118.819,62.897c-0.006-0.008-0.01-0.012-0.012-0.018l4.189-5.014l3.012,0.369c0,0.035,0.004,0.074,0.012,0.109
									c0.008,0.045,0.021,0.09,0.039,0.131L118.819,62.897z M152.983,60.735c-0.041-0.033-0.088-0.061-0.135-0.082l3.816-13.244
									l15.443-4.613L152.983,60.735z M173.673,42.089c-0.061-0.09-0.143-0.166-0.24-0.217l2.598-7.299l6.5,2.984
									c-0.027,0.1-0.035,0.205-0.014,0.314c0.006,0.021,0.012,0.041,0.016,0.061L173.673,42.089z M193.505,11.14
									c0.059,0.041,0.121,0.072,0.188,0.092l-0.938,6.182l-4.814,0.006c0-0.01-0.002-0.02-0.004-0.029
									c-0.02-0.105-0.066-0.199-0.127-0.275L193.505,11.14z M186.649,17.37c-0.021,0.09-0.025,0.184-0.004,0.275
									c0.006,0.041,0.02,0.078,0.033,0.113l-2.025,1.498l-4.637-4.217c0.01-0.014,0.018-0.025,0.025-0.041L186.649,17.37z
									 M178.823,14.927c0.025,0.076,0.066,0.146,0.117,0.209l-13.506,13.717c-0.145-0.127-0.348-0.184-0.553-0.143
									c-0.084,0.016-0.162,0.051-0.23,0.094l-6.766-7.611c0.117-0.137,0.172-0.316,0.15-0.502l20.789-5.754L178.823,14.927z
									 M133.196,35.31c0.045,0.063,0.104,0.117,0.164,0.16l-5.045,11.67l-8.664-4.334c0.033-0.104,0.039-0.213,0.018-0.326
									c-0.008-0.033-0.018-0.066-0.031-0.1L133.196,35.31z M118.384,42.448c-0.023,0.092-0.029,0.191-0.01,0.289
									c0.021,0.104,0.064,0.193,0.123,0.27l-2.863,3.031l-7.1-7.34c0.027-0.029,0.055-0.064,0.076-0.102L118.384,42.448z
									 M95.604,44.181c0.08-0.016,0.146-0.045,0.211-0.082l4.123,4.529l-3.785,4.99c-0.064-0.027-0.133-0.045-0.205-0.051
									l-0.418-9.375C95.552,44.188,95.581,44.188,95.604,44.181"/>
							</g>
						</g>
					</g>
					<g opacity="0.1" clip-path="url(#SVGID_8_)">
						<g>
							<defs>
								<rect id="SVGID_126_" x="106.438" y="-2.604" width="79.58" height="51.582"/>
							</defs>
							<clipPath id="SVGID_13_">
								<use xlink:href="#SVGID_126_"  overflow="visible"/>
							</clipPath>
							<g clip-path="url(#SVGID_13_)">
								<defs>
									<rect id="SVGID_128_" x="106.438" y="-2.604" width="79.58" height="51.582"/>
								</defs>
								<clipPath id="SVGID_15_">
									<use xlink:href="#SVGID_128_"  overflow="visible"/>
								</clipPath>
								<path clip-path="url(#SVGID_15_)" fill="#5BC7D4" d="M184.739,3.702l-4.24-5.521c0.115-0.148,0.137-0.357,0.041-0.533
									c-0.129-0.236-0.426-0.32-0.662-0.191c-0.172,0.094-0.264,0.275-0.254,0.459l-8.727,2.715
									c-0.137-0.223-0.422-0.301-0.652-0.176c-0.236,0.129-0.322,0.426-0.193,0.662c0.039,0.066,0.084,0.121,0.143,0.162
									l-3.699,6.836c-0.125-0.045-0.268-0.037-0.393,0.031c-0.17,0.094-0.26,0.273-0.25,0.453L154.8,11.052
									c-0.008-0.014-0.016-0.031-0.027-0.051c-0.129-0.232-0.426-0.322-0.66-0.191c-0.102,0.055-0.172,0.143-0.215,0.24
									l-5.99-1.51c0.01-0.096-0.01-0.193-0.057-0.285c-0.129-0.236-0.426-0.322-0.662-0.191c-0.109,0.057-0.186,0.15-0.223,0.256
									l-9.873-2.068c0.006-0.09-0.014-0.182-0.059-0.264c-0.127-0.236-0.424-0.322-0.66-0.191
									c-0.236,0.127-0.324,0.424-0.193,0.66c0.049,0.09,0.121,0.158,0.209,0.199l-2.096,6.344
									c-0.104-0.018-0.217-0.004-0.318,0.055c-0.203,0.111-0.295,0.346-0.232,0.559l-14.516,6.646l0.031,0.068
									c0-0.002,0-0.002,0-0.002c-0.131-0.236-0.428-0.322-0.662-0.193c-0.236,0.129-0.322,0.426-0.193,0.664
									c0.027,0.051,0.064,0.094,0.107,0.131l-2.617,4.5c-0.129-0.047-0.273-0.041-0.404,0.027
									c-0.119,0.07-0.203,0.182-0.236,0.305l-6.07-0.67c-0.002-0.07-0.023-0.145-0.061-0.215c-0.129-0.234-0.424-0.32-0.66-0.191
									c-0.238,0.131-0.324,0.426-0.193,0.662c0.057,0.105,0.15,0.182,0.254,0.221l-1.563,7.211
									c-0.092-0.006-0.184,0.012-0.268,0.057c-0.236,0.131-0.322,0.43-0.193,0.662c0.119,0.219,0.377,0.307,0.6,0.223
									l7.549,13.381c-0.191,0.143-0.254,0.408-0.135,0.625c0.129,0.236,0.424,0.32,0.662,0.193
									c0.236-0.131,0.322-0.428,0.193-0.664c-0.035-0.061-0.082-0.111-0.133-0.15l3.416-6.396c0.129,0.043,0.27,0.035,0.4-0.033
									c0.215-0.119,0.303-0.373,0.221-0.598l8.037-4.408c0.143,0.189,0.406,0.252,0.621,0.133c0.18-0.098,0.271-0.291,0.248-0.482
									l6.998-1.865c0.008,0.012,0.014,0.027,0.021,0.041c0.129,0.236,0.426,0.322,0.662,0.193c0.213-0.119,0.303-0.369,0.225-0.59
									l19.645,1.063c0.008,0.063,0.027,0.129,0.061,0.191c0.129,0.234,0.426,0.32,0.664,0.191c0.234-0.129,0.32-0.428,0.191-0.664
									c-0.049-0.088-0.119-0.152-0.201-0.195l5.369-15.377c0.107,0.021,0.223,0.006,0.324-0.051
									c0.098-0.053,0.166-0.133,0.209-0.223l6.613,1.955c-0.014,0.098,0.002,0.205,0.057,0.301
									c0.127,0.236,0.424,0.324,0.662,0.193c0.16-0.09,0.252-0.256,0.252-0.43l6.207-0.943c0.008,0.029,0.023,0.061,0.039,0.09
									c0.129,0.236,0.424,0.324,0.66,0.193c0.236-0.129,0.324-0.426,0.193-0.66c-0.01-0.018-0.016-0.031-0.025-0.047l8.223-7.742
									c0.148,0.117,0.359,0.141,0.537,0.045c0.234-0.129,0.322-0.428,0.191-0.662c-0.082-0.154-0.234-0.242-0.393-0.254
									l-0.508-6.457c0.053-0.012,0.1-0.027,0.148-0.055c0.236-0.127,0.32-0.426,0.193-0.66
									C185.269,3.665,184.978,3.577,184.739,3.702 M180.046-1.634l-0.18,4.496l-8.9-2.016c0-0.029-0.006-0.057-0.014-0.084
									l0.82-0.254l7.883-2.453c0.008,0.02,0.018,0.041,0.029,0.061C179.759-1.741,179.897-1.655,180.046-1.634 M134.501,14.87
									l0.652,0.648l-1.072,6.422l0.189-6.977c0.057-0.008,0.119-0.025,0.176-0.057C134.466,14.897,134.485,14.882,134.501,14.87
									 M119.015,22.013l2.879,4.055c-0.086,0.084-0.137,0.193-0.146,0.309l-3.555,0.227l0.611-4.557
									C118.874,22.05,118.944,22.04,119.015,22.013 M109.013,26.481l3.457,3.041l-5.219,4.377
									c-0.047-0.041-0.098-0.072-0.154-0.094l1.566-7.211c0.09,0.008,0.184-0.012,0.268-0.057
									C108.958,26.522,108.985,26.503,109.013,26.481 M171.47,18.983l7.908-8.486c0.021,0.014,0.043,0.027,0.068,0.039
									l-2.771,8.947c-0.1-0.018-0.209,0-0.305,0.053c-0.113,0.063-0.191,0.162-0.229,0.273L171.47,18.983z M170.954,0.991
									l8.906,2.016l-0.258,6.605c-0.063,0.002-0.125,0.025-0.182,0.055c-0.018,0.014-0.037,0.023-0.053,0.035l-8.455-8.592
									C170.929,1.073,170.944,1.032,170.954,0.991 M180.083,9.862c-0.018-0.029-0.035-0.057-0.055-0.082l4.57-5.199l-3.098,5.9
									l-1.361-0.34C180.149,10.048,180.13,9.95,180.083,9.862 M181.433,10.614l-4.531,8.627l2.682-8.664
									c0.1,0.016,0.209,0,0.307-0.053c0.102-0.057,0.176-0.145,0.215-0.244L181.433,10.614z M171.302,18.954l-1.537-0.273
									c0.006-0.084-0.014-0.168-0.059-0.246c-0.002-0.008-0.006-0.012-0.008-0.018l4.051-3.35l5.104-4.215L171.302,18.954z
									 M171.187,19.077l-1.469,1.576c-0.07-0.051-0.152-0.078-0.234-0.086l-0.098-1.422c0.041-0.01,0.084-0.027,0.131-0.049
									c0.109-0.063,0.188-0.16,0.227-0.273L171.187,19.077z M169.001,20.849l-6.615-1.955c0,0,0-0.004,0-0.006l6.412-0.137
									c0.012,0.051,0.027,0.105,0.055,0.154c0.082,0.148,0.23,0.238,0.389,0.25l0.096,1.422c-0.043,0.012-0.088,0.025-0.127,0.049
									C169.114,20.679,169.044,20.759,169.001,20.849 M147.481,9.974l2.146,7.697c-0.014,0.006-0.023,0.012-0.035,0.02
									c-0.035,0.016-0.066,0.039-0.092,0.063l-5.01-4.125l2.705-3.705C147.282,9.968,147.382,9.985,147.481,9.974 M107.411,34.3
									l9.299-0.627c0.01,0.045,0.023,0.09,0.047,0.131c0.064,0.115,0.168,0.193,0.285,0.23l-0.838,5.594l-8.826-5.182
									C107.396,34.399,107.409,34.353,107.411,34.3 M115.089,48.024l1.225-8.166l2.051,1.205
									c-0.051,0.131-0.049,0.281,0.025,0.414c0.033,0.066,0.084,0.119,0.135,0.16l-3.416,6.393
									C115.103,48.028,115.097,48.026,115.089,48.024 M118.854,40.759c-0.023-0.002-0.045-0.002-0.068,0l-1.432-6.734
									c0.023-0.008,0.043-0.018,0.064-0.027c0.107-0.061,0.184-0.154,0.225-0.262l2.664,0.721L118.854,40.759z M120.478,34.354
									l1.719-7.449c0.066,0.006,0.139-0.004,0.207-0.029l4.996,9.109c-0.068,0.053-0.117,0.117-0.15,0.191L120.478,34.354z
									 M135.315,31.616l-1.182-8.178c0.027-0.01,0.057-0.02,0.082-0.033c0.08-0.045,0.143-0.107,0.186-0.182l4.043,1.383
									l-2.75,9.168c-0.021-0.002-0.045-0.004-0.068-0.004L135.315,31.616z M161.478,19.063c0.004,0.008,0.01,0.012,0.012,0.02
									l-8.859,7.531c-0.055-0.049-0.117-0.084-0.186-0.104l1.063-8.107l7.912,0.467C161.423,18.937,161.444,19.001,161.478,19.063
									 M139.354,20.278c0.08,0.113,0.197,0.184,0.33,0.205l-1.197,3.988l-4.033-1.379c0.02-0.078,0.02-0.16-0.002-0.238
									L139.354,20.278z M118.437,40.94l-2.1-1.234l0.848-5.65c0.008,0,0.018,0,0.027,0l1.434,6.73
									c-0.021,0.012-0.043,0.02-0.064,0.031C118.522,40.849,118.476,40.89,118.437,40.94 M151.927,26.677l-6.518-3.732
									l4.141-4.428c0.098,0.066,0.219,0.098,0.338,0.084l0.051,0.178l2.172,7.756c-0.012,0.006-0.023,0.01-0.035,0.016
									C152.015,26.583,151.964,26.626,151.927,26.677 M145.284,22.872l-5.041-2.889c-0.002-0.023-0.004-0.047-0.01-0.074
									l6.934-1.244l2.197-0.393c0.012,0.025,0.02,0.051,0.033,0.078c0.016,0.025,0.031,0.047,0.047,0.068L145.284,22.872z
									 M145.181,22.979l-2.381,2.549c-0.115-0.076-0.26-0.1-0.395-0.064l-0.984-2.295l-1.25-2.914
									c0.021-0.037,0.039-0.076,0.051-0.117L145.181,22.979z M138.622,24.517l1.213-4.037c0.051-0.008,0.105-0.023,0.156-0.051
									c0.025-0.016,0.053-0.033,0.074-0.053l1.219,2.84l0.99,2.305c-0.074,0.047-0.135,0.111-0.174,0.184L138.622,24.517z
									 M150.304,18.216l3.059,0.182l-1.063,8.094c-0.016,0-0.033,0-0.053,0.004l-2.221-7.934c0.01-0.006,0.023-0.012,0.035-0.02
									C150.192,18.474,150.272,18.351,150.304,18.216 M151.837,26.854l-8.82-0.949c-0.002-0.07-0.021-0.141-0.059-0.207
									c-0.016-0.027-0.031-0.051-0.053-0.074l2.404-2.572l6.547,3.75C151.849,26.819,151.845,26.837,151.837,26.854
									 M142.103,26.169c0.018,0.029,0.037,0.061,0.059,0.084l-6.283,7.586c-0.016-0.006-0.029-0.014-0.047-0.023l2.75-9.162
									l3.471,1.186C142.03,25.948,142.046,26.065,142.103,26.169 M120.337,34.315l-2.664-0.717
									c0.004-0.092-0.016-0.18-0.059-0.266c-0.027-0.045-0.059-0.084-0.094-0.115l4.492-6.365
									c0.016,0.008,0.027,0.016,0.041,0.021L120.337,34.315z M134.13,22.513l1.146-6.871l4.086,4.068
									c-0.092,0.125-0.119,0.289-0.072,0.438l-4.893,2.576C134.333,22.62,134.237,22.548,134.13,22.513 M135.306,15.468
									l1.293-7.76c0.016,0,0.037,0,0.055-0.002l2.918,11.844c-0.02,0.008-0.033,0.014-0.051,0.023
									c-0.02,0.01-0.039,0.021-0.057,0.035L135.306,15.468z M140.183,19.767c-0.023-0.045-0.053-0.082-0.086-0.111l4.313-5.912
									l5.002,4.121c-0.051,0.08-0.074,0.174-0.072,0.266l-9.152,1.645C140.185,19.771,140.185,19.769,140.183,19.767
									 M150.257,17.882c-0.029-0.051-0.064-0.094-0.105-0.129l4.004-6.068c0.029,0.014,0.055,0.021,0.084,0.027l-0.857,6.539
									l-3.072-0.178C150.308,18.007,150.288,17.942,150.257,17.882 M154.661,11.612l6.854,6.922
									c-0.043,0.059-0.072,0.123-0.09,0.193l-7.898-0.467l0.855-6.539c0.066-0.004,0.137-0.021,0.197-0.059
									C154.608,11.649,154.636,11.63,154.661,11.612 M161.677,19.257l-5.369,15.375c-0.078-0.012-0.158-0.008-0.234,0.018
									l-3.49-7.268c0.205-0.139,0.275-0.416,0.152-0.637c-0.002-0.01-0.008-0.016-0.014-0.023l8.861-7.527
									C161.614,19.218,161.644,19.241,161.677,19.257 M155.856,34.786l-8.393-5.629l4.432-1.92
									c0.119,0.188,0.35,0.273,0.559,0.209l3.49,7.264C155.913,34.731,155.882,34.759,155.856,34.786 M147.323,29.062
									l-4.354-2.918c0.016-0.029,0.025-0.063,0.033-0.094l8.82,0.949c0,0.035,0.006,0.07,0.014,0.107L147.323,29.062z
									 M147.167,29.13l-11.154,4.832c-0.008-0.01-0.016-0.021-0.023-0.031l6.279-7.584c0.146,0.092,0.336,0.104,0.496,0.016
									c0.051-0.027,0.092-0.061,0.127-0.102L147.167,29.13z M135.245,33.952l-4.957-2.902l3.584-7.602
									c0.041,0.012,0.08,0.018,0.121,0.016l0.227,1.551l1.266,8.775c-0.031,0.01-0.066,0.023-0.096,0.041
									C135.335,33.862,135.284,33.903,135.245,33.952 M130.163,30.976l-7.479-4.373c0.031-0.08,0.043-0.164,0.031-0.248
									l10.84-3.139c0.045,0.08,0.109,0.139,0.182,0.184L130.163,30.976z M130.101,31.106l-2.264,4.799
									c-0.1-0.029-0.209-0.027-0.311,0.01l-4.998-9.107c0.031-0.023,0.061-0.053,0.084-0.082L130.101,31.106z M127.237,36.542
									l-8.033,4.408c-0.055-0.074-0.129-0.129-0.209-0.16l1.451-6.297l6.766,1.824C127.202,36.39,127.212,36.468,127.237,36.542
									 M114.774,48.028l-7.547-13.381c0.029-0.023,0.057-0.051,0.078-0.08l8.873,5.213l-1.23,8.221
									C114.89,47.999,114.831,48.009,114.774,48.028 M112.579,29.616l4.195,3.688c-0.045,0.066-0.068,0.146-0.078,0.225
									l-9.295,0.631c-0.008-0.047-0.023-0.09-0.047-0.131l-0.014-0.021L112.579,29.616z M112.69,29.522l2.711-2.273
									c0.102,0.092,0.242,0.135,0.377,0.121l1.18,5.768c-0.004,0-0.004,0-0.008,0.002c-0.029,0.016-0.055,0.037-0.082,0.057
									L112.69,29.522z M116.212,26.872l1.814-0.115l-0.85,6.324c-0.025,0-0.053,0.002-0.082,0.008l-1.176-5.758
									c0.014-0.006,0.025-0.012,0.041-0.02C116.126,27.222,116.216,27.048,116.212,26.872 M118.173,26.747l3.582-0.225
									c0.012,0.043,0.027,0.088,0.049,0.131c0.027,0.045,0.057,0.086,0.09,0.117l-4.514,6.352c-0.02-0.01-0.039-0.016-0.061-0.021
									L118.173,26.747z M133.499,23.034c0,0.016,0.002,0.031,0.006,0.047l-7.98,2.311l-2.848,0.824
									c-0.006-0.01-0.012-0.021-0.014-0.031c-0.127-0.23-0.414-0.318-0.65-0.199l-2.875-4.047c0.076-0.063,0.133-0.146,0.16-0.238
									L133.499,23.034z M134.64,14.245c-0.051-0.09-0.123-0.158-0.209-0.199l1.953-5.918l-1.201,7.217l-0.578-0.574
									C134.714,14.622,134.731,14.417,134.64,14.245 M136.935,7.585l7.363,6.066l-4.316,5.918
									c-0.084-0.045-0.176-0.064-0.271-0.055l-2.918-11.842c0.018-0.008,0.035-0.018,0.049-0.023
									C136.876,7.63,136.907,7.608,136.935,7.585 M137.065,7.392l9.871,2.068c-0.008,0.088,0.014,0.182,0.059,0.264
									c0.023,0.043,0.051,0.082,0.084,0.113l-2.697,3.699l-7.355-6.064C137.04,7.446,137.056,7.421,137.065,7.392 M147.872,9.679
									l5.988,1.51c-0.01,0.094,0.01,0.191,0.059,0.283c0.029,0.055,0.068,0.1,0.113,0.139l-4,6.064
									c-0.084-0.039-0.174-0.053-0.266-0.043l-2.145-7.695c0.01-0.006,0.023-0.012,0.035-0.02
									C147.757,9.862,147.831,9.776,147.872,9.679 M163.175,15.698l-1.146,2.656c-0.117-0.031-0.244-0.02-0.359,0.043
									c-0.018,0.014-0.037,0.023-0.055,0.037l-6.859-6.932c0.002-0.002,0.004-0.006,0.006-0.008L163.175,15.698z M163.304,15.765
									l5.514,2.754c-0.01,0.027-0.018,0.059-0.021,0.088l-6.414,0.139c-0.006-0.053-0.021-0.104-0.049-0.152
									c-0.045-0.078-0.104-0.137-0.172-0.18L163.304,15.765z M163.362,15.632l2.84-6.588c0.066,0.018,0.133,0.021,0.199,0.014
									l0.574,1.965l2.1,7.205c-0.01,0.002-0.02,0.008-0.029,0.014c-0.066,0.037-0.125,0.088-0.164,0.148L163.362,15.632z
									 M166.81,8.692l3.07,0.354l-0.639,9.137c-0.01,0-0.018,0.002-0.029,0.004l-2.113-7.248l-0.559-1.92
									c0.01-0.006,0.023-0.012,0.031-0.016C166.696,8.933,166.778,8.819,166.81,8.692 M170.022,9.062l9.146,1.049
									c0,0.076,0.021,0.15,0.057,0.221c0.004,0.008,0.008,0.01,0.012,0.018l-6.557,5.416l-3.076,2.543
									c-0.063-0.059-0.139-0.096-0.219-0.113L170.022,9.062z M170.03,8.917l0.527-7.555c0.055-0.008,0.107-0.025,0.156-0.051
									c0.043-0.023,0.076-0.053,0.109-0.084l8.441,8.574c-0.037,0.051-0.064,0.107-0.08,0.168L170.03,8.917z M180.003,3.038
									l4.486,1.016c-0.018,0.105-0.002,0.215,0.051,0.314c0.008,0.014,0.016,0.023,0.021,0.035l-4.641,5.281
									c-0.055-0.033-0.113-0.055-0.176-0.07L180.003,3.038z M185.421,11.083c-0.045,0.01-0.088,0.025-0.127,0.049
									c-0.102,0.055-0.176,0.143-0.215,0.238l-3.436-0.854l3.121-5.941c0.047,0.021,0.094,0.037,0.146,0.043L185.421,11.083z
									 M176.905,19.581c-0.004-0.004-0.008-0.006-0.014-0.01l4.684-8.922l3.469,0.861c-0.01,0.096,0.01,0.193,0.059,0.283
									c0.008,0.014,0.016,0.031,0.025,0.043L176.905,19.581z M169.909,20.911c-0.01-0.031-0.023-0.063-0.039-0.09
									c-0.016-0.025-0.031-0.051-0.045-0.07l1.527-1.643l4.762,0.842c0,0.008-0.002,0.012-0.002,0.016L169.909,20.911z
									 M136.362,33.968l10.943-4.742l8.471,5.68c-0.016,0.035-0.027,0.074-0.037,0.111L136.362,33.968z M128.144,36.179
									c-0.008-0.014-0.014-0.027-0.021-0.041c-0.041-0.072-0.094-0.129-0.158-0.17l2.26-4.787l4.949,2.895
									c-0.031,0.076-0.041,0.156-0.033,0.236L128.144,36.179z M115.237,26.903c0.006,0.074,0.021,0.146,0.061,0.215
									c0.004,0.008,0.008,0.014,0.012,0.02l-2.729,2.289l-3.475-3.053c0.025-0.043,0.045-0.09,0.061-0.141L115.237,26.903z
									 M118.632,22.003c0.01,0.006,0.02,0.012,0.029,0.016l-0.615,4.596l-1.857,0.115c-0.01-0.025-0.021-0.055-0.037-0.078
									c-0.033-0.064-0.08-0.115-0.131-0.156L118.632,22.003z M119.288,21.39l14.516-6.646c0.076,0.119,0.193,0.193,0.324,0.217
									l-0.205,7.533c-0.063,0.006-0.121,0.023-0.178,0.055c-0.135,0.074-0.221,0.203-0.244,0.346l-14.182-1.338
									c0-0.057-0.014-0.115-0.035-0.174L119.288,21.39z M165.88,8.739c0.01,0.023,0.018,0.049,0.029,0.07
									c0.041,0.076,0.098,0.135,0.164,0.176l-2.838,6.582l-8.418-4.205c0.014-0.057,0.021-0.113,0.014-0.17L165.88,8.739z
									 M170.323,1.343c0.027,0.012,0.059,0.02,0.092,0.021l-0.527,7.537l-3.064-0.35c-0.002-0.072-0.021-0.146-0.059-0.211
									c-0.035-0.066-0.084-0.119-0.145-0.16L170.323,1.343z M180.394-1.72l4.23,5.508c-0.037,0.037-0.068,0.082-0.092,0.129
									l-4.521-1.021l0.178-4.531c0.055-0.008,0.107-0.025,0.156-0.055C180.364-1.698,180.38-1.706,180.394-1.72"/>
							</g>
						</g>
					</g>
					<path clip-path="url(#SVGID_8_)" fill="#5BC7D4" d="M122.11,62.841l7.371,4.318c-0.061,0.223,0.01,0.469,0.195,0.623
						c0.258,0.211,0.635,0.17,0.844-0.084c0.15-0.186,0.17-0.438,0.074-0.639l8.668-7.117c0.254,0.191,0.619,0.148,0.82-0.104
						c0.209-0.254,0.17-0.631-0.086-0.84c-0.072-0.059-0.152-0.096-0.236-0.117l1.049-9.477c0.162-0.01,0.318-0.086,0.428-0.221
						c0.15-0.184,0.17-0.43,0.08-0.629l11.43-7.895c0.014,0.018,0.031,0.033,0.047,0.047c0.258,0.207,0.637,0.172,0.844-0.086
						c0.09-0.109,0.135-0.24,0.135-0.371l7.506-1.051c0.033,0.113,0.098,0.217,0.197,0.295c0.256,0.209,0.631,0.172,0.84-0.086
						c0.094-0.115,0.137-0.256,0.133-0.396l12.176-2.205c0.033,0.104,0.096,0.201,0.188,0.271c0.258,0.211,0.633,0.172,0.842-0.084
						c0.211-0.256,0.17-0.633-0.086-0.842c-0.098-0.078-0.213-0.123-0.33-0.135l-0.549-8.174c0.127-0.027,0.248-0.098,0.336-0.207
						c0.182-0.223,0.176-0.531,0.006-0.748l13.428-14.254l-0.066-0.061c0.002,0,0.002,0.002,0.002,0.002
						c0.258,0.207,0.635,0.168,0.842-0.088c0.211-0.26,0.174-0.631-0.086-0.844c-0.055-0.045-0.117-0.078-0.182-0.1l0.896-6.322
						c0.166-0.006,0.328-0.08,0.443-0.221c0.109-0.131,0.15-0.295,0.129-0.453l7.209-2.045c0.037,0.084,0.092,0.158,0.168,0.219
						c0.254,0.207,0.633,0.172,0.842-0.086c0.207-0.256,0.168-0.633-0.088-0.842c-0.117-0.092-0.254-0.139-0.391-0.135l-1.551-8.918
						c0.102-0.035,0.199-0.098,0.273-0.189c0.209-0.256,0.172-0.631-0.086-0.84c-0.232-0.191-0.57-0.176-0.785,0.025l-14.756-11.721
						c0.15-0.252,0.1-0.584-0.135-0.773c-0.256-0.207-0.633-0.17-0.842,0.086c-0.211,0.256-0.17,0.633,0.086,0.842
						c0.066,0.055,0.143,0.094,0.221,0.113l-0.93,8.848c-0.164,0.008-0.324,0.082-0.439,0.221c-0.188,0.232-0.174,0.566,0.023,0.781
						l-7.096,8.723c-0.25-0.15-0.578-0.1-0.768,0.133c-0.158,0.195-0.174,0.457-0.063,0.664l-7.092,5.354
						c-0.012-0.014-0.027-0.027-0.039-0.037c-0.26-0.207-0.637-0.17-0.846,0.086c-0.186,0.23-0.174,0.559,0.018,0.773l-22.818,7.863
						c-0.039-0.07-0.088-0.135-0.154-0.189c-0.256-0.207-0.635-0.17-0.844,0.088c-0.207,0.258-0.166,0.635,0.088,0.844
						c0.098,0.076,0.207,0.119,0.318,0.129l1,19.959c-0.131,0.023-0.254,0.094-0.348,0.205c-0.084,0.104-0.127,0.227-0.133,0.35
						l-8.418,0.834c-0.029-0.123-0.098-0.236-0.203-0.32c-0.258-0.209-0.635-0.17-0.844,0.086c-0.141,0.178-0.168,0.41-0.088,0.607
						l-6.619,3.938c-0.021-0.031-0.051-0.059-0.084-0.082c-0.256-0.213-0.633-0.172-0.842,0.082
						c-0.209,0.258-0.17,0.637,0.088,0.844c0.016,0.012,0.035,0.025,0.049,0.037l-5.77,12.6c-0.223-0.066-0.475,0.004-0.631,0.195
						c-0.209,0.258-0.17,0.637,0.088,0.842c0.162,0.135,0.377,0.166,0.563,0.105l3.561,7.107c-0.053,0.033-0.1,0.074-0.145,0.129
						c-0.209,0.254-0.17,0.631,0.086,0.84C121.528,63.13,121.899,63.095,122.11,62.841 M129.911,66.741l-1.875-5.191l11.049-1.822
						c0.012,0.031,0.033,0.061,0.053,0.09l-0.813,0.668l-7.83,6.43c-0.018-0.021-0.037-0.043-0.061-0.061
						C130.282,66.731,130.087,66.694,129.911,66.741 M174.05,26.95l-1.035-0.436l-1.75-7.797l3.006,8.02
						c-0.064,0.037-0.123,0.084-0.172,0.146C174.081,26.905,174.063,26.929,174.05,26.95 M188.354,11.681l-5.148-3.277
						c0.063-0.133,0.068-0.285,0.027-0.422l3.936-1.896l1.408,5.461C188.497,11.573,188.421,11.62,188.354,11.681 M197.659,1.981
						l-5.332-1.855l3.908-7.387c0.072,0.027,0.145,0.037,0.217,0.035l1.549,8.918c-0.105,0.035-0.201,0.1-0.275,0.189
						C197.7,1.913,197.679,1.948,197.659,1.981 M130.134,39.349l-5.07,13.295c-0.031-0.006-0.059-0.01-0.09-0.012l-0.986-11.447
						c0.123-0.031,0.238-0.098,0.322-0.203c0.102-0.121,0.146-0.271,0.133-0.416L130.134,39.349z M139.028,59.56l-11.053,1.82
						l-2.754-7.625c0.066-0.037,0.129-0.086,0.178-0.15c0.02-0.018,0.033-0.041,0.045-0.061l13.58,5.859
						C139.021,59.454,139.021,59.509,139.028,59.56 M124.56,53.692c0.033,0.025,0.066,0.047,0.1,0.064l-2.795,8.021l0.797-8.137
						l1.705-0.24C124.397,53.511,124.464,53.614,124.56,53.692 M122.679,53.462l1.164-11.898l0.955,11.084
						c-0.121,0.027-0.238,0.096-0.324,0.203c-0.09,0.109-0.135,0.242-0.137,0.373L122.679,53.462z M130.339,39.304l1.871-0.4
						c0.035,0.096,0.096,0.186,0.184,0.254c0.006,0.006,0.012,0.01,0.018,0.016l-3.057,5.678l-3.852,7.146L130.339,39.304z
						 M130.415,39.106l0.939-2.463c0.104,0.021,0.209,0.016,0.309-0.016l0.77,1.572c-0.047,0.031-0.09,0.068-0.127,0.115
						c-0.098,0.121-0.141,0.271-0.133,0.416L130.415,39.106z M132.079,36.087l8.42-0.832c0.002,0.002,0.002,0.004,0.004,0.006
						l-7.227,3.117c-0.033-0.053-0.076-0.104-0.131-0.148c-0.16-0.131-0.371-0.164-0.557-0.105l-0.768-1.574
						c0.049-0.031,0.09-0.07,0.127-0.115C132.03,36.333,132.075,36.212,132.079,36.087 M161.56,38.511l-5.994-7.758
						c0.014-0.012,0.023-0.025,0.033-0.035c0.031-0.039,0.055-0.076,0.076-0.121l7.596,2.381l-1.361,5.459
						C161.788,38.427,161.665,38.452,161.56,38.511 M195.866-7.644l-10.275,5.01c-0.031-0.049-0.068-0.09-0.115-0.127
						c-0.125-0.104-0.279-0.145-0.432-0.133l-1.629-6.744l12.42,1.816C195.835-7.761,195.849-7.7,195.866-7.644 M180.802-19.694
						l2.381,9.846l-2.885-0.422c0-0.172-0.076-0.344-0.221-0.463c-0.068-0.057-0.148-0.094-0.23-0.113l0.932-8.848
						C180.786-19.694,180.794-19.694,180.802-19.694 M179.882-9.698c0.023-0.01,0.051-0.02,0.074-0.033l4.738,6.994
						c-0.021,0.02-0.043,0.041-0.061,0.064c-0.096,0.113-0.139,0.258-0.133,0.396l-3.363,0.414L179.882-9.698z M180.993-1.669
						l1.486,9.26c-0.08,0.023-0.154,0.066-0.221,0.127l-9.887-8.043c0.055-0.09,0.082-0.189,0.084-0.289L180.993-1.669z
						 M165.392,8.294l5.121,8.748c-0.027,0.023-0.053,0.051-0.078,0.078c-0.068,0.086-0.111,0.186-0.127,0.289l-5.236,0.297
						l-1.107-11.689c0.029-0.008,0.053-0.016,0.078-0.027L165.392,8.294z M141.458,34.646c-0.01-0.01-0.018-0.014-0.025-0.02
						l6.592-12.648c0.084,0.029,0.176,0.039,0.26,0.029l2.535,9.703l-9.211,3.125C141.575,34.763,141.524,34.696,141.458,34.646
						 M166.036,23.046c-0.141-0.094-0.311-0.119-0.465-0.078l-0.482-5.086l5.219-0.297c0.016,0.096,0.053,0.189,0.113,0.268
						L166.036,23.046z M180.272-10.097l2.955,0.434l1.646,6.811c-0.012,0.004-0.021,0.012-0.029,0.016l-4.74-6.992
						c0.021-0.02,0.039-0.039,0.059-0.063C180.214-9.954,180.247-10.024,180.272-10.097 M148.796,21.579l9.127,1.232l-2.66,6.945
						c-0.141-0.035-0.293-0.012-0.42,0.059l-0.139-0.18l-6.053-7.809c0.012-0.012,0.023-0.025,0.031-0.037
						C148.735,21.726,148.772,21.651,148.796,21.579 M158.104,22.835l7.061,0.955c0.012,0.025,0.027,0.055,0.043,0.078l-7.303,4.617
						l-2.318,1.465c-0.021-0.027-0.047-0.055-0.076-0.076c-0.023-0.02-0.053-0.039-0.082-0.057L158.104,22.835z M158.169,22.667
						l1.529-3.996c0.166,0.033,0.34-0.006,0.479-0.109l2.178,2.152l2.768,2.734c-0.01,0.053-0.012,0.104-0.006,0.156L158.169,22.667
						z M164.913,17.892l0.488,5.143c-0.059,0.037-0.109,0.08-0.154,0.135c-0.023,0.029-0.045,0.061-0.063,0.094l-2.697-2.666
						l-2.189-2.16c0.066-0.09,0.102-0.189,0.113-0.291L164.913,17.892z M154.546,30.444l-3.559,1.209l-2.533-9.691
						c0.02-0.008,0.039-0.018,0.061-0.029l6.189,7.992c-0.012,0.012-0.023,0.025-0.033,0.037
						C154.556,30.101,154.515,30.278,154.546,30.444 M148.813,21.333l10.463-2.994c0.037,0.078,0.09,0.15,0.162,0.207
						c0.029,0.027,0.063,0.047,0.096,0.064l-1.547,4.031l-9.17-1.236C148.817,21.382,148.817,21.356,148.813,21.333 M160.194,17.62
						c-0.035-0.029-0.07-0.051-0.105-0.07l3.639-11.523c0.02,0.002,0.039,0.004,0.063,0.004l1.107,11.686l-4.492,0.256
						C160.38,17.837,160.31,17.712,160.194,17.62 M181.167-1.69l3.365-0.414c0.035,0.104,0.1,0.199,0.188,0.273
						c0.049,0.037,0.102,0.066,0.158,0.092l-2.168,9.301c-0.02,0-0.037,0-0.055,0L181.167-1.69z M170.944,18.093l1.871,8.34
						l-6.523-2.738c0.045-0.184,0.002-0.385-0.121-0.531l4.373-5.184C170.663,18.067,170.806,18.104,170.944,18.093 M172.862,26.644
						l2.113,9.416c-0.023,0.008-0.041,0.016-0.061,0.025l-8.787-12.111c0.016-0.016,0.033-0.033,0.049-0.049
						c0.016-0.021,0.033-0.045,0.045-0.068L172.862,26.644z M165.333,24.009c0.047,0.041,0.096,0.066,0.15,0.092l-2.172,8.705
						l-7.586-2.375c0.018-0.111,0.002-0.229-0.045-0.334l9.645-6.094C165.327,24.007,165.331,24.007,165.333,24.009 M154.755,30.802
						c0.055,0.045,0.115,0.078,0.178,0.1l-1.748,8.746c-0.035,0-0.072,0.002-0.107,0.008l-2.047-7.832l3.572-1.211
						C154.638,30.685,154.69,30.751,154.755,30.802 M152.647,39.966l-10.99-4.707c0.023-0.084,0.025-0.172,0.012-0.258l9.195-3.121
						l2.047,7.828c-0.078,0.037-0.143,0.09-0.199,0.158C152.685,39.897,152.665,39.931,152.647,39.966 M141.14,34.511l-1.002-19.953
						c0.096-0.018,0.186-0.059,0.264-0.123l7.322,6.645c-0.17,0.254-0.125,0.6,0.119,0.797c0.008,0.006,0.016,0.012,0.027,0.02
						l-6.596,12.648C141.229,34.528,141.185,34.519,141.14,34.511 M140.583,14.177l12.139,2.521l-4.152,4.23
						c-0.221-0.162-0.521-0.15-0.729,0.02l-7.322-6.645C140.546,14.265,140.567,14.222,140.583,14.177 M152.927,16.741l6.293,1.307
						c0,0.043,0,0.082,0.006,0.125l-10.461,2.992c-0.018-0.039-0.041-0.078-0.068-0.113L152.927,16.741z M153.073,16.593
						l10.443-10.645c0.016,0.01,0.029,0.018,0.043,0.025l-3.637,11.52c-0.209-0.037-0.428,0.037-0.57,0.213
						c-0.043,0.051-0.074,0.111-0.098,0.17L153.073,16.593z M164.394,5.608l6.979,1.006l-0.568,10.293
						c-0.051,0.008-0.098,0.021-0.141,0.043l-0.975-1.662l-5.49-9.385c0.031-0.027,0.059-0.059,0.086-0.092
						C164.335,5.749,164.372,5.679,164.394,5.608 M171.544,6.642l10.52,1.52c0,0.104,0.027,0.205,0.08,0.295l-10.873,8.572
						c-0.084-0.07-0.186-0.109-0.289-0.123L171.544,6.642z M171.554,6.464l0.359-6.498c0.129-0.014,0.248-0.066,0.35-0.154
						l9.883,8.043c-0.023,0.043-0.045,0.088-0.057,0.135L171.554,6.464z M172.298-1.032l7.096-8.721
						c0.098,0.055,0.203,0.084,0.313,0.082l1.26,7.83l-8.531,1.051C172.407-0.88,172.366-0.962,172.298-1.032 M181.159-19.847
						l14.762,11.725c-0.025,0.041-0.045,0.08-0.057,0.125l-12.492-1.824l-2.398-9.912C181.042-19.759,181.104-19.798,181.159-19.847
						 M192.157,0.067l-6.471-2.254c0.018-0.096,0.014-0.197-0.016-0.291l10.271-5.008c0.031,0.049,0.07,0.09,0.115,0.125
						c0.008,0.006,0.018,0.012,0.025,0.02L192.157,0.067z M192.075,0.224l-2.031,3.838c-0.162-0.057-0.338-0.043-0.486,0.039
						l-4.006-6.01c0.002-0.004,0.008-0.006,0.012-0.01c0.025-0.033,0.047-0.064,0.064-0.102L192.075,0.224z M189.296,4.864
						l-2.008,0.969l-1.957-7.578c0.029-0.016,0.061-0.029,0.09-0.049l3.996,6c-0.012,0.014-0.025,0.025-0.039,0.043
						C189.233,4.429,189.21,4.667,189.296,4.864 M187.124,5.913l-3.967,1.912c-0.033-0.049-0.072-0.092-0.119-0.129
						c-0.049-0.041-0.1-0.07-0.154-0.092l2.197-9.305c0.027,0.002,0.053,0,0.08-0.002L187.124,5.913z M171.423,17.204
						c-0.01-0.016-0.018-0.031-0.029-0.047l8.002-6.313l2.857-2.25c0.012,0.01,0.02,0.02,0.029,0.029
						c0.254,0.203,0.619,0.17,0.832-0.07l5.137,3.27c-0.061,0.107-0.086,0.227-0.074,0.346L171.423,17.204z M174.185,27.726
						c0.096,0.078,0.211,0.121,0.33,0.133l0.51,7.623l-1.965-8.754l0.922,0.387C173.927,27.331,173.997,27.573,174.185,27.726
						 M174.651,36.356l-11.172-3.498l2.174-8.719c0.113,0.012,0.232-0.008,0.334-0.064l8.783,12.113
						c-0.014,0.016-0.031,0.033-0.045,0.053C174.696,36.274,174.673,36.317,174.651,36.356 M174.593,36.636l-12.174,2.203
						c-0.037-0.104-0.1-0.199-0.189-0.271c-0.049-0.037-0.098-0.066-0.148-0.086l1.357-5.451l11.16,3.494
						C174.593,36.562,174.593,36.599,174.593,36.636 M161.253,39.026l-7.506,1.049c-0.033-0.111-0.098-0.215-0.197-0.295
						c-0.057-0.047-0.123-0.084-0.191-0.105l1.746-8.74c0.111,0.008,0.225-0.018,0.322-0.074l5.994,7.758
						c-0.01,0.012-0.023,0.021-0.033,0.035C161.296,38.763,161.255,38.896,161.253,39.026 M141.079,39.253l0.076-3.551
						c0.146-0.02,0.287-0.092,0.387-0.215c0.02-0.021,0.033-0.041,0.045-0.064l11,4.709c0,0.006-0.002,0.01-0.002,0.012
						L141.079,39.253z M140.903,39.235l-7.539-0.582c0-0.039-0.008-0.076-0.018-0.113l7.225-3.117
						c0.035,0.055,0.076,0.107,0.133,0.148c0.082,0.07,0.176,0.109,0.273,0.127L140.903,39.235z M140.897,39.415l-0.188,8.799
						c-0.08,0.01-0.16,0.033-0.23,0.074l-1.557-1.967l-5.715-7.219c0.008-0.01,0.018-0.02,0.027-0.031
						c0.059-0.072,0.098-0.156,0.117-0.244L140.897,39.415z M140.183,48.892l-3.648,1.018l-3.496-10.682
						c0.01-0.006,0.021-0.01,0.031-0.016l5.748,7.26l1.523,1.926c-0.01,0.01-0.021,0.023-0.029,0.031
						C140.202,48.565,140.161,48.731,140.183,48.892 M136.362,49.954l-10.881,3.033c-0.037-0.084-0.09-0.162-0.166-0.225
						l-0.021-0.014l4.951-9.184l2.32-4.309c0.1,0.035,0.205,0.043,0.303,0.025L136.362,49.954z M136.417,50.124l2.891,8.828
						c-0.057,0.035-0.107,0.078-0.152,0.133c-0.037,0.045-0.064,0.094-0.09,0.146l-13.551-5.848c0.02-0.076,0.025-0.154,0.016-0.23
						L136.417,50.124z M127.798,61.409l-5.563,0.918c-0.031-0.127-0.1-0.244-0.207-0.332c-0.012-0.012-0.027-0.021-0.043-0.031
						l2.84-8.15c0.076,0.018,0.156,0.018,0.23,0L127.798,61.409z M117.929,54.767c0.045-0.029,0.084-0.066,0.121-0.109
						c0.09-0.113,0.131-0.244,0.133-0.373l4.297-0.617l-0.801,8.195c-0.061-0.006-0.125,0.002-0.188,0.02L117.929,54.767z
						 M123.683,41.179c0.006,0,0.014,0.002,0.021,0.004l-1.205,12.307l-4.342,0.619c-0.033-0.111-0.096-0.215-0.195-0.295
						c-0.016-0.014-0.033-0.025-0.051-0.035L123.683,41.179z M131.017,36.435c0.027,0.033,0.059,0.061,0.088,0.088
						c0.029,0.021,0.059,0.039,0.084,0.057l-0.98,2.574l-5.801,1.24c-0.002-0.008-0.004-0.012-0.006-0.016L131.017,36.435z
						 M163.118,6.106L152.866,16.55l-12.25-2.545c0.006-0.047,0-0.096-0.008-0.143L163.118,6.106z M171.438-0.204
						c0.012,0.014,0.027,0.025,0.041,0.037c0.078,0.063,0.166,0.104,0.26,0.123l-0.359,6.482l-6.959-1.006
						c0-0.098-0.027-0.195-0.074-0.283L171.438-0.204z M190.39,4.38c-0.037-0.082-0.094-0.158-0.168-0.219
						c-0.008-0.006-0.016-0.01-0.023-0.018l2.045-3.861l5.359,1.865c-0.014,0.063-0.014,0.127-0.004,0.188L190.39,4.38z
						 M188.794,11.515c-0.016-0.002-0.029-0.002-0.043,0l-1.42-5.506l2.059-0.994c0.023,0.027,0.047,0.053,0.076,0.074
						c0.066,0.057,0.143,0.094,0.223,0.115L188.794,11.515z M188.331,12.517l-13.428,14.252c-0.141-0.098-0.311-0.125-0.469-0.094
						l-3.246-8.656c0.066-0.035,0.125-0.082,0.178-0.143c0.117-0.148,0.156-0.334,0.117-0.506l16.736-5.031
						c0.027,0.068,0.066,0.127,0.119,0.182L188.331,12.517z M141.22,48.407c-0.021-0.021-0.043-0.045-0.066-0.064
						c-0.08-0.064-0.174-0.107-0.27-0.123l0.191-8.795l11.508,0.895c0.006,0.068,0.027,0.137,0.061,0.199L141.22,48.407z
						 M139.585,58.866c-0.039,0.002-0.074,0.008-0.113,0.018l-2.883-8.809l3.645-1.014c0.037,0.078,0.092,0.152,0.164,0.211
						c0.07,0.059,0.152,0.096,0.236,0.115L139.585,58.866z M129.554,66.997l-7.352-4.307c0.025-0.059,0.041-0.125,0.047-0.188
						l5.609-0.924l1.889,5.23c-0.057,0.033-0.109,0.078-0.154,0.133C129.579,66.96,129.565,66.981,129.554,66.997"/>
				</g>
			</g>
		</g>
	</g>
	<g>
		<g>
			<path fill="#FFFFFF" d="M13.124,14.456h3.316v10.564h0.064l4.844-10.564h3.315l-4.519,9.264l5.363,13.881h-3.511l-3.771-10.271
				l-1.787,3.348v6.924h-3.316V14.456z"/>
			<path fill="#FFFFFF" d="M38.479,32.399c0,0.758-0.142,1.463-0.423,2.113c-0.282,0.65-0.667,1.219-1.154,1.705
				c-0.487,0.488-1.057,0.873-1.706,1.154c-0.65,0.281-1.344,0.424-2.081,0.424c-0.736,0-1.43-0.143-2.08-0.424
				c-0.649-0.281-1.219-0.666-1.706-1.154c-0.488-0.486-0.873-1.055-1.154-1.705c-0.282-0.65-0.423-1.355-0.423-2.113V14.456h3.316
				v17.619c0,0.822,0.194,1.43,0.585,1.82c0.39,0.389,0.877,0.584,1.462,0.584c0.586,0,1.073-0.195,1.463-0.584
				c0.391-0.391,0.585-0.998,0.585-1.82V14.456h3.316V32.399z"/>
			<path fill="#FFFFFF" d="M42.411,14.456h5.331c3.9,0,5.851,2.266,5.851,6.795c0,1.344-0.211,2.496-0.635,3.461
				c-0.422,0.965-1.164,1.738-2.226,2.324l3.575,10.564h-3.511l-3.088-9.883h-1.982v9.883h-3.315V14.456z M45.727,24.794h1.886
				c0.585,0,1.051-0.082,1.397-0.244c0.346-0.162,0.611-0.396,0.796-0.699s0.309-0.678,0.374-1.121s0.098-0.959,0.098-1.545
				c0-0.584-0.032-1.1-0.098-1.543c-0.065-0.445-0.2-0.824-0.406-1.139c-0.206-0.313-0.493-0.547-0.861-0.699
				c-0.369-0.15-0.856-0.227-1.463-0.227h-1.723V24.794z"/>
			<path fill="#FFFFFF" d="M57.038,14.456h4.844c1.061,0,1.967,0.162,2.713,0.488c0.748,0.324,1.361,0.758,1.838,1.301
				c0.477,0.541,0.816,1.164,1.023,1.869c0.205,0.703,0.309,1.436,0.309,2.193v0.846c0,0.629-0.049,1.158-0.146,1.592
				s-0.244,0.813-0.438,1.139c-0.195,0.324-0.436,0.611-0.717,0.861c-0.281,0.248-0.605,0.482-0.975,0.697
				c0.781,0.369,1.354,0.916,1.723,1.643s0.553,1.695,0.553,2.908v1.301c0,2.037-0.492,3.598-1.479,4.682s-2.563,1.625-4.73,1.625
				h-4.518V14.456z M60.354,23.948h1.494c1.105,0,1.848-0.277,2.227-0.828c0.379-0.553,0.568-1.361,0.568-2.422
				c0-1.041-0.211-1.82-0.633-2.342c-0.422-0.52-1.188-0.779-2.291-0.779h-1.365V23.948z M60.354,34.284h1.43
				c0.672,0,1.197-0.098,1.576-0.293c0.379-0.193,0.666-0.465,0.861-0.813c0.195-0.346,0.314-0.758,0.357-1.234
				s0.064-0.996,0.064-1.561c0-0.584-0.031-1.094-0.096-1.527c-0.066-0.434-0.201-0.797-0.408-1.09
				c-0.205-0.291-0.492-0.514-0.861-0.666c-0.367-0.15-0.855-0.227-1.461-0.227h-1.463V34.284z"/>
			<path fill="#FFFFFF" d="M74.948,14.456h2.762l5.168,23.145h-3.314l-0.975-4.975h-4.52l-0.975,4.975H69.78L74.948,14.456z
				 M76.345,21.12H76.28l-1.625,8.387h3.314L76.345,21.12z"/>
			<path fill="#FFFFFF" d="M85.155,14.456h3.184l5.006,13.945h0.066V14.456h3.314v23.145h-3.119l-5.072-13.912H88.47v13.912h-3.314
				V14.456z"/>
			<path fill="#FFFFFF" d="M113.888,37.601h-2.926l-4.713-23.145h3.51l2.635,16.156h0.064l2.666-16.156h3.51L113.888,37.601z"/>
			<path fill="#FFFFFF" d="M120.714,14.456h3.316v23.145h-3.316V14.456z"/>
			<path fill="#FFFFFF" d="M127.247,14.456h4.908c1.885,0,3.326,0.525,4.324,1.576c0.996,1.053,1.494,2.52,1.494,4.404v10.824
				c0,2.168-0.525,3.766-1.576,4.795s-2.563,1.545-4.535,1.545h-4.615V14.456z M130.563,34.479h1.527
				c0.932,0,1.592-0.232,1.982-0.699c0.391-0.465,0.586-1.197,0.586-2.193v-11.15c0-0.908-0.186-1.613-0.553-2.111
				c-0.369-0.498-1.041-0.748-2.016-0.748h-1.527V34.479z"/>
			<path fill="#FFFFFF" d="M141.095,14.456h9.881v3.121h-6.566v6.793h5.721v3.121h-5.721v6.793h6.566v3.316h-9.881V14.456z"/>
			<path fill="#FFFFFF" d="M152.927,19.917c0-0.932,0.162-1.754,0.486-2.471c0.326-0.715,0.754-1.305,1.285-1.771
				c0.529-0.465,1.127-0.816,1.787-1.057c0.66-0.236,1.328-0.357,2-0.357c0.67,0,1.338,0.121,1.998,0.357
				c0.66,0.24,1.256,0.592,1.787,1.057c0.531,0.467,0.959,1.057,1.285,1.771c0.324,0.717,0.486,1.539,0.486,2.471V32.14
				c0,0.953-0.162,1.783-0.486,2.486c-0.326,0.705-0.754,1.289-1.285,1.756c-0.531,0.465-1.127,0.818-1.787,1.057
				c-0.66,0.236-1.328,0.357-1.998,0.357c-0.672,0-1.34-0.121-2-0.357c-0.66-0.238-1.258-0.592-1.787-1.057
				c-0.531-0.467-0.959-1.051-1.285-1.756c-0.324-0.703-0.486-1.533-0.486-2.486V19.917z M156.241,32.14
				c0,0.801,0.223,1.393,0.666,1.771c0.445,0.379,0.971,0.568,1.578,0.568c0.605,0,1.131-0.189,1.576-0.568
				c0.443-0.379,0.666-0.971,0.666-1.771V19.917c0-0.801-0.223-1.393-0.666-1.771c-0.445-0.379-0.971-0.568-1.576-0.568
				c-0.607,0-1.133,0.189-1.578,0.568c-0.443,0.379-0.666,0.971-0.666,1.771V32.14z"/>
		</g>
		<g>
			<path fill="#FFFFFF" d="M120.729,10.292h3.315v3.316h-3.315V10.292z"/>
		</g>
	</g>
</g>
</svg>
