<?xml version="1.0" encoding="utf-8"?>
<!-- Generator: Adobe Illustrator 16.0.0, SVG Export Plug-In . SVG Version: 6.00 Build 0)  -->
<!DOCTYPE svg PUBLIC "-//W3C//DTD SVG 1.1//EN" "http://www.w3.org/Graphics/SVG/1.1/DTD/svg11.dtd">
<svg version="1.1" id="Layer_1" xmlns="http://www.w3.org/2000/svg" xmlns:xlink="http://www.w3.org/1999/xlink" x="0px" y="0px"
	 width="157.25px" height="50px" viewBox="0 0 157.25 50" enable-background="new 0 0 157.25 50" xml:space="preserve">
<path fill="#1EABE2" d="M8.147,15.187H1.4v34.251h9.791V19.486C11.162,15.676,8.84,15.234,8.147,15.187"/>
<g>
	<defs>
		<path id="SVGID_85_" d="M1.4,0.532v0.623v5.884v0.101c0.015,0.545,0.299,3.14,4.376,3.14h10.322v39.16h0.114h9.659l0.006-1.727
			V10.32h13.696c5.037,0.014,17.074,0.328,20.864,3.91c4.85-0.822,9.512-2.643,9.498-5.945C70.385,1.286,49.479,0.512,41.542,0.5
			c-0.071,0-0.2,0-0.379,0C36.77,0.5,1.4,0.532,1.4,0.532"/>
	</defs>
	<clipPath id="SVGID_2_">
		<use xlink:href="#SVGID_85_"  overflow="visible"/>
	</clipPath>
	
		<linearGradient id="SVGID_3_" gradientUnits="userSpaceOnUse" x1="-595.2891" y1="315.8438" x2="-595.1552" y2="315.8438" gradientTransform="matrix(510.9893 0 0 -510.9893 304187.625 161417.75)">
		<stop  offset="0" style="stop-color:#06ABE1"/>
		<stop  offset="0.1864" style="stop-color:#0FA6D9"/>
		<stop  offset="0.3633" style="stop-color:#199BC8"/>
		<stop  offset="0.5363" style="stop-color:#218AB1"/>
		<stop  offset="0.7071" style="stop-color:#247593"/>
		<stop  offset="0.8746" style="stop-color:#215C72"/>
		<stop  offset="1" style="stop-color:#1B4859"/>
	</linearGradient>
	<rect x="1.4" y="0.5" clip-path="url(#SVGID_2_)" fill="url(#SVGID_3_)" width="68.985" height="48.938"/>
</g>
<g>
	<defs>
		<path id="SVGID_88_" d="M62.262,13.871c-0.719,0.175-2.25,0.458-2.392,0.482c-0.001,0-0.003,0-0.005,0.001
			c-3.784,0.641-7.723,0.801-10.014,0.835H30.786v6.661c0.02,0.574,0.337,3.068,4.257,3.119h5.499v24.469h9.792V25.135l1.631-0.003
			c6.374-0.069,17.945-0.896,17.941-5.973c-0.004-5.192-0.004-8.843-0.005-10.388C69.452,11.392,66.148,12.926,62.262,13.871"/>
	</defs>
	<clipPath id="SVGID_5_">
		<use xlink:href="#SVGID_88_"  overflow="visible"/>
	</clipPath>
	
		<linearGradient id="SVGID_6_" gradientUnits="userSpaceOnUse" x1="-595.2188" y1="315.9287" x2="-595.0845" y2="315.9287" gradientTransform="matrix(291.6461 0 0 -291.6461 173624.1875 92168.4922)">
		<stop  offset="0" style="stop-color:#06ABE1"/>
		<stop  offset="1" style="stop-color:#0AAEC9"/>
	</linearGradient>
	<rect x="30.786" y="8.772" clip-path="url(#SVGID_5_)" fill="url(#SVGID_6_)" width="39.124" height="40.667"/>
</g>
<g>
	<g>
		<g>
			<defs>
				<path id="SVGID_91_" d="M80.746,6.867c-3.036,0-5.497,2.462-5.497,5.498v25.273c0,3.035,2.461,5.496,5.497,5.496h70.255
					c3.035,0,5.497-2.461,5.497-5.496V12.365c0-3.036-2.462-5.498-5.497-5.498H80.746z"/>
			</defs>
			<clipPath id="SVGID_8_">
				<use xlink:href="#SVGID_91_"  overflow="visible"/>
			</clipPath>
			
				<linearGradient id="SVGID_9_" gradientUnits="userSpaceOnUse" x1="-198.0288" y1="440.207" x2="-197.356" y2="440.207" gradientTransform="matrix(120.7422 0 0 -120.7422 23985.6484 53176.4766)">
				<stop  offset="0" style="stop-color:#0EB9CD"/>
				<stop  offset="1" style="stop-color:#05ADE2"/>
			</linearGradient>
			<rect x="75.249" y="6.867" clip-path="url(#SVGID_8_)" fill="url(#SVGID_9_)" width="81.247" height="36.267"/>
		</g>
		<g>
			<defs>
				<path id="SVGID_94_" d="M80.746,6.867c-3.036,0-5.497,2.462-5.497,5.498v25.273c0,3.035,2.461,5.496,5.497,5.496h70.255
					c3.035,0,5.497-2.461,5.497-5.496V12.365c0-3.036-2.462-5.498-5.497-5.498H80.746z"/>
			</defs>
			<clipPath id="SVGID_11_">
				<use xlink:href="#SVGID_94_"  overflow="visible"/>
			</clipPath>
			<g opacity="0.75" clip-path="url(#SVGID_11_)">
				<g>
					<defs>
						<rect id="SVGID_96_" x="69.857" y="-24.259" width="121.016" height="95.331"/>
					</defs>
					<clipPath id="SVGID_13_">
						<use xlink:href="#SVGID_96_"  overflow="visible"/>
					</clipPath>
					<g clip-path="url(#SVGID_13_)">
						<defs>
							<rect id="SVGID_98_" x="69.857" y="-24.258" width="121.016" height="95.33"/>
						</defs>
						<clipPath id="SVGID_15_">
							<use xlink:href="#SVGID_98_"  overflow="visible"/>
						</clipPath>
						<g opacity="0.3" clip-path="url(#SVGID_15_)">
							<g>
								<defs>
									<rect id="SVGID_100_" x="69.857" y="8.839" width="121.016" height="58.001"/>
								</defs>
								<clipPath id="SVGID_17_">
									<use xlink:href="#SVGID_100_"  overflow="visible"/>
								</clipPath>
								<g clip-path="url(#SVGID_17_)">
									<defs>
										<rect id="SVGID_102_" x="69.857" y="8.839" width="121.016" height="58.001"/>
									</defs>
									<clipPath id="SVGID_19_">
										<use xlink:href="#SVGID_102_"  overflow="visible"/>
									</clipPath>
									<path clip-path="url(#SVGID_19_)" fill="#5BC7D4" d="M70.316,56.509c0.075,0.383,0.449,0.633,0.832,0.557
										c0.077-0.016,0.148-0.045,0.214-0.082l5.467,7.645c-0.168,0.162-0.252,0.404-0.202,0.648
										c0.076,0.383,0.449,0.631,0.833,0.555c0.285-0.057,0.498-0.283,0.554-0.551l16.36,0.918
										c0.002,0.025,0.006,0.051,0.01,0.072c0.077,0.385,0.45,0.633,0.834,0.557c0.383-0.078,0.631-0.449,0.554-0.832
										c-0.01-0.049-0.023-0.094-0.042-0.137l7.772-4.748c0.161,0.191,0.419,0.293,0.681,0.24
										c0.384-0.076,0.632-0.449,0.557-0.832c-0.032-0.156-0.113-0.289-0.223-0.387l5.517-8.348
										c0.134,0.063,0.284,0.086,0.439,0.055c0.166-0.033,0.31-0.125,0.408-0.246L131.2,63.647
										c-0.052,0.125-0.067,0.266-0.04,0.408c0.078,0.383,0.449,0.631,0.834,0.555c0.384-0.076,0.632-0.449,0.554-0.832
										c-0.02-0.1-0.06-0.188-0.11-0.266l20.815-19.525c0.121,0.318,0.454,0.514,0.8,0.443c0.383-0.076,0.631-0.447,0.554-0.832
										c-0.004-0.021-0.008-0.043-0.014-0.064l9.511-4.463c0.153,0.232,0.438,0.361,0.727,0.303
										c0.35-0.068,0.586-0.385,0.568-0.729l13.035-2.609c0.117,0.326,0.456,0.525,0.804,0.457c0.207-0.043,0.373-0.17,0.473-0.34
										l9.766,3.912c-0.021,0.094-0.022,0.191-0.004,0.295c0.077,0.381,0.45,0.631,0.834,0.553
										c0.383-0.076,0.631-0.449,0.554-0.832c-0.069-0.35-0.388-0.586-0.734-0.566l-4.116-21.902
										c0.33-0.113,0.532-0.455,0.463-0.807c-0.077-0.384-0.448-0.633-0.832-0.557c-0.139,0.029-0.258,0.095-0.352,0.187
										l-8.471-6.544c0.081-0.142,0.111-0.312,0.077-0.484c-0.077-0.383-0.448-0.631-0.831-0.556
										c-0.384,0.077-0.632,0.451-0.557,0.834c0.024,0.112,0.071,0.211,0.136,0.295l-6.115,6.411
										c-0.152-0.107-0.348-0.156-0.546-0.116c-0.208,0.042-0.377,0.173-0.475,0.344l-7.106-2.553
										c0.014-0.08,0.012-0.162-0.005-0.247c-0.077-0.383-0.448-0.632-0.833-0.554c-0.384,0.075-0.632,0.448-0.555,0.832V14.1
										l-0.027-0.103l-22.318,6.178c-0.131-0.298-0.454-0.474-0.784-0.407c-0.163,0.03-0.302,0.119-0.403,0.237l-8.246-5.085
										c0.056-0.128,0.073-0.272,0.044-0.418c-0.078-0.384-0.449-0.632-0.832-0.556c-0.384,0.077-0.632,0.449-0.556,0.834
										c0.027,0.135,0.093,0.252,0.181,0.346l-9.023,11.517c-0.143-0.084-0.313-0.115-0.488-0.08
										c-0.383,0.078-0.632,0.449-0.556,0.834c0.029,0.145,0.101,0.27,0.2,0.365l-5.237,7.271c-0.139-0.07-0.3-0.098-0.464-0.064
										c-0.384,0.076-0.632,0.447-0.555,0.832c0.004,0.025,0.013,0.053,0.021,0.078l-14.561,7.598
										c-0.16-0.211-0.429-0.322-0.702-0.268c-0.205,0.041-0.367,0.166-0.467,0.33l-10.49-4.135
										c0.024-0.098,0.03-0.203,0.008-0.311c-0.077-0.383-0.448-0.631-0.831-0.555c-0.374,0.074-0.618,0.428-0.561,0.801
										l-12.227,5.137c-0.157-0.215-0.429-0.33-0.707-0.273c-0.383,0.076-0.632,0.449-0.554,0.832
										c0.056,0.283,0.274,0.494,0.541,0.553l0.449,10.09C70.483,55.759,70.24,56.13,70.316,56.509 M71.258,44.759
										c-0.006-0.033-0.017-0.066-0.026-0.098l11.04-4.639l1.149-0.482c0.019,0.037,0.04,0.074,0.063,0.107l-8,10.549
										l-4.394-4.826C71.233,45.21,71.305,44.987,71.258,44.759 M137.154,21.155c0.093-0.019,0.177-0.053,0.25-0.103l6.726,7.57
										l-7.188-6.131l0.117-1.324C137.091,21.165,137.124,21.162,137.154,21.155 M161.186,14.474l4.934,4.486l-4.157,3.07
										c-0.119-0.119-0.28-0.194-0.453-0.204l-0.587-7.194C161.022,14.598,161.112,14.544,161.186,14.474 M176.339,10.241
										c0.139-0.028,0.258-0.095,0.352-0.184l8.471,6.543c-0.041,0.074-0.069,0.155-0.083,0.242l-9.881,0.015l1.001-6.604
										C176.246,10.254,176.293,10.25,176.339,10.241 M95.448,65.53c-0.147-0.088-0.326-0.127-0.509-0.09
										c-0.158,0.031-0.294,0.113-0.393,0.227l-11.428-7.348c0.017-0.035,0.028-0.068,0.038-0.104l16.704,2.037L95.448,65.53z
										 M83.792,39.888l-1.365,17.436c-0.03,0.002-0.06,0.004-0.09,0.01c-0.093,0.02-0.181,0.057-0.256,0.107l-6.456-7.088
										l8.007-10.555C83.682,39.833,83.735,39.866,83.792,39.888 M81.979,58.532l-1.192,1.646l-8.949-3.656l9.93,1.504
										c0,0.047,0.004,0.092,0.014,0.139C81.812,58.312,81.883,58.438,81.979,58.532 M82.148,58.653
										c0.14,0.072,0.302,0.102,0.467,0.068c0.159-0.033,0.294-0.115,0.393-0.229l11.064,7.115l-13.087-5.348L82.148,58.653z
										 M84.074,58.116l9.599-0.082l7.628-0.066c0.002,0.01,0.002,0.018,0.004,0.027c0.025,0.129,0.085,0.242,0.164,0.332
										l-1.449,1.734L84.074,58.116z M101.63,58.46c0.146,0.09,0.325,0.127,0.506,0.09c0.07-0.014,0.134-0.035,0.191-0.068
										l1.221,1.672c-0.088,0.086-0.151,0.195-0.185,0.314l-3.098-0.377L101.63,58.46z M103.907,59.962
										c-0.069,0.014-0.131,0.037-0.19,0.068l-1.224-1.67c0.165-0.162,0.248-0.4,0.199-0.643c-0.017-0.08-0.046-0.152-0.084-0.219
										l7.244-5.834c0.004,0.002,0.006,0.004,0.008,0.006l-5.517,8.346C104.213,59.956,104.06,59.933,103.907,59.962
										 M118.346,27.526l6.462,1.59l-1.705,9.256c-0.054-0.002-0.109,0.002-0.165,0.014c-0.018,0.002-0.035,0.008-0.056,0.014
										l-4.804-10.549C118.199,27.772,118.292,27.659,118.346,27.526 M185.445,17.569l-4.957,13.995l-6.152-5.426
										c0.095-0.15,0.137-0.335,0.1-0.524c-0.013-0.067-0.036-0.132-0.068-0.189l10.907-7.982
										C185.324,17.493,185.384,17.537,185.445,17.569 M189.551,39.87l-9.766-3.908c0.024-0.096,0.028-0.199,0.008-0.303
										c-0.043-0.215-0.183-0.389-0.363-0.484l1.151-3.252l8.985,7.924C189.563,39.854,189.557,39.862,189.551,39.87
										 M171.104,29.655l2.287-3.289c0.146,0.082,0.315,0.115,0.49,0.08c0.034-0.008,0.065-0.016,0.098-0.027l4.699,8.811
										c-0.028,0.02-0.052,0.043-0.075,0.064L171.104,29.655z M165.007,38.048c-0.106-0.055-0.226-0.082-0.35-0.074l-2.955-14.778
										c0.099-0.035,0.187-0.092,0.256-0.162l8.86,6.665L165.007,38.048z M153.457,43.198c-0.026,0.021-0.048,0.045-0.071,0.068
										l-11.614-7.609l3.2-5.313c0.117,0.041,0.244,0.053,0.373,0.027c0.042-0.01,0.084-0.021,0.123-0.037l6.323,10.182
										L153.457,43.198z M110.913,50.739l8.35-7.904l8.747,8.006c-0.058,0.086-0.095,0.184-0.111,0.287l-16.866-0.084
										c-0.002-0.012-0.004-0.023-0.004-0.039C111.006,50.907,110.967,50.817,110.913,50.739 M144.569,29.985
										c0.051,0.105,0.127,0.195,0.218,0.262l-3.19,5.297l-5.05-3.311c0.127-0.143,0.194-0.334,0.175-0.533L144.569,29.985z
										 M178.96,35.104c-0.034,0.006-0.066,0.016-0.098,0.027l-4.695-8.814c0.01-0.008,0.02-0.016,0.032-0.023l6.216,5.48
										l-1.182,3.33C179.146,35.087,179.053,35.085,178.96,35.104 M128.459,50.542c-0.021,0.004-0.038,0.01-0.056,0.016
										l-4.83-10.637l-0.111-0.248c0.145-0.096,0.252-0.24,0.298-0.408l8.729,1.051l-3.748,10.229
										C128.649,50.524,128.556,50.522,128.459,50.542 M123.783,39.058c0-0.037-0.004-0.078-0.012-0.117
										c-0.008-0.041-0.021-0.082-0.036-0.119l2.81-1.615l8.856-5.092c0.018,0.031,0.037,0.061,0.062,0.09l-2.9,7.912
										L123.783,39.058z M135.625,32.356c0.054,0.035,0.109,0.061,0.169,0.082l1.332,4.4l1.051,3.467
										c-0.185,0.088-0.32,0.248-0.378,0.439l-5.024-0.604L135.625,32.356z M138.74,40.288c-0.113-0.045-0.238-0.061-0.363-0.043
										l-1.054-3.482l-1.299-4.289c0.042,0,0.087-0.004,0.131-0.014c0.082-0.016,0.157-0.047,0.225-0.086l5.11,3.348
										L138.74,40.288z M123.216,39.772c0.02-0.004,0.037-0.01,0.058-0.014l4.939,10.883c-0.022,0.016-0.042,0.029-0.062,0.045
										l-8.737-7.994l3.228-3.059C122.799,39.759,123.005,39.813,123.216,39.772 M128.936,50.614l3.766-10.273l5.068,0.611
										c0,0.043,0.006,0.088,0.014,0.133c0.022,0.107,0.067,0.201,0.127,0.283l-8.903,9.291
										C128.982,50.644,128.961,50.628,128.936,50.614 M138.919,40.394l2.745-4.557l11.608,7.605
										c-0.01,0.021-0.02,0.045-0.028,0.068l-14.06-2.555c0-0.051-0.004-0.1-0.014-0.15
										C139.138,40.638,139.044,40.493,138.919,40.394 M162.085,22.868c0.01-0.02,0.02-0.039,0.027-0.06l10.925,2.868
										c-0.006,0.069-0.004,0.142,0.011,0.213c0.027,0.137,0.091,0.256,0.181,0.348l-2.291,3.291L162.085,22.868z M144.51,29.786
										l-7.838,1.711c-0.088-0.211-0.272-0.367-0.49-0.418l0.738-8.333l7.687,6.558C144.52,29.44,144.481,29.61,144.51,29.786
										 M135.975,31.06c-0.031,0.004-0.065,0.006-0.097,0.014c-0.026,0.004-0.052,0.012-0.076,0.02l-7.819-15.872
										c0.021-0.015,0.041-0.029,0.062-0.048l8.682,7.405L135.975,31.06z M135.325,31.917l-11.694,6.725
										c-0.084-0.107-0.197-0.188-0.324-0.23l1.703-9.248l10.304,2.537c-0.008,0.066-0.004,0.135,0.01,0.205
										C135.323,31.907,135.325,31.913,135.325,31.917 M122.499,39.483l-3.24,3.066l-7.06-6.461
										c0.026-0.033,0.048-0.07,0.067-0.107l10.111,2.998c-0.012,0.076-0.01,0.156,0.006,0.238
										C122.403,39.317,122.443,39.405,122.499,39.483 M111.774,36.356c0.104-0.02,0.196-0.063,0.276-0.121l7.058,6.457
										l-8.338,7.896c-0.082-0.064-0.175-0.109-0.276-0.133l1.142-14.086C111.684,36.37,111.729,36.364,111.774,36.356
										 M111.032,51.253l16.864,0.084c0.002,0.012,0.004,0.023,0.006,0.039c0.074,0.361,0.407,0.602,0.767,0.564l2.91,11.324
										c-0.106,0.045-0.2,0.117-0.273,0.205l-20.319-12.057C111.008,51.36,111.022,51.308,111.032,51.253 M131.782,63.212
										l-2.911-11.324c0.292-0.123,0.473-0.43,0.426-0.752l6.714-2.006l-4.063,14.084
										C131.894,63.208,131.838,63.208,131.782,63.212 M129.237,50.937c-0.022-0.049-0.05-0.092-0.082-0.133l8.904-9.289
										c0.037,0.029,0.079,0.053,0.125,0.074l-2.106,7.303L129.237,50.937z M138.383,41.646c0.075,0.012,0.155,0.008,0.232-0.006
										c0.262-0.053,0.461-0.244,0.538-0.48l14.054,2.555c0,0.02,0,0.039,0,0.059l-16.891,5.049L138.383,41.646z M153.776,43.044
										c-0.052,0.01-0.099,0.025-0.143,0.043l-6.786-10.922l-1.201-1.936c0.048-0.037,0.088-0.078,0.124-0.125l11.075,5.086
										l-2.795,7.852C153.963,43.024,153.868,43.024,153.776,43.044 M145.869,29.921c0.044-0.115,0.056-0.244,0.032-0.373
										l14.965-6.639c0.065,0.105,0.156,0.189,0.264,0.247l-4.213,11.837L145.869,29.921z M161.324,23.225
										c0.056,0.01,0.113,0.015,0.173,0.012l2.956,14.778c-0.148,0.053-0.271,0.154-0.354,0.279l-6.994-3.213L161.324,23.225z
										 M165.178,38.167l5.807-8.344l7.493,5.637c-0.063,0.113-0.092,0.24-0.084,0.373l-13.037,2.607
										C165.318,38.333,165.257,38.241,165.178,38.167 M189.702,39.687l-9.045-7.975l4.984-14.072
										c0.054,0.009,0.107,0.013,0.163,0.011l4.115,21.905C189.839,39.587,189.766,39.632,189.702,39.687 M185.08,17.05
										c0,0.012,0.002,0.022,0.004,0.033c0.014,0.068,0.036,0.132,0.067,0.19l-10.907,7.981c-0.081-0.082-0.183-0.144-0.294-0.178
										l1.216-8.014L185.08,17.05z M173.744,25.045c-0.046-0.001-0.093,0.005-0.141,0.013c-0.004,0.001-0.01,0.004-0.017,0.005
										l-4.073-7.504c0.165-0.111,0.278-0.289,0.306-0.486l5.136-0.007L173.744,25.045z M169.26,17.664
										c0.021-0.004,0.043-0.011,0.065-0.016l4.067,7.49c-0.035,0.021-0.067,0.042-0.097,0.067l-6.85-6.227l2.122-1.567
										C168.729,17.611,168.991,17.717,169.26,17.664 M173.154,25.358c-0.018,0.027-0.033,0.055-0.047,0.083l-10.943-2.836
										c0.008-0.068,0.006-0.142-0.008-0.213c-0.014-0.069-0.038-0.134-0.069-0.193l4.188-3.095L173.154,25.358z M160.314,14.55
										c0.114,0.076,0.256,0.119,0.4,0.115l0.586,7.177c-0.369,0.086-0.607,0.451-0.532,0.827c0.004,0.017,0.008,0.032,0.012,0.05
										l-3.931,1.744l-11.016,4.887c-0.013-0.02-0.022-0.039-0.032-0.059L160.314,14.55z M136.851,21.149l-0.104,1.176
										l-8.072-6.887l7.691,4.745c-0.054,0.127-0.072,0.271-0.044,0.417C136.378,20.879,136.592,21.085,136.851,21.149
										 M127.718,15.334c0.026-0.006,0.052-0.013,0.078-0.02l7.817,15.87c-0.111,0.078-0.198,0.188-0.25,0.313l-10.315-2.537
										l2.508-13.612C127.607,15.349,127.662,15.346,127.718,15.334 M127.351,15.309l-2.505,13.6l-6.448-1.586
										c0.006-0.066,0.002-0.135-0.012-0.203c-0.026-0.139-0.092-0.256-0.181-0.348l9.024-11.518
										C127.268,15.277,127.308,15.295,127.351,15.309 M117.829,27.95c0.021-0.004,0.04-0.008,0.058-0.014l4.805,10.549
										c-0.111,0.072-0.198,0.176-0.254,0.295l-10.105-2.996c0.015-0.084,0.015-0.172-0.002-0.26
										c-0.029-0.148-0.101-0.273-0.2-0.369l5.237-7.271C117.506,27.956,117.667,27.983,117.829,27.95 M111.415,36.335
										c0.004,0.002,0.01,0.002,0.016,0.004l-1.146,14.102c-0.029,0.002-0.062,0.004-0.091,0.012
										c-0.187,0.037-0.34,0.145-0.44,0.287l-3.753-1.879L111.415,36.335z M109.662,50.925c-0.037,0.111-0.048,0.234-0.023,0.359
										c0.016,0.078,0.046,0.152,0.083,0.219l-7.244,5.834c-0.031-0.029-0.069-0.059-0.105-0.08l3.546-8.205L109.662,50.925z
										 M102.18,57.175c-0.102-0.027-0.21-0.033-0.321-0.012c-0.016,0.004-0.032,0.008-0.046,0.014l-4.396-9.961l-1.197-2.715
										c0.082-0.053,0.151-0.121,0.205-0.201l9.309,4.658L102.18,57.175z M95.978,44.599c0.019-0.006,0.034-0.01,0.052-0.014
										l1.172,2.656l4.421,10.018c-0.014,0.008-0.023,0.016-0.036,0.021l-9.239-9.547l3.077-3.256
										C95.577,44.589,95.775,44.638,95.978,44.599 M101.438,57.427c-0.073,0.096-0.123,0.209-0.139,0.332L95.51,57.81
										l-12.337,0.107c-0.002-0.01-0.002-0.018-0.004-0.027c-0.021-0.113-0.071-0.215-0.137-0.299l9.172-9.707L101.438,57.427z
										 M82.879,57.446c-0.073-0.051-0.154-0.088-0.244-0.107l1.362-17.4c0.065,0.004,0.133,0.002,0.2-0.012
										c0.082-0.016,0.155-0.047,0.225-0.088l7.637,7.895L82.879,57.446z M81.927,57.581c-0.056,0.068-0.102,0.15-0.128,0.238
										l-10.087-1.527c-0.003-0.02-0.006-0.039-0.009-0.061c-0.032-0.16-0.118-0.299-0.235-0.398l4.03-5.313L81.927,57.581z
										 M71.525,56.854c0.05-0.055,0.094-0.117,0.124-0.186l9.013,3.684l-3.015,4.156c-0.139-0.07-0.301-0.098-0.466-0.066
										c-0.065,0.014-0.127,0.037-0.183,0.064L71.525,56.854z M78.024,65.071c-0.001-0.023-0.005-0.049-0.011-0.072
										c-0.029-0.146-0.1-0.271-0.199-0.367l3.044-4.197l13.535,5.529c-0.004,0.01-0.006,0.018-0.008,0.027L78.024,65.071z
										 M95.62,65.681c-0.004-0.006-0.008-0.012-0.014-0.018l4.501-5.381l3.231,0.395c0,0.039,0.004,0.078,0.013,0.119
										c0.008,0.047,0.023,0.094,0.041,0.139L95.62,65.681z M132.294,63.362c-0.046-0.035-0.093-0.066-0.145-0.088l4.098-14.217
										l16.58-4.955L132.294,63.362z M154.503,43.347c-0.065-0.1-0.154-0.18-0.256-0.232l2.787-7.838l6.979,3.207
										c-0.03,0.105-0.038,0.221-0.014,0.334c0.004,0.023,0.01,0.045,0.016,0.066L154.503,43.347z M175.793,10.124
										c0.062,0.044,0.129,0.076,0.2,0.1l-1.006,6.634l-5.168,0.008c-0.002-0.012-0.002-0.022-0.004-0.034
										c-0.023-0.111-0.071-0.211-0.137-0.296L175.793,10.124z M168.432,16.814c-0.021,0.093-0.025,0.193-0.006,0.295
										c0.01,0.042,0.021,0.082,0.038,0.121l-2.174,1.604l-4.976-4.524c0.008-0.015,0.016-0.029,0.024-0.044L168.432,16.814z
										 M160.032,14.186c0.029,0.085,0.071,0.161,0.125,0.226l-14.496,14.724c-0.157-0.133-0.373-0.195-0.594-0.152
										c-0.092,0.02-0.175,0.055-0.248,0.102l-7.261-8.17c0.123-0.146,0.183-0.34,0.159-0.54l22.318-6.175L160.032,14.186z
										 M111.056,36.067c0.048,0.068,0.107,0.125,0.175,0.174l-5.416,12.525l-9.301-4.654c0.034-0.109,0.042-0.227,0.021-0.348
										c-0.011-0.037-0.021-0.072-0.032-0.105L111.056,36.067z M95.152,43.731c-0.024,0.1-0.028,0.205-0.008,0.311
										c0.023,0.109,0.067,0.205,0.131,0.289l-3.073,3.252l-7.619-7.877c0.029-0.031,0.058-0.07,0.081-0.109L95.152,43.731z
										 M70.704,45.591c0.081-0.018,0.156-0.047,0.224-0.088l4.428,4.861l-4.064,5.359c-0.069-0.031-0.145-0.051-0.222-0.057
										l-0.447-10.064C70.649,45.601,70.676,45.597,70.704,45.591"/>
								</g>
							</g>
						</g>
						<g opacity="0.1" clip-path="url(#SVGID_15_)">
							<g>
								<defs>
									<rect id="SVGID_104_" x="82.331" y="-4.631" width="85.424" height="55.371"/>
								</defs>
								<clipPath id="SVGID_21_">
									<use xlink:href="#SVGID_104_"  overflow="visible"/>
								</clipPath>
								<g clip-path="url(#SVGID_21_)">
									<defs>
										<rect id="SVGID_106_" x="82.331" y="-4.631" width="85.424" height="55.371"/>
									</defs>
									<clipPath id="SVGID_23_">
										<use xlink:href="#SVGID_106_"  overflow="visible"/>
									</clipPath>
									<path clip-path="url(#SVGID_23_)" fill="#5BC7D4" d="M166.383,2.141l-4.552-5.93c0.123-0.159,0.146-0.383,0.043-0.57
										c-0.139-0.252-0.458-0.347-0.71-0.206c-0.185,0.101-0.284,0.294-0.271,0.492l-9.37,2.915
										c-0.146-0.239-0.453-0.323-0.699-0.188c-0.254,0.139-0.347,0.457-0.208,0.711c0.041,0.071,0.093,0.129,0.154,0.173
										l-3.972,7.338c-0.134-0.046-0.286-0.038-0.421,0.035c-0.183,0.101-0.28,0.292-0.271,0.486l-11.866,2.633
										c-0.008-0.018-0.016-0.036-0.025-0.054c-0.139-0.254-0.457-0.346-0.711-0.207c-0.107,0.06-0.187,0.152-0.23,0.258
										l-6.43-1.622c0.012-0.102-0.008-0.208-0.062-0.305c-0.139-0.254-0.457-0.345-0.711-0.206
										c-0.115,0.063-0.196,0.163-0.238,0.277l-10.595-2.223c0.006-0.097-0.015-0.194-0.063-0.283
										c-0.14-0.254-0.457-0.347-0.711-0.207c-0.254,0.139-0.348,0.457-0.207,0.71c0.052,0.097,0.131,0.171,0.223,0.216
										l-2.247,6.809c-0.113-0.019-0.232-0.002-0.342,0.058c-0.219,0.119-0.317,0.374-0.25,0.604l-15.58,7.133l0.031,0.07v-0.001
										c-0.139-0.253-0.458-0.347-0.71-0.207c-0.255,0.139-0.346,0.457-0.209,0.712c0.032,0.055,0.071,0.102,0.115,0.142
										l-2.81,4.829c-0.135-0.049-0.293-0.043-0.431,0.033c-0.131,0.072-0.22,0.191-0.254,0.326l-6.518-0.719
										c-0.004-0.078-0.023-0.158-0.063-0.232c-0.139-0.252-0.459-0.346-0.711-0.207c-0.254,0.14-0.345,0.457-0.208,0.71
										c0.063,0.115,0.162,0.195,0.273,0.236l-1.677,7.742c-0.098-0.008-0.197,0.012-0.288,0.063
										c-0.252,0.139-0.346,0.457-0.207,0.711c0.127,0.232,0.405,0.33,0.646,0.236l8.102,14.363
										c-0.204,0.154-0.271,0.439-0.145,0.672c0.139,0.252,0.456,0.346,0.711,0.207c0.252-0.139,0.345-0.459,0.206-0.711
										c-0.038-0.066-0.085-0.121-0.143-0.166l3.669-6.865c0.137,0.047,0.291,0.041,0.429-0.033
										c0.229-0.127,0.327-0.402,0.24-0.643l8.621-4.73c0.155,0.201,0.439,0.268,0.67,0.143c0.19-0.105,0.289-0.314,0.268-0.52
										l7.512-2.002c0.007,0.014,0.015,0.029,0.022,0.043c0.139,0.254,0.456,0.348,0.711,0.207
										c0.226-0.123,0.325-0.395,0.242-0.633l21.087,1.143c0.006,0.068,0.028,0.139,0.063,0.205
										c0.139,0.252,0.457,0.344,0.711,0.205c0.252-0.139,0.346-0.457,0.206-0.711c-0.052-0.094-0.127-0.164-0.216-0.211
										l5.763-16.507c0.115,0.023,0.24,0.007,0.352-0.055c0.102-0.057,0.177-0.141,0.223-0.238l7.099,2.098
										c-0.016,0.108,0.002,0.222,0.06,0.325c0.14,0.254,0.457,0.346,0.711,0.207c0.173-0.096,0.272-0.276,0.272-0.461l6.66-1.013
										c0.012,0.032,0.025,0.065,0.042,0.096c0.139,0.255,0.458,0.347,0.711,0.208c0.256-0.14,0.347-0.457,0.208-0.711
										c-0.01-0.018-0.02-0.032-0.027-0.047l8.826-8.313c0.158,0.126,0.385,0.153,0.575,0.049c0.255-0.14,0.348-0.458,0.207-0.713
										c-0.088-0.16-0.25-0.258-0.423-0.269l-0.544-6.934c0.054-0.009,0.109-0.027,0.158-0.057
										c0.255-0.139,0.346-0.458,0.207-0.71C166.95,2.1,166.635,2.006,166.383,2.141 M161.345-3.588l-0.191,4.826l-9.557-2.163
										c0-0.03-0.006-0.061-0.014-0.092l0.879-0.273l8.464-2.632c0.01,0.022,0.018,0.046,0.029,0.067
										C161.039-3.705,161.186-3.611,161.345-3.588 M112.455,14.127l0.697,0.694l-1.149,6.896l0.204-7.49
										c0.063-0.008,0.127-0.027,0.188-0.061C112.418,14.157,112.438,14.143,112.455,14.127 M95.829,21.793l3.095,4.354
										c-0.093,0.088-0.148,0.209-0.158,0.334l-3.816,0.24l0.655-4.89C95.68,21.835,95.758,21.824,95.829,21.793 M85.093,26.593
										l3.713,3.262l-5.603,4.699c-0.048-0.043-0.104-0.076-0.163-0.1l1.68-7.738c0.097,0.006,0.196-0.014,0.288-0.063
										C85.037,26.636,85.067,26.614,85.093,26.593 M152.139,18.542l8.491-9.108c0.021,0.015,0.043,0.028,0.067,0.04l-2.968,9.604
										c-0.111-0.017-0.229,0-0.332,0.058c-0.121,0.066-0.202,0.173-0.244,0.294L152.139,18.542z M151.585-0.771l9.563,2.164
										l-0.279,7.09c-0.067,0.007-0.133,0.026-0.195,0.062c-0.02,0.011-0.039,0.022-0.055,0.036l-9.079-9.222
										C151.559-0.682,151.577-0.726,151.585-0.771 M161.384,8.75c-0.016-0.03-0.037-0.06-0.06-0.086l4.908-5.581l-3.326,6.333
										l-1.461-0.363C161.455,8.953,161.436,8.846,161.384,8.75 M162.833,9.558l-4.863,9.263l2.876-9.301
										c0.109,0.017,0.227,0,0.332-0.059c0.107-0.06,0.188-0.152,0.23-0.259L162.833,9.558z M151.958,18.511l-1.647-0.292
										c0.002-0.089-0.019-0.182-0.063-0.266c-0.004-0.006-0.008-0.012-0.012-0.02l4.352-3.594l5.475-4.524L151.958,18.511z
										 M151.833,18.644l-1.574,1.691c-0.075-0.053-0.163-0.084-0.254-0.091l-0.105-1.528c0.048-0.01,0.096-0.027,0.141-0.053
										c0.119-0.066,0.203-0.171,0.244-0.292L151.833,18.644z M149.488,20.546l-7.102-2.1c0.002-0.002,0.002-0.004,0.002-0.006
										l6.884-0.147c0.01,0.055,0.027,0.111,0.057,0.164c0.088,0.16,0.247,0.256,0.417,0.271l0.104,1.526
										c-0.048,0.011-0.093,0.027-0.139,0.052C149.609,20.363,149.534,20.448,149.488,20.546 M126.39,8.872l2.304,8.263
										c-0.015,0.006-0.026,0.012-0.038,0.019c-0.038,0.021-0.069,0.044-0.1,0.07l-5.374-4.43l2.9-3.977
										C126.176,8.865,126.283,8.884,126.39,8.872 M83.378,34.985l9.978-0.674c0.012,0.047,0.027,0.094,0.052,0.139
										c0.069,0.125,0.181,0.211,0.308,0.25l-0.901,6.004L83.34,35.14C83.359,35.091,83.374,35.04,83.378,34.985 M91.618,49.718
										l1.314-8.766l2.199,1.291c-0.056,0.143-0.051,0.305,0.028,0.449c0.037,0.068,0.087,0.123,0.146,0.166l-3.669,6.865
										C91.632,49.722,91.626,49.72,91.618,49.718 M95.66,41.917c-0.025-0.002-0.05-0.002-0.073,0l-1.537-7.229
										c0.024-0.008,0.046-0.018,0.068-0.029c0.117-0.064,0.198-0.164,0.24-0.279l2.862,0.771L95.66,41.917z M97.403,35.042
										l1.843-7.996c0.073,0.008,0.148-0.004,0.222-0.029l5.366,9.775c-0.075,0.057-0.129,0.127-0.165,0.207L97.403,35.042z
										 M113.331,32.104l-1.269-8.779c0.027-0.01,0.058-0.022,0.085-0.037c0.086-0.048,0.151-0.114,0.199-0.193l4.344,1.485
										l-2.952,9.842c-0.026-0.004-0.048-0.008-0.074-0.008L113.331,32.104z M141.412,18.626c0.004,0.009,0.008,0.016,0.015,0.024
										l-9.512,8.081c-0.058-0.051-0.127-0.088-0.2-0.109l1.142-8.701l8.494,0.499C141.354,18.493,141.375,18.561,141.412,18.626
										 M117.665,19.933c0.085,0.122,0.212,0.198,0.354,0.219l-1.285,4.281l-4.329-1.479c0.02-0.083,0.02-0.169-0.002-0.255
										L117.665,19.933z M95.212,42.11l-2.256-1.324l0.909-6.063c0.011,0,0.021-0.002,0.03-0.002l1.54,7.227
										c-0.023,0.01-0.047,0.02-0.069,0.031C95.305,42.015,95.253,42.06,95.212,42.11 M131.16,26.802l-6.996-4.006l4.445-4.754
										c0.105,0.072,0.234,0.105,0.361,0.09l0.056,0.193l2.331,8.325c-0.013,0.006-0.026,0.01-0.038,0.018
										C131.256,26.702,131.202,26.749,131.16,26.802 M124.029,22.717l-5.411-3.1c0-0.027-0.005-0.053-0.009-0.079l7.441-1.336
										l2.36-0.424c0.008,0.029,0.02,0.059,0.035,0.085c0.017,0.027,0.032,0.051,0.05,0.074L124.029,22.717z M123.92,22.833
										l-2.557,2.735c-0.125-0.08-0.278-0.108-0.423-0.069l-1.058-2.462l-1.343-3.127c0.026-0.04,0.044-0.083,0.058-0.126
										L123.92,22.833z M116.879,24.483l1.3-4.333c0.058-0.008,0.113-0.027,0.169-0.056c0.03-0.017,0.056-0.035,0.081-0.057
										l1.309,3.049l1.061,2.474c-0.08,0.051-0.144,0.119-0.185,0.197L116.879,24.483z M129.418,17.72l3.283,0.192l-1.14,8.69
										c-0.018,0-0.038,0.002-0.056,0.004l-2.386-8.516c0.012-0.007,0.025-0.012,0.037-0.019
										C129.297,17.994,129.388,17.864,129.418,17.72 M131.065,26.995l-9.47-1.02c-0.002-0.076-0.023-0.153-0.062-0.222
										c-0.018-0.031-0.036-0.057-0.058-0.082l2.581-2.761l7.027,4.026C131.075,26.954,131.069,26.974,131.065,26.995
										 M120.615,26.257c0.02,0.033,0.039,0.063,0.062,0.09l-6.744,8.145c-0.016-0.008-0.032-0.02-0.048-0.025l2.95-9.837
										l3.727,1.273C120.537,26.019,120.554,26.144,120.615,26.257 M97.255,35.001l-2.865-0.771
										c0.004-0.096-0.014-0.191-0.063-0.281c-0.025-0.049-0.06-0.092-0.098-0.127l4.822-6.828c0.017,0.006,0.03,0.014,0.044,0.02
										L97.255,35.001z M112.057,22.332l1.23-7.376l4.388,4.369c-0.1,0.134-0.129,0.309-0.077,0.47l-5.255,2.763
										C112.274,22.446,112.172,22.37,112.057,22.332 M113.319,14.768l1.388-8.328c0.02,0.001,0.039,0,0.06-0.002l3.131,12.712
										c-0.021,0.009-0.036,0.017-0.054,0.026c-0.022,0.012-0.042,0.023-0.062,0.04L113.319,14.768z M118.554,19.383
										c-0.025-0.046-0.055-0.086-0.091-0.121l4.628-6.345l5.368,4.426c-0.054,0.084-0.08,0.185-0.076,0.284l-9.824,1.765
										C118.557,19.389,118.554,19.385,118.554,19.383 M129.364,17.36c-0.028-0.054-0.065-0.1-0.109-0.138l4.298-6.513
										c0.028,0.012,0.058,0.021,0.09,0.028l-0.922,7.022l-3.293-0.194C129.422,17.495,129.399,17.425,129.364,17.36
										 M134.095,10.629l7.357,7.431c-0.046,0.063-0.079,0.135-0.094,0.209l-8.482-0.5l0.919-7.02
										c0.073-0.005,0.147-0.025,0.215-0.063C134.041,10.669,134.069,10.65,134.095,10.629 M141.627,18.837l-5.764,16.507
										c-0.081-0.016-0.168-0.012-0.252,0.014l-3.746-7.799c0.221-0.15,0.296-0.445,0.165-0.686
										c-0.004-0.01-0.01-0.018-0.014-0.023l9.509-8.082C141.558,18.796,141.591,18.819,141.627,18.837 M135.379,35.507
										l-9.009-6.043l4.757-2.063c0.127,0.205,0.375,0.295,0.6,0.225l3.746,7.799C135.437,35.448,135.407,35.476,135.379,35.507
										 M126.217,29.362l-4.671-3.133c0.016-0.033,0.028-0.066,0.036-0.104l9.468,1.021c0,0.039,0.006,0.076,0.016,0.113
										L126.217,29.362z M126.051,29.435l-11.974,5.188c-0.008-0.012-0.016-0.021-0.025-0.033l6.742-8.143
										c0.156,0.1,0.359,0.113,0.531,0.018c0.054-0.027,0.098-0.066,0.136-0.107L126.051,29.435z M113.254,34.612l-5.323-3.117
										l3.85-8.156c0.042,0.009,0.086,0.014,0.129,0.013l0.24,1.666l1.362,9.418c-0.034,0.012-0.069,0.025-0.102,0.045
										C113.349,34.513,113.295,34.56,113.254,34.612 M107.798,31.417l-8.026-4.697c0.034-0.082,0.046-0.174,0.034-0.264
										l11.634-3.37c0.049,0.085,0.117,0.151,0.196,0.196L107.798,31.417z M107.73,31.556l-2.43,5.154
										c-0.105-0.035-0.223-0.031-0.332,0.01l-5.366-9.777c0.034-0.027,0.066-0.057,0.092-0.09L107.73,31.556z M104.657,37.39
										l-8.622,4.734c-0.06-0.08-0.139-0.137-0.226-0.172l1.558-6.762l7.263,1.959C104.62,37.229,104.63,37.312,104.657,37.39
										 M91.281,49.722l-8.104-14.365c0.032-0.023,0.062-0.053,0.086-0.084l9.527,5.594l-1.324,8.826
										C91.404,49.69,91.341,49.7,91.281,49.722 M88.922,29.958l4.505,3.957c-0.048,0.072-0.073,0.156-0.081,0.242l-9.98,0.676
										c-0.01-0.047-0.025-0.096-0.051-0.141c-0.005-0.008-0.009-0.014-0.015-0.021L88.922,29.958z M89.041,29.856l2.913-2.441
										c0.109,0.098,0.258,0.145,0.404,0.129l1.267,6.191c-0.004,0.002-0.008,0.002-0.01,0.004
										c-0.031,0.02-0.06,0.039-0.087,0.061L89.041,29.856z M92.823,27.011l1.947-0.123l-0.911,6.787
										c-0.029,0-0.06,0.004-0.087,0.01l-1.265-6.18c0.014-0.008,0.029-0.014,0.044-0.021C92.73,27.386,92.827,27.2,92.823,27.011
										 M94.928,26.878l3.848-0.244c0.01,0.049,0.027,0.096,0.052,0.143c0.025,0.049,0.06,0.09,0.097,0.125l-4.848,6.818
										c-0.02-0.008-0.042-0.016-0.063-0.023L94.928,26.878z M111.378,22.895c0.002,0.015,0.004,0.03,0.008,0.047l-8.566,2.479
										l-3.058,0.886c-0.006-0.012-0.01-0.023-0.016-0.035c-0.137-0.248-0.447-0.342-0.697-0.213l-3.085-4.344
										c0.084-0.067,0.141-0.158,0.171-0.257L111.378,22.895z M112.603,13.456c-0.054-0.094-0.131-0.169-0.223-0.214l2.097-6.352
										l-1.292,7.746l-0.62-0.617C112.682,13.861,112.704,13.641,112.603,13.456 M115.066,6.307l7.903,6.514l-4.632,6.351
										c-0.09-0.048-0.19-0.067-0.292-0.058l-3.131-12.712c0.018-0.008,0.036-0.016,0.054-0.025
										C115.005,6.357,115.036,6.332,115.066,6.307 M115.207,6.099l10.596,2.223c-0.006,0.096,0.014,0.191,0.063,0.283
										c0.023,0.046,0.056,0.085,0.091,0.12l-2.896,3.972l-7.896-6.51C115.182,6.16,115.195,6.129,115.207,6.099 M126.807,8.554
										l6.431,1.622c-0.01,0.102,0.008,0.207,0.063,0.305c0.029,0.058,0.073,0.107,0.121,0.146l-4.294,6.511
										c-0.09-0.041-0.188-0.058-0.286-0.045l-2.303-8.262c0.012-0.008,0.025-0.014,0.037-0.021
										C126.686,8.751,126.764,8.66,126.807,8.554 M143.235,15.018l-1.231,2.851c-0.125-0.032-0.262-0.02-0.385,0.047
										c-0.021,0.011-0.04,0.023-0.058,0.037l-7.365-7.439c0.004-0.004,0.004-0.007,0.006-0.011L143.235,15.018z M143.374,15.086
										l5.918,2.957c-0.012,0.031-0.02,0.063-0.024,0.097l-6.881,0.146c-0.01-0.057-0.027-0.111-0.058-0.163
										c-0.045-0.084-0.108-0.147-0.183-0.194L143.374,15.086z M143.436,14.945l3.051-7.071c0.07,0.019,0.142,0.024,0.213,0.016
										l0.613,2.106l2.255,7.734c-0.01,0.006-0.02,0.01-0.031,0.016c-0.073,0.04-0.133,0.096-0.177,0.159L143.436,14.945z
										 M147.138,7.497l3.294,0.379l-0.686,9.808c-0.01,0-0.02,0.002-0.029,0.004l-2.27-7.779l-0.602-2.063
										c0.013-0.005,0.024-0.01,0.036-0.016C147.015,7.756,147.103,7.633,147.138,7.497 M150.584,7.892l9.817,1.129
										c0.004,0.079,0.023,0.159,0.063,0.234c0.004,0.007,0.008,0.012,0.012,0.018l-7.035,5.813l-3.304,2.729
										c-0.067-0.061-0.151-0.101-0.238-0.121L150.584,7.892z M150.594,7.738l0.566-8.108c0.058-0.01,0.113-0.027,0.167-0.058
										c0.045-0.023,0.085-0.055,0.119-0.088l9.061,9.204c-0.04,0.055-0.069,0.115-0.088,0.179L150.594,7.738z M161.301,1.428
										l4.813,1.089c-0.019,0.112-0.002,0.23,0.058,0.338c0.006,0.014,0.016,0.025,0.023,0.038l-4.985,5.669
										c-0.058-0.035-0.121-0.062-0.187-0.074L161.301,1.428z M167.113,10.062c-0.046,0.012-0.091,0.027-0.135,0.052
										c-0.107,0.06-0.188,0.152-0.232,0.259l-3.687-0.917l3.35-6.379c0.049,0.024,0.103,0.039,0.158,0.047L167.113,10.062z
										 M157.974,19.184c-0.004-0.003-0.01-0.007-0.017-0.01l5.029-9.579l3.722,0.928c-0.008,0.101,0.013,0.207,0.064,0.303
										c0.008,0.015,0.018,0.031,0.027,0.046L157.974,19.184z M150.463,20.612c-0.01-0.033-0.023-0.065-0.041-0.098
										c-0.015-0.026-0.032-0.052-0.05-0.074l1.642-1.763l5.112,0.905c0,0.005,0,0.011,0,0.016L150.463,20.612z M114.45,34.628
										l11.751-5.092l9.093,6.098c-0.02,0.039-0.032,0.078-0.04,0.121L114.45,34.628z M105.63,37.001
										c-0.006-0.014-0.014-0.029-0.021-0.043c-0.042-0.078-0.102-0.139-0.169-0.184l2.426-5.141l5.311,3.109
										c-0.031,0.08-0.043,0.168-0.033,0.254L105.63,37.001z M91.777,27.044c0.002,0.078,0.023,0.158,0.063,0.232l0.014,0.021
										l-2.93,2.457l-3.73-3.277c0.031-0.047,0.052-0.098,0.065-0.152L91.777,27.044z M95.42,21.786
										c0.01,0.006,0.022,0.01,0.034,0.014l-0.661,4.932l-1.997,0.127c-0.008-0.029-0.022-0.059-0.038-0.086
										c-0.036-0.066-0.085-0.121-0.143-0.166L95.42,21.786z M96.125,21.126l15.58-7.134c0.081,0.126,0.208,0.207,0.348,0.231
										l-0.221,8.085c-0.062,0.009-0.127,0.027-0.188,0.061c-0.145,0.079-0.238,0.219-0.264,0.37l-15.222-1.435
										c-0.002-0.062-0.014-0.125-0.037-0.188L96.125,21.126z M146.138,7.546c0.01,0.026,0.02,0.052,0.033,0.075
										c0.044,0.08,0.105,0.144,0.175,0.189l-3.049,7.065l-9.033-4.516c0.016-0.058,0.021-0.119,0.016-0.18L146.138,7.546z
										 M150.908-0.392c0.031,0.012,0.063,0.019,0.097,0.023l-0.563,8.09l-3.29-0.378c-0.004-0.075-0.023-0.154-0.063-0.225
										c-0.037-0.071-0.091-0.129-0.152-0.174L150.908-0.392z M161.72-3.68l4.54,5.912c-0.042,0.041-0.075,0.088-0.1,0.138
										l-4.854-1.099l0.19-4.86c0.06-0.009,0.115-0.028,0.169-0.058C161.686-3.658,161.702-3.668,161.72-3.68"/>
								</g>
							</g>
						</g>
						<path clip-path="url(#SVGID_15_)" fill="#5BC7D4" d="M99.154,65.622l7.911,4.637c-0.065,0.236,0.01,0.502,0.215,0.67
							c0.273,0.223,0.679,0.182,0.903-0.094c0.16-0.199,0.185-0.467,0.079-0.684l9.303-7.641c0.276,0.203,0.663,0.158,0.882-0.109
							c0.224-0.275,0.183-0.68-0.094-0.904c-0.075-0.063-0.163-0.102-0.254-0.125l1.126-10.174c0.175-0.012,0.345-0.09,0.462-0.236
							c0.161-0.195,0.185-0.459,0.084-0.676l12.269-8.473c0.016,0.018,0.036,0.035,0.054,0.051c0.275,0.225,0.679,0.182,0.903-0.094
							c0.097-0.119,0.143-0.258,0.145-0.4l8.057-1.125c0.033,0.121,0.104,0.232,0.21,0.316c0.276,0.225,0.679,0.182,0.903-0.092
							c0.102-0.125,0.149-0.277,0.144-0.426l13.068-2.365c0.038,0.109,0.105,0.213,0.202,0.291c0.276,0.225,0.68,0.182,0.903-0.092
							c0.225-0.277,0.183-0.682-0.091-0.904c-0.107-0.086-0.229-0.133-0.355-0.143l-0.59-8.775c0.14-0.029,0.267-0.105,0.363-0.223
							c0.193-0.236,0.187-0.57,0.006-0.801l14.413-15.302l-0.069-0.067c0,0.001,0,0.001,0,0.001
							c0.276,0.224,0.681,0.184,0.905-0.093c0.223-0.275,0.181-0.679-0.093-0.903c-0.062-0.049-0.128-0.084-0.197-0.108l0.961-6.786
							c0.181-0.006,0.355-0.087,0.479-0.236c0.115-0.143,0.159-0.317,0.137-0.487l7.739-2.194c0.039,0.089,0.099,0.169,0.179,0.234
							c0.275,0.224,0.681,0.182,0.905-0.092c0.224-0.275,0.183-0.681-0.094-0.904c-0.123-0.101-0.273-0.147-0.421-0.144
							l-1.666-9.571c0.113-0.038,0.217-0.106,0.296-0.206c0.225-0.273,0.183-0.679-0.091-0.903
							c-0.254-0.205-0.613-0.187-0.844,0.029l-15.843-12.582c0.165-0.27,0.109-0.625-0.143-0.83
							c-0.276-0.224-0.679-0.182-0.903,0.093c-0.225,0.275-0.183,0.679,0.094,0.903c0.071,0.059,0.152,0.1,0.236,0.122l-0.999,9.499
							c-0.177,0.008-0.35,0.086-0.471,0.233c-0.202,0.252-0.187,0.606,0.026,0.839l-7.618,9.361
							c-0.268-0.16-0.621-0.104-0.823,0.146c-0.171,0.208-0.188,0.489-0.067,0.713l-7.612,5.746
							c-0.016-0.014-0.029-0.028-0.045-0.041c-0.276-0.223-0.68-0.182-0.903,0.093c-0.201,0.247-0.187,0.6,0.018,0.83l-24.496,8.441
							c-0.04-0.076-0.093-0.145-0.165-0.202c-0.273-0.224-0.679-0.182-0.903,0.094c-0.224,0.274-0.183,0.679,0.094,0.903
							c0.102,0.083,0.221,0.129,0.342,0.141l1.071,21.42c-0.141,0.029-0.273,0.105-0.371,0.225
							c-0.089,0.111-0.137,0.242-0.143,0.375l-9.039,0.895c-0.031-0.131-0.105-0.252-0.217-0.344
							c-0.275-0.223-0.679-0.182-0.903,0.094c-0.152,0.189-0.183,0.439-0.097,0.648l-7.104,4.23
							c-0.025-0.033-0.058-0.064-0.091-0.092c-0.276-0.225-0.682-0.184-0.903,0.092c-0.225,0.275-0.183,0.68,0.093,0.902
							c0.019,0.016,0.036,0.029,0.054,0.041l-6.194,13.525c-0.239-0.07-0.508,0.006-0.677,0.211
							c-0.224,0.275-0.181,0.68,0.094,0.904c0.177,0.143,0.405,0.178,0.605,0.111l3.821,7.627c-0.058,0.037-0.111,0.082-0.156,0.139
							c-0.223,0.275-0.181,0.68,0.093,0.902C98.529,65.933,98.928,65.892,99.154,65.622 M107.528,69.808l-2.014-5.574l11.858-1.953
							c0.018,0.033,0.038,0.064,0.06,0.096l-0.874,0.719l-8.401,6.898c-0.021-0.021-0.044-0.043-0.067-0.063
							C107.925,69.798,107.717,69.759,107.528,69.808 M154.908,27.095l-1.111-0.467l-1.879-8.368l3.229,8.606
							c-0.069,0.039-0.135,0.092-0.187,0.156C154.939,27.046,154.924,27.071,154.908,27.095 M170.266,10.706l-5.526-3.52
							c0.063-0.145,0.071-0.307,0.025-0.451l4.227-2.038l1.511,5.862C170.415,10.589,170.334,10.637,170.266,10.706 M180.252,0.292
							L174.526-1.7l4.199-7.927c0.073,0.025,0.152,0.038,0.228,0.036l1.666,9.572c-0.111,0.038-0.217,0.105-0.296,0.203
							C180.296,0.22,180.271,0.255,180.252,0.292 M107.769,40.403l-5.441,14.271c-0.034-0.006-0.066-0.012-0.1-0.014l-1.059-12.287
							c0.132-0.031,0.257-0.104,0.35-0.219c0.105-0.131,0.151-0.289,0.142-0.445L107.769,40.403z M117.315,62.099l-11.866,1.955
							l-2.956-8.186c0.072-0.039,0.14-0.094,0.193-0.16c0.018-0.021,0.033-0.043,0.047-0.066l14.576,6.289
							C117.304,61.985,117.308,62.044,117.315,62.099 M101.783,55.802c0.035,0.027,0.069,0.049,0.106,0.068l-2.999,8.611
							l0.855-8.734l1.828-0.262C101.608,55.606,101.68,55.716,101.783,55.802 M99.764,55.554l1.251-12.773l1.026,11.898
							c-0.135,0.031-0.258,0.104-0.352,0.219c-0.096,0.119-0.141,0.26-0.141,0.402L99.764,55.554z M107.988,40.354l2.008-0.428
							c0.037,0.102,0.103,0.197,0.194,0.271c0.008,0.006,0.016,0.012,0.021,0.016l-3.283,6.098l-4.136,7.67L107.988,40.354z
							 M108.068,40.144l1.01-2.645c0.109,0.023,0.225,0.018,0.332-0.016l0.824,1.688c-0.05,0.035-0.096,0.076-0.136,0.123
							c-0.106,0.133-0.152,0.291-0.143,0.447L108.068,40.144z M109.856,36.903l9.037-0.895c0.002,0.002,0.002,0.006,0.004,0.01
							l-7.754,3.344c-0.038-0.059-0.084-0.113-0.142-0.158c-0.175-0.143-0.4-0.178-0.6-0.115l-0.823-1.688
							c0.05-0.035,0.095-0.076,0.135-0.125C109.803,37.167,109.851,37.034,109.856,36.903 M141.5,39.505l-6.435-8.326
							c0.014-0.014,0.026-0.027,0.036-0.041c0.031-0.039,0.06-0.082,0.079-0.125l8.155,2.551l-1.459,5.863
							C141.746,39.413,141.617,39.44,141.5,39.505 M178.326-10.039l-11.028,5.375c-0.033-0.049-0.075-0.096-0.125-0.135
							c-0.135-0.11-0.302-0.156-0.462-0.143l-1.749-7.237l13.335,1.948C178.297-10.166,178.307-10.101,178.326-10.039
							 M162.156-22.976l2.555,10.571l-3.097-0.454c-0.002-0.186-0.081-0.37-0.238-0.495c-0.073-0.061-0.156-0.102-0.244-0.124
							l0.999-9.498C162.139-22.976,162.148-22.976,162.156-22.976 M161.166-12.246c0.027-0.009,0.056-0.02,0.083-0.032l5.084,7.505
							c-0.021,0.021-0.043,0.043-0.063,0.067c-0.101,0.125-0.148,0.277-0.143,0.426l-3.607,0.446L161.166-12.246z M162.36-3.625
							l1.599,9.937c-0.088,0.028-0.169,0.074-0.238,0.139l-10.615-8.635c0.06-0.098,0.088-0.204,0.092-0.311L162.36-3.625z
							 M145.613,7.069l5.497,9.392c-0.029,0.023-0.056,0.052-0.081,0.082c-0.076,0.093-0.121,0.2-0.138,0.31l-5.62,0.319
							l-1.19-12.547c0.029-0.009,0.057-0.018,0.085-0.028L145.613,7.069z M119.922,35.353c-0.01-0.006-0.02-0.012-0.027-0.02
							l7.077-13.576c0.089,0.03,0.185,0.041,0.28,0.03l2.72,10.417l-9.883,3.354C120.049,35.481,119.993,35.411,119.922,35.353
							 M146.308,22.903c-0.152-0.1-0.333-0.126-0.502-0.086l-0.518-5.457l5.604-0.317c0.017,0.103,0.056,0.2,0.119,0.286
							L146.308,22.903z M161.587-12.671l3.172,0.464l1.767,7.313c-0.01,0.004-0.021,0.009-0.031,0.014l-5.088-7.503
							c0.021-0.021,0.043-0.043,0.063-0.067C161.525-12.519,161.563-12.593,161.587-12.671 M127.798,21.329l9.801,1.324
							l-2.856,7.454c-0.153-0.035-0.313-0.012-0.453,0.064l-0.15-0.193l-6.494-8.383c0.012-0.014,0.024-0.025,0.036-0.039
							C127.736,21.486,127.775,21.409,127.798,21.329 M137.789,22.678l7.582,1.023c0.014,0.03,0.027,0.059,0.046,0.087l-7.84,4.955
							l-2.485,1.57c-0.026-0.027-0.052-0.055-0.082-0.08c-0.029-0.021-0.06-0.043-0.091-0.061L137.789,22.678z M137.858,22.498
							l1.645-4.291c0.179,0.037,0.365-0.006,0.512-0.117l2.341,2.311l2.968,2.935c-0.008,0.057-0.012,0.113-0.006,0.17
							L137.858,22.498z M145.099,17.371l0.524,5.522c-0.062,0.036-0.117,0.084-0.165,0.143c-0.025,0.031-0.047,0.066-0.067,0.102
							l-2.895-2.86l-2.349-2.321c0.069-0.095,0.109-0.202,0.119-0.312L145.099,17.371z M133.974,30.847l-3.823,1.297l-2.716-10.404
							c0.02-0.008,0.041-0.02,0.062-0.03l6.645,8.579c-0.012,0.012-0.022,0.025-0.036,0.039
							C133.983,30.478,133.939,30.669,133.974,30.847 M127.817,21.066l11.232-3.214c0.04,0.084,0.098,0.161,0.175,0.224
							c0.032,0.025,0.065,0.048,0.102,0.066l-1.658,4.329l-9.845-1.329C127.823,21.116,127.821,21.09,127.817,21.066
							 M140.034,17.079c-0.035-0.028-0.073-0.053-0.112-0.073l3.904-12.371c0.022,0.004,0.044,0.005,0.067,0.007l1.188,12.54
							l-4.822,0.274C140.233,17.312,140.155,17.178,140.034,17.079 M162.548-3.647l3.612-0.445c0.038,0.109,0.105,0.212,0.203,0.291
							c0.052,0.042,0.109,0.074,0.169,0.099l-2.327,9.986c-0.02-0.002-0.04-0.002-0.06-0.002L162.548-3.647z M151.575,17.588
							l2.009,8.952l-7.004-2.94c0.048-0.197,0.004-0.411-0.131-0.57l4.697-5.566C151.273,17.558,151.426,17.599,151.575,17.588
							 M153.632,26.765l2.269,10.107c-0.021,0.008-0.043,0.02-0.063,0.031L146.405,23.9c0.018-0.017,0.034-0.034,0.05-0.054
							c0.02-0.022,0.037-0.047,0.05-0.072L153.632,26.765z M145.552,23.94c0.05,0.04,0.104,0.07,0.161,0.094l-2.331,9.346
							l-8.144-2.549c0.018-0.121,0.002-0.246-0.046-0.357l10.352-6.542C145.546,23.935,145.548,23.936,145.552,23.94
							 M134.198,31.231c0.058,0.047,0.123,0.08,0.188,0.104l-1.876,9.389c-0.038,0-0.078,0.002-0.115,0.01l-2.196-8.406l3.834-1.303
							C134.071,31.104,134.127,31.173,134.198,31.231 M131.931,41.065l-11.794-5.049c0.025-0.092,0.027-0.188,0.012-0.279
							l9.873-3.35l2.193,8.402c-0.079,0.039-0.153,0.096-0.213,0.17C131.975,40.993,131.95,41.03,131.931,41.065 M119.578,35.214
							l-1.071-21.421c0.103-0.021,0.198-0.065,0.281-0.134l7.858,7.134c-0.181,0.272-0.13,0.645,0.129,0.855
							c0.01,0.008,0.02,0.015,0.029,0.021l-7.079,13.577C119.68,35.229,119.628,35.218,119.578,35.214 M118.983,13.384l13.031,2.707
							l-4.455,4.539c-0.24-0.174-0.563-0.16-0.784,0.021l-7.86-7.134C118.943,13.477,118.965,13.431,118.983,13.384 M132.234,16.136
							l6.754,1.403c-0.002,0.046,0,0.088,0.008,0.133l-11.23,3.212c-0.02-0.043-0.044-0.083-0.071-0.121L132.234,16.136z
							 M132.392,15.977l11.211-11.424c0.014,0.009,0.029,0.017,0.045,0.024l-3.904,12.367c-0.223-0.041-0.459,0.039-0.611,0.227
							c-0.046,0.058-0.08,0.119-0.104,0.184L132.392,15.977z M144.543,4.185l7.488,1.083l-0.607,11.047
							c-0.054,0.008-0.105,0.023-0.152,0.044l-1.045-1.781L144.331,4.5c0.033-0.027,0.065-0.06,0.095-0.095
							C144.481,4.338,144.52,4.263,144.543,4.185 M152.218,5.294l11.292,1.633c0,0.11,0.03,0.22,0.086,0.315l-11.669,9.203
							c-0.094-0.076-0.203-0.119-0.314-0.133L152.218,5.294z M152.23,5.106l0.383-6.979c0.137-0.013,0.268-0.067,0.375-0.165
							L163.6,6.598c-0.025,0.044-0.048,0.093-0.062,0.143L152.23,5.106z M153.03-2.945l7.613-9.361
							c0.105,0.063,0.221,0.094,0.336,0.092l1.352,8.403l-9.158,1.128C153.147-2.779,153.098-2.868,153.03-2.945 M162.537-23.137
							l15.847,12.584c-0.025,0.044-0.046,0.09-0.06,0.136l-13.412-1.959l-2.571-10.641
							C162.412-23.044,162.479-23.084,162.537-23.137 M174.346-1.762l-6.946-2.418c0.02-0.104,0.012-0.214-0.02-0.313l11.029-5.375
							c0.034,0.051,0.076,0.095,0.123,0.135c0.011,0.007,0.019,0.012,0.026,0.018L174.346-1.762z M174.257-1.594l-2.183,4.12
							c-0.17-0.061-0.359-0.045-0.52,0.042l-4.298-6.453c0.002-0.002,0.006-0.006,0.01-0.009c0.027-0.034,0.052-0.07,0.071-0.108
							L174.257-1.594z M171.272,3.387l-2.156,1.04l-2.098-8.136c0.031-0.013,0.063-0.031,0.095-0.051l4.29,6.44
							c-0.014,0.015-0.027,0.029-0.039,0.044C171.207,2.919,171.182,3.175,171.272,3.387 M168.942,4.511l-4.259,2.053
							c-0.034-0.052-0.077-0.097-0.125-0.138c-0.054-0.043-0.109-0.075-0.169-0.099l2.36-9.986c0.028,0.001,0.056,0.001,0.086-0.003
							L168.942,4.511z M152.087,16.634c-0.01-0.017-0.018-0.034-0.029-0.05l8.59-6.775l3.065-2.417
							c0.01,0.011,0.021,0.021,0.033,0.031c0.271,0.22,0.663,0.184,0.89-0.079l5.516,3.512c-0.066,0.116-0.09,0.246-0.078,0.372
							L152.087,16.634z M155.051,27.927c0.105,0.086,0.23,0.131,0.354,0.141l0.55,8.188l-2.108-9.4l0.991,0.416
							C154.775,27.505,154.851,27.763,155.051,27.927 M155.554,37.192l-11.991-3.756l2.333-9.357
							c0.123,0.012,0.248-0.011,0.359-0.069l9.428,13.002c-0.019,0.018-0.034,0.035-0.05,0.053
							C155.601,37.106,155.577,37.147,155.554,37.192 M155.49,37.491l-13.069,2.367c-0.038-0.111-0.104-0.213-0.202-0.293
							c-0.048-0.041-0.104-0.07-0.159-0.096l1.457-5.85l11.981,3.752C155.492,37.411,155.49,37.452,155.49,37.491 M141.172,40.06
							l-8.056,1.125c-0.036-0.121-0.105-0.232-0.211-0.318c-0.065-0.049-0.135-0.088-0.208-0.111l1.874-9.381
							c0.121,0.006,0.24-0.021,0.346-0.082l6.434,8.328c-0.012,0.012-0.023,0.025-0.035,0.037
							C141.22,39.776,141.174,39.917,141.172,40.06 M119.515,40.3l0.082-3.811c0.158-0.02,0.31-0.098,0.419-0.232
							c0.018-0.021,0.033-0.045,0.048-0.068l11.806,5.057c-0.002,0.004-0.002,0.008-0.002,0.014L119.515,40.3z M119.326,40.284
							l-8.09-0.629c-0.002-0.039-0.01-0.08-0.02-0.119l7.754-3.346c0.036,0.059,0.084,0.113,0.142,0.16
							c0.089,0.072,0.19,0.117,0.296,0.135L119.326,40.284z M119.322,40.474l-0.202,9.445c-0.088,0.01-0.171,0.037-0.248,0.08
							l-1.672-2.111l-6.137-7.748c0.013-0.01,0.022-0.023,0.032-0.033c0.063-0.078,0.105-0.17,0.127-0.264L119.322,40.474z
							 M118.554,50.649l-3.916,1.09l-3.753-11.465c0.011-0.004,0.021-0.012,0.032-0.018l6.17,7.793l1.636,2.066
							c-0.01,0.012-0.021,0.023-0.031,0.035C118.574,50.296,118.53,50.478,118.554,50.649 M114.455,51.79l-11.68,3.252
							c-0.04-0.09-0.1-0.172-0.181-0.238c-0.008-0.006-0.014-0.01-0.021-0.016l5.313-9.857l2.493-4.627
							c0.107,0.039,0.217,0.049,0.325,0.029L114.455,51.79z M114.513,51.97l3.103,9.477c-0.062,0.037-0.117,0.084-0.165,0.145
							c-0.039,0.049-0.069,0.1-0.093,0.154l-14.548-6.277c0.021-0.08,0.025-0.162,0.016-0.246L114.513,51.97z M105.259,64.085
							l-5.972,0.984c-0.029-0.135-0.105-0.262-0.22-0.355c-0.017-0.014-0.03-0.023-0.046-0.033l3.047-8.746
							c0.082,0.016,0.167,0.014,0.246-0.002L105.259,64.085z M94.666,56.956c0.045-0.033,0.091-0.072,0.129-0.119
							c0.095-0.121,0.143-0.262,0.143-0.402l4.616-0.66l-0.862,8.795c-0.067-0.002-0.135,0.004-0.2,0.023L94.666,56.956z
							 M100.842,42.368c0.008,0,0.016,0.002,0.021,0.004l-1.292,13.209l-4.659,0.666c-0.036-0.119-0.105-0.23-0.211-0.314
							c-0.018-0.016-0.035-0.027-0.056-0.041L100.842,42.368z M108.717,37.278c0.028,0.031,0.06,0.064,0.094,0.09
							c0.028,0.025,0.06,0.045,0.092,0.064l-1.055,2.758l-6.226,1.334c-0.002-0.006-0.006-0.012-0.008-0.018L108.717,37.278z
							 M143.173,4.718L132.171,15.93l-13.15-2.731c0.004-0.051,0-0.104-0.008-0.155L143.173,4.718z M152.104-2.053
							c0.015,0.013,0.028,0.028,0.044,0.04c0.084,0.067,0.179,0.111,0.276,0.132l-0.382,6.959l-7.472-1.081
							c0-0.104-0.028-0.21-0.08-0.305L152.104-2.053z M172.446,2.868c-0.038-0.089-0.098-0.169-0.179-0.234
							c-0.009-0.007-0.017-0.012-0.026-0.019l2.196-4.146l5.753,2.002c-0.012,0.067-0.014,0.136-0.006,0.202L172.446,2.868z
							 M170.736,10.526c-0.016-0.002-0.031-0.002-0.048,0l-1.524-5.912l2.21-1.064c0.025,0.027,0.052,0.055,0.081,0.079
							c0.075,0.06,0.155,0.101,0.24,0.123L170.736,10.526z M170.238,11.6l-14.415,15.301c-0.148-0.105-0.331-0.137-0.5-0.102
							l-3.484-9.29c0.069-0.039,0.133-0.092,0.187-0.157c0.127-0.157,0.169-0.356,0.129-0.542l17.963-5.399
							c0.029,0.069,0.073,0.138,0.129,0.196L170.238,11.6z M119.668,50.13c-0.023-0.025-0.046-0.049-0.073-0.07
							c-0.086-0.07-0.185-0.113-0.286-0.133l0.202-9.439l12.353,0.959c0.01,0.074,0.03,0.145,0.065,0.213L119.668,50.13z
							 M117.913,61.354c-0.042,0.002-0.084,0.01-0.123,0.02l-3.095-9.455l3.912-1.09c0.04,0.086,0.1,0.162,0.177,0.227
							c0.076,0.063,0.163,0.104,0.255,0.125L117.913,61.354z M107.143,70.085l-7.891-4.623c0.027-0.066,0.045-0.135,0.049-0.203
							l6.023-0.992l2.027,5.613c-0.062,0.037-0.117,0.086-0.165,0.145C107.171,70.044,107.157,70.063,107.143,70.085"/>
					</g>
				</g>
			</g>
		</g>
	</g>
	<g>
		<path fill="#FFFFFF" d="M85.805,13.099h2.842l5.315,23.802h-3.41l-1.003-5.115h-4.646l-1.003,5.115h-3.41L85.805,13.099z
			 M87.242,19.953h-0.066l-1.672,8.625h3.41L87.242,19.953z"/>
		<path fill="#FFFFFF" d="M95.733,13.099h3.409v23.802h-3.409V13.099z"/>
		<path fill="#FFFFFF" d="M102.452,13.099h5.048c1.938,0,3.421,0.541,4.446,1.622c1.024,1.081,1.537,2.591,1.537,4.529v11.131
			c0,2.229-0.54,3.873-1.621,4.932s-2.636,1.588-4.663,1.588h-4.747V13.099z M105.862,33.692h1.571c0.957,0,1.638-0.24,2.039-0.719
			c0.4-0.48,0.602-1.232,0.602-2.258V19.25c0-0.937-0.189-1.66-0.568-2.173s-1.07-0.769-2.072-0.769h-1.571V33.692z"/>
		<path fill="#FFFFFF" d="M120.27,23.128c1.024,0,1.732-0.122,2.123-0.368c0.39-0.245,0.585-0.813,0.585-1.705V17.98
			c0-0.49-0.15-0.891-0.452-1.203c-0.301-0.312-0.707-0.468-1.22-0.468c-0.602,0-1.031,0.189-1.287,0.568
			c-0.257,0.379-0.385,0.746-0.385,1.103v1.939h-3.409v-1.973c0-0.69,0.134-1.349,0.401-1.973c0.267-0.623,0.635-1.158,1.103-1.604
			c0.469-0.445,1.014-0.802,1.639-1.069c0.623-0.268,1.292-0.401,2.005-0.401c0.937,0,1.711,0.184,2.324,0.552
			c0.612,0.367,1.074,0.741,1.387,1.12c0.223,0.267,0.418,0.54,0.585,0.818c0.167,0.279,0.301,0.602,0.401,0.97
			c0.101,0.367,0.178,0.813,0.234,1.337c0.055,0.524,0.083,1.165,0.083,1.922c0,0.825-0.017,1.494-0.05,2.006
			c-0.033,0.514-0.123,0.942-0.268,1.287c-0.146,0.346-0.356,0.642-0.635,0.886c-0.279,0.246-0.664,0.514-1.153,0.803
			c0.534,0.334,0.94,0.646,1.22,0.936c0.278,0.29,0.484,0.63,0.618,1.019c0.134,0.391,0.212,0.859,0.234,1.404
			c0.021,0.547,0.033,1.244,0.033,2.09c0,0.781-0.017,1.426-0.05,1.939c-0.033,0.512-0.084,0.941-0.15,1.287
			c-0.067,0.346-0.156,0.641-0.268,0.885c-0.112,0.246-0.257,0.502-0.435,0.77c-0.424,0.625-0.97,1.143-1.638,1.555
			c-0.669,0.412-1.527,0.617-2.574,0.617c-0.535,0-1.104-0.088-1.705-0.266c-0.602-0.18-1.148-0.469-1.638-0.869
			c-0.491-0.402-0.897-0.926-1.221-1.572s-0.484-1.438-0.484-2.373v-1.939h3.409v1.771c0,0.535,0.15,0.977,0.452,1.32
			c0.301,0.346,0.707,0.52,1.22,0.52s0.919-0.174,1.22-0.52c0.302-0.344,0.452-0.807,0.452-1.387v-3.41
			c0-0.467-0.04-0.846-0.117-1.137c-0.078-0.289-0.218-0.518-0.418-0.686c-0.201-0.166-0.474-0.277-0.819-0.334
			c-0.346-0.055-0.797-0.082-1.354-0.082V23.128z"/>
		<path fill="#FFFFFF" d="M133.708,23.095l0.066,0.066c0.111-0.089,0.284-0.161,0.519-0.218c0.233-0.055,0.54-0.083,0.919-0.083
			c0.602,0,1.158,0.146,1.672,0.435c0.512,0.29,0.913,0.657,1.203,1.104c0.155,0.245,0.278,0.49,0.368,0.735
			c0.089,0.245,0.161,0.568,0.217,0.968c0.056,0.402,0.095,0.908,0.117,1.521c0.021,0.613,0.033,1.387,0.033,2.324
			c0,0.779-0.012,1.42-0.033,1.922c-0.022,0.502-0.062,0.924-0.117,1.27s-0.134,0.641-0.234,0.887
			c-0.1,0.246-0.229,0.502-0.384,0.768c-0.446,0.736-1.042,1.305-1.789,1.705c-0.746,0.402-1.588,0.602-2.523,0.602
			s-1.771-0.205-2.507-0.617s-1.326-0.975-1.772-1.689c-0.179-0.266-0.317-0.521-0.417-0.768c-0.101-0.246-0.179-0.541-0.234-0.887
			s-0.095-0.768-0.117-1.27s-0.033-1.143-0.033-1.922c0-0.736,0.011-1.344,0.033-1.822s0.056-0.891,0.101-1.236
			c0.044-0.346,0.111-0.658,0.2-0.938c0.089-0.278,0.189-0.573,0.301-0.885l4.479-11.968h3.812L133.708,23.095z M135.413,27.575
			c0-0.514-0.168-0.926-0.502-1.238c-0.334-0.311-0.725-0.467-1.17-0.467c-0.446,0-0.836,0.156-1.17,0.467
			c-0.334,0.313-0.502,0.725-0.502,1.238v4.412c0,0.512,0.168,0.924,0.502,1.236s0.724,0.469,1.17,0.469
			c0.445,0,0.836-0.156,1.17-0.469s0.502-0.725,0.502-1.236V27.575z"/>
		<path fill="#FFFFFF" d="M151.258,16.309h-6.753v6.418c0.313-0.312,0.714-0.573,1.204-0.785c0.489-0.212,1.036-0.318,1.638-0.318
			c1.158,0,2.101,0.357,2.825,1.07c0.724,0.713,1.086,1.761,1.086,3.142v6.152c0,0.803-0.14,1.516-0.418,2.139
			c-0.278,0.625-0.651,1.16-1.119,1.605c-0.469,0.445-1.009,0.785-1.622,1.02s-1.253,0.35-1.922,0.35s-1.31-0.115-1.922-0.35
			c-0.613-0.234-1.153-0.574-1.622-1.02c-0.468-0.445-0.841-0.98-1.119-1.605c-0.279-0.623-0.418-1.336-0.418-2.139v-1.004h3.409
			v0.869c0,0.58,0.162,1.031,0.485,1.354c0.322,0.324,0.74,0.486,1.253,0.486s0.908-0.156,1.188-0.469
			c0.278-0.313,0.418-0.746,0.418-1.303v-5.584c0-0.467-0.15-0.869-0.452-1.203c-0.301-0.335-0.685-0.502-1.153-0.502
			c-0.289,0-0.534,0.051-0.735,0.15c-0.2,0.101-0.367,0.218-0.501,0.352s-0.24,0.278-0.317,0.435
			c-0.079,0.156-0.14,0.278-0.185,0.368h-3.008V13.099h9.761V16.309z"/>
	</g>
</g>
</svg>
