<?xml version="1.0" encoding="utf-8"?>
<!-- Generator: Adobe Illustrator 16.0.0, SVG Export Plug-In . SVG Version: 6.00 Build 0)  -->
<!DOCTYPE svg PUBLIC "-//W3C//DTD SVG 1.1//EN" "http://www.w3.org/Graphics/SVG/1.1/DTD/svg11.dtd">
<svg version="1.1" id="Layer_1" xmlns="http://www.w3.org/2000/svg" xmlns:xlink="http://www.w3.org/1999/xlink" x="0px" y="0px"
	 width="144.453px" height="50px" viewBox="0 0 144.453 50" enable-background="new 0 0 144.453 50" xml:space="preserve">
<path fill="#1EADE4" d="M8.909,15.205H2.154V49.5h9.802V19.509C11.928,15.694,9.603,15.253,8.909,15.205"/>
<g>
	<defs>
		<path id="SVGID_57_" d="M2.154,0.531v6.618c0.014,0.543,0.299,3.142,4.38,3.142H16.87V49.5h9.786l0.006-1.729V10.332h13.712
			c5.045,0.016,17.096,0.329,20.892,3.915c4.855-0.823,9.523-2.646,9.509-5.952c0.451-7.008-20.48-7.783-28.429-7.794
			C42.267,0.5,42.118,0.5,41.906,0.5C37.251,0.5,2.154,0.531,2.154,0.531"/>
	</defs>
	<clipPath id="SVGID_2_">
		<use xlink:href="#SVGID_57_"  overflow="visible"/>
	</clipPath>
	
		<linearGradient id="SVGID_3_" gradientUnits="userSpaceOnUse" x1="-205.2407" y1="185.8936" x2="-204.3907" y2="185.8936" gradientTransform="matrix(80.7179 0 0 -80.7179 16568.8203 15029.9063)">
		<stop  offset="0" style="stop-color:#05ADE2"/>
		<stop  offset="0.183" style="stop-color:#0EA8DA"/>
		<stop  offset="0.3566" style="stop-color:#199DCA"/>
		<stop  offset="0.5266" style="stop-color:#208CB3"/>
		<stop  offset="0.6942" style="stop-color:#237796"/>
		<stop  offset="0.8586" style="stop-color:#215E76"/>
		<stop  offset="1" style="stop-color:#1B4759"/>
	</linearGradient>
	<rect x="2.154" y="0.5" clip-path="url(#SVGID_2_)" fill="url(#SVGID_3_)" width="69.071" height="49"/>
</g>
<g>
	<defs>
		<path id="SVGID_60_" d="M63.092,13.888c-0.72,0.175-2.253,0.458-2.395,0.481c-0.002,0.002-0.003,0.002-0.006,0.002
			c-3.789,0.641-7.731,0.803-10.025,0.837H31.575v6.669c0.021,0.576,0.338,3.072,4.263,3.123h5.507v24.5h9.803V25.165l1.633-0.001
			c6.384-0.071,17.969-0.897,17.964-5.98c-0.003-5.199-0.004-8.854-0.004-10.4C70.29,11.406,66.981,12.942,63.092,13.888"/>
	</defs>
	<clipPath id="SVGID_5_">
		<use xlink:href="#SVGID_60_"  overflow="visible"/>
	</clipPath>
	
		<linearGradient id="SVGID_6_" gradientUnits="userSpaceOnUse" x1="-206.4492" y1="180.6689" x2="-205.5991" y2="180.6689" gradientTransform="matrix(46.0696 0 0 -46.0696 9542.6064 8352.4307)">
		<stop  offset="0" style="stop-color:#05ADE2"/>
		<stop  offset="1" style="stop-color:#0BAFCC"/>
	</linearGradient>
	<rect x="31.575" y="8.783" clip-path="url(#SVGID_5_)" fill="url(#SVGID_6_)" width="39.174" height="40.717"/>
</g>
<g>
	<g>
		<g>
			<defs>
				<path id="SVGID_63_" d="M82.271,7.605c-2.912,0-5.272,2.361-5.272,5.274v24.243c0,2.91,2.36,5.271,5.272,5.271h54.755
					c2.883,0,5.226-2.312,5.273-5.183V12.79c-0.048-2.871-2.391-5.185-5.273-5.185H82.271z"/>
			</defs>
			<clipPath id="SVGID_8_">
				<use xlink:href="#SVGID_63_"  overflow="visible"/>
			</clipPath>
			
				<linearGradient id="SVGID_9_" gradientUnits="userSpaceOnUse" x1="-205.4917" y1="185.4258" x2="-204.6411" y2="185.4258" gradientTransform="matrix(76.8052 0 0 -76.8052 15859.7998 14266.6533)">
				<stop  offset="0" style="stop-color:#0EB9CD"/>
				<stop  offset="1" style="stop-color:#05ADE2"/>
			</linearGradient>
			<rect x="76.998" y="7.605" clip-path="url(#SVGID_8_)" fill="url(#SVGID_9_)" width="65.301" height="34.789"/>
		</g>
		<g>
			<defs>
				<path id="SVGID_66_" d="M82.271,7.605c-2.912,0-5.272,2.361-5.272,5.274v24.243c0,2.91,2.36,5.271,5.272,5.271h54.755
					c2.912,0,5.273-2.361,5.273-5.271V12.88c0-2.913-2.361-5.274-5.273-5.274H82.271z"/>
			</defs>
			<clipPath id="SVGID_11_">
				<use xlink:href="#SVGID_66_"  overflow="visible"/>
			</clipPath>
			<g opacity="0.75" clip-path="url(#SVGID_11_)">
				<g>
					<defs>
						<rect id="SVGID_68_" x="59.189" y="-22.252" width="116.085" height="91.445"/>
					</defs>
					<clipPath id="SVGID_13_">
						<use xlink:href="#SVGID_68_"  overflow="visible"/>
					</clipPath>
					<g clip-path="url(#SVGID_13_)">
						<defs>
							<rect id="SVGID_70_" x="59.189" y="-22.252" width="116.085" height="91.445"/>
						</defs>
						<clipPath id="SVGID_15_">
							<use xlink:href="#SVGID_70_"  overflow="visible"/>
						</clipPath>
						<g opacity="0.3" clip-path="url(#SVGID_15_)">
							<g>
								<defs>
									<rect id="SVGID_72_" x="59.189" y="9.497" width="116.085" height="55.64"/>
								</defs>
								<clipPath id="SVGID_17_">
									<use xlink:href="#SVGID_72_"  overflow="visible"/>
								</clipPath>
								<g clip-path="url(#SVGID_17_)">
									<defs>
										<rect id="SVGID_74_" x="59.189" y="9.497" width="116.085" height="55.64"/>
									</defs>
									<clipPath id="SVGID_19_">
										<use xlink:href="#SVGID_74_"  overflow="visible"/>
									</clipPath>
									<path clip-path="url(#SVGID_19_)" fill="#5BC7D4" d="M59.629,55.227c0.073,0.366,0.432,0.604,0.799,0.531
										c0.073-0.014,0.143-0.042,0.206-0.076l5.243,7.333c-0.16,0.154-0.241,0.385-0.194,0.621
										c0.073,0.366,0.431,0.605,0.799,0.531c0.275-0.055,0.478-0.27,0.532-0.528l15.693,0.882
										c0.002,0.021,0.005,0.047,0.011,0.069c0.072,0.369,0.431,0.606,0.799,0.533c0.366-0.073,0.605-0.432,0.531-0.799
										c-0.01-0.046-0.022-0.091-0.039-0.133l7.454-4.552c0.154,0.185,0.401,0.281,0.653,0.229
										c0.369-0.073,0.607-0.432,0.533-0.797c-0.03-0.149-0.108-0.277-0.213-0.372l5.293-8.006c0.126,0.06,0.272,0.081,0.42,0.051
										c0.161-0.032,0.297-0.119,0.394-0.236l19.49,11.565c-0.049,0.12-0.065,0.254-0.038,0.389
										c0.073,0.369,0.432,0.606,0.799,0.533c0.368-0.075,0.606-0.432,0.532-0.799c-0.019-0.095-0.056-0.18-0.106-0.252
										l19.968-18.731c0.114,0.306,0.437,0.493,0.767,0.425c0.367-0.073,0.606-0.43,0.532-0.798
										c-0.004-0.021-0.009-0.042-0.016-0.062l9.124-4.28c0.147,0.221,0.421,0.345,0.699,0.289
										c0.334-0.068,0.561-0.368,0.544-0.699l12.503-2.502c0.112,0.313,0.438,0.503,0.772,0.437
										c0.197-0.04,0.357-0.161,0.452-0.322l9.368,3.75c-0.021,0.089-0.022,0.186-0.003,0.282
										c0.073,0.366,0.431,0.605,0.798,0.532c0.368-0.073,0.606-0.432,0.533-0.8c-0.067-0.336-0.373-0.563-0.705-0.541
										l-3.948-21.01c0.315-0.11,0.512-0.438,0.444-0.776c-0.074-0.366-0.433-0.604-0.8-0.531
										c-0.132,0.027-0.246,0.09-0.336,0.177l-8.125-6.276c0.076-0.137,0.106-0.3,0.073-0.464
										c-0.073-0.369-0.431-0.606-0.798-0.533c-0.368,0.073-0.605,0.432-0.533,0.799c0.022,0.105,0.068,0.204,0.13,0.283
										l-5.865,6.15c-0.146-0.104-0.334-0.149-0.523-0.112c-0.201,0.041-0.361,0.165-0.456,0.331l-6.816-2.45
										c0.012-0.076,0.012-0.155-0.005-0.235c-0.073-0.368-0.432-0.606-0.799-0.533s-0.605,0.432-0.532,0.799l0.001,0.003
										l-0.028-0.1l-21.408,5.926c-0.126-0.284-0.435-0.454-0.752-0.391c-0.157,0.031-0.29,0.114-0.386,0.229l-7.911-4.878
										c0.053-0.122,0.07-0.261,0.042-0.401c-0.073-0.368-0.431-0.605-0.799-0.532c-0.367,0.074-0.605,0.431-0.532,0.799
										c0.026,0.131,0.089,0.242,0.173,0.333l-8.655,11.047c-0.138-0.078-0.303-0.109-0.469-0.076
										c-0.367,0.073-0.606,0.43-0.533,0.799c0.028,0.14,0.098,0.261,0.193,0.353l-5.025,6.974
										c-0.132-0.068-0.287-0.093-0.444-0.062c-0.367,0.073-0.605,0.431-0.532,0.797c0.005,0.027,0.013,0.054,0.021,0.077
										l-13.969,7.286c-0.153-0.2-0.41-0.308-0.673-0.256c-0.195,0.038-0.353,0.159-0.448,0.317l-10.063-3.967
										c0.024-0.095,0.028-0.196,0.008-0.299c-0.073-0.367-0.432-0.605-0.798-0.532c-0.358,0.072-0.593,0.412-0.537,0.77
										l-11.729,4.927c-0.151-0.205-0.412-0.315-0.678-0.263c-0.368,0.073-0.606,0.431-0.532,0.799
										c0.055,0.272,0.265,0.474,0.52,0.528l0.43,9.681C59.79,54.507,59.556,54.861,59.629,55.227 M60.533,43.954
										c-0.005-0.033-0.017-0.064-0.026-0.095l10.592-4.448l1.102-0.463c0.019,0.036,0.038,0.07,0.062,0.103l-7.676,10.117
										l-4.215-4.627C60.51,44.386,60.577,44.172,60.533,43.954 M123.745,21.312c0.088-0.018,0.168-0.053,0.238-0.098l6.451,7.261
										l-6.896-5.881l0.114-1.271C123.684,21.32,123.714,21.318,123.745,21.312 M146.797,14.904l4.732,4.303l-3.987,2.945
										c-0.114-0.116-0.27-0.188-0.436-0.197l-0.563-6.901C146.64,15.021,146.726,14.971,146.797,14.904 M161.333,10.842
										c0.133-0.026,0.247-0.089,0.338-0.177l8.124,6.277c-0.04,0.071-0.067,0.149-0.079,0.231l-9.479,0.014l0.962-6.332
										C161.243,10.855,161.288,10.851,161.333,10.842 M83.737,63.878c-0.142-0.085-0.313-0.121-0.487-0.086
										c-0.152,0.031-0.282,0.109-0.377,0.219L71.912,56.96c0.015-0.031,0.026-0.064,0.035-0.098l16.022,1.954L83.737,63.878z
										 M72.557,39.281l-1.31,16.724c-0.028,0.002-0.058,0.005-0.087,0.012c-0.09,0.019-0.172,0.053-0.244,0.102l-6.192-6.799
										l7.679-10.125C72.45,39.229,72.502,39.26,72.557,39.281 M70.818,57.167l-1.145,1.58l-8.584-3.509l9.525,1.441
										c0,0.046,0.004,0.091,0.013,0.136C70.656,56.955,70.725,57.074,70.818,57.167 M70.981,57.284
										c0.132,0.067,0.287,0.096,0.444,0.063c0.154-0.029,0.283-0.109,0.378-0.218l10.614,6.827l-12.555-5.131L70.981,57.284z
										 M72.826,56.769l9.209-0.081l7.316-0.063c0.001,0.009,0.002,0.017,0.004,0.027c0.024,0.122,0.081,0.23,0.158,0.316
										l-1.392,1.664L72.826,56.769z M89.667,57.096c0.141,0.087,0.313,0.121,0.486,0.087c0.065-0.012,0.127-0.035,0.183-0.063
										l1.171,1.603c-0.084,0.083-0.146,0.188-0.177,0.303l-2.972-0.362L89.667,57.096z M91.851,58.539
										c-0.065,0.012-0.126,0.035-0.182,0.064L90.497,57c0.157-0.153,0.236-0.384,0.189-0.614c-0.015-0.077-0.043-0.146-0.08-0.21
										l6.949-5.598c0.002,0.002,0.005,0.004,0.007,0.005l-5.292,8.006C92.144,58.531,91.998,58.509,91.851,58.539
										 M105.703,27.422l6.197,1.525l-1.636,8.88c-0.052,0-0.104,0.001-0.157,0.011c-0.018,0.006-0.036,0.011-0.054,0.016
										l-4.609-10.12C105.561,27.659,105.65,27.55,105.703,27.422 M170.068,17.872l-4.755,13.424l-5.903-5.204
										c0.094-0.145,0.133-0.321,0.097-0.503c-0.014-0.065-0.035-0.125-0.065-0.184l10.462-7.655
										C169.953,17.799,170.008,17.84,170.068,17.872 M174.006,39.265l-9.366-3.749c0.021-0.094,0.024-0.191,0.006-0.29
										c-0.042-0.208-0.175-0.375-0.348-0.468l1.104-3.117l8.619,7.601C174.016,39.248,174.011,39.257,174.006,39.265
										 M156.311,29.464l2.194-3.151c0.138,0.076,0.302,0.107,0.47,0.074c0.033-0.005,0.063-0.015,0.094-0.026l4.508,8.454
										c-0.026,0.019-0.051,0.038-0.072,0.061L156.311,29.464z M150.462,37.515c-0.102-0.05-0.217-0.075-0.336-0.07l-2.835-14.176
										c0.095-0.033,0.178-0.087,0.247-0.154l8.499,6.393L150.462,37.515z M139.382,42.456c-0.023,0.021-0.046,0.044-0.066,0.066
										l-11.142-7.299l3.07-5.097c0.11,0.039,0.233,0.05,0.357,0.024c0.041-0.008,0.08-0.019,0.117-0.035l6.066,9.768
										L139.382,42.456z M98.572,49.691l8.01-7.584l8.392,7.681c-0.056,0.083-0.093,0.176-0.107,0.276l-16.179-0.081
										c-0.002-0.012-0.004-0.024-0.006-0.038C98.662,49.852,98.624,49.765,98.572,49.691 M130.857,29.781
										c0.048,0.102,0.121,0.188,0.21,0.252l-3.061,5.08l-4.845-3.174c0.12-0.136,0.186-0.321,0.167-0.513L130.857,29.781z
										 M163.847,34.693c-0.033,0.006-0.064,0.015-0.094,0.026l-4.505-8.455c0.012-0.009,0.021-0.016,0.03-0.023l5.963,5.257
										l-1.131,3.194C164.025,34.675,163.937,34.675,163.847,34.693 M115.402,49.501c-0.018,0.005-0.035,0.01-0.053,0.015
										l-4.633-10.204l-0.108-0.237c0.141-0.09,0.242-0.229,0.286-0.391l8.374,1.008l-3.596,9.811
										C115.586,49.484,115.495,49.482,115.402,49.501 M110.918,38.486c-0.001-0.038-0.004-0.076-0.012-0.115
										c-0.007-0.04-0.02-0.078-0.034-0.114l2.694-1.55l8.497-4.883c0.017,0.029,0.036,0.058,0.057,0.086l-2.781,7.589
										L110.918,38.486z M122.279,32.057c0.05,0.033,0.104,0.06,0.161,0.077l1.278,4.224l1.006,3.324
										c-0.177,0.084-0.308,0.237-0.361,0.422l-4.82-0.58L122.279,32.057z M125.265,39.667c-0.107-0.044-0.227-0.061-0.349-0.042
										l-1.011-3.341l-1.245-4.115c0.042-0.002,0.084-0.005,0.126-0.013c0.078-0.016,0.149-0.045,0.215-0.083l4.903,3.211
										L125.265,39.667z M110.374,39.17c0.018-0.003,0.036-0.008,0.054-0.013l4.74,10.439c-0.021,0.015-0.041,0.028-0.06,0.044
										l-8.382-7.669l3.096-2.933C109.974,39.157,110.172,39.21,110.374,39.17 M115.861,49.571l3.611-9.856l4.862,0.586
										c0.001,0.042,0.004,0.085,0.013,0.128c0.021,0.102,0.063,0.194,0.122,0.272l-8.542,8.913
										C115.905,49.599,115.884,49.585,115.861,49.571 M125.438,39.767l2.634-4.373l11.134,7.295
										c-0.01,0.023-0.019,0.045-0.026,0.066l-13.487-2.45c0.001-0.047-0.003-0.095-0.013-0.142
										C125.646,39.999,125.557,39.862,125.438,39.767 M147.657,22.954c0.012-0.018,0.021-0.038,0.028-0.056l10.481,2.75
										c-0.008,0.067-0.005,0.138,0.009,0.207c0.025,0.13,0.088,0.242,0.172,0.332l-2.198,3.156L147.657,22.954z M130.798,29.59
										l-7.517,1.645c-0.083-0.206-0.261-0.353-0.469-0.403l0.706-7.994l7.375,6.291C130.811,29.262,130.772,29.423,130.798,29.59
										 M122.613,30.814c-0.031,0.001-0.062,0.005-0.093,0.01c-0.025,0.006-0.051,0.013-0.074,0.021l-7.5-15.225
										c0.02-0.015,0.039-0.031,0.059-0.047l8.328,7.103L122.613,30.814z M121.991,31.635l-11.219,6.449
										c-0.08-0.103-0.188-0.18-0.312-0.221l1.633-8.868l9.884,2.432c-0.006,0.064-0.003,0.13,0.011,0.197
										C121.989,31.628,121.99,31.631,121.991,31.635 M109.686,38.893l-3.106,2.942l-6.772-6.197
										c0.023-0.033,0.046-0.067,0.064-0.104l9.698,2.877c-0.011,0.074-0.009,0.15,0.006,0.229
										C109.595,38.733,109.633,38.819,109.686,38.893 M99.398,35.894c0.1-0.02,0.188-0.061,0.266-0.116l6.77,6.195l-7.999,7.573
										c-0.077-0.061-0.168-0.104-0.265-0.127l1.096-13.512C99.311,35.906,99.354,35.902,99.398,35.894 M98.687,50.183
										l16.179,0.08c0.002,0.014,0.003,0.025,0.005,0.036c0.07,0.35,0.392,0.578,0.736,0.544l2.791,10.861
										c-0.104,0.045-0.193,0.113-0.263,0.197L98.644,50.336C98.664,50.288,98.678,50.236,98.687,50.183 M118.591,61.656
										L115.8,50.793c0.28-0.118,0.452-0.414,0.406-0.722l6.44-1.926l-3.896,13.512C118.699,61.651,118.645,61.649,118.591,61.656
										 M116.149,49.879c-0.021-0.045-0.047-0.088-0.077-0.127l8.54-8.909c0.037,0.027,0.077,0.05,0.119,0.069l-2.02,7.006
										L116.149,49.879z M124.924,40.968c0.073,0.011,0.147,0.009,0.223-0.007c0.251-0.051,0.441-0.231,0.514-0.46l13.483,2.451
										c-0.001,0.018,0,0.036,0,0.054L122.94,47.85L124.924,40.968z M139.688,42.309c-0.047,0.009-0.093,0.023-0.135,0.042
										l-6.509-10.479l-1.152-1.855c0.044-0.035,0.084-0.076,0.117-0.121l10.624,4.881l-2.681,7.531
										C139.867,42.29,139.778,42.29,139.688,42.309 M132.104,29.72c0.041-0.111,0.054-0.233,0.03-0.358l14.354-6.367
										c0.063,0.1,0.151,0.182,0.254,0.236L142.7,34.587L132.104,29.72z M146.931,23.298c0.053,0.009,0.108,0.014,0.164,0.011
										l2.836,14.176c-0.143,0.052-0.26,0.146-0.339,0.268l-6.71-3.082L146.931,23.298z M150.625,37.629l5.57-8.001l7.188,5.405
										c-0.059,0.108-0.088,0.231-0.082,0.359l-12.504,2.501C150.762,37.79,150.701,37.7,150.625,37.629 M174.149,39.089
										l-8.676-7.65l4.783-13.499c0.051,0.01,0.103,0.014,0.156,0.012l3.947,21.013C174.282,38.994,174.211,39.035,174.149,39.089
										 M169.716,17.374c0.002,0.011,0.003,0.021,0.005,0.032c0.013,0.065,0.036,0.127,0.065,0.183l-10.462,7.656
										c-0.079-0.079-0.176-0.139-0.283-0.172l1.167-7.685L169.716,17.374z M158.844,25.044c-0.044,0-0.09,0.003-0.136,0.013
										c-0.005,0.001-0.009,0.003-0.014,0.004l-3.91-7.199c0.159-0.105,0.268-0.275,0.296-0.467l4.925-0.006L158.844,25.044z
										 M154.542,17.963c0.021-0.005,0.041-0.01,0.062-0.016l3.902,7.186c-0.033,0.019-0.064,0.04-0.094,0.064l-6.569-5.974
										l2.035-1.503C154.032,17.912,154.284,18.015,154.542,17.963 M158.277,25.345c-0.016,0.024-0.031,0.051-0.044,0.079
										l-10.498-2.722c0.009-0.066,0.006-0.135-0.009-0.204c-0.013-0.066-0.036-0.128-0.066-0.187l4.02-2.967L158.277,25.345z
										 M145.96,14.978c0.112,0.072,0.245,0.112,0.385,0.109l0.563,6.883c-0.355,0.084-0.583,0.435-0.511,0.795
										c0.003,0.016,0.008,0.031,0.012,0.047l-3.771,1.673l-10.568,4.688c-0.011-0.02-0.021-0.037-0.032-0.055L145.96,14.978z
										 M123.454,21.306l-0.1,1.128l-7.744-6.606l7.378,4.552c-0.053,0.123-0.07,0.26-0.041,0.4
										C123.001,21.047,123.205,21.246,123.454,21.306 M114.692,15.728c0.024-0.005,0.049-0.01,0.074-0.019l7.501,15.223
										c-0.108,0.076-0.192,0.182-0.242,0.303l-9.895-2.437l2.405-13.057C114.587,15.742,114.64,15.739,114.692,15.728
										 M114.34,15.704l-2.403,13.047l-6.187-1.522c0.006-0.064,0.004-0.131-0.01-0.197c-0.025-0.13-0.088-0.242-0.173-0.332
										l8.657-11.046C114.261,15.674,114.299,15.691,114.34,15.704 M105.208,27.831c0.02-0.004,0.037-0.009,0.055-0.014
										l4.609,10.117c-0.107,0.071-0.192,0.169-0.245,0.284l-9.692-2.873c0.014-0.081,0.014-0.166-0.004-0.251
										c-0.027-0.14-0.097-0.261-0.191-0.352l5.024-6.977C104.896,27.837,105.052,27.862,105.208,27.831 M99.054,35.873
										c0.005,0.001,0.011,0.003,0.015,0.004l-1.098,13.526c-0.029,0.002-0.059,0.006-0.088,0.011
										c-0.178,0.035-0.325,0.138-0.422,0.277l-3.601-1.804L99.054,35.873z M97.371,49.869c-0.035,0.108-0.044,0.225-0.021,0.344
										c0.016,0.076,0.043,0.146,0.079,0.21L90.48,56.02c-0.031-0.027-0.066-0.055-0.102-0.077l3.401-7.872L97.371,49.869z
										 M90.195,55.862c-0.099-0.026-0.202-0.031-0.308-0.01c-0.016,0.003-0.03,0.007-0.047,0.012l-4.215-9.556l-1.149-2.602
										c0.079-0.052,0.146-0.117,0.198-0.192l8.927,4.468L90.195,55.862z M84.245,43.8c0.018-0.004,0.033-0.009,0.05-0.014
										l1.123,2.548l4.24,9.609c-0.011,0.009-0.022,0.016-0.032,0.023l-8.863-9.16l2.952-3.125
										C83.861,43.79,84.053,43.838,84.245,43.8 M89.482,56.106c-0.07,0.091-0.117,0.201-0.134,0.318l-5.553,0.047l-11.832,0.104
										c-0.002-0.01-0.004-0.019-0.006-0.026c-0.021-0.109-0.066-0.206-0.131-0.287l8.798-9.312L89.482,56.106z M71.682,56.126
										c-0.07-0.05-0.15-0.086-0.236-0.104l1.309-16.693c0.063,0.007,0.125,0.003,0.19-0.01c0.078-0.016,0.15-0.045,0.214-0.083
										l7.328,7.572L71.682,56.126z M70.768,56.253c-0.056,0.067-0.097,0.146-0.123,0.23l-9.676-1.467
										c-0.003-0.018-0.005-0.038-0.009-0.056c-0.031-0.156-0.112-0.288-0.225-0.383l3.866-5.098L70.768,56.253z M60.789,55.557
										c0.05-0.053,0.089-0.113,0.12-0.176l8.644,3.532l-2.892,3.986c-0.133-0.067-0.288-0.096-0.446-0.063
										c-0.063,0.012-0.121,0.033-0.176,0.062L60.789,55.557z M67.024,63.439c-0.003-0.024-0.006-0.047-0.011-0.071
										c-0.027-0.14-0.097-0.259-0.191-0.353l2.921-4.026l12.98,5.307c-0.001,0.007-0.004,0.017-0.006,0.025L67.024,63.439z
										 M83.904,64.022c-0.005-0.007-0.011-0.01-0.015-0.017l4.316-5.163l3.1,0.381c0.002,0.036,0.005,0.074,0.013,0.112
										c0.009,0.049,0.023,0.092,0.041,0.133L83.904,64.022z M119.082,61.799c-0.044-0.033-0.09-0.062-0.139-0.086l3.931-13.636
										l15.904-4.754L119.082,61.799z M140.386,42.599c-0.062-0.094-0.146-0.171-0.245-0.224l2.675-7.516l6.693,3.073
										c-0.029,0.104-0.036,0.213-0.014,0.322c0.004,0.021,0.009,0.042,0.016,0.063L140.386,42.599z M160.81,10.729
										c0.058,0.041,0.122,0.074,0.19,0.096l-0.964,6.364l-4.957,0.007c-0.002-0.011-0.003-0.022-0.005-0.032
										c-0.021-0.107-0.067-0.204-0.131-0.284L160.81,10.729z M153.747,17.147c-0.021,0.09-0.023,0.186-0.004,0.282
										c0.008,0.04,0.021,0.08,0.034,0.117l-2.084,1.54l-4.773-4.341c0.009-0.015,0.017-0.028,0.022-0.043L153.747,17.147z
										 M145.69,14.627c0.027,0.081,0.068,0.153,0.12,0.216l-13.905,14.126c-0.152-0.129-0.36-0.189-0.569-0.147
										c-0.088,0.017-0.168,0.052-0.238,0.098l-6.966-7.838c0.118-0.141,0.178-0.327,0.154-0.518l21.408-5.925L145.69,14.627z
										 M98.71,35.616c0.045,0.065,0.101,0.121,0.166,0.166l-5.194,12.017l-8.921-4.464c0.032-0.105,0.04-0.22,0.017-0.334
										c-0.007-0.036-0.017-0.069-0.03-0.103L98.71,35.616z M83.455,42.968c-0.024,0.096-0.029,0.197-0.008,0.299
										c0.02,0.104,0.064,0.197,0.124,0.275l-2.948,3.121l-7.31-7.556c0.03-0.032,0.056-0.066,0.079-0.105L83.455,42.968z
										 M60.001,44.752c0.078-0.016,0.15-0.046,0.216-0.084l4.247,4.663l-3.897,5.14c-0.067-0.03-0.14-0.047-0.214-0.055
										l-0.429-9.653C59.948,44.761,59.975,44.757,60.001,44.752"/>
								</g>
							</g>
						</g>
						<g opacity="0.1" clip-path="url(#SVGID_15_)">
							<g>
								<defs>
									<rect id="SVGID_76_" x="71.155" y="-3.423" width="81.942" height="53.112"/>
								</defs>
								<clipPath id="SVGID_21_">
									<use xlink:href="#SVGID_76_"  overflow="visible"/>
								</clipPath>
								<g clip-path="url(#SVGID_21_)">
									<defs>
										<rect id="SVGID_78_" x="71.155" y="-3.423" width="81.942" height="53.112"/>
									</defs>
									<clipPath id="SVGID_23_">
										<use xlink:href="#SVGID_78_"  overflow="visible"/>
									</clipPath>
									<path clip-path="url(#SVGID_23_)" fill="#5BC7D4" d="M151.782,3.072l-4.368-5.688c0.119-0.152,0.142-0.367,0.044-0.548
										c-0.134-0.242-0.439-0.331-0.683-0.197c-0.177,0.096-0.271,0.283-0.26,0.472l-8.988,2.796
										c-0.139-0.229-0.434-0.311-0.671-0.18c-0.242,0.133-0.331,0.438-0.197,0.683c0.037,0.066,0.088,0.121,0.146,0.165
										l-3.811,7.039c-0.127-0.045-0.273-0.038-0.403,0.033c-0.174,0.096-0.269,0.278-0.259,0.465l-11.383,2.528
										c-0.006-0.018-0.015-0.036-0.023-0.053c-0.134-0.244-0.439-0.332-0.683-0.199c-0.104,0.057-0.18,0.146-0.222,0.248
										l-6.168-1.557c0.011-0.096-0.007-0.199-0.059-0.292c-0.133-0.242-0.438-0.332-0.682-0.197
										c-0.11,0.061-0.188,0.156-0.229,0.266l-10.163-2.133c0.005-0.09-0.015-0.184-0.061-0.271
										c-0.134-0.243-0.438-0.332-0.682-0.197c-0.244,0.132-0.333,0.437-0.199,0.681c0.051,0.092,0.127,0.163,0.214,0.206
										l-2.156,6.531c-0.107-0.019-0.224-0.002-0.327,0.055c-0.21,0.114-0.304,0.358-0.24,0.579l-14.945,6.842l0.031,0.069
										l-0.001-0.001c-0.133-0.244-0.438-0.332-0.682-0.198c-0.243,0.133-0.331,0.438-0.199,0.682
										c0.03,0.053,0.067,0.099,0.111,0.136l-2.695,4.634c-0.13-0.049-0.281-0.042-0.414,0.031
										c-0.126,0.067-0.21,0.183-0.244,0.312l-6.251-0.688c-0.004-0.075-0.022-0.151-0.061-0.222
										c-0.134-0.244-0.44-0.333-0.683-0.199c-0.243,0.133-0.332,0.438-0.199,0.682c0.062,0.109,0.155,0.188,0.263,0.228
										l-1.61,7.424c-0.093-0.005-0.188,0.014-0.275,0.062c-0.243,0.134-0.332,0.438-0.199,0.681
										c0.123,0.225,0.389,0.317,0.62,0.229l7.771,13.778c-0.196,0.146-0.262,0.421-0.14,0.643
										c0.134,0.244,0.438,0.333,0.683,0.198c0.242-0.132,0.332-0.438,0.198-0.681c-0.035-0.065-0.082-0.116-0.138-0.158
										l3.521-6.587c0.13,0.048,0.279,0.039,0.41-0.032c0.221-0.121,0.314-0.384,0.229-0.614l8.271-4.54
										c0.147,0.195,0.42,0.258,0.641,0.136c0.186-0.1,0.28-0.299,0.259-0.496l7.206-1.921c0.006,0.013,0.013,0.028,0.021,0.041
										c0.133,0.244,0.438,0.332,0.682,0.199c0.219-0.119,0.313-0.377,0.23-0.605l20.23,1.094c0.007,0.066,0.025,0.133,0.06,0.196
										c0.134,0.243,0.438,0.332,0.682,0.198c0.244-0.134,0.333-0.439,0.199-0.682c-0.049-0.091-0.122-0.158-0.206-0.203
										l5.527-15.834c0.11,0.021,0.23,0.006,0.337-0.054c0.097-0.053,0.169-0.135,0.213-0.228l6.811,2.013
										c-0.015,0.103,0.002,0.212,0.057,0.311c0.132,0.244,0.438,0.333,0.682,0.199c0.166-0.092,0.261-0.265,0.26-0.442
										l6.392-0.973c0.01,0.032,0.022,0.063,0.04,0.094c0.132,0.243,0.438,0.333,0.681,0.198c0.244-0.133,0.332-0.438,0.199-0.681
										c-0.009-0.017-0.018-0.031-0.027-0.046l8.468-7.974c0.153,0.12,0.37,0.146,0.552,0.046c0.243-0.135,0.333-0.44,0.199-0.682
										c-0.085-0.157-0.24-0.249-0.405-0.261l-0.523-6.65c0.053-0.01,0.104-0.026,0.152-0.053
										c0.244-0.135,0.332-0.439,0.199-0.683C152.325,3.032,152.024,2.942,151.782,3.072 M146.948-2.423l-0.183,4.628L137.6,0.13
										c-0.003-0.028-0.008-0.059-0.015-0.086l0.845-0.263l8.117-2.526c0.008,0.022,0.018,0.044,0.03,0.066
										C146.655-2.534,146.797-2.445,146.948-2.423 M100.052,14.571l0.67,0.665l-1.104,6.615l0.195-7.185
										c0.061-0.007,0.123-0.026,0.182-0.058C100.015,14.597,100.034,14.584,100.052,14.571 M84.104,21.925l2.968,4.175
										c-0.09,0.086-0.143,0.201-0.151,0.32l-3.662,0.231l0.63-4.691C83.96,21.963,84.033,21.953,84.104,21.925 M73.804,26.528
										l3.562,3.128l-5.374,4.507c-0.047-0.04-0.1-0.072-0.155-0.095l1.61-7.423c0.092,0.006,0.188-0.013,0.274-0.061
										C73.751,26.568,73.779,26.549,73.804,26.528 M138.118,18.807l8.144-8.738c0.021,0.015,0.043,0.026,0.067,0.038l-2.85,9.214
										c-0.105-0.016-0.217,0-0.317,0.056c-0.115,0.063-0.195,0.164-0.233,0.28L138.118,18.807z M137.588,0.279l9.172,2.076
										l-0.268,6.8c-0.065,0.007-0.127,0.026-0.188,0.058c-0.02,0.012-0.037,0.023-0.055,0.035l-8.707-8.845
										C137.563,0.364,137.579,0.322,137.588,0.279 M146.986,9.412c-0.017-0.029-0.035-0.058-0.057-0.082l4.707-5.354l-3.19,6.075
										l-1.4-0.349C147.055,9.605,147.037,9.505,146.986,9.412 M148.376,10.187l-4.665,8.886l2.76-8.922
										c0.105,0.016,0.217,0,0.316-0.056c0.105-0.057,0.182-0.147,0.223-0.249L148.376,10.187z M137.945,18.774l-1.581-0.278
										c0.002-0.087-0.017-0.175-0.061-0.256c-0.004-0.007-0.009-0.012-0.012-0.018l4.174-3.448l5.253-4.341L137.945,18.774z
										 M137.825,18.904l-1.51,1.621c-0.073-0.05-0.157-0.08-0.245-0.088l-0.1-1.465c0.046-0.01,0.091-0.026,0.134-0.05
										c0.115-0.064,0.195-0.166,0.234-0.281L137.825,18.904z M135.575,20.726l-6.81-2.012c0,0,0-0.004,0-0.007l6.603-0.142
										c0.01,0.055,0.027,0.108,0.055,0.158c0.084,0.154,0.238,0.245,0.399,0.259l0.101,1.466c-0.045,0.01-0.091,0.025-0.134,0.05
										C135.69,20.552,135.618,20.633,135.575,20.726 M113.418,9.528l2.21,7.927c-0.013,0.005-0.026,0.011-0.038,0.018
										c-0.034,0.019-0.066,0.043-0.095,0.067l-5.155-4.249l2.783-3.815C113.212,9.522,113.316,9.541,113.418,9.528
										 M72.158,34.578l9.572-0.647c0.01,0.047,0.026,0.092,0.051,0.135c0.064,0.119,0.172,0.202,0.293,0.239l-0.863,5.759
										l-9.087-5.336C72.143,34.68,72.154,34.63,72.158,34.578 M80.063,48.71l1.262-8.409l2.109,1.24
										c-0.054,0.135-0.05,0.291,0.026,0.429c0.035,0.066,0.084,0.12,0.141,0.162l-3.518,6.585
										C80.077,48.715,80.07,48.712,80.063,48.71 M83.94,41.228c-0.023-0.002-0.047-0.002-0.069,0l-1.475-6.933
										c0.022-0.009,0.044-0.019,0.066-0.03c0.11-0.061,0.188-0.157,0.228-0.268l2.746,0.741L83.94,41.228z M85.612,34.632
										l1.768-7.669c0.071,0.006,0.145-0.005,0.214-0.029l5.146,9.379c-0.07,0.053-0.124,0.122-0.156,0.199L85.612,34.632z
										 M100.891,31.813l-1.216-8.42c0.027-0.011,0.056-0.022,0.082-0.035c0.081-0.047,0.146-0.11,0.189-0.186l4.167,1.424
										l-2.832,9.44c-0.023-0.003-0.046-0.005-0.07-0.007L100.891,31.813z M127.828,18.886c0.005,0.009,0.01,0.017,0.015,0.023
										l-9.124,7.753c-0.056-0.05-0.122-0.086-0.192-0.105l1.095-8.347l8.147,0.48C127.773,18.757,127.793,18.823,127.828,18.886
										 M105.048,20.139c0.082,0.117,0.206,0.19,0.34,0.211l-1.232,4.106l-4.153-1.42c0.021-0.08,0.021-0.163,0-0.243
										L105.048,20.139z M83.51,41.413l-2.162-1.27l0.872-5.817c0.01,0,0.02,0,0.028-0.002l1.478,6.935
										c-0.022,0.009-0.045,0.018-0.065,0.029C83.6,41.321,83.55,41.363,83.51,41.413 M117.994,26.729l-6.71-3.844l4.263-4.559
										c0.102,0.069,0.226,0.1,0.348,0.085l0.052,0.185l2.237,7.985c-0.012,0.006-0.025,0.012-0.037,0.019
										C118.085,26.633,118.034,26.676,117.994,26.729 M111.153,22.81l-5.19-2.974c-0.001-0.024-0.003-0.05-0.008-0.076
										l7.137-1.28l2.265-0.406c0.01,0.027,0.021,0.054,0.034,0.081c0.016,0.026,0.031,0.049,0.049,0.071L111.153,22.81z
										 M111.05,22.92l-2.453,2.625c-0.119-0.078-0.267-0.104-0.407-0.066l-1.014-2.362l-1.287-3
										c0.023-0.038,0.041-0.079,0.055-0.121L111.05,22.92z M104.296,24.502l1.245-4.153c0.056-0.009,0.109-0.027,0.162-0.056
										c0.028-0.015,0.054-0.033,0.078-0.053l1.255,2.924l1.019,2.373c-0.077,0.049-0.138,0.114-0.178,0.189L104.296,24.502z
										 M116.323,18.016l3.15,0.185l-1.094,8.336c-0.019,0.002-0.035,0.003-0.054,0.005l-2.289-8.17
										c0.013-0.006,0.023-0.012,0.036-0.018C116.207,18.28,116.294,18.154,116.323,18.016 M117.902,26.912l-9.082-0.979
										c-0.004-0.071-0.023-0.145-0.061-0.213c-0.016-0.027-0.034-0.053-0.054-0.078l2.476-2.646l6.74,3.86
										C117.914,26.875,117.907,26.894,117.902,26.912 M107.879,26.204c0.018,0.033,0.037,0.062,0.061,0.087l-6.471,7.813
										c-0.015-0.008-0.03-0.017-0.046-0.024l2.831-9.435l3.573,1.222C107.805,25.978,107.82,26.098,107.879,26.204 M85.47,34.594
										l-2.748-0.741c0.005-0.091-0.014-0.184-0.061-0.271c-0.025-0.046-0.058-0.086-0.094-0.121l4.625-6.551
										c0.016,0.008,0.028,0.013,0.043,0.02L85.47,34.594z M99.67,22.439l1.18-7.075l4.208,4.191
										c-0.095,0.128-0.124,0.295-0.073,0.451l-5.041,2.65C99.879,22.551,99.78,22.477,99.67,22.439 M100.879,15.187l1.332-7.99
										c0.02,0.001,0.037,0,0.057-0.002l3.004,12.195c-0.018,0.006-0.034,0.015-0.052,0.022c-0.02,0.012-0.04,0.025-0.057,0.039
										L100.879,15.187z M105.902,19.611c-0.024-0.044-0.055-0.083-0.089-0.116l4.438-6.084l5.15,4.243
										c-0.05,0.083-0.074,0.178-0.072,0.273l-9.425,1.69L105.902,19.611z M116.271,17.671c-0.027-0.051-0.064-0.095-0.105-0.132
										l4.124-6.248c0.026,0.011,0.056,0.021,0.085,0.027l-0.883,6.735l-3.16-0.186C116.327,17.801,116.307,17.733,116.271,17.671
										 M120.809,11.214l7.059,7.129c-0.045,0.061-0.076,0.128-0.09,0.199l-8.138-0.479l0.884-6.733
										c0.069-0.005,0.139-0.023,0.204-0.06C120.757,11.252,120.784,11.235,120.809,11.214 M128.034,19.089l-5.527,15.833
										c-0.08-0.015-0.162-0.011-0.243,0.015l-3.594-7.481c0.212-0.145,0.284-0.429,0.158-0.657
										c-0.004-0.008-0.009-0.016-0.014-0.024l9.124-7.751C127.968,19.047,128.001,19.071,128.034,19.089 M122.042,35.078
										l-8.643-5.795l4.563-1.979c0.122,0.196,0.36,0.282,0.575,0.216l3.594,7.48C122.098,35.021,122.067,35.05,122.042,35.078
										 M113.253,29.184l-4.48-3.006c0.015-0.03,0.026-0.063,0.033-0.096l9.081,0.978c0.002,0.036,0.008,0.073,0.017,0.109
										L113.253,29.184z M113.092,29.253l-11.483,4.977c-0.009-0.012-0.017-0.021-0.025-0.031l6.468-7.812
										c0.149,0.097,0.344,0.108,0.51,0.018c0.05-0.027,0.094-0.063,0.13-0.103L113.092,29.253z M100.817,34.218l-5.106-2.987
										l3.692-7.824c0.041,0.01,0.083,0.014,0.125,0.014l0.23,1.598l1.307,9.035c-0.033,0.01-0.065,0.022-0.098,0.041
										C100.909,34.126,100.858,34.169,100.817,34.218 M95.584,31.155l-7.699-4.505c0.032-0.081,0.044-0.167,0.032-0.255
										l11.161-3.231c0.046,0.082,0.111,0.145,0.188,0.189L95.584,31.155z M95.52,31.29l-2.33,4.94
										c-0.103-0.031-0.215-0.029-0.32,0.011l-5.146-9.379c0.033-0.025,0.063-0.054,0.088-0.085L95.52,31.29z M92.573,36.885
										l-8.272,4.54c-0.058-0.074-0.133-0.131-0.216-0.164l1.493-6.484l6.967,1.876C92.535,36.73,92.544,36.809,92.573,36.885
										 M79.74,48.716l-7.773-13.781c0.03-0.023,0.058-0.051,0.082-0.08l9.139,5.366l-1.269,8.466
										C79.857,48.685,79.798,48.695,79.74,48.716 M77.478,29.755l4.32,3.796c-0.045,0.071-0.071,0.151-0.078,0.232l-9.571,0.647
										c-0.011-0.045-0.026-0.091-0.051-0.134c-0.004-0.007-0.008-0.014-0.012-0.019L77.478,29.755z M77.591,29.659l2.794-2.343
										c0.106,0.095,0.249,0.14,0.389,0.125l1.215,5.938c-0.003,0.001-0.006,0.002-0.009,0.004
										c-0.031,0.016-0.058,0.036-0.083,0.058L77.591,29.659z M81.22,26.929l1.868-0.118l-0.874,6.511
										c-0.028,0-0.056,0.004-0.085,0.009l-1.213-5.928c0.016-0.006,0.029-0.014,0.043-0.021
										C81.13,27.289,81.224,27.11,81.22,26.929 M83.239,26.802l3.688-0.233c0.01,0.046,0.027,0.093,0.051,0.136
										c0.025,0.045,0.057,0.086,0.092,0.12l-4.647,6.54c-0.021-0.008-0.041-0.017-0.063-0.022L83.239,26.802z M99.017,22.979
										c0.003,0.015,0.005,0.03,0.008,0.045l-8.218,2.38l-2.931,0.848c-0.006-0.01-0.011-0.021-0.017-0.031
										c-0.13-0.238-0.427-0.329-0.668-0.205l-2.96-4.167c0.08-0.064,0.138-0.151,0.165-0.246L99.017,22.979z M100.192,13.927
										c-0.051-0.092-0.125-0.163-0.214-0.207l2.012-6.092l-1.24,7.431l-0.594-0.592C100.27,14.313,100.29,14.104,100.192,13.927
										 M102.557,7.067l7.582,6.249l-4.444,6.091c-0.085-0.043-0.183-0.063-0.279-0.054l-3.004-12.194
										c0.017-0.007,0.034-0.015,0.051-0.024C102.496,7.116,102.528,7.093,102.557,7.067 M102.69,6.868l10.165,2.133
										c-0.006,0.091,0.013,0.186,0.06,0.271c0.024,0.045,0.054,0.083,0.088,0.116l-2.777,3.81l-7.574-6.244
										C102.667,6.927,102.681,6.898,102.69,6.868 M113.819,9.224l6.167,1.556c-0.01,0.098,0.008,0.199,0.06,0.292
										c0.031,0.055,0.071,0.104,0.117,0.142l-4.119,6.245c-0.086-0.04-0.18-0.055-0.274-0.043l-2.209-7.926
										c0.012-0.007,0.023-0.011,0.037-0.019C113.701,9.414,113.777,9.325,113.819,9.224 M129.578,15.424l-1.182,2.735
										c-0.119-0.032-0.252-0.021-0.369,0.044c-0.02,0.012-0.038,0.023-0.056,0.037l-7.064-7.138
										c0.002-0.003,0.004-0.006,0.006-0.009L129.578,15.424z M129.711,15.49l5.675,2.836c-0.011,0.03-0.018,0.061-0.021,0.092
										l-6.603,0.143c-0.008-0.054-0.026-0.107-0.054-0.157c-0.043-0.079-0.105-0.142-0.176-0.186L129.711,15.49z M129.77,15.354
										l2.927-6.784c0.066,0.02,0.135,0.025,0.203,0.016l0.59,2.021l2.163,7.419c-0.01,0.005-0.021,0.01-0.031,0.016
										c-0.07,0.038-0.126,0.09-0.169,0.153L129.77,15.354z M133.319,8.209l3.161,0.363l-0.657,9.41c-0.01,0-0.019,0-0.028,0.002
										l-2.177-7.463l-0.577-1.977c0.012-0.006,0.022-0.011,0.034-0.018C133.203,8.458,133.288,8.341,133.319,8.209 M136.626,8.59
										l9.419,1.082c0.002,0.076,0.021,0.152,0.061,0.225c0.003,0.006,0.008,0.011,0.011,0.018l-6.75,5.577l-3.167,2.618
										c-0.066-0.059-0.144-0.099-0.229-0.118L136.626,8.59z M136.637,8.441l0.542-7.778c0.056-0.01,0.109-0.026,0.162-0.055
										c0.042-0.023,0.079-0.054,0.112-0.085l8.691,8.829c-0.039,0.052-0.066,0.11-0.083,0.171L136.637,8.441z M146.906,2.389
										l4.616,1.044c-0.018,0.108-0.001,0.222,0.055,0.324c0.008,0.013,0.016,0.024,0.022,0.036l-4.78,5.44
										c-0.056-0.037-0.116-0.06-0.181-0.071L146.906,2.389z M152.481,10.671c-0.043,0.011-0.087,0.027-0.128,0.05
										c-0.104,0.057-0.18,0.146-0.223,0.248l-3.536-0.881l3.212-6.119c0.048,0.023,0.1,0.038,0.152,0.045L152.481,10.671z
										 M143.715,19.422c-0.004-0.004-0.01-0.008-0.015-0.011l4.824-9.188l3.57,0.889c-0.009,0.098,0.01,0.199,0.06,0.29
										c0.009,0.018,0.019,0.032,0.028,0.046L143.715,19.422z M136.511,20.791c-0.01-0.033-0.022-0.065-0.04-0.094
										c-0.014-0.026-0.029-0.049-0.048-0.071l1.576-1.69l4.902,0.867c0,0.005,0,0.01,0,0.016L136.511,20.791z M101.966,34.235
										l11.272-4.883l8.721,5.849c-0.017,0.037-0.03,0.075-0.038,0.113L101.966,34.235z M93.505,36.512
										c-0.007-0.014-0.014-0.028-0.021-0.042c-0.04-0.073-0.096-0.133-0.161-0.176l2.326-4.93l5.095,2.983
										c-0.031,0.075-0.042,0.159-0.032,0.242L93.505,36.512z M80.216,26.96c0.002,0.076,0.022,0.152,0.062,0.224
										c0.004,0.007,0.008,0.012,0.013,0.021l-2.811,2.356l-3.578-3.144c0.029-0.045,0.051-0.095,0.063-0.145L80.216,26.96z
										 M83.71,21.917c0.011,0.005,0.022,0.01,0.033,0.013l-0.636,4.731l-1.914,0.121c-0.009-0.027-0.021-0.056-0.035-0.083
										c-0.035-0.063-0.082-0.116-0.137-0.158L83.71,21.917z M84.387,21.284l14.945-6.842c0.078,0.119,0.201,0.196,0.333,0.221
										l-0.211,7.755c-0.061,0.009-0.123,0.028-0.181,0.06c-0.14,0.075-0.228,0.209-0.253,0.354l-14.603-1.375
										c0-0.062-0.012-0.122-0.035-0.18L84.387,21.284z M132.361,8.259c0.009,0.022,0.019,0.048,0.031,0.071
										c0.042,0.076,0.101,0.136,0.17,0.181l-2.926,6.778l-8.665-4.331c0.015-0.056,0.02-0.116,0.015-0.174L132.361,8.259z
										 M136.937,0.643c0.03,0.011,0.062,0.017,0.095,0.021l-0.541,7.761l-3.156-0.362c-0.003-0.073-0.022-0.147-0.061-0.216
										c-0.037-0.068-0.087-0.123-0.146-0.166L136.937,0.643z M147.308-2.512l4.355,5.671c-0.039,0.04-0.07,0.084-0.095,0.133
										l-4.656-1.054l0.184-4.662c0.056-0.011,0.11-0.028,0.163-0.057C147.275-2.49,147.292-2.501,147.308-2.512"/>
								</g>
							</g>
						</g>
						<path clip-path="url(#SVGID_15_)" fill="#5BC7D4" d="M87.292,63.968l7.59,4.445c-0.063,0.229,0.009,0.483,0.205,0.643
							c0.264,0.214,0.652,0.174,0.866-0.088c0.155-0.192,0.177-0.448,0.077-0.658l8.924-7.328c0.264,0.196,0.636,0.153,0.846-0.105
							c0.214-0.263,0.174-0.651-0.09-0.865c-0.073-0.062-0.156-0.1-0.242-0.12l1.078-9.761c0.168-0.009,0.33-0.085,0.444-0.225
							c0.153-0.19,0.176-0.443,0.079-0.648l11.769-8.129c0.017,0.017,0.033,0.033,0.053,0.048c0.264,0.215,0.651,0.175,0.867-0.089
							c0.092-0.112,0.137-0.248,0.138-0.383l7.728-1.08c0.034,0.115,0.102,0.223,0.202,0.304c0.264,0.216,0.652,0.176,0.866-0.089
							c0.098-0.119,0.142-0.266,0.138-0.408l12.536-2.27c0.036,0.105,0.101,0.204,0.194,0.28c0.265,0.214,0.652,0.175,0.866-0.09
							c0.215-0.264,0.176-0.65-0.089-0.866c-0.101-0.082-0.219-0.127-0.339-0.137l-0.565-8.419c0.133-0.027,0.255-0.099,0.348-0.213
							c0.185-0.228,0.18-0.548,0.005-0.769l13.827-14.68l-0.067-0.063l0.001,0.001c0.265,0.215,0.652,0.176,0.867-0.09
							c0.214-0.263,0.175-0.65-0.09-0.865c-0.057-0.048-0.121-0.081-0.188-0.104l0.922-6.51c0.173-0.006,0.341-0.082,0.458-0.227
							c0.11-0.137,0.153-0.306,0.133-0.469l7.422-2.103c0.038,0.083,0.097,0.161,0.173,0.223c0.264,0.216,0.652,0.176,0.866-0.088
							c0.215-0.264,0.175-0.652-0.088-0.866c-0.119-0.097-0.263-0.142-0.404-0.139l-1.598-9.183c0.107-0.035,0.207-0.1,0.284-0.195
							c0.216-0.263,0.175-0.651-0.089-0.867c-0.242-0.196-0.588-0.178-0.809,0.029l-15.196-12.07c0.157-0.258,0.104-0.6-0.138-0.797
							c-0.264-0.215-0.652-0.175-0.866,0.089c-0.215,0.265-0.175,0.652,0.089,0.867c0.069,0.057,0.146,0.095,0.229,0.116
							l-0.958,9.111c-0.171,0.007-0.337,0.084-0.452,0.227c-0.196,0.24-0.18,0.583,0.024,0.804l-7.307,8.98
							c-0.259-0.155-0.597-0.1-0.792,0.14c-0.162,0.2-0.179,0.471-0.063,0.684l-7.304,5.513c-0.013-0.015-0.027-0.027-0.043-0.039
							c-0.264-0.215-0.65-0.175-0.866,0.089c-0.193,0.237-0.18,0.573,0.017,0.796l-23.498,8.097
							c-0.037-0.073-0.09-0.138-0.157-0.193c-0.264-0.214-0.652-0.174-0.867,0.089c-0.214,0.265-0.174,0.652,0.089,0.868
							c0.099,0.078,0.213,0.123,0.33,0.134l1.027,20.549c-0.135,0.027-0.263,0.1-0.357,0.216c-0.086,0.105-0.13,0.231-0.136,0.358
							l-8.67,0.857c-0.031-0.124-0.101-0.24-0.208-0.328c-0.264-0.214-0.651-0.174-0.867,0.089
							c-0.147,0.182-0.174,0.421-0.092,0.624l-6.814,4.056c-0.025-0.031-0.056-0.062-0.089-0.088
							c-0.263-0.215-0.651-0.175-0.866,0.088c-0.215,0.265-0.175,0.652,0.089,0.868c0.017,0.014,0.034,0.025,0.053,0.038
							l-5.941,12.973c-0.231-0.066-0.489,0.005-0.649,0.205c-0.215,0.262-0.175,0.65,0.089,0.864
							c0.169,0.139,0.388,0.172,0.581,0.108l3.665,7.318c-0.055,0.035-0.105,0.078-0.148,0.131
							c-0.215,0.265-0.175,0.652,0.089,0.867C86.692,64.263,87.076,64.227,87.292,63.968 M95.323,67.981l-1.929-5.346l11.374-1.875
							c0.018,0.032,0.035,0.063,0.058,0.093l-0.839,0.688l-8.06,6.619c-0.02-0.021-0.04-0.041-0.063-0.062
							C95.707,67.973,95.506,67.935,95.323,67.981 M140.775,27.01l-1.067-0.447l-1.801-8.028l3.096,8.256
							c-0.066,0.037-0.128,0.088-0.18,0.149C140.806,26.962,140.79,26.986,140.775,27.01 M155.506,11.288l-5.301-3.377
							c0.061-0.138,0.069-0.292,0.024-0.434l4.055-1.952l1.45,5.622C155.651,11.176,155.572,11.224,155.506,11.288 M165.086,1.3
							l-5.492-1.911l4.027-7.604c0.071,0.025,0.146,0.036,0.22,0.034l1.597,9.184c-0.107,0.034-0.206,0.1-0.284,0.194
							C165.128,1.229,165.104,1.264,165.086,1.3 M95.556,39.775l-5.22,13.69c-0.031-0.007-0.063-0.01-0.095-0.013l-1.017-11.787
							c0.128-0.03,0.246-0.1,0.336-0.209c0.102-0.126,0.146-0.279,0.136-0.429L95.556,39.775z M104.714,60.587l-11.383,1.874
							l-2.836-7.851c0.07-0.038,0.134-0.088,0.187-0.154c0.018-0.021,0.031-0.042,0.046-0.063l13.98,6.033
							C104.703,60.479,104.705,60.533,104.714,60.587 M89.814,54.547c0.032,0.025,0.067,0.049,0.104,0.066l-2.879,8.26l0.82-8.379
							l1.754-0.251C89.647,54.357,89.715,54.464,89.814,54.547 M87.878,54.308l1.198-12.253l0.985,11.415
							c-0.128,0.029-0.247,0.1-0.337,0.209c-0.091,0.112-0.137,0.251-0.138,0.385L87.878,54.308z M95.767,39.729l1.926-0.411
							c0.037,0.099,0.1,0.188,0.187,0.26c0.008,0.007,0.016,0.012,0.021,0.017l-3.151,5.848L90.783,52.8L95.767,39.729z
							 M95.844,39.528l0.968-2.54c0.105,0.023,0.216,0.019,0.318-0.014l0.791,1.619c-0.048,0.031-0.092,0.071-0.13,0.119
							c-0.102,0.125-0.146,0.278-0.137,0.428L95.844,39.528z M97.559,36.417l8.67-0.857c0,0.003,0.001,0.007,0.002,0.009
							l-7.438,3.209c-0.035-0.058-0.08-0.108-0.135-0.153c-0.166-0.137-0.383-0.17-0.574-0.11l-0.79-1.618
							c0.047-0.033,0.091-0.072,0.129-0.12C97.508,36.671,97.552,36.545,97.559,36.417 M127.913,38.913l-6.171-7.987
							c0.012-0.013,0.022-0.025,0.034-0.039c0.03-0.037,0.055-0.078,0.076-0.121l7.822,2.45l-1.402,5.62
							C128.149,38.826,128.023,38.852,127.913,38.913 M163.238-8.609l-10.579,5.154c-0.032-0.047-0.072-0.091-0.119-0.129
							c-0.13-0.105-0.29-0.149-0.443-0.136l-1.679-6.944l12.793,1.869C163.211-8.732,163.22-8.671,163.238-8.609 M147.729-21.021
							l2.451,10.139l-2.972-0.434c-0.001-0.179-0.078-0.355-0.229-0.478c-0.07-0.059-0.151-0.097-0.234-0.117l0.958-9.11
							C147.711-21.021,147.72-21.021,147.729-21.021 M146.777-10.727c0.027-0.009,0.055-0.021,0.08-0.034l4.878,7.201
							c-0.022,0.02-0.044,0.041-0.063,0.064c-0.098,0.12-0.142,0.266-0.137,0.409l-3.462,0.428L146.777-10.727z M147.924-2.458
							l1.532,9.531c-0.084,0.026-0.161,0.071-0.229,0.132l-10.181-8.281c0.055-0.093,0.084-0.195,0.085-0.299L147.924-2.458z
							 M131.859,7.799l5.271,9.008c-0.027,0.025-0.054,0.051-0.077,0.081c-0.072,0.089-0.115,0.191-0.131,0.296l-5.393,0.307
							L130.39,5.454c0.027-0.008,0.056-0.017,0.081-0.027L131.859,7.799z M107.214,34.933c-0.008-0.008-0.019-0.014-0.027-0.021
							l6.79-13.023c0.087,0.029,0.178,0.04,0.268,0.03l2.61,9.992l-9.481,3.217C107.336,35.055,107.282,34.988,107.214,34.933
							 M132.524,22.989c-0.145-0.096-0.32-0.123-0.481-0.083l-0.495-5.235l5.375-0.305c0.014,0.099,0.053,0.193,0.113,0.276
							L132.524,22.989z M147.181-11.137l3.043,0.444l1.697,7.015c-0.012,0.005-0.022,0.01-0.033,0.015l-4.88-7.198
							c0.022-0.02,0.042-0.042,0.062-0.064C147.121-10.99,147.158-11.062,147.181-11.137 M114.77,21.479l9.401,1.269l-2.739,7.15
							c-0.148-0.033-0.303-0.01-0.436,0.063l-0.145-0.187l-6.229-8.042c0.012-0.012,0.023-0.024,0.033-0.037
							C114.71,21.629,114.747,21.555,114.77,21.479 M124.354,22.772l7.271,0.982c0.012,0.028,0.027,0.057,0.044,0.083l-7.521,4.751
							l-2.385,1.508c-0.023-0.026-0.05-0.053-0.078-0.076c-0.027-0.021-0.056-0.042-0.087-0.059L124.354,22.772z M124.421,22.6
							l1.576-4.116c0.17,0.034,0.351-0.006,0.491-0.112l2.244,2.216l2.85,2.816c-0.01,0.053-0.013,0.107-0.006,0.162L124.421,22.6z
							 M131.366,17.681l0.502,5.298c-0.059,0.036-0.112,0.082-0.158,0.137c-0.024,0.03-0.046,0.063-0.063,0.097l-2.776-2.743
							l-2.254-2.227c0.065-0.092,0.104-0.194,0.115-0.299L131.366,17.681z M120.692,30.608l-3.666,1.243l-2.606-9.979
							c0.021-0.01,0.039-0.019,0.059-0.029l6.375,8.229c-0.012,0.013-0.023,0.024-0.033,0.038
							C120.702,30.255,120.662,30.438,120.692,30.608 M114.788,21.226l10.774-3.082c0.038,0.08,0.094,0.153,0.167,0.213
							c0.032,0.025,0.063,0.047,0.098,0.064l-1.591,4.153l-9.442-1.275C114.793,21.274,114.791,21.25,114.788,21.226
							 M126.508,17.401c-0.034-0.028-0.07-0.052-0.108-0.071l3.745-11.866c0.022,0.003,0.042,0.005,0.064,0.007l1.141,12.03
							l-4.626,0.263C126.697,17.626,126.625,17.496,126.508,17.401 M148.104-2.48l3.465-0.427c0.036,0.106,0.102,0.203,0.193,0.279
							c0.051,0.041,0.105,0.071,0.163,0.094l-2.232,9.581c-0.019-0.002-0.039-0.002-0.058-0.002L148.104-2.48z M137.576,17.89
							l1.927,8.585l-6.718-2.817c0.048-0.189,0.005-0.394-0.124-0.548l4.504-5.339C137.288,17.861,137.434,17.899,137.576,17.89
							 M139.552,26.692l2.175,9.696c-0.021,0.008-0.042,0.018-0.063,0.028l-9.045-12.473c0.017-0.017,0.032-0.031,0.047-0.052
							c0.019-0.021,0.034-0.045,0.049-0.069L139.552,26.692z M131.799,23.982c0.049,0.038,0.101,0.069,0.154,0.092l-2.234,8.966
							l-7.813-2.446c0.018-0.117,0.003-0.234-0.046-0.344l9.932-6.275C131.794,23.978,131.797,23.979,131.799,23.982
							 M120.909,30.977c0.056,0.045,0.117,0.078,0.181,0.102l-1.8,9.005c-0.037-0.001-0.074,0.002-0.11,0.009l-2.107-8.063
							l3.678-1.248C120.788,30.854,120.841,30.921,120.909,30.977 M118.734,40.41l-11.313-4.844c0.022-0.088,0.026-0.178,0.01-0.268
							l9.47-3.212l2.106,8.06c-0.077,0.038-0.147,0.092-0.206,0.164C118.775,40.342,118.754,40.376,118.734,40.41 M106.886,34.796
							l-1.028-20.548c0.097-0.02,0.189-0.062,0.27-0.127l7.539,6.843c-0.176,0.262-0.127,0.617,0.123,0.821
							c0.009,0.007,0.018,0.012,0.026,0.019l-6.789,13.024C106.98,34.813,106.933,34.801,106.886,34.796 M106.314,13.856
							l12.498,2.597l-4.272,4.355c-0.23-0.166-0.539-0.154-0.753,0.022l-7.538-6.845C106.275,13.946,106.298,13.901,106.314,13.856
							 M119.023,16.497l6.48,1.347c-0.003,0.043,0,0.084,0.006,0.126l-10.771,3.082c-0.019-0.04-0.042-0.08-0.069-0.116
							L119.023,16.497z M119.176,16.344l10.753-10.958c0.015,0.008,0.029,0.017,0.043,0.023l-3.744,11.863
							c-0.213-0.039-0.44,0.038-0.587,0.218c-0.044,0.054-0.077,0.114-0.101,0.176L119.176,16.344z M130.832,5.032l7.184,1.039
							l-0.584,10.597c-0.05,0.009-0.1,0.022-0.146,0.044L136.284,15l-5.656-9.664c0.033-0.026,0.064-0.057,0.091-0.092
							C130.772,5.18,130.81,5.108,130.832,5.032 M138.195,6.097l10.831,1.565c0,0.106,0.028,0.211,0.082,0.305l-11.193,8.827
							c-0.091-0.071-0.195-0.114-0.302-0.128L138.195,6.097z M138.206,5.915l0.368-6.691c0.131-0.013,0.256-0.067,0.358-0.159
							l10.181,8.282c-0.026,0.044-0.048,0.092-0.062,0.138L138.206,5.915z M138.972-1.807l7.306-8.979
							c0.1,0.06,0.211,0.088,0.321,0.086l1.296,8.063l-8.784,1.081C139.086-1.646,139.038-1.731,138.972-1.807 M148.095-21.177
							l15.198,12.072c-0.024,0.041-0.043,0.085-0.057,0.13l-12.864-1.879l-2.467-10.207
							C147.974-21.087,148.037-21.126,148.095-21.177 M159.421-0.672l-6.664-2.319c0.019-0.101,0.012-0.203-0.019-0.302l10.58-5.155
							c0.032,0.048,0.072,0.091,0.119,0.129c0.008,0.007,0.015,0.013,0.024,0.019L159.421-0.672z M159.335-0.511l-2.093,3.952
							c-0.164-0.058-0.347-0.044-0.499,0.039l-4.123-6.188c0.003-0.003,0.006-0.007,0.009-0.01c0.027-0.033,0.049-0.066,0.068-0.104
							L159.335-0.511z M156.473,4.268l-2.069,0.998l-2.012-7.805c0.031-0.013,0.062-0.029,0.091-0.048l4.116,6.178
							c-0.014,0.013-0.027,0.026-0.038,0.043C156.41,3.818,156.384,4.063,156.473,4.268 M154.237,5.346l-4.085,1.97
							c-0.033-0.05-0.073-0.093-0.121-0.132c-0.051-0.041-0.104-0.072-0.161-0.096l2.264-9.579c0.027,0.001,0.054,0.001,0.081-0.003
							L154.237,5.346z M138.068,16.975c-0.009-0.016-0.019-0.033-0.029-0.048l8.241-6.5l2.94-2.317
							c0.011,0.01,0.021,0.02,0.033,0.029c0.258,0.211,0.637,0.176,0.854-0.074l5.288,3.368c-0.062,0.11-0.085,0.235-0.074,0.356
							L138.068,16.975z M140.912,27.807c0.101,0.081,0.22,0.127,0.34,0.137l0.527,7.851l-2.022-9.015l0.948,0.398
							C140.648,27.402,140.721,27.65,140.912,27.807 M141.395,36.695l-11.503-3.602l2.237-8.976
							c0.118,0.011,0.237-0.013,0.344-0.066l9.045,12.472c-0.017,0.015-0.032,0.033-0.047,0.051
							C141.439,36.611,141.415,36.652,141.395,36.695 M141.333,36.983l-12.536,2.27c-0.036-0.106-0.101-0.204-0.193-0.28
							c-0.048-0.04-0.1-0.07-0.154-0.092l1.398-5.61l11.492,3.598C141.334,36.906,141.332,36.944,141.333,36.983 M127.598,39.444
							l-7.728,1.08c-0.034-0.115-0.102-0.222-0.201-0.305c-0.062-0.048-0.129-0.083-0.199-0.106l1.798-9
							c0.114,0.005,0.229-0.021,0.331-0.078l6.171,7.989c-0.011,0.012-0.022,0.022-0.034,0.037
							C127.645,39.174,127.599,39.31,127.598,39.444 M106.824,39.675l0.079-3.654c0.15-0.019,0.296-0.094,0.399-0.222
							c0.018-0.021,0.033-0.043,0.047-0.066l11.324,4.85c-0.001,0.005-0.001,0.009-0.002,0.015L106.824,39.675z M106.644,39.661
							l-7.761-0.603c-0.002-0.04-0.01-0.078-0.019-0.116l7.438-3.208c0.036,0.057,0.08,0.108,0.135,0.152
							c0.085,0.07,0.184,0.113,0.285,0.131L106.644,39.661z M106.64,39.843l-0.195,9.06c-0.082,0.011-0.163,0.037-0.238,0.078
							l-1.604-2.025l-5.885-7.432c0.01-0.012,0.021-0.021,0.029-0.033c0.063-0.075,0.102-0.162,0.122-0.251L106.64,39.843z
							 M105.902,49.602l-3.758,1.048l-3.601-10.998c0.011-0.005,0.022-0.01,0.032-0.017l5.92,7.477l1.569,1.981
							c-0.011,0.011-0.021,0.022-0.032,0.034C105.921,49.266,105.879,49.439,105.902,49.602 M101.97,50.698l-11.203,3.118
							c-0.039-0.085-0.097-0.163-0.174-0.226c-0.007-0.005-0.015-0.01-0.021-0.016l5.096-9.457l2.393-4.438
							c0.101,0.037,0.207,0.047,0.312,0.029L101.97,50.698z M102.025,50.87l2.976,9.092c-0.058,0.037-0.112,0.082-0.158,0.137
							c-0.037,0.046-0.066,0.096-0.088,0.149l-13.956-6.021c0.02-0.076,0.025-0.158,0.016-0.235L102.025,50.87z M93.149,62.491
							l-5.73,0.946c-0.028-0.131-0.1-0.252-0.211-0.344c-0.014-0.01-0.028-0.021-0.043-0.031l2.924-8.39
							c0.079,0.016,0.158,0.016,0.236-0.001L93.149,62.491z M82.986,55.653c0.046-0.032,0.088-0.07,0.125-0.115
							c0.092-0.112,0.137-0.249,0.137-0.385l4.427-0.633l-0.826,8.438c-0.064-0.004-0.13,0.003-0.191,0.021L82.986,55.653z
							 M88.91,41.659c0.007,0.002,0.016,0.004,0.022,0.005l-1.239,12.672l-4.47,0.638c-0.034-0.114-0.102-0.221-0.201-0.302
							c-0.018-0.014-0.035-0.026-0.054-0.038L88.91,41.659z M96.467,36.777c0.026,0.031,0.055,0.062,0.088,0.088
							c0.028,0.023,0.058,0.042,0.088,0.058l-1.01,2.65l-5.975,1.277c-0.002-0.005-0.004-0.011-0.006-0.017L96.467,36.777z
							 M129.52,5.545l-10.555,10.756l-12.614-2.622c0.004-0.049,0-0.099-0.009-0.146L129.52,5.545z M138.085-0.951
							c0.015,0.014,0.028,0.026,0.044,0.038c0.079,0.064,0.17,0.106,0.265,0.126l-0.367,6.676l-7.169-1.036
							c0-0.102-0.025-0.201-0.074-0.291L138.085-0.951z M157.599,3.769c-0.038-0.085-0.096-0.161-0.173-0.225l-0.023-0.018
							l2.106-3.977l5.518,1.921c-0.012,0.064-0.014,0.129-0.005,0.193L157.599,3.769z M155.958,11.114c-0.016,0-0.03-0.001-0.045,0
							l-1.463-5.67l2.12-1.021c0.023,0.027,0.05,0.053,0.078,0.077c0.069,0.057,0.148,0.095,0.229,0.117L155.958,11.114z
							 M155.479,12.146l-13.826,14.678c-0.145-0.101-0.319-0.131-0.48-0.096l-3.343-8.912c0.066-0.038,0.129-0.089,0.18-0.15
							c0.123-0.152,0.162-0.343,0.124-0.52l17.231-5.181c0.028,0.068,0.069,0.131,0.123,0.188L155.479,12.146z M106.97,49.105
							c-0.022-0.025-0.044-0.047-0.069-0.068c-0.082-0.066-0.178-0.109-0.275-0.127l0.195-9.055l11.849,0.92
							c0.009,0.072,0.03,0.142,0.063,0.205L106.97,49.105z M105.287,59.872c-0.041,0.004-0.08,0.009-0.119,0.021l-2.968-9.071
							l3.754-1.045c0.037,0.081,0.094,0.157,0.168,0.218c0.074,0.06,0.158,0.1,0.243,0.12L105.287,59.872z M94.956,68.247
							l-7.57-4.436c0.027-0.062,0.043-0.126,0.048-0.192l5.778-0.953l1.945,5.385c-0.06,0.037-0.114,0.081-0.16,0.138
							C94.982,68.207,94.969,68.227,94.956,68.247"/>
					</g>
				</g>
			</g>
		</g>
	</g>
	<g>
		<path fill="#FFFFFF" d="M101.297,21.003h-3.414v-0.77c0-0.781-0.184-1.456-0.551-2.025c-0.369-0.568-0.988-0.853-1.857-0.853
			c-0.469,0-0.854,0.089-1.156,0.268c-0.301,0.179-0.535,0.407-0.701,0.686c-0.168,0.279-0.285,0.603-0.352,0.971
			c-0.068,0.368-0.102,0.753-0.102,1.155c0,0.468,0.018,0.864,0.051,1.188c0.033,0.324,0.117,0.603,0.25,0.837
			c0.135,0.234,0.33,0.441,0.586,0.619c0.258,0.179,0.607,0.357,1.055,0.536l2.611,1.037c0.758,0.29,1.371,0.631,1.84,1.021
			c0.469,0.392,0.832,0.849,1.088,1.373s0.43,1.127,0.52,1.807c0.088,0.682,0.133,1.456,0.133,2.326c0,1.005-0.1,1.937-0.301,2.795
			c-0.201,0.859-0.529,1.596-0.986,2.209c-0.459,0.614-1.066,1.1-1.824,1.456c-0.76,0.356-1.686,0.536-2.779,0.536
			c-0.824,0-1.596-0.146-2.309-0.436c-0.715-0.29-1.328-0.687-1.842-1.188s-0.92-1.099-1.221-1.79s-0.451-1.439-0.451-2.243v-1.271
			h3.414v1.071c0,0.625,0.184,1.188,0.551,1.69c0.369,0.502,0.988,0.753,1.857,0.753c0.58,0,1.033-0.084,1.355-0.251
			c0.324-0.168,0.57-0.402,0.736-0.703c0.168-0.302,0.273-0.675,0.318-1.121s0.066-0.938,0.066-1.473
			c0-0.625-0.021-1.139-0.066-1.54s-0.139-0.725-0.283-0.971c-0.146-0.245-0.348-0.446-0.604-0.603
			c-0.256-0.155-0.598-0.323-1.021-0.502l-2.443-1.004c-1.473-0.603-2.459-1.4-2.961-2.394c-0.502-0.992-0.754-2.236-0.754-3.731
			c0-0.893,0.123-1.74,0.369-2.544c0.244-0.803,0.607-1.494,1.088-2.075c0.479-0.58,1.088-1.043,1.824-1.389
			s1.594-0.519,2.576-0.519c0.848,0,1.623,0.156,2.326,0.468c0.703,0.313,1.307,0.726,1.809,1.239
			c0.502,0.513,0.887,1.087,1.154,1.724c0.268,0.636,0.4,1.288,0.4,1.958V21.003z"/>
		<path fill="#FFFFFF" d="M107.623,14.142h2.846l5.322,23.831h-3.414l-1.004-5.121h-4.652l-1.006,5.121h-3.412L107.623,14.142z
			 M109.063,21.003h-0.066l-1.674,8.636h3.414L109.063,21.003z"/>
		<path fill="#FFFFFF" d="M117.463,14.142h5.49c4.016,0,6.023,2.332,6.023,6.995c0,1.384-0.217,2.572-0.652,3.565
			s-1.199,1.79-2.293,2.393l3.682,10.878H126.1l-3.18-10.175h-2.043v10.175h-3.414V14.142z M120.877,24.785h1.941
			c0.604,0,1.082-0.083,1.439-0.251c0.357-0.167,0.631-0.406,0.82-0.72c0.189-0.312,0.318-0.697,0.385-1.154s0.1-0.987,0.1-1.59
			s-0.033-1.133-0.1-1.59s-0.207-0.848-0.418-1.172c-0.213-0.323-0.508-0.563-0.887-0.72c-0.381-0.155-0.883-0.233-1.506-0.233
			h-1.775V24.785z"/>
	</g>
</g>
</svg>
