<?xml version="1.0" encoding="utf-8"?>
<!-- Generator: Adobe Illustrator 16.0.0, SVG Export Plug-In . SVG Version: 6.00 Build 0)  -->
<!DOCTYPE svg PUBLIC "-//W3C//DTD SVG 1.1//EN" "http://www.w3.org/Graphics/SVG/1.1/DTD/svg11.dtd">
<svg version="1.1" id="Layer_1" xmlns="http://www.w3.org/2000/svg" xmlns:xlink="http://www.w3.org/1999/xlink" x="0px" y="0px"
	 width="186px" height="50px" viewBox="0 0 186 50" enable-background="new 0 0 186 50" xml:space="preserve">
<path fill="#1EADE4" d="M8.465,15.206H1.71V49.5h9.803V19.51C11.482,15.696,9.159,15.253,8.465,15.206"/>
<g>
	<defs>
		<path id="SVGID_29_" d="M41.448,0.502c-4.714,0-39.738,0.03-39.738,0.03v6.616c0.015,0.544,0.3,3.144,4.381,3.144h10.336V49.5
			h9.785l0.007-1.729V10.332h13.713c5.042,0.016,17.096,0.329,20.89,3.916c4.855-0.823,9.523-2.647,9.51-5.953
			c0.45-7.008-20.482-7.782-28.429-7.793H41.448z"/>
	</defs>
	<clipPath id="SVGID_2_">
		<use xlink:href="#SVGID_29_"  overflow="visible"/>
	</clipPath>
	
		<linearGradient id="SVGID_3_" gradientUnits="userSpaceOnUse" x1="-184.5083" y1="342.5957" x2="-183.6218" y2="342.5957" gradientTransform="matrix(77.4297 0 0 -77.4297 14288.1162 26552.1289)">
		<stop  offset="0" style="stop-color:#05ADE2"/>
		<stop  offset="0.183" style="stop-color:#0EA8DA"/>
		<stop  offset="0.3566" style="stop-color:#199DCA"/>
		<stop  offset="0.5266" style="stop-color:#208CB3"/>
		<stop  offset="0.6942" style="stop-color:#237796"/>
		<stop  offset="0.8586" style="stop-color:#215E76"/>
		<stop  offset="1" style="stop-color:#1B4759"/>
	</linearGradient>
	<rect x="1.71" y="0.502" clip-path="url(#SVGID_2_)" fill="url(#SVGID_3_)" width="69.071" height="48.998"/>
</g>
<g>
	<defs>
		<path id="SVGID_32_" d="M62.648,13.888c-0.72,0.177-2.253,0.458-2.396,0.483c-0.001,0-0.003,0-0.005,0
			c-3.788,0.644-7.732,0.803-10.025,0.836h-19.09v6.669c0.019,0.577,0.336,3.073,4.261,3.125H40.9V49.5h9.804V25.168l1.633-0.005
			c6.383-0.067,17.968-0.896,17.963-5.979c-0.003-5.2-0.003-8.855-0.003-10.402C69.846,11.407,66.538,12.942,62.648,13.888"/>
	</defs>
	<clipPath id="SVGID_5_">
		<use xlink:href="#SVGID_32_"  overflow="visible"/>
	</clipPath>
	
		<linearGradient id="SVGID_6_" gradientUnits="userSpaceOnUse" x1="-185.5547" y1="338.6396" x2="-184.6685" y2="338.6396" gradientTransform="matrix(44.1929 0 0 -44.1929 8231.3486 14994.5947)">
		<stop  offset="0" style="stop-color:#05ADE2"/>
		<stop  offset="1" style="stop-color:#0BAFCC"/>
	</linearGradient>
	<rect x="31.132" y="8.782" clip-path="url(#SVGID_5_)" fill="url(#SVGID_6_)" width="39.173" height="40.718"/>
</g>
<g>
	<g>
		<g>
			<defs>
				<path id="SVGID_35_" d="M81.542,6.866c-3.036,0-5.497,2.463-5.497,5.498v25.273c0,3.035,2.461,5.496,5.497,5.496h96.024
					c3.035,0,5.497-2.461,5.497-5.496V12.364c0-3.035-2.462-5.498-5.497-5.498H81.542z"/>
			</defs>
			<clipPath id="SVGID_8_">
				<use xlink:href="#SVGID_35_"  overflow="visible"/>
			</clipPath>
			
				<linearGradient id="SVGID_9_" gradientUnits="userSpaceOnUse" x1="-184.1382" y1="344.4199" x2="-183.2515" y2="344.4199" gradientTransform="matrix(120.7422 0 0 -120.7422 22309.2578 41610.9688)">
				<stop  offset="0" style="stop-color:#0EB9CD"/>
				<stop  offset="1" style="stop-color:#05ADE2"/>
			</linearGradient>
			<rect x="76.045" y="6.866" clip-path="url(#SVGID_8_)" fill="url(#SVGID_9_)" width="107.017" height="36.268"/>
		</g>
		<g>
			<defs>
				<path id="SVGID_38_" d="M81.542,6.866c-3.036,0-5.497,2.463-5.497,5.498v25.273c0,3.035,2.461,5.496,5.497,5.496h96.024
					c3.035,0,5.497-2.461,5.497-5.496V12.364c0-3.035-2.462-5.498-5.497-5.498H81.542z"/>
			</defs>
			<clipPath id="SVGID_11_">
				<use xlink:href="#SVGID_38_"  overflow="visible"/>
			</clipPath>
			<g opacity="0.75" clip-path="url(#SVGID_11_)">
				<g>
					<defs>
						<rect id="SVGID_40_" x="96.423" y="-24.259" width="121.016" height="95.33"/>
					</defs>
					<clipPath id="SVGID_13_">
						<use xlink:href="#SVGID_40_"  overflow="visible"/>
					</clipPath>
					<g clip-path="url(#SVGID_13_)">
						<defs>
							<rect id="SVGID_42_" x="96.423" y="-24.259" width="121.016" height="95.33"/>
						</defs>
						<clipPath id="SVGID_15_">
							<use xlink:href="#SVGID_42_"  overflow="visible"/>
						</clipPath>
						<g opacity="0.3" clip-path="url(#SVGID_15_)">
							<g>
								<defs>
									<rect id="SVGID_44_" x="96.423" y="8.839" width="121.016" height="58.002"/>
								</defs>
								<clipPath id="SVGID_17_">
									<use xlink:href="#SVGID_44_"  overflow="visible"/>
								</clipPath>
								<g clip-path="url(#SVGID_17_)">
									<defs>
										<rect id="SVGID_46_" x="96.423" y="8.839" width="121.016" height="58.002"/>
									</defs>
									<clipPath id="SVGID_19_">
										<use xlink:href="#SVGID_46_"  overflow="visible"/>
									</clipPath>
									<path clip-path="url(#SVGID_19_)" fill="#5BC7D4" d="M96.882,56.509c0.075,0.383,0.449,0.633,0.832,0.557
										c0.077-0.016,0.148-0.045,0.214-0.082l5.467,7.645c-0.168,0.162-0.252,0.404-0.202,0.648
										c0.076,0.383,0.449,0.631,0.833,0.555c0.285-0.057,0.498-0.283,0.554-0.551l16.36,0.918
										c0.002,0.025,0.006,0.051,0.01,0.072c0.077,0.385,0.45,0.633,0.834,0.557c0.383-0.078,0.631-0.449,0.554-0.832
										c-0.01-0.049-0.023-0.094-0.042-0.137l7.772-4.748c0.161,0.191,0.419,0.293,0.681,0.24
										c0.384-0.076,0.632-0.449,0.557-0.832c-0.032-0.156-0.113-0.289-0.223-0.387l5.517-8.348
										c0.134,0.063,0.284,0.086,0.439,0.055c0.166-0.033,0.31-0.125,0.408-0.246l20.319,12.055
										c-0.052,0.125-0.067,0.266-0.04,0.408c0.078,0.383,0.449,0.631,0.834,0.555c0.384-0.076,0.632-0.449,0.554-0.832
										c-0.02-0.1-0.06-0.188-0.11-0.266l20.815-19.525c0.121,0.318,0.454,0.514,0.8,0.443c0.383-0.076,0.631-0.447,0.554-0.832
										c-0.004-0.021-0.008-0.043-0.014-0.064l9.511-4.463c0.153,0.232,0.438,0.361,0.727,0.303
										c0.35-0.068,0.586-0.385,0.568-0.729l13.035-2.609c0.117,0.326,0.456,0.525,0.804,0.457c0.207-0.043,0.373-0.17,0.473-0.34
										l9.766,3.912c-0.021,0.094-0.022,0.191-0.004,0.295c0.077,0.381,0.45,0.631,0.834,0.553
										c0.383-0.076,0.631-0.449,0.554-0.832c-0.069-0.35-0.388-0.586-0.734-0.566l-4.116-21.902
										c0.33-0.113,0.532-0.455,0.463-0.807c-0.077-0.383-0.448-0.633-0.832-0.557c-0.139,0.029-0.258,0.096-0.352,0.188
										l-8.471-6.545c0.081-0.141,0.111-0.311,0.077-0.484c-0.077-0.383-0.448-0.631-0.831-0.555
										c-0.384,0.076-0.632,0.451-0.557,0.834c0.024,0.111,0.071,0.211,0.136,0.295l-6.115,6.41
										c-0.152-0.107-0.348-0.156-0.546-0.115c-0.208,0.041-0.377,0.172-0.475,0.344l-7.106-2.553
										c0.014-0.08,0.012-0.162-0.005-0.248c-0.077-0.383-0.448-0.631-0.833-0.553c-0.384,0.074-0.632,0.447-0.555,0.832v0.002
										l-0.027-0.104l-22.318,6.178c-0.131-0.297-0.454-0.473-0.784-0.406c-0.163,0.029-0.302,0.119-0.403,0.236l-8.246-5.084
										c0.056-0.129,0.073-0.273,0.044-0.418c-0.078-0.385-0.449-0.633-0.832-0.557c-0.384,0.078-0.632,0.449-0.556,0.834
										c0.027,0.135,0.093,0.252,0.181,0.346l-9.023,11.518c-0.143-0.084-0.313-0.115-0.488-0.08
										c-0.383,0.078-0.632,0.449-0.556,0.834c0.029,0.145,0.101,0.27,0.2,0.365l-5.237,7.271c-0.139-0.07-0.3-0.098-0.464-0.064
										c-0.384,0.076-0.632,0.447-0.555,0.832c0.004,0.025,0.013,0.053,0.021,0.078l-14.561,7.598
										c-0.16-0.211-0.429-0.322-0.702-0.268c-0.205,0.041-0.367,0.166-0.467,0.33l-10.49-4.135
										c0.024-0.098,0.03-0.203,0.008-0.311c-0.077-0.383-0.448-0.631-0.831-0.555c-0.374,0.074-0.618,0.428-0.561,0.801
										l-12.227,5.137c-0.157-0.215-0.429-0.33-0.707-0.273c-0.383,0.076-0.632,0.449-0.554,0.832
										c0.056,0.283,0.274,0.494,0.541,0.553l0.449,10.09C97.049,55.759,96.806,56.13,96.882,56.509 M97.823,44.759
										c-0.006-0.033-0.017-0.066-0.026-0.098l11.04-4.639l1.149-0.482c0.019,0.037,0.04,0.074,0.063,0.107l-8,10.549
										l-4.394-4.826C97.799,45.21,97.87,44.987,97.823,44.759 M163.72,21.155c0.093-0.02,0.177-0.053,0.25-0.104l6.726,7.57
										l-7.188-6.131l0.117-1.324C163.656,21.165,163.689,21.161,163.72,21.155 M187.751,14.474l4.934,4.486l-4.157,3.07
										c-0.119-0.119-0.28-0.193-0.453-0.203l-0.587-7.195C187.588,14.599,187.678,14.544,187.751,14.474 M202.904,10.241
										c0.139-0.029,0.258-0.096,0.352-0.184l8.471,6.543c-0.041,0.074-0.069,0.154-0.083,0.242l-9.881,0.014l1.001-6.604
										C202.812,10.255,202.858,10.249,202.904,10.241 M122.014,65.53c-0.147-0.088-0.326-0.127-0.509-0.09
										c-0.158,0.031-0.294,0.113-0.393,0.227l-11.428-7.348c0.017-0.035,0.028-0.068,0.038-0.104l16.704,2.037L122.014,65.53z
										 M110.357,39.888l-1.365,17.436c-0.03,0.002-0.06,0.004-0.09,0.01c-0.093,0.02-0.181,0.057-0.256,0.107l-6.456-7.088
										l8.007-10.555C110.247,39.833,110.301,39.866,110.357,39.888 M108.545,58.532l-1.192,1.646l-8.949-3.656l9.93,1.504
										c0,0.047,0.004,0.092,0.014,0.139C108.377,58.312,108.448,58.438,108.545,58.532 M108.714,58.653
										c0.14,0.072,0.302,0.102,0.467,0.068c0.159-0.033,0.294-0.115,0.393-0.229l11.064,7.115l-13.087-5.348L108.714,58.653z
										 M110.64,58.116l9.599-0.082l7.628-0.066c0.002,0.01,0.002,0.018,0.004,0.027c0.025,0.129,0.085,0.242,0.164,0.332
										l-1.449,1.734L110.64,58.116z M128.195,58.46c0.146,0.09,0.325,0.127,0.506,0.09c0.07-0.014,0.134-0.035,0.191-0.068
										l1.221,1.672c-0.088,0.086-0.151,0.195-0.185,0.314l-3.098-0.377L128.195,58.46z M130.473,59.962
										c-0.069,0.014-0.131,0.037-0.19,0.068l-1.224-1.67c0.165-0.162,0.248-0.4,0.199-0.643c-0.017-0.08-0.046-0.152-0.084-0.219
										l7.244-5.834c0.004,0.002,0.006,0.004,0.008,0.006l-5.517,8.346C130.778,59.956,130.625,59.933,130.473,59.962
										 M144.911,27.526l6.462,1.59l-1.705,9.256c-0.054-0.002-0.109,0.002-0.165,0.014c-0.018,0.002-0.035,0.008-0.056,0.014
										l-4.804-10.549C144.765,27.772,144.857,27.659,144.911,27.526 M212.011,17.569l-4.957,13.994l-6.152-5.426
										c0.095-0.15,0.137-0.336,0.1-0.523c-0.013-0.068-0.036-0.133-0.068-0.189l10.907-7.982
										C211.89,17.493,211.949,17.536,212.011,17.569 M216.116,39.87l-9.766-3.908c0.024-0.096,0.028-0.199,0.008-0.303
										c-0.043-0.215-0.183-0.389-0.363-0.484l1.151-3.252l8.985,7.924C216.128,39.854,216.122,39.862,216.116,39.87
										 M197.669,29.655l2.287-3.289c0.146,0.082,0.315,0.115,0.49,0.08c0.034-0.008,0.065-0.016,0.098-0.027l4.699,8.811
										c-0.028,0.02-0.052,0.043-0.075,0.064L197.669,29.655z M191.572,38.048c-0.106-0.055-0.226-0.082-0.35-0.074l-2.955-14.777
										c0.099-0.035,0.187-0.092,0.256-0.162l8.86,6.664L191.572,38.048z M180.022,43.198c-0.026,0.021-0.048,0.045-0.071,0.068
										l-11.614-7.609l3.2-5.313c0.117,0.041,0.244,0.053,0.373,0.027c0.042-0.01,0.084-0.021,0.123-0.037l6.323,10.182
										L180.022,43.198z M137.479,50.739l8.35-7.904l8.747,8.006c-0.058,0.086-0.095,0.184-0.111,0.287l-16.866-0.084
										c-0.002-0.012-0.004-0.023-0.004-0.039C137.571,50.907,137.532,50.817,137.479,50.739 M171.135,29.985
										c0.051,0.105,0.127,0.195,0.218,0.262l-3.19,5.297l-5.05-3.311c0.127-0.143,0.194-0.334,0.175-0.533L171.135,29.985z
										 M205.525,35.104c-0.034,0.006-0.066,0.016-0.098,0.027l-4.695-8.814c0.01-0.008,0.02-0.016,0.032-0.023l6.216,5.48
										l-1.182,3.33C205.712,35.087,205.618,35.085,205.525,35.104 M155.024,50.542c-0.021,0.004-0.038,0.01-0.056,0.016
										l-4.83-10.637l-0.111-0.248c0.145-0.096,0.252-0.24,0.298-0.408l8.729,1.051l-3.748,10.229
										C155.215,50.524,155.121,50.522,155.024,50.542 M150.349,39.058c0-0.037-0.004-0.078-0.012-0.117
										c-0.008-0.041-0.021-0.082-0.036-0.119l2.81-1.615l8.856-5.092c0.018,0.031,0.037,0.061,0.062,0.09l-2.9,7.912
										L150.349,39.058z M162.19,32.356c0.054,0.035,0.109,0.061,0.169,0.082l1.332,4.4l1.051,3.467
										c-0.185,0.088-0.32,0.248-0.378,0.439l-5.024-0.604L162.19,32.356z M165.306,40.288c-0.113-0.045-0.238-0.061-0.363-0.043
										l-1.054-3.482l-1.299-4.289c0.042,0,0.087-0.004,0.131-0.014c0.082-0.016,0.157-0.047,0.225-0.086l5.11,3.348
										L165.306,40.288z M149.781,39.772c0.02-0.004,0.037-0.01,0.058-0.014l4.939,10.883c-0.022,0.016-0.042,0.029-0.062,0.045
										l-8.737-7.994l3.228-3.059C149.364,39.759,149.57,39.813,149.781,39.772 M155.501,50.614l3.766-10.273l5.068,0.611
										c0,0.043,0.006,0.088,0.014,0.133c0.022,0.107,0.067,0.201,0.127,0.283l-8.903,9.291
										C155.548,50.644,155.526,50.628,155.501,50.614 M165.484,40.394l2.745-4.557l11.608,7.605
										c-0.01,0.021-0.02,0.045-0.028,0.068l-14.06-2.555c0-0.051-0.004-0.1-0.014-0.15
										C165.703,40.638,165.609,40.493,165.484,40.394 M188.65,22.868c0.01-0.02,0.02-0.039,0.027-0.061l10.925,2.869
										c-0.006,0.068-0.004,0.141,0.011,0.213c0.027,0.137,0.091,0.256,0.181,0.348l-2.291,3.291L188.65,22.868z M171.075,29.786
										l-7.838,1.711c-0.088-0.211-0.272-0.367-0.49-0.418l0.738-8.334l7.687,6.559C171.085,29.44,171.047,29.61,171.075,29.786
										 M162.54,31.06c-0.031,0.004-0.065,0.006-0.097,0.014c-0.026,0.004-0.052,0.012-0.076,0.02l-7.819-15.871
										c0.021-0.016,0.041-0.029,0.062-0.049l8.682,7.406L162.54,31.06z M161.891,31.917l-11.694,6.725
										c-0.084-0.107-0.197-0.188-0.324-0.23l1.703-9.248l10.304,2.537c-0.008,0.066-0.004,0.135,0.01,0.205
										C161.889,31.907,161.891,31.913,161.891,31.917 M149.064,39.483l-3.24,3.066l-7.06-6.461
										c0.026-0.033,0.048-0.07,0.067-0.107l10.111,2.998c-0.012,0.076-0.01,0.156,0.006,0.238
										C148.969,39.317,149.009,39.405,149.064,39.483 M138.34,36.356c0.104-0.02,0.196-0.063,0.276-0.121l7.058,6.457
										l-8.338,7.896c-0.082-0.064-0.175-0.109-0.276-0.133l1.142-14.086C138.249,36.37,138.294,36.364,138.34,36.356
										 M137.598,51.253l16.864,0.084c0.002,0.012,0.004,0.023,0.006,0.039c0.074,0.361,0.407,0.602,0.767,0.564l2.91,11.324
										c-0.106,0.045-0.2,0.117-0.273,0.205l-20.319-12.057C137.573,51.36,137.588,51.308,137.598,51.253 M158.348,63.212
										l-2.911-11.324c0.292-0.123,0.473-0.43,0.426-0.752l6.714-2.006l-4.063,14.084
										C158.459,63.208,158.403,63.208,158.348,63.212 M155.803,50.937c-0.022-0.049-0.05-0.092-0.082-0.133l8.904-9.289
										c0.037,0.029,0.079,0.053,0.125,0.074l-2.106,7.303L155.803,50.937z M164.948,41.646c0.075,0.012,0.155,0.008,0.232-0.006
										c0.262-0.053,0.461-0.244,0.538-0.48l14.054,2.555c0,0.02,0,0.039,0,0.059l-16.891,5.049L164.948,41.646z M180.342,43.044
										c-0.052,0.01-0.099,0.025-0.143,0.043l-6.786-10.922l-1.201-1.936c0.048-0.037,0.088-0.078,0.124-0.125l11.075,5.086
										l-2.795,7.852C180.528,43.024,180.434,43.024,180.342,43.044 M172.435,29.921c0.044-0.115,0.056-0.244,0.032-0.373
										l14.965-6.639c0.065,0.105,0.156,0.189,0.264,0.246l-4.213,11.838L172.435,29.921z M187.89,23.226
										c0.056,0.01,0.113,0.014,0.173,0.012l2.956,14.777c-0.148,0.053-0.271,0.154-0.354,0.279l-6.994-3.213L187.89,23.226z
										 M191.743,38.167l5.807-8.344l7.493,5.637c-0.063,0.113-0.092,0.24-0.084,0.373l-13.037,2.607
										C191.884,38.333,191.822,38.241,191.743,38.167 M216.268,39.687l-9.045-7.975l4.984-14.072
										c0.054,0.01,0.107,0.014,0.163,0.012l4.115,21.904C216.404,39.587,216.331,39.632,216.268,39.687 M211.646,17.05
										c0,0.012,0.002,0.023,0.004,0.033c0.014,0.068,0.036,0.133,0.067,0.191l-10.907,7.98c-0.081-0.082-0.183-0.143-0.294-0.178
										l1.216-8.014L211.646,17.05z M200.31,25.046c-0.046-0.002-0.093,0.004-0.141,0.012c-0.004,0.002-0.01,0.004-0.017,0.006
										l-4.073-7.504c0.165-0.111,0.278-0.289,0.306-0.486l5.136-0.008L200.31,25.046z M195.825,17.663
										c0.021-0.004,0.043-0.01,0.065-0.016l4.067,7.49c-0.035,0.021-0.067,0.043-0.097,0.068l-6.85-6.227l2.122-1.568
										C195.295,17.61,195.557,17.718,195.825,17.663 M199.72,25.358c-0.018,0.027-0.033,0.055-0.047,0.082l-10.943-2.836
										c0.008-0.068,0.006-0.141-0.008-0.213c-0.014-0.068-0.038-0.133-0.069-0.193l4.188-3.094L199.72,25.358z M186.88,14.55
										c0.114,0.076,0.256,0.119,0.4,0.115l0.586,7.178c-0.369,0.086-0.607,0.451-0.532,0.826
										c0.004,0.018,0.008,0.033,0.012,0.051l-3.931,1.744l-11.016,4.887c-0.013-0.02-0.022-0.039-0.032-0.059L186.88,14.55z
										 M163.416,21.149l-0.104,1.176l-8.072-6.887l7.691,4.744c-0.054,0.127-0.072,0.271-0.044,0.418
										C162.943,20.88,163.157,21.085,163.416,21.149 M154.283,15.335c0.026-0.006,0.052-0.014,0.078-0.02l7.817,15.869
										c-0.111,0.078-0.198,0.188-0.25,0.313l-10.315-2.537l2.508-13.611C154.173,15.349,154.228,15.347,154.283,15.335
										 M153.916,15.31l-2.505,13.6l-6.448-1.586c0.006-0.066,0.002-0.135-0.012-0.203c-0.026-0.139-0.092-0.256-0.181-0.348
										l9.024-11.518C153.833,15.276,153.873,15.296,153.916,15.31 M144.395,27.95c0.021-0.004,0.04-0.008,0.058-0.014
										l4.805,10.549c-0.111,0.072-0.198,0.176-0.254,0.295l-10.105-2.996c0.015-0.084,0.015-0.172-0.002-0.26
										c-0.029-0.148-0.101-0.273-0.2-0.369l5.237-7.271C144.071,27.956,144.232,27.983,144.395,27.95 M137.98,36.335
										c0.004,0.002,0.01,0.002,0.016,0.004l-1.146,14.102c-0.029,0.002-0.062,0.004-0.091,0.012
										c-0.187,0.037-0.34,0.145-0.44,0.287l-3.753-1.879L137.98,36.335z M136.228,50.925c-0.037,0.111-0.048,0.234-0.023,0.359
										c0.016,0.078,0.046,0.152,0.083,0.219l-7.244,5.834c-0.031-0.029-0.069-0.059-0.105-0.08l3.546-8.205L136.228,50.925z
										 M128.745,57.175c-0.102-0.027-0.21-0.033-0.321-0.012c-0.016,0.004-0.032,0.008-0.046,0.014l-4.396-9.961l-1.197-2.715
										c0.082-0.053,0.151-0.121,0.205-0.201l9.309,4.658L128.745,57.175z M122.543,44.599c0.019-0.006,0.034-0.01,0.052-0.014
										l1.172,2.656l4.421,10.018c-0.014,0.008-0.023,0.016-0.036,0.021l-9.239-9.547l3.077-3.256
										C122.143,44.589,122.341,44.638,122.543,44.599 M128.003,57.427c-0.073,0.096-0.123,0.209-0.139,0.332l-5.789,0.051
										l-12.337,0.107c-0.002-0.01-0.002-0.018-0.004-0.027c-0.021-0.113-0.071-0.215-0.137-0.299l9.172-9.707L128.003,57.427z
										 M109.444,57.446c-0.073-0.051-0.154-0.088-0.244-0.107l1.362-17.4c0.065,0.004,0.133,0.002,0.2-0.012
										c0.082-0.016,0.155-0.047,0.225-0.088l7.637,7.895L109.444,57.446z M108.492,57.581c-0.056,0.068-0.102,0.15-0.128,0.238
										l-10.087-1.527c-0.003-0.02-0.006-0.039-0.009-0.061c-0.032-0.16-0.118-0.299-0.235-0.398l4.03-5.313L108.492,57.581z
										 M98.091,56.854c0.05-0.055,0.094-0.117,0.124-0.186l9.013,3.684l-3.015,4.156c-0.139-0.07-0.301-0.098-0.466-0.066
										c-0.065,0.014-0.127,0.037-0.183,0.064L98.091,56.854z M104.59,65.071c-0.001-0.023-0.005-0.049-0.011-0.072
										c-0.029-0.146-0.1-0.271-0.199-0.367l3.044-4.197l13.535,5.529c-0.004,0.01-0.006,0.018-0.008,0.027L104.59,65.071z
										 M122.186,65.681c-0.004-0.006-0.008-0.012-0.014-0.018l4.501-5.381l3.231,0.395c0,0.039,0.004,0.078,0.013,0.119
										c0.008,0.047,0.023,0.094,0.041,0.139L122.186,65.681z M158.859,63.362c-0.046-0.035-0.093-0.066-0.145-0.088l4.098-14.217
										l16.58-4.955L158.859,63.362z M181.068,43.347c-0.065-0.1-0.154-0.18-0.256-0.232l2.787-7.838l6.979,3.207
										c-0.03,0.105-0.038,0.221-0.014,0.334c0.004,0.023,0.01,0.045,0.016,0.066L181.068,43.347z M202.358,10.124
										c0.062,0.043,0.129,0.076,0.2,0.1l-1.006,6.633l-5.168,0.008c-0.002-0.012-0.002-0.021-0.004-0.033
										c-0.023-0.111-0.071-0.211-0.137-0.297L202.358,10.124z M194.997,16.813c-0.021,0.094-0.025,0.193-0.006,0.295
										c0.01,0.043,0.021,0.082,0.038,0.121l-2.174,1.605l-4.976-4.525c0.008-0.014,0.016-0.029,0.024-0.043L194.997,16.813z
										 M186.598,14.187c0.029,0.084,0.071,0.16,0.125,0.225l-14.496,14.725c-0.157-0.133-0.373-0.195-0.594-0.152
										c-0.092,0.02-0.175,0.055-0.248,0.102l-7.261-8.17c0.123-0.146,0.183-0.34,0.159-0.541l22.318-6.174L186.598,14.187z
										 M137.621,36.067c0.048,0.068,0.107,0.125,0.175,0.174l-5.416,12.525l-9.301-4.654c0.034-0.109,0.042-0.227,0.021-0.348
										c-0.011-0.037-0.021-0.072-0.032-0.105L137.621,36.067z M121.718,43.731c-0.024,0.1-0.028,0.205-0.008,0.311
										c0.023,0.109,0.067,0.205,0.131,0.289l-3.073,3.252l-7.619-7.877c0.029-0.031,0.058-0.07,0.081-0.109L121.718,43.731z
										 M97.27,45.591c0.081-0.018,0.156-0.047,0.224-0.088l4.428,4.861l-4.064,5.359c-0.069-0.031-0.145-0.051-0.222-0.057
										l-0.447-10.064C97.215,45.601,97.241,45.597,97.27,45.591"/>
								</g>
							</g>
						</g>
						<g opacity="0.1" clip-path="url(#SVGID_15_)">
							<g>
								<defs>
									<rect id="SVGID_48_" x="108.896" y="-4.632" width="85.424" height="55.371"/>
								</defs>
								<clipPath id="SVGID_21_">
									<use xlink:href="#SVGID_48_"  overflow="visible"/>
								</clipPath>
								<g clip-path="url(#SVGID_21_)">
									<defs>
										<rect id="SVGID_50_" x="108.896" y="-4.632" width="85.424" height="55.371"/>
									</defs>
									<clipPath id="SVGID_23_">
										<use xlink:href="#SVGID_50_"  overflow="visible"/>
									</clipPath>
									<path clip-path="url(#SVGID_23_)" fill="#5BC7D4" d="M192.948,2.142l-4.552-5.93c0.123-0.16,0.146-0.383,0.043-0.57
										c-0.139-0.252-0.458-0.348-0.71-0.207c-0.185,0.102-0.284,0.295-0.271,0.492l-9.37,2.916
										c-0.146-0.24-0.453-0.324-0.699-0.189c-0.254,0.139-0.347,0.457-0.208,0.711c0.041,0.072,0.093,0.129,0.154,0.174
										l-3.972,7.338c-0.134-0.047-0.286-0.039-0.421,0.035c-0.183,0.1-0.28,0.291-0.271,0.486l-11.866,2.633
										c-0.008-0.018-0.016-0.037-0.025-0.055c-0.139-0.254-0.457-0.346-0.711-0.207c-0.107,0.061-0.187,0.152-0.23,0.258
										l-6.43-1.621c0.012-0.102-0.008-0.209-0.062-0.305c-0.139-0.254-0.457-0.346-0.711-0.207
										c-0.115,0.063-0.196,0.164-0.238,0.277l-10.595-2.223c0.006-0.096-0.015-0.193-0.063-0.283
										c-0.14-0.254-0.457-0.346-0.711-0.207s-0.348,0.457-0.207,0.711c0.052,0.096,0.131,0.17,0.223,0.215l-2.247,6.809
										c-0.113-0.018-0.232-0.002-0.342,0.059c-0.219,0.119-0.317,0.373-0.25,0.604l-15.58,7.133l0.031,0.07l0,0
										c-0.139-0.254-0.458-0.348-0.71-0.207c-0.255,0.139-0.346,0.457-0.209,0.711c0.032,0.055,0.071,0.102,0.115,0.143
										l-2.81,4.828c-0.135-0.049-0.293-0.043-0.431,0.033c-0.131,0.072-0.22,0.191-0.254,0.326l-6.518-0.719
										c-0.004-0.078-0.023-0.158-0.063-0.232c-0.139-0.252-0.459-0.346-0.711-0.207c-0.254,0.141-0.345,0.457-0.208,0.711
										c0.063,0.115,0.162,0.195,0.273,0.236l-1.677,7.742c-0.098-0.008-0.197,0.012-0.288,0.063
										c-0.252,0.139-0.346,0.457-0.207,0.711c0.127,0.232,0.405,0.33,0.646,0.236l8.102,14.363
										c-0.204,0.154-0.271,0.439-0.145,0.672c0.139,0.252,0.456,0.346,0.711,0.207c0.252-0.139,0.345-0.459,0.206-0.711
										c-0.038-0.066-0.085-0.121-0.143-0.166l3.669-6.865c0.137,0.047,0.291,0.041,0.429-0.033
										c0.229-0.127,0.327-0.402,0.24-0.643l8.621-4.73c0.155,0.201,0.439,0.268,0.67,0.143c0.19-0.105,0.289-0.314,0.268-0.52
										l7.512-2.002c0.007,0.014,0.015,0.029,0.022,0.043c0.139,0.254,0.456,0.348,0.711,0.207
										c0.226-0.123,0.325-0.395,0.242-0.633l21.087,1.143c0.006,0.068,0.028,0.139,0.063,0.205
										c0.139,0.252,0.457,0.344,0.711,0.205c0.252-0.139,0.346-0.457,0.206-0.711c-0.052-0.094-0.127-0.164-0.216-0.211
										l5.763-16.508c0.115,0.023,0.24,0.008,0.352-0.055c0.102-0.057,0.177-0.141,0.223-0.238l7.099,2.098
										c-0.016,0.109,0.002,0.223,0.06,0.326c0.14,0.254,0.457,0.346,0.711,0.207c0.173-0.096,0.272-0.277,0.272-0.461l6.66-1.014
										c0.012,0.033,0.025,0.066,0.042,0.096c0.139,0.256,0.458,0.348,0.711,0.209c0.256-0.141,0.347-0.457,0.208-0.711
										c-0.01-0.018-0.02-0.033-0.027-0.047l8.826-8.314c0.158,0.127,0.385,0.154,0.575,0.049
										c0.255-0.139,0.348-0.457,0.207-0.713c-0.088-0.16-0.25-0.258-0.423-0.268l-0.544-6.934
										c0.054-0.01,0.109-0.027,0.158-0.057c0.255-0.139,0.346-0.459,0.207-0.711C193.516,2.101,193.2,2.007,192.948,2.142
										 M187.91-3.589l-0.191,4.826l-9.557-2.162c0-0.031-0.006-0.061-0.014-0.092l0.879-0.273l8.464-2.633
										c0.01,0.023,0.018,0.047,0.029,0.068C187.604-3.704,187.751-3.61,187.91-3.589 M139.021,14.128l0.697,0.693l-1.149,6.896
										l0.204-7.49c0.063-0.008,0.127-0.027,0.188-0.061C138.983,14.157,139.003,14.144,139.021,14.128 M122.395,21.794
										l3.095,4.354c-0.093,0.088-0.148,0.209-0.158,0.334l-3.816,0.24l0.655-4.891C122.245,21.835,122.323,21.823,122.395,21.794
										 M111.658,26.593l3.713,3.262l-5.603,4.699c-0.048-0.043-0.104-0.076-0.163-0.1l1.68-7.738
										c0.097,0.006,0.196-0.014,0.288-0.063C111.603,26.636,111.633,26.614,111.658,26.593 M178.704,18.542l8.491-9.107
										c0.021,0.014,0.043,0.027,0.067,0.039l-2.968,9.605c-0.111-0.018-0.229,0-0.332,0.057
										c-0.121,0.066-0.202,0.174-0.244,0.295L178.704,18.542z M178.15-0.771l9.563,2.164l-0.279,7.09
										c-0.067,0.006-0.133,0.025-0.195,0.061c-0.02,0.012-0.039,0.023-0.055,0.037l-9.079-9.223
										C178.124-0.683,178.143-0.726,178.15-0.771 M187.949,8.751c-0.016-0.031-0.037-0.061-0.06-0.086l4.908-5.582l-3.326,6.334
										l-1.461-0.363C188.021,8.952,188.001,8.847,187.949,8.751 M189.398,9.558l-4.863,9.264l2.876-9.301
										c0.109,0.016,0.227,0,0.332-0.059c0.107-0.061,0.188-0.152,0.23-0.26L189.398,9.558z M178.523,18.511l-1.647-0.291
										c0.002-0.09-0.019-0.182-0.063-0.266c-0.004-0.006-0.008-0.012-0.012-0.02l4.352-3.594l5.475-4.525L178.523,18.511z
										 M178.398,18.644l-1.574,1.691c-0.075-0.053-0.163-0.084-0.254-0.09l-0.105-1.529c0.048-0.01,0.096-0.027,0.141-0.053
										c0.119-0.066,0.203-0.17,0.244-0.291L178.398,18.644z M176.054,20.546l-7.102-2.1c0.002-0.002,0.002-0.004,0.002-0.006
										l6.884-0.146c0.01,0.055,0.027,0.111,0.057,0.164c0.088,0.16,0.247,0.256,0.417,0.27l0.104,1.527
										c-0.048,0.01-0.093,0.027-0.139,0.051C176.175,20.362,176.1,20.448,176.054,20.546 M152.955,8.872l2.304,8.262
										c-0.015,0.006-0.026,0.012-0.038,0.02c-0.038,0.02-0.069,0.043-0.1,0.07l-5.374-4.43l2.9-3.977
										C152.741,8.864,152.849,8.884,152.955,8.872 M109.943,34.985l9.978-0.674c0.012,0.047,0.027,0.094,0.052,0.139
										c0.069,0.125,0.181,0.211,0.308,0.25l-0.901,6.004l-9.474-5.564C109.925,35.091,109.939,35.04,109.943,34.985
										 M118.184,49.718l1.314-8.766l2.199,1.291c-0.056,0.143-0.051,0.305,0.028,0.449c0.037,0.068,0.087,0.123,0.146,0.166
										l-3.669,6.865C118.197,49.722,118.191,49.72,118.184,49.718 M122.226,41.917c-0.025-0.002-0.05-0.002-0.073,0l-1.537-7.229
										c0.024-0.008,0.046-0.018,0.068-0.029c0.117-0.064,0.198-0.164,0.24-0.279l2.862,0.771L122.226,41.917z M123.969,35.042
										l1.843-7.996c0.073,0.008,0.148-0.004,0.222-0.029l5.366,9.775c-0.075,0.057-0.129,0.127-0.165,0.207L123.969,35.042z
										 M139.896,32.104l-1.269-8.779c0.027-0.01,0.058-0.021,0.085-0.037c0.086-0.047,0.151-0.113,0.199-0.193l4.344,1.486
										l-2.952,9.842c-0.026-0.004-0.048-0.008-0.074-0.008L139.896,32.104z M167.978,18.626c0.004,0.01,0.008,0.016,0.015,0.025
										l-9.512,8.08c-0.058-0.051-0.127-0.088-0.2-0.109l1.142-8.701l8.494,0.5C167.92,18.493,167.94,18.562,167.978,18.626
										 M144.23,19.933c0.085,0.123,0.212,0.199,0.354,0.219l-1.285,4.281l-4.329-1.479c0.02-0.084,0.02-0.17-0.002-0.256
										L144.23,19.933z M121.777,42.11l-2.256-1.324l0.909-6.063c0.011,0,0.021-0.002,0.03-0.002l1.54,7.227
										c-0.023,0.01-0.047,0.02-0.069,0.031C121.87,42.015,121.818,42.06,121.777,42.11 M157.726,26.802l-6.996-4.006l4.445-4.754
										c0.105,0.072,0.234,0.105,0.361,0.09l0.056,0.193l2.331,8.324c-0.013,0.006-0.026,0.01-0.038,0.018
										C157.821,26.702,157.768,26.749,157.726,26.802 M150.595,22.718l-5.411-3.1c0-0.027-0.005-0.053-0.009-0.08l7.441-1.336
										l2.36-0.424c0.008,0.029,0.02,0.059,0.035,0.086c0.017,0.027,0.032,0.051,0.05,0.074L150.595,22.718z M150.485,22.833
										l-2.557,2.734c-0.125-0.08-0.278-0.107-0.423-0.068l-1.058-2.463l-1.343-3.127c0.026-0.039,0.044-0.082,0.058-0.125
										L150.485,22.833z M143.444,24.483l1.3-4.334c0.058-0.008,0.113-0.027,0.169-0.055c0.03-0.018,0.056-0.035,0.081-0.057
										l1.309,3.049l1.061,2.473c-0.08,0.051-0.144,0.119-0.185,0.197L143.444,24.483z M155.983,17.72l3.283,0.193l-1.14,8.689
										c-0.018,0-0.038,0.002-0.056,0.004l-2.386-8.516c0.012-0.008,0.025-0.012,0.037-0.02
										C155.862,17.993,155.953,17.864,155.983,17.72 M157.631,26.995l-9.47-1.02c-0.002-0.076-0.023-0.152-0.062-0.223
										c-0.018-0.031-0.036-0.057-0.058-0.082l2.581-2.76l7.027,4.025C157.641,26.954,157.635,26.974,157.631,26.995
										 M147.181,26.257c0.02,0.033,0.039,0.063,0.062,0.09l-6.744,8.145c-0.016-0.008-0.032-0.02-0.048-0.025l2.95-9.838
										l3.727,1.273C147.103,26.019,147.119,26.144,147.181,26.257 M123.82,35.001l-2.865-0.771
										c0.004-0.096-0.014-0.191-0.063-0.281c-0.025-0.049-0.06-0.092-0.098-0.127l4.822-6.828c0.017,0.006,0.03,0.014,0.044,0.02
										L123.82,35.001z M138.622,22.331l1.23-7.375l4.388,4.369c-0.1,0.133-0.129,0.309-0.077,0.469l-5.255,2.764
										C138.84,22.446,138.737,22.37,138.622,22.331 M139.885,14.769l1.388-8.328c0.02,0,0.039,0,0.06-0.002l3.131,12.711
										c-0.021,0.01-0.036,0.018-0.054,0.027c-0.022,0.012-0.042,0.023-0.062,0.039L139.885,14.769z M145.119,19.384
										c-0.025-0.047-0.055-0.086-0.091-0.121l4.628-6.346l5.368,4.426c-0.054,0.084-0.08,0.186-0.076,0.285l-9.824,1.764
										C145.122,19.39,145.119,19.386,145.119,19.384 M155.93,17.36c-0.028-0.055-0.065-0.1-0.109-0.139l4.298-6.512
										c0.028,0.012,0.058,0.021,0.09,0.027l-0.922,7.023l-3.293-0.195C155.987,17.495,155.965,17.425,155.93,17.36 M160.66,10.63
										l7.357,7.43c-0.046,0.064-0.079,0.135-0.094,0.209l-8.482-0.5l0.919-7.02c0.073-0.004,0.147-0.025,0.215-0.063
										C160.606,10.669,160.635,10.649,160.66,10.63 M168.192,18.837l-5.764,16.508c-0.081-0.016-0.168-0.012-0.252,0.014
										l-3.746-7.799c0.221-0.15,0.296-0.445,0.165-0.686c-0.004-0.01-0.01-0.018-0.014-0.023l9.509-8.082
										C168.123,18.796,168.156,18.819,168.192,18.837 M161.944,35.507l-9.009-6.043l4.757-2.063
										c0.127,0.205,0.375,0.295,0.6,0.225l3.746,7.799C162.002,35.448,161.973,35.476,161.944,35.507 M152.782,29.362
										l-4.671-3.133c0.016-0.033,0.028-0.066,0.036-0.104l9.468,1.021c0,0.039,0.006,0.076,0.016,0.113L152.782,29.362z
										 M152.616,29.435l-11.974,5.188c-0.008-0.012-0.016-0.021-0.025-0.033l6.742-8.143c0.156,0.1,0.359,0.113,0.531,0.018
										c0.054-0.027,0.098-0.066,0.136-0.107L152.616,29.435z M139.819,34.612l-5.323-3.117l3.85-8.156
										c0.042,0.01,0.086,0.014,0.129,0.014l0.24,1.666l1.362,9.418c-0.034,0.012-0.069,0.025-0.102,0.045
										C139.914,34.513,139.86,34.56,139.819,34.612 M134.363,31.417l-8.026-4.697c0.034-0.082,0.046-0.174,0.034-0.264
										l11.634-3.369c0.049,0.084,0.117,0.15,0.196,0.195L134.363,31.417z M134.296,31.556l-2.43,5.154
										c-0.105-0.035-0.223-0.031-0.332,0.01l-5.366-9.777c0.034-0.027,0.066-0.057,0.092-0.09L134.296,31.556z M131.223,37.39
										l-8.622,4.734c-0.06-0.08-0.139-0.137-0.226-0.172l1.558-6.762l7.263,1.959C131.186,37.229,131.195,37.312,131.223,37.39
										 M117.847,49.722l-8.104-14.365c0.032-0.023,0.062-0.053,0.086-0.084l9.527,5.594l-1.324,8.826
										C117.97,49.69,117.906,49.7,117.847,49.722 M115.487,29.958l4.505,3.957c-0.048,0.072-0.073,0.156-0.081,0.242l-9.98,0.676
										c-0.01-0.047-0.025-0.096-0.051-0.141c-0.005-0.008-0.009-0.014-0.015-0.021L115.487,29.958z M115.606,29.856l2.913-2.441
										c0.109,0.098,0.258,0.145,0.404,0.129l1.267,6.191c-0.004,0.002-0.008,0.002-0.01,0.004
										c-0.031,0.02-0.06,0.039-0.087,0.061L115.606,29.856z M119.389,27.011l1.947-0.123l-0.911,6.787
										c-0.029,0-0.06,0.004-0.087,0.01l-1.265-6.18c0.014-0.008,0.029-0.014,0.044-0.021
										C119.296,27.386,119.393,27.2,119.389,27.011 M121.493,26.878l3.848-0.244c0.01,0.049,0.027,0.096,0.052,0.143
										c0.025,0.049,0.06,0.09,0.097,0.125l-4.848,6.818c-0.02-0.008-0.042-0.016-0.063-0.023L121.493,26.878z M137.943,22.896
										c0.002,0.014,0.004,0.029,0.008,0.047l-8.566,2.479l-3.058,0.887c-0.006-0.012-0.01-0.023-0.016-0.035
										c-0.137-0.248-0.447-0.342-0.697-0.213l-3.085-4.344c0.084-0.068,0.141-0.158,0.171-0.258L137.943,22.896z M139.168,13.456
										c-0.054-0.094-0.131-0.17-0.223-0.215l2.097-6.352l-1.292,7.746l-0.62-0.617C139.247,13.86,139.27,13.642,139.168,13.456
										 M141.632,6.308l7.903,6.514l-4.632,6.35c-0.09-0.047-0.19-0.066-0.292-0.057L141.48,6.401
										c0.018-0.008,0.036-0.016,0.054-0.025C141.57,6.356,141.602,6.331,141.632,6.308 M141.772,6.099l10.596,2.223
										c-0.006,0.096,0.014,0.191,0.063,0.283c0.023,0.047,0.056,0.086,0.091,0.121l-2.896,3.971l-7.896-6.51
										C141.747,6.159,141.761,6.13,141.772,6.099 M153.372,8.554l6.431,1.623c-0.01,0.102,0.008,0.207,0.063,0.305
										c0.029,0.057,0.073,0.107,0.121,0.146l-4.294,6.51c-0.09-0.041-0.188-0.057-0.286-0.045l-2.303-8.262
										c0.012-0.008,0.025-0.014,0.037-0.02C153.251,8.751,153.329,8.659,153.372,8.554 M169.801,15.019l-1.231,2.85
										c-0.125-0.031-0.262-0.02-0.385,0.047c-0.021,0.012-0.04,0.023-0.058,0.037l-7.365-7.439
										c0.004-0.004,0.004-0.006,0.006-0.01L169.801,15.019z M169.939,15.087l5.918,2.957c-0.012,0.031-0.02,0.063-0.024,0.096
										l-6.881,0.146c-0.01-0.057-0.027-0.111-0.058-0.162c-0.045-0.084-0.108-0.148-0.183-0.195L169.939,15.087z M170.001,14.944
										l3.051-7.07c0.07,0.018,0.142,0.023,0.213,0.016l0.613,2.105l2.255,7.734c-0.01,0.006-0.02,0.01-0.031,0.016
										c-0.073,0.041-0.133,0.096-0.177,0.16L170.001,14.944z M173.703,7.497l3.294,0.379l-0.686,9.807
										c-0.01,0-0.02,0.002-0.029,0.004l-2.27-7.779l-0.602-2.063c0.013-0.004,0.024-0.01,0.036-0.016
										C173.58,7.757,173.668,7.634,173.703,7.497 M177.149,7.892l9.817,1.129c0.004,0.08,0.023,0.16,0.063,0.234
										c0.004,0.008,0.008,0.012,0.012,0.018l-7.035,5.814l-3.304,2.729c-0.067-0.061-0.151-0.1-0.238-0.121L177.149,7.892z
										 M177.159,7.737l0.566-8.107c0.058-0.01,0.113-0.027,0.167-0.059c0.045-0.023,0.085-0.055,0.119-0.088l9.061,9.205
										c-0.04,0.055-0.069,0.115-0.088,0.178L177.159,7.737z M187.866,1.429l4.813,1.088c-0.019,0.113-0.002,0.23,0.058,0.338
										c0.006,0.014,0.016,0.025,0.023,0.039l-4.985,5.668c-0.058-0.035-0.121-0.061-0.187-0.074L187.866,1.429z M193.679,10.062
										c-0.046,0.012-0.091,0.027-0.135,0.053c-0.107,0.059-0.188,0.152-0.232,0.258l-3.687-0.916l3.35-6.379
										c0.049,0.023,0.103,0.039,0.158,0.047L193.679,10.062z M184.539,19.185c-0.004-0.004-0.01-0.008-0.017-0.01l5.029-9.58
										l3.722,0.928c-0.008,0.102,0.013,0.207,0.064,0.303c0.008,0.016,0.018,0.031,0.027,0.047L184.539,19.185z M177.028,20.612
										c-0.01-0.033-0.023-0.066-0.041-0.098c-0.015-0.027-0.032-0.053-0.05-0.074l1.642-1.764l5.112,0.906
										c0,0.004,0,0.01,0,0.016L177.028,20.612z M141.016,34.628l11.751-5.092l9.093,6.098c-0.02,0.039-0.032,0.078-0.04,0.121
										L141.016,34.628z M132.195,37.001c-0.006-0.014-0.014-0.029-0.021-0.043c-0.042-0.078-0.102-0.139-0.169-0.184l2.426-5.141
										l5.311,3.109c-0.031,0.08-0.043,0.168-0.033,0.254L132.195,37.001z M118.343,27.044c0.002,0.078,0.023,0.158,0.063,0.232
										l0.014,0.021l-2.93,2.457l-3.73-3.277c0.031-0.047,0.052-0.098,0.065-0.152L118.343,27.044z M121.985,21.786
										c0.01,0.006,0.022,0.01,0.034,0.014l-0.661,4.932l-1.997,0.127c-0.008-0.029-0.022-0.059-0.038-0.086
										c-0.036-0.066-0.085-0.121-0.143-0.166L121.985,21.786z M122.69,21.126l15.58-7.133c0.081,0.125,0.208,0.207,0.348,0.23
										l-0.221,8.086c-0.062,0.008-0.127,0.027-0.188,0.061c-0.145,0.078-0.238,0.219-0.264,0.369l-15.222-1.434
										c-0.002-0.063-0.014-0.125-0.037-0.188L122.69,21.126z M172.703,7.546c0.01,0.027,0.02,0.053,0.033,0.076
										c0.044,0.08,0.105,0.143,0.175,0.189l-3.049,7.064l-9.033-4.516c0.016-0.057,0.021-0.119,0.016-0.18L172.703,7.546z
										 M177.474-0.392c0.031,0.012,0.063,0.018,0.097,0.023l-0.563,8.09l-3.29-0.379c-0.004-0.074-0.023-0.154-0.063-0.225
										c-0.037-0.07-0.091-0.129-0.152-0.174L177.474-0.392z M188.285-3.681l4.54,5.912c-0.042,0.041-0.075,0.088-0.1,0.139
										l-4.854-1.1l0.19-4.859c0.06-0.01,0.115-0.029,0.169-0.059C188.251-3.657,188.268-3.669,188.285-3.681"/>
								</g>
							</g>
						</g>
						<path clip-path="url(#SVGID_15_)" fill="#5BC7D4" d="M125.72,65.622l7.911,4.637c-0.065,0.236,0.01,0.502,0.215,0.67
							c0.273,0.223,0.679,0.182,0.903-0.094c0.16-0.199,0.185-0.467,0.079-0.684l9.303-7.641c0.276,0.203,0.663,0.158,0.882-0.109
							c0.224-0.275,0.183-0.68-0.094-0.904c-0.075-0.063-0.163-0.102-0.254-0.125l1.126-10.174c0.175-0.012,0.345-0.09,0.462-0.236
							c0.161-0.195,0.185-0.459,0.084-0.676l12.269-8.473c0.016,0.018,0.036,0.035,0.054,0.051c0.275,0.225,0.679,0.182,0.903-0.094
							c0.097-0.119,0.143-0.258,0.145-0.4l8.057-1.125c0.033,0.121,0.104,0.232,0.21,0.316c0.276,0.225,0.679,0.182,0.903-0.092
							c0.102-0.125,0.149-0.277,0.144-0.426l13.068-2.365c0.038,0.109,0.105,0.213,0.202,0.291c0.276,0.225,0.68,0.182,0.903-0.092
							c0.225-0.277,0.183-0.682-0.091-0.904c-0.107-0.086-0.229-0.133-0.355-0.143l-0.59-8.775c0.14-0.029,0.267-0.105,0.363-0.223
							c0.193-0.236,0.187-0.57,0.006-0.801l14.413-15.303l-0.069-0.066l0,0c0.276,0.225,0.681,0.184,0.905-0.092
							c0.223-0.275,0.181-0.68-0.093-0.904c-0.062-0.049-0.128-0.084-0.197-0.107l0.961-6.787c0.181-0.006,0.355-0.086,0.479-0.236
							c0.115-0.143,0.159-0.316,0.137-0.486l7.739-2.195c0.039,0.09,0.099,0.17,0.179,0.234c0.275,0.225,0.681,0.182,0.905-0.092
							c0.224-0.275,0.183-0.68-0.094-0.904c-0.123-0.1-0.273-0.146-0.421-0.143l-1.666-9.572c0.113-0.037,0.217-0.105,0.296-0.205
							c0.225-0.273,0.183-0.68-0.091-0.904c-0.254-0.205-0.613-0.186-0.844,0.029l-15.843-12.582c0.165-0.27,0.109-0.625-0.143-0.83
							c-0.276-0.223-0.679-0.182-0.903,0.094s-0.183,0.678,0.094,0.902c0.071,0.059,0.152,0.1,0.236,0.123l-0.999,9.498
							c-0.177,0.008-0.35,0.086-0.471,0.234c-0.202,0.252-0.187,0.605,0.026,0.838l-7.618,9.361
							c-0.268-0.16-0.621-0.104-0.823,0.146c-0.171,0.209-0.188,0.49-0.067,0.713l-7.612,5.746
							c-0.016-0.014-0.029-0.027-0.045-0.041c-0.276-0.223-0.68-0.182-0.903,0.094c-0.201,0.246-0.187,0.6,0.018,0.83l-24.496,8.441
							c-0.04-0.076-0.093-0.145-0.165-0.203c-0.273-0.223-0.679-0.182-0.903,0.094c-0.224,0.275-0.183,0.68,0.094,0.904
							c0.102,0.082,0.221,0.129,0.342,0.141l1.071,21.42c-0.141,0.029-0.273,0.105-0.371,0.225
							c-0.089,0.111-0.137,0.242-0.143,0.375l-9.039,0.895c-0.031-0.131-0.105-0.252-0.217-0.344
							c-0.275-0.223-0.679-0.182-0.903,0.094c-0.152,0.189-0.183,0.439-0.097,0.648l-7.104,4.23
							c-0.025-0.033-0.058-0.064-0.091-0.092c-0.276-0.225-0.682-0.184-0.903,0.092c-0.225,0.275-0.183,0.68,0.093,0.902
							c0.019,0.016,0.036,0.029,0.054,0.041l-6.194,13.525c-0.239-0.07-0.508,0.006-0.677,0.211
							c-0.224,0.275-0.181,0.68,0.094,0.904c0.177,0.143,0.405,0.178,0.605,0.111l3.821,7.627c-0.058,0.037-0.111,0.082-0.156,0.139
							c-0.223,0.275-0.181,0.68,0.093,0.902C125.095,65.933,125.493,65.892,125.72,65.622 M134.094,69.808l-2.014-5.574
							l11.858-1.953c0.018,0.033,0.038,0.064,0.06,0.096l-0.874,0.719l-8.401,6.898c-0.021-0.021-0.044-0.043-0.067-0.063
							C134.49,69.798,134.282,69.759,134.094,69.808 M181.474,27.095l-1.111-0.467l-1.879-8.367l3.229,8.605
							c-0.069,0.039-0.135,0.092-0.187,0.156C181.505,27.046,181.489,27.071,181.474,27.095 M196.831,10.706l-5.526-3.52
							c0.063-0.145,0.071-0.307,0.025-0.451l4.227-2.039l1.511,5.863C196.98,10.589,196.899,10.638,196.831,10.706 M206.817,0.292
							L201.092-1.7l4.199-7.926c0.073,0.025,0.152,0.037,0.228,0.035l1.666,9.572c-0.111,0.039-0.217,0.105-0.296,0.203
							C206.861,0.22,206.837,0.255,206.817,0.292 M134.334,40.403l-5.441,14.271c-0.034-0.006-0.066-0.012-0.1-0.014l-1.059-12.287
							c0.132-0.031,0.257-0.104,0.35-0.219c0.105-0.131,0.151-0.289,0.142-0.445L134.334,40.403z M143.881,62.099l-11.866,1.955
							l-2.956-8.186c0.072-0.039,0.14-0.094,0.193-0.16c0.018-0.021,0.033-0.043,0.047-0.066l14.576,6.289
							C143.869,61.985,143.873,62.044,143.881,62.099 M128.349,55.802c0.035,0.027,0.069,0.049,0.106,0.068l-2.999,8.611
							l0.855-8.734l1.828-0.262C128.174,55.606,128.245,55.716,128.349,55.802 M126.329,55.554l1.251-12.773l1.026,11.898
							c-0.135,0.031-0.258,0.104-0.352,0.219c-0.096,0.119-0.141,0.26-0.141,0.402L126.329,55.554z M134.554,40.354l2.008-0.428
							c0.037,0.102,0.103,0.197,0.194,0.271c0.008,0.006,0.016,0.012,0.021,0.016l-3.283,6.098l-4.136,7.67L134.554,40.354z
							 M134.634,40.144l1.01-2.645c0.109,0.023,0.225,0.018,0.332-0.016l0.824,1.688c-0.05,0.035-0.096,0.076-0.136,0.123
							c-0.106,0.133-0.152,0.291-0.143,0.447L134.634,40.144z M136.422,36.903l9.037-0.895c0.002,0.002,0.002,0.006,0.004,0.01
							l-7.754,3.344c-0.038-0.059-0.084-0.113-0.142-0.158c-0.175-0.143-0.4-0.178-0.6-0.115l-0.823-1.688
							c0.05-0.035,0.095-0.076,0.135-0.125C136.368,37.167,136.416,37.034,136.422,36.903 M168.065,39.505l-6.435-8.326
							c0.014-0.014,0.026-0.027,0.036-0.041c0.031-0.039,0.06-0.082,0.079-0.125l8.155,2.551l-1.459,5.863
							C168.312,39.413,168.183,39.44,168.065,39.505 M204.892-10.038l-11.028,5.375c-0.033-0.049-0.075-0.096-0.125-0.135
							c-0.135-0.111-0.302-0.156-0.462-0.143l-1.749-7.238l13.335,1.949C204.862-10.165,204.872-10.101,204.892-10.038
							 M188.722-22.976l2.555,10.57l-3.097-0.453c-0.002-0.186-0.081-0.371-0.238-0.496c-0.073-0.061-0.156-0.102-0.244-0.123
							l0.999-9.498C188.704-22.976,188.714-22.976,188.722-22.976 M187.731-12.245c0.027-0.01,0.056-0.02,0.083-0.033l5.084,7.506
							c-0.021,0.02-0.043,0.043-0.063,0.066c-0.101,0.125-0.148,0.277-0.143,0.426l-3.607,0.447L187.731-12.245z M188.926-3.624
							l1.599,9.936c-0.088,0.029-0.169,0.074-0.238,0.139l-10.615-8.635c0.06-0.098,0.088-0.203,0.092-0.311L188.926-3.624z
							 M172.179,7.069l5.497,9.391c-0.029,0.023-0.056,0.053-0.081,0.082c-0.076,0.094-0.121,0.201-0.138,0.311l-5.62,0.318
							l-1.19-12.547c0.029-0.008,0.057-0.018,0.085-0.027L172.179,7.069z M146.487,35.353c-0.01-0.006-0.02-0.012-0.027-0.02
							l7.077-13.576c0.089,0.031,0.185,0.041,0.28,0.031l2.72,10.416l-9.883,3.354C146.614,35.481,146.559,35.411,146.487,35.353
							 M172.873,22.903c-0.152-0.1-0.333-0.127-0.502-0.086l-0.518-5.457l5.604-0.318c0.017,0.104,0.056,0.201,0.119,0.287
							L172.873,22.903z M188.152-12.671l3.172,0.463l1.767,7.313c-0.01,0.004-0.021,0.01-0.031,0.014l-5.088-7.502
							c0.021-0.021,0.043-0.043,0.063-0.068C188.091-12.519,188.128-12.593,188.152-12.671 M154.363,21.329l9.801,1.324
							l-2.856,7.453c-0.153-0.035-0.313-0.012-0.453,0.064l-0.15-0.193l-6.494-8.383c0.012-0.014,0.024-0.025,0.036-0.039
							C154.302,21.485,154.341,21.409,154.363,21.329 M164.354,22.679l7.582,1.023c0.014,0.029,0.027,0.059,0.046,0.086l-7.84,4.955
							l-2.485,1.57c-0.026-0.027-0.052-0.055-0.082-0.08c-0.029-0.021-0.06-0.043-0.091-0.061L164.354,22.679z M164.424,22.497
							l1.645-4.291c0.179,0.037,0.365-0.006,0.512-0.117l2.341,2.311l2.968,2.936c-0.008,0.057-0.012,0.113-0.006,0.17
							L164.424,22.497z M171.664,17.37l0.524,5.523c-0.062,0.035-0.117,0.084-0.165,0.143c-0.025,0.031-0.047,0.066-0.067,0.102
							l-2.895-2.861l-2.349-2.32c0.069-0.096,0.109-0.203,0.119-0.313L171.664,17.37z M160.539,30.847l-3.823,1.297L154,21.739
							c0.02-0.008,0.041-0.02,0.062-0.029l6.645,8.578c-0.012,0.012-0.022,0.025-0.036,0.039
							C160.549,30.478,160.505,30.669,160.539,30.847 M154.383,21.065l11.232-3.213c0.04,0.084,0.098,0.16,0.175,0.223
							c0.032,0.025,0.065,0.049,0.102,0.066l-1.658,4.33l-9.845-1.33C154.389,21.116,154.387,21.091,154.383,21.065 M166.6,17.079
							c-0.035-0.029-0.073-0.053-0.112-0.074l3.904-12.371c0.022,0.004,0.044,0.006,0.067,0.008l1.188,12.539l-4.822,0.275
							C166.799,17.312,166.721,17.179,166.6,17.079 M189.113-3.647l3.612-0.445c0.038,0.109,0.105,0.213,0.203,0.291
							c0.052,0.043,0.109,0.074,0.169,0.1l-2.327,9.986c-0.02-0.002-0.04-0.002-0.06-0.002L189.113-3.647z M178.141,17.589
							l2.009,8.951l-7.004-2.939c0.048-0.197,0.004-0.412-0.131-0.57l4.697-5.566C177.839,17.558,177.991,17.599,178.141,17.589
							 M180.197,26.765l2.269,10.107c-0.021,0.008-0.043,0.02-0.063,0.031l-9.432-13.004c0.018-0.016,0.034-0.033,0.05-0.053
							c0.02-0.023,0.037-0.047,0.05-0.072L180.197,26.765z M172.117,23.94c0.05,0.039,0.104,0.07,0.161,0.094l-2.331,9.346
							l-8.144-2.549c0.018-0.121,0.002-0.246-0.046-0.357l10.352-6.543C172.111,23.935,172.113,23.937,172.117,23.94
							 M160.764,31.231c0.058,0.047,0.123,0.08,0.188,0.104l-1.876,9.389c-0.038,0-0.078,0.002-0.115,0.01l-2.196-8.406l3.834-1.303
							C160.637,31.104,160.692,31.173,160.764,31.231 M158.496,41.065l-11.794-5.049c0.025-0.092,0.027-0.188,0.012-0.279
							l9.873-3.35l2.193,8.402c-0.079,0.039-0.153,0.096-0.213,0.17C158.54,40.993,158.516,41.03,158.496,41.065 M146.144,35.214
							l-1.071-21.422c0.103-0.021,0.198-0.064,0.281-0.133l7.858,7.133c-0.181,0.273-0.13,0.645,0.129,0.855
							c0.01,0.008,0.02,0.016,0.029,0.021l-7.079,13.576C146.245,35.229,146.193,35.218,146.144,35.214 M145.549,13.384
							l13.031,2.707l-4.455,4.539c-0.24-0.174-0.563-0.16-0.784,0.021l-7.86-7.133C145.509,13.478,145.53,13.431,145.549,13.384
							 M158.8,16.136l6.754,1.404c-0.002,0.045,0,0.088,0.008,0.133l-11.23,3.211c-0.02-0.043-0.044-0.082-0.071-0.121L158.8,16.136
							z M158.957,15.978l11.211-11.424c0.014,0.008,0.029,0.016,0.045,0.023l-3.904,12.367c-0.223-0.041-0.459,0.039-0.611,0.227
							c-0.046,0.059-0.08,0.119-0.104,0.184L158.957,15.978z M171.108,4.185l7.488,1.084l-0.607,11.047
							c-0.054,0.008-0.105,0.023-0.152,0.043l-1.045-1.781l-5.896-10.076c0.033-0.027,0.065-0.061,0.095-0.096
							C171.047,4.339,171.085,4.263,171.108,4.185 M178.783,5.294l11.292,1.633c0,0.111,0.03,0.221,0.086,0.316l-11.669,9.203
							c-0.094-0.076-0.203-0.119-0.314-0.133L178.783,5.294z M178.796,5.106l0.383-6.979c0.137-0.014,0.268-0.068,0.375-0.166
							l10.611,8.637c-0.025,0.043-0.048,0.092-0.062,0.143L178.796,5.106z M179.596-2.944l7.613-9.361
							c0.105,0.063,0.221,0.094,0.336,0.092l1.352,8.402l-9.158,1.129C179.713-2.778,179.663-2.868,179.596-2.944 M189.103-23.138
							l15.847,12.584c-0.025,0.045-0.046,0.09-0.06,0.137l-13.412-1.959l-2.571-10.641
							C188.978-23.044,189.045-23.085,189.103-23.138 M200.911-1.763l-6.946-2.418c0.02-0.104,0.012-0.213-0.02-0.313l11.029-5.375
							c0.034,0.051,0.076,0.094,0.123,0.135c0.011,0.006,0.019,0.012,0.026,0.018L200.911-1.763z M200.822-1.595l-2.183,4.121
							c-0.17-0.061-0.359-0.045-0.52,0.041l-4.298-6.453c0.002-0.002,0.006-0.006,0.01-0.008c0.027-0.035,0.052-0.07,0.071-0.109
							L200.822-1.595z M197.838,3.388l-2.156,1.039l-2.098-8.135c0.031-0.014,0.063-0.031,0.095-0.051l4.29,6.439
							c-0.014,0.016-0.027,0.029-0.039,0.045C197.772,2.919,197.747,3.175,197.838,3.388 M195.508,4.511l-4.259,2.053
							c-0.034-0.051-0.077-0.096-0.125-0.137c-0.054-0.043-0.109-0.076-0.169-0.1l2.36-9.986c0.028,0.002,0.056,0.002,0.086-0.002
							L195.508,4.511z M178.652,16.634c-0.01-0.016-0.018-0.033-0.029-0.049l8.59-6.775l3.065-2.418
							c0.01,0.012,0.021,0.021,0.033,0.031c0.271,0.221,0.663,0.184,0.89-0.078l5.516,3.512c-0.066,0.115-0.09,0.246-0.078,0.371
							L178.652,16.634z M181.616,27.927c0.105,0.086,0.23,0.131,0.354,0.141l0.55,8.188l-2.108-9.4l0.991,0.416
							C181.341,27.505,181.416,27.763,181.616,27.927 M182.119,37.192l-11.991-3.756l2.333-9.357
							c0.123,0.012,0.248-0.01,0.359-0.068l9.428,13.002c-0.019,0.018-0.034,0.035-0.05,0.053
							C182.166,37.106,182.143,37.147,182.119,37.192 M182.056,37.491l-13.069,2.367c-0.038-0.111-0.104-0.213-0.202-0.293
							c-0.048-0.041-0.104-0.07-0.159-0.096l1.457-5.85l11.981,3.752C182.058,37.411,182.056,37.452,182.056,37.491 M167.737,40.06
							l-8.056,1.125c-0.036-0.121-0.105-0.232-0.211-0.318c-0.065-0.049-0.135-0.088-0.208-0.111l1.874-9.381
							c0.121,0.006,0.24-0.021,0.346-0.082l6.434,8.328c-0.012,0.012-0.023,0.025-0.035,0.037
							C167.785,39.776,167.739,39.917,167.737,40.06 M146.08,40.3l0.082-3.811c0.158-0.02,0.31-0.098,0.419-0.232
							c0.018-0.021,0.033-0.045,0.048-0.068l11.806,5.057c-0.002,0.004-0.002,0.008-0.002,0.014L146.08,40.3z M145.892,40.284
							l-8.09-0.629c-0.002-0.039-0.01-0.08-0.02-0.119l7.754-3.346c0.036,0.059,0.084,0.113,0.142,0.16
							c0.089,0.072,0.19,0.117,0.296,0.135L145.892,40.284z M145.888,40.474l-0.202,9.445c-0.088,0.01-0.171,0.037-0.248,0.08
							l-1.672-2.111l-6.137-7.748c0.013-0.01,0.022-0.023,0.032-0.033c0.063-0.078,0.105-0.17,0.127-0.264L145.888,40.474z
							 M145.119,50.649l-3.916,1.09l-3.753-11.465c0.011-0.004,0.021-0.012,0.032-0.018l6.17,7.793l1.636,2.066
							c-0.01,0.012-0.021,0.023-0.031,0.035C145.14,50.296,145.096,50.478,145.119,50.649 M141.021,51.79l-11.68,3.252
							c-0.04-0.09-0.1-0.172-0.181-0.238c-0.008-0.006-0.014-0.01-0.021-0.016l5.313-9.857l2.493-4.627
							c0.107,0.039,0.217,0.049,0.325,0.029L141.021,51.79z M141.078,51.97l3.103,9.477c-0.062,0.037-0.117,0.084-0.165,0.145
							c-0.039,0.049-0.069,0.1-0.093,0.154l-14.548-6.277c0.021-0.08,0.025-0.162,0.016-0.246L141.078,51.97z M131.824,64.085
							l-5.972,0.984c-0.029-0.135-0.105-0.262-0.22-0.355c-0.017-0.014-0.03-0.023-0.046-0.033l3.047-8.746
							c0.082,0.016,0.167,0.014,0.246-0.002L131.824,64.085z M121.231,56.956c0.045-0.033,0.091-0.072,0.129-0.119
							c0.095-0.121,0.143-0.262,0.143-0.402l4.616-0.66l-0.862,8.795c-0.067-0.002-0.135,0.004-0.2,0.023L121.231,56.956z
							 M127.407,42.368c0.008,0,0.016,0.002,0.021,0.004l-1.292,13.209l-4.659,0.666c-0.036-0.119-0.105-0.23-0.211-0.314
							c-0.018-0.016-0.035-0.027-0.056-0.041L127.407,42.368z M135.282,37.278c0.028,0.031,0.06,0.064,0.094,0.09
							c0.028,0.025,0.06,0.045,0.092,0.064l-1.055,2.758l-6.226,1.334c-0.002-0.006-0.006-0.012-0.008-0.018L135.282,37.278z
							 M169.738,4.718l-11.002,11.213l-13.15-2.732c0.004-0.051,0-0.104-0.008-0.154L169.738,4.718z M178.67-2.054
							c0.015,0.014,0.028,0.029,0.044,0.041c0.084,0.066,0.179,0.111,0.276,0.131l-0.382,6.959l-7.472-1.08
							c0-0.105-0.028-0.211-0.08-0.305L178.67-2.054z M199.012,2.868c-0.038-0.09-0.098-0.17-0.179-0.234
							c-0.009-0.008-0.017-0.012-0.026-0.02l2.196-4.145l5.753,2.002c-0.012,0.066-0.014,0.135-0.006,0.201L199.012,2.868z
							 M197.302,10.526c-0.016-0.002-0.031-0.002-0.048,0l-1.524-5.912l2.21-1.064c0.025,0.027,0.052,0.055,0.081,0.078
							c0.075,0.061,0.155,0.102,0.24,0.123L197.302,10.526z M196.804,11.601l-14.415,15.301c-0.148-0.105-0.331-0.137-0.5-0.102
							l-3.484-9.289c0.069-0.039,0.133-0.092,0.187-0.158c0.127-0.156,0.169-0.355,0.129-0.541l17.963-5.4
							c0.029,0.07,0.073,0.139,0.129,0.197L196.804,11.601z M146.233,50.13c-0.023-0.025-0.046-0.049-0.073-0.07
							c-0.086-0.07-0.185-0.113-0.286-0.133l0.202-9.439l12.353,0.959c0.01,0.074,0.03,0.145,0.065,0.213L146.233,50.13z
							 M144.479,61.354c-0.042,0.002-0.084,0.01-0.123,0.02l-3.095-9.455l3.912-1.09c0.04,0.086,0.1,0.162,0.177,0.227
							c0.076,0.063,0.163,0.104,0.255,0.125L144.479,61.354z M133.708,70.085l-7.891-4.623c0.027-0.066,0.045-0.135,0.049-0.203
							l6.023-0.992l2.027,5.613c-0.062,0.037-0.117,0.086-0.165,0.145C133.736,70.044,133.723,70.063,133.708,70.085"/>
					</g>
				</g>
			</g>
		</g>
	</g>
	<g>
		<g>
			<path fill="#FFFFFF" d="M95.203,13.683h2.966l5.548,24.842h-3.559l-1.047-5.338h-4.85l-1.047,5.338h-3.56L95.203,13.683z
				 M96.704,20.835h-0.07l-1.744,9.002h3.559L96.704,20.835z"/>
			<path fill="#FFFFFF" d="M106.299,13.683h5.199c1.139,0,2.11,0.174,2.913,0.523c0.803,0.348,1.46,0.814,1.972,1.395
				c0.511,0.582,0.878,1.25,1.099,2.006c0.221,0.758,0.332,1.541,0.332,2.355v0.908c0,0.674-0.053,1.244-0.157,1.709
				s-0.262,0.873-0.471,1.221c-0.21,0.35-0.466,0.658-0.768,0.926c-0.303,0.268-0.652,0.518-1.047,0.75
				c0.837,0.396,1.453,0.982,1.849,1.762s0.594,1.82,0.594,3.123v1.396c0,2.186-0.529,3.861-1.588,5.023
				c-1.059,1.164-2.751,1.744-5.077,1.744h-4.85V13.683z M109.857,23.87h1.605c1.187,0,1.982-0.297,2.39-0.889
				c0.407-0.594,0.611-1.461,0.611-2.6c0-1.117-0.228-1.955-0.681-2.514c-0.454-0.557-1.273-0.836-2.46-0.836h-1.466V23.87z
				 M109.857,34.966h1.535c0.722,0,1.285-0.105,1.692-0.314s0.716-0.5,0.925-0.871c0.21-0.373,0.337-0.814,0.384-1.326
				s0.07-1.07,0.07-1.676c0-0.627-0.035-1.174-0.105-1.639c-0.069-0.465-0.215-0.855-0.436-1.17
				c-0.222-0.314-0.529-0.553-0.925-0.715s-0.919-0.244-1.57-0.244h-1.57V34.966z"/>
			<path fill="#FFFFFF" d="M125.559,13.683h2.966l5.548,24.842h-3.559l-1.047-5.338h-4.85l-1.047,5.338h-3.56L125.559,13.683z
				 M127.06,20.835h-0.07l-1.744,9.002h3.559L127.06,20.835z"/>
			<path fill="#FFFFFF" d="M148.17,20.835h-3.56v-0.803c0-0.814-0.191-1.518-0.575-2.111s-1.029-0.889-1.937-0.889
				c-0.488,0-0.89,0.092-1.204,0.279c-0.313,0.186-0.559,0.424-0.732,0.715c-0.175,0.291-0.297,0.627-0.366,1.012
				c-0.07,0.383-0.105,0.785-0.105,1.203c0,0.488,0.018,0.902,0.053,1.238c0.035,0.338,0.122,0.629,0.262,0.873
				s0.343,0.459,0.61,0.645c0.268,0.188,0.634,0.373,1.1,0.559l2.722,1.082c0.79,0.303,1.431,0.658,1.919,1.064
				s0.866,0.885,1.134,1.43c0.268,0.547,0.447,1.176,0.541,1.885c0.093,0.711,0.14,1.518,0.14,2.426
				c0,1.047-0.104,2.018-0.314,2.912c-0.209,0.896-0.553,1.664-1.029,2.303c-0.477,0.641-1.111,1.146-1.901,1.52
				c-0.791,0.371-1.757,0.557-2.896,0.557c-0.86,0-1.663-0.15-2.407-0.453c-0.745-0.301-1.384-0.715-1.919-1.238
				s-0.96-1.145-1.273-1.867c-0.314-0.721-0.472-1.5-0.472-2.338v-1.326h3.56v1.117c0,0.652,0.191,1.238,0.575,1.762
				s1.029,0.785,1.937,0.785c0.604,0,1.076-0.086,1.413-0.262c0.337-0.174,0.594-0.418,0.768-0.732
				c0.175-0.314,0.285-0.703,0.332-1.168c0.046-0.465,0.069-0.979,0.069-1.535c0-0.652-0.023-1.188-0.069-1.605
				c-0.047-0.42-0.146-0.756-0.297-1.012s-0.36-0.465-0.628-0.629c-0.268-0.162-0.623-0.336-1.064-0.523l-2.547-1.047
				c-1.535-0.627-2.564-1.459-3.088-2.494s-0.785-2.332-0.785-3.891c0-0.93,0.128-1.814,0.384-2.652
				c0.256-0.836,0.634-1.557,1.134-2.162s1.134-1.088,1.902-1.449c0.768-0.359,1.662-0.541,2.687-0.541
				c0.884,0,1.692,0.164,2.425,0.49c0.732,0.324,1.36,0.756,1.884,1.291s0.925,1.133,1.204,1.797
				c0.279,0.662,0.419,1.342,0.419,2.041V20.835z"/>
			<path fill="#FFFFFF" d="M150.925,13.683h3.56v24.842h-3.56V13.683z"/>
			<path fill="#FFFFFF" d="M169.453,20.835h-3.56v-0.803c0-0.814-0.191-1.518-0.575-2.111s-1.029-0.889-1.937-0.889
				c-0.488,0-0.89,0.092-1.204,0.279c-0.313,0.186-0.559,0.424-0.732,0.715c-0.175,0.291-0.297,0.627-0.366,1.012
				c-0.07,0.383-0.105,0.785-0.105,1.203c0,0.488,0.018,0.902,0.053,1.238c0.035,0.338,0.122,0.629,0.262,0.873
				s0.343,0.459,0.61,0.645c0.268,0.188,0.634,0.373,1.1,0.559l2.722,1.082c0.79,0.303,1.431,0.658,1.919,1.064
				s0.866,0.885,1.134,1.43c0.268,0.547,0.447,1.176,0.541,1.885c0.093,0.711,0.14,1.518,0.14,2.426
				c0,1.047-0.104,2.018-0.314,2.912c-0.209,0.896-0.553,1.664-1.029,2.303c-0.477,0.641-1.111,1.146-1.901,1.52
				c-0.791,0.371-1.757,0.557-2.896,0.557c-0.86,0-1.663-0.15-2.407-0.453c-0.745-0.301-1.384-0.715-1.919-1.238
				s-0.96-1.145-1.273-1.867c-0.314-0.721-0.472-1.5-0.472-2.338v-1.326h3.56v1.117c0,0.652,0.191,1.238,0.575,1.762
				s1.029,0.785,1.937,0.785c0.604,0,1.076-0.086,1.413-0.262c0.337-0.174,0.594-0.418,0.768-0.732
				c0.175-0.314,0.285-0.703,0.332-1.168c0.046-0.465,0.069-0.979,0.069-1.535c0-0.652-0.023-1.188-0.069-1.605
				c-0.047-0.42-0.146-0.756-0.297-1.012s-0.36-0.465-0.628-0.629c-0.268-0.162-0.623-0.336-1.064-0.523l-2.547-1.047
				c-1.535-0.627-2.564-1.459-3.088-2.494s-0.785-2.332-0.785-3.891c0-0.93,0.128-1.814,0.384-2.652
				c0.256-0.836,0.634-1.557,1.134-2.162s1.134-1.088,1.902-1.449c0.768-0.359,1.662-0.541,2.687-0.541
				c0.884,0,1.692,0.164,2.425,0.49c0.732,0.324,1.36,0.756,1.884,1.291s0.925,1.133,1.204,1.797
				c0.279,0.662,0.419,1.342,0.419,2.041V20.835z"/>
		</g>
		<g>
			<path fill="#FFFFFF" d="M150.926,9.413h3.559v3.559h-3.559V9.413z"/>
		</g>
	</g>
</g>
</svg>
