<?xml version="1.0" encoding="utf-8"?>
<!-- Generator: Adobe Illustrator 16.0.0, SVG Export Plug-In . SVG Version: 6.00 Build 0)  -->
<!DOCTYPE svg PUBLIC "-//W3C//DTD SVG 1.1//EN" "http://www.w3.org/Graphics/SVG/1.1/DTD/svg11.dtd">
<svg version="1.1" id="Layer_1" xmlns="http://www.w3.org/2000/svg" xmlns:xlink="http://www.w3.org/1999/xlink" x="0px" y="0px"
	 width="144.453px" height="50px" viewBox="0 0 144.453 50" enable-background="new 0 0 144.453 50" xml:space="preserve">
<path fill="#1EADE4" d="M8.909,15.205H2.154V49.5h9.802V19.509C11.928,15.694,9.603,15.253,8.909,15.205"/>
<g>
	<defs>
		<path id="SVGID_79_" d="M2.154,0.531v6.618c0.014,0.543,0.299,3.142,4.38,3.142H16.87V49.5h9.786l0.006-1.729V10.332h13.712
			c5.045,0.016,17.096,0.329,20.892,3.915c4.855-0.823,9.523-2.646,9.509-5.952c0.451-7.008-20.48-7.783-28.429-7.794
			C42.267,0.5,42.118,0.5,41.906,0.5C37.251,0.5,2.154,0.531,2.154,0.531"/>
	</defs>
	<clipPath id="SVGID_2_">
		<use xlink:href="#SVGID_79_"  overflow="visible"/>
	</clipPath>
	
		<linearGradient id="SVGID_3_" gradientUnits="userSpaceOnUse" x1="-205.2407" y1="185.8936" x2="-204.3907" y2="185.8936" gradientTransform="matrix(80.7179 0 0 -80.7179 16568.8203 15029.9063)">
		<stop  offset="0" style="stop-color:#05ADE2"/>
		<stop  offset="0.183" style="stop-color:#0EA8DA"/>
		<stop  offset="0.3566" style="stop-color:#199DCA"/>
		<stop  offset="0.5266" style="stop-color:#208CB3"/>
		<stop  offset="0.6942" style="stop-color:#237796"/>
		<stop  offset="0.8586" style="stop-color:#215E76"/>
		<stop  offset="1" style="stop-color:#1B4759"/>
	</linearGradient>
	<rect x="2.154" y="0.5" clip-path="url(#SVGID_2_)" fill="url(#SVGID_3_)" width="69.071" height="49"/>
</g>
<g>
	<defs>
		<path id="SVGID_82_" d="M63.092,13.888c-0.72,0.175-2.253,0.458-2.395,0.481c-0.002,0.002-0.003,0.002-0.006,0.002
			c-3.789,0.641-7.731,0.803-10.025,0.837H31.575v6.669c0.021,0.576,0.338,3.072,4.263,3.123h5.507v24.5h9.803V25.165l1.633-0.001
			c6.384-0.071,17.969-0.897,17.964-5.98c-0.003-5.199-0.004-8.854-0.004-10.4C70.29,11.406,66.981,12.942,63.092,13.888"/>
	</defs>
	<clipPath id="SVGID_5_">
		<use xlink:href="#SVGID_82_"  overflow="visible"/>
	</clipPath>
	
		<linearGradient id="SVGID_6_" gradientUnits="userSpaceOnUse" x1="-206.4492" y1="180.6689" x2="-205.5991" y2="180.6689" gradientTransform="matrix(46.0696 0 0 -46.0696 9542.6064 8352.4307)">
		<stop  offset="0" style="stop-color:#05ADE2"/>
		<stop  offset="1" style="stop-color:#0BAFCC"/>
	</linearGradient>
	<rect x="31.575" y="8.783" clip-path="url(#SVGID_5_)" fill="url(#SVGID_6_)" width="39.174" height="40.717"/>
</g>
<g>
	<g>
		<defs>
			<path id="SVGID_85_" d="M82.271,0.515c-2.912,0-5.272,2.361-5.272,5.274v24.243c0,2.91,2.36,5.271,5.272,5.271h54.755
				c2.883,0,5.226-2.312,5.273-5.183V5.699c-0.048-2.871-2.391-5.185-5.273-5.185H82.271z"/>
		</defs>
		<clipPath id="SVGID_8_">
			<use xlink:href="#SVGID_85_"  overflow="visible"/>
		</clipPath>
		
			<linearGradient id="SVGID_9_" gradientUnits="userSpaceOnUse" x1="-205.4917" y1="185.5186" x2="-204.6411" y2="185.5186" gradientTransform="matrix(76.8052 0 0 -76.8052 15859.7998 14266.6533)">
			<stop  offset="0" style="stop-color:#0EB9CD"/>
			<stop  offset="1" style="stop-color:#05ADE2"/>
		</linearGradient>
		<rect x="76.998" y="0.515" clip-path="url(#SVGID_8_)" fill="url(#SVGID_9_)" width="65.301" height="34.789"/>
	</g>
	<g>
		<defs>
			<path id="SVGID_88_" d="M82.271,0.515c-2.912,0-5.272,2.361-5.272,5.274v24.243c0,2.91,2.36,5.271,5.272,5.271h54.755
				c2.912,0,5.273-2.361,5.273-5.271V5.789c0-2.913-2.361-5.274-5.273-5.274H82.271z"/>
		</defs>
		<clipPath id="SVGID_11_">
			<use xlink:href="#SVGID_88_"  overflow="visible"/>
		</clipPath>
		<g opacity="0.75" clip-path="url(#SVGID_11_)">
			<g>
				<defs>
					<rect id="SVGID_90_" x="59.189" y="-29.343" width="116.085" height="91.445"/>
				</defs>
				<clipPath id="SVGID_13_">
					<use xlink:href="#SVGID_90_"  overflow="visible"/>
				</clipPath>
				<g clip-path="url(#SVGID_13_)">
					<defs>
						<rect id="SVGID_92_" x="59.189" y="-29.343" width="116.085" height="91.445"/>
					</defs>
					<clipPath id="SVGID_15_">
						<use xlink:href="#SVGID_92_"  overflow="visible"/>
					</clipPath>
					<g opacity="0.3" clip-path="url(#SVGID_15_)">
						<g>
							<defs>
								<rect id="SVGID_94_" x="59.189" y="2.406" width="116.085" height="55.64"/>
							</defs>
							<clipPath id="SVGID_17_">
								<use xlink:href="#SVGID_94_"  overflow="visible"/>
							</clipPath>
							<g clip-path="url(#SVGID_17_)">
								<defs>
									<rect id="SVGID_96_" x="59.189" y="2.406" width="116.085" height="55.64"/>
								</defs>
								<clipPath id="SVGID_19_">
									<use xlink:href="#SVGID_96_"  overflow="visible"/>
								</clipPath>
								<path clip-path="url(#SVGID_19_)" fill="#5BC7D4" d="M59.629,48.136c0.073,0.366,0.432,0.604,0.799,0.531
									c0.073-0.014,0.143-0.042,0.206-0.076l5.243,7.333c-0.16,0.154-0.241,0.385-0.194,0.621
									c0.073,0.366,0.431,0.605,0.799,0.531c0.275-0.055,0.478-0.27,0.532-0.528l15.693,0.882
									c0.002,0.021,0.005,0.047,0.011,0.069c0.072,0.369,0.431,0.606,0.799,0.533c0.366-0.073,0.605-0.432,0.531-0.799
									c-0.01-0.046-0.022-0.091-0.039-0.133l7.454-4.552c0.154,0.185,0.401,0.281,0.653,0.229
									c0.369-0.073,0.607-0.432,0.533-0.797c-0.03-0.149-0.108-0.277-0.213-0.372l5.293-8.006c0.126,0.06,0.272,0.081,0.42,0.051
									c0.161-0.032,0.297-0.119,0.394-0.236l19.49,11.565c-0.049,0.12-0.065,0.254-0.038,0.389
									c0.073,0.369,0.432,0.606,0.799,0.533c0.368-0.075,0.606-0.432,0.532-0.799c-0.019-0.095-0.056-0.18-0.106-0.252
									l19.968-18.731c0.114,0.306,0.437,0.493,0.767,0.425c0.367-0.073,0.606-0.43,0.532-0.798
									c-0.004-0.021-0.009-0.042-0.016-0.062l9.124-4.28c0.147,0.221,0.421,0.345,0.699,0.289
									c0.334-0.068,0.561-0.368,0.544-0.699l12.503-2.502c0.112,0.313,0.438,0.503,0.772,0.437
									c0.197-0.04,0.357-0.161,0.452-0.322l9.368,3.75c-0.021,0.089-0.022,0.186-0.003,0.282c0.073,0.366,0.431,0.605,0.798,0.532
									c0.368-0.073,0.606-0.432,0.533-0.8c-0.067-0.336-0.373-0.563-0.705-0.541l-3.948-21.01c0.315-0.11,0.512-0.438,0.444-0.776
									c-0.074-0.366-0.433-0.604-0.8-0.531c-0.132,0.027-0.246,0.09-0.336,0.177l-8.125-6.276c0.076-0.137,0.106-0.3,0.073-0.464
									c-0.073-0.369-0.431-0.606-0.798-0.533c-0.368,0.073-0.605,0.432-0.533,0.799c0.022,0.105,0.068,0.204,0.13,0.283
									l-5.865,6.15c-0.146-0.104-0.334-0.149-0.523-0.112c-0.201,0.041-0.361,0.165-0.456,0.331l-6.816-2.45
									c0.012-0.076,0.012-0.155-0.005-0.235c-0.073-0.368-0.432-0.606-0.799-0.533s-0.605,0.432-0.532,0.799l0.001,0.003
									l-0.028-0.1l-21.408,5.926c-0.126-0.284-0.435-0.454-0.752-0.391c-0.157,0.031-0.29,0.114-0.386,0.229l-7.911-4.878
									c0.053-0.122,0.07-0.261,0.042-0.401c-0.073-0.368-0.431-0.605-0.799-0.532c-0.367,0.074-0.605,0.431-0.532,0.799
									c0.026,0.131,0.089,0.242,0.173,0.333l-8.655,11.047c-0.138-0.078-0.303-0.109-0.469-0.076
									c-0.367,0.073-0.606,0.43-0.533,0.799c0.028,0.14,0.098,0.261,0.193,0.353l-5.025,6.974
									c-0.132-0.068-0.287-0.093-0.444-0.062c-0.367,0.073-0.605,0.431-0.532,0.797c0.005,0.027,0.013,0.054,0.021,0.077
									l-13.969,7.286c-0.153-0.2-0.41-0.308-0.673-0.256c-0.195,0.038-0.353,0.159-0.448,0.317l-10.063-3.967
									c0.024-0.095,0.028-0.196,0.008-0.299c-0.073-0.367-0.432-0.605-0.798-0.532c-0.358,0.072-0.593,0.412-0.537,0.77
									l-11.729,4.927c-0.151-0.205-0.412-0.315-0.678-0.263c-0.368,0.073-0.606,0.431-0.532,0.799
									c0.055,0.272,0.265,0.474,0.52,0.528l0.43,9.681C59.79,47.416,59.556,47.771,59.629,48.136 M60.533,36.863
									c-0.005-0.033-0.017-0.064-0.026-0.095l10.592-4.448l1.102-0.463c0.019,0.036,0.038,0.07,0.062,0.103l-7.676,10.117
									l-4.215-4.627C60.51,37.295,60.577,37.081,60.533,36.863 M123.745,14.221c0.088-0.018,0.168-0.053,0.238-0.098l6.451,7.261
									l-6.896-5.881l0.114-1.271C123.684,14.229,123.714,14.228,123.745,14.221 M146.797,7.813l4.732,4.303l-3.987,2.945
									c-0.114-0.116-0.27-0.188-0.436-0.197l-0.563-6.901C146.64,7.931,146.726,7.88,146.797,7.813 M161.333,3.751
									c0.133-0.026,0.247-0.089,0.338-0.177l8.124,6.277c-0.04,0.071-0.067,0.149-0.079,0.231l-9.479,0.014l0.962-6.332
									C161.243,3.765,161.288,3.76,161.333,3.751 M83.737,56.787c-0.142-0.085-0.313-0.121-0.487-0.086
									c-0.152,0.031-0.282,0.109-0.377,0.219l-10.961-7.051c0.015-0.031,0.026-0.064,0.035-0.098l16.022,1.954L83.737,56.787z
									 M72.557,32.19l-1.31,16.724c-0.028,0.002-0.058,0.005-0.087,0.012c-0.09,0.019-0.172,0.053-0.244,0.102l-6.192-6.799
									l7.679-10.125C72.45,32.139,72.502,32.169,72.557,32.19 M70.818,50.076l-1.145,1.58l-8.584-3.509l9.525,1.441
									c0,0.046,0.004,0.091,0.013,0.136C70.656,49.864,70.725,49.983,70.818,50.076 M70.981,50.193
									c0.132,0.067,0.287,0.096,0.444,0.063c0.154-0.029,0.283-0.109,0.378-0.218l10.614,6.827l-12.555-5.131L70.981,50.193z
									 M72.826,49.678l9.209-0.081l7.316-0.063c0.001,0.009,0.002,0.017,0.004,0.027c0.024,0.122,0.081,0.23,0.158,0.316
									l-1.392,1.664L72.826,49.678z M89.667,50.005c0.141,0.087,0.313,0.121,0.486,0.087c0.065-0.012,0.127-0.035,0.183-0.063
									l1.171,1.603c-0.084,0.083-0.146,0.188-0.177,0.303l-2.972-0.362L89.667,50.005z M91.851,51.448
									c-0.065,0.012-0.126,0.035-0.182,0.064l-1.172-1.604c0.157-0.153,0.236-0.384,0.189-0.614
									c-0.015-0.077-0.043-0.146-0.08-0.21l6.949-5.598c0.002,0.002,0.005,0.004,0.007,0.005l-5.292,8.006
									C92.144,51.44,91.998,51.418,91.851,51.448 M105.703,20.331l6.197,1.525l-1.636,8.88c-0.052,0-0.104,0.001-0.157,0.011
									c-0.018,0.006-0.036,0.011-0.054,0.016l-4.609-10.12C105.561,20.568,105.65,20.459,105.703,20.331 M170.068,10.781
									l-4.755,13.424l-5.903-5.204c0.094-0.145,0.133-0.321,0.097-0.503c-0.014-0.065-0.035-0.125-0.065-0.184l10.462-7.655
									C169.953,10.708,170.008,10.749,170.068,10.781 M174.006,32.174l-9.366-3.749c0.021-0.094,0.024-0.191,0.006-0.29
									c-0.042-0.208-0.175-0.375-0.348-0.468l1.104-3.117l8.619,7.601C174.016,32.157,174.011,32.166,174.006,32.174
									 M156.311,22.373l2.194-3.151c0.138,0.076,0.302,0.107,0.47,0.074c0.033-0.005,0.063-0.015,0.094-0.026l4.508,8.454
									c-0.026,0.019-0.051,0.038-0.072,0.061L156.311,22.373z M150.462,30.424c-0.102-0.05-0.217-0.075-0.336-0.07l-2.835-14.176
									c0.095-0.033,0.178-0.087,0.247-0.154l8.499,6.393L150.462,30.424z M139.382,35.365c-0.023,0.021-0.046,0.044-0.066,0.066
									l-11.142-7.299l3.07-5.097c0.11,0.039,0.233,0.05,0.357,0.024c0.041-0.008,0.08-0.019,0.117-0.035l6.066,9.768
									L139.382,35.365z M98.572,42.601l8.01-7.584l8.392,7.681c-0.056,0.083-0.093,0.176-0.107,0.276l-16.179-0.081
									c-0.002-0.012-0.004-0.024-0.006-0.038C98.662,42.761,98.624,42.674,98.572,42.601 M130.857,22.69
									c0.048,0.102,0.121,0.188,0.21,0.252l-3.061,5.08l-4.845-3.174c0.12-0.136,0.186-0.321,0.167-0.513L130.857,22.69z
									 M163.847,27.603c-0.033,0.006-0.064,0.015-0.094,0.026l-4.505-8.455c0.012-0.009,0.021-0.016,0.03-0.023l5.963,5.257
									l-1.131,3.194C164.025,27.584,163.937,27.584,163.847,27.603 M115.402,42.41c-0.018,0.005-0.035,0.01-0.053,0.015
									l-4.633-10.204l-0.108-0.237c0.141-0.09,0.242-0.229,0.286-0.391l8.374,1.008l-3.596,9.811
									C115.586,42.394,115.495,42.392,115.402,42.41 M110.918,31.396c-0.001-0.038-0.004-0.076-0.012-0.115
									c-0.007-0.04-0.02-0.078-0.034-0.114l2.694-1.55l8.497-4.883c0.017,0.029,0.036,0.058,0.057,0.086l-2.781,7.589
									L110.918,31.396z M122.279,24.966c0.05,0.033,0.104,0.06,0.161,0.077l1.278,4.224l1.006,3.324
									c-0.177,0.084-0.308,0.237-0.361,0.422l-4.82-0.58L122.279,24.966z M125.265,32.576c-0.107-0.044-0.227-0.061-0.349-0.042
									l-1.011-3.341l-1.245-4.115c0.042-0.002,0.084-0.005,0.126-0.013c0.078-0.016,0.149-0.045,0.215-0.083l4.903,3.211
									L125.265,32.576z M110.374,32.079c0.018-0.003,0.036-0.008,0.054-0.013l4.74,10.439c-0.021,0.015-0.041,0.028-0.06,0.044
									l-8.382-7.669l3.096-2.933C109.974,32.066,110.172,32.119,110.374,32.079 M115.861,42.48l3.611-9.856l4.862,0.586
									c0.001,0.042,0.004,0.085,0.013,0.128c0.021,0.102,0.063,0.194,0.122,0.272l-8.542,8.913
									C115.905,42.508,115.884,42.494,115.861,42.48 M125.438,32.676l2.634-4.373l11.134,7.295
									c-0.01,0.023-0.019,0.045-0.026,0.066l-13.487-2.45c0.001-0.047-0.003-0.095-0.013-0.142
									C125.646,32.908,125.557,32.771,125.438,32.676 M147.657,15.863c0.012-0.018,0.021-0.038,0.028-0.056l10.481,2.75
									c-0.008,0.067-0.005,0.138,0.009,0.207c0.025,0.13,0.088,0.242,0.172,0.332l-2.198,3.156L147.657,15.863z M130.798,22.499
									l-7.517,1.645c-0.083-0.206-0.261-0.353-0.469-0.403l0.706-7.994l7.375,6.291C130.811,22.171,130.772,22.332,130.798,22.499
									 M122.613,23.724c-0.031,0.001-0.062,0.005-0.093,0.01c-0.025,0.006-0.051,0.013-0.074,0.021l-7.5-15.225
									c0.02-0.015,0.039-0.031,0.059-0.047l8.328,7.103L122.613,23.724z M121.991,24.544l-11.219,6.449
									c-0.08-0.103-0.188-0.18-0.312-0.221l1.633-8.868l9.884,2.432c-0.006,0.064-0.003,0.13,0.011,0.197
									C121.989,24.537,121.99,24.54,121.991,24.544 M109.686,31.802l-3.106,2.942l-6.772-6.197
									c0.023-0.033,0.046-0.067,0.064-0.104l9.698,2.877c-0.011,0.074-0.009,0.15,0.006,0.229
									C109.595,31.643,109.633,31.729,109.686,31.802 M99.398,28.803c0.1-0.02,0.188-0.061,0.266-0.116l6.77,6.195l-7.999,7.573
									c-0.077-0.061-0.168-0.104-0.265-0.127l1.096-13.512C99.311,28.815,99.354,28.812,99.398,28.803 M98.687,43.092l16.179,0.08
									c0.002,0.014,0.003,0.025,0.005,0.036c0.07,0.35,0.392,0.578,0.736,0.544l2.791,10.861
									c-0.104,0.045-0.193,0.113-0.263,0.197L98.644,43.245C98.664,43.197,98.678,43.146,98.687,43.092 M118.591,54.565
									L115.8,43.702c0.28-0.118,0.452-0.414,0.406-0.722l6.44-1.926l-3.896,13.512C118.699,54.561,118.645,54.559,118.591,54.565
									 M116.149,42.788c-0.021-0.045-0.047-0.088-0.077-0.127l8.54-8.909c0.037,0.027,0.077,0.05,0.119,0.069l-2.02,7.006
									L116.149,42.788z M124.924,33.877c0.073,0.011,0.147,0.009,0.223-0.007c0.251-0.051,0.441-0.231,0.514-0.46l13.483,2.451
									c-0.001,0.018,0,0.036,0,0.054l-16.203,4.844L124.924,33.877z M139.688,35.218c-0.047,0.009-0.093,0.023-0.135,0.042
									l-6.509-10.479l-1.152-1.855c0.044-0.035,0.084-0.076,0.117-0.121l10.624,4.881l-2.681,7.531
									C139.867,35.199,139.778,35.199,139.688,35.218 M132.104,22.629c0.041-0.111,0.054-0.233,0.03-0.358l14.354-6.367
									c0.063,0.1,0.151,0.182,0.254,0.236L142.7,27.496L132.104,22.629z M146.931,16.207c0.053,0.009,0.108,0.014,0.164,0.011
									l2.836,14.176c-0.143,0.052-0.26,0.146-0.339,0.268l-6.71-3.082L146.931,16.207z M150.625,30.538l5.57-8.001l7.188,5.405
									c-0.059,0.108-0.088,0.231-0.082,0.359l-12.504,2.501C150.762,30.699,150.701,30.609,150.625,30.538 M174.149,31.998
									l-8.676-7.65l4.783-13.499c0.051,0.01,0.103,0.014,0.156,0.012l3.947,21.013C174.282,31.903,174.211,31.944,174.149,31.998
									 M169.716,10.283c0.002,0.011,0.003,0.021,0.005,0.032c0.013,0.065,0.036,0.127,0.065,0.183l-10.462,7.656
									c-0.079-0.079-0.176-0.139-0.283-0.172l1.167-7.685L169.716,10.283z M158.844,17.953c-0.044,0-0.09,0.003-0.136,0.013
									c-0.005,0.001-0.009,0.003-0.014,0.004l-3.91-7.199c0.159-0.105,0.268-0.275,0.296-0.467l4.925-0.006L158.844,17.953z
									 M154.542,10.872c0.021-0.005,0.041-0.01,0.062-0.016l3.902,7.186c-0.033,0.019-0.064,0.04-0.094,0.064l-6.569-5.974
									l2.035-1.503C154.032,10.821,154.284,10.924,154.542,10.872 M158.277,18.254c-0.016,0.024-0.031,0.051-0.044,0.079
									l-10.498-2.722c0.009-0.066,0.006-0.135-0.009-0.204c-0.013-0.066-0.036-0.128-0.066-0.187l4.02-2.967L158.277,18.254z
									 M145.96,7.887c0.112,0.072,0.245,0.112,0.385,0.109l0.563,6.883c-0.355,0.084-0.583,0.435-0.511,0.795
									c0.003,0.016,0.008,0.031,0.012,0.047l-3.771,1.673l-10.568,4.688c-0.011-0.02-0.021-0.037-0.032-0.055L145.96,7.887z
									 M123.454,14.215l-0.1,1.128l-7.744-6.606l7.378,4.552c-0.053,0.123-0.07,0.26-0.041,0.4
									C123.001,13.956,123.205,14.155,123.454,14.215 M114.692,8.637c0.024-0.005,0.049-0.01,0.074-0.019l7.501,15.223
									c-0.108,0.076-0.192,0.182-0.242,0.303l-9.895-2.437l2.405-13.057C114.587,8.651,114.64,8.648,114.692,8.637 M114.34,8.613
									l-2.403,13.047l-6.187-1.522c0.006-0.064,0.004-0.131-0.01-0.197c-0.025-0.13-0.088-0.242-0.173-0.332l8.657-11.046
									C114.261,8.583,114.299,8.601,114.34,8.613 M105.208,20.74c0.02-0.004,0.037-0.009,0.055-0.014l4.609,10.117
									c-0.107,0.071-0.192,0.169-0.245,0.284l-9.692-2.873c0.014-0.081,0.014-0.166-0.004-0.251
									c-0.027-0.14-0.097-0.261-0.191-0.352l5.024-6.977C104.896,20.746,105.052,20.771,105.208,20.74 M99.054,28.782
									c0.005,0.001,0.011,0.003,0.015,0.004l-1.098,13.526c-0.029,0.002-0.059,0.006-0.088,0.011
									c-0.178,0.035-0.325,0.138-0.422,0.277l-3.601-1.804L99.054,28.782z M97.371,42.778c-0.035,0.108-0.044,0.225-0.021,0.344
									c0.016,0.076,0.043,0.146,0.079,0.21l-6.949,5.597c-0.031-0.027-0.066-0.055-0.102-0.077l3.401-7.872L97.371,42.778z
									 M90.195,48.771c-0.099-0.026-0.202-0.031-0.308-0.01c-0.016,0.003-0.03,0.007-0.047,0.012l-4.215-9.556l-1.149-2.602
									c0.079-0.052,0.146-0.117,0.198-0.192l8.927,4.468L90.195,48.771z M84.245,36.709c0.018-0.004,0.033-0.009,0.05-0.014
									l1.123,2.548l4.24,9.609c-0.011,0.009-0.022,0.016-0.032,0.023l-8.863-9.16l2.952-3.125
									C83.861,36.699,84.053,36.747,84.245,36.709 M89.482,49.016c-0.07,0.091-0.117,0.201-0.134,0.318l-5.553,0.047
									l-11.832,0.104c-0.002-0.01-0.004-0.019-0.006-0.026c-0.021-0.109-0.066-0.206-0.131-0.287l8.798-9.312L89.482,49.016z
									 M71.682,49.035c-0.07-0.05-0.15-0.086-0.236-0.104l1.309-16.693c0.063,0.007,0.125,0.003,0.19-0.01
									c0.078-0.016,0.15-0.045,0.214-0.083l7.328,7.572L71.682,49.035z M70.768,49.162c-0.056,0.067-0.097,0.146-0.123,0.23
									l-9.676-1.467c-0.003-0.018-0.005-0.038-0.009-0.056c-0.031-0.156-0.112-0.288-0.225-0.383l3.866-5.098L70.768,49.162z
									 M60.789,48.466c0.05-0.053,0.089-0.113,0.12-0.176l8.644,3.532l-2.892,3.986c-0.133-0.067-0.288-0.096-0.446-0.063
									c-0.063,0.012-0.121,0.033-0.176,0.062L60.789,48.466z M67.024,56.349c-0.003-0.024-0.006-0.047-0.011-0.071
									c-0.027-0.14-0.097-0.259-0.191-0.353l2.921-4.026l12.98,5.307c-0.001,0.007-0.004,0.017-0.006,0.025L67.024,56.349z
									 M83.904,56.932c-0.005-0.007-0.011-0.01-0.015-0.017l4.316-5.163l3.1,0.381c0.002,0.036,0.005,0.074,0.013,0.112
									c0.009,0.049,0.023,0.092,0.041,0.133L83.904,56.932z M119.082,54.708c-0.044-0.033-0.09-0.062-0.139-0.086l3.931-13.636
									l15.904-4.754L119.082,54.708z M140.386,35.508c-0.062-0.094-0.146-0.171-0.245-0.224l2.675-7.516l6.693,3.073
									c-0.029,0.104-0.036,0.213-0.014,0.322c0.004,0.021,0.009,0.042,0.016,0.063L140.386,35.508z M160.81,3.639
									c0.058,0.041,0.122,0.074,0.19,0.096l-0.964,6.364l-4.957,0.007c-0.002-0.011-0.003-0.022-0.005-0.032
									c-0.021-0.107-0.067-0.204-0.131-0.284L160.81,3.639z M153.747,10.057c-0.021,0.09-0.023,0.186-0.004,0.282
									c0.008,0.04,0.021,0.08,0.034,0.117l-2.084,1.54l-4.773-4.341c0.009-0.015,0.017-0.028,0.022-0.043L153.747,10.057z
									 M145.69,7.536c0.027,0.081,0.068,0.153,0.12,0.216l-13.905,14.126c-0.152-0.129-0.36-0.189-0.569-0.147
									c-0.088,0.017-0.168,0.052-0.238,0.098l-6.966-7.838c0.118-0.141,0.178-0.327,0.154-0.518l21.408-5.925L145.69,7.536z
									 M98.71,28.525c0.045,0.065,0.101,0.121,0.166,0.166l-5.194,12.017l-8.921-4.464c0.032-0.105,0.04-0.22,0.017-0.334
									c-0.007-0.036-0.017-0.069-0.03-0.103L98.71,28.525z M83.455,35.877c-0.024,0.096-0.029,0.197-0.008,0.299
									c0.02,0.104,0.064,0.197,0.124,0.275l-2.948,3.121l-7.31-7.556c0.03-0.032,0.056-0.066,0.079-0.105L83.455,35.877z
									 M60.001,37.661c0.078-0.016,0.15-0.046,0.216-0.084l4.247,4.663l-3.897,5.14c-0.067-0.03-0.14-0.047-0.214-0.055
									l-0.429-9.653C59.948,37.67,59.975,37.666,60.001,37.661"/>
							</g>
						</g>
					</g>
					<g opacity="0.1" clip-path="url(#SVGID_15_)">
						<g>
							<defs>
								<rect id="SVGID_98_" x="71.155" y="-10.514" width="81.942" height="53.112"/>
							</defs>
							<clipPath id="SVGID_21_">
								<use xlink:href="#SVGID_98_"  overflow="visible"/>
							</clipPath>
							<g clip-path="url(#SVGID_21_)">
								<defs>
									<rect id="SVGID_100_" x="71.155" y="-10.514" width="81.942" height="53.112"/>
								</defs>
								<clipPath id="SVGID_23_">
									<use xlink:href="#SVGID_100_"  overflow="visible"/>
								</clipPath>
								<path clip-path="url(#SVGID_23_)" fill="#5BC7D4" d="M151.782-4.019l-4.368-5.688c0.119-0.152,0.142-0.367,0.044-0.548
									c-0.134-0.242-0.439-0.331-0.683-0.197c-0.177,0.096-0.271,0.283-0.26,0.472l-8.988,2.796
									c-0.139-0.229-0.434-0.311-0.671-0.18c-0.242,0.133-0.331,0.438-0.197,0.683c0.037,0.066,0.088,0.121,0.146,0.165
									l-3.811,7.039c-0.127-0.045-0.273-0.038-0.403,0.033c-0.174,0.096-0.269,0.278-0.259,0.465L120.95,3.55
									c-0.006-0.018-0.015-0.036-0.023-0.053c-0.134-0.244-0.439-0.332-0.683-0.199c-0.104,0.057-0.18,0.146-0.222,0.248
									l-6.168-1.557c0.011-0.096-0.007-0.199-0.059-0.292c-0.133-0.242-0.438-0.332-0.682-0.197
									c-0.11,0.061-0.188,0.156-0.229,0.266l-10.163-2.133c0.005-0.09-0.015-0.184-0.061-0.271
									c-0.134-0.243-0.438-0.332-0.682-0.197c-0.244,0.132-0.333,0.437-0.199,0.681c0.051,0.092,0.127,0.163,0.214,0.206
									l-2.156,6.531c-0.107-0.019-0.224-0.002-0.327,0.055c-0.21,0.114-0.304,0.358-0.24,0.579l-14.945,6.842l0.031,0.069
									l-0.001-0.001c-0.133-0.244-0.438-0.332-0.682-0.198c-0.243,0.133-0.331,0.438-0.199,0.682
									c0.03,0.053,0.067,0.099,0.111,0.136l-2.695,4.634c-0.13-0.049-0.281-0.042-0.414,0.031
									c-0.126,0.067-0.21,0.183-0.244,0.312l-6.251-0.688c-0.004-0.075-0.022-0.151-0.061-0.222
									c-0.134-0.244-0.44-0.333-0.683-0.199c-0.243,0.133-0.332,0.438-0.199,0.682c0.062,0.109,0.155,0.188,0.263,0.228
									l-1.61,7.424c-0.093-0.005-0.188,0.014-0.275,0.062c-0.243,0.134-0.332,0.438-0.199,0.681
									c0.123,0.225,0.389,0.317,0.62,0.229l7.771,13.778c-0.196,0.146-0.262,0.421-0.14,0.643
									c0.134,0.244,0.438,0.333,0.683,0.198c0.242-0.132,0.332-0.438,0.198-0.681c-0.035-0.065-0.082-0.116-0.138-0.158
									l3.521-6.587c0.13,0.048,0.279,0.039,0.41-0.032c0.221-0.121,0.314-0.384,0.229-0.614l8.271-4.54
									c0.147,0.195,0.42,0.258,0.641,0.136c0.186-0.1,0.28-0.299,0.259-0.496l7.206-1.921c0.006,0.013,0.013,0.028,0.021,0.041
									c0.133,0.244,0.438,0.332,0.682,0.199c0.219-0.119,0.313-0.377,0.23-0.605l20.23,1.094c0.007,0.066,0.025,0.133,0.06,0.196
									c0.134,0.243,0.438,0.332,0.682,0.198c0.244-0.134,0.333-0.439,0.199-0.682c-0.049-0.091-0.122-0.158-0.206-0.203
									l5.527-15.834c0.11,0.021,0.23,0.006,0.337-0.054c0.097-0.053,0.169-0.135,0.213-0.228l6.811,2.013
									c-0.015,0.103,0.002,0.212,0.057,0.311c0.132,0.244,0.438,0.333,0.682,0.199c0.166-0.092,0.261-0.265,0.26-0.442
									l6.392-0.973c0.01,0.032,0.022,0.063,0.04,0.094c0.132,0.243,0.438,0.333,0.681,0.198c0.244-0.133,0.332-0.438,0.199-0.681
									c-0.009-0.017-0.018-0.031-0.027-0.046l8.468-7.974c0.153,0.12,0.37,0.146,0.552,0.046c0.243-0.135,0.333-0.44,0.199-0.682
									c-0.085-0.157-0.24-0.249-0.405-0.261l-0.523-6.65c0.053-0.01,0.104-0.026,0.152-0.053c0.244-0.135,0.332-0.439,0.199-0.683
									C152.325-4.059,152.024-4.148,151.782-4.019 M146.948-9.514l-0.183,4.628L137.6-6.961c-0.003-0.028-0.008-0.059-0.015-0.086
									l0.845-0.263l8.117-2.526c0.008,0.022,0.018,0.044,0.03,0.066C146.655-9.625,146.797-9.536,146.948-9.514 M100.052,7.48
									l0.67,0.665l-1.104,6.615l0.195-7.185c0.061-0.007,0.123-0.026,0.182-0.058C100.015,7.506,100.034,7.493,100.052,7.48
									 M84.104,14.834l2.968,4.175c-0.09,0.086-0.143,0.201-0.151,0.32l-3.662,0.231l0.63-4.691
									C83.96,14.872,84.033,14.862,84.104,14.834 M73.804,19.438l3.562,3.128l-5.374,4.507c-0.047-0.04-0.1-0.072-0.155-0.095
									l1.61-7.423c0.092,0.006,0.188-0.013,0.274-0.061C73.751,19.478,73.779,19.458,73.804,19.438 M138.118,11.716l8.144-8.738
									c0.021,0.015,0.043,0.026,0.067,0.038l-2.85,9.214c-0.105-0.016-0.217,0-0.317,0.056c-0.115,0.063-0.195,0.164-0.233,0.28
									L138.118,11.716z M137.588-6.812l9.172,2.076l-0.268,6.8c-0.065,0.007-0.127,0.026-0.188,0.058
									c-0.02,0.012-0.037,0.023-0.055,0.035l-8.707-8.845C137.563-6.727,137.579-6.769,137.588-6.812 M146.986,2.321
									c-0.017-0.029-0.035-0.058-0.057-0.082l4.707-5.354l-3.19,6.075l-1.4-0.349C147.055,2.515,147.037,2.414,146.986,2.321
									 M148.376,3.096l-4.665,8.886l2.76-8.922c0.105,0.016,0.217,0,0.316-0.056c0.105-0.057,0.182-0.147,0.223-0.249
									L148.376,3.096z M137.945,11.684l-1.581-0.278c0.002-0.087-0.017-0.175-0.061-0.256c-0.004-0.007-0.009-0.012-0.012-0.018
									l4.174-3.448l5.253-4.341L137.945,11.684z M137.825,11.813l-1.51,1.621c-0.073-0.05-0.157-0.08-0.245-0.088l-0.1-1.465
									c0.046-0.01,0.091-0.026,0.134-0.05c0.115-0.064,0.195-0.166,0.234-0.281L137.825,11.813z M135.575,13.635l-6.81-2.012
									c0,0,0-0.004,0-0.007l6.603-0.142c0.01,0.055,0.027,0.108,0.055,0.158c0.084,0.154,0.238,0.245,0.399,0.259l0.101,1.466
									c-0.045,0.01-0.091,0.025-0.134,0.05C135.69,13.461,135.618,13.542,135.575,13.635 M113.418,2.438l2.21,7.927
									c-0.013,0.005-0.026,0.011-0.038,0.018c-0.034,0.019-0.066,0.043-0.095,0.067L110.34,6.2l2.783-3.815
									C113.212,2.432,113.316,2.45,113.418,2.438 M72.158,27.487l9.572-0.647c0.01,0.047,0.026,0.092,0.051,0.135
									c0.064,0.119,0.172,0.202,0.293,0.239l-0.863,5.759l-9.087-5.336C72.143,27.589,72.154,27.539,72.158,27.487 M80.063,41.619
									l1.262-8.409l2.109,1.24c-0.054,0.135-0.05,0.291,0.026,0.429c0.035,0.066,0.084,0.12,0.141,0.162l-3.518,6.585
									C80.077,41.624,80.07,41.621,80.063,41.619 M83.94,34.137c-0.023-0.002-0.047-0.002-0.069,0l-1.475-6.933
									c0.022-0.009,0.044-0.019,0.066-0.03c0.11-0.061,0.188-0.157,0.228-0.268l2.746,0.741L83.94,34.137z M85.612,27.541
									l1.768-7.669c0.071,0.006,0.145-0.005,0.214-0.029l5.146,9.379c-0.07,0.053-0.124,0.122-0.156,0.199L85.612,27.541z
									 M100.891,24.723l-1.216-8.42c0.027-0.011,0.056-0.022,0.082-0.035c0.081-0.047,0.146-0.11,0.189-0.186l4.167,1.424
									l-2.832,9.44c-0.023-0.003-0.046-0.005-0.07-0.007L100.891,24.723z M127.828,11.795c0.005,0.009,0.01,0.017,0.015,0.023
									l-9.124,7.753c-0.056-0.05-0.122-0.086-0.192-0.105l1.095-8.347l8.147,0.48C127.773,11.666,127.793,11.732,127.828,11.795
									 M105.048,13.048c0.082,0.117,0.206,0.19,0.34,0.211l-1.232,4.106l-4.153-1.42c0.021-0.08,0.021-0.163,0-0.243
									L105.048,13.048z M83.51,34.322l-2.162-1.27l0.872-5.817c0.01,0,0.02,0,0.028-0.002l1.478,6.935
									c-0.022,0.009-0.045,0.018-0.065,0.029C83.6,34.23,83.55,34.272,83.51,34.322 M117.994,19.638l-6.71-3.844l4.263-4.559
									c0.102,0.069,0.226,0.1,0.348,0.085l0.052,0.185l2.237,7.985c-0.012,0.006-0.025,0.012-0.037,0.019
									C118.085,19.542,118.034,19.585,117.994,19.638 M111.153,15.719l-5.19-2.974c-0.001-0.024-0.003-0.05-0.008-0.076
									l7.137-1.28l2.265-0.406c0.01,0.027,0.021,0.054,0.034,0.081c0.016,0.026,0.031,0.049,0.049,0.071L111.153,15.719z
									 M111.05,15.829l-2.453,2.625c-0.119-0.078-0.267-0.104-0.407-0.066l-1.014-2.362l-1.287-3
									c0.023-0.038,0.041-0.079,0.055-0.121L111.05,15.829z M104.296,17.411l1.245-4.153c0.056-0.009,0.109-0.027,0.162-0.056
									c0.028-0.015,0.054-0.033,0.078-0.053l1.255,2.924l1.019,2.373c-0.077,0.049-0.138,0.114-0.178,0.189L104.296,17.411z
									 M116.323,10.925l3.15,0.185l-1.094,8.336c-0.019,0.002-0.035,0.003-0.054,0.005l-2.289-8.17
									c0.013-0.006,0.023-0.012,0.036-0.018C116.207,11.189,116.294,11.063,116.323,10.925 M117.902,19.821l-9.082-0.979
									c-0.004-0.071-0.023-0.145-0.061-0.213c-0.016-0.027-0.034-0.053-0.054-0.078l2.476-2.646l6.74,3.86
									C117.914,19.784,117.907,19.803,117.902,19.821 M107.879,19.113c0.018,0.033,0.037,0.062,0.061,0.087l-6.471,7.813
									c-0.015-0.008-0.03-0.017-0.046-0.024l2.831-9.435l3.573,1.222C107.805,18.887,107.82,19.007,107.879,19.113 M85.47,27.503
									l-2.748-0.741c0.005-0.091-0.014-0.184-0.061-0.271c-0.025-0.046-0.058-0.086-0.094-0.121l4.625-6.551
									c0.016,0.008,0.028,0.013,0.043,0.02L85.47,27.503z M99.67,15.349l1.18-7.075l4.208,4.191
									c-0.095,0.128-0.124,0.295-0.073,0.451l-5.041,2.65C99.879,15.46,99.78,15.386,99.67,15.349 M100.879,8.096l1.332-7.99
									c0.02,0.001,0.037,0,0.057-0.002l3.004,12.195c-0.018,0.006-0.034,0.015-0.052,0.022c-0.02,0.012-0.04,0.025-0.057,0.039
									L100.879,8.096z M105.902,12.521c-0.024-0.044-0.055-0.083-0.089-0.116l4.438-6.084l5.15,4.243
									c-0.05,0.083-0.074,0.178-0.072,0.273l-9.425,1.69L105.902,12.521z M116.271,10.58c-0.027-0.051-0.064-0.095-0.105-0.132
									L120.29,4.2c0.026,0.011,0.056,0.021,0.085,0.027l-0.883,6.735l-3.16-0.186C116.327,10.71,116.307,10.643,116.271,10.58
									 M120.809,4.123l7.059,7.129c-0.045,0.061-0.076,0.128-0.09,0.199l-8.138-0.479l0.884-6.733
									c0.069-0.005,0.139-0.023,0.204-0.06C120.757,4.161,120.784,4.145,120.809,4.123 M128.034,11.998l-5.527,15.833
									c-0.08-0.015-0.162-0.011-0.243,0.015l-3.594-7.481c0.212-0.145,0.284-0.429,0.158-0.657
									c-0.004-0.008-0.009-0.016-0.014-0.024l9.124-7.751C127.968,11.956,128.001,11.98,128.034,11.998 M122.042,27.987
									l-8.643-5.795l4.563-1.979c0.122,0.196,0.36,0.282,0.575,0.216l3.594,7.48C122.098,27.931,122.067,27.959,122.042,27.987
									 M113.253,22.093l-4.48-3.006c0.015-0.03,0.026-0.063,0.033-0.096l9.081,0.978c0.002,0.036,0.008,0.073,0.017,0.109
									L113.253,22.093z M113.092,22.162l-11.483,4.977c-0.009-0.012-0.017-0.021-0.025-0.031l6.468-7.812
									c0.149,0.097,0.344,0.108,0.51,0.018c0.05-0.027,0.094-0.063,0.13-0.103L113.092,22.162z M100.817,27.127l-5.106-2.987
									l3.692-7.824c0.041,0.01,0.083,0.014,0.125,0.014l0.23,1.598l1.307,9.035c-0.033,0.01-0.065,0.022-0.098,0.041
									C100.909,27.035,100.858,27.078,100.817,27.127 M95.584,24.064l-7.699-4.505c0.032-0.081,0.044-0.167,0.032-0.255
									l11.161-3.231c0.046,0.082,0.111,0.145,0.188,0.189L95.584,24.064z M95.52,24.199l-2.33,4.94
									c-0.103-0.031-0.215-0.029-0.32,0.011l-5.146-9.379c0.033-0.025,0.063-0.054,0.088-0.085L95.52,24.199z M92.573,29.794
									l-8.272,4.54c-0.058-0.074-0.133-0.131-0.216-0.164l1.493-6.484l6.967,1.876C92.535,29.64,92.544,29.718,92.573,29.794
									 M79.74,41.625l-7.773-13.781c0.03-0.023,0.058-0.051,0.082-0.08l9.139,5.366l-1.269,8.466
									C79.857,41.594,79.798,41.604,79.74,41.625 M77.478,22.664l4.32,3.796c-0.045,0.071-0.071,0.151-0.078,0.232l-9.571,0.647
									c-0.011-0.045-0.026-0.091-0.051-0.134c-0.004-0.007-0.008-0.014-0.012-0.019L77.478,22.664z M77.591,22.568l2.794-2.343
									c0.106,0.095,0.249,0.14,0.389,0.125l1.215,5.938c-0.003,0.001-0.006,0.002-0.009,0.004
									c-0.031,0.016-0.058,0.036-0.083,0.058L77.591,22.568z M81.22,19.838l1.868-0.118l-0.874,6.511
									c-0.028,0-0.056,0.004-0.085,0.009l-1.213-5.928c0.016-0.006,0.029-0.014,0.043-0.021
									C81.13,20.198,81.224,20.02,81.22,19.838 M83.239,19.711l3.688-0.233c0.01,0.046,0.027,0.093,0.051,0.136
									c0.025,0.045,0.057,0.086,0.092,0.12l-4.647,6.54c-0.021-0.008-0.041-0.017-0.063-0.022L83.239,19.711z M99.017,15.889
									c0.003,0.015,0.005,0.03,0.008,0.045l-8.218,2.38l-2.931,0.848c-0.006-0.01-0.011-0.021-0.017-0.031
									c-0.13-0.238-0.427-0.329-0.668-0.205l-2.96-4.167c0.08-0.064,0.138-0.151,0.165-0.246L99.017,15.889z M100.192,6.836
									c-0.051-0.092-0.125-0.163-0.214-0.207l2.012-6.092l-1.24,7.431l-0.594-0.592C100.27,7.222,100.29,7.014,100.192,6.836
									 M102.557-0.023l7.582,6.249l-4.444,6.091c-0.085-0.043-0.183-0.063-0.279-0.054l-3.004-12.194
									c0.017-0.007,0.034-0.015,0.051-0.024C102.496,0.025,102.528,0.002,102.557-0.023 M102.69-0.223l10.165,2.133
									c-0.006,0.091,0.013,0.186,0.06,0.271c0.024,0.045,0.054,0.083,0.088,0.116l-2.777,3.81l-7.574-6.244
									C102.667-0.164,102.681-0.192,102.69-0.223 M113.819,2.133l6.167,1.556c-0.01,0.098,0.008,0.199,0.06,0.292
									c0.031,0.055,0.071,0.104,0.117,0.142l-4.119,6.245c-0.086-0.04-0.18-0.055-0.274-0.043l-2.209-7.926
									c0.012-0.007,0.023-0.011,0.037-0.019C113.701,2.323,113.777,2.234,113.819,2.133 M129.578,8.333l-1.182,2.735
									c-0.119-0.032-0.252-0.021-0.369,0.044c-0.02,0.012-0.038,0.023-0.056,0.037l-7.064-7.138
									c0.002-0.003,0.004-0.006,0.006-0.009L129.578,8.333z M129.711,8.399l5.675,2.836c-0.011,0.03-0.018,0.061-0.021,0.092
									l-6.603,0.143c-0.008-0.054-0.026-0.107-0.054-0.157c-0.043-0.079-0.105-0.142-0.176-0.186L129.711,8.399z M129.77,8.264
									l2.927-6.784c0.066,0.02,0.135,0.025,0.203,0.016l0.59,2.021l2.163,7.419c-0.01,0.005-0.021,0.01-0.031,0.016
									c-0.07,0.038-0.126,0.09-0.169,0.153L129.77,8.264z M133.319,1.118l3.161,0.363l-0.657,9.41c-0.01,0-0.019,0-0.028,0.002
									l-2.177-7.463l-0.577-1.977c0.012-0.006,0.022-0.011,0.034-0.018C133.203,1.367,133.288,1.25,133.319,1.118 M136.626,1.499
									l9.419,1.082c0.002,0.076,0.021,0.152,0.061,0.225c0.003,0.006,0.008,0.011,0.011,0.018l-6.75,5.577l-3.167,2.618
									c-0.066-0.059-0.144-0.099-0.229-0.118L136.626,1.499z M136.637,1.351l0.542-7.778c0.056-0.01,0.109-0.026,0.162-0.055
									c0.042-0.023,0.079-0.054,0.112-0.085l8.691,8.829c-0.039,0.052-0.066,0.11-0.083,0.171L136.637,1.351z M146.906-4.702
									l4.616,1.044c-0.018,0.108-0.001,0.222,0.055,0.324c0.008,0.013,0.016,0.024,0.022,0.036l-4.78,5.44
									c-0.056-0.037-0.116-0.06-0.181-0.071L146.906-4.702z M152.481,3.58c-0.043,0.011-0.087,0.027-0.128,0.05
									c-0.104,0.057-0.18,0.146-0.223,0.248l-3.536-0.881l3.212-6.119c0.048,0.023,0.1,0.038,0.152,0.045L152.481,3.58z
									 M143.715,12.331c-0.004-0.004-0.01-0.008-0.015-0.011l4.824-9.188l3.57,0.889c-0.009,0.098,0.01,0.199,0.06,0.29
									c0.009,0.018,0.019,0.032,0.028,0.046L143.715,12.331z M136.511,13.7c-0.01-0.033-0.022-0.065-0.04-0.094
									c-0.014-0.026-0.029-0.049-0.048-0.071l1.576-1.69l4.902,0.867c0,0.005,0,0.01,0,0.016L136.511,13.7z M101.966,27.145
									l11.272-4.883l8.721,5.849c-0.017,0.037-0.03,0.075-0.038,0.113L101.966,27.145z M93.505,29.421
									c-0.007-0.014-0.014-0.028-0.021-0.042c-0.04-0.073-0.096-0.133-0.161-0.176l2.326-4.93l5.095,2.983
									c-0.031,0.075-0.042,0.159-0.032,0.242L93.505,29.421z M80.216,19.869c0.002,0.076,0.022,0.152,0.062,0.224
									c0.004,0.007,0.008,0.012,0.013,0.021l-2.811,2.356l-3.578-3.144c0.029-0.045,0.051-0.095,0.063-0.145L80.216,19.869z
									 M83.71,14.826c0.011,0.005,0.022,0.01,0.033,0.013l-0.636,4.731l-1.914,0.121c-0.009-0.027-0.021-0.056-0.035-0.083
									c-0.035-0.063-0.082-0.116-0.137-0.158L83.71,14.826z M84.387,14.193l14.945-6.842c0.078,0.119,0.201,0.196,0.333,0.221
									l-0.211,7.755c-0.061,0.009-0.123,0.028-0.181,0.06c-0.14,0.075-0.228,0.209-0.253,0.354l-14.603-1.375
									c0-0.062-0.012-0.122-0.035-0.18L84.387,14.193z M132.361,1.168c0.009,0.022,0.019,0.048,0.031,0.071
									c0.042,0.076,0.101,0.136,0.17,0.181l-2.926,6.778l-8.665-4.331c0.015-0.056,0.02-0.116,0.015-0.174L132.361,1.168z
									 M136.937-6.448c0.03,0.011,0.062,0.017,0.095,0.021l-0.541,7.761l-3.156-0.362c-0.003-0.073-0.022-0.147-0.061-0.216
									c-0.037-0.068-0.087-0.123-0.146-0.166L136.937-6.448z M147.308-9.603l4.355,5.671c-0.039,0.04-0.07,0.084-0.095,0.133
									l-4.656-1.054l0.184-4.662c0.056-0.011,0.11-0.028,0.163-0.057C147.275-9.581,147.292-9.592,147.308-9.603"/>
							</g>
						</g>
					</g>
					<path clip-path="url(#SVGID_15_)" fill="#5BC7D4" d="M87.292,56.877l7.59,4.445c-0.063,0.229,0.009,0.483,0.205,0.643
						c0.264,0.214,0.652,0.174,0.866-0.088c0.155-0.192,0.177-0.448,0.077-0.658l8.924-7.328c0.264,0.196,0.636,0.153,0.846-0.105
						c0.214-0.263,0.174-0.651-0.09-0.865c-0.073-0.062-0.156-0.1-0.242-0.12l1.078-9.761c0.168-0.009,0.33-0.085,0.444-0.225
						c0.153-0.19,0.176-0.443,0.079-0.648l11.769-8.129c0.017,0.017,0.033,0.033,0.053,0.048c0.264,0.215,0.651,0.175,0.867-0.089
						c0.092-0.112,0.137-0.248,0.138-0.383l7.728-1.08c0.034,0.115,0.102,0.223,0.202,0.304c0.264,0.216,0.652,0.176,0.866-0.089
						c0.098-0.119,0.142-0.266,0.138-0.408l12.536-2.27c0.036,0.105,0.101,0.204,0.194,0.28c0.265,0.214,0.652,0.175,0.866-0.09
						c0.215-0.264,0.176-0.65-0.089-0.866c-0.101-0.082-0.219-0.127-0.339-0.137l-0.565-8.419c0.133-0.027,0.255-0.099,0.348-0.213
						c0.185-0.228,0.18-0.548,0.005-0.769l13.827-14.68l-0.067-0.063l0.001,0.001c0.265,0.215,0.652,0.176,0.867-0.09
						c0.214-0.263,0.175-0.65-0.09-0.865c-0.057-0.048-0.121-0.081-0.188-0.104l0.922-6.51c0.173-0.006,0.341-0.082,0.458-0.227
						c0.11-0.137,0.153-0.306,0.133-0.469l7.422-2.103c0.038,0.083,0.097,0.161,0.173,0.223c0.264,0.216,0.652,0.176,0.866-0.088
						c0.215-0.264,0.175-0.652-0.088-0.866c-0.119-0.097-0.263-0.142-0.404-0.139l-1.598-9.183c0.107-0.035,0.207-0.1,0.284-0.195
						c0.216-0.263,0.175-0.651-0.089-0.867c-0.242-0.196-0.588-0.178-0.809,0.029l-15.196-12.07c0.157-0.258,0.104-0.6-0.138-0.797
						c-0.264-0.215-0.652-0.175-0.866,0.089c-0.215,0.265-0.175,0.652,0.089,0.867c0.069,0.057,0.146,0.095,0.229,0.116
						l-0.958,9.111c-0.171,0.007-0.337,0.084-0.452,0.227c-0.196,0.24-0.18,0.583,0.024,0.804l-7.307,8.98
						c-0.259-0.155-0.597-0.1-0.792,0.14c-0.162,0.2-0.179,0.471-0.063,0.684l-7.304,5.513c-0.013-0.015-0.027-0.027-0.043-0.039
						c-0.264-0.215-0.65-0.175-0.866,0.089c-0.193,0.237-0.18,0.573,0.017,0.796l-23.498,8.097c-0.037-0.073-0.09-0.138-0.157-0.193
						c-0.264-0.214-0.652-0.174-0.867,0.089c-0.214,0.265-0.174,0.652,0.089,0.868c0.099,0.078,0.213,0.123,0.33,0.134l1.027,20.549
						c-0.135,0.027-0.263,0.1-0.357,0.216c-0.086,0.105-0.13,0.231-0.136,0.358l-8.67,0.857c-0.031-0.124-0.101-0.24-0.208-0.328
						c-0.264-0.214-0.651-0.174-0.867,0.089c-0.147,0.182-0.174,0.421-0.092,0.624l-6.814,4.056
						c-0.025-0.031-0.056-0.062-0.089-0.088c-0.263-0.215-0.651-0.175-0.866,0.088c-0.215,0.265-0.175,0.652,0.089,0.868
						c0.017,0.014,0.034,0.025,0.053,0.038l-5.941,12.973c-0.231-0.066-0.489,0.005-0.649,0.205
						c-0.215,0.262-0.175,0.65,0.089,0.864c0.169,0.139,0.388,0.172,0.581,0.108l3.665,7.318c-0.055,0.035-0.105,0.078-0.148,0.131
						c-0.215,0.265-0.175,0.652,0.089,0.867C86.692,57.172,87.076,57.136,87.292,56.877 M95.323,60.891l-1.929-5.346l11.374-1.875
						c0.018,0.032,0.035,0.063,0.058,0.093l-0.839,0.688l-8.06,6.619c-0.02-0.021-0.04-0.041-0.063-0.062
						C95.707,60.882,95.506,60.844,95.323,60.891 M140.775,19.919l-1.067-0.447l-1.801-8.028l3.096,8.256
						c-0.066,0.037-0.128,0.088-0.18,0.149C140.806,19.871,140.79,19.896,140.775,19.919 M155.506,4.197l-5.301-3.377
						c0.061-0.138,0.069-0.292,0.024-0.434l4.055-1.952l1.45,5.622C155.651,4.085,155.572,4.133,155.506,4.197 M165.086-5.791
						l-5.492-1.911l4.027-7.604c0.071,0.025,0.146,0.036,0.22,0.034l1.597,9.184c-0.107,0.034-0.206,0.1-0.284,0.194
						C165.128-5.861,165.104-5.827,165.086-5.791 M95.556,32.685l-5.22,13.69c-0.031-0.007-0.063-0.01-0.095-0.013l-1.017-11.787
						c0.128-0.03,0.246-0.1,0.336-0.209c0.102-0.126,0.146-0.279,0.136-0.429L95.556,32.685z M104.714,53.496L93.331,55.37
						l-2.836-7.851c0.07-0.038,0.134-0.088,0.187-0.154c0.018-0.021,0.031-0.042,0.046-0.063l13.98,6.033
						C104.703,53.388,104.705,53.442,104.714,53.496 M89.814,47.456c0.032,0.025,0.067,0.049,0.104,0.066l-2.879,8.26l0.82-8.379
						l1.754-0.251C89.647,47.267,89.715,47.373,89.814,47.456 M87.878,47.217l1.198-12.253l0.985,11.415
						c-0.128,0.029-0.247,0.1-0.337,0.209c-0.091,0.112-0.137,0.251-0.138,0.385L87.878,47.217z M95.767,32.639l1.926-0.411
						c0.037,0.099,0.1,0.188,0.187,0.26c0.008,0.007,0.016,0.012,0.021,0.017l-3.151,5.848l-3.966,7.357L95.767,32.639z
						 M95.844,32.438l0.968-2.54c0.105,0.023,0.216,0.019,0.318-0.014l0.791,1.619c-0.048,0.031-0.092,0.071-0.13,0.119
						c-0.102,0.125-0.146,0.278-0.137,0.428L95.844,32.438z M97.559,29.326l8.67-0.857c0,0.003,0.001,0.007,0.002,0.009
						l-7.438,3.209c-0.035-0.058-0.08-0.108-0.135-0.153c-0.166-0.137-0.383-0.17-0.574-0.11l-0.79-1.618
						c0.047-0.033,0.091-0.072,0.129-0.12C97.508,29.58,97.552,29.454,97.559,29.326 M127.913,31.822l-6.171-7.987
						c0.012-0.013,0.022-0.025,0.034-0.039c0.03-0.037,0.055-0.078,0.076-0.121l7.822,2.45l-1.402,5.62
						C128.149,31.735,128.023,31.761,127.913,31.822 M163.238-15.7l-10.579,5.154c-0.032-0.047-0.072-0.091-0.119-0.129
						c-0.13-0.105-0.29-0.149-0.443-0.136l-1.679-6.944l12.793,1.869C163.211-15.823,163.22-15.762,163.238-15.7 M147.729-28.111
						l2.451,10.139l-2.972-0.434c-0.001-0.179-0.078-0.355-0.229-0.478c-0.07-0.059-0.151-0.097-0.234-0.117l0.958-9.11
						C147.711-28.111,147.72-28.111,147.729-28.111 M146.777-17.817c0.027-0.009,0.055-0.021,0.08-0.034l4.878,7.201
						c-0.022,0.02-0.044,0.041-0.063,0.064c-0.098,0.12-0.142,0.266-0.137,0.409l-3.462,0.428L146.777-17.817z M147.924-9.549
						l1.532,9.531c-0.084,0.026-0.161,0.071-0.229,0.132l-10.181-8.281c0.055-0.093,0.084-0.195,0.085-0.299L147.924-9.549z
						 M131.859,0.708l5.271,9.008c-0.027,0.025-0.054,0.051-0.077,0.081c-0.072,0.089-0.115,0.191-0.131,0.296l-5.393,0.307
						L130.39-1.637c0.027-0.008,0.056-0.017,0.081-0.027L131.859,0.708z M107.214,27.842c-0.008-0.008-0.019-0.014-0.027-0.021
						l6.79-13.023c0.087,0.029,0.178,0.04,0.268,0.03l2.61,9.992l-9.481,3.217C107.336,27.964,107.282,27.897,107.214,27.842
						 M132.524,15.898c-0.145-0.096-0.32-0.123-0.481-0.083l-0.495-5.235l5.375-0.305c0.014,0.099,0.053,0.193,0.113,0.276
						L132.524,15.898z M147.181-18.228l3.043,0.444l1.697,7.015c-0.012,0.005-0.022,0.01-0.033,0.015l-4.88-7.198
						c0.022-0.02,0.042-0.042,0.062-0.064C147.121-18.081,147.158-18.152,147.181-18.228 M114.77,14.388l9.401,1.269l-2.739,7.15
						c-0.148-0.033-0.303-0.01-0.436,0.063l-0.145-0.187l-6.229-8.042c0.012-0.012,0.023-0.024,0.033-0.037
						C114.71,14.538,114.747,14.464,114.77,14.388 M124.354,15.682l7.271,0.982c0.012,0.028,0.027,0.057,0.044,0.083l-7.521,4.751
						l-2.385,1.508c-0.023-0.026-0.05-0.053-0.078-0.076c-0.027-0.021-0.056-0.042-0.087-0.059L124.354,15.682z M124.421,15.509
						l1.576-4.116c0.17,0.034,0.351-0.006,0.491-0.112l2.244,2.216l2.85,2.816c-0.01,0.053-0.013,0.107-0.006,0.162L124.421,15.509z
						 M131.366,10.59l0.502,5.298c-0.059,0.036-0.112,0.082-0.158,0.137c-0.024,0.03-0.046,0.063-0.063,0.097l-2.776-2.743
						l-2.254-2.227c0.065-0.092,0.104-0.194,0.115-0.299L131.366,10.59z M120.692,23.518l-3.666,1.243l-2.606-9.979
						c0.021-0.01,0.039-0.019,0.059-0.029l6.375,8.229c-0.012,0.013-0.023,0.024-0.033,0.038
						C120.702,23.164,120.662,23.347,120.692,23.518 M114.788,14.135l10.774-3.082c0.038,0.08,0.094,0.153,0.167,0.213
						c0.032,0.025,0.063,0.047,0.098,0.064l-1.591,4.153l-9.442-1.275C114.793,14.184,114.791,14.159,114.788,14.135
						 M126.508,10.311c-0.034-0.028-0.07-0.052-0.108-0.071l3.745-11.866c0.022,0.003,0.042,0.005,0.064,0.007l1.141,12.03
						l-4.626,0.263C126.697,10.535,126.625,10.405,126.508,10.311 M148.104-9.571l3.465-0.427c0.036,0.106,0.102,0.203,0.193,0.279
						c0.051,0.041,0.105,0.071,0.163,0.094l-2.232,9.581c-0.019-0.002-0.039-0.002-0.058-0.002L148.104-9.571z M137.576,10.799
						l1.927,8.585l-6.718-2.817c0.048-0.189,0.005-0.394-0.124-0.548l4.504-5.339C137.288,10.771,137.434,10.809,137.576,10.799
						 M139.552,19.602l2.175,9.696c-0.021,0.008-0.042,0.018-0.063,0.028l-9.045-12.473c0.017-0.017,0.032-0.031,0.047-0.052
						c0.019-0.021,0.034-0.045,0.049-0.069L139.552,19.602z M131.799,16.892c0.049,0.038,0.101,0.069,0.154,0.092l-2.234,8.966
						l-7.813-2.446c0.018-0.117,0.003-0.234-0.046-0.344l9.932-6.275C131.794,16.887,131.797,16.889,131.799,16.892 M120.909,23.886
						c0.056,0.045,0.117,0.078,0.181,0.102l-1.8,9.005c-0.037-0.001-0.074,0.002-0.11,0.009l-2.107-8.063l3.678-1.248
						C120.788,23.763,120.841,23.83,120.909,23.886 M118.734,33.319l-11.313-4.844c0.022-0.088,0.026-0.178,0.01-0.268l9.47-3.212
						l2.106,8.06c-0.077,0.038-0.147,0.092-0.206,0.164C118.775,33.251,118.754,33.285,118.734,33.319 M106.886,27.705
						l-1.028-20.548c0.097-0.02,0.189-0.062,0.27-0.127l7.539,6.843c-0.176,0.262-0.127,0.617,0.123,0.821
						c0.009,0.007,0.018,0.012,0.026,0.019l-6.789,13.024C106.98,27.722,106.933,27.71,106.886,27.705 M106.314,6.766l12.498,2.597
						l-4.272,4.355c-0.23-0.166-0.539-0.154-0.753,0.022l-7.538-6.845C106.275,6.855,106.298,6.811,106.314,6.766 M119.023,9.406
						l6.48,1.347c-0.003,0.043,0,0.084,0.006,0.126l-10.771,3.082c-0.019-0.04-0.042-0.08-0.069-0.116L119.023,9.406z
						 M119.176,9.253l10.753-10.958c0.015,0.008,0.029,0.017,0.043,0.023l-3.744,11.863c-0.213-0.039-0.44,0.038-0.587,0.218
						c-0.044,0.054-0.077,0.114-0.101,0.176L119.176,9.253z M130.832-2.059l7.184,1.039l-0.584,10.597
						c-0.05,0.009-0.1,0.022-0.146,0.044l-1.002-1.712l-5.656-9.664c0.033-0.026,0.064-0.057,0.091-0.092
						C130.772-1.911,130.81-1.982,130.832-2.059 M138.195-0.994l10.831,1.565c0,0.106,0.028,0.211,0.082,0.305l-11.193,8.827
						c-0.091-0.071-0.195-0.114-0.302-0.128L138.195-0.994z M138.206-1.176l0.368-6.691c0.131-0.013,0.256-0.067,0.358-0.159
						l10.181,8.282c-0.026,0.044-0.048,0.092-0.062,0.138L138.206-1.176z M138.972-8.897l7.306-8.979
						c0.1,0.06,0.211,0.088,0.321,0.086l1.296,8.063l-8.784,1.081C139.086-8.737,139.038-8.822,138.972-8.897 M148.095-28.268
						l15.198,12.072c-0.024,0.041-0.043,0.085-0.057,0.13l-12.864-1.879l-2.467-10.207
						C147.974-28.178,148.037-28.217,148.095-28.268 M159.421-7.763l-6.664-2.319c0.019-0.101,0.012-0.203-0.019-0.302l10.58-5.155
						c0.032,0.048,0.072,0.091,0.119,0.129c0.008,0.007,0.015,0.013,0.024,0.019L159.421-7.763z M159.335-7.602l-2.093,3.952
						c-0.164-0.058-0.347-0.044-0.499,0.039l-4.123-6.188c0.003-0.003,0.006-0.007,0.009-0.01c0.027-0.033,0.049-0.066,0.068-0.104
						L159.335-7.602z M156.473-2.823l-2.069,0.998l-2.012-7.805c0.031-0.013,0.062-0.029,0.091-0.048l4.116,6.178
						c-0.014,0.013-0.027,0.026-0.038,0.043C156.41-3.272,156.384-3.027,156.473-2.823 M154.237-1.745l-4.085,1.97
						c-0.033-0.05-0.073-0.093-0.121-0.132c-0.051-0.041-0.104-0.072-0.161-0.096l2.264-9.579c0.027,0.001,0.054,0.001,0.081-0.003
						L154.237-1.745z M138.068,9.884c-0.009-0.016-0.019-0.033-0.029-0.048l8.241-6.5l2.94-2.317c0.011,0.01,0.021,0.02,0.033,0.029
						c0.258,0.211,0.637,0.176,0.854-0.074l5.288,3.368c-0.062,0.11-0.085,0.235-0.074,0.356L138.068,9.884z M140.912,20.716
						c0.101,0.081,0.22,0.127,0.34,0.137l0.527,7.851l-2.022-9.015l0.948,0.398C140.648,20.312,140.721,20.56,140.912,20.716
						 M141.395,29.604l-11.503-3.602l2.237-8.976c0.118,0.011,0.237-0.013,0.344-0.066l9.045,12.472
						c-0.017,0.015-0.032,0.033-0.047,0.051C141.439,29.521,141.415,29.562,141.395,29.604 M141.333,29.893l-12.536,2.27
						c-0.036-0.106-0.101-0.204-0.193-0.28c-0.048-0.04-0.1-0.07-0.154-0.092l1.398-5.61l11.492,3.598
						C141.334,29.815,141.332,29.854,141.333,29.893 M127.598,32.354l-7.728,1.08c-0.034-0.115-0.102-0.222-0.201-0.305
						c-0.062-0.048-0.129-0.083-0.199-0.106l1.798-9c0.114,0.005,0.229-0.021,0.331-0.078l6.171,7.989
						c-0.011,0.012-0.022,0.022-0.034,0.037C127.645,32.083,127.599,32.219,127.598,32.354 M106.824,32.584l0.079-3.654
						c0.15-0.019,0.296-0.094,0.399-0.222c0.018-0.021,0.033-0.043,0.047-0.066l11.324,4.85c-0.001,0.005-0.001,0.009-0.002,0.015
						L106.824,32.584z M106.644,32.57l-7.761-0.603c-0.002-0.04-0.01-0.078-0.019-0.116l7.438-3.208
						c0.036,0.057,0.08,0.108,0.135,0.152c0.085,0.07,0.184,0.113,0.285,0.131L106.644,32.57z M106.64,32.752l-0.195,9.06
						c-0.082,0.011-0.163,0.037-0.238,0.078l-1.604-2.025l-5.885-7.432c0.01-0.012,0.021-0.021,0.029-0.033
						c0.063-0.075,0.102-0.162,0.122-0.251L106.64,32.752z M105.902,42.511l-3.758,1.048l-3.601-10.998
						c0.011-0.005,0.022-0.01,0.032-0.017l5.92,7.477l1.569,1.981c-0.011,0.011-0.021,0.022-0.032,0.034
						C105.921,42.175,105.879,42.349,105.902,42.511 M101.97,43.607l-11.203,3.118c-0.039-0.085-0.097-0.163-0.174-0.226
						c-0.007-0.005-0.015-0.01-0.021-0.016l5.096-9.457l2.393-4.438c0.101,0.037,0.207,0.047,0.312,0.029L101.97,43.607z
						 M102.025,43.779l2.976,9.092c-0.058,0.037-0.112,0.082-0.158,0.137c-0.037,0.046-0.066,0.096-0.088,0.149l-13.956-6.021
						c0.02-0.076,0.025-0.158,0.016-0.235L102.025,43.779z M93.149,55.4l-5.73,0.946c-0.028-0.131-0.1-0.252-0.211-0.344
						c-0.014-0.01-0.028-0.021-0.043-0.031l2.924-8.39c0.079,0.016,0.158,0.016,0.236-0.001L93.149,55.4z M82.986,48.563
						c0.046-0.032,0.088-0.07,0.125-0.115c0.092-0.112,0.137-0.249,0.137-0.385l4.427-0.633l-0.826,8.438
						c-0.064-0.004-0.13,0.003-0.191,0.021L82.986,48.563z M88.91,34.568c0.007,0.002,0.016,0.004,0.022,0.005l-1.239,12.672
						l-4.47,0.638c-0.034-0.114-0.102-0.221-0.201-0.302c-0.018-0.014-0.035-0.026-0.054-0.038L88.91,34.568z M96.467,29.687
						c0.026,0.031,0.055,0.062,0.088,0.088c0.028,0.023,0.058,0.042,0.088,0.058l-1.01,2.65l-5.975,1.277
						c-0.002-0.005-0.004-0.011-0.006-0.017L96.467,29.687z M129.52-1.546L118.965,9.21l-12.614-2.622
						c0.004-0.049,0-0.099-0.009-0.146L129.52-1.546z M138.085-8.042c0.015,0.014,0.028,0.026,0.044,0.038
						c0.079,0.064,0.17,0.106,0.265,0.126l-0.367,6.676l-7.169-1.036c0-0.102-0.025-0.201-0.074-0.291L138.085-8.042z
						 M157.599-3.322c-0.038-0.085-0.096-0.161-0.173-0.225l-0.023-0.018l2.106-3.977l5.518,1.921
						c-0.012,0.064-0.014,0.129-0.005,0.193L157.599-3.322z M155.958,4.023c-0.016,0-0.03-0.001-0.045,0l-1.463-5.67l2.12-1.021
						c0.023,0.027,0.05,0.053,0.078,0.077c0.069,0.057,0.148,0.095,0.229,0.117L155.958,4.023z M155.479,5.055l-13.826,14.678
						c-0.145-0.101-0.319-0.131-0.48-0.096l-3.343-8.912c0.066-0.038,0.129-0.089,0.18-0.15c0.123-0.152,0.162-0.343,0.124-0.52
						l17.231-5.181c0.028,0.068,0.069,0.131,0.123,0.188L155.479,5.055z M106.97,42.015c-0.022-0.025-0.044-0.047-0.069-0.068
						c-0.082-0.066-0.178-0.109-0.275-0.127l0.195-9.055l11.849,0.92c0.009,0.072,0.03,0.142,0.063,0.205L106.97,42.015z
						 M105.287,52.781c-0.041,0.004-0.08,0.009-0.119,0.021L102.2,43.73l3.754-1.045c0.037,0.081,0.094,0.157,0.168,0.218
						c0.074,0.06,0.158,0.1,0.243,0.12L105.287,52.781z M94.956,61.156l-7.57-4.436c0.027-0.062,0.043-0.126,0.048-0.192
						l5.778-0.953l1.945,5.385c-0.06,0.037-0.114,0.081-0.16,0.138C94.982,61.116,94.969,61.136,94.956,61.156"/>
				</g>
			</g>
		</g>
	</g>
</g>
<g>
	<path fill="#FFFFFF" d="M101.297,13.912h-3.414v-0.77c0-0.781-0.184-1.456-0.551-2.025c-0.369-0.568-0.988-0.853-1.857-0.853
		c-0.469,0-0.854,0.089-1.156,0.268c-0.301,0.179-0.535,0.407-0.701,0.686c-0.168,0.279-0.285,0.603-0.352,0.971
		c-0.068,0.368-0.102,0.753-0.102,1.155c0,0.468,0.018,0.864,0.051,1.188c0.033,0.324,0.117,0.603,0.25,0.837
		c0.135,0.234,0.33,0.441,0.586,0.619c0.258,0.179,0.607,0.357,1.055,0.536l2.611,1.037c0.758,0.29,1.371,0.631,1.84,1.021
		c0.469,0.392,0.832,0.849,1.088,1.373s0.43,1.127,0.52,1.807c0.088,0.682,0.133,1.456,0.133,2.326c0,1.005-0.1,1.937-0.301,2.795
		c-0.201,0.859-0.529,1.596-0.986,2.209c-0.459,0.614-1.066,1.1-1.824,1.456c-0.76,0.356-1.686,0.536-2.779,0.536
		c-0.824,0-1.596-0.146-2.309-0.436c-0.715-0.29-1.328-0.687-1.842-1.188s-0.92-1.099-1.221-1.79s-0.451-1.439-0.451-2.243v-1.271
		h3.414v1.071c0,0.625,0.184,1.188,0.551,1.69c0.369,0.502,0.988,0.753,1.857,0.753c0.58,0,1.033-0.084,1.355-0.251
		c0.324-0.168,0.57-0.402,0.736-0.703c0.168-0.302,0.273-0.675,0.318-1.121s0.066-0.938,0.066-1.473c0-0.625-0.021-1.139-0.066-1.54
		s-0.139-0.725-0.283-0.971c-0.146-0.245-0.348-0.446-0.604-0.603c-0.256-0.155-0.598-0.323-1.021-0.502l-2.443-1.004
		c-1.473-0.603-2.459-1.4-2.961-2.394c-0.502-0.992-0.754-2.236-0.754-3.731c0-0.893,0.123-1.74,0.369-2.544
		c0.244-0.803,0.607-1.494,1.088-2.075c0.479-0.58,1.088-1.043,1.824-1.389s1.594-0.519,2.576-0.519
		c0.848,0,1.623,0.156,2.326,0.468c0.703,0.313,1.307,0.726,1.809,1.239c0.502,0.513,0.887,1.087,1.154,1.724
		c0.268,0.636,0.4,1.288,0.4,1.958V13.912z"/>
	<path fill="#FFFFFF" d="M107.623,7.051h2.846l5.322,23.831h-3.414l-1.004-5.121h-4.652l-1.006,5.121h-3.412L107.623,7.051z
		 M109.063,13.912h-0.066l-1.674,8.636h3.414L109.063,13.912z"/>
	<path fill="#FFFFFF" d="M117.463,7.051h5.49c4.016,0,6.023,2.332,6.023,6.995c0,1.384-0.217,2.572-0.652,3.565
		s-1.199,1.79-2.293,2.393l3.682,10.878H126.1l-3.18-10.175h-2.043v10.175h-3.414V7.051z M120.877,17.694h1.941
		c0.604,0,1.082-0.083,1.439-0.251c0.357-0.167,0.631-0.406,0.82-0.72c0.189-0.312,0.318-0.697,0.385-1.154s0.1-0.987,0.1-1.59
		s-0.033-1.133-0.1-1.59s-0.207-0.848-0.418-1.172c-0.213-0.323-0.508-0.563-0.887-0.72c-0.381-0.155-0.883-0.233-1.506-0.233
		h-1.775V17.694z"/>
</g>
<g>
	<path fill="#1EADE4" d="M80.564,46.654l-0.365-1.811H78.42l-0.365,1.811h-0.971l1.789-7.672h0.895l1.779,7.672H80.564z
		 M79.316,40.48l-0.723,3.534h1.434L79.316,40.48z"/>
	<path fill="#1EADE4" d="M84.432,39.813v2.575h1.758v0.829h-1.758v3.438h-0.926v-7.672h2.963v0.83H84.432z"/>
	<path fill="#1EADE4" d="M88.762,46.654v-7.672h2.963v0.83h-2.037v2.575h1.758v0.829h-1.758v2.608h2.037v0.829H88.762z"/>
	<path fill="#1EADE4" d="M95.83,39.813v6.842h-0.928v-6.842h-1.293v-0.83h3.5v0.83H95.83z"/>
	<path fill="#1EADE4" d="M104.145,43.552v3.103h-0.928v-3.103l-1.41-4.569h1.012l0.863,3.276l0.861-3.276h1.023L104.145,43.552z"/>
	<path fill="#1EADE4" d="M110.512,46.191c-0.291,0.323-0.713,0.55-1.326,0.55s-1.023-0.227-1.314-0.55
		c-0.529-0.582-0.561-1.455-0.561-3.373s0.031-2.791,0.561-3.372c0.291-0.323,0.701-0.549,1.314-0.549s1.035,0.226,1.326,0.549
		c0.527,0.581,0.549,1.454,0.549,3.372S111.039,45.609,110.512,46.191z M107.904,38.282v-0.873h0.883v0.873H107.904z
		 M109.811,40.017c-0.129-0.172-0.324-0.291-0.625-0.291c-0.303,0-0.496,0.119-0.625,0.291c-0.27,0.367-0.322,0.98-0.322,2.802
		s0.053,2.437,0.322,2.802c0.129,0.173,0.322,0.291,0.625,0.291c0.301,0,0.496-0.118,0.625-0.291c0.27-0.365,0.322-0.98,0.322-2.802
		S110.08,40.384,109.811,40.017z M109.584,38.282v-0.873h0.885v0.873H109.584z"/>
	<path fill="#1EADE4" d="M116.383,46.654l-1.982-5.248v5.248h-0.928v-7.672h0.861l1.973,5.248l-0.012-5.248h0.926v7.672H116.383z"/>
	<path fill="#1EADE4" d="M119.828,46.654v-7.672h2.963v0.83h-2.037v2.575h1.758v0.829h-1.758v2.608h2.037v0.829H119.828z"/>
	<path fill="#1EADE4" d="M126.895,39.813v6.842h-0.926v-6.842h-1.295v-0.83h3.502v0.83H126.895z"/>
	<path fill="#1EADE4" d="M130.309,46.654v-7.672h0.928v7.672H130.309z M130.34,38.282v-0.873h0.885v0.873H130.34z"/>
	<path fill="#1EADE4" d="M137.754,46.654v-5.463l-1.219,3.589h-0.57l-1.197-3.502v5.376h-0.926v-7.672h0.873l1.551,4.268
		l1.541-4.268h0.873v7.672H137.754z"/>
	<path fill="#1EADE4" d="M141.285,46.654v-7.672h0.928v7.672H141.285z M141.318,38.282v-0.873h0.883v0.873H141.318z"/>
</g>
</svg>
