<?xml version="1.0" encoding="utf-8"?>
<!-- Generator: Adobe Illustrator 16.0.0, SVG Export Plug-In . SVG Version: 6.00 Build 0)  -->
<!DOCTYPE svg PUBLIC "-//W3C//DTD SVG 1.1//EN" "http://www.w3.org/Graphics/SVG/1.1/DTD/svg11.dtd">
<svg version="1.1" id="Layer_1" xmlns="http://www.w3.org/2000/svg" xmlns:xlink="http://www.w3.org/1999/xlink" x="0px" y="0px"
	 width="176.667px" height="50px" viewBox="0 0 176.667 50" enable-background="new 0 0 176.667 50" xml:space="preserve">
<g>
	<g>
		<defs>
			<path id="SVGID_88_" d="M60.4,74.515c-2.912,0-5.272,2.361-5.272,5.274v24.243c0,2.91,2.36,5.271,5.272,5.271h54.755
				c2.912,0,5.273-2.361,5.273-5.271V79.789c0-2.913-2.361-5.274-5.273-5.274H60.4z"/>
		</defs>
		<clipPath id="SVGID_2_">
			<use xlink:href="#SVGID_88_"  overflow="visible"/>
		</clipPath>
		<g opacity="0.75" clip-path="url(#SVGID_2_)">
			<g>
				<defs>
					<rect id="SVGID_90_" x="37.319" y="44.657" width="116.085" height="91.445"/>
				</defs>
				<clipPath id="SVGID_3_">
					<use xlink:href="#SVGID_90_"  overflow="visible"/>
				</clipPath>
				<g clip-path="url(#SVGID_3_)">
					<defs>
						<rect id="SVGID_92_" x="37.319" y="44.657" width="116.085" height="91.445"/>
					</defs>
					<clipPath id="SVGID_5_">
						<use xlink:href="#SVGID_92_"  overflow="visible"/>
					</clipPath>
					<path clip-path="url(#SVGID_5_)" fill="#5BC7D4" d="M65.422,130.877l7.59,4.445c-0.063,0.229,0.009,0.483,0.205,0.643
						c0.264,0.214,0.652,0.174,0.866-0.088c0.155-0.192,0.177-0.448,0.077-0.658l8.924-7.328c0.264,0.196,0.636,0.153,0.846-0.105
						c0.214-0.263,0.174-0.651-0.09-0.865c-0.073-0.062-0.156-0.1-0.242-0.12l1.078-9.761c0.168-0.009,0.33-0.085,0.444-0.225
						c0.153-0.19,0.176-0.443,0.079-0.648l11.769-8.129c0.017,0.017,0.033,0.033,0.053,0.048c0.264,0.215,0.651,0.175,0.867-0.089
						c0.092-0.112,0.137-0.248,0.138-0.383l7.728-1.08c0.034,0.115,0.102,0.223,0.202,0.304c0.264,0.216,0.652,0.176,0.866-0.089
						c0.098-0.119,0.142-0.266,0.138-0.408l12.536-2.27c0.036,0.105,0.101,0.204,0.194,0.28c0.265,0.214,0.652,0.175,0.866-0.09
						c0.215-0.264,0.176-0.65-0.089-0.866c-0.101-0.082-0.219-0.127-0.339-0.137l-0.565-8.419c0.133-0.027,0.255-0.099,0.348-0.213
						c0.185-0.228,0.18-0.548,0.005-0.769l13.827-14.68l-0.067-0.063l0.001,0.001c0.265,0.215,0.652,0.176,0.867-0.09
						c0.214-0.263,0.175-0.65-0.09-0.865c-0.057-0.048-0.121-0.081-0.188-0.104l0.922-6.51c0.173-0.006,0.341-0.082,0.458-0.227
						c0.11-0.137,0.153-0.306,0.133-0.469l7.422-2.103c0.038,0.083,0.097,0.161,0.173,0.223c0.264,0.216,0.652,0.176,0.866-0.088
						c0.215-0.264,0.175-0.652-0.088-0.866c-0.119-0.097-0.263-0.142-0.404-0.139l-1.598-9.183c0.107-0.035,0.207-0.1,0.284-0.195
						c0.216-0.263,0.175-0.651-0.089-0.867c-0.242-0.196-0.588-0.178-0.809,0.029l-15.196-12.07c0.157-0.258,0.104-0.6-0.138-0.797
						c-0.264-0.215-0.652-0.175-0.866,0.089c-0.215,0.265-0.175,0.652,0.089,0.867c0.069,0.057,0.146,0.095,0.229,0.116
						l-0.958,9.111c-0.171,0.007-0.337,0.084-0.452,0.227c-0.196,0.24-0.18,0.583,0.024,0.804l-7.307,8.98
						c-0.259-0.155-0.597-0.1-0.792,0.14c-0.162,0.2-0.179,0.471-0.063,0.684l-7.304,5.513c-0.013-0.015-0.027-0.027-0.043-0.039
						c-0.264-0.215-0.65-0.175-0.866,0.089c-0.193,0.237-0.18,0.573,0.017,0.796l-23.498,8.097c-0.037-0.073-0.09-0.138-0.157-0.193
						c-0.264-0.214-0.652-0.174-0.867,0.089c-0.214,0.265-0.174,0.652,0.089,0.868c0.099,0.078,0.213,0.123,0.33,0.134l1.027,20.549
						c-0.135,0.027-0.263,0.1-0.357,0.216c-0.086,0.105-0.13,0.231-0.136,0.358l-8.67,0.857c-0.031-0.124-0.101-0.24-0.208-0.328
						c-0.264-0.214-0.651-0.174-0.867,0.089c-0.147,0.182-0.174,0.421-0.092,0.624l-6.814,4.056
						c-0.025-0.031-0.056-0.062-0.089-0.088c-0.263-0.215-0.651-0.175-0.866,0.088c-0.215,0.265-0.175,0.652,0.089,0.868
						c0.017,0.014,0.034,0.025,0.053,0.038l-5.941,12.973c-0.231-0.066-0.489,0.005-0.649,0.205
						c-0.215,0.262-0.175,0.65,0.089,0.864c0.169,0.139,0.388,0.172,0.581,0.108l3.665,7.318c-0.055,0.035-0.105,0.078-0.148,0.131
						c-0.215,0.265-0.175,0.652,0.089,0.867C64.822,131.172,65.206,131.136,65.422,130.877 M73.453,134.891l-1.929-5.346
						l11.374-1.875c0.018,0.032,0.035,0.063,0.058,0.093l-0.839,0.688l-8.06,6.619c-0.02-0.021-0.04-0.041-0.063-0.062
						C73.837,134.882,73.636,134.844,73.453,134.891 M118.905,93.919l-1.067-0.447l-1.801-8.028l3.096,8.256
						c-0.066,0.037-0.128,0.088-0.18,0.149C118.936,93.871,118.92,93.896,118.905,93.919 M133.636,78.197l-5.301-3.377
						c0.061-0.138,0.069-0.292,0.024-0.434l4.055-1.952l1.45,5.622C133.781,78.085,133.702,78.133,133.636,78.197 M143.216,68.209
						l-5.492-1.911l4.027-7.604c0.071,0.025,0.146,0.036,0.22,0.034l1.597,9.184c-0.107,0.034-0.206,0.1-0.284,0.194
						C143.258,68.139,143.234,68.173,143.216,68.209 M73.686,106.685l-5.22,13.69c-0.031-0.007-0.063-0.01-0.095-0.013
						l-1.017-11.787c0.128-0.03,0.246-0.1,0.336-0.209c0.102-0.126,0.146-0.279,0.136-0.429L73.686,106.685z M82.844,127.496
						l-11.383,1.874l-2.836-7.851c0.07-0.038,0.134-0.088,0.187-0.154c0.018-0.021,0.031-0.042,0.046-0.063l13.98,6.033
						C82.833,127.388,82.835,127.442,82.844,127.496 M67.944,121.456c0.032,0.025,0.067,0.049,0.104,0.066l-2.879,8.26l0.82-8.379
						l1.754-0.251C67.777,121.267,67.845,121.373,67.944,121.456 M66.008,121.217l1.198-12.253l0.985,11.415
						c-0.128,0.029-0.247,0.1-0.337,0.209c-0.091,0.112-0.137,0.251-0.138,0.385L66.008,121.217z M73.896,106.639l1.926-0.411
						c0.037,0.099,0.1,0.188,0.187,0.26c0.008,0.007,0.016,0.012,0.021,0.017l-3.151,5.848l-3.966,7.357L73.896,106.639z
						 M73.974,106.438l0.968-2.54c0.105,0.023,0.216,0.019,0.318-0.014l0.791,1.619c-0.048,0.031-0.092,0.071-0.13,0.119
						c-0.102,0.125-0.146,0.278-0.137,0.428L73.974,106.438z M75.688,103.326l8.67-0.857c0,0.003,0.001,0.007,0.002,0.009
						l-7.438,3.209c-0.035-0.058-0.08-0.108-0.135-0.153c-0.166-0.137-0.383-0.17-0.574-0.11l-0.79-1.618
						c0.047-0.033,0.091-0.072,0.129-0.12C75.638,103.58,75.682,103.454,75.688,103.326 M106.043,105.822l-6.171-7.987
						c0.012-0.013,0.022-0.025,0.034-0.039c0.03-0.037,0.055-0.078,0.076-0.121l7.822,2.45l-1.402,5.62
						C106.279,105.735,106.153,105.761,106.043,105.822 M141.368,58.3l-10.579,5.154c-0.032-0.047-0.072-0.091-0.119-0.129
						c-0.13-0.105-0.29-0.149-0.443-0.136l-1.679-6.944l12.793,1.869C141.341,58.177,141.35,58.238,141.368,58.3 M125.858,45.889
						l2.451,10.139l-2.972-0.434c-0.001-0.179-0.078-0.355-0.229-0.478c-0.07-0.059-0.151-0.097-0.234-0.117l0.958-9.11
						C125.841,45.889,125.85,45.889,125.858,45.889 M124.907,56.183c0.027-0.009,0.055-0.021,0.08-0.034l4.878,7.201
						c-0.022,0.02-0.044,0.041-0.063,0.064c-0.098,0.12-0.142,0.266-0.137,0.409l-3.462,0.428L124.907,56.183z M126.054,64.451
						l1.532,9.531c-0.084,0.026-0.161,0.071-0.229,0.132l-10.181-8.281c0.055-0.093,0.084-0.195,0.085-0.299L126.054,64.451z
						 M109.989,74.708l5.271,9.008c-0.027,0.025-0.054,0.051-0.077,0.081c-0.072,0.089-0.115,0.191-0.131,0.296l-5.393,0.307
						l-1.141-12.036c0.027-0.008,0.056-0.017,0.081-0.027L109.989,74.708z M85.344,101.842c-0.008-0.008-0.019-0.014-0.027-0.021
						l6.79-13.023c0.087,0.029,0.178,0.04,0.268,0.03l2.61,9.992l-9.481,3.217C85.466,101.964,85.412,101.897,85.344,101.842
						 M110.654,89.898c-0.145-0.096-0.32-0.123-0.481-0.083l-0.495-5.235l5.375-0.305c0.014,0.099,0.053,0.193,0.113,0.276
						L110.654,89.898z M125.311,55.772l3.043,0.444l1.697,7.015c-0.012,0.005-0.022,0.01-0.033,0.015l-4.88-7.198
						c0.022-0.02,0.042-0.042,0.062-0.064C125.251,55.919,125.288,55.848,125.311,55.772 M92.899,88.388l9.401,1.269l-2.739,7.15
						c-0.148-0.033-0.303-0.01-0.436,0.063l-0.145-0.187l-6.229-8.042c0.012-0.012,0.023-0.024,0.033-0.037
						C92.84,88.538,92.877,88.464,92.899,88.388 M102.484,89.682l7.271,0.982c0.012,0.028,0.027,0.057,0.044,0.083l-7.521,4.751
						l-2.385,1.508c-0.023-0.026-0.05-0.053-0.078-0.076c-0.027-0.021-0.056-0.042-0.087-0.059L102.484,89.682z M102.551,89.509
						l1.576-4.116c0.17,0.034,0.351-0.006,0.491-0.112l2.244,2.216l2.85,2.816c-0.01,0.053-0.013,0.107-0.006,0.162L102.551,89.509z
						 M109.496,84.59l0.502,5.298c-0.059,0.036-0.112,0.082-0.158,0.137c-0.024,0.03-0.046,0.063-0.063,0.097L107,87.378
						l-2.254-2.227c0.065-0.092,0.104-0.194,0.115-0.299L109.496,84.59z M98.822,97.518l-3.666,1.243l-2.606-9.979
						c0.021-0.01,0.039-0.019,0.059-0.029l6.375,8.229c-0.012,0.013-0.023,0.024-0.033,0.038
						C98.832,97.164,98.792,97.347,98.822,97.518 M92.918,88.135l10.774-3.082c0.038,0.08,0.094,0.153,0.167,0.213
						c0.032,0.025,0.063,0.047,0.098,0.064l-1.591,4.153l-9.442-1.275C92.923,88.184,92.921,88.159,92.918,88.135 M104.638,84.311
						c-0.034-0.028-0.07-0.052-0.108-0.071l3.745-11.866c0.022,0.003,0.042,0.005,0.064,0.007l1.141,12.03l-4.626,0.263
						C104.827,84.535,104.755,84.405,104.638,84.311 M126.233,64.429l3.465-0.427c0.036,0.106,0.102,0.203,0.193,0.279
						c0.051,0.041,0.105,0.071,0.163,0.094l-2.232,9.581c-0.019-0.002-0.039-0.002-0.058-0.002L126.233,64.429z M115.706,84.799
						l1.927,8.585l-6.718-2.817c0.048-0.189,0.005-0.394-0.124-0.548l4.504-5.339C115.418,84.771,115.563,84.809,115.706,84.799
						 M117.682,93.602l2.175,9.696c-0.021,0.008-0.042,0.018-0.063,0.028l-9.045-12.473c0.017-0.017,0.032-0.031,0.047-0.052
						c0.019-0.021,0.034-0.045,0.049-0.069L117.682,93.602z M109.929,90.892c0.049,0.038,0.101,0.069,0.154,0.092l-2.234,8.966
						l-7.813-2.446c0.018-0.117,0.003-0.234-0.046-0.344l9.932-6.275C109.924,90.887,109.927,90.889,109.929,90.892 M99.039,97.886
						c0.056,0.045,0.117,0.078,0.181,0.102l-1.8,9.005c-0.037-0.001-0.074,0.002-0.11,0.009l-2.107-8.063l3.678-1.248
						C98.918,97.763,98.971,97.83,99.039,97.886 M96.864,107.319l-11.313-4.844c0.022-0.088,0.026-0.178,0.01-0.268l9.47-3.212
						l2.106,8.06c-0.077,0.038-0.147,0.092-0.206,0.164C96.905,107.251,96.884,107.285,96.864,107.319 M85.016,101.705
						l-1.028-20.548c0.097-0.02,0.189-0.062,0.27-0.127l7.539,6.843c-0.176,0.262-0.127,0.617,0.123,0.821
						c0.009,0.007,0.018,0.012,0.026,0.019l-6.789,13.024C85.11,101.722,85.063,101.71,85.016,101.705 M84.444,80.766l12.498,2.597
						l-4.272,4.355c-0.23-0.166-0.539-0.154-0.753,0.022l-7.538-6.845C84.405,80.855,84.428,80.811,84.444,80.766 M97.153,83.406
						l6.48,1.347c-0.003,0.043,0,0.084,0.006,0.126l-10.771,3.082c-0.019-0.04-0.042-0.08-0.069-0.116L97.153,83.406z
						 M97.306,83.253l10.753-10.958c0.015,0.008,0.029,0.017,0.043,0.023l-3.744,11.863c-0.213-0.039-0.44,0.038-0.587,0.218
						c-0.044,0.054-0.077,0.114-0.101,0.176L97.306,83.253z M108.962,71.941l7.184,1.039l-0.584,10.597
						c-0.05,0.009-0.1,0.022-0.146,0.044l-1.002-1.712l-5.656-9.664c0.033-0.026,0.064-0.057,0.091-0.092
						C108.902,72.089,108.939,72.018,108.962,71.941 M116.325,73.006l10.831,1.565c0,0.106,0.028,0.211,0.082,0.305l-11.193,8.827
						c-0.091-0.071-0.195-0.114-0.302-0.128L116.325,73.006z M116.336,72.824l0.368-6.691c0.131-0.013,0.256-0.067,0.358-0.159
						l10.181,8.282c-0.026,0.044-0.048,0.092-0.062,0.138L116.336,72.824z M117.102,65.103l7.306-8.979
						c0.1,0.06,0.211,0.088,0.321,0.086l1.296,8.063l-8.784,1.081C117.216,65.263,117.168,65.178,117.102,65.103 M126.225,45.732
						l15.198,12.072c-0.024,0.041-0.043,0.085-0.057,0.13l-12.864-1.879l-2.467-10.207
						C126.104,45.822,126.167,45.783,126.225,45.732 M137.551,66.237l-6.664-2.319c0.019-0.101,0.012-0.203-0.019-0.302l10.58-5.155
						c0.032,0.048,0.072,0.091,0.119,0.129c0.008,0.007,0.015,0.013,0.024,0.019L137.551,66.237z M137.465,66.398l-2.093,3.952
						c-0.164-0.058-0.347-0.044-0.499,0.039l-4.123-6.188c0.003-0.003,0.006-0.007,0.009-0.01c0.027-0.033,0.049-0.066,0.068-0.104
						L137.465,66.398z M134.603,71.177l-2.069,0.998l-2.012-7.805c0.031-0.013,0.062-0.029,0.091-0.048l4.116,6.178
						c-0.014,0.013-0.027,0.026-0.038,0.043C134.54,70.728,134.514,70.973,134.603,71.177 M132.367,72.255l-4.085,1.97
						c-0.033-0.05-0.073-0.093-0.121-0.132c-0.051-0.041-0.104-0.072-0.161-0.096l2.264-9.579c0.027,0.001,0.054,0.001,0.081-0.003
						L132.367,72.255z M116.198,83.884c-0.009-0.016-0.019-0.033-0.029-0.048l8.241-6.5l2.94-2.317
						c0.011,0.01,0.021,0.02,0.033,0.029c0.258,0.211,0.637,0.176,0.854-0.074l5.288,3.368c-0.062,0.11-0.085,0.235-0.074,0.356
						L116.198,83.884z M119.042,94.716c0.101,0.081,0.22,0.127,0.34,0.137l0.527,7.851l-2.022-9.015l0.948,0.398
						C118.778,94.312,118.851,94.56,119.042,94.716 M119.524,103.604l-11.503-3.602l2.237-8.976
						c0.118,0.011,0.237-0.013,0.344-0.066l9.045,12.472c-0.017,0.015-0.032,0.033-0.047,0.051
						C119.569,103.521,119.545,103.562,119.524,103.604 M119.463,103.893l-12.536,2.27c-0.036-0.106-0.101-0.204-0.193-0.28
						c-0.048-0.04-0.1-0.07-0.154-0.092l1.398-5.61l11.492,3.598C119.464,103.815,119.462,103.854,119.463,103.893 M105.728,106.354
						L98,107.434c-0.034-0.115-0.102-0.222-0.201-0.305c-0.062-0.048-0.129-0.083-0.199-0.106l1.798-9
						c0.114,0.005,0.229-0.021,0.331-0.078l6.171,7.989c-0.011,0.012-0.022,0.022-0.034,0.037
						C105.774,106.083,105.729,106.219,105.728,106.354 M84.954,106.584l0.079-3.654c0.15-0.019,0.296-0.094,0.399-0.222
						c0.018-0.021,0.033-0.043,0.047-0.066l11.324,4.85c-0.001,0.005-0.001,0.009-0.002,0.015L84.954,106.584z M84.773,106.57
						l-7.761-0.603c-0.002-0.04-0.01-0.078-0.019-0.116l7.438-3.208c0.036,0.057,0.08,0.108,0.135,0.152
						c0.085,0.07,0.184,0.113,0.285,0.131L84.773,106.57z M84.77,106.752l-0.195,9.06c-0.082,0.011-0.163,0.037-0.238,0.078
						l-1.604-2.025l-5.885-7.432c0.01-0.012,0.021-0.021,0.029-0.033c0.063-0.075,0.102-0.162,0.122-0.251L84.77,106.752z
						 M84.032,116.511l-3.758,1.048l-3.601-10.998c0.011-0.005,0.022-0.01,0.032-0.017l5.92,7.477l1.569,1.981
						c-0.011,0.011-0.021,0.022-0.032,0.034C84.051,116.175,84.009,116.349,84.032,116.511 M80.1,117.607l-11.203,3.118
						c-0.039-0.085-0.097-0.163-0.174-0.226c-0.007-0.005-0.015-0.01-0.021-0.016l5.096-9.457l2.393-4.438
						c0.101,0.037,0.207,0.047,0.312,0.029L80.1,117.607z M80.155,117.779l2.976,9.092c-0.058,0.037-0.112,0.082-0.158,0.137
						c-0.037,0.046-0.066,0.096-0.088,0.149l-13.956-6.021c0.02-0.076,0.025-0.158,0.016-0.235L80.155,117.779z M71.279,129.4
						l-5.73,0.946c-0.028-0.131-0.1-0.252-0.211-0.344c-0.014-0.01-0.028-0.021-0.043-0.031l2.924-8.39
						c0.079,0.016,0.158,0.016,0.236-0.001L71.279,129.4z M61.116,122.563c0.046-0.032,0.088-0.07,0.125-0.115
						c0.092-0.112,0.137-0.249,0.137-0.385l4.427-0.633l-0.826,8.438c-0.064-0.004-0.13,0.003-0.191,0.021L61.116,122.563z
						 M67.04,108.568c0.007,0.002,0.016,0.004,0.022,0.005l-1.239,12.672l-4.47,0.638c-0.034-0.114-0.102-0.221-0.201-0.302
						c-0.018-0.014-0.035-0.026-0.054-0.038L67.04,108.568z M74.597,103.687c0.026,0.031,0.055,0.062,0.088,0.088
						c0.028,0.023,0.058,0.042,0.088,0.058l-1.01,2.65l-5.975,1.277c-0.002-0.005-0.004-0.011-0.006-0.017L74.597,103.687z
						 M107.649,72.454L97.095,83.21L84.48,80.588c0.004-0.049,0-0.099-0.009-0.146L107.649,72.454z M116.215,65.958
						c0.015,0.014,0.028,0.026,0.044,0.038c0.079,0.064,0.17,0.106,0.265,0.126l-0.367,6.676l-7.169-1.036
						c0-0.102-0.025-0.201-0.074-0.291L116.215,65.958z M135.729,70.678c-0.038-0.085-0.096-0.161-0.173-0.225l-0.023-0.018
						l2.106-3.977l5.518,1.921c-0.012,0.064-0.014,0.129-0.005,0.193L135.729,70.678z M134.088,78.023c-0.016,0-0.03-0.001-0.045,0
						l-1.463-5.67l2.12-1.021c0.023,0.027,0.05,0.053,0.078,0.077c0.069,0.057,0.148,0.095,0.229,0.117L134.088,78.023z
						 M133.609,79.055l-13.826,14.678c-0.145-0.101-0.319-0.131-0.48-0.096l-3.343-8.912c0.066-0.038,0.129-0.089,0.18-0.15
						c0.123-0.152,0.162-0.343,0.124-0.52l17.231-5.181c0.028,0.068,0.069,0.131,0.123,0.188L133.609,79.055z M85.1,116.015
						c-0.022-0.025-0.044-0.047-0.069-0.068c-0.082-0.066-0.178-0.109-0.275-0.127l0.195-9.055l11.849,0.92
						c0.009,0.072,0.03,0.142,0.063,0.205L85.1,116.015z M83.417,126.781c-0.041,0.004-0.08,0.009-0.119,0.021l-2.968-9.071
						l3.754-1.045c0.037,0.081,0.094,0.157,0.168,0.218c0.074,0.06,0.158,0.1,0.243,0.12L83.417,126.781z M73.086,135.156
						l-7.57-4.436c0.027-0.062,0.043-0.126,0.048-0.192l5.778-0.953l1.945,5.385c-0.06,0.037-0.114,0.081-0.16,0.138
						C73.112,135.116,73.099,135.136,73.086,135.156"/>
				</g>
			</g>
		</g>
	</g>
</g>
<g>
	<defs>
		<path id="SVGID_113_" d="M6.761,0.5c-2.829,0-5.123,2.293-5.123,5.119v23.545c0,2.828,2.294,5.122,5.123,5.122h163.648
			c2.826,0,5.119-2.294,5.119-5.122V5.619c0-2.826-2.293-5.119-5.119-5.119H6.761z"/>
	</defs>
	<clipPath id="SVGID_6_">
		<use xlink:href="#SVGID_113_"  overflow="visible"/>
	</clipPath>
	
		<linearGradient id="SVGID_8_" gradientUnits="userSpaceOnUse" x1="-225.9087" y1="264.5322" x2="-225.083" y2="264.5322" gradientTransform="matrix(210.599 0 0 -210.599 47577.7031 55727.6953)">
		<stop  offset="0" style="stop-color:#0EB9CD"/>
		<stop  offset="1" style="stop-color:#05ADE2"/>
	</linearGradient>
	<rect x="1.638" y="0.5" clip-path="url(#SVGID_6_)" fill="url(#SVGID_8_)" width="173.89" height="33.786"/>
</g>
<g>
	<defs>
		<path id="SVGID_116_" d="M6.761,0.5c-2.829,0-5.123,2.293-5.123,5.119v23.545c0,2.828,2.294,5.122,5.123,5.122h163.648
			c2.826,0,5.119-2.294,5.119-5.122V5.619c0-2.826-2.293-5.119-5.119-5.119H6.761z"/>
	</defs>
	<clipPath id="SVGID_9_">
		<use xlink:href="#SVGID_116_"  overflow="visible"/>
	</clipPath>
	<g opacity="0.75" clip-path="url(#SVGID_9_)">
		<g>
			<defs>
				<rect id="SVGID_118_" x="94.817" y="-28.496" width="112.738" height="88.807"/>
			</defs>
			<clipPath id="SVGID_11_">
				<use xlink:href="#SVGID_118_"  overflow="visible"/>
			</clipPath>
			<g clip-path="url(#SVGID_11_)">
				<defs>
					<rect id="SVGID_120_" x="94.817" y="-28.496" width="112.738" height="88.807"/>
				</defs>
				<clipPath id="SVGID_13_">
					<use xlink:href="#SVGID_120_"  overflow="visible"/>
				</clipPath>
				<g opacity="0.3" clip-path="url(#SVGID_13_)">
					<g>
						<defs>
							<rect id="SVGID_122_" x="94.817" y="2.337" width="112.738" height="54.033"/>
						</defs>
						<clipPath id="SVGID_15_">
							<use xlink:href="#SVGID_122_"  overflow="visible"/>
						</clipPath>
						<g clip-path="url(#SVGID_15_)">
							<defs>
								<rect id="SVGID_124_" x="94.817" y="2.337" width="112.738" height="54.033"/>
							</defs>
							<clipPath id="SVGID_17_">
								<use xlink:href="#SVGID_124_"  overflow="visible"/>
							</clipPath>
							<path clip-path="url(#SVGID_17_)" fill="#5BC7D4" d="M95.245,46.746c0.07,0.356,0.416,0.588,0.775,0.518
								c0.07-0.015,0.139-0.041,0.199-0.075l5.092,7.122c-0.156,0.147-0.234,0.373-0.188,0.601c0.072,0.357,0.416,0.589,0.777,0.52
								c0.266-0.054,0.463-0.265,0.514-0.514l15.242,0.854c0.002,0.022,0.004,0.046,0.01,0.068c0.072,0.357,0.418,0.589,0.777,0.518
								c0.355-0.071,0.586-0.42,0.514-0.775c-0.01-0.044-0.021-0.087-0.039-0.129l7.242-4.422c0.148,0.18,0.391,0.271,0.633,0.226
								c0.359-0.072,0.588-0.42,0.52-0.777c-0.031-0.145-0.105-0.269-0.209-0.36l5.141-7.774c0.123,0.059,0.266,0.078,0.408,0.049
								c0.156-0.029,0.289-0.114,0.381-0.228l18.928,11.229c-0.045,0.119-0.061,0.249-0.035,0.381
								c0.072,0.356,0.42,0.588,0.775,0.516c0.359-0.07,0.588-0.419,0.516-0.773c-0.016-0.093-0.053-0.174-0.102-0.248
								l19.391-18.188c0.113,0.296,0.426,0.477,0.746,0.413c0.357-0.073,0.59-0.417,0.516-0.777
								c-0.002-0.019-0.008-0.04-0.014-0.059l8.861-4.159c0.145,0.219,0.408,0.337,0.676,0.284c0.328-0.065,0.543-0.358,0.531-0.681
								l12.143-2.429c0.109,0.304,0.424,0.487,0.748,0.424c0.193-0.039,0.348-0.157,0.439-0.315l9.1,3.643
								c-0.021,0.089-0.021,0.182-0.004,0.275c0.07,0.357,0.42,0.589,0.775,0.515c0.357-0.068,0.588-0.416,0.516-0.774
								c-0.064-0.326-0.359-0.548-0.684-0.527l-3.832-20.403c0.305-0.104,0.494-0.425,0.43-0.752
								c-0.074-0.355-0.418-0.588-0.775-0.516c-0.129,0.025-0.238,0.087-0.328,0.17l-7.889-6.095c0.072-0.133,0.104-0.292,0.07-0.45
								c-0.07-0.358-0.418-0.589-0.775-0.518c-0.359,0.071-0.59,0.419-0.516,0.775c0.018,0.104,0.064,0.197,0.125,0.275
								l-5.695,5.973c-0.145-0.102-0.326-0.146-0.508-0.109c-0.197,0.04-0.355,0.16-0.445,0.321l-6.619-2.378
								c0.014-0.073,0.01-0.151-0.006-0.23c-0.072-0.356-0.416-0.588-0.773-0.518c-0.359,0.072-0.592,0.419-0.52,0.777v0.002
								l-0.025-0.097l-20.791,5.754c-0.121-0.274-0.422-0.439-0.729-0.378c-0.154,0.031-0.283,0.111-0.375,0.221l-7.684-4.737
								c0.051-0.118,0.066-0.252,0.041-0.389c-0.07-0.357-0.42-0.587-0.775-0.516c-0.355,0.07-0.59,0.417-0.518,0.774
								c0.025,0.125,0.084,0.236,0.17,0.323l-8.408,10.728c-0.133-0.075-0.293-0.107-0.455-0.074
								c-0.357,0.071-0.588,0.419-0.52,0.777c0.029,0.135,0.098,0.253,0.189,0.342l-4.881,6.773
								c-0.127-0.066-0.279-0.092-0.432-0.062c-0.355,0.071-0.588,0.419-0.518,0.775c0.008,0.025,0.014,0.05,0.021,0.074
								l-13.568,7.076c-0.146-0.194-0.396-0.3-0.652-0.249c-0.188,0.039-0.342,0.154-0.434,0.307l-9.773-3.851
								c0.023-0.092,0.029-0.189,0.008-0.29c-0.07-0.357-0.418-0.589-0.775-0.516c-0.348,0.069-0.574,0.398-0.521,0.746
								l-11.391,4.784c-0.146-0.199-0.4-0.307-0.656-0.253c-0.357,0.069-0.59,0.416-0.52,0.774c0.055,0.263,0.258,0.459,0.506,0.513
								l0.418,9.403C95.401,46.047,95.173,46.393,95.245,46.746 M96.122,35.798c-0.006-0.031-0.016-0.062-0.025-0.089l10.287-4.321
								l1.07-0.45c0.016,0.036,0.035,0.068,0.061,0.1l-7.455,9.828l-4.096-4.496C96.101,36.219,96.165,36.012,96.122,35.798
								 M157.513,13.81c0.084-0.017,0.162-0.05,0.23-0.094l6.266,7.05l-6.697-5.71l0.109-1.235
								C157.45,13.817,157.481,13.817,157.513,13.81 M179.897,7.586l4.596,4.181l-3.871,2.859c-0.111-0.111-0.264-0.182-0.422-0.19
								l-0.549-6.702C179.745,7.702,179.829,7.653,179.897,7.586 M194.017,3.642c0.127-0.025,0.238-0.087,0.326-0.172l7.891,6.096
								c-0.039,0.069-0.064,0.147-0.076,0.227l-9.207,0.013l0.934-6.15C193.929,3.656,193.972,3.651,194.017,3.642 M118.657,55.148
								c-0.137-0.082-0.303-0.117-0.473-0.083c-0.148,0.029-0.273,0.105-0.367,0.212l-10.645-6.848
								c0.014-0.03,0.027-0.063,0.035-0.096l15.561,1.897L118.657,55.148z M107.8,31.262l-1.273,16.24
								c-0.027,0.003-0.055,0.005-0.082,0.013c-0.09,0.017-0.17,0.052-0.238,0.098l-6.016-6.603l7.461-9.833
								C107.696,31.211,107.745,31.24,107.8,31.262 M106.112,48.63l-1.113,1.536l-8.336-3.406l9.248,1.398
								c0,0.044,0.006,0.087,0.016,0.132C105.954,48.425,106.017,48.541,106.112,48.63 M106.269,48.744
								c0.127,0.068,0.281,0.092,0.432,0.062c0.15-0.028,0.277-0.106,0.367-0.214l10.309,6.632l-12.193-4.982L106.269,48.744z
								 M108.062,48.243l8.943-0.079l7.104-0.062c0,0.01,0.002,0.02,0.004,0.026c0.025,0.12,0.08,0.226,0.156,0.31l-1.352,1.616
								L108.062,48.243z M124.417,48.563c0.137,0.084,0.303,0.117,0.473,0.086c0.063-0.014,0.123-0.035,0.176-0.064l1.137,1.556
								c-0.08,0.082-0.139,0.183-0.17,0.294l-2.889-0.351L124.417,48.563z M126.538,49.962c-0.064,0.013-0.125,0.037-0.178,0.066
								l-1.139-1.56c0.154-0.149,0.23-0.374,0.184-0.599c-0.014-0.073-0.041-0.141-0.08-0.203l6.752-5.433
								c0.002,0,0.006,0.003,0.008,0.004l-5.139,7.774C126.823,49.955,126.681,49.935,126.538,49.962 M139.991,19.742l6.016,1.483
								l-1.588,8.624c-0.049-0.002-0.102,0.001-0.15,0.011c-0.02,0.004-0.035,0.008-0.053,0.015l-4.477-9.828
								C139.851,19.975,139.938,19.868,139.991,19.742 M202.499,10.47l-4.619,13.037l-5.73-5.055c0.09-0.14,0.127-0.312,0.094-0.489
								c-0.014-0.064-0.037-0.121-0.064-0.176l10.162-7.438C202.384,10.397,202.44,10.438,202.499,10.47 M206.321,31.246
								l-9.096-3.642c0.023-0.091,0.025-0.188,0.006-0.283c-0.043-0.202-0.17-0.364-0.338-0.452l1.074-3.028l8.367,7.381
								C206.331,31.229,206.329,31.236,206.321,31.246 M189.136,21.728l2.133-3.063c0.133,0.076,0.293,0.105,0.457,0.075
								c0.033-0.007,0.061-0.016,0.09-0.026l4.375,8.208c-0.021,0.02-0.047,0.038-0.066,0.06L189.136,21.728z M183.456,29.546
								c-0.098-0.049-0.209-0.074-0.324-0.067L180.38,15.71c0.09-0.033,0.17-0.083,0.238-0.147l8.254,6.206L183.456,29.546z
								 M172.698,34.346c-0.025,0.019-0.045,0.043-0.064,0.064l-10.82-7.092l2.98-4.947c0.107,0.037,0.227,0.048,0.348,0.023
								c0.041-0.007,0.078-0.019,0.115-0.034l5.889,9.486L172.698,34.346z M133.065,41.371l7.779-7.364l8.146,7.46
								c-0.053,0.076-0.088,0.169-0.102,0.267l-15.715-0.078c0-0.013-0.002-0.024-0.004-0.037
								C133.151,41.527,133.114,41.443,133.065,41.371 M164.421,22.035c0.045,0.1,0.115,0.182,0.201,0.245l-2.971,4.934
								l-4.707-3.083c0.117-0.132,0.18-0.312,0.162-0.498L164.421,22.035z M196.458,26.806c-0.033,0.005-0.064,0.014-0.092,0.025
								l-4.377-8.211c0.01-0.009,0.021-0.016,0.029-0.022l5.791,5.105l-1.1,3.102C196.628,26.789,196.544,26.788,196.458,26.806
								 M149.411,41.186c-0.02,0.006-0.035,0.009-0.053,0.016l-4.5-9.912l-0.105-0.229c0.137-0.087,0.236-0.224,0.277-0.379
								l8.133,0.979l-3.49,9.528C149.589,41.171,149.501,41.17,149.411,41.186 M145.054,30.49c0-0.038-0.004-0.075-0.012-0.112
								c-0.006-0.04-0.018-0.075-0.033-0.113l2.619-1.503l8.25-4.742c0.016,0.028,0.035,0.057,0.055,0.084l-2.699,7.37
								L145.054,30.49z M156.089,24.244c0.047,0.032,0.1,0.059,0.156,0.077l1.238,4.102l0.98,3.229
								c-0.174,0.079-0.299,0.23-0.352,0.408l-4.682-0.564L156.089,24.244z M158.987,31.633c-0.104-0.041-0.221-0.056-0.34-0.038
								l-0.98-3.245l-1.209-3.995c0.039-0.001,0.082-0.005,0.123-0.013c0.074-0.014,0.143-0.043,0.209-0.08l4.762,3.118
								L158.987,31.633z M144.526,31.154c0.018-0.003,0.033-0.01,0.053-0.014l4.602,10.14c-0.02,0.012-0.039,0.026-0.059,0.041
								l-8.139-7.45l3.008-2.846C144.136,31.141,144.329,31.192,144.526,31.154 M149.854,41.254l3.508-9.57l4.721,0.568
								c0,0.039,0.006,0.082,0.014,0.124c0.02,0.099,0.063,0.189,0.121,0.265l-8.299,8.656
								C149.897,41.28,149.878,41.267,149.854,41.254 M159.155,31.733l2.557-4.248l10.813,7.086
								c-0.01,0.021-0.018,0.042-0.023,0.063l-13.098-2.38c0-0.045-0.004-0.091-0.014-0.14
								C159.358,31.958,159.271,31.825,159.155,31.733 M180.733,15.405c0.01-0.016,0.02-0.036,0.029-0.056l10.176,2.672
								c-0.004,0.064-0.004,0.133,0.01,0.2c0.025,0.128,0.086,0.237,0.168,0.325l-2.135,3.063L180.733,15.405z M164.36,21.85
								l-7.299,1.597c-0.082-0.199-0.252-0.344-0.457-0.392l0.688-7.764l7.162,6.109C164.372,21.528,164.335,21.687,164.36,21.85
								 M156.411,23.038c-0.031,0.001-0.059,0.005-0.09,0.01c-0.023,0.006-0.049,0.013-0.072,0.021l-7.283-14.785
								c0.018-0.014,0.039-0.029,0.057-0.045l8.088,6.899L156.411,23.038z M155.808,23.835l-10.895,6.264
								c-0.08-0.1-0.184-0.172-0.303-0.214l1.586-8.614l9.6,2.362c-0.006,0.063-0.002,0.126,0.008,0.191
								C155.804,23.829,155.808,23.832,155.808,23.835 M143.856,30.885l-3.016,2.856l-6.58-6.019c0.025-0.032,0.047-0.065,0.066-0.1
								l9.416,2.792c-0.008,0.074-0.008,0.147,0.008,0.221C143.767,30.729,143.806,30.813,143.856,30.885 M133.866,27.972
								c0.098-0.019,0.184-0.059,0.256-0.114l6.574,6.017l-7.766,7.356c-0.076-0.059-0.162-0.103-0.258-0.123l1.064-13.125
								C133.78,27.982,133.825,27.979,133.866,27.972 M133.175,41.85l15.713,0.077c0.002,0.013,0.004,0.024,0.004,0.036
								c0.068,0.336,0.381,0.561,0.715,0.525l2.711,10.549c-0.1,0.043-0.188,0.109-0.256,0.192l-18.926-11.231
								C133.153,41.951,133.167,41.9,133.175,41.85 M152.505,52.99l-2.709-10.552c0.271-0.112,0.438-0.398,0.395-0.698l6.254-1.871
								l-3.783,13.122C152.61,52.986,152.56,52.984,152.505,52.99 M150.136,41.553c-0.021-0.043-0.047-0.085-0.076-0.123
								l8.293-8.654c0.037,0.027,0.076,0.052,0.117,0.068l-1.963,6.807L150.136,41.553z M158.655,32.899
								c0.072,0.009,0.145,0.007,0.217-0.008c0.244-0.048,0.43-0.225,0.5-0.446l13.094,2.381c-0.002,0.017-0.002,0.034,0,0.054
								l-15.738,4.704L158.655,32.899z M172.995,34.202c-0.047,0.008-0.094,0.022-0.133,0.039l-6.32-10.176l-1.119-1.801
								c0.043-0.036,0.08-0.074,0.111-0.118l10.32,4.739l-2.604,7.315C173.169,34.183,173.081,34.182,172.995,34.202 M165.63,21.977
								c0.039-0.108,0.053-0.228,0.029-0.351l13.939-6.183c0.063,0.097,0.146,0.176,0.246,0.229l-3.926,11.03L165.63,21.977z
								 M180.028,15.737c0.053,0.01,0.107,0.012,0.158,0.011l2.756,13.768c-0.139,0.05-0.252,0.144-0.33,0.262l-6.516-2.993
								L180.028,15.737z M183.618,29.656l5.408-7.771l6.979,5.252c-0.057,0.104-0.084,0.224-0.078,0.346l-12.143,2.43
								C183.749,29.814,183.69,29.728,183.618,29.656 M206.464,31.075l-8.426-7.43l4.643-13.11c0.049,0.008,0.1,0.01,0.152,0.009
								l3.836,20.41C206.591,30.981,206.521,31.021,206.464,31.075 M202.157,9.985c0,0.012,0,0.021,0.006,0.032
								c0.01,0.063,0.033,0.122,0.061,0.179l-10.16,7.434c-0.076-0.078-0.172-0.134-0.275-0.168L192.921,10L202.157,9.985z
								 M191.597,17.434c-0.041,0-0.09,0.004-0.129,0.015c-0.006,0-0.01,0.002-0.016,0.003l-3.797-6.991
								c0.154-0.103,0.258-0.27,0.285-0.453L192.726,10L191.597,17.434z M187.419,10.558c0.021-0.004,0.041-0.013,0.061-0.016
								l3.789,6.979c-0.033,0.019-0.063,0.039-0.09,0.063l-6.381-5.802l1.979-1.459C186.925,10.509,187.169,10.608,187.419,10.558
								 M191.048,17.726c-0.016,0.025-0.031,0.049-0.045,0.076l-10.191-2.641c0.006-0.064,0.002-0.132-0.01-0.2
								c-0.012-0.063-0.035-0.124-0.064-0.179l3.904-2.884L191.048,17.726z M179.085,7.657c0.109,0.071,0.238,0.11,0.373,0.107
								l0.547,6.685c-0.344,0.081-0.566,0.423-0.496,0.771c0.004,0.016,0.01,0.03,0.012,0.049l-3.662,1.622l-10.264,4.554
								c-0.008-0.019-0.02-0.036-0.029-0.052L179.085,7.657z M157.228,13.806l-0.096,1.096l-7.521-6.417l7.166,4.419
								c-0.053,0.119-0.068,0.252-0.041,0.389C156.788,13.553,156.985,13.745,157.228,13.806 M148.72,8.387
								c0.025-0.005,0.049-0.012,0.072-0.017l7.283,14.783c-0.105,0.073-0.186,0.176-0.234,0.293l-9.607-2.365l2.334-12.68
								C148.618,8.402,148.667,8.399,148.72,8.387 M148.378,8.365l-2.334,12.668l-6.006-1.477c0.004-0.063,0-0.127-0.012-0.192
								c-0.025-0.125-0.086-0.235-0.168-0.32l8.404-10.729C148.3,8.334,148.339,8.352,148.378,8.365 M139.511,20.141
								c0.016-0.004,0.035-0.007,0.051-0.013l4.479,9.826c-0.105,0.068-0.188,0.164-0.238,0.274l-9.412-2.79
								c0.012-0.077,0.012-0.161-0.006-0.243c-0.025-0.137-0.094-0.253-0.186-0.342l4.881-6.775
								C139.206,20.145,139.354,20.172,139.511,20.141 M133.53,27.949c0.006,0.004,0.012,0.006,0.016,0.007l-1.064,13.135
								c-0.027,0.003-0.057,0.005-0.086,0.01c-0.174,0.035-0.316,0.136-0.412,0.271l-3.494-1.751L133.53,27.949z M131.899,41.543
								c-0.037,0.104-0.045,0.22-0.021,0.335c0.014,0.074,0.043,0.142,0.078,0.203l-6.75,5.436c-0.029-0.028-0.064-0.052-0.1-0.074
								l3.303-7.645L131.899,41.543z M124.931,47.365c-0.098-0.027-0.199-0.031-0.301-0.01c-0.018,0.004-0.031,0.006-0.045,0.01
								l-4.094-9.279l-1.113-2.528c0.074-0.048,0.139-0.112,0.189-0.184l8.67,4.337L124.931,47.365z M119.151,35.648
								c0.016-0.003,0.031-0.009,0.049-0.013l1.09,2.474l4.117,9.334c-0.01,0.008-0.021,0.015-0.031,0.021l-8.607-8.896l2.865-3.032
								C118.778,35.639,118.964,35.687,119.151,35.648 M124.235,47.6c-0.066,0.092-0.111,0.195-0.129,0.31l-5.395,0.049
								l-11.488,0.101c0-0.01-0.004-0.019-0.006-0.027c-0.021-0.105-0.066-0.198-0.127-0.278l8.545-9.042L124.235,47.6z
								 M106.95,47.619c-0.068-0.048-0.148-0.082-0.23-0.103l1.27-16.209c0.063,0.006,0.123,0.003,0.188-0.011
								c0.074-0.014,0.143-0.044,0.209-0.081l7.115,7.354L106.95,47.619z M106.062,47.742c-0.053,0.066-0.092,0.142-0.119,0.224
								l-9.396-1.423c-0.002-0.017-0.004-0.038-0.008-0.057c-0.031-0.151-0.111-0.279-0.219-0.371l3.754-4.947L106.062,47.742z
								 M96.372,47.068c0.047-0.052,0.086-0.109,0.113-0.173l8.396,3.431l-2.809,3.874c-0.127-0.068-0.281-0.094-0.434-0.063
								c-0.063,0.012-0.117,0.034-0.17,0.058L96.372,47.068z M102.427,54.722c-0.002-0.022-0.006-0.045-0.012-0.068
								c-0.023-0.135-0.092-0.25-0.184-0.341l2.836-3.911l12.607,5.153c-0.002,0.008-0.006,0.015-0.008,0.023L102.427,54.722z
								 M118.819,55.29c-0.006-0.007-0.01-0.012-0.012-0.017l4.189-5.015l3.012,0.369c0,0.035,0.004,0.074,0.012,0.11
								c0.008,0.045,0.021,0.09,0.039,0.13L118.819,55.29z M152.983,53.129c-0.041-0.033-0.088-0.062-0.135-0.082l3.816-13.244
								l15.443-4.614L152.983,53.129z M173.673,34.482c-0.061-0.091-0.143-0.167-0.24-0.218l2.598-7.299l6.5,2.984
								c-0.027,0.101-0.035,0.206-0.014,0.314c0.006,0.022,0.012,0.041,0.016,0.061L173.673,34.482z M193.505,3.532
								c0.059,0.041,0.121,0.072,0.188,0.093l-0.938,6.182l-4.814,0.006c0-0.01-0.002-0.02-0.004-0.03
								c-0.02-0.104-0.066-0.198-0.127-0.275L193.505,3.532z M186.649,9.764c-0.021,0.09-0.025,0.183-0.004,0.275
								c0.006,0.041,0.02,0.078,0.033,0.113l-2.025,1.497l-4.637-4.216c0.01-0.014,0.018-0.026,0.025-0.042L186.649,9.764z
								 M178.823,7.319c0.025,0.077,0.066,0.146,0.117,0.209l-13.506,13.718c-0.145-0.127-0.348-0.184-0.553-0.143
								c-0.084,0.016-0.162,0.05-0.23,0.094l-6.766-7.611c0.117-0.137,0.172-0.316,0.15-0.502l20.789-5.754L178.823,7.319z
								 M133.196,27.702c0.045,0.063,0.104,0.117,0.164,0.16l-5.045,11.67l-8.664-4.334c0.033-0.104,0.039-0.213,0.018-0.325
								c-0.008-0.034-0.018-0.067-0.031-0.1L133.196,27.702z M118.384,34.842c-0.023,0.092-0.029,0.191-0.01,0.289
								c0.021,0.103,0.064,0.193,0.123,0.269l-2.863,3.031l-7.1-7.339c0.027-0.03,0.055-0.064,0.076-0.103L118.384,34.842z
								 M95.604,36.574c0.08-0.016,0.146-0.046,0.211-0.082l4.123,4.529l-3.785,4.99c-0.064-0.028-0.133-0.045-0.205-0.052
								l-0.418-9.375C95.552,36.582,95.581,36.581,95.604,36.574"/>
						</g>
					</g>
				</g>
				<g opacity="0.1" clip-path="url(#SVGID_13_)">
					<g>
						<defs>
							<rect id="SVGID_126_" x="106.438" y="-10.211" width="79.58" height="51.582"/>
						</defs>
						<clipPath id="SVGID_19_">
							<use xlink:href="#SVGID_126_"  overflow="visible"/>
						</clipPath>
						<g clip-path="url(#SVGID_19_)">
							<defs>
								<rect id="SVGID_128_" x="106.438" y="-10.211" width="79.58" height="51.582"/>
							</defs>
							<clipPath id="SVGID_21_">
								<use xlink:href="#SVGID_128_"  overflow="visible"/>
							</clipPath>
							<path clip-path="url(#SVGID_21_)" fill="#5BC7D4" d="M184.739-3.904l-4.24-5.521c0.115-0.149,0.137-0.358,0.041-0.533
								c-0.129-0.236-0.426-0.321-0.662-0.191c-0.172,0.093-0.264,0.274-0.254,0.458l-8.727,2.715
								c-0.137-0.222-0.422-0.301-0.652-0.176c-0.236,0.129-0.322,0.426-0.193,0.663c0.039,0.066,0.084,0.121,0.143,0.162
								l-3.699,6.835c-0.125-0.044-0.268-0.036-0.393,0.032c-0.17,0.094-0.26,0.272-0.25,0.452L154.8,3.445
								c-0.008-0.015-0.016-0.032-0.027-0.051c-0.129-0.233-0.426-0.322-0.66-0.191c-0.102,0.055-0.172,0.143-0.215,0.239
								l-5.99-1.51c0.01-0.096-0.01-0.193-0.057-0.285c-0.129-0.235-0.426-0.322-0.662-0.19c-0.109,0.057-0.186,0.15-0.223,0.256
								l-9.873-2.069c0.006-0.089-0.014-0.182-0.059-0.263c-0.127-0.237-0.424-0.322-0.66-0.192
								c-0.236,0.128-0.324,0.425-0.193,0.66c0.049,0.091,0.121,0.158,0.209,0.2l-2.096,6.344c-0.104-0.019-0.217-0.004-0.318,0.054
								c-0.203,0.111-0.295,0.347-0.232,0.56l-14.516,6.646l0.031,0.068c0-0.002,0-0.002,0-0.002
								c-0.131-0.237-0.428-0.322-0.662-0.194c-0.236,0.13-0.322,0.426-0.193,0.665c0.027,0.05,0.064,0.094,0.107,0.13l-2.617,4.501
								c-0.129-0.048-0.273-0.042-0.404,0.027c-0.119,0.069-0.203,0.181-0.236,0.305l-6.07-0.67
								c-0.002-0.07-0.023-0.145-0.061-0.215c-0.129-0.234-0.424-0.32-0.66-0.192c-0.238,0.132-0.324,0.427-0.193,0.662
								c0.057,0.106,0.15,0.182,0.254,0.221l-1.563,7.211c-0.092-0.006-0.184,0.013-0.268,0.058
								c-0.236,0.13-0.322,0.429-0.193,0.662c0.119,0.218,0.377,0.307,0.6,0.222l7.549,13.381c-0.191,0.144-0.254,0.409-0.135,0.625
								c0.129,0.236,0.424,0.32,0.662,0.193c0.236-0.131,0.322-0.428,0.193-0.663c-0.035-0.062-0.082-0.112-0.133-0.151l3.416-6.396
								c0.129,0.044,0.27,0.036,0.4-0.032c0.215-0.119,0.303-0.374,0.221-0.598l8.037-4.408c0.143,0.188,0.406,0.251,0.621,0.133
								c0.18-0.098,0.271-0.292,0.248-0.482l6.998-1.866c0.008,0.012,0.014,0.027,0.021,0.041c0.129,0.236,0.426,0.322,0.662,0.193
								c0.213-0.118,0.303-0.368,0.225-0.589l19.645,1.063c0.008,0.063,0.027,0.128,0.061,0.191c0.129,0.233,0.426,0.32,0.664,0.19
								c0.234-0.128,0.32-0.427,0.191-0.663c-0.049-0.088-0.119-0.153-0.201-0.196l5.369-15.377
								c0.107,0.021,0.223,0.007,0.324-0.051c0.098-0.052,0.166-0.132,0.209-0.222l6.613,1.954
								c-0.014,0.099,0.002,0.206,0.057,0.302c0.127,0.236,0.424,0.323,0.662,0.192c0.16-0.089,0.252-0.256,0.252-0.429l6.207-0.944
								c0.008,0.03,0.023,0.061,0.039,0.091c0.129,0.236,0.424,0.323,0.66,0.192c0.236-0.129,0.324-0.425,0.193-0.66
								c-0.01-0.018-0.016-0.031-0.025-0.046l8.223-7.743c0.148,0.117,0.359,0.142,0.537,0.045c0.234-0.129,0.322-0.427,0.191-0.662
								c-0.082-0.154-0.234-0.242-0.393-0.254l-0.508-6.456c0.053-0.012,0.1-0.027,0.148-0.056c0.236-0.127,0.32-0.425,0.193-0.66
								C185.269-3.941,184.978-4.029,184.739-3.904 M180.046-9.24l-0.18,4.496l-8.9-2.016c0-0.029-0.006-0.058-0.014-0.084
								l0.82-0.255l7.883-2.452c0.008,0.019,0.018,0.04,0.029,0.061C179.759-9.348,179.897-9.262,180.046-9.24 M134.501,7.263
								l0.652,0.648l-1.072,6.423l0.189-6.977c0.057-0.008,0.119-0.026,0.176-0.058C134.466,7.29,134.485,7.275,134.501,7.263
								 M119.015,14.405l2.879,4.056c-0.086,0.083-0.137,0.193-0.146,0.309l-3.555,0.227l0.611-4.557
								C118.874,14.443,118.944,14.433,119.015,14.405 M109.013,18.875l3.457,3.04l-5.219,4.377
								c-0.047-0.04-0.098-0.071-0.154-0.093l1.566-7.211c0.09,0.008,0.184-0.012,0.268-0.057
								C108.958,18.915,108.985,18.896,109.013,18.875 M171.47,11.377l7.908-8.486c0.021,0.013,0.043,0.026,0.068,0.038
								l-2.771,8.948c-0.1-0.018-0.209,0-0.305,0.053c-0.113,0.062-0.191,0.162-0.229,0.272L171.47,11.377z M170.954-6.615
								L179.86-4.6l-0.258,6.604c-0.063,0.003-0.125,0.025-0.182,0.055c-0.018,0.014-0.037,0.023-0.053,0.035l-8.455-8.591
								C170.929-6.533,170.944-6.574,170.954-6.615 M180.083,2.256c-0.018-0.03-0.035-0.058-0.055-0.082l4.57-5.199l-3.098,5.899
								l-1.361-0.339C180.149,2.44,180.13,2.343,180.083,2.256 M181.433,3.007l-4.531,8.628l2.682-8.665
								c0.1,0.016,0.209,0,0.307-0.053c0.102-0.057,0.176-0.144,0.215-0.243L181.433,3.007z M171.302,11.347l-1.537-0.272
								c0.006-0.085-0.014-0.169-0.059-0.247c-0.002-0.007-0.006-0.011-0.008-0.018l4.051-3.35l5.104-4.214L171.302,11.347z
								 M171.187,11.471l-1.469,1.576c-0.07-0.051-0.152-0.079-0.234-0.086l-0.098-1.422c0.041-0.011,0.084-0.028,0.131-0.049
								c0.109-0.063,0.188-0.161,0.227-0.273L171.187,11.471z M169.001,13.242l-6.615-1.955c0-0.001,0-0.004,0-0.007l6.412-0.137
								c0.012,0.052,0.027,0.105,0.055,0.154c0.082,0.148,0.23,0.238,0.389,0.25l0.096,1.422c-0.043,0.012-0.088,0.026-0.127,0.05
								C169.114,13.072,169.044,13.152,169.001,13.242 M147.481,2.366l2.146,7.698c-0.014,0.006-0.023,0.012-0.035,0.019
								c-0.035,0.017-0.066,0.039-0.092,0.063l-5.01-4.125l2.705-3.704C147.282,2.361,147.382,2.378,147.481,2.366 M107.411,26.693
								l9.299-0.628c0.01,0.046,0.023,0.09,0.047,0.132c0.064,0.114,0.168,0.193,0.285,0.23l-0.838,5.593l-8.826-5.182
								C107.396,26.793,107.409,26.746,107.411,26.693 M115.089,40.418l1.225-8.167l2.051,1.205
								c-0.051,0.131-0.049,0.282,0.025,0.415c0.033,0.065,0.084,0.118,0.135,0.159l-3.416,6.394
								C115.103,40.422,115.097,40.42,115.089,40.418 M118.854,33.151c-0.023-0.002-0.045-0.001-0.068,0l-1.432-6.733
								c0.023-0.009,0.043-0.019,0.064-0.028c0.107-0.06,0.184-0.153,0.225-0.261l2.664,0.72L118.854,33.151z M120.478,26.748
								l1.719-7.449c0.066,0.006,0.139-0.005,0.207-0.029l4.996,9.108c-0.068,0.053-0.117,0.118-0.15,0.192L120.478,26.748z
								 M135.315,24.01l-1.182-8.179c0.027-0.009,0.057-0.02,0.082-0.033c0.08-0.045,0.143-0.106,0.186-0.182L138.444,17
								l-2.75,9.167c-0.021-0.001-0.045-0.004-0.068-0.004L135.315,24.01z M161.478,11.456c0.004,0.008,0.01,0.013,0.012,0.021
								l-8.859,7.53c-0.055-0.049-0.117-0.084-0.186-0.104l1.063-8.106l7.912,0.467C161.423,11.329,161.444,11.394,161.478,11.456
								 M139.354,12.671c0.08,0.113,0.197,0.185,0.33,0.206l-1.197,3.987l-4.033-1.379c0.02-0.078,0.02-0.159-0.002-0.237
								L139.354,12.671z M118.437,33.333l-2.1-1.233l0.848-5.65c0.008,0,0.018,0,0.027,0l1.434,6.73
								c-0.021,0.011-0.043,0.019-0.064,0.03C118.522,33.241,118.476,33.283,118.437,33.333 M151.927,19.069l-6.518-3.732
								l4.141-4.428c0.098,0.067,0.219,0.099,0.338,0.084l0.051,0.179l2.172,7.756c-0.012,0.006-0.023,0.01-0.035,0.016
								C152.015,18.977,151.964,19.019,151.927,19.069 M145.284,15.266l-5.041-2.889c-0.002-0.023-0.004-0.048-0.01-0.074
								l6.934-1.245l2.197-0.393c0.012,0.025,0.02,0.052,0.033,0.078c0.016,0.025,0.031,0.047,0.047,0.068L145.284,15.266z
								 M145.181,15.372l-2.381,2.549c-0.115-0.076-0.26-0.1-0.395-0.064l-0.984-2.294l-1.25-2.914
								c0.021-0.037,0.039-0.076,0.051-0.117L145.181,15.372z M138.622,16.909l1.213-4.036c0.051-0.008,0.105-0.024,0.156-0.052
								c0.025-0.016,0.053-0.033,0.074-0.052l1.219,2.839l0.99,2.306c-0.074,0.047-0.135,0.11-0.174,0.183L138.622,16.909z
								 M150.304,10.608l3.059,0.182l-1.063,8.094c-0.016,0.001-0.033,0.001-0.053,0.005l-2.221-7.934
								c0.01-0.007,0.023-0.013,0.035-0.02C150.192,10.866,150.272,10.743,150.304,10.608 M151.837,19.248l-8.82-0.95
								c-0.002-0.069-0.021-0.14-0.059-0.206c-0.016-0.027-0.031-0.051-0.053-0.074l2.404-2.572l6.547,3.75
								C151.849,19.212,151.845,19.23,151.837,19.248 M142.103,18.562c0.018,0.03,0.037,0.061,0.059,0.085l-6.283,7.586
								c-0.016-0.007-0.029-0.015-0.047-0.023l2.75-9.163l3.471,1.186C142.03,18.341,142.046,18.458,142.103,18.562 M120.337,26.709
								l-2.664-0.718c0.004-0.092-0.016-0.18-0.059-0.265c-0.027-0.045-0.059-0.084-0.094-0.116l4.492-6.364
								c0.016,0.008,0.027,0.015,0.041,0.021L120.337,26.709z M134.13,14.905l1.146-6.871l4.086,4.069
								c-0.092,0.125-0.119,0.288-0.072,0.437l-4.893,2.576C134.333,15.013,134.237,14.94,134.13,14.905 M135.306,7.86l1.293-7.76
								c0.016,0,0.037,0,0.055-0.001l2.918,11.843c-0.02,0.008-0.033,0.015-0.051,0.023c-0.02,0.011-0.039,0.022-0.057,0.036
								L135.306,7.86z M140.183,12.159c-0.023-0.044-0.053-0.081-0.086-0.111l4.313-5.911l5.002,4.12
								c-0.051,0.08-0.074,0.174-0.072,0.267l-9.152,1.644C140.185,12.163,140.185,12.161,140.183,12.159 M150.257,10.275
								c-0.029-0.052-0.064-0.094-0.105-0.13l4.004-6.068c0.029,0.014,0.055,0.021,0.084,0.028l-0.857,6.539l-3.072-0.178
								C150.308,10.4,150.288,10.336,150.257,10.275 M154.661,4.006l6.854,6.922c-0.043,0.059-0.072,0.122-0.09,0.193l-7.898-0.467
								l0.855-6.539c0.066-0.004,0.137-0.021,0.197-0.059C154.608,4.042,154.636,4.023,154.661,4.006 M161.677,11.65l-5.369,15.375
								c-0.078-0.012-0.158-0.009-0.234,0.017l-3.49-7.267c0.205-0.139,0.275-0.416,0.152-0.638
								c-0.002-0.009-0.008-0.015-0.014-0.023l8.861-7.527C161.614,11.61,161.644,11.634,161.677,11.65 M155.856,27.18l-8.393-5.629
								l4.432-1.921c0.119,0.188,0.35,0.273,0.559,0.209l3.49,7.265C155.913,27.125,155.882,27.151,155.856,27.18 M147.323,21.455
								l-4.354-2.919c0.016-0.028,0.025-0.062,0.033-0.093l8.82,0.948c0,0.036,0.006,0.071,0.014,0.108L147.323,21.455z
								 M147.167,21.522l-11.154,4.833c-0.008-0.01-0.016-0.022-0.023-0.031l6.279-7.584c0.146,0.091,0.336,0.104,0.496,0.015
								c0.051-0.027,0.092-0.061,0.127-0.101L147.167,21.522z M135.245,26.346l-4.957-2.903l3.584-7.601
								c0.041,0.012,0.08,0.017,0.121,0.015l0.227,1.552l1.266,8.775c-0.031,0.009-0.066,0.022-0.096,0.04
								C135.335,26.256,135.284,26.296,135.245,26.346 M130.163,23.369l-7.479-4.374c0.031-0.079,0.043-0.164,0.031-0.248
								l10.84-3.139c0.045,0.08,0.109,0.14,0.182,0.184L130.163,23.369z M130.101,23.5l-2.264,4.799
								c-0.1-0.03-0.209-0.028-0.311,0.01l-4.998-9.107c0.031-0.024,0.061-0.054,0.084-0.083L130.101,23.5z M127.237,28.935
								l-8.033,4.409c-0.055-0.074-0.129-0.129-0.209-0.161l1.451-6.297l6.766,1.824C127.202,28.782,127.212,28.86,127.237,28.935
								 M114.774,40.422l-7.547-13.381c0.029-0.024,0.057-0.051,0.078-0.08l8.873,5.212l-1.23,8.222
								C114.89,40.393,114.831,40.402,114.774,40.422 M112.579,22.01l4.195,3.687c-0.045,0.067-0.068,0.146-0.078,0.226l-9.295,0.63
								c-0.008-0.046-0.023-0.089-0.047-0.131l-0.014-0.021L112.579,22.01z M112.69,21.915l2.711-2.273
								c0.102,0.092,0.242,0.135,0.377,0.121l1.18,5.768c-0.004,0-0.004,0.001-0.008,0.003c-0.029,0.016-0.055,0.036-0.082,0.056
								L112.69,21.915z M116.212,19.266l1.814-0.116l-0.85,6.324c-0.025,0-0.053,0.003-0.082,0.009l-1.176-5.758
								c0.014-0.006,0.025-0.013,0.041-0.02C116.126,19.614,116.216,19.44,116.212,19.266 M118.173,19.141l3.582-0.226
								c0.012,0.044,0.027,0.089,0.049,0.131c0.027,0.046,0.057,0.086,0.09,0.118l-4.514,6.351c-0.02-0.009-0.039-0.015-0.061-0.021
								L118.173,19.141z M133.499,15.428c0,0.016,0.002,0.031,0.006,0.046l-7.98,2.312l-2.848,0.824
								c-0.006-0.011-0.012-0.022-0.014-0.031c-0.127-0.231-0.414-0.319-0.65-0.2l-2.875-4.046c0.076-0.063,0.133-0.147,0.16-0.239
								L133.499,15.428z M134.64,6.639c-0.051-0.09-0.123-0.159-0.209-0.2l1.953-5.917l-1.201,7.216l-0.578-0.574
								C134.714,7.015,134.731,6.81,134.64,6.639 M136.935-0.022l7.363,6.066l-4.316,5.918c-0.084-0.045-0.176-0.063-0.271-0.055
								l-2.918-11.841c0.018-0.009,0.035-0.018,0.049-0.024C136.876,0.023,136.907,0.001,136.935-0.022 M137.065-0.216l9.871,2.069
								c-0.008,0.087,0.014,0.182,0.059,0.264c0.023,0.043,0.051,0.081,0.084,0.112l-2.697,3.699l-7.355-6.063
								C137.04-0.16,137.056-0.187,137.065-0.216 M147.872,2.072l5.988,1.51c-0.01,0.094,0.01,0.191,0.059,0.283
								c0.029,0.054,0.068,0.1,0.113,0.138l-4,6.064c-0.084-0.039-0.174-0.053-0.266-0.042l-2.145-7.696
								c0.01-0.006,0.023-0.012,0.035-0.02C147.757,2.256,147.831,2.169,147.872,2.072 M163.175,8.092l-1.146,2.656
								c-0.117-0.031-0.244-0.02-0.359,0.043c-0.018,0.013-0.037,0.022-0.055,0.036l-6.859-6.931
								c0.002-0.003,0.004-0.006,0.006-0.009L163.175,8.092z M163.304,8.157l5.514,2.755c-0.01,0.027-0.018,0.058-0.021,0.088
								l-6.414,0.138c-0.006-0.052-0.021-0.104-0.049-0.151c-0.045-0.078-0.104-0.138-0.172-0.181L163.304,8.157z M163.362,8.025
								l2.84-6.589c0.066,0.019,0.133,0.022,0.199,0.015l0.574,1.964l2.1,7.205c-0.01,0.003-0.02,0.009-0.029,0.014
								c-0.066,0.038-0.125,0.089-0.164,0.148L163.362,8.025z M166.81,1.085l3.07,0.354l-0.639,9.138
								c-0.01,0-0.018,0.001-0.029,0.003l-2.113-7.247l-0.559-1.921c0.01-0.005,0.023-0.012,0.031-0.016
								C166.696,1.326,166.778,1.213,166.81,1.085 M170.022,1.455l9.146,1.049c0,0.075,0.021,0.149,0.057,0.221
								c0.004,0.007,0.008,0.009,0.012,0.017l-6.557,5.416l-3.076,2.543c-0.063-0.059-0.139-0.095-0.219-0.113L170.022,1.455z
								 M170.03,1.311l0.527-7.556c0.055-0.007,0.107-0.024,0.156-0.051c0.043-0.023,0.076-0.053,0.109-0.083l8.441,8.574
								c-0.037,0.051-0.064,0.107-0.08,0.167L170.03,1.311z M180.003-4.568l4.486,1.016c-0.018,0.104-0.002,0.214,0.051,0.314
								c0.008,0.013,0.016,0.022,0.021,0.035l-4.641,5.281c-0.055-0.034-0.113-0.056-0.176-0.07L180.003-4.568z M185.421,3.476
								c-0.045,0.011-0.088,0.025-0.127,0.049c-0.102,0.055-0.176,0.143-0.215,0.239l-3.436-0.854l3.121-5.942
								c0.047,0.022,0.094,0.037,0.146,0.044L185.421,3.476z M176.905,11.974c-0.004-0.003-0.008-0.006-0.014-0.009l4.684-8.923
								l3.469,0.861c-0.01,0.097,0.01,0.194,0.059,0.284c0.008,0.013,0.016,0.03,0.025,0.042L176.905,11.974z M169.909,13.305
								c-0.01-0.032-0.023-0.063-0.039-0.091c-0.016-0.025-0.031-0.05-0.045-0.07l1.527-1.642l4.762,0.842
								c0,0.007-0.002,0.011-0.002,0.016L169.909,13.305z M136.362,26.36l10.943-4.742l8.471,5.68
								c-0.016,0.035-0.027,0.074-0.037,0.111L136.362,26.36z M128.144,28.571c-0.008-0.013-0.014-0.026-0.021-0.04
								c-0.041-0.072-0.094-0.13-0.158-0.171l2.26-4.787l4.949,2.896c-0.031,0.076-0.041,0.155-0.033,0.236L128.144,28.571z
								 M115.237,19.297c0.006,0.073,0.021,0.146,0.061,0.215c0.004,0.007,0.008,0.013,0.012,0.02l-2.729,2.289l-3.475-3.053
								c0.025-0.043,0.045-0.091,0.061-0.142L115.237,19.297z M118.632,14.396c0.01,0.006,0.02,0.012,0.029,0.015l-0.615,4.596
								l-1.857,0.116c-0.01-0.026-0.021-0.056-0.037-0.079c-0.033-0.064-0.08-0.115-0.131-0.155L118.632,14.396z M119.288,13.783
								l14.516-6.647c0.076,0.119,0.193,0.194,0.324,0.218l-0.205,7.533c-0.063,0.006-0.121,0.023-0.178,0.055
								c-0.135,0.074-0.221,0.203-0.244,0.345l-14.182-1.337c0-0.057-0.014-0.116-0.035-0.174L119.288,13.783z M165.88,1.133
								c0.01,0.023,0.018,0.048,0.029,0.07c0.041,0.075,0.098,0.134,0.164,0.176l-2.838,6.581l-8.418-4.205
								c0.014-0.057,0.021-0.112,0.014-0.169L165.88,1.133z M170.323-6.265c0.027,0.013,0.059,0.02,0.092,0.022l-0.527,7.537
								l-3.064-0.35c-0.002-0.072-0.021-0.146-0.059-0.212c-0.035-0.066-0.084-0.118-0.145-0.16L170.323-6.265z M180.394-9.327
								l4.23,5.508c-0.037,0.038-0.068,0.082-0.092,0.13l-4.521-1.021l0.178-4.531c0.055-0.009,0.107-0.026,0.156-0.055
								C180.364-9.306,180.38-9.313,180.394-9.327"/>
						</g>
					</g>
				</g>
				<path clip-path="url(#SVGID_13_)" fill="#5BC7D4" d="M122.11,55.233l7.371,4.319c-0.061,0.222,0.01,0.469,0.195,0.623
					c0.258,0.21,0.635,0.17,0.844-0.084c0.15-0.187,0.17-0.438,0.074-0.639l8.668-7.117c0.254,0.19,0.619,0.147,0.82-0.104
					c0.209-0.255,0.17-0.632-0.086-0.841c-0.072-0.058-0.152-0.095-0.236-0.117l1.049-9.477c0.162-0.01,0.318-0.086,0.428-0.22
					c0.15-0.185,0.17-0.43,0.08-0.63l11.43-7.894c0.014,0.018,0.031,0.032,0.047,0.047c0.258,0.207,0.637,0.171,0.844-0.087
					c0.09-0.109,0.135-0.239,0.135-0.371l7.506-1.05c0.033,0.112,0.098,0.217,0.197,0.295c0.256,0.208,0.631,0.171,0.84-0.086
					c0.094-0.116,0.137-0.257,0.133-0.396l12.176-2.205c0.033,0.103,0.096,0.2,0.188,0.271c0.258,0.211,0.633,0.172,0.842-0.084
					c0.211-0.256,0.17-0.634-0.086-0.843c-0.098-0.078-0.213-0.123-0.33-0.134l-0.549-8.175c0.127-0.027,0.248-0.097,0.336-0.207
					c0.182-0.222,0.176-0.53,0.006-0.748l13.428-14.254l-0.066-0.06c0.002,0,0.002,0.001,0.002,0.001
					c0.258,0.208,0.635,0.169,0.842-0.088c0.211-0.259,0.174-0.631-0.086-0.844c-0.055-0.045-0.117-0.077-0.182-0.099l0.896-6.322
					c0.166-0.006,0.328-0.08,0.443-0.221c0.109-0.132,0.15-0.296,0.129-0.453l7.209-2.045c0.037,0.083,0.092,0.158,0.168,0.219
					c0.254,0.207,0.633,0.171,0.842-0.087c0.207-0.256,0.168-0.633-0.088-0.842c-0.117-0.092-0.254-0.138-0.391-0.134l-1.551-8.919
					c0.102-0.034,0.199-0.097,0.273-0.189c0.209-0.255,0.172-0.631-0.086-0.84c-0.232-0.191-0.57-0.175-0.785,0.026l-14.756-11.722
					c0.15-0.251,0.1-0.584-0.135-0.773c-0.256-0.207-0.633-0.169-0.842,0.087c-0.211,0.256-0.17,0.633,0.086,0.841
					c0.066,0.056,0.143,0.094,0.221,0.113l-0.93,8.849c-0.164,0.007-0.324,0.081-0.439,0.221c-0.188,0.231-0.174,0.566,0.023,0.78
					l-7.096,8.723c-0.25-0.15-0.578-0.099-0.768,0.134c-0.158,0.194-0.174,0.457-0.063,0.663l-7.092,5.354
					c-0.012-0.014-0.027-0.027-0.039-0.038c-0.26-0.207-0.637-0.17-0.846,0.087c-0.186,0.229-0.174,0.558,0.018,0.773l-22.818,7.863
					c-0.039-0.071-0.088-0.136-0.154-0.189c-0.256-0.207-0.635-0.17-0.844,0.087c-0.207,0.258-0.166,0.635,0.088,0.844
					c0.098,0.076,0.207,0.119,0.318,0.129l1,19.959c-0.131,0.024-0.254,0.094-0.348,0.206c-0.084,0.104-0.127,0.227-0.133,0.349
					l-8.418,0.834c-0.029-0.123-0.098-0.235-0.203-0.32c-0.258-0.208-0.635-0.169-0.844,0.087c-0.141,0.178-0.168,0.409-0.088,0.606
					l-6.619,3.938c-0.021-0.032-0.051-0.06-0.084-0.083c-0.256-0.213-0.633-0.171-0.842,0.083c-0.209,0.258-0.17,0.636,0.088,0.843
					c0.016,0.013,0.035,0.026,0.049,0.038l-5.77,12.6c-0.223-0.066-0.475,0.004-0.631,0.195c-0.209,0.258-0.17,0.636,0.088,0.842
					c0.162,0.135,0.377,0.165,0.563,0.104l3.561,7.107c-0.053,0.033-0.1,0.075-0.145,0.129c-0.209,0.255-0.17,0.632,0.086,0.84
					S121.899,55.487,122.11,55.233 M129.911,59.135l-1.875-5.192l11.049-1.821c0.012,0.03,0.033,0.061,0.053,0.09l-0.813,0.668
					l-7.83,6.429c-0.018-0.021-0.037-0.042-0.061-0.06C130.282,59.124,130.087,59.088,129.911,59.135 M174.05,19.343l-1.035-0.435
					l-1.75-7.797l3.006,8.02c-0.064,0.036-0.123,0.084-0.172,0.146C174.081,19.298,174.063,19.321,174.05,19.343 M188.354,4.074
					l-5.148-3.278c0.063-0.133,0.068-0.284,0.027-0.422l3.936-1.896l1.408,5.462C188.497,3.967,188.421,4.013,188.354,4.074
					 M197.659-5.625l-5.332-1.856l3.908-7.386c0.072,0.026,0.145,0.036,0.217,0.034l1.549,8.919
					c-0.105,0.035-0.201,0.099-0.275,0.189C197.7-5.693,197.679-5.659,197.659-5.625 M130.134,31.741l-5.07,13.296
					c-0.031-0.007-0.059-0.011-0.09-0.013l-0.986-11.446c0.123-0.031,0.238-0.099,0.322-0.204c0.102-0.121,0.146-0.271,0.133-0.416
					L130.134,31.741z M139.028,51.952l-11.053,1.821l-2.754-7.625c0.066-0.037,0.129-0.086,0.178-0.15
					c0.02-0.019,0.033-0.042,0.045-0.061l13.58,5.859C139.021,51.848,139.021,51.901,139.028,51.952 M124.56,46.085
					c0.033,0.026,0.066,0.048,0.1,0.065l-2.795,8.021l0.797-8.137l1.705-0.241C124.397,45.904,124.464,46.007,124.56,46.085
					 M122.679,45.854l1.164-11.898l0.955,11.085c-0.121,0.027-0.238,0.096-0.324,0.203c-0.09,0.108-0.135,0.241-0.137,0.373
					L122.679,45.854z M130.339,31.697l1.871-0.4c0.035,0.096,0.096,0.186,0.184,0.254c0.006,0.005,0.012,0.009,0.018,0.015
					l-3.057,5.679l-3.852,7.146L130.339,31.697z M130.415,31.5l0.939-2.464c0.104,0.021,0.209,0.016,0.309-0.015l0.77,1.572
					c-0.047,0.031-0.09,0.068-0.127,0.115c-0.098,0.12-0.141,0.271-0.133,0.415L130.415,31.5z M132.079,28.479l8.42-0.831
					c0.002,0.001,0.002,0.004,0.004,0.006l-7.227,3.117c-0.033-0.054-0.076-0.104-0.131-0.149c-0.16-0.131-0.371-0.163-0.557-0.105
					l-0.768-1.573c0.049-0.031,0.09-0.071,0.127-0.115C132.03,28.726,132.075,28.605,132.079,28.479 M161.56,30.904l-5.994-7.758
					c0.014-0.013,0.023-0.025,0.033-0.036c0.031-0.038,0.055-0.076,0.076-0.12l7.596,2.38l-1.361,5.459
					C161.788,30.819,161.665,30.845,161.56,30.904 M195.866-15.25l-10.275,5.009c-0.031-0.049-0.068-0.089-0.115-0.126
					c-0.125-0.104-0.279-0.146-0.432-0.133l-1.629-6.745l12.42,1.817C195.835-15.367,195.849-15.308,195.866-15.25 M180.802-27.301
					l2.381,9.846l-2.885-0.422c0-0.172-0.076-0.345-0.221-0.463c-0.068-0.058-0.148-0.094-0.23-0.114l0.932-8.847
					C180.786-27.301,180.794-27.301,180.802-27.301 M179.882-17.306c0.023-0.009,0.051-0.019,0.074-0.032l4.738,6.994
					c-0.021,0.019-0.043,0.04-0.061,0.063c-0.096,0.114-0.139,0.258-0.133,0.396l-3.363,0.414L179.882-17.306z M180.993-9.275
					l1.486,9.259c-0.08,0.023-0.154,0.067-0.221,0.127l-9.887-8.043c0.055-0.089,0.082-0.189,0.084-0.289L180.993-9.275z
					 M165.392,0.687l5.121,8.748c-0.027,0.023-0.053,0.051-0.078,0.079c-0.068,0.086-0.111,0.186-0.127,0.289l-5.236,0.296
					L163.964-1.59c0.029-0.008,0.053-0.016,0.078-0.027L165.392,0.687z M141.458,27.039c-0.01-0.011-0.018-0.015-0.025-0.021
					l6.592-12.648c0.084,0.029,0.176,0.039,0.26,0.029l2.535,9.704l-9.211,3.125C141.575,27.156,141.524,27.09,141.458,27.039
					 M166.036,15.438c-0.141-0.094-0.311-0.119-0.465-0.078l-0.482-5.085l5.219-0.297c0.016,0.096,0.053,0.188,0.113,0.267
					L166.036,15.438z M180.272-17.704l2.955,0.434l1.646,6.811c-0.012,0.004-0.021,0.012-0.029,0.016l-4.74-6.992
					c0.021-0.019,0.039-0.038,0.059-0.062C180.214-17.561,180.247-17.631,180.272-17.704 M148.796,13.972l9.127,1.233l-2.66,6.944
					c-0.141-0.034-0.293-0.011-0.42,0.06l-0.139-0.181l-6.053-7.809c0.012-0.012,0.023-0.025,0.031-0.036
					C148.735,14.118,148.772,14.045,148.796,13.972 M158.104,15.229l7.061,0.954c0.012,0.026,0.027,0.055,0.043,0.079l-7.303,4.616
					l-2.318,1.466c-0.021-0.028-0.047-0.056-0.076-0.076c-0.023-0.021-0.053-0.04-0.082-0.057L158.104,15.229z M158.169,15.06
					l1.529-3.996c0.166,0.033,0.34-0.006,0.479-0.109l2.178,2.152l2.768,2.734c-0.01,0.054-0.012,0.104-0.006,0.157L158.169,15.06z
					 M164.913,10.284l0.488,5.144c-0.059,0.037-0.109,0.079-0.154,0.135c-0.023,0.029-0.045,0.061-0.063,0.093l-2.697-2.665
					l-2.189-2.161c0.066-0.09,0.102-0.188,0.113-0.29L164.913,10.284z M154.546,22.837l-3.559,1.21l-2.533-9.691
					c0.02-0.008,0.039-0.019,0.061-0.029l6.189,7.991c-0.012,0.012-0.023,0.026-0.033,0.037
					C154.556,22.494,154.515,22.672,154.546,22.837 M148.813,13.727l10.463-2.994c0.037,0.077,0.09,0.15,0.162,0.207
					c0.029,0.026,0.063,0.047,0.096,0.064l-1.547,4.031l-9.17-1.237C148.817,13.774,148.817,13.749,148.813,13.727 M160.194,10.013
					c-0.035-0.028-0.07-0.05-0.105-0.069l3.639-11.523c0.02,0.002,0.039,0.004,0.063,0.004l1.107,11.686l-4.492,0.255
					C160.38,10.23,160.31,10.105,160.194,10.013 M181.167-9.298l3.365-0.413c0.035,0.104,0.1,0.198,0.188,0.272
					c0.049,0.038,0.102,0.067,0.158,0.092l-2.168,9.302c-0.02,0-0.037,0-0.055,0L181.167-9.298z M170.944,10.486l1.871,8.339
					l-6.523-2.738c0.045-0.184,0.002-0.384-0.121-0.53l4.373-5.184C170.663,10.46,170.806,10.498,170.944,10.486 M172.862,19.037
					l2.113,9.415c-0.023,0.009-0.041,0.017-0.061,0.026l-8.787-12.111c0.016-0.017,0.033-0.034,0.049-0.05
					c0.016-0.021,0.033-0.045,0.045-0.067L172.862,19.037z M165.333,16.402c0.047,0.04,0.096,0.066,0.15,0.092l-2.172,8.705
					l-7.586-2.375c0.018-0.112,0.002-0.229-0.045-0.334l9.645-6.095C165.327,16.399,165.331,16.4,165.333,16.402 M154.755,23.195
					c0.055,0.045,0.115,0.077,0.178,0.099l-1.748,8.747c-0.035-0.001-0.072,0.002-0.107,0.007l-2.047-7.831l3.572-1.212
					C154.638,23.078,154.69,23.144,154.755,23.195 M152.647,32.358l-10.99-4.706c0.023-0.084,0.025-0.172,0.012-0.259l9.195-3.12
					l2.047,7.828c-0.078,0.037-0.143,0.089-0.199,0.158C152.685,32.29,152.665,32.324,152.647,32.358 M141.14,26.904l-1.002-19.953
					c0.096-0.018,0.186-0.06,0.264-0.124l7.322,6.646c-0.17,0.254-0.125,0.6,0.119,0.797c0.008,0.006,0.016,0.012,0.027,0.019
					l-6.596,12.649C141.229,26.922,141.185,26.911,141.14,26.904 M140.583,6.57l12.139,2.521l-4.152,4.229
					c-0.221-0.162-0.521-0.149-0.729,0.021l-7.322-6.646C140.546,6.658,140.567,6.614,140.583,6.57 M152.927,9.134l6.293,1.308
					c0,0.042,0,0.082,0.006,0.124l-10.461,2.992c-0.018-0.038-0.041-0.077-0.068-0.113L152.927,9.134z M153.073,8.986l10.443-10.645
					c0.016,0.009,0.029,0.018,0.043,0.024l-3.637,11.521c-0.209-0.038-0.428,0.037-0.57,0.212c-0.043,0.051-0.074,0.111-0.098,0.171
					L153.073,8.986z M164.394-1.999l6.979,1.007l-0.568,10.293c-0.051,0.007-0.098,0.021-0.141,0.042l-0.975-1.662l-5.49-9.385
					c0.031-0.026,0.059-0.058,0.086-0.091C164.335-1.857,164.372-1.929,164.394-1.999 M171.544-0.966l10.52,1.52
					c0,0.104,0.027,0.206,0.08,0.295l-10.873,8.573c-0.084-0.07-0.186-0.109-0.289-0.123L171.544-0.966z M171.554-1.143l0.359-6.498
					c0.129-0.014,0.248-0.066,0.35-0.154l9.883,8.042c-0.023,0.044-0.045,0.089-0.057,0.135L171.554-1.143z M172.298-8.64
					l7.096-8.721c0.098,0.056,0.203,0.084,0.313,0.083l1.26,7.829l-8.531,1.051C172.407-8.486,172.366-8.569,172.298-8.64
					 M181.159-27.453l14.762,11.724c-0.025,0.041-0.045,0.081-0.057,0.126l-12.492-1.824l-2.398-9.912
					C181.042-27.366,181.104-27.404,181.159-27.453 M192.157-7.54l-6.471-2.253c0.018-0.097,0.014-0.197-0.016-0.291l10.271-5.008
					c0.031,0.048,0.07,0.089,0.115,0.125c0.008,0.006,0.018,0.012,0.025,0.019L192.157-7.54z M192.075-7.383l-2.031,3.838
					c-0.162-0.058-0.338-0.043-0.486,0.038l-4.006-6.01c0.002-0.003,0.008-0.006,0.012-0.01c0.025-0.032,0.047-0.064,0.064-0.101
					L192.075-7.383z M189.296-2.742l-2.008,0.969l-1.957-7.579c0.029-0.015,0.061-0.028,0.09-0.048l3.996,6
					c-0.012,0.013-0.025,0.025-0.039,0.043C189.233-3.179,189.21-2.939,189.296-2.742 M187.124-1.694l-3.967,1.912
					c-0.033-0.048-0.072-0.091-0.119-0.129c-0.049-0.04-0.1-0.069-0.154-0.092l2.197-9.304c0.027,0.001,0.053,0,0.08-0.003
					L187.124-1.694z M171.423,9.598c-0.01-0.016-0.018-0.032-0.029-0.047l8.002-6.313l2.857-2.25c0.012,0.009,0.02,0.02,0.029,0.028
					c0.254,0.204,0.619,0.171,0.832-0.07l5.137,3.27c-0.061,0.107-0.086,0.227-0.074,0.346L171.423,9.598z M174.185,20.118
					c0.096,0.078,0.211,0.122,0.33,0.133l0.51,7.624l-1.965-8.755l0.922,0.387C173.927,19.725,173.997,19.967,174.185,20.118
					 M174.651,28.749l-11.172-3.497l2.174-8.719c0.113,0.012,0.232-0.009,0.334-0.064l8.783,12.113
					c-0.014,0.016-0.031,0.033-0.045,0.052C174.696,28.668,174.673,28.71,174.651,28.749 M174.593,29.028l-12.174,2.203
					c-0.037-0.104-0.1-0.198-0.189-0.271c-0.049-0.038-0.098-0.066-0.148-0.087l1.357-5.451l11.16,3.495
					C174.593,28.954,174.593,28.991,174.593,29.028 M161.253,31.419l-7.506,1.05c-0.033-0.111-0.098-0.215-0.197-0.296
					c-0.057-0.047-0.123-0.083-0.191-0.104l1.746-8.741c0.111,0.008,0.225-0.017,0.322-0.074l5.994,7.759
					c-0.01,0.011-0.023,0.021-0.033,0.034C161.296,31.156,161.255,31.289,161.253,31.419 M141.079,31.646l0.076-3.551
					c0.146-0.019,0.287-0.091,0.387-0.215c0.02-0.021,0.033-0.041,0.045-0.064l11,4.71c0,0.005-0.002,0.009-0.002,0.012
					L141.079,31.646z M140.903,31.629l-7.539-0.583c0-0.039-0.008-0.075-0.018-0.113l7.225-3.116
					c0.035,0.055,0.076,0.106,0.133,0.148c0.082,0.069,0.176,0.109,0.273,0.126L140.903,31.629z M140.897,31.808l-0.188,8.8
					c-0.08,0.009-0.16,0.033-0.23,0.074l-1.557-1.967l-5.715-7.22c0.008-0.01,0.018-0.02,0.027-0.03
					c0.059-0.073,0.098-0.157,0.117-0.245L140.897,31.808z M140.183,41.284l-3.648,1.019l-3.496-10.682
					c0.01-0.006,0.021-0.01,0.031-0.017l5.748,7.261l1.523,1.925c-0.01,0.011-0.021,0.023-0.029,0.032
					C140.202,40.958,140.161,41.125,140.183,41.284 M136.362,42.348l-10.881,3.032c-0.037-0.083-0.09-0.161-0.166-0.224
					l-0.021-0.014l4.951-9.185l2.32-4.309c0.1,0.035,0.205,0.044,0.303,0.026L136.362,42.348z M136.417,42.517l2.891,8.829
					c-0.057,0.034-0.107,0.078-0.152,0.133c-0.037,0.045-0.064,0.093-0.09,0.146l-13.551-5.848c0.02-0.076,0.025-0.153,0.016-0.229
					L136.417,42.517z M127.798,53.802l-5.563,0.919c-0.031-0.127-0.1-0.244-0.207-0.333c-0.012-0.012-0.027-0.021-0.043-0.031
					l2.84-8.149c0.076,0.017,0.156,0.017,0.23,0L127.798,53.802z M117.929,47.16c0.045-0.03,0.084-0.066,0.121-0.109
					c0.09-0.113,0.131-0.244,0.133-0.374l4.297-0.616l-0.801,8.194c-0.061-0.005-0.125,0.003-0.188,0.021L117.929,47.16z
					 M123.683,33.571c0.006,0.001,0.014,0.003,0.021,0.004l-1.205,12.307l-4.342,0.619c-0.033-0.11-0.096-0.215-0.195-0.294
					c-0.016-0.014-0.033-0.025-0.051-0.035L123.683,33.571z M131.017,28.828c0.027,0.032,0.059,0.061,0.088,0.087
					c0.029,0.022,0.059,0.04,0.084,0.057l-0.98,2.574l-5.801,1.24c-0.002-0.007-0.004-0.011-0.006-0.016L131.017,28.828z
					 M163.118-1.501L152.866,8.943l-12.25-2.546c0.006-0.047,0-0.096-0.008-0.143L163.118-1.501z M171.438-7.811
					c0.012,0.013,0.027,0.025,0.041,0.037c0.078,0.063,0.166,0.104,0.26,0.122l-0.359,6.483l-6.959-1.006
					c0-0.098-0.027-0.196-0.074-0.284L171.438-7.811z M190.39-3.227c-0.037-0.083-0.094-0.158-0.168-0.219
					c-0.008-0.006-0.016-0.01-0.023-0.018l2.045-3.861l5.359,1.865c-0.014,0.062-0.014,0.126-0.004,0.188L190.39-3.227z
					 M188.794,3.908c-0.016-0.003-0.029-0.003-0.043,0l-1.42-5.507l2.059-0.994c0.023,0.027,0.047,0.053,0.076,0.075
					c0.066,0.057,0.143,0.093,0.223,0.114L188.794,3.908z M188.331,4.909l-13.428,14.253c-0.141-0.098-0.311-0.125-0.469-0.095
					l-3.246-8.655c0.066-0.035,0.125-0.082,0.178-0.144c0.117-0.147,0.156-0.333,0.117-0.506l16.736-5.03
					c0.027,0.067,0.066,0.127,0.119,0.182L188.331,4.909z M141.22,40.801c-0.021-0.022-0.043-0.045-0.066-0.065
					c-0.08-0.064-0.174-0.106-0.27-0.122l0.191-8.795l11.508,0.894c0.006,0.069,0.027,0.138,0.061,0.199L141.22,40.801z
					 M139.585,51.259c-0.039,0.003-0.074,0.009-0.113,0.019l-2.883-8.809l3.645-1.015c0.037,0.079,0.092,0.152,0.164,0.211
					c0.07,0.059,0.152,0.096,0.236,0.116L139.585,51.259z M129.554,59.391l-7.352-4.307c0.025-0.06,0.041-0.125,0.047-0.188
					l5.609-0.925l1.889,5.231c-0.057,0.032-0.109,0.077-0.154,0.133C129.579,59.353,129.565,59.374,129.554,59.391"/>
			</g>
		</g>
	</g>
</g>
<g>
	<g>
		<path fill="#FFFFFF" d="M13.124,6.85h3.316v10.564h0.064L21.349,6.85h3.315l-4.519,9.264l5.363,13.88h-3.511l-3.771-10.271
			l-1.787,3.348v6.924h-3.316V6.85z"/>
		<path fill="#FFFFFF" d="M38.479,24.792c0,0.759-0.142,1.463-0.423,2.113c-0.282,0.65-0.667,1.219-1.154,1.706
			c-0.487,0.488-1.057,0.873-1.706,1.154c-0.65,0.281-1.344,0.423-2.081,0.423c-0.736,0-1.43-0.142-2.08-0.423
			c-0.649-0.281-1.219-0.666-1.706-1.154c-0.488-0.487-0.873-1.056-1.154-1.706c-0.282-0.65-0.423-1.354-0.423-2.113V6.85h3.316
			v17.618c0,0.823,0.194,1.43,0.585,1.82c0.39,0.39,0.877,0.585,1.462,0.585c0.586,0,1.073-0.195,1.463-0.585
			c0.391-0.391,0.585-0.997,0.585-1.82V6.85h3.316V24.792z"/>
		<path fill="#FFFFFF" d="M42.411,6.85h5.331c3.9,0,5.851,2.265,5.851,6.794c0,1.344-0.211,2.497-0.635,3.461
			c-0.422,0.965-1.164,1.739-2.226,2.324l3.575,10.564h-3.511l-3.088-9.882h-1.982v9.882h-3.315V6.85z M45.727,17.187h1.886
			c0.585,0,1.051-0.082,1.397-0.244c0.346-0.162,0.611-0.396,0.796-0.699c0.185-0.303,0.309-0.677,0.374-1.121
			c0.065-0.443,0.098-0.959,0.098-1.544s-0.032-1.1-0.098-1.544s-0.2-0.823-0.406-1.138c-0.206-0.313-0.493-0.547-0.861-0.699
			c-0.369-0.151-0.856-0.228-1.463-0.228h-1.723V17.187z"/>
		<path fill="#FFFFFF" d="M57.038,6.85h4.844c1.061,0,1.967,0.162,2.713,0.487c0.748,0.325,1.361,0.759,1.838,1.301
			s0.816,1.165,1.023,1.869c0.205,0.704,0.309,1.436,0.309,2.193v0.846c0,0.629-0.049,1.159-0.146,1.593s-0.244,0.813-0.438,1.138
			c-0.195,0.325-0.436,0.612-0.717,0.861s-0.605,0.482-0.975,0.698c0.781,0.369,1.354,0.916,1.723,1.642
			c0.369,0.727,0.553,1.696,0.553,2.909v1.301c0,2.037-0.492,3.597-1.479,4.681s-2.563,1.625-4.73,1.625h-4.518V6.85z
			 M60.354,16.341h1.494c1.105,0,1.848-0.276,2.227-0.828c0.379-0.553,0.568-1.36,0.568-2.422c0-1.04-0.211-1.82-0.633-2.341
			c-0.422-0.52-1.188-0.78-2.291-0.78h-1.365V16.341z M60.354,26.678h1.43c0.672,0,1.197-0.098,1.576-0.293
			c0.379-0.194,0.666-0.466,0.861-0.813c0.195-0.346,0.314-0.758,0.357-1.235c0.043-0.476,0.064-0.996,0.064-1.56
			c0-0.585-0.031-1.095-0.096-1.528c-0.066-0.433-0.201-0.796-0.408-1.089c-0.205-0.292-0.492-0.515-0.861-0.666
			c-0.367-0.151-0.855-0.228-1.461-0.228h-1.463V26.678z"/>
		<path fill="#FFFFFF" d="M74.948,6.85h2.762l5.168,23.144h-3.314l-0.975-4.974h-4.52l-0.975,4.974H69.78L74.948,6.85z
			 M76.345,13.513H76.28l-1.625,8.387h3.314L76.345,13.513z"/>
		<path fill="#FFFFFF" d="M85.155,6.85h3.184l5.006,13.944h0.066V6.85h3.314v23.144h-3.119l-5.072-13.912H88.47v13.912h-3.314V6.85z
			"/>
		<path fill="#FFFFFF" d="M113.888,29.993h-2.926L106.249,6.85h3.51l2.635,16.155h0.064l2.666-16.155h3.51L113.888,29.993z"/>
		<path fill="#FFFFFF" d="M120.714,6.85h3.316v23.144h-3.316V6.85z"/>
		<path fill="#FFFFFF" d="M127.247,6.85h4.908c1.885,0,3.326,0.525,4.324,1.576c0.996,1.052,1.494,2.52,1.494,4.404v10.824
			c0,2.168-0.525,3.766-1.576,4.795s-2.563,1.544-4.535,1.544h-4.615V6.85z M130.563,26.873h1.527c0.932,0,1.592-0.233,1.982-0.699
			s0.586-1.197,0.586-2.194V12.83c0-0.909-0.186-1.613-0.553-2.112c-0.369-0.498-1.041-0.748-2.016-0.748h-1.527V26.873z"/>
		<path fill="#FFFFFF" d="M141.095,6.85h9.881v3.12h-6.566v6.794h5.721v3.12h-5.721v6.794h6.566v3.315h-9.881V6.85z"/>
		<path fill="#FFFFFF" d="M152.927,12.311c0-0.932,0.162-1.755,0.486-2.471c0.326-0.715,0.754-1.305,1.285-1.771
			c0.529-0.466,1.127-0.817,1.787-1.057c0.66-0.237,1.328-0.357,2-0.357c0.67,0,1.338,0.12,1.998,0.357
			c0.66,0.239,1.256,0.591,1.787,1.057c0.531,0.467,0.959,1.057,1.285,1.771c0.324,0.716,0.486,1.539,0.486,2.471v12.222
			c0,0.954-0.162,1.783-0.486,2.486c-0.326,0.705-0.754,1.29-1.285,1.756s-1.127,0.818-1.787,1.057
			c-0.66,0.237-1.328,0.357-1.998,0.357c-0.672,0-1.34-0.12-2-0.357c-0.66-0.238-1.258-0.591-1.787-1.057
			c-0.531-0.466-0.959-1.051-1.285-1.756c-0.324-0.703-0.486-1.532-0.486-2.486V12.311z M156.241,24.532
			c0,0.802,0.223,1.393,0.666,1.771c0.445,0.38,0.971,0.569,1.578,0.569c0.605,0,1.131-0.189,1.576-0.569
			c0.443-0.379,0.666-0.97,0.666-1.771V12.311c0-0.802-0.223-1.393-0.666-1.771c-0.445-0.379-0.971-0.569-1.576-0.569
			c-0.607,0-1.133,0.19-1.578,0.569c-0.443,0.379-0.666,0.97-0.666,1.771V24.532z"/>
	</g>
	<g>
		<path fill="#FFFFFF" d="M120.729,2.686h3.315v3.315h-3.315V2.686z"/>
	</g>
</g>
<g>
	<path fill="#1EADE4" d="M7.794,49.372l-2.011-5.138l-0.989,1.961v3.177H3.422v-11.36h1.373v5.758l2.744-5.758h1.403l-2.297,4.69
		l2.633,6.67H7.794z"/>
	<path fill="#1EADE4" d="M16.646,48.748c-0.494,0.496-1.165,0.752-1.898,0.752c-0.734,0-1.389-0.256-1.883-0.752
		c-0.463-0.462-0.734-1.132-0.734-1.96v-8.776h1.373v8.855c0,0.893,0.558,1.404,1.245,1.404c0.686,0,1.26-0.512,1.26-1.404v-8.855
		h1.372v8.776C17.379,47.616,17.108,48.286,16.646,48.748z"/>
	<path fill="#1EADE4" d="M25.306,49.372l-1.563-4.884h-1.245v4.884h-1.372v-11.36h2.568c1.724,0,2.681,0.752,2.681,3.239
		c0,1.579-0.383,2.505-1.372,2.967l1.739,5.154H25.306z M23.711,39.24h-1.213v4.036h1.213c1.053,0,1.292-0.813,1.292-2.025
		C25.003,40.054,24.764,39.24,23.711,39.24z"/>
	<path fill="#1EADE4" d="M34.732,48.688c-0.463,0.477-1.102,0.685-2.106,0.685h-2.441v-11.36h2.457c0.989,0,1.612,0.208,2.074,0.687
		c0.495,0.527,0.655,1.181,0.655,2.33c0,0.779-0.08,1.449-0.622,1.993c-0.191,0.192-0.415,0.352-0.654,0.432
		c0.272,0.078,0.511,0.223,0.702,0.431c0.591,0.621,0.654,1.452,0.654,2.217C35.45,47.441,35.243,48.158,34.732,48.688z
		 M32.531,39.24h-0.973v3.638h0.973c0.988,0,1.468-0.525,1.468-1.82C33.999,39.671,33.519,39.24,32.531,39.24z M32.547,44.058h-0.99
		v4.086h0.99c1.037,0,1.531-0.479,1.531-2.043C34.078,44.648,33.569,44.058,32.547,44.058z"/>
	<path fill="#1EADE4" d="M43.282,49.372l-0.542-2.681h-2.632l-0.542,2.681h-1.437l2.649-11.36h1.324l2.632,11.36H43.282z
		 M41.431,40.23l-1.07,5.231h2.124L41.431,40.23z"/>
	<path fill="#1EADE4" d="M51.942,49.372l-2.935-7.771v7.771h-1.373v-11.36h1.276l2.92,7.77l-0.016-7.77h1.371v11.36H51.942z"/>
	<path fill="#1EADE4" d="M64.304,44.776v4.596h-1.375v-4.596l-2.088-6.765h1.498l1.279,4.852l1.275-4.852h1.516L64.304,44.776z"/>
	<path fill="#1EADE4" d="M73.729,48.688c-0.432,0.477-1.053,0.813-1.961,0.813c-0.91,0-1.518-0.336-1.947-0.813
		c-0.783-0.863-0.83-2.156-0.83-4.996c0-2.841,0.047-4.133,0.83-4.993c0.43-0.479,1.037-0.813,1.947-0.813
		c0.908,0,1.529,0.334,1.961,0.813c0.781,0.86,0.814,2.152,0.814,4.993C74.544,46.531,74.511,47.824,73.729,48.688z M69.868,36.975
		v-1.293h1.309v1.293H69.868z M72.692,39.542c-0.191-0.254-0.479-0.43-0.924-0.43c-0.449,0-0.736,0.176-0.928,0.43
		c-0.398,0.545-0.477,1.452-0.477,4.149c0,2.696,0.078,3.606,0.477,4.147c0.191,0.256,0.479,0.433,0.928,0.433
		c0.445,0,0.732-0.177,0.924-0.433c0.398-0.541,0.479-1.451,0.479-4.147C73.171,40.994,73.091,40.087,72.692,39.542z M72.358,36.975
		v-1.293h1.309v1.293H72.358z"/>
	<path fill="#1EADE4" d="M82.423,49.372l-2.936-7.771v7.771h-1.373v-11.36h1.277l2.918,7.77l-0.014-7.77h1.371v11.36H82.423z"/>
	<path fill="#1EADE4" d="M87.524,49.372v-11.36h4.387v1.229h-3.014v3.813h2.6v1.229h-2.6v3.862h3.014v1.229H87.524z"/>
	<path fill="#1EADE4" d="M97.987,39.24v10.132h-1.371V39.24h-1.914v-1.229h5.186v1.229H97.987z"/>
	<path fill="#1EADE4" d="M103.044,49.372v-11.36h1.371v11.36H103.044z M103.093,36.975v-1.293h1.309v1.293H103.093z"/>
	<path fill="#1EADE4" d="M114.069,49.372v-8.09l-1.805,5.313h-0.848l-1.768-5.186v7.962h-1.375v-11.36h1.295l2.295,6.319
		l2.283-6.319h1.291v11.36H114.069z"/>
	<path fill="#1EADE4" d="M128.374,48.797c-0.432,0.416-1.1,0.687-2.012,0.687c-0.877,0-1.547-0.239-1.992-0.687
		c-0.525-0.525-0.703-1.181-0.703-2.393h1.369c0,0.75,0.08,1.164,0.387,1.484c0.189,0.206,0.51,0.349,0.939,0.349
		c0.465,0,0.766-0.143,0.973-0.367c0.307-0.333,0.369-0.764,0.369-1.514c0-1.308-0.191-1.708-1.115-2.091l-1.295-0.527
		c-1.162-0.478-1.547-1.116-1.547-2.838c0-0.99,0.285-1.804,0.861-2.33c0.447-0.415,1.051-0.655,1.803-0.655
		c0.832,0,1.451,0.24,1.883,0.655c0.574,0.559,0.748,1.293,0.748,2.33h-1.371c0-0.606-0.063-1.021-0.35-1.373
		c-0.193-0.239-0.494-0.383-0.928-0.383c-0.398,0-0.684,0.144-0.873,0.351c-0.277,0.304-0.404,0.766-0.404,1.355
		c0,1.119,0.178,1.453,1.088,1.835l1.277,0.528c1.291,0.524,1.596,1.322,1.596,3.109C129.077,47.504,128.917,48.255,128.374,48.797z
		"/>
	<path fill="#1EADE4" d="M132.583,49.372v-11.36h1.371v11.36H132.583z M132.632,36.975v-1.293h1.309v1.293H132.632z"/>
	<path fill="#1EADE4" d="M142.104,48.797c-0.428,0.416-1.1,0.687-2.006,0.687c-0.879,0-1.551-0.239-1.998-0.687
		c-0.525-0.525-0.699-1.181-0.699-2.393h1.369c0,0.75,0.082,1.164,0.387,1.484c0.189,0.206,0.508,0.349,0.941,0.349
		c0.459,0,0.764-0.143,0.973-0.367c0.301-0.333,0.367-0.764,0.367-1.514c0-1.308-0.195-1.708-1.119-2.091l-1.291-0.527
		c-1.166-0.478-1.547-1.116-1.547-2.838c0-0.99,0.287-1.804,0.857-2.33c0.451-0.415,1.057-0.655,1.805-0.655
		c0.83,0,1.453,0.24,1.883,0.655c0.572,0.559,0.75,1.293,0.75,2.33h-1.373c0-0.606-0.063-1.021-0.35-1.373
		c-0.191-0.239-0.496-0.383-0.926-0.383c-0.4,0-0.686,0.144-0.877,0.351c-0.271,0.304-0.398,0.766-0.398,1.355
		c0,1.119,0.176,1.453,1.082,1.835l1.279,0.528c1.293,0.524,1.594,1.322,1.594,3.109C142.808,47.504,142.649,48.255,142.104,48.797z
		"/>
	<path fill="#1EADE4" d="M148.919,39.24v10.132h-1.375V39.24h-1.916v-1.229h5.186v1.229H148.919z"/>
	<path fill="#1EADE4" d="M153.97,49.372v-11.36h4.391v1.229h-3.016v3.813h2.6v1.229h-2.6v3.862h3.016v1.229H153.97z"/>
	<path fill="#1EADE4" d="M167.626,49.372v-8.09l-1.803,5.313h-0.846l-1.771-5.186v7.962h-1.371v-11.36h1.291l2.299,6.319
		l2.281-6.319h1.291v11.36H167.626z"/>
	<path fill="#1EADE4" d="M172.856,49.372v-11.36h1.371v11.36H172.856z M172.903,36.975v-1.293h1.311v1.293H172.903z"/>
</g>
</svg>
