<?xml version="1.0" encoding="utf-8"?>
<!-- Generator: Adobe Illustrator 16.0.0, SVG Export Plug-In . SVG Version: 6.00 Build 0)  -->
<!DOCTYPE svg PUBLIC "-//W3C//DTD SVG 1.1//EN" "http://www.w3.org/Graphics/SVG/1.1/DTD/svg11.dtd">
<svg version="1.1" id="Layer_1" xmlns="http://www.w3.org/2000/svg" xmlns:xlink="http://www.w3.org/1999/xlink" x="0px" y="0px"
	 width="180.5px" height="50px" viewBox="0 0 180.5 50" enable-background="new 0 0 180.5 50" xml:space="preserve">
<g>
	<path fill="#1EADE4" d="M8.744,15.206H1.988v34.295h9.803v-29.99C11.762,15.696,9.438,15.253,8.744,15.206"/>
</g>
<g>
	<defs>
		<path id="SVGID_1_" d="M1.988,0.532v6.617c0.016,0.545,0.3,3.143,4.382,3.143h10.334v39.209h9.786l0.005-1.73V10.333h13.712
			c5.045,0.014,17.097,0.33,20.891,3.914c4.855-0.822,9.524-2.645,9.509-5.951c0.45-7.008-20.481-7.783-28.428-7.795
			c-0.061,0-0.161-0.002-0.299-0.002C37.859,0.499,1.988,0.532,1.988,0.532"/>
	</defs>
	<clipPath id="SVGID_2_">
		<use xlink:href="#SVGID_1_"  overflow="visible"/>
	</clipPath>
	
		<linearGradient id="SVGID_3_" gradientUnits="userSpaceOnUse" x1="-186.8906" y1="101.8711" x2="-186.0406" y2="101.8711" gradientTransform="matrix(80.7179 0 0 -80.7179 15087.4736 8247.8213)">
		<stop  offset="0" style="stop-color:#05ADE2"/>
		<stop  offset="0.183" style="stop-color:#0EA8DA"/>
		<stop  offset="0.3566" style="stop-color:#199DCA"/>
		<stop  offset="0.5266" style="stop-color:#208CB3"/>
		<stop  offset="0.6942" style="stop-color:#237796"/>
		<stop  offset="0.8586" style="stop-color:#215E76"/>
		<stop  offset="1" style="stop-color:#1B4759"/>
	</linearGradient>
	<rect x="1.988" y="0.501" clip-path="url(#SVGID_2_)" fill="url(#SVGID_3_)" width="69.071" height="49"/>
</g>
<g>
	<defs>
		<path id="SVGID_4_" d="M62.927,13.888c-0.72,0.176-2.253,0.457-2.394,0.482c-0.001,0-0.004,0.002-0.006,0.002
			c-3.788,0.641-7.732,0.803-10.025,0.836H31.411v6.67c0.021,0.574,0.337,3.072,4.262,3.123h5.506v24.5h9.803V25.167l1.633-0.002
			c6.382-0.072,17.967-0.898,17.963-5.982c-0.003-5.197-0.004-8.854-0.004-10.4C70.124,11.407,66.817,12.942,62.927,13.888"/>
	</defs>
	<clipPath id="SVGID_5_">
		<use xlink:href="#SVGID_4_"  overflow="visible"/>
	</clipPath>
	
		<linearGradient id="SVGID_6_" gradientUnits="userSpaceOnUse" x1="-187.8706" y1="95.8799" x2="-187.02" y2="95.8799" gradientTransform="matrix(46.0696 0 0 -46.0696 8686.5215 4446.248)">
		<stop  offset="0" style="stop-color:#05ADE2"/>
		<stop  offset="1" style="stop-color:#0BAFCC"/>
	</linearGradient>
	<rect x="31.411" y="8.782" clip-path="url(#SVGID_5_)" fill="url(#SVGID_6_)" width="39.172" height="40.719"/>
</g>
<g>
	<g>
		<g>
			<defs>
				<path id="SVGID_7_" d="M81.364,0.501c-2.912,0-5.273,2.361-5.273,5.273v24.242c0,2.914,2.361,5.273,5.273,5.273h92.111
					c2.912,0,5.272-2.359,5.272-5.273V5.774c0-2.912-2.36-5.273-5.272-5.273H81.364z"/>
			</defs>
			<clipPath id="SVGID_8_">
				<use xlink:href="#SVGID_7_"  overflow="visible"/>
			</clipPath>
			
				<linearGradient id="SVGID_9_" gradientUnits="userSpaceOnUse" x1="-186.6226" y1="104.5049" x2="-185.7725" y2="104.5049" gradientTransform="matrix(120.7422 0 0 -120.7422 22609.3633 12636.0137)">
				<stop  offset="0" style="stop-color:#0EB9CD"/>
				<stop  offset="1" style="stop-color:#05ADE2"/>
			</linearGradient>
			<rect x="76.091" y="0.501" clip-path="url(#SVGID_8_)" fill="url(#SVGID_9_)" width="102.657" height="34.789"/>
		</g>
		<g>
			<defs>
				<path id="SVGID_10_" d="M81.364,0.501c-2.912,0-5.273,2.361-5.273,5.273v24.242c0,2.914,2.361,5.273,5.273,5.273h92.111
					c2.912,0,5.272-2.359,5.272-5.273V5.774c0-2.912-2.36-5.273-5.272-5.273H81.364z"/>
			</defs>
			<clipPath id="SVGID_11_">
				<use xlink:href="#SVGID_10_"  overflow="visible"/>
			</clipPath>
			<g opacity="0.75" clip-path="url(#SVGID_11_)">
				<g>
					<defs>
						<rect id="SVGID_12_" x="95.639" y="-29.356" width="116.085" height="91.445"/>
					</defs>
					<clipPath id="SVGID_13_">
						<use xlink:href="#SVGID_12_"  overflow="visible"/>
					</clipPath>
					<g clip-path="url(#SVGID_13_)">
						<defs>
							<rect id="SVGID_14_" x="95.639" y="-29.356" width="116.085" height="91.445"/>
						</defs>
						<clipPath id="SVGID_15_">
							<use xlink:href="#SVGID_14_"  overflow="visible"/>
						</clipPath>
						<g opacity="0.3" clip-path="url(#SVGID_15_)">
							<g>
								<defs>
									<rect id="SVGID_16_" x="95.639" y="2.392" width="116.085" height="55.639"/>
								</defs>
								<clipPath id="SVGID_17_">
									<use xlink:href="#SVGID_16_"  overflow="visible"/>
								</clipPath>
								<g clip-path="url(#SVGID_17_)">
									<defs>
										<rect id="SVGID_18_" x="95.639" y="2.392" width="116.085" height="55.639"/>
									</defs>
									<clipPath id="SVGID_19_">
										<use xlink:href="#SVGID_18_"  overflow="visible"/>
									</clipPath>
									<path clip-path="url(#SVGID_19_)" fill="#5BC7D4" d="M96.077,48.12c0.073,0.367,0.432,0.605,0.799,0.533
										c0.075-0.016,0.144-0.041,0.205-0.078l5.245,7.332c-0.161,0.156-0.241,0.389-0.194,0.621
										c0.073,0.367,0.431,0.605,0.799,0.533c0.275-0.057,0.478-0.27,0.531-0.529l15.694,0.883c0.002,0.023,0.005,0.045,0.01,0.07
										c0.074,0.367,0.432,0.605,0.798,0.531c0.369-0.072,0.607-0.43,0.533-0.799c-0.009-0.045-0.022-0.09-0.04-0.131l7.455-4.553
										c0.154,0.184,0.401,0.281,0.653,0.23c0.368-0.074,0.605-0.432,0.533-0.799c-0.03-0.148-0.107-0.277-0.213-0.371
										l5.293-8.006c0.126,0.059,0.271,0.08,0.419,0.051c0.161-0.031,0.298-0.119,0.394-0.236l19.49,11.564
										c-0.049,0.119-0.064,0.254-0.037,0.391c0.074,0.367,0.431,0.605,0.798,0.533c0.369-0.074,0.606-0.432,0.533-0.801
										c-0.019-0.092-0.057-0.178-0.107-0.252l19.968-18.73c0.115,0.307,0.438,0.492,0.768,0.426
										c0.368-0.072,0.606-0.432,0.533-0.799c-0.005-0.021-0.011-0.041-0.017-0.061l9.125-4.281
										c0.147,0.223,0.42,0.346,0.697,0.289c0.334-0.066,0.562-0.367,0.545-0.699l12.504-2.502
										c0.111,0.313,0.437,0.504,0.771,0.438c0.198-0.039,0.358-0.162,0.452-0.324l9.369,3.752
										c-0.021,0.09-0.022,0.184-0.003,0.281c0.072,0.367,0.431,0.607,0.798,0.531c0.368-0.072,0.605-0.43,0.533-0.797
										c-0.068-0.336-0.373-0.564-0.706-0.545l-3.947-21.01c0.316-0.109,0.511-0.436,0.443-0.773
										c-0.074-0.367-0.431-0.605-0.799-0.533c-0.131,0.027-0.246,0.092-0.337,0.178l-8.124-6.277
										c0.076-0.135,0.106-0.299,0.073-0.465c-0.073-0.365-0.431-0.604-0.798-0.531c-0.368,0.074-0.606,0.432-0.532,0.799
										c0.021,0.107,0.066,0.203,0.13,0.283l-5.865,6.15c-0.148-0.104-0.335-0.15-0.525-0.111c-0.2,0.039-0.36,0.164-0.455,0.328
										l-6.816-2.447c0.011-0.076,0.011-0.156-0.006-0.236c-0.073-0.367-0.431-0.607-0.798-0.531
										c-0.367,0.072-0.605,0.43-0.533,0.797c0.001,0,0.001,0,0.001,0.002l-0.027-0.098l-21.407,5.924
										c-0.126-0.283-0.436-0.453-0.753-0.389c-0.157,0.029-0.291,0.115-0.386,0.227l-7.911-4.879
										c0.052-0.121,0.069-0.26,0.042-0.398c-0.074-0.367-0.432-0.607-0.799-0.533s-0.606,0.432-0.532,0.799
										c0.026,0.131,0.087,0.244,0.173,0.334l-8.656,11.047c-0.137-0.078-0.302-0.111-0.469-0.078
										c-0.367,0.074-0.605,0.432-0.532,0.799c0.028,0.141,0.098,0.262,0.192,0.354l-5.024,6.975
										c-0.132-0.068-0.287-0.094-0.445-0.063c-0.367,0.072-0.605,0.43-0.532,0.799c0.006,0.025,0.014,0.051,0.021,0.074
										l-13.969,7.287c-0.151-0.199-0.409-0.309-0.672-0.254c-0.195,0.039-0.354,0.156-0.448,0.314l-10.063-3.965
										c0.023-0.096,0.029-0.197,0.008-0.299c-0.073-0.369-0.432-0.607-0.799-0.533c-0.358,0.072-0.592,0.412-0.537,0.77
										l-11.728,4.928c-0.152-0.205-0.412-0.316-0.679-0.264c-0.367,0.074-0.605,0.432-0.532,0.799
										c0.055,0.273,0.266,0.473,0.521,0.529l0.431,9.68C96.239,47.401,96.006,47.757,96.077,48.12 M96.982,36.849
										c-0.007-0.033-0.016-0.064-0.026-0.094l10.592-4.449l1.102-0.463c0.017,0.035,0.038,0.07,0.062,0.102l-7.675,10.119
										l-4.216-4.629C96.959,37.282,97.026,37.067,96.982,36.849 M160.194,14.206c0.088-0.018,0.168-0.051,0.238-0.098l6.451,7.26
										l-6.895-5.881l0.112-1.27C160.132,14.216,160.164,14.212,160.194,14.206 M183.246,7.798l4.731,4.305l-3.986,2.943
										c-0.114-0.113-0.27-0.186-0.436-0.197l-0.563-6.9C183.089,7.917,183.174,7.866,183.246,7.798 M197.782,3.737
										c0.132-0.027,0.247-0.092,0.337-0.178l8.125,6.277c-0.04,0.072-0.066,0.15-0.079,0.232l-9.479,0.014l0.961-6.334
										C197.691,3.749,197.736,3.745,197.782,3.737 M120.186,56.774c-0.141-0.088-0.313-0.123-0.487-0.088
										c-0.151,0.031-0.281,0.109-0.377,0.219l-10.96-7.051c0.014-0.031,0.026-0.064,0.035-0.098l16.022,1.953L120.186,56.774z
										 M109.006,32.177l-1.31,16.725c-0.029,0-0.059,0.004-0.087,0.01c-0.091,0.018-0.173,0.055-0.245,0.102l-6.192-6.799
										l7.68-10.125C108.899,32.124,108.95,32.155,109.006,32.177 M107.269,50.062l-1.146,1.578l-8.584-3.508l9.525,1.443
										c0,0.045,0.004,0.09,0.014,0.135C107.104,49.849,107.173,49.97,107.269,50.062 M107.43,50.179
										c0.132,0.068,0.289,0.096,0.445,0.064c0.153-0.031,0.282-0.111,0.378-0.221l10.613,6.828l-12.554-5.133L107.43,50.179z
										 M109.276,49.663l9.207-0.08l7.317-0.064c0,0.01,0.001,0.018,0.003,0.027c0.024,0.121,0.082,0.23,0.159,0.318l-1.393,1.664
										L109.276,49.663z M126.116,49.991c0.141,0.086,0.313,0.123,0.487,0.088c0.065-0.014,0.125-0.035,0.182-0.066l1.172,1.604
										c-0.084,0.084-0.146,0.188-0.178,0.303l-2.972-0.363L126.116,49.991z M128.3,51.433c-0.065,0.014-0.127,0.035-0.182,0.066
										l-1.172-1.604c0.157-0.154,0.235-0.383,0.189-0.617c-0.016-0.076-0.044-0.145-0.081-0.209l6.95-5.598
										c0.002,0.002,0.005,0.006,0.007,0.008l-5.292,8.006C128.593,51.425,128.447,51.405,128.3,51.433 M142.152,20.317
										l6.197,1.525l-1.637,8.879c-0.051-0.002-0.103,0.002-0.156,0.014c-0.019,0.002-0.036,0.006-0.054,0.014l-4.61-10.119
										C142.01,20.554,142.1,20.444,142.152,20.317 M206.518,10.767l-4.756,13.424l-5.902-5.203
										c0.093-0.145,0.133-0.324,0.098-0.504c-0.015-0.064-0.037-0.125-0.066-0.182l10.463-7.656
										C206.4,10.692,206.457,10.735,206.518,10.767 M210.456,32.159l-9.368-3.75c0.022-0.092,0.026-0.189,0.007-0.289
										c-0.043-0.207-0.174-0.375-0.349-0.467l1.105-3.117l8.617,7.6C210.465,32.144,210.46,32.151,210.456,32.159
										 M192.758,22.358l2.195-3.152c0.139,0.078,0.303,0.109,0.471,0.076c0.032-0.006,0.063-0.016,0.095-0.027l4.506,8.453
										c-0.024,0.02-0.049,0.041-0.072,0.063L192.758,22.358z M186.91,30.409c-0.102-0.049-0.216-0.076-0.334-0.068l-2.837-14.178
										c0.095-0.033,0.179-0.086,0.248-0.154l8.499,6.395L186.91,30.409z M175.831,35.353c-0.024,0.02-0.046,0.043-0.067,0.064
										l-11.141-7.299l3.07-5.098c0.111,0.039,0.232,0.051,0.357,0.027c0.04-0.01,0.079-0.021,0.117-0.035l6.065,9.768
										L175.831,35.353z M135.021,42.585l8.01-7.582l8.392,7.68c-0.056,0.082-0.092,0.176-0.107,0.275l-16.179-0.08
										c-0.001-0.012-0.002-0.023-0.005-0.035C135.111,42.747,135.073,42.659,135.021,42.585 M167.307,22.677
										c0.048,0.102,0.121,0.188,0.21,0.25l-3.062,5.082l-4.844-3.176c0.12-0.135,0.186-0.32,0.166-0.512L167.307,22.677z
										 M200.296,27.587c-0.032,0.006-0.064,0.018-0.095,0.027l-4.504-8.455c0.01-0.008,0.021-0.014,0.031-0.023l5.961,5.258
										l-1.132,3.193C200.475,27.571,200.386,27.569,200.296,27.587 M151.853,42.396c-0.02,0.004-0.036,0.01-0.054,0.014
										l-4.634-10.205l-0.107-0.234c0.141-0.092,0.242-0.23,0.286-0.391l8.374,1.008l-3.597,9.811
										C152.036,42.38,151.943,42.378,151.853,42.396 M147.368,31.38c-0.002-0.037-0.005-0.074-0.012-0.113
										c-0.009-0.039-0.021-0.078-0.035-0.115l2.694-1.549l8.496-4.885c0.017,0.031,0.037,0.061,0.058,0.088l-2.78,7.588
										L147.368,31.38z M158.729,24.952c0.049,0.033,0.104,0.057,0.16,0.078l1.278,4.221l1.007,3.326
										c-0.177,0.082-0.308,0.238-0.362,0.42l-4.82-0.58L158.729,24.952z M161.715,32.56c-0.108-0.043-0.229-0.057-0.35-0.041
										l-1.011-3.34l-1.246-4.115c0.042,0,0.085-0.004,0.127-0.012c0.078-0.016,0.149-0.047,0.215-0.084l4.902,3.213
										L161.715,32.56z M146.823,32.065c0.019-0.004,0.036-0.008,0.053-0.014l4.74,10.441c-0.021,0.012-0.04,0.025-0.06,0.043
										l-8.381-7.67l3.096-2.934C146.422,32.05,146.621,32.104,146.823,32.065 M152.309,42.466l3.612-9.855l4.863,0.586
										c0,0.041,0.005,0.084,0.013,0.127c0.021,0.104,0.064,0.195,0.123,0.273l-8.544,8.912
										C152.354,42.493,152.333,42.479,152.309,42.466 M161.887,32.661l2.634-4.371l11.134,7.295
										c-0.01,0.021-0.019,0.043-0.026,0.066L162.142,33.2c0-0.049-0.004-0.096-0.013-0.143
										C162.096,32.894,162.007,32.757,161.887,32.661 M184.106,15.851c0.01-0.02,0.021-0.039,0.027-0.059l10.481,2.752
										c-0.007,0.066-0.004,0.135,0.01,0.205c0.025,0.131,0.087,0.244,0.172,0.334l-2.197,3.154L184.106,15.851z M167.248,22.485
										l-7.518,1.643c-0.083-0.205-0.26-0.352-0.47-0.402l0.708-7.994l7.373,6.291C167.259,22.155,167.221,22.317,167.248,22.485
										 M159.062,23.708c-0.03,0.002-0.062,0.006-0.093,0.012c-0.024,0.004-0.049,0.012-0.074,0.02l-7.5-15.223
										c0.021-0.016,0.04-0.031,0.059-0.049l8.328,7.105L159.062,23.708z M158.439,24.53l-11.218,6.449
										c-0.08-0.104-0.19-0.18-0.312-0.223l1.634-8.867l9.883,2.434c-0.006,0.063-0.004,0.129,0.01,0.195
										C158.438,24.522,158.438,24.526,158.439,24.53 M146.134,31.79l-3.106,2.939l-6.772-6.197
										c0.024-0.031,0.047-0.066,0.065-0.104l9.698,2.877c-0.01,0.072-0.009,0.15,0.006,0.227
										C146.044,31.628,146.082,31.714,146.134,31.79 M135.849,28.788c0.099-0.02,0.188-0.061,0.263-0.115l6.771,6.193
										l-7.997,7.574c-0.079-0.061-0.169-0.104-0.266-0.127l1.097-13.512C135.759,28.802,135.804,28.796,135.849,28.788
										 M135.136,43.079l16.178,0.08c0.002,0.012,0.003,0.023,0.005,0.035c0.07,0.348,0.393,0.58,0.736,0.543l2.792,10.863
										c-0.104,0.043-0.193,0.111-0.263,0.195l-19.491-11.564C135.113,43.183,135.127,43.13,135.136,43.079 M155.04,54.55
										l-2.792-10.863c0.281-0.117,0.452-0.412,0.407-0.723l6.44-1.924L155.2,54.554C155.147,54.546,155.094,54.544,155.04,54.55
										 M152.6,42.774c-0.022-0.047-0.049-0.088-0.079-0.129l8.54-8.91c0.038,0.029,0.078,0.053,0.12,0.072l-2.02,7.006
										L152.6,42.774z M161.372,33.862c0.072,0.01,0.147,0.008,0.224-0.006c0.251-0.051,0.441-0.232,0.514-0.461l13.482,2.451
										c0,0.018,0,0.037,0.001,0.055l-16.205,4.844L161.372,33.862z M176.137,35.204c-0.047,0.008-0.093,0.023-0.136,0.041
										l-6.509-10.479l-1.152-1.855c0.045-0.035,0.083-0.076,0.117-0.121l10.625,4.881l-2.681,7.531
										C176.316,35.187,176.228,35.185,176.137,35.204 M168.554,22.614c0.041-0.109,0.053-0.234,0.03-0.357l14.354-6.367
										c0.064,0.098,0.151,0.18,0.253,0.236l-4.041,11.355L168.554,22.614z M183.379,16.192c0.055,0.01,0.11,0.014,0.166,0.01
										l2.835,14.178c-0.143,0.051-0.26,0.145-0.338,0.268l-6.711-3.082L183.379,16.192z M187.075,30.524l5.57-8.002l7.187,5.406
										c-0.059,0.107-0.088,0.23-0.08,0.357l-12.504,2.502C187.211,30.687,187.15,30.597,187.075,30.524 M210.6,31.983
										l-8.677-7.65l4.782-13.5c0.051,0.01,0.104,0.014,0.155,0.012l3.949,21.014C210.731,31.888,210.66,31.929,210.6,31.983
										 M206.166,10.269c0.002,0.012,0.002,0.021,0.004,0.031c0.014,0.066,0.036,0.127,0.065,0.184l-10.463,7.656
										c-0.078-0.08-0.176-0.137-0.283-0.172l1.166-7.686L206.166,10.269z M195.292,17.938c-0.044,0-0.09,0.004-0.135,0.014
										c-0.005,0-0.01,0.002-0.014,0.002l-3.91-7.197c0.159-0.105,0.267-0.275,0.295-0.467l4.927-0.008L195.292,17.938z
										 M190.99,10.858c0.021-0.006,0.043-0.012,0.063-0.018l3.901,7.186c-0.033,0.02-0.064,0.043-0.093,0.064l-6.569-5.973
										l2.036-1.504C190.48,10.808,190.733,10.907,190.99,10.858 M194.727,18.239c-0.018,0.025-0.031,0.053-0.045,0.078
										l-10.496-2.721c0.007-0.066,0.004-0.135-0.009-0.205c-0.014-0.066-0.037-0.127-0.066-0.184l4.02-2.969L194.727,18.239z
										 M182.409,7.87c0.11,0.074,0.245,0.115,0.385,0.111l0.563,6.885c-0.355,0.082-0.584,0.432-0.512,0.793
										c0.003,0.016,0.008,0.031,0.013,0.047l-3.771,1.674l-10.567,4.688c-0.01-0.02-0.021-0.037-0.032-0.055L182.409,7.87z
										 M159.903,14.2l-0.101,1.129l-7.744-6.605l7.379,4.551c-0.053,0.121-0.069,0.26-0.042,0.4
										C159.449,13.942,159.653,14.14,159.903,14.2 M151.141,8.624c0.026-0.006,0.051-0.012,0.075-0.02l7.5,15.223
										c-0.108,0.074-0.191,0.18-0.242,0.301l-9.895-2.434l2.405-13.059C151.037,8.638,151.089,8.634,151.141,8.624
										 M150.789,8.599l-2.404,13.047l-6.186-1.521c0.006-0.064,0.004-0.131-0.01-0.197c-0.025-0.131-0.088-0.244-0.173-0.334
										l8.656-11.047C150.709,8.567,150.748,8.585,150.789,8.599 M141.657,20.726c0.019-0.004,0.036-0.01,0.054-0.014l4.61,10.119
										c-0.108,0.068-0.192,0.168-0.246,0.281l-9.692-2.873c0.014-0.08,0.015-0.164-0.002-0.248
										c-0.028-0.143-0.098-0.264-0.192-0.354l5.023-6.975C141.345,20.729,141.499,20.757,141.657,20.726 M135.504,28.769
										c0.004,0,0.009,0.002,0.014,0.004l-1.098,13.525c-0.028,0.002-0.059,0.006-0.088,0.01
										c-0.178,0.037-0.326,0.141-0.422,0.277l-3.602-1.801L135.504,28.769z M133.821,42.763
										c-0.036,0.107-0.046,0.227-0.021,0.346c0.015,0.076,0.043,0.146,0.08,0.209l-6.95,5.596
										c-0.031-0.027-0.066-0.055-0.103-0.076l3.402-7.871L133.821,42.763z M126.644,48.757c-0.097-0.025-0.201-0.031-0.307-0.01
										c-0.016,0.004-0.032,0.008-0.047,0.012l-4.215-9.555l-1.148-2.604c0.078-0.051,0.146-0.117,0.196-0.193l8.929,4.469
										L126.644,48.757z M120.694,36.694c0.017-0.004,0.033-0.008,0.049-0.012l1.124,2.547l4.24,9.609
										c-0.012,0.008-0.022,0.016-0.032,0.021l-8.863-9.158l2.951-3.125C120.312,36.685,120.501,36.733,120.694,36.694
										 M125.932,49.001c-0.07,0.09-0.116,0.199-0.134,0.318l-5.554,0.047l-11.833,0.105c0-0.01-0.001-0.018-0.003-0.027
										c-0.021-0.109-0.068-0.205-0.133-0.287l8.8-9.311L125.932,49.001z M108.13,49.021c-0.07-0.049-0.15-0.086-0.235-0.105
										l1.309-16.691c0.062,0.004,0.125,0.004,0.189-0.01c0.078-0.016,0.149-0.045,0.216-0.084l7.327,7.572L108.13,49.021z
										 M107.218,49.146c-0.056,0.068-0.098,0.148-0.124,0.232l-9.676-1.465c-0.003-0.021-0.005-0.039-0.01-0.059
										c-0.03-0.156-0.111-0.287-0.225-0.383l3.866-5.096L107.218,49.146z M97.238,48.452c0.048-0.053,0.089-0.113,0.119-0.178
										l8.644,3.533l-2.891,3.986c-0.132-0.068-0.289-0.096-0.446-0.063c-0.063,0.012-0.121,0.033-0.176,0.061L97.238,48.452z
										 M103.473,56.333c-0.002-0.021-0.006-0.047-0.01-0.07c-0.028-0.139-0.096-0.26-0.19-0.352l2.92-4.025l12.98,5.305
										c-0.002,0.01-0.004,0.016-0.006,0.025L103.473,56.333z M120.353,56.917c-0.005-0.006-0.009-0.01-0.014-0.016l4.316-5.162
										l3.1,0.377c0.001,0.039,0.004,0.078,0.013,0.117c0.009,0.045,0.022,0.09,0.04,0.131L120.353,56.917z M155.53,54.692
										c-0.042-0.033-0.089-0.061-0.14-0.084l3.932-13.635l15.905-4.756L155.53,54.692z M176.835,35.493
										c-0.063-0.096-0.146-0.172-0.246-0.223l2.675-7.518l6.693,3.076c-0.028,0.102-0.035,0.211-0.013,0.322
										c0.004,0.021,0.009,0.041,0.015,0.061L176.835,35.493z M197.259,3.626c0.058,0.041,0.122,0.072,0.191,0.094l-0.967,6.363
										l-4.955,0.008c-0.002-0.01-0.004-0.021-0.006-0.033c-0.021-0.105-0.067-0.203-0.13-0.281L197.259,3.626z M190.196,10.042
										c-0.021,0.09-0.024,0.186-0.005,0.283c0.009,0.039,0.021,0.078,0.035,0.115l-2.085,1.541l-4.772-4.34
										c0.009-0.016,0.016-0.027,0.023-0.043L190.196,10.042z M182.139,7.522c0.027,0.08,0.068,0.154,0.121,0.215l-13.905,14.125
										c-0.153-0.129-0.36-0.189-0.57-0.145c-0.087,0.016-0.167,0.049-0.237,0.096l-6.966-7.838
										c0.117-0.141,0.177-0.326,0.153-0.518l21.408-5.926L182.139,7.522z M135.158,28.511c0.046,0.066,0.103,0.121,0.166,0.166
										l-5.194,12.016l-8.92-4.463c0.032-0.105,0.04-0.219,0.017-0.334c-0.007-0.035-0.017-0.068-0.03-0.102L135.158,28.511z
										 M119.903,35.864c-0.023,0.094-0.028,0.195-0.008,0.297c0.021,0.104,0.064,0.197,0.125,0.277l-2.947,3.119l-7.311-7.555
										c0.029-0.033,0.056-0.068,0.079-0.105L119.903,35.864z M96.45,37.647c0.078-0.018,0.15-0.045,0.216-0.086l4.247,4.666
										l-3.898,5.139c-0.066-0.029-0.139-0.049-0.213-0.055l-0.431-9.654C96.397,37.655,96.424,37.651,96.45,37.647"/>
								</g>
							</g>
						</g>
						<g opacity="0.1" clip-path="url(#SVGID_15_)">
							<g>
								<defs>
									<rect id="SVGID_20_" x="107.604" y="-10.528" width="81.942" height="53.113"/>
								</defs>
								<clipPath id="SVGID_21_">
									<use xlink:href="#SVGID_20_"  overflow="visible"/>
								</clipPath>
								<g clip-path="url(#SVGID_21_)">
									<defs>
										<rect id="SVGID_22_" x="107.604" y="-10.528" width="81.942" height="53.113"/>
									</defs>
									<clipPath id="SVGID_23_">
										<use xlink:href="#SVGID_22_"  overflow="visible"/>
									</clipPath>
									<path clip-path="url(#SVGID_23_)" fill="#5BC7D4" d="M188.231-4.034l-4.367-5.686c0.117-0.152,0.142-0.367,0.041-0.549
										c-0.133-0.242-0.438-0.332-0.681-0.199c-0.176,0.1-0.271,0.285-0.26,0.473l-8.987,2.797
										c-0.14-0.229-0.435-0.311-0.671-0.18c-0.244,0.135-0.332,0.438-0.199,0.682c0.038,0.068,0.088,0.123,0.146,0.164
										l-3.809,7.041c-0.129-0.045-0.275-0.037-0.404,0.033c-0.175,0.096-0.269,0.279-0.26,0.465L157.4,3.534
										c-0.008-0.018-0.016-0.033-0.025-0.053c-0.133-0.242-0.438-0.33-0.682-0.197c-0.104,0.057-0.179,0.145-0.222,0.246
										l-6.168-1.555c0.011-0.098-0.008-0.199-0.059-0.293c-0.133-0.242-0.439-0.332-0.683-0.197
										c-0.109,0.061-0.188,0.156-0.229,0.266l-10.163-2.133c0.005-0.09-0.014-0.184-0.062-0.271
										c-0.133-0.242-0.438-0.332-0.682-0.197c-0.243,0.133-0.332,0.439-0.198,0.682c0.05,0.094,0.127,0.162,0.215,0.207
										l-2.156,6.531c-0.108-0.02-0.225-0.004-0.328,0.053c-0.209,0.117-0.304,0.359-0.24,0.582l-14.945,6.842l0.031,0.066l0,0
										c-0.134-0.244-0.439-0.332-0.683-0.199c-0.242,0.133-0.332,0.439-0.198,0.682c0.029,0.055,0.066,0.1,0.109,0.137
										l-2.693,4.635c-0.132-0.049-0.282-0.043-0.415,0.029c-0.126,0.07-0.211,0.184-0.244,0.314l-6.252-0.689
										c-0.002-0.076-0.022-0.152-0.061-0.223c-0.134-0.244-0.439-0.334-0.683-0.199c-0.243,0.133-0.332,0.439-0.198,0.682
										c0.06,0.109,0.155,0.186,0.264,0.229l-1.612,7.424c-0.092-0.006-0.188,0.014-0.274,0.061
										c-0.242,0.135-0.332,0.439-0.198,0.682c0.122,0.225,0.389,0.316,0.619,0.229l7.772,13.777
										c-0.198,0.146-0.264,0.422-0.141,0.643c0.133,0.244,0.438,0.332,0.682,0.199s0.332-0.439,0.199-0.682
										c-0.034-0.064-0.083-0.117-0.137-0.158l3.519-6.586c0.132,0.047,0.28,0.039,0.411-0.033
										c0.221-0.121,0.313-0.385,0.229-0.613l8.273-4.541c0.147,0.195,0.419,0.258,0.641,0.137
										c0.185-0.102,0.279-0.301,0.257-0.496l7.206-1.922c0.007,0.014,0.014,0.029,0.021,0.043
										c0.133,0.242,0.438,0.332,0.682,0.199c0.218-0.121,0.312-0.379,0.231-0.607l20.23,1.096
										c0.005,0.066,0.025,0.131,0.059,0.193c0.134,0.244,0.439,0.332,0.683,0.199s0.332-0.439,0.198-0.682
										c-0.049-0.09-0.122-0.158-0.207-0.203l5.529-15.834c0.11,0.021,0.229,0.006,0.335-0.053
										c0.098-0.053,0.17-0.135,0.214-0.229l6.81,2.012c-0.014,0.105,0.003,0.213,0.057,0.313
										c0.134,0.242,0.438,0.332,0.683,0.197c0.167-0.092,0.261-0.262,0.261-0.441l6.391-0.973
										c0.01,0.033,0.023,0.064,0.039,0.094c0.134,0.244,0.438,0.334,0.682,0.199c0.244-0.133,0.333-0.439,0.199-0.682
										c-0.008-0.016-0.019-0.031-0.028-0.045l8.469-7.975c0.152,0.121,0.371,0.145,0.553,0.045
										c0.243-0.133,0.332-0.439,0.198-0.682c-0.086-0.156-0.241-0.246-0.405-0.258l-0.523-6.65
										c0.053-0.012,0.104-0.027,0.152-0.055c0.243-0.135,0.333-0.439,0.199-0.682C188.774-4.073,188.473-4.161,188.231-4.034
										 M183.397-9.528l-0.184,4.627l-9.164-2.074c-0.003-0.027-0.009-0.057-0.017-0.086l0.846-0.264l8.117-2.525
										c0.008,0.023,0.018,0.045,0.029,0.066C183.104-9.64,183.245-9.55,183.397-9.528 M136.501,7.466l0.669,0.666l-1.104,6.615
										l0.195-7.186c0.063-0.008,0.123-0.025,0.182-0.057C136.464,7.493,136.482,7.479,136.501,7.466 M120.554,14.819l2.967,4.176
										c-0.089,0.086-0.143,0.199-0.153,0.32l-3.659,0.23l0.629-4.691C120.409,14.858,120.483,14.847,120.554,14.819
										 M110.253,19.423l3.562,3.127l-5.374,4.508c-0.047-0.041-0.1-0.072-0.156-0.094l1.611-7.424
										c0.092,0.006,0.188-0.014,0.274-0.061C110.2,19.464,110.229,19.444,110.253,19.423 M174.567,11.7l8.144-8.738
										c0.021,0.016,0.043,0.029,0.067,0.041l-2.849,9.213c-0.105-0.018-0.218,0-0.318,0.055
										c-0.116,0.063-0.195,0.166-0.234,0.281L174.567,11.7z M174.037-6.825l9.171,2.076l-0.267,6.799
										c-0.064,0.006-0.128,0.025-0.188,0.059c-0.019,0.012-0.037,0.023-0.054,0.035l-8.708-8.846
										C174.013-6.743,174.027-6.784,174.037-6.825 M183.436,2.308c-0.017-0.029-0.035-0.059-0.057-0.082l4.707-5.354
										l-3.189,6.074l-1.401-0.35C183.504,2.501,183.485,2.399,183.436,2.308 M184.826,3.081l-4.666,8.885l2.759-8.92
										c0.105,0.016,0.217,0,0.317-0.055c0.104-0.059,0.181-0.148,0.223-0.25L184.826,3.081z M174.394,11.671l-1.58-0.281
										c0.003-0.086-0.017-0.174-0.062-0.254c-0.003-0.006-0.007-0.012-0.011-0.018l4.174-3.449l5.253-4.34L174.394,11.671z
										 M174.274,11.8l-1.511,1.619c-0.072-0.051-0.156-0.08-0.244-0.086l-0.1-1.467c0.045-0.01,0.09-0.025,0.133-0.049
										c0.116-0.063,0.196-0.166,0.235-0.281L174.274,11.8z M172.024,13.622l-6.811-2.014c0-0.002,0-0.004,0.001-0.006
										l6.603-0.141c0.009,0.053,0.026,0.105,0.054,0.156c0.085,0.154,0.238,0.246,0.4,0.26l0.101,1.465
										c-0.046,0.01-0.091,0.025-0.134,0.049C172.141,13.446,172.068,13.528,172.024,13.622 M149.867,2.425l2.209,7.924
										c-0.012,0.006-0.024,0.012-0.037,0.018c-0.035,0.02-0.066,0.043-0.095,0.068l-5.156-4.25l2.783-3.814
										C149.661,2.417,149.765,2.437,149.867,2.425 M108.606,27.474l9.573-0.648c0.01,0.047,0.026,0.092,0.05,0.135
										c0.065,0.121,0.173,0.201,0.293,0.24l-0.862,5.758l-9.088-5.336C108.592,27.575,108.603,27.524,108.606,27.474
										 M116.513,41.606l1.261-8.41l2.111,1.238c-0.055,0.137-0.051,0.293,0.024,0.43c0.036,0.066,0.085,0.121,0.142,0.162
										l-3.519,6.586C116.526,41.608,116.52,41.606,116.513,41.606 M120.39,34.122c-0.023-0.002-0.047-0.002-0.071,0l-1.474-6.934
										c0.022-0.008,0.046-0.018,0.066-0.029c0.11-0.061,0.189-0.158,0.229-0.268l2.745,0.74L120.39,34.122z M122.062,27.526
										l1.767-7.67c0.071,0.008,0.144-0.002,0.215-0.029l5.146,9.379c-0.07,0.055-0.123,0.123-0.156,0.199L122.062,27.526z
										 M137.34,24.71l-1.218-8.422c0.028-0.01,0.057-0.021,0.083-0.035c0.083-0.047,0.146-0.111,0.19-0.186l4.167,1.424
										l-2.833,9.441c-0.021-0.004-0.045-0.006-0.069-0.006L137.34,24.71z M164.277,11.78c0.005,0.008,0.01,0.016,0.014,0.023
										l-9.122,7.752c-0.057-0.049-0.123-0.084-0.194-0.105l1.096-8.346l8.147,0.479C164.223,11.651,164.243,11.718,164.277,11.78
										 M141.498,13.034c0.08,0.117,0.206,0.191,0.339,0.211l-1.231,4.105l-4.154-1.42c0.021-0.078,0.021-0.162-0.002-0.242
										L141.498,13.034z M119.959,34.31l-2.162-1.271l0.872-5.816c0.01,0,0.02-0.002,0.028-0.002l1.477,6.934
										c-0.021,0.008-0.044,0.018-0.065,0.029C120.049,34.216,119.999,34.259,119.959,34.31 M154.443,19.622l-6.709-3.842
										l4.262-4.559c0.102,0.068,0.225,0.1,0.348,0.084l0.052,0.186l2.237,7.984c-0.013,0.006-0.024,0.012-0.036,0.018
										C154.535,19.528,154.483,19.571,154.443,19.622 M147.603,15.704l-5.189-2.973c-0.001-0.025-0.005-0.051-0.01-0.076
										l7.139-1.281l2.264-0.406c0.01,0.029,0.021,0.055,0.035,0.082c0.014,0.023,0.03,0.047,0.047,0.07L147.603,15.704z
										 M147.498,15.815l-2.453,2.625c-0.117-0.078-0.266-0.105-0.406-0.068l-1.013-2.361l-1.289-2.998
										c0.024-0.039,0.043-0.08,0.055-0.123L147.498,15.815z M140.745,17.397l1.246-4.154c0.055-0.008,0.109-0.027,0.161-0.055
										c0.028-0.016,0.054-0.033,0.078-0.053l1.255,2.924l1.019,2.373c-0.078,0.047-0.138,0.113-0.178,0.189L140.745,17.397z
										 M152.772,10.911l3.15,0.186l-1.094,8.336c-0.018,0-0.036,0-0.054,0.002l-2.289-8.168c0.012-0.006,0.024-0.014,0.036-0.018
										C152.656,11.175,152.742,11.05,152.772,10.911 M154.353,19.808l-9.084-0.979c-0.004-0.072-0.022-0.145-0.06-0.213
										c-0.017-0.027-0.034-0.053-0.054-0.078l2.475-2.648l6.74,3.861C154.363,19.769,154.357,19.788,154.353,19.808
										 M144.328,19.101c0.017,0.031,0.037,0.061,0.06,0.086l-6.47,7.813c-0.016-0.01-0.03-0.018-0.047-0.025l2.83-9.436
										l3.574,1.223C144.254,18.872,144.27,18.991,144.328,19.101 M121.919,27.487l-2.748-0.74c0.006-0.09-0.014-0.184-0.062-0.27
										c-0.024-0.047-0.057-0.088-0.094-0.121l4.627-6.551c0.013,0.006,0.028,0.014,0.042,0.018L121.919,27.487z M136.118,15.335
										l1.18-7.076l4.209,4.191c-0.095,0.127-0.124,0.297-0.074,0.451l-5.039,2.65C136.328,15.444,136.229,15.37,136.118,15.335
										 M137.328,8.081l1.333-7.99c0.018,0,0.037,0,0.056-0.002l3.004,12.195c-0.018,0.006-0.035,0.014-0.051,0.023
										c-0.021,0.012-0.041,0.023-0.06,0.039L137.328,8.081z M142.352,12.507c-0.025-0.045-0.055-0.082-0.089-0.117l4.439-6.084
										l5.148,4.244c-0.049,0.08-0.074,0.176-0.071,0.273l-9.425,1.691C142.354,12.511,142.353,12.509,142.352,12.507
										 M152.722,10.565c-0.028-0.051-0.064-0.094-0.105-0.133l4.122-6.248c0.027,0.014,0.057,0.021,0.086,0.029l-0.884,6.734
										l-3.16-0.186C152.774,10.696,152.757,10.628,152.722,10.565 M157.259,4.108l7.057,7.129
										c-0.044,0.061-0.074,0.129-0.089,0.199l-8.137-0.479l0.882-6.734c0.071-0.004,0.141-0.023,0.204-0.059
										C157.206,4.147,157.233,4.13,157.259,4.108 M164.484,11.983l-5.528,15.834c-0.08-0.016-0.163-0.012-0.243,0.014
										l-3.594-7.48c0.212-0.145,0.284-0.43,0.159-0.658c-0.004-0.008-0.01-0.016-0.015-0.023l9.124-7.752
										C164.417,11.942,164.449,11.966,164.484,11.983 M158.489,27.972l-8.642-5.795l4.563-1.979
										c0.122,0.197,0.359,0.283,0.575,0.215l3.594,7.482C158.546,27.917,158.517,27.944,158.489,27.972 M149.702,22.077
										l-4.48-3.004c0.014-0.031,0.026-0.063,0.034-0.096l9.08,0.977c0.002,0.037,0.007,0.074,0.018,0.109L149.702,22.077z
										 M149.541,22.149l-11.483,4.975c-0.009-0.01-0.018-0.021-0.025-0.029l6.468-7.813c0.149,0.096,0.344,0.107,0.51,0.018
										c0.05-0.027,0.094-0.063,0.13-0.104L149.541,22.149z M137.267,27.114l-5.106-2.988l3.692-7.824
										c0.042,0.008,0.082,0.014,0.125,0.012l0.23,1.6l1.306,9.035c-0.033,0.01-0.065,0.023-0.097,0.041
										C137.357,27.021,137.307,27.063,137.267,27.114 M132.033,24.05l-7.699-4.506c0.031-0.078,0.043-0.166,0.031-0.254
										l11.161-3.23c0.047,0.08,0.112,0.145,0.189,0.188L132.033,24.05z M131.97,24.185l-2.332,4.941
										c-0.103-0.031-0.214-0.029-0.319,0.01l-5.147-9.379c0.034-0.025,0.063-0.053,0.089-0.084L131.97,24.185z M129.022,29.78
										l-8.272,4.539c-0.058-0.074-0.133-0.131-0.216-0.164l1.493-6.484l6.967,1.877C128.985,29.624,128.994,29.704,129.022,29.78
										 M116.188,41.61l-7.773-13.781c0.031-0.023,0.06-0.051,0.083-0.08l9.138,5.367l-1.27,8.465
										C116.308,41.579,116.247,41.589,116.188,41.61 M113.927,22.649l4.32,3.797c-0.045,0.07-0.071,0.15-0.078,0.232
										l-9.571,0.648c-0.01-0.047-0.026-0.092-0.05-0.135c-0.004-0.008-0.009-0.014-0.014-0.021L113.927,22.649z M114.041,22.554
										l2.793-2.344c0.107,0.096,0.248,0.143,0.39,0.125l1.215,5.939c-0.004,0-0.007,0.002-0.011,0.004
										c-0.029,0.018-0.057,0.035-0.083,0.059L114.041,22.554z M117.669,19.823l1.868-0.119l-0.875,6.512
										c-0.028,0.002-0.056,0.004-0.084,0.01l-1.212-5.928c0.015-0.006,0.027-0.014,0.042-0.021
										C117.579,20.183,117.673,20.005,117.669,19.823 M119.688,19.696l3.689-0.234c0.011,0.047,0.027,0.094,0.051,0.137
										c0.025,0.045,0.056,0.086,0.092,0.121l-4.648,6.539c-0.021-0.008-0.041-0.016-0.063-0.021L119.688,19.696z M135.467,15.874
										c0.002,0.016,0.005,0.031,0.007,0.045l-8.218,2.381l-2.932,0.848c-0.005-0.01-0.01-0.021-0.015-0.033
										c-0.132-0.236-0.427-0.326-0.669-0.203l-2.96-4.168c0.08-0.064,0.137-0.15,0.165-0.246L135.467,15.874z M136.643,6.821
										c-0.052-0.092-0.127-0.162-0.215-0.207l2.011-6.09l-1.239,7.428l-0.594-0.592C136.718,7.208,136.739,6.999,136.643,6.821
										 M139.005-0.038l7.582,6.248l-4.443,6.094c-0.085-0.045-0.184-0.066-0.279-0.055l-3.005-12.195
										c0.018-0.008,0.035-0.016,0.052-0.023C138.946,0.011,138.978-0.013,139.005-0.038 M139.14-0.235l10.165,2.131
										c-0.006,0.092,0.012,0.186,0.061,0.271c0.023,0.045,0.053,0.082,0.087,0.115l-2.777,3.809L139.1-0.151
										C139.115-0.179,139.129-0.208,139.14-0.235 M150.269,2.118l6.167,1.557c-0.01,0.098,0.009,0.199,0.059,0.291
										c0.032,0.057,0.072,0.104,0.117,0.143l-4.119,6.244c-0.084-0.039-0.179-0.055-0.273-0.043l-2.21-7.926
										c0.013-0.006,0.025-0.012,0.038-0.018C150.15,2.308,150.226,2.22,150.269,2.118 M166.027,8.319l-1.181,2.734
										c-0.121-0.031-0.253-0.02-0.371,0.045c-0.02,0.01-0.038,0.023-0.055,0.035l-7.064-7.137
										c0.002-0.002,0.003-0.006,0.006-0.008L166.027,8.319z M166.159,8.384l5.676,2.838c-0.01,0.029-0.017,0.061-0.021,0.092
										l-6.602,0.141c-0.009-0.053-0.026-0.105-0.054-0.156c-0.044-0.08-0.105-0.141-0.177-0.186L166.159,8.384z M166.218,8.249
										l2.927-6.783c0.065,0.018,0.136,0.023,0.204,0.014l0.59,2.021l2.164,7.42c-0.012,0.006-0.021,0.01-0.032,0.016
										c-0.07,0.039-0.127,0.092-0.169,0.152L166.218,8.249z M169.77,1.104l3.16,0.363l-0.657,9.408
										c-0.01,0-0.019,0.002-0.029,0.004l-2.176-7.463L169.49,1.44c0.011-0.006,0.023-0.012,0.034-0.018
										C169.651,1.353,169.736,1.235,169.77,1.104 M173.075,1.483l9.418,1.082c0.003,0.076,0.022,0.154,0.062,0.227
										c0.004,0.006,0.008,0.01,0.011,0.016l-6.75,5.578l-3.168,2.617c-0.065-0.057-0.144-0.098-0.228-0.117L173.075,1.483z
										 M173.085,1.337l0.543-7.779c0.056-0.008,0.11-0.025,0.161-0.057c0.044-0.021,0.081-0.051,0.113-0.084l8.691,8.83
										c-0.038,0.051-0.067,0.111-0.084,0.172L173.085,1.337z M183.355-4.716l4.617,1.045c-0.019,0.107-0.002,0.221,0.054,0.322
										c0.007,0.014,0.016,0.025,0.023,0.037l-4.782,5.439c-0.055-0.035-0.115-0.061-0.179-0.072L183.355-4.716z M188.932,3.567
										c-0.044,0.01-0.088,0.023-0.129,0.047c-0.104,0.057-0.18,0.146-0.223,0.248l-3.537-0.879l3.214-6.119
										c0.047,0.023,0.098,0.037,0.15,0.045L188.932,3.567z M180.164,12.315c-0.005-0.002-0.011-0.006-0.016-0.01l4.824-9.188
										l3.572,0.889c-0.01,0.098,0.009,0.197,0.059,0.291c0.009,0.016,0.019,0.029,0.028,0.045L180.164,12.315z M172.96,13.687
										c-0.009-0.033-0.023-0.064-0.04-0.096c-0.014-0.025-0.03-0.049-0.048-0.07l1.576-1.691l4.902,0.867
										c0,0.006-0.001,0.01-0.001,0.018L172.96,13.687z M138.416,27.13l11.271-4.883l8.722,5.848
										c-0.017,0.037-0.03,0.074-0.038,0.115L138.416,27.13z M129.953,29.407c-0.006-0.016-0.013-0.029-0.021-0.043
										c-0.041-0.072-0.096-0.133-0.161-0.176l2.326-4.93l5.095,2.982c-0.031,0.076-0.042,0.162-0.033,0.244L129.953,29.407z
										 M116.665,19.854c0.003,0.076,0.022,0.152,0.062,0.223c0.005,0.008,0.009,0.014,0.013,0.021l-2.811,2.355l-3.577-3.143
										c0.027-0.045,0.05-0.094,0.062-0.145L116.665,19.854z M120.158,14.812c0.012,0.004,0.022,0.01,0.033,0.014l-0.635,4.73
										l-1.914,0.121c-0.009-0.027-0.021-0.055-0.035-0.082c-0.036-0.063-0.083-0.117-0.137-0.16L120.158,14.812z M120.835,14.179
										l14.946-6.842c0.079,0.121,0.2,0.197,0.334,0.221l-0.211,7.756c-0.063,0.008-0.124,0.027-0.182,0.059
										c-0.139,0.076-0.228,0.209-0.253,0.354l-14.603-1.375c-0.001-0.061-0.012-0.121-0.035-0.18L120.835,14.179z M168.812,1.151
										c0.008,0.025,0.018,0.051,0.031,0.072c0.041,0.076,0.1,0.139,0.168,0.182l-2.925,6.777l-8.666-4.33
										c0.016-0.057,0.021-0.115,0.016-0.174L168.812,1.151z M173.386-6.464c0.031,0.012,0.063,0.02,0.095,0.023l-0.542,7.76
										l-3.155-0.361c-0.003-0.074-0.022-0.148-0.061-0.217c-0.037-0.066-0.088-0.121-0.146-0.166L173.386-6.464z M183.757-9.616
										l4.356,5.67c-0.039,0.041-0.072,0.086-0.096,0.133l-4.656-1.055l0.184-4.662c0.056-0.01,0.111-0.027,0.162-0.055
										C183.725-9.597,183.74-9.606,183.757-9.616"/>
								</g>
							</g>
						</g>
						<path clip-path="url(#SVGID_15_)" fill="#5BC7D4" d="M123.741,56.862l7.59,4.445c-0.063,0.229,0.009,0.484,0.205,0.643
							c0.263,0.215,0.651,0.176,0.866-0.088c0.155-0.191,0.177-0.447,0.077-0.656l8.924-7.328c0.264,0.195,0.636,0.15,0.845-0.107
							c0.215-0.262,0.175-0.65-0.089-0.865c-0.072-0.061-0.157-0.1-0.243-0.121l1.079-9.76c0.167-0.008,0.33-0.084,0.444-0.225
							c0.152-0.189,0.176-0.441,0.079-0.65l11.768-8.127c0.017,0.018,0.034,0.033,0.054,0.049c0.263,0.215,0.651,0.174,0.866-0.09
							c0.092-0.113,0.138-0.248,0.138-0.383l7.728-1.08c0.034,0.115,0.103,0.223,0.203,0.305c0.263,0.215,0.651,0.174,0.866-0.09
							c0.098-0.119,0.142-0.266,0.138-0.408l12.535-2.27c0.037,0.105,0.102,0.203,0.195,0.281c0.264,0.213,0.652,0.174,0.866-0.09
							c0.215-0.266,0.175-0.652-0.088-0.867c-0.102-0.082-0.22-0.125-0.34-0.137l-0.565-8.418c0.131-0.029,0.255-0.1,0.347-0.213
							c0.186-0.229,0.181-0.547,0.006-0.77L192.06,5.165l-0.066-0.064l0.001,0.002c0.266,0.215,0.653,0.174,0.867-0.09
							c0.215-0.264,0.175-0.652-0.089-0.867c-0.058-0.045-0.121-0.08-0.188-0.104l0.922-6.51c0.172-0.006,0.341-0.082,0.458-0.229
							c0.11-0.135,0.152-0.305,0.133-0.465l7.422-2.105c0.038,0.086,0.096,0.162,0.173,0.225c0.264,0.217,0.652,0.176,0.866-0.088
							c0.216-0.264,0.175-0.652-0.089-0.867c-0.118-0.098-0.262-0.141-0.404-0.137l-1.597-9.184
							c0.107-0.035,0.207-0.102,0.284-0.195c0.215-0.266,0.176-0.652-0.09-0.867c-0.241-0.195-0.587-0.18-0.81,0.027l-15.194-12.068
							c0.157-0.26,0.104-0.602-0.139-0.797c-0.263-0.215-0.651-0.176-0.865,0.09c-0.216,0.262-0.176,0.65,0.088,0.865
							c0.069,0.057,0.147,0.096,0.229,0.117l-0.959,9.111c-0.17,0.008-0.336,0.084-0.451,0.227c-0.195,0.238-0.18,0.58,0.023,0.803
							l-7.306,8.98c-0.259-0.154-0.597-0.1-0.793,0.141c-0.161,0.199-0.178,0.469-0.063,0.684l-7.303,5.512
							c-0.013-0.014-0.028-0.027-0.043-0.039c-0.264-0.215-0.651-0.174-0.866,0.088c-0.193,0.238-0.179,0.576,0.016,0.797
							l-23.497,8.098c-0.037-0.072-0.09-0.139-0.157-0.193c-0.265-0.215-0.652-0.176-0.867,0.09
							c-0.214,0.264-0.175,0.65,0.089,0.865c0.098,0.08,0.213,0.125,0.33,0.135l1.027,20.549c-0.135,0.027-0.263,0.102-0.356,0.215
							c-0.087,0.107-0.131,0.232-0.138,0.359l-8.67,0.857c-0.031-0.123-0.101-0.24-0.208-0.328c-0.264-0.213-0.651-0.174-0.866,0.09
							c-0.146,0.182-0.175,0.42-0.092,0.623l-6.814,4.057c-0.025-0.031-0.056-0.063-0.089-0.088
							c-0.264-0.217-0.651-0.176-0.867,0.088c-0.214,0.264-0.174,0.652,0.089,0.867c0.018,0.016,0.035,0.025,0.054,0.037
							l-5.941,12.975c-0.23-0.066-0.489,0.006-0.649,0.203c-0.215,0.264-0.176,0.652,0.089,0.867c0.168,0.137,0.388,0.17,0.58,0.107
							l3.666,7.316c-0.055,0.035-0.105,0.078-0.148,0.131c-0.216,0.264-0.176,0.652,0.088,0.867
							C123.142,57.157,123.525,57.12,123.741,56.862 M131.772,60.876l-1.931-5.346l11.376-1.875
							c0.016,0.031,0.035,0.063,0.058,0.092l-0.839,0.689l-8.061,6.619c-0.019-0.021-0.04-0.043-0.063-0.061
							C132.156,60.866,131.955,60.831,131.772,60.876 M177.224,19.905l-1.067-0.449l-1.801-8.027l3.097,8.258
							c-0.066,0.035-0.129,0.086-0.18,0.148C177.254,19.856,177.238,19.882,177.224,19.905 M191.954,4.183l-5.301-3.375
							c0.062-0.139,0.069-0.293,0.025-0.436l4.055-1.953l1.45,5.623C192.099,4.071,192.021,4.118,191.954,4.183 M201.535-5.806
							l-5.492-1.912l4.027-7.604c0.071,0.025,0.146,0.037,0.221,0.035l1.597,9.182c-0.108,0.037-0.207,0.102-0.284,0.195
							C201.577-5.876,201.554-5.841,201.535-5.806 M132.004,32.671l-5.219,13.691c-0.031-0.008-0.063-0.012-0.095-0.014
							l-1.018-11.787c0.128-0.029,0.247-0.102,0.337-0.211c0.102-0.125,0.146-0.277,0.136-0.428L132.004,32.671z M141.162,53.479
							l-11.382,1.877l-2.836-7.852c0.069-0.037,0.133-0.09,0.187-0.154c0.017-0.02,0.031-0.041,0.045-0.064l13.981,6.033
							C141.151,53.374,141.154,53.429,141.162,53.479 M126.264,47.44c0.032,0.027,0.067,0.049,0.103,0.068l-2.877,8.258l0.819-8.377
							l1.753-0.252C126.096,47.253,126.163,47.36,126.264,47.44 M124.326,47.204l1.199-12.254l0.984,11.414
							c-0.127,0.031-0.246,0.1-0.336,0.209c-0.091,0.113-0.136,0.25-0.138,0.387L124.326,47.204z M132.216,32.624l1.926-0.412
							c0.036,0.1,0.1,0.191,0.188,0.262c0.007,0.006,0.014,0.01,0.02,0.016l-3.15,5.848l-3.966,7.359L132.216,32.624z
							 M132.292,32.423l0.969-2.539c0.105,0.023,0.215,0.018,0.317-0.014l0.792,1.619c-0.049,0.031-0.093,0.072-0.131,0.119
							c-0.102,0.125-0.146,0.277-0.136,0.428L132.292,32.423z M134.007,29.312l8.67-0.857c0.001,0.004,0.002,0.006,0.003,0.01
							l-7.438,3.209c-0.035-0.059-0.08-0.111-0.134-0.154c-0.167-0.135-0.384-0.17-0.576-0.109l-0.79-1.619
							c0.048-0.033,0.092-0.072,0.13-0.119C133.957,29.565,134.001,29.438,134.007,29.312 M164.361,31.808l-6.171-7.988
							c0.013-0.012,0.023-0.023,0.034-0.037c0.031-0.037,0.056-0.078,0.076-0.121l7.822,2.449l-1.4,5.621
							C164.598,31.72,164.472,31.745,164.361,31.808 M199.688-15.716l-10.579,5.156c-0.033-0.049-0.072-0.092-0.119-0.129
							c-0.13-0.105-0.29-0.15-0.444-0.137l-1.679-6.943l12.793,1.869C199.66-15.839,199.669-15.776,199.688-15.716 M184.178-28.126
							l2.449,10.139l-2.971-0.434c0-0.18-0.078-0.355-0.228-0.477c-0.071-0.059-0.151-0.096-0.234-0.117l0.958-9.109
							C184.16-28.126,184.168-28.126,184.178-28.126 M183.227-17.831c0.027-0.01,0.054-0.021,0.08-0.033l4.877,7.199
							c-0.021,0.02-0.043,0.041-0.062,0.064c-0.098,0.121-0.142,0.266-0.138,0.41l-3.461,0.426L183.227-17.831z M184.372-9.563
							l1.533,9.533c-0.084,0.025-0.161,0.07-0.229,0.131l-10.18-8.281c0.055-0.094,0.083-0.197,0.085-0.299L184.372-9.563z
							 M168.309,0.694l5.272,9.008c-0.028,0.023-0.055,0.051-0.079,0.08c-0.072,0.088-0.114,0.191-0.13,0.297l-5.394,0.307
							l-1.141-12.037c0.027-0.008,0.056-0.016,0.083-0.025L168.309,0.694z M143.663,27.827c-0.009-0.008-0.019-0.014-0.027-0.021
							l6.79-13.023c0.087,0.031,0.178,0.041,0.267,0.031l2.61,9.992l-9.48,3.219C143.784,27.948,143.731,27.882,143.663,27.827
							 M168.975,15.884c-0.146-0.096-0.321-0.121-0.482-0.082l-0.496-5.236l5.376-0.305c0.014,0.098,0.052,0.193,0.113,0.275
							L168.975,15.884z M183.63-18.241l3.043,0.445l1.695,7.014c-0.01,0.004-0.021,0.01-0.031,0.014l-4.88-7.197
							c0.021-0.02,0.043-0.041,0.061-0.064C183.571-18.095,183.607-18.167,183.63-18.241 M151.218,14.374l9.401,1.268l-2.739,7.15
							c-0.147-0.033-0.302-0.01-0.435,0.064l-0.145-0.186l-6.229-8.043c0.013-0.012,0.023-0.023,0.033-0.039
							C151.158,14.522,151.196,14.45,151.218,14.374 M160.804,15.667l7.271,0.982c0.014,0.029,0.027,0.057,0.044,0.084l-7.52,4.75
							l-2.386,1.508c-0.022-0.027-0.049-0.053-0.077-0.076c-0.027-0.021-0.057-0.041-0.087-0.057L160.804,15.667z M160.87,15.493
							l1.576-4.115c0.17,0.033,0.351-0.004,0.491-0.111l2.243,2.215l2.849,2.816c-0.008,0.053-0.011,0.109-0.006,0.162
							L160.87,15.493z M167.815,10.575l0.502,5.299c-0.06,0.035-0.112,0.08-0.158,0.135c-0.024,0.031-0.046,0.064-0.063,0.098
							l-2.777-2.744l-2.253-2.227c0.065-0.09,0.104-0.193,0.114-0.297L167.815,10.575z M157.142,23.503l-3.666,1.244l-2.608-9.98
							c0.021-0.008,0.041-0.018,0.061-0.029l6.375,8.23c-0.012,0.012-0.023,0.023-0.034,0.037
							C157.151,23.149,157.11,23.333,157.142,23.503 M151.237,14.122l10.774-3.084c0.037,0.08,0.094,0.154,0.167,0.213
							c0.03,0.025,0.063,0.047,0.098,0.064l-1.591,4.152l-9.442-1.275C151.242,14.169,151.24,14.146,151.237,14.122 M162.957,10.296
							c-0.034-0.027-0.071-0.051-0.108-0.07l3.745-11.867c0.021,0.004,0.043,0.006,0.064,0.008l1.139,12.029l-4.624,0.262
							C163.146,10.519,163.074,10.392,162.957,10.296 M184.552-9.587l3.466-0.426c0.035,0.105,0.101,0.203,0.194,0.279
							c0.05,0.041,0.105,0.072,0.161,0.096l-2.232,9.58c-0.018-0.002-0.038-0.002-0.057-0.002L184.552-9.587z M174.025,10.784
							l1.927,8.586l-6.719-2.818c0.049-0.189,0.005-0.395-0.123-0.547l4.504-5.34C173.737,10.757,173.883,10.796,174.025,10.784
							 M176.001,19.589l2.174,9.695c-0.021,0.008-0.041,0.016-0.062,0.027l-9.046-12.473c0.018-0.016,0.032-0.033,0.049-0.051
							c0.017-0.021,0.033-0.047,0.048-0.07L176.001,19.589z M168.248,16.878c0.048,0.037,0.1,0.068,0.153,0.09l-2.234,8.967
							l-7.812-2.445c0.018-0.117,0.002-0.236-0.045-0.344l9.93-6.275C168.243,16.872,168.246,16.874,168.248,16.878 M157.358,23.87
							c0.056,0.047,0.116,0.08,0.181,0.104l-1.8,9.004c-0.038,0-0.074,0.002-0.11,0.01l-2.107-8.064l3.677-1.248
							C157.236,23.749,157.29,23.815,157.358,23.87 M155.184,33.306l-11.313-4.844c0.023-0.088,0.026-0.18,0.01-0.268l9.47-3.213
							l2.106,8.061c-0.077,0.039-0.148,0.092-0.206,0.162C155.225,33.235,155.202,33.271,155.184,33.306 M143.334,27.692
							l-1.028-20.549c0.097-0.02,0.19-0.063,0.27-0.127l7.539,6.842c-0.175,0.264-0.125,0.619,0.124,0.82
							c0.008,0.008,0.018,0.014,0.026,0.02l-6.789,13.025C143.429,27.708,143.382,27.696,143.334,27.692 M142.764,6.751
							l12.499,2.598l-4.274,4.354c-0.229-0.166-0.538-0.152-0.752,0.021l-7.539-6.842C142.725,6.841,142.746,6.796,142.764,6.751
							 M155.473,9.394l6.48,1.346c-0.003,0.041-0.001,0.084,0.007,0.125l-10.773,3.082c-0.018-0.041-0.042-0.08-0.069-0.115
							L155.473,9.394z M155.624,9.239L166.378-1.72c0.015,0.01,0.028,0.016,0.044,0.023l-3.745,11.863
							c-0.213-0.037-0.44,0.037-0.588,0.219c-0.043,0.055-0.076,0.113-0.1,0.176L155.624,9.239z M167.281-2.073l7.184,1.041
							l-0.584,10.596c-0.05,0.008-0.1,0.023-0.146,0.043l-1.001-1.711l-5.657-9.666c0.033-0.025,0.064-0.057,0.093-0.09
							C167.221-1.925,167.259-1.997,167.281-2.073 M174.645-1.009l10.83,1.566c0,0.105,0.028,0.211,0.083,0.305l-11.193,8.826
							c-0.091-0.072-0.195-0.113-0.302-0.127L174.645-1.009z M174.654-1.19l0.369-6.691c0.13-0.014,0.257-0.066,0.357-0.158
							l10.182,8.283c-0.027,0.043-0.048,0.088-0.062,0.135L174.654-1.19z M175.421-8.911l7.306-8.979
							c0.1,0.059,0.21,0.088,0.321,0.086l1.296,8.063l-8.785,1.08C175.535-8.751,175.487-8.837,175.421-8.911 M184.543-28.282
							l15.199,12.072c-0.024,0.043-0.044,0.086-0.058,0.131l-12.863-1.879l-2.467-10.209
							C184.422-28.192,184.486-28.231,184.543-28.282 M195.87-7.778l-6.665-2.318c0.019-0.1,0.013-0.203-0.018-0.301l10.58-5.156
							c0.032,0.047,0.071,0.092,0.118,0.131c0.008,0.006,0.017,0.012,0.024,0.016L195.87-7.778z M195.784-7.614l-2.093,3.951
							c-0.164-0.059-0.347-0.045-0.5,0.039l-4.122-6.189c0.003-0.002,0.006-0.006,0.008-0.01c0.027-0.033,0.05-0.068,0.068-0.102
							L195.784-7.614z M192.922-2.837l-2.069,0.996l-2.014-7.805c0.032-0.012,0.063-0.029,0.093-0.047l4.115,6.176
							c-0.013,0.016-0.026,0.029-0.038,0.045C192.858-3.288,192.833-3.042,192.922-2.837 M190.687-1.759l-4.086,1.967
							c-0.033-0.047-0.073-0.092-0.12-0.131c-0.051-0.039-0.104-0.072-0.161-0.094l2.264-9.58c0.027,0,0.055,0,0.081-0.002
							L190.687-1.759z M174.518,9.87c-0.009-0.016-0.02-0.033-0.03-0.049l8.242-6.498l2.939-2.32
							c0.011,0.012,0.021,0.021,0.033,0.031c0.259,0.211,0.637,0.176,0.854-0.074l5.288,3.367c-0.062,0.111-0.085,0.236-0.073,0.355
							L174.518,9.87z M177.361,20.702c0.101,0.082,0.219,0.127,0.34,0.135l0.527,7.854l-2.022-9.018l0.948,0.398
							C177.097,20.298,177.17,20.544,177.361,20.702 M177.844,29.589l-11.504-3.602l2.238-8.975c0.117,0.01,0.237-0.012,0.344-0.066
							l9.044,12.471c-0.016,0.016-0.031,0.033-0.047,0.051C177.889,29.507,177.864,29.548,177.844,29.589 M177.781,29.876
							l-12.535,2.271c-0.037-0.107-0.102-0.205-0.194-0.279c-0.049-0.041-0.1-0.07-0.153-0.094l1.398-5.609l11.492,3.598
							C177.783,29.8,177.78,29.839,177.781,29.876 M164.047,32.339l-7.729,1.08c-0.033-0.115-0.102-0.223-0.201-0.305
							c-0.062-0.049-0.129-0.084-0.199-0.107l1.799-8.998c0.114,0.004,0.229-0.021,0.33-0.078l6.172,7.988
							c-0.012,0.012-0.023,0.023-0.034,0.037C164.094,32.069,164.049,32.204,164.047,32.339 M143.273,32.571l0.078-3.656
							c0.152-0.018,0.297-0.092,0.4-0.223c0.018-0.02,0.032-0.043,0.047-0.064l11.325,4.85c-0.001,0.004-0.002,0.008-0.002,0.014
							L143.273,32.571z M143.092,32.556l-7.76-0.604c-0.002-0.037-0.009-0.076-0.02-0.113l7.438-3.209
							c0.034,0.057,0.08,0.109,0.134,0.152c0.087,0.068,0.184,0.113,0.285,0.131L143.092,32.556z M143.089,32.737l-0.195,9.061
							c-0.083,0.01-0.163,0.035-0.237,0.078l-1.604-2.025l-5.885-7.434c0.011-0.01,0.02-0.021,0.029-0.031
							c0.062-0.076,0.102-0.162,0.122-0.252L143.089,32.737z M142.352,42.497l-3.759,1.047l-3.6-10.996
							c0.011-0.006,0.021-0.012,0.031-0.018l5.92,7.477l1.569,1.98c-0.011,0.012-0.021,0.021-0.031,0.035
							C142.369,42.161,142.327,42.333,142.352,42.497 M138.418,43.593l-11.203,3.119c-0.038-0.086-0.096-0.164-0.173-0.227
							c-0.007-0.006-0.015-0.012-0.021-0.016l5.096-9.455l2.394-4.439c0.101,0.037,0.208,0.045,0.311,0.029L138.418,43.593z
							 M138.475,43.765l2.976,9.092c-0.059,0.035-0.112,0.08-0.158,0.137c-0.037,0.047-0.066,0.098-0.089,0.148l-13.955-6.02
							c0.02-0.078,0.024-0.158,0.016-0.236L138.475,43.765z M129.598,55.388l-5.729,0.943c-0.029-0.129-0.099-0.252-0.212-0.342
							c-0.013-0.012-0.027-0.021-0.042-0.031l2.924-8.389c0.077,0.014,0.158,0.014,0.236-0.002L129.598,55.388z M119.436,48.548
							c0.046-0.031,0.088-0.07,0.124-0.115c0.093-0.113,0.138-0.25,0.138-0.385l4.428-0.633l-0.827,8.438
							c-0.064-0.004-0.13,0.004-0.191,0.021L119.436,48.548z M125.359,34.556c0.008,0,0.015,0.002,0.022,0.004l-1.239,12.67
							l-4.47,0.639c-0.034-0.115-0.103-0.221-0.202-0.301c-0.018-0.014-0.034-0.029-0.053-0.039L125.359,34.556z M132.916,29.673
							c0.024,0.031,0.055,0.061,0.088,0.088c0.028,0.021,0.058,0.041,0.087,0.059l-1.01,2.648l-5.973,1.277
							c-0.003-0.004-0.005-0.01-0.008-0.016L132.916,29.673z M165.968-1.562L155.413,9.194L142.8,6.573
							c0.002-0.049,0-0.098-0.01-0.146L165.968-1.562z M174.535-8.056c0.014,0.014,0.026,0.025,0.042,0.039
							c0.08,0.064,0.171,0.105,0.265,0.125l-0.367,6.676l-7.168-1.037c-0.001-0.1-0.025-0.201-0.075-0.291L174.535-8.056z
							 M194.048-3.337c-0.038-0.084-0.096-0.162-0.173-0.225c-0.008-0.006-0.016-0.012-0.023-0.018l2.105-3.975l5.519,1.92
							c-0.012,0.064-0.014,0.129-0.005,0.193L194.048-3.337z M192.406,4.009c-0.014,0-0.03,0-0.044,0l-1.463-5.67l2.119-1.021
							c0.024,0.027,0.05,0.053,0.08,0.076c0.068,0.059,0.147,0.096,0.229,0.119L192.406,4.009z M191.93,5.04l-13.828,14.68
							c-0.145-0.102-0.318-0.131-0.48-0.098l-3.342-8.912c0.066-0.037,0.128-0.088,0.179-0.15c0.124-0.15,0.163-0.344,0.124-0.52
							l17.231-5.18c0.028,0.068,0.069,0.131,0.123,0.188L191.93,5.04z M143.418,41.999c-0.021-0.023-0.043-0.045-0.068-0.066
							c-0.082-0.066-0.178-0.109-0.276-0.127l0.195-9.055l11.849,0.92c0.01,0.07,0.029,0.141,0.063,0.205L143.418,41.999z
							 M141.735,52.769c-0.039,0.002-0.079,0.008-0.118,0.018l-2.967-9.07l3.752-1.045c0.039,0.082,0.095,0.156,0.169,0.219
							c0.074,0.059,0.157,0.098,0.243,0.119L141.735,52.769z M131.405,61.142l-7.57-4.436c0.026-0.063,0.042-0.127,0.048-0.193
							l5.778-0.953l1.944,5.387c-0.059,0.035-0.112,0.082-0.159,0.137C131.432,61.103,131.417,61.122,131.405,61.142"/>
					</g>
				</g>
			</g>
		</g>
	</g>
	<g>
		<g>
			<path fill="#FFFFFF" d="M83.875,7.037h3.414v10.878h0.067l4.987-10.878h3.414l-4.652,9.539l5.521,14.292h-3.613L89.13,20.292
				l-1.841,3.447v7.129h-3.414V7.037z"/>
			<path fill="#FFFFFF" d="M97.531,12.66c0-0.959,0.168-1.808,0.502-2.544s0.775-1.344,1.322-1.824
				c0.547-0.479,1.16-0.842,1.84-1.087c0.682-0.246,1.367-0.368,2.059-0.368s1.379,0.122,2.059,0.368
				c0.682,0.245,1.295,0.607,1.842,1.087c0.547,0.48,0.986,1.088,1.322,1.824c0.334,0.736,0.502,1.585,0.502,2.544v12.585
				c0,0.982-0.168,1.836-0.502,2.561c-0.336,0.726-0.775,1.328-1.322,1.808s-1.16,0.842-1.842,1.088
				c-0.68,0.245-1.367,0.368-2.059,0.368s-1.377-0.123-2.059-0.368c-0.68-0.246-1.293-0.608-1.84-1.088s-0.988-1.082-1.322-1.808
				c-0.334-0.725-0.502-1.578-0.502-2.561V12.66z M100.945,25.245c0,0.826,0.229,1.434,0.686,1.824s0.998,0.586,1.623,0.586
				s1.166-0.195,1.625-0.586c0.457-0.391,0.686-0.998,0.686-1.824V12.66c0-0.825-0.229-1.434-0.686-1.824
				c-0.459-0.39-1-0.585-1.625-0.585s-1.166,0.195-1.623,0.585c-0.457,0.391-0.686,0.999-0.686,1.824V25.245z"/>
			<path fill="#FFFFFF" d="M111.99,7.037h4.986c1.094,0,2.025,0.168,2.795,0.502c0.77,0.335,1.4,0.781,1.891,1.339
				c0.492,0.559,0.842,1.2,1.055,1.925c0.213,0.726,0.318,1.479,0.318,2.259v0.871c0,0.647-0.051,1.193-0.15,1.64
				c-0.102,0.446-0.252,0.837-0.453,1.172c-0.199,0.334-0.445,0.63-0.736,0.887c-0.289,0.257-0.623,0.497-1.004,0.72
				c0.805,0.379,1.395,0.942,1.775,1.69c0.379,0.747,0.568,1.746,0.568,2.995v1.339c0,2.098-0.508,3.704-1.523,4.819
				c-1.016,1.116-2.639,1.674-4.869,1.674h-4.652V7.037z M115.404,16.811h1.539c1.139,0,1.902-0.284,2.293-0.854
				s0.586-1.399,0.586-2.493c0-1.071-0.219-1.875-0.652-2.41c-0.436-0.535-1.223-0.803-2.359-0.803h-1.406V16.811z M115.404,27.454
				h1.473c0.691,0,1.232-0.101,1.623-0.301c0.391-0.201,0.686-0.479,0.887-0.837c0.201-0.356,0.324-0.781,0.369-1.272
				c0.043-0.49,0.066-1.025,0.066-1.606c0-0.603-0.033-1.126-0.102-1.573c-0.066-0.445-0.205-0.819-0.418-1.121
				c-0.213-0.301-0.508-0.529-0.887-0.686s-0.881-0.234-1.506-0.234h-1.506V27.454z"/>
			<path fill="#FFFFFF" d="M129.662,7.037h2.846l5.322,23.831h-3.414l-1.004-5.121h-4.652l-1.006,5.121h-3.412L129.662,7.037z
				 M131.102,13.898h-0.066l-1.674,8.636h3.414L131.102,13.898z"/>
			<path fill="#FFFFFF" d="M150.547,13.898h-3.414v-0.77c0-0.781-0.184-1.456-0.551-2.025c-0.369-0.568-0.988-0.853-1.857-0.853
				c-0.469,0-0.854,0.089-1.156,0.268c-0.301,0.179-0.535,0.407-0.701,0.686c-0.168,0.279-0.285,0.603-0.352,0.971
				c-0.068,0.368-0.102,0.753-0.102,1.155c0,0.468,0.018,0.864,0.051,1.188c0.033,0.324,0.117,0.603,0.25,0.837
				c0.135,0.234,0.33,0.441,0.586,0.619c0.258,0.179,0.607,0.357,1.055,0.536l2.611,1.037c0.758,0.29,1.371,0.631,1.84,1.021
				c0.469,0.392,0.832,0.849,1.088,1.373s0.43,1.127,0.52,1.807c0.088,0.682,0.133,1.456,0.133,2.326c0,1.005-0.1,1.937-0.301,2.795
				c-0.201,0.859-0.529,1.596-0.986,2.209c-0.459,0.614-1.066,1.1-1.824,1.456c-0.76,0.356-1.686,0.536-2.779,0.536
				c-0.824,0-1.596-0.146-2.309-0.436c-0.715-0.29-1.328-0.687-1.842-1.188s-0.92-1.099-1.221-1.79s-0.451-1.439-0.451-2.243v-1.271
				h3.414v1.071c0,0.625,0.184,1.188,0.551,1.69c0.369,0.502,0.988,0.753,1.857,0.753c0.58,0,1.033-0.084,1.355-0.251
				c0.324-0.168,0.57-0.402,0.736-0.703c0.168-0.302,0.273-0.675,0.318-1.121s0.066-0.938,0.066-1.473
				c0-0.625-0.021-1.139-0.066-1.54s-0.139-0.725-0.283-0.971c-0.146-0.245-0.348-0.446-0.604-0.603
				c-0.256-0.155-0.598-0.323-1.021-0.502l-2.443-1.004c-1.473-0.603-2.459-1.4-2.961-2.394c-0.502-0.992-0.754-2.236-0.754-3.731
				c0-0.893,0.123-1.74,0.369-2.544c0.244-0.803,0.607-1.494,1.088-2.075c0.479-0.58,1.088-1.043,1.824-1.389
				s1.594-0.519,2.576-0.519c0.848,0,1.623,0.156,2.326,0.468c0.703,0.313,1.307,0.726,1.809,1.239
				c0.502,0.513,0.887,1.087,1.154,1.724c0.268,0.636,0.4,1.288,0.4,1.958V13.898z"/>
			<path fill="#FFFFFF" d="M153.191,7.037h3.414v23.831h-3.414V7.037z"/>
			<path fill="#FFFFFF" d="M170.963,13.898h-3.414v-0.77c0-0.781-0.184-1.456-0.551-2.025c-0.369-0.568-0.988-0.853-1.857-0.853
				c-0.469,0-0.854,0.089-1.156,0.268c-0.301,0.179-0.535,0.407-0.701,0.686c-0.168,0.279-0.285,0.603-0.352,0.971
				c-0.068,0.368-0.102,0.753-0.102,1.155c0,0.468,0.018,0.864,0.051,1.188c0.033,0.324,0.117,0.603,0.25,0.837
				c0.135,0.234,0.33,0.441,0.586,0.619c0.258,0.179,0.607,0.357,1.055,0.536l2.611,1.037c0.758,0.29,1.371,0.631,1.84,1.021
				c0.469,0.392,0.832,0.849,1.088,1.373s0.43,1.127,0.52,1.807c0.088,0.682,0.133,1.456,0.133,2.326c0,1.005-0.1,1.937-0.301,2.795
				c-0.201,0.859-0.529,1.596-0.986,2.209c-0.459,0.614-1.066,1.1-1.824,1.456c-0.76,0.356-1.686,0.536-2.779,0.536
				c-0.824,0-1.596-0.146-2.309-0.436c-0.715-0.29-1.328-0.687-1.842-1.188s-0.92-1.099-1.221-1.79s-0.451-1.439-0.451-2.243v-1.271
				h3.414v1.071c0,0.625,0.184,1.188,0.551,1.69c0.369,0.502,0.988,0.753,1.857,0.753c0.58,0,1.033-0.084,1.355-0.251
				c0.324-0.168,0.57-0.402,0.736-0.703c0.168-0.302,0.273-0.675,0.318-1.121s0.066-0.938,0.066-1.473
				c0-0.625-0.021-1.139-0.066-1.54s-0.139-0.725-0.283-0.971c-0.146-0.245-0.348-0.446-0.604-0.603
				c-0.256-0.155-0.598-0.323-1.021-0.502l-2.443-1.004c-1.473-0.603-2.459-1.4-2.961-2.394c-0.502-0.992-0.754-2.236-0.754-3.731
				c0-0.893,0.123-1.74,0.369-2.544c0.244-0.803,0.607-1.494,1.088-2.075c0.479-0.58,1.088-1.043,1.824-1.389
				s1.594-0.519,2.576-0.519c0.848,0,1.623,0.156,2.326,0.468c0.703,0.313,1.307,0.726,1.809,1.239
				c0.502,0.513,0.887,1.087,1.154,1.724c0.268,0.636,0.4,1.288,0.4,1.958V13.898z"/>
		</g>
		<g>
			<path fill="#FFFFFF" d="M153.191,2.173h3.414v3.414h-3.414V2.173z"/>
		</g>
	</g>
</g>
<g>
	<path fill="#1EADE4" d="M80.459,46.936l-1.429-3.652l-0.704,1.395v2.258h-0.976v-8.077h0.976v4.096l1.951-4.096h0.998l-1.634,3.336
		l1.873,4.741H80.459z"/>
	<path fill="#1EADE4" d="M86.787,46.448c-0.306,0.34-0.748,0.578-1.395,0.578c-0.647,0-1.078-0.238-1.384-0.578
		c-0.556-0.612-0.59-1.532-0.59-3.551c0-2.02,0.034-2.938,0.59-3.551c0.306-0.341,0.737-0.578,1.384-0.578
		c0.646,0,1.089,0.237,1.395,0.578c0.556,0.612,0.579,1.531,0.579,3.551C87.366,44.916,87.343,45.836,86.787,46.448z M86.05,39.947
		c-0.136-0.181-0.34-0.307-0.658-0.307c-0.318,0-0.522,0.126-0.658,0.307c-0.284,0.387-0.34,1.032-0.34,2.95
		c0,1.917,0.057,2.564,0.34,2.949c0.136,0.182,0.34,0.307,0.658,0.307c0.317,0,0.521-0.125,0.658-0.307
		c0.284-0.385,0.34-1.032,0.34-2.949C86.39,40.979,86.333,40.334,86.05,39.947z"/>
	<path fill="#1EADE4" d="M89.905,46.936v-8.077h0.976v7.203h2.143v0.874H89.905z"/>
	<path fill="#1EADE4" d="M98.275,46.936l-0.385-1.906h-1.873l-0.385,1.906h-1.021l1.883-8.077h0.941l1.871,8.077H98.275z
		 M96.959,40.436l-0.76,3.721h1.508L96.959,40.436z"/>
	<path fill="#1EADE4" d="M103.129,43.669v3.267h-0.977v-3.267l-1.486-4.811h1.066l0.908,3.449l0.906-3.449h1.078L103.129,43.669z"/>
	<path fill="#1EADE4" d="M113.289,46.448c-0.328,0.34-0.781,0.487-1.496,0.487h-1.736v-8.077h1.746c0.705,0,1.146,0.147,1.477,0.488
		c0.352,0.374,0.465,0.84,0.465,1.656c0,0.556-0.057,1.031-0.443,1.418c-0.135,0.137-0.295,0.25-0.465,0.307
		c0.193,0.057,0.363,0.158,0.5,0.306c0.42,0.442,0.465,1.033,0.465,1.577C113.801,45.563,113.652,46.073,113.289,46.448z
		 M111.723,39.732h-0.691v2.586h0.691c0.705,0,1.045-0.374,1.045-1.293C112.768,40.038,112.428,39.732,111.723,39.732z
		 M111.736,43.158h-0.705v2.903h0.705c0.736,0,1.088-0.339,1.088-1.451C112.824,43.577,112.461,43.158,111.736,43.158z"/>
	<path fill="#1EADE4" d="M119.369,46.936l-0.385-1.906h-1.873l-0.387,1.906h-1.02l1.883-8.077h0.939l1.873,8.077H119.369z
		 M118.053,40.436l-0.76,3.721h1.508L118.053,40.436z"/>
	<path fill="#1EADE4" d="M124.244,47.026c-0.646,0-1.078-0.238-1.385-0.578c-0.557-0.612-0.59-1.532-0.59-3.551
		c0-2.02,0.033-2.938,0.59-3.551c0.307-0.341,0.738-0.578,1.385-0.578c0.566,0,0.998,0.192,1.305,0.498
		c0.373,0.387,0.555,0.941,0.566,1.6h-0.975c0-0.545-0.146-1.226-0.896-1.226c-0.318,0-0.521,0.126-0.658,0.307
		c-0.283,0.387-0.34,1.032-0.34,2.95c0,1.917,0.057,2.564,0.34,2.949c0.137,0.182,0.34,0.307,0.658,0.307
		c0.566,0,0.896-0.466,0.896-1.124v-1.61h-0.896v-0.817h1.871v2.395C126.115,46.334,125.299,47.026,124.244,47.026z M124.244,38.371
		c-0.75,0-1.283-0.374-1.34-1.259h0.67c0.047,0.407,0.307,0.59,0.67,0.59s0.623-0.183,0.67-0.59h0.668
		C125.525,37.997,124.994,38.371,124.244,38.371z"/>
	<path fill="#1EADE4" d="M128.666,46.936v-8.077h0.977v8.077H128.666z"/>
	<path fill="#1EADE4" d="M135.438,46.527c-0.307,0.295-0.783,0.488-1.43,0.488c-0.623,0-1.1-0.171-1.418-0.488
		c-0.375-0.374-0.498-0.84-0.498-1.702h0.975c0,0.534,0.057,0.828,0.273,1.056c0.135,0.147,0.361,0.249,0.668,0.249
		c0.328,0,0.545-0.102,0.691-0.261c0.217-0.238,0.262-0.544,0.262-1.077c0-0.931-0.135-1.215-0.793-1.486l-0.92-0.374
		c-0.828-0.341-1.1-0.795-1.1-2.02c0-0.704,0.203-1.282,0.611-1.656c0.318-0.295,0.748-0.465,1.283-0.465
		c0.59,0,1.031,0.17,1.338,0.465c0.408,0.397,0.533,0.919,0.533,1.656h-0.975c0-0.431-0.047-0.726-0.25-0.976
		c-0.137-0.17-0.354-0.272-0.658-0.272c-0.283,0-0.488,0.103-0.625,0.25c-0.193,0.216-0.283,0.544-0.283,0.964
		c0,0.795,0.125,1.032,0.771,1.304l0.908,0.376c0.918,0.374,1.135,0.941,1.135,2.211C135.938,45.607,135.824,46.142,135.438,46.527z
		 M133.758,49h-0.725l0.645-1.634h0.648L133.758,49z"/>
	<path fill="#1EADE4" d="M144.883,46.527c-0.305,0.295-0.781,0.488-1.428,0.488c-0.623,0-1.102-0.171-1.418-0.488
		c-0.375-0.374-0.5-0.84-0.5-1.702h0.977c0,0.534,0.057,0.828,0.271,1.056c0.137,0.147,0.363,0.249,0.67,0.249
		c0.328,0,0.545-0.102,0.691-0.261c0.215-0.238,0.262-0.544,0.262-1.077c0-0.931-0.137-1.215-0.795-1.486l-0.918-0.374
		c-0.828-0.341-1.102-0.795-1.102-2.02c0-0.704,0.205-1.282,0.613-1.656c0.318-0.295,0.748-0.465,1.281-0.465
		c0.59,0,1.033,0.17,1.338,0.465c0.41,0.397,0.535,0.919,0.535,1.656h-0.977c0-0.431-0.045-0.726-0.25-0.976
		c-0.135-0.17-0.352-0.272-0.658-0.272c-0.283,0-0.486,0.103-0.623,0.25c-0.191,0.216-0.283,0.544-0.283,0.964
		c0,0.795,0.125,1.032,0.77,1.304l0.908,0.376c0.92,0.374,1.135,0.941,1.135,2.211C145.383,45.607,145.27,46.142,144.883,46.527z"/>
	<path fill="#1EADE4" d="M147.877,46.936v-8.077h0.977v8.077H147.877z M147.91,38.121v-0.919h0.932v0.919H147.91z"/>
	<path fill="#1EADE4" d="M154.648,46.527c-0.307,0.295-0.783,0.488-1.43,0.488c-0.623,0-1.1-0.171-1.418-0.488
		c-0.375-0.374-0.498-0.84-0.498-1.702h0.975c0,0.534,0.057,0.828,0.273,1.056c0.135,0.147,0.361,0.249,0.668,0.249
		c0.33,0,0.545-0.102,0.691-0.261c0.217-0.238,0.262-0.544,0.262-1.077c0-0.931-0.135-1.215-0.793-1.486l-0.92-0.374
		c-0.828-0.341-1.1-0.795-1.1-2.02c0-0.704,0.203-1.282,0.611-1.656c0.318-0.295,0.75-0.465,1.283-0.465
		c0.59,0,1.031,0.17,1.338,0.465c0.408,0.397,0.533,0.919,0.533,1.656h-0.975c0-0.431-0.047-0.726-0.25-0.976
		c-0.137-0.17-0.352-0.272-0.658-0.272c-0.283,0-0.488,0.103-0.625,0.25c-0.193,0.216-0.283,0.544-0.283,0.964
		c0,0.795,0.125,1.032,0.771,1.304l0.908,0.376c0.918,0.374,1.135,0.941,1.135,2.211C155.148,45.607,155.035,46.142,154.648,46.527z
		"/>
	<path fill="#1EADE4" d="M159.49,39.732v7.203h-0.975v-7.203h-1.361v-0.874h3.686v0.874H159.49z"/>
	<path fill="#1EADE4" d="M163.084,46.936v-8.077h3.119v0.874h-2.143v2.711h1.848v0.873h-1.848v2.745h2.143v0.874H163.084z"/>
	<path fill="#1EADE4" d="M172.793,46.936v-5.751l-1.281,3.777h-0.602l-1.258-3.687v5.66h-0.979v-8.077h0.92l1.633,4.493l1.623-4.493
		h0.92v8.077H172.793z"/>
	<path fill="#1EADE4" d="M176.512,46.936v-8.077h0.977v8.077H176.512z M176.545,38.121v-0.919h0.93v0.919H176.545z"/>
</g>
</svg>
