<?xml version="1.0" encoding="utf-8"?>
<!-- Generator: Adobe Illustrator 16.0.0, SVG Export Plug-In . SVG Version: 6.00 Build 0)  -->
<!DOCTYPE svg PUBLIC "-//W3C//DTD SVG 1.1//EN" "http://www.w3.org/Graphics/SVG/1.1/DTD/svg11.dtd">
<svg version="1.1" id="Layer_1" xmlns="http://www.w3.org/2000/svg" xmlns:xlink="http://www.w3.org/1999/xlink" x="0px" y="0px"
	 width="157.25px" height="50px" viewBox="0 0 157.25 50" enable-background="new 0 0 157.25 50" xml:space="preserve">
<g>
	<g>
		<defs>
			<path id="SVGID_51_" d="M80.746,1.382c-3.036,0-5.497,2.462-5.497,5.498v25.273c0,3.034,2.461,5.495,5.497,5.495h70.255
				c3.035,0,5.497-2.461,5.497-5.495V6.88c0-3.036-2.462-5.498-5.497-5.498H80.746z"/>
		</defs>
		<clipPath id="SVGID_2_">
			<use xlink:href="#SVGID_51_"  overflow="visible"/>
		</clipPath>
		
			<linearGradient id="SVGID_3_" gradientUnits="userSpaceOnUse" x1="-198.0288" y1="440.2529" x2="-197.356" y2="440.2529" gradientTransform="matrix(120.7422 0 0 -120.7422 23985.6484 53176.4766)">
			<stop  offset="0" style="stop-color:#0EB9CD"/>
			<stop  offset="1" style="stop-color:#05ADE2"/>
		</linearGradient>
		<rect x="75.249" y="1.382" clip-path="url(#SVGID_2_)" fill="url(#SVGID_3_)" width="81.247" height="36.267"/>
	</g>
	<g>
		<defs>
			<path id="SVGID_54_" d="M80.746,1.382c-3.036,0-5.497,2.462-5.497,5.498v25.273c0,3.034,2.461,5.495,5.497,5.495h70.255
				c3.035,0,5.497-2.461,5.497-5.495V6.88c0-3.036-2.462-5.498-5.497-5.498H80.746z"/>
		</defs>
		<clipPath id="SVGID_5_">
			<use xlink:href="#SVGID_54_"  overflow="visible"/>
		</clipPath>
		<g opacity="0.75" clip-path="url(#SVGID_5_)">
			<g>
				<defs>
					<rect id="SVGID_56_" x="69.857" y="-29.744" width="121.016" height="95.33"/>
				</defs>
				<clipPath id="SVGID_6_">
					<use xlink:href="#SVGID_56_"  overflow="visible"/>
				</clipPath>
				<g clip-path="url(#SVGID_6_)">
					<defs>
						<rect id="SVGID_58_" x="69.857" y="-29.743" width="121.016" height="95.329"/>
					</defs>
					<clipPath id="SVGID_8_">
						<use xlink:href="#SVGID_58_"  overflow="visible"/>
					</clipPath>
					<g opacity="0.3" clip-path="url(#SVGID_8_)">
						<g>
							<defs>
								<rect id="SVGID_60_" x="69.857" y="3.354" width="121.016" height="58.002"/>
							</defs>
							<clipPath id="SVGID_9_">
								<use xlink:href="#SVGID_60_"  overflow="visible"/>
							</clipPath>
							<g clip-path="url(#SVGID_9_)">
								<defs>
									<rect id="SVGID_62_" x="69.857" y="3.354" width="121.016" height="58.002"/>
								</defs>
								<clipPath id="SVGID_11_">
									<use xlink:href="#SVGID_62_"  overflow="visible"/>
								</clipPath>
								<path clip-path="url(#SVGID_11_)" fill="#5BC7D4" d="M70.316,51.024c0.075,0.383,0.449,0.633,0.832,0.556
									c0.077-0.016,0.148-0.044,0.214-0.081l5.467,7.644c-0.168,0.163-0.252,0.404-0.202,0.648
									c0.076,0.384,0.449,0.631,0.833,0.555c0.285-0.057,0.498-0.282,0.554-0.551l16.36,0.918c0.002,0.025,0.006,0.051,0.01,0.073
									c0.077,0.385,0.45,0.633,0.834,0.556c0.383-0.077,0.631-0.448,0.554-0.831c-0.01-0.05-0.023-0.095-0.042-0.138l7.772-4.747
									c0.161,0.191,0.419,0.292,0.681,0.24c0.384-0.077,0.632-0.45,0.557-0.833c-0.032-0.156-0.113-0.289-0.223-0.387l5.517-8.347
									c0.134,0.063,0.284,0.085,0.439,0.054c0.166-0.033,0.31-0.124,0.408-0.246L131.2,58.163
									c-0.052,0.125-0.067,0.265-0.04,0.407c0.078,0.383,0.449,0.631,0.834,0.555c0.384-0.076,0.632-0.449,0.554-0.832
									c-0.02-0.099-0.06-0.187-0.11-0.265l20.815-19.525c0.121,0.317,0.454,0.513,0.8,0.442c0.383-0.075,0.631-0.447,0.554-0.831
									c-0.004-0.021-0.008-0.043-0.014-0.064l9.511-4.463c0.153,0.232,0.438,0.36,0.727,0.302c0.35-0.068,0.586-0.385,0.568-0.729
									l13.035-2.608c0.117,0.326,0.456,0.524,0.804,0.456c0.207-0.042,0.373-0.17,0.473-0.339l9.766,3.911
									c-0.021,0.094-0.022,0.192-0.004,0.295c0.077,0.382,0.45,0.631,0.834,0.554c0.383-0.076,0.631-0.449,0.554-0.832
									c-0.069-0.351-0.388-0.587-0.734-0.566l-4.116-21.902c0.33-0.113,0.532-0.455,0.463-0.807
									c-0.077-0.384-0.448-0.633-0.832-0.557c-0.139,0.029-0.258,0.095-0.352,0.187l-8.471-6.544
									c0.081-0.142,0.111-0.312,0.077-0.484c-0.077-0.383-0.448-0.631-0.831-0.556c-0.384,0.077-0.632,0.451-0.557,0.834
									c0.024,0.112,0.071,0.211,0.136,0.295l-6.115,6.411c-0.152-0.107-0.348-0.156-0.546-0.116
									c-0.208,0.042-0.377,0.173-0.475,0.344L161.4,8.582c0.014-0.08,0.012-0.162-0.005-0.247
									c-0.077-0.383-0.448-0.632-0.833-0.554c-0.384,0.075-0.632,0.448-0.555,0.832v0.002l-0.027-0.103l-22.318,6.178
									c-0.131-0.298-0.454-0.474-0.784-0.407c-0.163,0.03-0.302,0.119-0.403,0.237l-8.246-5.085
									c0.056-0.128,0.073-0.272,0.044-0.418c-0.078-0.384-0.449-0.632-0.832-0.556c-0.384,0.077-0.632,0.449-0.556,0.834
									c0.027,0.135,0.093,0.252,0.181,0.346l-9.023,11.517c-0.143-0.083-0.313-0.114-0.488-0.08
									c-0.383,0.078-0.632,0.45-0.556,0.834c0.029,0.145,0.101,0.271,0.2,0.366l-5.237,7.271c-0.139-0.07-0.3-0.098-0.464-0.064
									c-0.384,0.076-0.632,0.448-0.555,0.832c0.004,0.026,0.013,0.054,0.021,0.079l-14.561,7.597
									c-0.16-0.21-0.429-0.322-0.702-0.267c-0.205,0.04-0.367,0.165-0.467,0.329l-10.49-4.134c0.024-0.099,0.03-0.204,0.008-0.312
									c-0.077-0.383-0.448-0.631-0.831-0.555c-0.374,0.074-0.618,0.428-0.561,0.801l-12.227,5.137
									c-0.157-0.214-0.429-0.329-0.707-0.272c-0.383,0.076-0.632,0.448-0.554,0.832c0.056,0.282,0.274,0.494,0.541,0.552
									l0.449,10.091C70.483,50.274,70.24,50.645,70.316,51.024 M71.258,39.273c-0.006-0.033-0.017-0.065-0.026-0.098l11.04-4.639
									l1.149-0.482c0.019,0.038,0.04,0.074,0.063,0.107l-8,10.549l-4.394-4.825C71.233,39.725,71.305,39.502,71.258,39.273
									 M137.154,15.67c0.093-0.019,0.177-0.053,0.25-0.103l6.726,7.57l-7.188-6.132l0.117-1.324
									C137.091,15.68,137.124,15.677,137.154,15.67 M161.186,8.989l4.934,4.486l-4.157,3.07c-0.119-0.119-0.28-0.194-0.453-0.204
									l-0.587-7.194C161.022,9.113,161.112,9.06,161.186,8.989 M176.339,4.756c0.139-0.028,0.258-0.095,0.352-0.184l8.471,6.543
									c-0.041,0.074-0.069,0.155-0.083,0.242l-9.881,0.015l1.001-6.604C176.246,4.77,176.293,4.765,176.339,4.756 M95.448,60.046
									c-0.147-0.089-0.326-0.127-0.509-0.091c-0.158,0.031-0.294,0.114-0.393,0.227l-11.428-7.348
									c0.017-0.034,0.028-0.067,0.038-0.103l16.704,2.036L95.448,60.046z M83.792,34.403l-1.365,17.435
									c-0.03,0.002-0.06,0.005-0.09,0.011c-0.093,0.019-0.181,0.057-0.256,0.106l-6.456-7.087l8.007-10.556
									C83.682,34.349,83.735,34.381,83.792,34.403 M81.979,53.048l-1.192,1.646l-8.949-3.657l9.93,1.504
									c0,0.047,0.004,0.093,0.014,0.14C81.812,52.827,81.883,52.953,81.979,53.048 M82.148,53.169
									c0.14,0.072,0.302,0.101,0.467,0.067c0.159-0.032,0.294-0.114,0.393-0.228l11.064,7.115l-13.087-5.349L82.148,53.169z
									 M84.074,52.632l9.599-0.082l7.628-0.067c0.002,0.01,0.002,0.019,0.004,0.028c0.025,0.128,0.085,0.241,0.164,0.331
									l-1.449,1.735L84.074,52.632z M101.63,52.976c0.146,0.089,0.325,0.127,0.506,0.09c0.07-0.015,0.134-0.036,0.191-0.068
									l1.221,1.671c-0.088,0.086-0.151,0.195-0.185,0.315l-3.098-0.378L101.63,52.976z M103.907,54.478
									c-0.069,0.014-0.131,0.037-0.19,0.068l-1.224-1.671c0.165-0.161,0.248-0.399,0.199-0.643
									c-0.017-0.079-0.046-0.152-0.084-0.218l7.244-5.835c0.004,0.002,0.006,0.004,0.008,0.006l-5.517,8.346
									C104.213,54.471,104.06,54.448,103.907,54.478 M118.346,22.041l6.462,1.59l-1.705,9.257
									c-0.054-0.002-0.109,0.001-0.165,0.013c-0.018,0.003-0.035,0.008-0.056,0.015l-4.804-10.549
									C118.199,22.287,118.292,22.174,118.346,22.041 M185.445,12.084l-4.957,13.994l-6.152-5.426
									c0.095-0.149,0.137-0.335,0.1-0.523c-0.013-0.067-0.036-0.132-0.068-0.189l10.907-7.982
									C185.324,12.008,185.384,12.052,185.445,12.084 M189.551,34.386l-9.766-3.909c0.024-0.096,0.028-0.198,0.008-0.302
									c-0.043-0.216-0.183-0.39-0.363-0.485l1.151-3.252l8.985,7.924C189.563,34.369,189.557,34.378,189.551,34.386
									 M171.104,24.17l2.287-3.288c0.146,0.081,0.315,0.114,0.49,0.079c0.034-0.007,0.065-0.016,0.098-0.027l4.699,8.812
									c-0.028,0.02-0.052,0.042-0.075,0.064L171.104,24.17z M165.007,32.563c-0.106-0.054-0.226-0.081-0.35-0.074l-2.955-14.777
									c0.099-0.035,0.187-0.092,0.256-0.162l8.86,6.665L165.007,32.563z M153.457,37.713c-0.026,0.021-0.048,0.046-0.071,0.069
									l-11.614-7.609l3.2-5.313c0.117,0.041,0.244,0.053,0.373,0.028c0.042-0.011,0.084-0.022,0.123-0.038l6.323,10.183
									L153.457,37.713z M110.913,45.254l8.35-7.904l8.747,8.006c-0.058,0.086-0.095,0.184-0.111,0.288l-16.866-0.085
									c-0.002-0.012-0.004-0.023-0.004-0.038C111.006,45.423,110.967,45.332,110.913,45.254 M144.569,24.5
									c0.051,0.105,0.127,0.195,0.218,0.263l-3.19,5.297l-5.05-3.312c0.127-0.142,0.194-0.333,0.175-0.532L144.569,24.5z
									 M178.96,29.62c-0.034,0.006-0.066,0.016-0.098,0.027l-4.695-8.814c0.01-0.008,0.02-0.016,0.032-0.023l6.216,5.48
									l-1.182,3.329C179.146,29.602,179.053,29.601,178.96,29.62 M128.459,45.058c-0.021,0.004-0.038,0.01-0.056,0.015
									l-4.83-10.637l-0.111-0.247c0.145-0.096,0.252-0.24,0.298-0.408l8.729,1.05l-3.748,10.229
									C128.649,45.039,128.556,45.037,128.459,45.058 M123.783,33.573c0-0.038-0.004-0.078-0.012-0.117
									c-0.008-0.042-0.021-0.082-0.036-0.12l2.81-1.615l8.856-5.092c0.018,0.032,0.037,0.061,0.062,0.091l-2.9,7.911
									L123.783,33.573z M135.625,26.871c0.054,0.035,0.109,0.062,0.169,0.082l1.332,4.401l1.051,3.467
									c-0.185,0.087-0.32,0.247-0.378,0.438l-5.024-0.604L135.625,26.871z M138.74,34.804c-0.113-0.045-0.238-0.061-0.363-0.043
									l-1.054-3.482l-1.299-4.29c0.042,0,0.087-0.004,0.131-0.013c0.082-0.017,0.157-0.047,0.225-0.087l5.11,3.349L138.74,34.804z
									 M123.216,34.287c0.02-0.003,0.037-0.009,0.058-0.014l4.939,10.884c-0.022,0.015-0.042,0.028-0.062,0.045l-8.737-7.995
									l3.228-3.058C122.799,34.273,123.005,34.329,123.216,34.287 M128.936,45.13l3.766-10.273l5.068,0.61
									c0,0.044,0.006,0.088,0.014,0.133c0.022,0.107,0.067,0.202,0.127,0.284l-8.903,9.291
									C128.982,45.159,128.961,45.144,128.936,45.13 M138.919,34.909l2.745-4.558l11.608,7.605
									c-0.01,0.021-0.02,0.045-0.028,0.068l-14.06-2.555c0-0.05-0.004-0.1-0.014-0.149
									C139.138,35.152,139.044,35.009,138.919,34.909 M162.085,17.383c0.01-0.02,0.02-0.039,0.027-0.06l10.925,2.868
									c-0.006,0.069-0.004,0.142,0.011,0.214c0.027,0.137,0.091,0.255,0.181,0.348l-2.291,3.291L162.085,17.383z M144.51,24.301
									l-7.838,1.712c-0.088-0.212-0.272-0.367-0.49-0.419l0.738-8.333l7.687,6.558C144.52,23.956,144.481,24.126,144.51,24.301
									 M135.975,25.575c-0.031,0.003-0.065,0.005-0.097,0.013c-0.026,0.004-0.052,0.012-0.076,0.02l-7.819-15.871
									c0.021-0.015,0.041-0.029,0.062-0.048l8.682,7.405L135.975,25.575z M135.325,26.433l-11.694,6.724
									c-0.084-0.106-0.197-0.188-0.324-0.23l1.703-9.247l10.304,2.537c-0.008,0.065-0.004,0.135,0.01,0.204
									C135.323,26.423,135.325,26.429,135.325,26.433 M122.499,33.999l-3.24,3.065l-7.06-6.461
									c0.026-0.032,0.048-0.069,0.067-0.107l10.111,2.999c-0.012,0.076-0.01,0.156,0.006,0.237
									C122.403,33.832,122.443,33.921,122.499,33.999 M111.774,30.872c0.104-0.021,0.196-0.063,0.276-0.121l7.058,6.457
									l-8.338,7.896c-0.082-0.065-0.175-0.109-0.276-0.133l1.142-14.086C111.684,30.885,111.729,30.88,111.774,30.872
									 M111.032,45.769l16.864,0.083c0.002,0.013,0.004,0.024,0.006,0.039c0.074,0.361,0.407,0.603,0.767,0.564l2.91,11.324
									c-0.106,0.045-0.2,0.118-0.273,0.205l-20.319-12.057C111.008,45.876,111.022,45.822,111.032,45.769 M131.782,57.728
									l-2.911-11.324c0.292-0.123,0.473-0.431,0.426-0.752l6.714-2.007l-4.063,14.085
									C131.894,57.723,131.838,57.723,131.782,57.728 M129.237,45.451c-0.022-0.049-0.05-0.092-0.082-0.133l8.904-9.289
									c0.037,0.029,0.079,0.054,0.125,0.074l-2.106,7.304L129.237,45.451z M138.383,36.16c0.075,0.012,0.155,0.009,0.232-0.006
									c0.262-0.053,0.461-0.243,0.538-0.48l14.054,2.556c0,0.02,0,0.038,0,0.058l-16.891,5.049L138.383,36.16z M153.776,37.56
									c-0.052,0.009-0.099,0.024-0.143,0.043l-6.786-10.923l-1.201-1.935c0.048-0.037,0.088-0.079,0.124-0.126l11.075,5.086
									l-2.795,7.853C153.963,37.54,153.868,37.54,153.776,37.56 M145.869,24.436c0.044-0.115,0.056-0.243,0.032-0.373
									l14.965-6.639c0.065,0.105,0.156,0.189,0.264,0.247l-4.213,11.838L145.869,24.436z M161.324,17.74
									c0.056,0.01,0.113,0.015,0.173,0.012l2.956,14.778c-0.148,0.053-0.271,0.153-0.354,0.279l-6.994-3.213L161.324,17.74z
									 M165.178,32.682l5.807-8.343l7.493,5.637c-0.063,0.112-0.092,0.24-0.084,0.373l-13.037,2.607
									C165.318,32.849,165.257,32.756,165.178,32.682 M189.702,34.202l-9.045-7.975l4.984-14.072
									c0.054,0.009,0.107,0.013,0.163,0.011l4.115,21.905C189.839,34.103,189.766,34.147,189.702,34.202 M185.08,11.565
									c0,0.012,0.002,0.022,0.004,0.033c0.014,0.068,0.036,0.132,0.067,0.19l-10.907,7.981c-0.081-0.082-0.183-0.144-0.294-0.178
									l1.216-8.014L185.08,11.565z M173.744,19.561c-0.046-0.001-0.093,0.005-0.141,0.013c-0.004,0.001-0.01,0.004-0.017,0.005
									l-4.073-7.504c0.165-0.111,0.278-0.289,0.306-0.486l5.136-0.007L173.744,19.561z M169.26,12.179
									c0.021-0.004,0.043-0.011,0.065-0.016l4.067,7.49c-0.035,0.021-0.067,0.042-0.097,0.067l-6.85-6.227l2.122-1.567
									C168.729,12.126,168.991,12.232,169.26,12.179 M173.154,19.873c-0.018,0.027-0.033,0.055-0.047,0.083l-10.943-2.836
									c0.008-0.068,0.006-0.142-0.008-0.213c-0.014-0.069-0.038-0.134-0.069-0.193l4.188-3.095L173.154,19.873z M160.314,9.065
									c0.114,0.076,0.256,0.119,0.4,0.115l0.586,7.177c-0.369,0.086-0.607,0.451-0.532,0.827c0.004,0.017,0.008,0.032,0.012,0.05
									l-3.931,1.744l-11.016,4.887c-0.013-0.02-0.022-0.038-0.032-0.058L160.314,9.065z M136.851,15.664l-0.104,1.176
									l-8.072-6.887l7.691,4.745c-0.054,0.127-0.072,0.271-0.044,0.417C136.378,15.395,136.592,15.601,136.851,15.664
									 M127.718,9.85c0.026-0.006,0.052-0.013,0.078-0.02l7.817,15.87c-0.111,0.077-0.198,0.188-0.25,0.313l-10.315-2.537
									l2.508-13.612C127.607,9.864,127.662,9.861,127.718,9.85 M127.351,9.824l-2.505,13.601l-6.448-1.586
									c0.006-0.067,0.002-0.136-0.012-0.204c-0.026-0.138-0.092-0.256-0.181-0.348l9.024-11.518
									C127.268,9.792,127.308,9.811,127.351,9.824 M117.829,22.466c0.021-0.004,0.04-0.009,0.058-0.014L122.691,33
									c-0.111,0.072-0.198,0.177-0.254,0.296l-10.105-2.997c0.015-0.083,0.015-0.171-0.002-0.259
									c-0.029-0.148-0.101-0.273-0.2-0.369l5.237-7.271C117.506,22.471,117.667,22.499,117.829,22.466 M111.415,30.85
									c0.004,0.002,0.01,0.003,0.016,0.005l-1.146,14.101c-0.029,0.002-0.062,0.005-0.091,0.012
									c-0.187,0.037-0.34,0.145-0.44,0.287l-3.753-1.878L111.415,30.85z M109.662,45.439c-0.037,0.112-0.048,0.235-0.023,0.359
									c0.016,0.079,0.046,0.152,0.083,0.22l-7.244,5.834c-0.031-0.03-0.069-0.059-0.105-0.08l3.546-8.206L109.662,45.439z
									 M102.18,51.689c-0.102-0.027-0.21-0.033-0.321-0.012c-0.016,0.005-0.032,0.008-0.046,0.014l-4.396-9.961l-1.197-2.715
									c0.082-0.053,0.151-0.121,0.205-0.2l9.309,4.658L102.18,51.689z M95.978,39.113c0.019-0.005,0.034-0.009,0.052-0.013
									l1.172,2.655l4.421,10.019c-0.014,0.007-0.023,0.015-0.036,0.021l-9.239-9.548l3.077-3.256
									C95.577,39.104,95.775,39.153,95.978,39.113 M101.438,51.941c-0.073,0.096-0.123,0.209-0.139,0.332l-5.789,0.052
									l-12.337,0.107c-0.002-0.01-0.002-0.019-0.004-0.028c-0.021-0.112-0.071-0.214-0.137-0.298l9.172-9.707L101.438,51.941z
									 M82.879,51.962c-0.073-0.052-0.154-0.088-0.244-0.108l1.362-17.4c0.065,0.005,0.133,0.003,0.2-0.011
									c0.082-0.017,0.155-0.047,0.225-0.088l7.637,7.895L82.879,51.962z M81.927,52.096c-0.056,0.069-0.102,0.151-0.128,0.238
									l-10.087-1.526c-0.003-0.02-0.006-0.04-0.009-0.061c-0.032-0.161-0.118-0.3-0.235-0.398l4.03-5.313L81.927,52.096z
									 M71.525,51.369c0.05-0.055,0.094-0.117,0.124-0.185l9.013,3.683l-3.015,4.157c-0.139-0.071-0.301-0.099-0.466-0.066
									c-0.065,0.014-0.127,0.036-0.183,0.063L71.525,51.369z M78.024,59.587c-0.001-0.024-0.005-0.049-0.011-0.073
									c-0.029-0.146-0.1-0.271-0.199-0.367l3.044-4.196l13.535,5.529c-0.004,0.009-0.006,0.018-0.008,0.026L78.024,59.587z
									 M95.62,60.195c-0.004-0.005-0.008-0.012-0.014-0.018l4.501-5.381l3.231,0.395c0,0.039,0.004,0.079,0.013,0.119
									c0.008,0.048,0.023,0.094,0.041,0.139L95.62,60.195z M132.294,57.877c-0.046-0.035-0.093-0.065-0.145-0.088l4.098-14.216
									l16.58-4.956L132.294,57.877z M154.503,37.861c-0.065-0.099-0.154-0.179-0.256-0.232l2.787-7.837l6.979,3.206
									c-0.03,0.105-0.038,0.221-0.014,0.335c0.004,0.022,0.01,0.044,0.016,0.065L154.503,37.861z M175.793,4.639
									c0.062,0.044,0.129,0.076,0.2,0.1l-1.006,6.634l-5.168,0.008c-0.002-0.012-0.002-0.022-0.004-0.034
									c-0.023-0.111-0.071-0.211-0.137-0.296L175.793,4.639z M168.432,11.329c-0.021,0.093-0.025,0.193-0.006,0.295
									c0.01,0.042,0.021,0.082,0.038,0.121l-2.174,1.604l-4.976-4.524c0.008-0.015,0.016-0.029,0.024-0.044L168.432,11.329z
									 M160.032,8.701c0.029,0.085,0.071,0.161,0.125,0.226l-14.496,14.725c-0.157-0.133-0.373-0.196-0.594-0.152
									c-0.092,0.019-0.175,0.054-0.248,0.102l-7.261-8.171c0.123-0.146,0.183-0.34,0.159-0.54l22.318-6.175L160.032,8.701z
									 M111.056,30.582c0.048,0.068,0.107,0.126,0.175,0.175l-5.416,12.525l-9.301-4.654c0.034-0.109,0.042-0.228,0.021-0.349
									c-0.011-0.036-0.021-0.071-0.032-0.104L111.056,30.582z M95.152,38.247c-0.024,0.099-0.028,0.204-0.008,0.311
									c0.023,0.109,0.067,0.205,0.131,0.289l-3.073,3.252l-7.619-7.877c0.029-0.032,0.058-0.07,0.081-0.109L95.152,38.247z
									 M70.704,40.106c0.081-0.019,0.156-0.047,0.224-0.089l4.428,4.862l-4.064,5.358c-0.069-0.031-0.145-0.05-0.222-0.056
									l-0.447-10.065C70.649,40.115,70.676,40.111,70.704,40.106"/>
							</g>
						</g>
					</g>
					<g opacity="0.1" clip-path="url(#SVGID_8_)">
						<g>
							<defs>
								<rect id="SVGID_64_" x="82.331" y="-10.116" width="85.424" height="55.37"/>
							</defs>
							<clipPath id="SVGID_13_">
								<use xlink:href="#SVGID_64_"  overflow="visible"/>
							</clipPath>
							<g clip-path="url(#SVGID_13_)">
								<defs>
									<rect id="SVGID_66_" x="82.331" y="-10.116" width="85.424" height="55.37"/>
								</defs>
								<clipPath id="SVGID_15_">
									<use xlink:href="#SVGID_66_"  overflow="visible"/>
								</clipPath>
								<path clip-path="url(#SVGID_15_)" fill="#5BC7D4" d="M166.383-3.344l-4.552-5.93c0.123-0.159,0.146-0.383,0.043-0.57
									c-0.139-0.252-0.458-0.347-0.71-0.206c-0.185,0.101-0.284,0.294-0.271,0.492l-9.37,2.915
									c-0.146-0.239-0.453-0.323-0.699-0.188c-0.254,0.139-0.347,0.457-0.208,0.711c0.041,0.071,0.093,0.129,0.154,0.173
									l-3.972,7.338c-0.134-0.046-0.286-0.038-0.421,0.035c-0.183,0.101-0.28,0.292-0.271,0.486l-11.866,2.633
									c-0.008-0.018-0.016-0.036-0.025-0.054c-0.139-0.254-0.457-0.346-0.711-0.207c-0.107,0.06-0.187,0.152-0.23,0.258
									l-6.43-1.622c0.012-0.102-0.008-0.208-0.062-0.305c-0.139-0.254-0.457-0.345-0.711-0.206
									c-0.115,0.063-0.196,0.163-0.238,0.277l-10.595-2.223c0.006-0.097-0.015-0.194-0.063-0.283
									c-0.14-0.254-0.457-0.347-0.711-0.207c-0.254,0.139-0.348,0.457-0.207,0.71c0.052,0.097,0.131,0.171,0.223,0.216
									l-2.247,6.809c-0.113-0.019-0.232-0.002-0.342,0.058c-0.219,0.119-0.317,0.374-0.25,0.604l-15.58,7.133l0.031,0.07v-0.001
									c-0.139-0.253-0.458-0.347-0.71-0.207c-0.255,0.139-0.346,0.457-0.209,0.712c0.032,0.055,0.071,0.102,0.115,0.142
									l-2.81,4.829c-0.135-0.05-0.293-0.044-0.431,0.032c-0.131,0.072-0.22,0.191-0.254,0.326l-6.518-0.718
									c-0.004-0.078-0.023-0.159-0.063-0.232c-0.139-0.253-0.459-0.347-0.711-0.207c-0.254,0.14-0.345,0.457-0.208,0.711
									c0.063,0.114,0.162,0.195,0.273,0.236l-1.677,7.742c-0.098-0.008-0.197,0.012-0.288,0.063
									c-0.252,0.139-0.346,0.457-0.207,0.71c0.127,0.232,0.405,0.33,0.646,0.236l8.102,14.363
									c-0.204,0.154-0.271,0.44-0.145,0.673c0.139,0.252,0.456,0.345,0.711,0.206c0.252-0.139,0.345-0.458,0.206-0.711
									c-0.038-0.066-0.085-0.121-0.143-0.165l3.669-6.866c0.137,0.048,0.291,0.041,0.429-0.033
									c0.229-0.127,0.327-0.402,0.24-0.642l8.621-4.731c0.155,0.202,0.439,0.269,0.67,0.143c0.19-0.105,0.289-0.314,0.268-0.519
									l7.512-2.003c0.007,0.015,0.015,0.029,0.022,0.043c0.139,0.255,0.456,0.348,0.711,0.208
									c0.226-0.124,0.325-0.395,0.242-0.633l21.087,1.143c0.006,0.068,0.028,0.139,0.063,0.204
									c0.139,0.252,0.457,0.345,0.711,0.205c0.252-0.138,0.346-0.457,0.206-0.711c-0.052-0.094-0.127-0.164-0.216-0.211
									l5.763-16.507c0.115,0.023,0.24,0.007,0.352-0.055c0.102-0.057,0.177-0.141,0.223-0.238l7.099,2.098
									c-0.016,0.108,0.002,0.222,0.06,0.325c0.14,0.254,0.457,0.346,0.711,0.207c0.173-0.096,0.272-0.276,0.272-0.461l6.66-1.013
									c0.012,0.032,0.025,0.065,0.042,0.096c0.139,0.255,0.458,0.347,0.711,0.208c0.256-0.14,0.347-0.457,0.208-0.711
									c-0.01-0.018-0.02-0.032-0.027-0.047l8.826-8.313c0.158,0.126,0.385,0.153,0.575,0.049c0.255-0.14,0.348-0.458,0.207-0.713
									c-0.088-0.16-0.25-0.258-0.423-0.269l-0.544-6.934c0.054-0.009,0.109-0.027,0.158-0.057c0.255-0.139,0.346-0.458,0.207-0.71
									C166.95-3.385,166.635-3.479,166.383-3.344 M161.345-9.073l-0.191,4.826l-9.557-2.163c0-0.03-0.006-0.061-0.014-0.092
									l0.879-0.273l8.464-2.632c0.01,0.022,0.018,0.046,0.029,0.067C161.039-9.189,161.186-9.096,161.345-9.073 M112.455,8.643
									l0.697,0.694l-1.149,6.896l0.204-7.49c0.063-0.008,0.127-0.027,0.188-0.061C112.418,8.672,112.438,8.658,112.455,8.643
									 M95.829,16.309l3.095,4.354c-0.093,0.088-0.148,0.209-0.158,0.333l-3.816,0.241l0.655-4.891
									C95.68,16.351,95.758,16.339,95.829,16.309 M85.093,21.108l3.713,3.261l-5.603,4.699c-0.048-0.043-0.104-0.075-0.163-0.099
									l1.68-7.739c0.097,0.007,0.196-0.014,0.288-0.063C85.037,21.15,85.067,21.129,85.093,21.108 M152.139,13.058l8.491-9.108
									c0.021,0.015,0.043,0.028,0.067,0.04l-2.968,9.604c-0.111-0.017-0.229,0-0.332,0.058c-0.121,0.066-0.202,0.173-0.244,0.294
									L152.139,13.058z M151.585-6.256l9.563,2.164l-0.279,7.09c-0.067,0.007-0.133,0.026-0.195,0.062
									c-0.02,0.011-0.039,0.022-0.055,0.036l-9.079-9.222C151.559-6.167,151.577-6.211,151.585-6.256 M161.384,3.266
									c-0.016-0.03-0.037-0.06-0.06-0.086l4.908-5.581l-3.326,6.333l-1.461-0.363C161.455,3.468,161.436,3.361,161.384,3.266
									 M162.833,4.073l-4.863,9.263l2.876-9.301c0.109,0.017,0.227,0,0.332-0.059c0.107-0.06,0.188-0.152,0.23-0.259
									L162.833,4.073z M151.958,13.026l-1.647-0.292c0.002-0.089-0.019-0.182-0.063-0.266c-0.004-0.006-0.008-0.012-0.012-0.02
									l4.352-3.594l5.475-4.524L151.958,13.026z M151.833,13.159l-1.574,1.691c-0.075-0.053-0.163-0.084-0.254-0.091l-0.105-1.528
									c0.048-0.01,0.096-0.027,0.141-0.053c0.119-0.066,0.203-0.171,0.244-0.292L151.833,13.159z M149.488,15.062l-7.102-2.1
									c0.002-0.002,0.002-0.004,0.002-0.006l6.884-0.147c0.01,0.055,0.027,0.111,0.057,0.164c0.088,0.16,0.247,0.256,0.417,0.271
									l0.104,1.526c-0.048,0.011-0.093,0.027-0.139,0.052C149.609,14.878,149.534,14.963,149.488,15.062 M126.39,3.387
									l2.304,8.263c-0.015,0.006-0.026,0.012-0.038,0.019c-0.038,0.021-0.069,0.044-0.1,0.07l-5.374-4.43l2.9-3.977
									C126.176,3.38,126.283,3.399,126.39,3.387 M83.378,29.501l9.978-0.675c0.012,0.048,0.027,0.095,0.052,0.14
									c0.069,0.125,0.181,0.21,0.308,0.25l-0.901,6.003l-9.474-5.563C83.359,29.606,83.374,29.555,83.378,29.501 M91.618,44.233
									l1.314-8.767l2.199,1.291c-0.056,0.143-0.051,0.306,0.028,0.449c0.037,0.068,0.087,0.124,0.146,0.167l-3.669,6.865
									C91.632,44.236,91.626,44.234,91.618,44.233 M95.66,36.433c-0.025-0.002-0.05-0.002-0.073,0l-1.537-7.229
									c0.024-0.009,0.046-0.018,0.068-0.03c0.117-0.064,0.198-0.164,0.24-0.278l2.862,0.771L95.66,36.433z M97.403,29.557
									l1.843-7.995c0.073,0.007,0.148-0.004,0.222-0.03l5.366,9.776c-0.075,0.057-0.129,0.127-0.165,0.207L97.403,29.557z
									 M113.331,26.619l-1.269-8.778c0.027-0.01,0.058-0.022,0.085-0.037c0.086-0.048,0.151-0.114,0.199-0.193l4.344,1.485
									l-2.952,9.842c-0.026-0.004-0.048-0.007-0.074-0.007L113.331,26.619z M141.412,13.142c0.004,0.009,0.008,0.016,0.015,0.024
									l-9.512,8.081c-0.058-0.051-0.127-0.089-0.2-0.109l1.142-8.701l8.494,0.499C141.354,13.008,141.375,13.076,141.412,13.142
									 M117.665,14.448c0.085,0.122,0.212,0.198,0.354,0.219l-1.285,4.281l-4.329-1.479c0.02-0.083,0.02-0.169-0.002-0.255
									L117.665,14.448z M95.212,36.626l-2.256-1.324l0.909-6.063c0.011,0,0.021-0.001,0.03-0.002l1.54,7.228
									c-0.023,0.01-0.047,0.02-0.069,0.031C95.305,36.529,95.253,36.574,95.212,36.626 M131.16,21.316l-6.996-4.006l4.445-4.754
									c0.105,0.072,0.234,0.105,0.361,0.09l0.056,0.193l2.331,8.324c-0.013,0.006-0.026,0.011-0.038,0.019
									C131.256,21.217,131.202,21.264,131.16,21.316 M124.029,17.232l-5.411-3.1c0-0.027-0.005-0.053-0.009-0.079l7.441-1.336
									l2.36-0.424c0.008,0.029,0.02,0.059,0.035,0.085c0.017,0.027,0.032,0.051,0.05,0.074L124.029,17.232z M123.92,17.348
									l-2.557,2.735c-0.125-0.08-0.278-0.108-0.423-0.069l-1.058-2.462l-1.343-3.127c0.026-0.04,0.044-0.083,0.058-0.126
									L123.92,17.348z M116.879,18.998l1.3-4.333c0.058-0.008,0.113-0.027,0.169-0.056c0.03-0.017,0.056-0.035,0.081-0.057
									l1.309,3.049l1.061,2.474c-0.08,0.051-0.144,0.119-0.185,0.197L116.879,18.998z M129.418,12.235l3.283,0.192l-1.14,8.69
									c-0.018,0-0.038,0.001-0.056,0.004l-2.386-8.517c0.012-0.007,0.025-0.012,0.037-0.019
									C129.297,12.509,129.388,12.379,129.418,12.235 M131.065,21.51l-9.47-1.02c-0.002-0.076-0.023-0.152-0.062-0.222
									c-0.018-0.031-0.036-0.057-0.058-0.082l2.581-2.761l7.027,4.025C131.075,21.469,131.069,21.488,131.065,21.51
									 M120.615,20.771c0.02,0.033,0.039,0.063,0.062,0.09l-6.744,8.146c-0.016-0.009-0.032-0.02-0.048-0.026l2.95-9.837
									l3.727,1.273C120.537,20.533,120.554,20.659,120.615,20.771 M97.255,29.517l-2.865-0.772
									c0.004-0.095-0.014-0.191-0.063-0.281c-0.025-0.049-0.06-0.091-0.098-0.126l4.822-6.829c0.017,0.007,0.03,0.014,0.044,0.02
									L97.255,29.517z M112.057,16.847l1.23-7.376l4.388,4.369c-0.1,0.134-0.129,0.309-0.077,0.47l-5.255,2.763
									C112.274,16.961,112.172,16.885,112.057,16.847 M113.319,9.283l1.388-8.328c0.02,0.001,0.039,0,0.06-0.002l3.131,12.712
									c-0.021,0.009-0.036,0.017-0.054,0.026c-0.022,0.012-0.042,0.023-0.062,0.04L113.319,9.283z M118.554,13.898
									c-0.025-0.046-0.055-0.086-0.091-0.121l4.628-6.345l5.368,4.426c-0.054,0.084-0.08,0.185-0.076,0.284l-9.824,1.765
									C118.557,13.904,118.554,13.9,118.554,13.898 M129.364,11.875c-0.028-0.054-0.065-0.1-0.109-0.138l4.298-6.513
									c0.028,0.012,0.058,0.021,0.09,0.028l-0.922,7.022l-3.293-0.194C129.422,12.01,129.399,11.94,129.364,11.875 M134.095,5.145
									l7.357,7.431c-0.046,0.063-0.079,0.135-0.094,0.209l-8.482-0.5l0.919-7.02c0.073-0.005,0.147-0.025,0.215-0.063
									C134.041,5.185,134.069,5.165,134.095,5.145 M141.627,13.353l-5.764,16.507c-0.081-0.015-0.168-0.012-0.252,0.014
									l-3.746-7.798c0.221-0.15,0.296-0.446,0.165-0.686c-0.004-0.01-0.01-0.018-0.014-0.024l9.509-8.081
									C141.558,13.312,141.591,13.334,141.627,13.353 M135.379,30.021l-9.009-6.043l4.757-2.062
									c0.127,0.205,0.375,0.294,0.6,0.225l3.746,7.798C135.437,29.964,135.407,29.991,135.379,30.021 M126.217,23.877
									l-4.671-3.133c0.016-0.033,0.028-0.066,0.036-0.103l9.468,1.021c0,0.038,0.006,0.075,0.016,0.113L126.217,23.877z
									 M126.051,23.949l-11.974,5.188c-0.008-0.012-0.016-0.022-0.025-0.033l6.742-8.143c0.156,0.099,0.359,0.112,0.531,0.018
									c0.054-0.028,0.098-0.066,0.136-0.107L126.051,23.949z M113.254,29.127l-5.323-3.116l3.85-8.156
									c0.042,0.009,0.086,0.014,0.129,0.013l0.24,1.666l1.362,9.419c-0.034,0.011-0.069,0.024-0.102,0.044
									C113.349,29.028,113.295,29.074,113.254,29.127 M107.798,25.932l-8.026-4.696c0.034-0.083,0.046-0.175,0.034-0.265
									l11.634-3.369c0.049,0.085,0.117,0.151,0.196,0.196L107.798,25.932z M107.73,26.071l-2.43,5.153
									c-0.105-0.034-0.223-0.031-0.332,0.01l-5.366-9.777c0.034-0.026,0.066-0.057,0.092-0.089L107.73,26.071z M104.657,31.905
									l-8.622,4.733c-0.06-0.08-0.139-0.137-0.226-0.172l1.558-6.762l7.263,1.959C104.62,31.744,104.63,31.827,104.657,31.905
									 M91.281,44.237l-8.104-14.366c0.032-0.023,0.062-0.053,0.086-0.083l9.527,5.594l-1.324,8.825
									C91.404,44.206,91.341,44.216,91.281,44.237 M88.922,24.473l4.505,3.958c-0.048,0.072-0.073,0.156-0.081,0.241l-9.98,0.676
									c-0.01-0.047-0.025-0.096-0.051-0.141c-0.005-0.007-0.009-0.014-0.015-0.021L88.922,24.473z M89.041,24.372l2.913-2.441
									c0.109,0.098,0.258,0.145,0.404,0.129l1.267,6.191c-0.004,0.002-0.008,0.002-0.01,0.004c-0.031,0.019-0.06,0.038-0.087,0.06
									L89.041,24.372z M92.823,21.526l1.947-0.123l-0.911,6.787c-0.029,0-0.06,0.004-0.087,0.009l-1.265-6.18
									c0.014-0.007,0.029-0.014,0.044-0.021C92.73,21.901,92.827,21.715,92.823,21.526 M94.928,21.393l3.848-0.243
									c0.01,0.049,0.027,0.096,0.052,0.143c0.025,0.048,0.06,0.09,0.097,0.125l-4.848,6.818c-0.02-0.008-0.042-0.017-0.063-0.024
									L94.928,21.393z M111.378,17.41c0.002,0.015,0.004,0.03,0.008,0.047l-8.566,2.479l-3.058,0.886
									c-0.006-0.011-0.01-0.023-0.016-0.034c-0.137-0.249-0.447-0.342-0.697-0.214l-3.085-4.344
									c0.084-0.067,0.141-0.158,0.171-0.257L111.378,17.41z M112.603,7.971c-0.054-0.094-0.131-0.169-0.223-0.214l2.097-6.352
									l-1.292,7.746l-0.62-0.617C112.682,8.376,112.704,8.156,112.603,7.971 M115.066,0.822l7.903,6.514l-4.632,6.351
									c-0.09-0.048-0.19-0.067-0.292-0.058l-3.131-12.712c0.018-0.008,0.036-0.016,0.054-0.025
									C115.005,0.872,115.036,0.847,115.066,0.822 M115.207,0.614l10.596,2.223c-0.006,0.096,0.014,0.191,0.063,0.283
									c0.023,0.046,0.056,0.085,0.091,0.12l-2.896,3.972l-7.896-6.51C115.182,0.675,115.195,0.645,115.207,0.614 M126.807,3.069
									l6.431,1.622c-0.01,0.102,0.008,0.207,0.063,0.305c0.029,0.058,0.073,0.107,0.121,0.146l-4.294,6.511
									c-0.09-0.041-0.188-0.058-0.286-0.045l-2.303-8.262c0.012-0.008,0.025-0.014,0.037-0.021
									C126.686,3.267,126.764,3.175,126.807,3.069 M143.235,9.533l-1.231,2.851c-0.125-0.032-0.262-0.02-0.385,0.047
									c-0.021,0.011-0.04,0.023-0.058,0.037l-7.365-7.439c0.004-0.004,0.004-0.007,0.006-0.011L143.235,9.533z M143.374,9.602
									l5.918,2.957c-0.012,0.031-0.02,0.063-0.024,0.097l-6.881,0.146c-0.01-0.057-0.027-0.111-0.058-0.163
									c-0.045-0.084-0.108-0.147-0.183-0.194L143.374,9.602z M143.436,9.46l3.051-7.071c0.07,0.019,0.142,0.024,0.213,0.016
									l0.613,2.106l2.255,7.734c-0.01,0.006-0.02,0.01-0.031,0.016c-0.073,0.04-0.133,0.096-0.177,0.159L143.436,9.46z
									 M147.138,2.012l3.294,0.379l-0.686,9.808c-0.01,0-0.02,0.002-0.029,0.004l-2.27-7.779l-0.602-2.063
									c0.013-0.005,0.024-0.01,0.036-0.016C147.015,2.271,147.103,2.148,147.138,2.012 M150.584,2.407l9.817,1.129
									c0.004,0.079,0.023,0.159,0.063,0.234c0.004,0.007,0.008,0.012,0.012,0.018l-7.035,5.813l-3.304,2.729
									c-0.067-0.061-0.151-0.101-0.238-0.121L150.584,2.407z M150.594,2.253l0.566-8.108c0.058-0.01,0.113-0.027,0.167-0.058
									c0.045-0.023,0.085-0.055,0.119-0.088l9.061,9.204c-0.04,0.055-0.069,0.115-0.088,0.179L150.594,2.253z M161.301-4.057
									l4.813,1.089c-0.019,0.112-0.002,0.23,0.058,0.338c0.006,0.014,0.016,0.025,0.023,0.038l-4.985,5.669
									c-0.058-0.035-0.121-0.062-0.187-0.074L161.301-4.057z M167.113,4.577c-0.046,0.012-0.091,0.027-0.135,0.052
									c-0.107,0.06-0.188,0.152-0.232,0.259l-3.687-0.917l3.35-6.379c0.049,0.024,0.103,0.039,0.158,0.047L167.113,4.577z
									 M157.974,13.699c-0.004-0.003-0.01-0.007-0.017-0.01l5.029-9.579l3.722,0.928c-0.008,0.101,0.013,0.207,0.064,0.303
									c0.008,0.015,0.018,0.031,0.027,0.046L157.974,13.699z M150.463,15.127c-0.01-0.033-0.023-0.065-0.041-0.098
									c-0.015-0.026-0.032-0.052-0.05-0.074l1.642-1.763l5.112,0.905c0,0.005,0,0.011,0,0.016L150.463,15.127z M114.45,29.143
									l11.751-5.091l9.093,6.098c-0.02,0.038-0.032,0.078-0.04,0.12L114.45,29.143z M105.63,31.516
									c-0.006-0.014-0.014-0.028-0.021-0.042c-0.042-0.079-0.102-0.14-0.169-0.184l2.426-5.141l5.311,3.109
									c-0.031,0.08-0.043,0.167-0.033,0.254L105.63,31.516z M91.777,21.559c0.002,0.079,0.023,0.158,0.063,0.232l0.014,0.021
									l-2.93,2.457l-3.73-3.277c0.031-0.046,0.052-0.098,0.065-0.152L91.777,21.559z M95.42,16.301
									c0.01,0.006,0.022,0.01,0.034,0.014l-0.661,4.933l-1.997,0.126c-0.008-0.028-0.022-0.059-0.038-0.086
									c-0.036-0.066-0.085-0.121-0.143-0.165L95.42,16.301z M96.125,15.642l15.58-7.134c0.081,0.126,0.208,0.207,0.348,0.231
									l-0.221,8.085c-0.062,0.009-0.127,0.027-0.188,0.061c-0.145,0.079-0.238,0.219-0.264,0.37L96.158,15.82
									c-0.002-0.062-0.014-0.125-0.037-0.188L96.125,15.642z M146.138,2.062c0.01,0.026,0.02,0.052,0.033,0.075
									c0.044,0.08,0.105,0.144,0.175,0.189l-3.049,7.065l-9.033-4.516c0.016-0.058,0.021-0.119,0.016-0.18L146.138,2.062z
									 M150.908-5.877c0.031,0.012,0.063,0.019,0.097,0.023l-0.563,8.09l-3.29-0.378c-0.004-0.075-0.023-0.154-0.063-0.225
									c-0.037-0.071-0.091-0.129-0.152-0.174L150.908-5.877z M161.72-9.165l4.54,5.912c-0.042,0.041-0.075,0.088-0.1,0.138
									l-4.854-1.099l0.19-4.86c0.06-0.009,0.115-0.028,0.169-0.058C161.686-9.143,161.702-9.153,161.72-9.165"/>
							</g>
						</g>
					</g>
					<path clip-path="url(#SVGID_8_)" fill="#5BC7D4" d="M99.154,60.138l7.911,4.636c-0.065,0.237,0.01,0.503,0.215,0.67
						c0.273,0.223,0.679,0.182,0.903-0.094c0.16-0.199,0.185-0.467,0.079-0.683l9.303-7.641c0.276,0.203,0.663,0.157,0.882-0.11
						c0.224-0.274,0.183-0.68-0.094-0.904c-0.075-0.062-0.163-0.102-0.254-0.125l1.126-10.173c0.175-0.012,0.345-0.09,0.462-0.236
						c0.161-0.196,0.185-0.46,0.084-0.676l12.269-8.473c0.016,0.017,0.036,0.034,0.054,0.05c0.275,0.225,0.679,0.183,0.903-0.094
						c0.097-0.118,0.143-0.258,0.145-0.399l8.057-1.126c0.033,0.122,0.104,0.232,0.21,0.317c0.276,0.224,0.679,0.182,0.903-0.093
						c0.102-0.124,0.149-0.276,0.144-0.425l13.068-2.366c0.038,0.11,0.105,0.213,0.202,0.292c0.276,0.224,0.68,0.182,0.903-0.093
						c0.225-0.276,0.183-0.681-0.091-0.904c-0.107-0.086-0.229-0.132-0.355-0.142l-0.59-8.776c0.14-0.029,0.267-0.104,0.363-0.222
						c0.193-0.237,0.187-0.571,0.006-0.802l14.413-15.302l-0.069-0.067c0,0.001,0,0.001,0,0.001
						c0.276,0.224,0.681,0.184,0.905-0.093c0.223-0.275,0.181-0.679-0.093-0.903c-0.062-0.049-0.128-0.084-0.197-0.108l0.961-6.786
						c0.181-0.006,0.355-0.087,0.479-0.236c0.115-0.143,0.159-0.317,0.137-0.487l7.739-2.194c0.039,0.089,0.099,0.169,0.179,0.234
						c0.275,0.224,0.681,0.182,0.905-0.092c0.224-0.275,0.183-0.681-0.094-0.904c-0.123-0.101-0.273-0.147-0.421-0.144l-1.666-9.571
						c0.113-0.038,0.217-0.106,0.296-0.206c0.225-0.273,0.183-0.679-0.091-0.903c-0.254-0.205-0.613-0.187-0.844,0.029
						l-15.843-12.582c0.165-0.27,0.109-0.625-0.143-0.83c-0.276-0.224-0.679-0.182-0.903,0.093
						c-0.225,0.275-0.183,0.679,0.094,0.903c0.071,0.059,0.152,0.1,0.236,0.122l-0.999,9.499c-0.177,0.008-0.35,0.086-0.471,0.233
						c-0.202,0.252-0.187,0.606,0.026,0.839l-7.618,9.361c-0.268-0.16-0.621-0.104-0.823,0.146
						c-0.171,0.208-0.188,0.489-0.067,0.713l-7.612,5.746c-0.016-0.014-0.029-0.028-0.045-0.041
						c-0.276-0.223-0.68-0.182-0.903,0.093c-0.201,0.247-0.187,0.6,0.018,0.83l-24.496,8.441c-0.04-0.076-0.093-0.145-0.165-0.202
						c-0.273-0.224-0.679-0.182-0.903,0.094c-0.224,0.274-0.183,0.679,0.094,0.903c0.102,0.083,0.221,0.129,0.342,0.141
						l1.071,21.421c-0.141,0.028-0.273,0.104-0.371,0.225c-0.089,0.11-0.137,0.242-0.143,0.374l-9.039,0.896
						c-0.031-0.131-0.105-0.252-0.217-0.344c-0.275-0.224-0.679-0.182-0.903,0.093c-0.152,0.189-0.183,0.439-0.097,0.649
						l-7.104,4.229c-0.025-0.033-0.058-0.064-0.091-0.092c-0.276-0.225-0.682-0.183-0.903,0.093
						c-0.225,0.274-0.183,0.679,0.093,0.902c0.019,0.016,0.036,0.028,0.054,0.04l-6.194,13.525
						c-0.239-0.069-0.508,0.006-0.677,0.212c-0.224,0.275-0.181,0.68,0.094,0.904c0.177,0.143,0.405,0.178,0.605,0.111l3.821,7.627
						c-0.058,0.036-0.111,0.081-0.156,0.138c-0.223,0.275-0.181,0.68,0.093,0.903C98.529,60.447,98.928,60.406,99.154,60.138
						 M107.528,64.322l-2.014-5.573l11.858-1.954c0.018,0.034,0.038,0.064,0.06,0.096l-0.874,0.719l-8.401,6.898
						c-0.021-0.021-0.044-0.042-0.067-0.063C107.925,64.313,107.717,64.273,107.528,64.322 M154.908,21.61l-1.111-0.468
						l-1.879-8.367l3.229,8.606c-0.069,0.038-0.135,0.091-0.187,0.156C154.939,21.561,154.924,21.587,154.908,21.61 M170.266,5.221
						l-5.526-3.52c0.063-0.145,0.071-0.307,0.025-0.451l4.227-2.038l1.511,5.862C170.415,5.104,170.334,5.152,170.266,5.221
						 M180.252-5.192l-5.726-1.992l4.199-7.927c0.073,0.025,0.152,0.038,0.228,0.036l1.666,9.572
						c-0.111,0.038-0.217,0.105-0.296,0.203C180.296-5.265,180.271-5.229,180.252-5.192 M107.769,34.918l-5.441,14.272
						c-0.034-0.007-0.066-0.012-0.1-0.014l-1.059-12.287c0.132-0.031,0.257-0.104,0.35-0.219c0.105-0.131,0.151-0.29,0.142-0.446
						L107.769,34.918z M117.315,56.613l-11.866,1.956l-2.956-8.187c0.072-0.038,0.14-0.093,0.193-0.159
						c0.018-0.022,0.033-0.044,0.047-0.067l14.576,6.289C117.304,56.501,117.308,56.559,117.315,56.613 M101.783,50.316
						c0.035,0.027,0.069,0.05,0.106,0.069l-2.999,8.61l0.855-8.733l1.828-0.262C101.608,50.121,101.68,50.23,101.783,50.316
						 M99.764,50.068l1.251-12.772l1.026,11.897c-0.135,0.032-0.258,0.104-0.352,0.22c-0.096,0.118-0.141,0.26-0.141,0.401
						L99.764,50.068z M107.988,34.87l2.008-0.428c0.037,0.102,0.103,0.197,0.194,0.271c0.008,0.006,0.016,0.011,0.021,0.016
						l-3.283,6.097l-4.136,7.671L107.988,34.87z M108.068,34.659l1.01-2.646c0.109,0.023,0.225,0.019,0.332-0.015l0.824,1.688
						c-0.05,0.034-0.096,0.075-0.136,0.123c-0.106,0.133-0.152,0.291-0.143,0.447L108.068,34.659z M109.856,31.418l9.037-0.894
						c0.002,0.002,0.002,0.005,0.004,0.009l-7.754,3.344c-0.038-0.058-0.084-0.112-0.142-0.158c-0.175-0.142-0.4-0.178-0.6-0.114
						l-0.823-1.688c0.05-0.035,0.095-0.075,0.135-0.124C109.803,31.682,109.851,31.55,109.856,31.418 M141.5,34.02l-6.435-8.326
						c0.014-0.014,0.026-0.027,0.036-0.041c0.031-0.039,0.06-0.081,0.079-0.125l8.155,2.552l-1.459,5.862
						C141.746,33.928,141.617,33.956,141.5,34.02 M178.326-15.523l-11.028,5.375c-0.033-0.049-0.075-0.096-0.125-0.135
						c-0.135-0.11-0.302-0.156-0.462-0.143l-1.749-7.237l13.335,1.948C178.297-15.65,178.307-15.586,178.326-15.523 M162.156-28.461
						l2.555,10.571l-3.097-0.454c-0.002-0.186-0.081-0.37-0.238-0.495c-0.073-0.061-0.156-0.102-0.244-0.124l0.999-9.498
						C162.139-28.461,162.148-28.461,162.156-28.461 M161.166-17.73c0.027-0.009,0.056-0.02,0.083-0.032l5.084,7.505
						c-0.021,0.021-0.043,0.043-0.063,0.067c-0.101,0.125-0.148,0.277-0.143,0.426l-3.607,0.446L161.166-17.73z M162.36-9.109
						l1.599,9.937c-0.088,0.028-0.169,0.074-0.238,0.139l-10.615-8.635c0.06-0.098,0.088-0.204,0.092-0.311L162.36-9.109z
						 M145.613,1.584l5.497,9.392c-0.029,0.023-0.056,0.052-0.081,0.082c-0.076,0.093-0.121,0.2-0.138,0.31l-5.62,0.319
						l-1.19-12.547c0.029-0.009,0.057-0.018,0.085-0.028L145.613,1.584z M119.922,29.868c-0.01-0.007-0.02-0.012-0.027-0.02
						l7.077-13.576c0.089,0.03,0.185,0.041,0.28,0.03l2.72,10.417l-9.883,3.354C120.049,29.997,119.993,29.927,119.922,29.868
						 M146.308,17.418c-0.152-0.1-0.333-0.126-0.502-0.086l-0.518-5.457l5.604-0.317c0.017,0.103,0.056,0.2,0.119,0.286
						L146.308,17.418z M161.587-18.156l3.172,0.464l1.767,7.313c-0.01,0.004-0.021,0.009-0.031,0.014l-5.088-7.503
						c0.021-0.021,0.043-0.043,0.063-0.067C161.525-18.004,161.563-18.078,161.587-18.156 M127.798,15.844l9.801,1.324l-2.856,7.453
						c-0.153-0.034-0.313-0.011-0.453,0.065l-0.15-0.193l-6.494-8.384c0.012-0.014,0.024-0.025,0.036-0.039
						C127.736,16.001,127.775,15.924,127.798,15.844 M137.789,17.193l7.582,1.023c0.014,0.03,0.027,0.059,0.046,0.087l-7.84,4.954
						l-2.485,1.57c-0.026-0.027-0.052-0.055-0.082-0.079c-0.029-0.022-0.06-0.043-0.091-0.061L137.789,17.193z M137.858,17.013
						l1.645-4.291c0.179,0.037,0.365-0.006,0.512-0.117l2.341,2.311l2.968,2.935c-0.008,0.057-0.012,0.113-0.006,0.17
						L137.858,17.013z M145.099,11.886l0.524,5.522c-0.062,0.036-0.117,0.084-0.165,0.143c-0.025,0.031-0.047,0.066-0.067,0.102
						l-2.895-2.86l-2.349-2.321c0.069-0.095,0.109-0.202,0.119-0.312L145.099,11.886z M133.974,25.361l-3.823,1.298l-2.716-10.404
						c0.02-0.008,0.041-0.02,0.062-0.03l6.645,8.578c-0.012,0.013-0.022,0.025-0.036,0.04
						C133.983,24.993,133.939,25.184,133.974,25.361 M127.817,15.581l11.232-3.214c0.04,0.084,0.098,0.161,0.175,0.224
						c0.032,0.025,0.065,0.048,0.102,0.066l-1.658,4.329l-9.845-1.329C127.823,15.631,127.821,15.605,127.817,15.581
						 M140.034,11.594c-0.035-0.028-0.073-0.053-0.112-0.073l3.904-12.371c0.022,0.004,0.044,0.005,0.067,0.007l1.188,12.54
						l-4.822,0.274C140.233,11.827,140.155,11.693,140.034,11.594 M162.548-9.132l3.612-0.445c0.038,0.109,0.105,0.212,0.203,0.291
						c0.052,0.042,0.109,0.074,0.169,0.099l-2.327,9.986c-0.02-0.002-0.04-0.002-0.06-0.002L162.548-9.132z M151.575,12.104
						l2.009,8.951l-7.004-2.939c0.048-0.197,0.004-0.411-0.131-0.57l4.697-5.566C151.273,12.073,151.426,12.114,151.575,12.104
						 M153.632,21.28l2.269,10.107c-0.021,0.008-0.043,0.019-0.063,0.03l-9.432-13.003c0.018-0.017,0.034-0.034,0.05-0.054
						c0.02-0.022,0.037-0.047,0.05-0.072L153.632,21.28z M145.552,18.455c0.05,0.04,0.104,0.07,0.161,0.094l-2.331,9.347
						l-8.144-2.549c0.018-0.121,0.002-0.246-0.046-0.358l10.352-6.542C145.546,18.45,145.548,18.451,145.552,18.455 M134.198,25.746
						c0.058,0.047,0.123,0.081,0.188,0.104l-1.876,9.389c-0.038-0.001-0.078,0.001-0.115,0.009l-2.196-8.405l3.834-1.303
						C134.071,25.619,134.127,25.688,134.198,25.746 M131.931,35.581l-11.794-5.05c0.025-0.092,0.027-0.187,0.012-0.279l9.873-3.349
						l2.193,8.402c-0.079,0.039-0.153,0.096-0.213,0.17C131.975,35.509,131.95,35.545,131.931,35.581 M119.578,29.729l-1.071-21.422
						c0.103-0.021,0.198-0.065,0.281-0.134l7.858,7.134c-0.181,0.272-0.13,0.645,0.129,0.855c0.01,0.008,0.02,0.015,0.029,0.021
						l-7.079,13.577C119.68,29.745,119.628,29.733,119.578,29.729 M118.983,7.899l13.031,2.707l-4.455,4.539
						c-0.24-0.174-0.563-0.16-0.784,0.021l-7.86-7.134C118.943,7.992,118.965,7.946,118.983,7.899 M132.234,10.651l6.754,1.403
						c-0.002,0.046,0,0.088,0.008,0.133l-11.23,3.212c-0.02-0.043-0.044-0.083-0.071-0.121L132.234,10.651z M132.392,10.492
						l11.211-11.424c0.014,0.009,0.029,0.017,0.045,0.024l-3.904,12.367c-0.223-0.041-0.459,0.039-0.611,0.227
						c-0.046,0.058-0.08,0.119-0.104,0.184L132.392,10.492z M144.543-1.3l7.488,1.083l-0.607,11.047
						c-0.054,0.008-0.105,0.023-0.152,0.044l-1.045-1.781l-5.896-10.077c0.033-0.027,0.065-0.06,0.095-0.095
						C144.481-1.146,144.52-1.222,144.543-1.3 M152.218-0.19l11.292,1.633c0,0.11,0.03,0.22,0.086,0.315l-11.669,9.203
						c-0.094-0.076-0.203-0.119-0.314-0.133L152.218-0.19z M152.23-0.379l0.383-6.979c0.137-0.013,0.268-0.067,0.375-0.165
						L163.6,1.113c-0.025,0.044-0.048,0.093-0.062,0.143L152.23-0.379z M153.03-8.43l7.613-9.361
						c0.105,0.063,0.221,0.094,0.336,0.092l1.352,8.403l-9.158,1.128C153.147-8.264,153.098-8.353,153.03-8.43 M162.537-28.622
						l15.847,12.584c-0.025,0.044-0.046,0.09-0.06,0.136l-13.412-1.959l-2.571-10.641C162.412-28.529,162.479-28.569,162.537-28.622
						 M174.346-7.247l-6.946-2.418c0.02-0.104,0.012-0.214-0.02-0.313l11.029-5.375c0.034,0.051,0.076,0.095,0.123,0.135
						c0.011,0.007,0.019,0.012,0.026,0.018L174.346-7.247z M174.257-7.079l-2.183,4.12c-0.17-0.061-0.359-0.045-0.52,0.042
						l-4.298-6.453c0.002-0.002,0.006-0.006,0.01-0.009c0.027-0.034,0.052-0.07,0.071-0.108L174.257-7.079z M171.272-2.098
						l-2.156,1.04l-2.098-8.136c0.031-0.013,0.063-0.031,0.095-0.051l4.29,6.44c-0.014,0.015-0.027,0.029-0.039,0.044
						C171.207-2.565,171.182-2.31,171.272-2.098 M168.942-0.974l-4.259,2.053c-0.034-0.052-0.077-0.097-0.125-0.138
						c-0.054-0.043-0.109-0.075-0.169-0.099l2.36-9.986c0.028,0.001,0.056,0.001,0.086-0.003L168.942-0.974z M152.087,11.149
						c-0.01-0.017-0.018-0.034-0.029-0.05l8.59-6.775l3.065-2.417c0.01,0.011,0.021,0.021,0.033,0.031
						c0.271,0.22,0.663,0.184,0.89-0.079l5.516,3.512c-0.066,0.116-0.09,0.246-0.078,0.372L152.087,11.149z M155.051,22.441
						c0.105,0.086,0.23,0.132,0.354,0.142l0.55,8.187l-2.108-9.399l0.991,0.415C154.775,22.02,154.851,22.278,155.051,22.441
						 M155.554,31.707l-11.991-3.755l2.333-9.357c0.123,0.012,0.248-0.011,0.359-0.069l9.428,13.003
						c-0.019,0.017-0.034,0.034-0.05,0.053C155.601,31.621,155.577,31.663,155.554,31.707 M155.49,32.006l-13.069,2.367
						c-0.038-0.111-0.104-0.213-0.202-0.293c-0.048-0.04-0.104-0.07-0.159-0.095l1.457-5.85l11.981,3.751
						C155.492,31.927,155.49,31.967,155.49,32.006 M141.172,34.574l-8.056,1.125c-0.036-0.12-0.105-0.231-0.211-0.317
						c-0.065-0.05-0.135-0.088-0.208-0.111l1.874-9.382c0.121,0.006,0.24-0.021,0.346-0.081l6.434,8.327
						c-0.012,0.013-0.023,0.025-0.035,0.038C141.22,34.291,141.174,34.433,141.172,34.574 M119.515,34.814l0.082-3.811
						c0.158-0.02,0.31-0.098,0.419-0.231c0.018-0.021,0.033-0.045,0.048-0.069l11.806,5.057c-0.002,0.004-0.002,0.008-0.002,0.014
						L119.515,34.814z M119.326,34.8l-8.09-0.629c-0.002-0.04-0.01-0.08-0.02-0.12l7.754-3.345c0.036,0.059,0.084,0.112,0.142,0.16
						c0.089,0.072,0.19,0.116,0.296,0.135L119.326,34.8z M119.322,34.988l-0.202,9.446c-0.088,0.01-0.171,0.036-0.248,0.08
						l-1.672-2.111l-6.137-7.749c0.013-0.01,0.022-0.022,0.032-0.032c0.063-0.079,0.105-0.17,0.127-0.264L119.322,34.988z
						 M118.554,45.164l-3.916,1.091l-3.753-11.465c0.011-0.005,0.021-0.013,0.032-0.018l6.17,7.793l1.636,2.066
						c-0.01,0.012-0.021,0.022-0.031,0.035C118.574,44.812,118.53,44.992,118.554,45.164 M114.455,46.305l-11.68,3.252
						c-0.04-0.089-0.1-0.172-0.181-0.238c-0.008-0.005-0.014-0.009-0.021-0.015l5.313-9.857l2.493-4.627
						c0.107,0.038,0.217,0.048,0.325,0.029L114.455,46.305z M114.513,46.484l3.103,9.478c-0.062,0.037-0.117,0.084-0.165,0.144
						c-0.039,0.049-0.069,0.101-0.093,0.154l-14.548-6.276c0.021-0.081,0.025-0.163,0.016-0.246L114.513,46.484z M105.259,58.6
						l-5.972,0.984c-0.029-0.135-0.105-0.262-0.22-0.355c-0.017-0.013-0.03-0.023-0.046-0.033l3.047-8.746
						c0.082,0.016,0.167,0.014,0.246-0.002L105.259,58.6z M94.666,51.471c0.045-0.032,0.091-0.072,0.129-0.119
						c0.095-0.12,0.143-0.262,0.143-0.402l4.616-0.659l-0.862,8.795c-0.067-0.003-0.135,0.004-0.2,0.022L94.666,51.471z
						 M100.842,36.883c0.008,0.001,0.016,0.003,0.021,0.005l-1.292,13.208l-4.659,0.667c-0.036-0.12-0.105-0.231-0.211-0.315
						c-0.018-0.015-0.035-0.027-0.056-0.041L100.842,36.883z M108.717,31.793c0.028,0.032,0.06,0.064,0.094,0.091
						c0.028,0.024,0.06,0.044,0.092,0.063l-1.055,2.759l-6.226,1.334c-0.002-0.006-0.006-0.013-0.008-0.019L108.717,31.793z
						 M143.173-0.767l-11.002,11.212l-13.15-2.731c0.004-0.051,0-0.104-0.008-0.155L143.173-0.767z M152.104-7.538
						c0.015,0.013,0.028,0.028,0.044,0.04c0.084,0.067,0.179,0.111,0.276,0.132l-0.382,6.959l-7.472-1.081
						c0-0.104-0.028-0.21-0.08-0.305L152.104-7.538z M172.446-2.617c-0.038-0.089-0.098-0.169-0.179-0.234
						c-0.009-0.007-0.017-0.012-0.026-0.019l2.196-4.146l5.753,2.002c-0.012,0.067-0.014,0.136-0.006,0.202L172.446-2.617z
						 M170.736,5.041c-0.016-0.002-0.031-0.002-0.048,0l-1.524-5.912l2.21-1.064c0.025,0.027,0.052,0.055,0.081,0.079
						c0.075,0.06,0.155,0.101,0.24,0.123L170.736,5.041z M170.238,6.115l-14.415,15.302c-0.148-0.105-0.331-0.138-0.5-0.102
						l-3.484-9.29c0.069-0.039,0.133-0.092,0.187-0.157c0.127-0.157,0.169-0.356,0.129-0.542l17.963-5.399
						c0.029,0.069,0.073,0.138,0.129,0.196L170.238,6.115z M119.668,44.645c-0.023-0.024-0.046-0.048-0.073-0.069
						c-0.086-0.07-0.185-0.114-0.286-0.134l0.202-9.438l12.353,0.959c0.01,0.074,0.03,0.145,0.065,0.213L119.668,44.645z
						 M117.913,55.87c-0.042,0.002-0.084,0.009-0.123,0.019l-3.095-9.455l3.912-1.089c0.04,0.085,0.1,0.162,0.177,0.227
						c0.076,0.062,0.163,0.103,0.255,0.124L117.913,55.87z M107.143,64.6l-7.891-4.623c0.027-0.065,0.045-0.134,0.049-0.203
						l6.023-0.992l2.027,5.614c-0.062,0.036-0.117,0.085-0.165,0.144C107.171,64.559,107.157,64.578,107.143,64.6"/>
				</g>
			</g>
		</g>
	</g>
</g>
<path fill="#1EABE2" d="M8.147,15.187H1.4v34.251h9.791V19.486C11.162,15.676,8.84,15.234,8.147,15.187"/>
<g>
	<defs>
		<path id="SVGID_107_" d="M1.4,0.532v0.623v5.884v0.101c0.015,0.545,0.299,3.14,4.376,3.14h10.322v39.16h0.114h9.659l0.006-1.727
			V10.32h13.696c5.037,0.014,17.074,0.328,20.864,3.91c4.85-0.822,9.512-2.643,9.498-5.945C70.385,1.286,49.479,0.512,41.542,0.5
			c-0.071,0-0.2,0-0.379,0C36.77,0.5,1.4,0.532,1.4,0.532"/>
	</defs>
	<clipPath id="SVGID_17_">
		<use xlink:href="#SVGID_107_"  overflow="visible"/>
	</clipPath>
	
		<linearGradient id="SVGID_19_" gradientUnits="userSpaceOnUse" x1="-595.2891" y1="315.8438" x2="-595.1552" y2="315.8438" gradientTransform="matrix(510.9893 0 0 -510.9893 304187.625 161417.75)">
		<stop  offset="0" style="stop-color:#06ABE1"/>
		<stop  offset="0.1864" style="stop-color:#0FA6D9"/>
		<stop  offset="0.3633" style="stop-color:#199BC8"/>
		<stop  offset="0.5363" style="stop-color:#218AB1"/>
		<stop  offset="0.7071" style="stop-color:#247593"/>
		<stop  offset="0.8746" style="stop-color:#215C72"/>
		<stop  offset="1" style="stop-color:#1B4859"/>
	</linearGradient>
	<rect x="1.4" y="0.5" clip-path="url(#SVGID_17_)" fill="url(#SVGID_19_)" width="68.985" height="48.938"/>
</g>
<g>
	<defs>
		<path id="SVGID_110_" d="M62.262,13.871c-0.719,0.175-2.25,0.458-2.392,0.482c-0.001,0-0.003,0-0.005,0.001
			c-3.784,0.641-7.723,0.801-10.014,0.835H30.786v6.661c0.02,0.574,0.337,3.068,4.257,3.119h5.499v24.469h9.792V25.135l1.631-0.003
			c6.374-0.069,17.945-0.896,17.941-5.973c-0.004-5.192-0.004-8.843-0.005-10.388C69.452,11.392,66.148,12.926,62.262,13.871"/>
	</defs>
	<clipPath id="SVGID_21_">
		<use xlink:href="#SVGID_110_"  overflow="visible"/>
	</clipPath>
	
		<linearGradient id="SVGID_23_" gradientUnits="userSpaceOnUse" x1="-595.2188" y1="315.9287" x2="-595.0845" y2="315.9287" gradientTransform="matrix(291.6461 0 0 -291.6461 173624.1875 92168.4922)">
		<stop  offset="0" style="stop-color:#06ABE1"/>
		<stop  offset="1" style="stop-color:#0AAEC9"/>
	</linearGradient>
	<rect x="30.786" y="8.772" clip-path="url(#SVGID_21_)" fill="url(#SVGID_23_)" width="39.124" height="40.667"/>
</g>
<g>
	<path fill="#FFFFFF" d="M85.805,7.614h2.842l5.315,23.802h-3.41l-1.003-5.114h-4.646l-1.003,5.114h-3.41L85.805,7.614z
		 M87.242,14.468h-0.066l-1.672,8.624h3.41L87.242,14.468z"/>
	<path fill="#FFFFFF" d="M95.733,7.614h3.409v23.802h-3.409V7.614z"/>
	<path fill="#FFFFFF" d="M102.452,7.614h5.048c1.938,0,3.421,0.541,4.446,1.622c1.024,1.081,1.537,2.591,1.537,4.529v11.132
		c0,2.229-0.54,3.872-1.621,4.931s-2.636,1.588-4.663,1.588h-4.747V7.614z M105.862,28.207h1.571c0.957,0,1.638-0.239,2.039-0.719
		c0.4-0.479,0.602-1.231,0.602-2.257V13.766c0-0.937-0.189-1.66-0.568-2.173s-1.07-0.769-2.072-0.769h-1.571V28.207z"/>
	<path fill="#FFFFFF" d="M120.27,17.644c1.024,0,1.732-0.122,2.123-0.368c0.39-0.245,0.585-0.813,0.585-1.705v-3.075
		c0-0.49-0.15-0.891-0.452-1.203c-0.301-0.312-0.707-0.468-1.22-0.468c-0.602,0-1.031,0.189-1.287,0.568
		c-0.257,0.379-0.385,0.746-0.385,1.103v1.939h-3.409v-1.973c0-0.69,0.134-1.349,0.401-1.973c0.267-0.623,0.635-1.158,1.103-1.604
		c0.469-0.445,1.014-0.802,1.639-1.069c0.623-0.268,1.292-0.401,2.005-0.401c0.937,0,1.711,0.184,2.324,0.552
		c0.612,0.367,1.074,0.741,1.387,1.12c0.223,0.267,0.418,0.54,0.585,0.818c0.167,0.279,0.301,0.602,0.401,0.97
		c0.101,0.367,0.178,0.813,0.234,1.337c0.055,0.524,0.083,1.165,0.083,1.922c0,0.825-0.017,1.494-0.05,2.006
		c-0.033,0.514-0.123,0.942-0.268,1.287c-0.146,0.346-0.356,0.642-0.635,0.886c-0.279,0.246-0.664,0.514-1.153,0.803
		c0.534,0.334,0.94,0.646,1.22,0.936c0.278,0.29,0.484,0.63,0.618,1.02c0.134,0.391,0.212,0.858,0.234,1.404
		c0.021,0.547,0.033,1.243,0.033,2.09c0,0.78-0.017,1.426-0.05,1.938s-0.084,0.941-0.15,1.287c-0.067,0.346-0.156,0.641-0.268,0.886
		c-0.112,0.245-0.257,0.502-0.435,0.769c-0.424,0.625-0.97,1.143-1.638,1.555c-0.669,0.413-1.527,0.618-2.574,0.618
		c-0.535,0-1.104-0.089-1.705-0.267c-0.602-0.179-1.148-0.469-1.638-0.869c-0.491-0.401-0.897-0.925-1.221-1.571
		s-0.484-1.438-0.484-2.374v-1.938h3.409v1.771c0,0.535,0.15,0.976,0.452,1.32c0.301,0.346,0.707,0.519,1.22,0.519
		s0.919-0.173,1.22-0.519c0.302-0.345,0.452-0.808,0.452-1.387v-3.41c0-0.468-0.04-0.847-0.117-1.137
		c-0.078-0.289-0.218-0.518-0.418-0.686c-0.201-0.167-0.474-0.278-0.819-0.334s-0.797-0.083-1.354-0.083V17.644z"/>
	<path fill="#FFFFFF" d="M133.708,17.61l0.066,0.066c0.111-0.089,0.284-0.161,0.519-0.218c0.233-0.055,0.54-0.083,0.919-0.083
		c0.602,0,1.158,0.146,1.672,0.435c0.512,0.29,0.913,0.657,1.203,1.104c0.155,0.245,0.278,0.49,0.368,0.735
		c0.089,0.245,0.161,0.568,0.217,0.969c0.056,0.401,0.095,0.908,0.117,1.521c0.021,0.613,0.033,1.387,0.033,2.323
		c0,0.78-0.012,1.421-0.033,1.922c-0.022,0.502-0.062,0.925-0.117,1.271s-0.134,0.641-0.234,0.886
		c-0.1,0.246-0.229,0.502-0.384,0.769c-0.446,0.736-1.042,1.304-1.789,1.705c-0.746,0.401-1.588,0.602-2.523,0.602
		s-1.771-0.205-2.507-0.618c-0.735-0.412-1.326-0.975-1.772-1.688c-0.179-0.267-0.317-0.522-0.417-0.769
		c-0.101-0.245-0.179-0.54-0.234-0.886s-0.095-0.769-0.117-1.271c-0.022-0.501-0.033-1.142-0.033-1.922
		c0-0.735,0.011-1.343,0.033-1.822c0.022-0.479,0.056-0.891,0.101-1.236c0.044-0.346,0.111-0.657,0.2-0.937
		c0.089-0.278,0.189-0.573,0.301-0.886l4.479-11.968h3.812L133.708,17.61z M135.413,22.09c0-0.513-0.168-0.925-0.502-1.237
		c-0.334-0.312-0.725-0.468-1.17-0.468c-0.446,0-0.836,0.156-1.17,0.468c-0.334,0.313-0.502,0.725-0.502,1.237v4.412
		c0,0.513,0.168,0.925,0.502,1.237c0.334,0.312,0.724,0.468,1.17,0.468c0.445,0,0.836-0.156,1.17-0.468
		c0.334-0.313,0.502-0.725,0.502-1.237V22.09z"/>
	<path fill="#FFFFFF" d="M151.258,10.824h-6.753v6.418c0.313-0.312,0.714-0.573,1.204-0.785c0.489-0.212,1.036-0.318,1.638-0.318
		c1.158,0,2.101,0.357,2.825,1.07c0.724,0.713,1.086,1.761,1.086,3.142v6.151c0,0.803-0.14,1.516-0.418,2.14
		s-0.651,1.159-1.119,1.604c-0.469,0.446-1.009,0.785-1.622,1.02s-1.253,0.351-1.922,0.351s-1.31-0.116-1.922-0.351
		c-0.613-0.234-1.153-0.573-1.622-1.02c-0.468-0.445-0.841-0.98-1.119-1.604c-0.279-0.624-0.418-1.337-0.418-2.14v-1.003h3.409
		v0.869c0,0.58,0.162,1.031,0.485,1.354c0.322,0.324,0.74,0.485,1.253,0.485s0.908-0.156,1.188-0.468
		c0.278-0.313,0.418-0.747,0.418-1.304v-5.583c0-0.468-0.15-0.869-0.452-1.203c-0.301-0.335-0.685-0.502-1.153-0.502
		c-0.289,0-0.534,0.051-0.735,0.15c-0.2,0.101-0.367,0.218-0.501,0.352s-0.24,0.278-0.317,0.435
		c-0.079,0.156-0.14,0.278-0.185,0.367h-3.008V7.614h9.761V10.824z"/>
</g>
<g>
	<path fill="#1DABE3" d="M77.167,49.411v-8.977h1.084v8.977H77.167z M77.205,39.614v-1.02h1.034v1.02H77.205z"/>
	<path fill="#1DABE3" d="M84.707,49.411l-2.32-6.139v6.139h-1.084v-8.977h1.008l2.309,6.141l-0.014-6.141h1.084v8.977H84.707z"/>
	<path fill="#1DABE3" d="M92.145,48.958c-0.34,0.328-0.869,0.543-1.588,0.543c-0.693,0-1.223-0.189-1.576-0.543
		c-0.416-0.416-0.555-0.934-0.555-1.891h1.084c0,0.592,0.063,0.92,0.303,1.172c0.152,0.164,0.404,0.277,0.744,0.277
		c0.365,0,0.605-0.113,0.77-0.289c0.238-0.266,0.289-0.605,0.289-1.199c0-1.033-0.15-1.348-0.883-1.65l-1.021-0.416
		c-0.92-0.379-1.223-0.883-1.223-2.246c0-0.781,0.227-1.424,0.682-1.84c0.354-0.328,0.832-0.518,1.424-0.518
		c0.656,0,1.148,0.189,1.488,0.518c0.453,0.441,0.592,1.021,0.592,1.84H91.59c0-0.479-0.051-0.807-0.277-1.084
		c-0.15-0.188-0.391-0.303-0.73-0.303c-0.316,0-0.543,0.115-0.693,0.277c-0.215,0.24-0.316,0.605-0.316,1.072
		c0,0.883,0.139,1.148,0.857,1.449l1.01,0.416c1.021,0.418,1.26,1.047,1.26,2.459C92.699,47.937,92.574,48.528,92.145,48.958z"/>
	<path fill="#1DABE3" d="M98.803,49.411l-0.43-2.117h-2.08l-0.428,2.117H94.73l2.092-8.977h1.047l2.08,8.977H98.803z M97.34,42.187
		l-0.846,4.137h1.678L97.34,42.187z"/>
	<path fill="#1DABE3" d="M105.66,49.411l-2.32-6.139v6.139h-1.084v-8.977h1.01l2.307,6.141l-0.012-6.141h1.084v8.977H105.66z"/>
	<path fill="#1DABE3" d="M109.707,49.411v-8.977h1.084v8.977H109.707z M109.746,39.614v-1.02h1.033v1.02H109.746z"/>
	<path fill="#1DABE3" d="M119.592,45.78v3.631h-1.084V45.78l-1.652-5.346h1.186l1.01,3.834l1.008-3.834h1.197L119.592,45.78z"/>
	<path fill="#1DABE3" d="M126.525,49.411l-0.428-2.117h-2.08l-0.43,2.117h-1.135l2.094-8.977h1.047l2.08,8.977H126.525z
		 M125.064,42.187l-0.846,4.137h1.678L125.064,42.187z"/>
	<path fill="#1DABE3" d="M133.271,49.411l-1.236-3.857h-0.982v3.857h-1.084v-8.977h2.029c1.361,0,2.117,0.592,2.117,2.561
		c0,1.248-0.301,1.979-1.084,2.344l1.375,4.072H133.271z M132.01,41.405h-0.957v3.189h0.957c0.832,0,1.021-0.643,1.021-1.6
		C133.031,42.048,132.842,41.405,132.01,41.405z"/>
	<path fill="#1DABE3" d="M140.76,48.78c-0.34,0.367-0.818,0.631-1.537,0.631h-2.08v-8.977h2.08c0.719,0,1.197,0.266,1.537,0.631
		c0.619,0.668,0.631,1.65,0.631,3.857S141.379,48.112,140.76,48.78z M139.941,41.745c-0.152-0.201-0.404-0.34-0.758-0.34h-0.957
		v7.035h0.957c0.354,0,0.605-0.139,0.758-0.34c0.326-0.43,0.365-1.123,0.365-3.178S140.268,42.175,139.941,41.745z"/>
	<path fill="#1DABE3" d="M144.215,49.411v-8.977h1.084v8.977H144.215z"/>
	<path fill="#1DABE3" d="M152.939,49.411v-6.393l-1.424,4.199h-0.67l-1.398-4.098v6.291h-1.084v-8.977h1.021l1.814,4.992
		l1.803-4.992h1.021v8.977H152.939z"/>
</g>
</svg>
