<?xml version="1.0" encoding="utf-8"?>
<!-- Generator: Adobe Illustrator 23.0.6, SVG Export Plug-In . SVG Version: 6.00 Build 0)  -->
<svg version="1.0" id="Layer_1" xmlns="http://www.w3.org/2000/svg" xmlns:xlink="http://www.w3.org/1999/xlink" x="0px" y="0px"
	 viewBox="0 0 283.46 283.46" style="enable-background:new 0 0 283.46 283.46;" xml:space="preserve">
<style type="text/css">
	.st0{fill:url(#SVGID_1_);}
	.st1{fill:#FFFFFF;}
	.st2{fill:url(#SVGID_2_);}
</style>
<linearGradient id="SVGID_1_" gradientUnits="userSpaceOnUse" x1="0" y1="141.7325" x2="283.465" y2="141.7325">
	<stop  offset="0" style="stop-color:#00BACF"/>
	<stop  offset="1" style="stop-color:#00AEE3"/>
</linearGradient>
<rect class="st0" width="283.46" height="283.46"/>
<path class="st1" d="M64.61,104.98H41.24v102.1h32.9v-88.65C74.05,106.51,66.78,105.13,64.61,104.98z"/>
<rect x="41.24" y="220.52" class="st1" width="1.53" height="10.7"/>
<polygon class="st1" points="44.25,231.22 44.25,220.52 45.72,220.52 48.04,226.97 48.07,226.97 48.07,220.52 49.59,220.52 
	49.59,231.22 48.15,231.22 45.81,224.78 45.79,224.78 45.79,231.22 "/>
<polygon class="st1" points="51.08,231.22 51.08,220.52 55.65,220.52 55.65,221.96 52.61,221.96 52.61,225.21 55.25,225.21 
	55.25,226.65 52.61,226.65 52.61,231.22 "/>
<path class="st1" d="M58.16,228.69c0,0.38,0.1,0.65,0.3,0.83c0.21,0.17,0.45,0.26,0.74,0.26c0.28,0,0.52-0.09,0.73-0.26
	c0.2-0.18,0.31-0.46,0.31-0.83v-5.64c0-0.37-0.11-0.64-0.31-0.81c-0.21-0.18-0.45-0.26-0.73-0.26c-0.28,0-0.53,0.09-0.74,0.26
	c-0.2,0.17-0.3,0.44-0.3,0.81V228.69z M56.62,223.04c0-0.43,0.07-0.81,0.22-1.13c0.15-0.33,0.35-0.61,0.61-0.83
	c0.23-0.21,0.5-0.37,0.81-0.48c0.3-0.11,0.61-0.17,0.93-0.17c0.31,0,0.62,0.06,0.92,0.17c0.31,0.11,0.59,0.27,0.85,0.48
	c0.23,0.22,0.43,0.5,0.57,0.83c0.16,0.33,0.24,0.7,0.24,1.13v5.64c0,0.46-0.08,0.85-0.24,1.16c-0.15,0.32-0.34,0.58-0.57,0.79
	c-0.26,0.22-0.54,0.39-0.85,0.5c-0.3,0.11-0.6,0.16-0.92,0.16c-0.31,0-0.62-0.05-0.93-0.16c-0.31-0.11-0.58-0.28-0.81-0.5
	c-0.26-0.21-0.46-0.47-0.61-0.79c-0.15-0.32-0.22-0.71-0.22-1.16V223.04z"/>
<path class="st1" d="M63.22,231.22v-10.7h2.45c1.81,0,2.71,1.05,2.71,3.14c0,0.63-0.1,1.16-0.3,1.6c-0.19,0.44-0.54,0.79-1.02,1.07
	l1.65,4.89h-1.62l-1.43-4.57h-0.92v4.57H63.22z M64.74,221.96v3.33h0.88c0.27,0,0.48-0.04,0.64-0.11c0.16-0.08,0.29-0.19,0.38-0.33
	c0.08-0.14,0.13-0.3,0.16-0.51s0.04-0.44,0.04-0.71c0-0.27-0.01-0.51-0.04-0.71c-0.03-0.21-0.09-0.39-0.18-0.54
	c-0.19-0.28-0.55-0.42-1.08-0.42H64.74z"/>
<polygon class="st1" points="69.71,231.22 69.71,220.52 71.19,220.52 73.15,226.18 73.18,226.18 75.13,220.52 76.62,220.52 
	76.62,231.22 75.09,231.22 75.09,224.7 75.06,224.7 73.54,229.31 72.77,229.31 71.27,224.7 71.24,224.7 71.24,231.22 "/>
<path class="st1" d="M77.49,231.22l2.39-10.7h1.27l2.39,10.7h-1.53l-0.46-2.29h-2.08l-0.46,2.29H77.49z M81.28,227.47l-0.76-3.88
	h-0.03l-0.75,3.88H81.28z"/>
<polygon class="st1" points="84.56,231.22 84.56,221.96 82.79,221.96 82.79,220.52 87.87,220.52 87.87,221.96 86.1,221.96 
	86.1,231.22 "/>
<rect x="88.66" y="220.52" class="st1" width="1.53" height="10.7"/>
<path class="st1" d="M93.17,228.69c0,0.38,0.1,0.65,0.3,0.83c0.21,0.17,0.45,0.26,0.74,0.26c0.28,0,0.52-0.09,0.73-0.26
	c0.2-0.18,0.31-0.46,0.31-0.83v-5.64c0-0.37-0.11-0.64-0.31-0.81c-0.21-0.18-0.45-0.26-0.73-0.26c-0.28,0-0.53,0.09-0.74,0.26
	c-0.2,0.17-0.3,0.44-0.3,0.81V228.69z M91.63,223.04c0-0.43,0.07-0.81,0.22-1.13c0.15-0.33,0.35-0.61,0.61-0.83
	c0.23-0.21,0.5-0.37,0.81-0.48c0.3-0.11,0.61-0.17,0.93-0.17c0.31,0,0.62,0.06,0.92,0.17c0.31,0.11,0.59,0.27,0.85,0.48
	c0.23,0.22,0.43,0.5,0.57,0.83c0.16,0.33,0.24,0.7,0.24,1.13v5.64c0,0.46-0.08,0.85-0.24,1.16c-0.15,0.32-0.34,0.58-0.57,0.79
	c-0.26,0.22-0.54,0.39-0.85,0.5c-0.3,0.11-0.6,0.16-0.92,0.16c-0.31,0-0.62-0.05-0.93-0.16c-0.31-0.11-0.58-0.28-0.81-0.5
	c-0.26-0.21-0.46-0.47-0.61-0.79c-0.15-0.32-0.22-0.71-0.22-1.16V223.04z"/>
<polygon class="st1" points="98.16,231.22 98.16,220.52 99.63,220.52 101.95,226.97 101.98,226.97 101.98,220.52 103.5,220.52 
	103.5,231.22 102.06,231.22 99.72,224.78 99.7,224.78 99.7,231.22 "/>
<polygon class="st1" points="108.83,231.22 108.83,221.96 107.06,221.96 107.06,220.52 112.14,220.52 112.14,221.96 110.37,221.96 
	110.37,231.22 "/>
<path class="st1" d="M112.89,231.22v-10.7h2.45c1.81,0,2.71,1.05,2.71,3.14c0,0.63-0.1,1.16-0.3,1.6c-0.19,0.44-0.54,0.79-1.02,1.07
	l1.65,4.89h-1.62l-1.43-4.57h-0.92v4.57H112.89z M114.41,221.96v3.33h0.88c0.27,0,0.48-0.04,0.64-0.11
	c0.16-0.08,0.29-0.19,0.38-0.33c0.08-0.14,0.13-0.3,0.16-0.51c0.03-0.21,0.04-0.44,0.04-0.71c0-0.27-0.01-0.51-0.04-0.71
	c-0.03-0.21-0.09-0.39-0.18-0.54c-0.19-0.28-0.55-0.42-1.08-0.42H114.41z"/>
<path class="st1" d="M118.69,231.22l2.39-10.7h1.27l2.39,10.7h-1.53l-0.46-2.29h-2.08l-0.46,2.29H118.69z M122.48,227.47l-0.76-3.88
	h-0.03l-0.75,3.88H122.48z"/>
<polygon class="st1" points="125.52,231.22 125.52,220.52 127,220.52 129.31,226.97 129.34,226.97 129.34,220.52 130.87,220.52 
	130.87,231.22 129.43,231.22 127.08,224.78 127.06,224.78 127.06,231.22 "/>
<path class="st1" d="M137.31,223.59h-1.53v-0.34c0-0.36-0.09-0.66-0.26-0.91c-0.17-0.26-0.44-0.38-0.83-0.38
	c-0.2,0-0.38,0.04-0.51,0.12c-0.13,0.08-0.23,0.18-0.31,0.3c-0.08,0.13-0.14,0.28-0.17,0.45c-0.03,0.16-0.04,0.33-0.04,0.51
	c0,0.21,0.01,0.39,0.02,0.54c0.01,0.13,0.05,0.26,0.12,0.37c0.06,0.11,0.14,0.2,0.26,0.29c0.12,0.08,0.28,0.16,0.48,0.24l1.17,0.47
	c0.34,0.13,0.61,0.28,0.82,0.46c0.21,0.17,0.38,0.38,0.49,0.61c0.11,0.23,0.19,0.5,0.22,0.81c0.04,0.3,0.06,0.65,0.06,1.05
	c0,0.45-0.05,0.87-0.14,1.26c-0.09,0.38-0.23,0.71-0.43,0.98c-0.21,0.28-0.49,0.5-0.83,0.66c-0.34,0.16-0.76,0.24-1.25,0.24
	c-0.37,0-0.71-0.07-1.04-0.19c-0.32-0.13-0.59-0.31-0.82-0.54c-0.24-0.23-0.42-0.49-0.56-0.8c-0.13-0.3-0.2-0.64-0.2-1v-0.56h1.54
	v0.48c0,0.28,0.08,0.53,0.25,0.76c0.17,0.23,0.45,0.34,0.83,0.34c0.26,0,0.47-0.04,0.61-0.11c0.15-0.08,0.26-0.19,0.34-0.33
	c0.08-0.14,0.13-0.31,0.14-0.5c0.02-0.2,0.03-0.42,0.03-0.65c0-0.28-0.01-0.52-0.03-0.69c-0.02-0.19-0.06-0.33-0.12-0.44
	c-0.07-0.12-0.17-0.2-0.29-0.27c-0.11-0.07-0.26-0.15-0.45-0.22l-1.1-0.46c-0.66-0.27-1.11-0.63-1.34-1.07
	c-0.23-0.45-0.34-1.01-0.34-1.68c0-0.4,0.05-0.79,0.16-1.14c0.11-0.36,0.28-0.68,0.5-0.94c0.21-0.26,0.48-0.46,0.81-0.62
	c0.33-0.16,0.71-0.23,1.16-0.23c0.38,0,0.72,0.07,1.03,0.21c0.32,0.13,0.59,0.32,0.82,0.56c0.46,0.48,0.69,1.03,0.69,1.65V223.59z"
	/>
<polygon class="st1" points="138.55,231.22 138.55,220.52 143.12,220.52 143.12,221.96 140.07,221.96 140.07,225.21 142.72,225.21 
	142.72,226.65 140.07,226.65 140.07,231.22 "/>
<path class="st1" d="M145.63,228.69c0,0.38,0.1,0.65,0.3,0.83c0.21,0.17,0.45,0.26,0.74,0.26c0.28,0,0.52-0.09,0.73-0.26
	c0.2-0.18,0.31-0.46,0.31-0.83v-5.64c0-0.37-0.11-0.64-0.31-0.81c-0.21-0.18-0.45-0.26-0.73-0.26c-0.28,0-0.53,0.09-0.74,0.26
	c-0.2,0.17-0.3,0.44-0.3,0.81V228.69z M144.09,223.04c0-0.43,0.07-0.81,0.22-1.13c0.15-0.33,0.35-0.61,0.61-0.83
	c0.23-0.21,0.5-0.37,0.81-0.48c0.3-0.11,0.61-0.17,0.93-0.17s0.62,0.06,0.92,0.17c0.31,0.11,0.59,0.27,0.85,0.48
	c0.23,0.22,0.43,0.5,0.57,0.83c0.16,0.33,0.24,0.7,0.24,1.13v5.64c0,0.46-0.08,0.85-0.24,1.16c-0.15,0.32-0.34,0.58-0.57,0.79
	c-0.26,0.22-0.54,0.39-0.85,0.5c-0.3,0.11-0.6,0.16-0.92,0.16s-0.62-0.05-0.93-0.16c-0.31-0.11-0.58-0.28-0.81-0.5
	c-0.26-0.21-0.46-0.47-0.61-0.79c-0.15-0.32-0.22-0.71-0.22-1.16V223.04z"/>
<path class="st1" d="M150.68,231.22v-10.7h2.45c1.81,0,2.71,1.05,2.71,3.14c0,0.63-0.1,1.16-0.3,1.6c-0.19,0.44-0.54,0.79-1.02,1.07
	l1.65,4.89h-1.62l-1.43-4.57h-0.92v4.57H150.68z M152.21,221.96v3.33h0.88c0.27,0,0.48-0.04,0.64-0.11
	c0.16-0.08,0.29-0.19,0.38-0.33c0.08-0.14,0.13-0.3,0.16-0.51c0.03-0.21,0.04-0.44,0.04-0.71c0-0.27-0.01-0.51-0.04-0.71
	c-0.03-0.21-0.09-0.39-0.18-0.54c-0.19-0.28-0.55-0.42-1.08-0.42H152.21z"/>
<polygon class="st1" points="157.18,231.22 157.18,220.52 158.65,220.52 160.61,226.18 160.65,226.18 162.6,220.52 164.08,220.52 
	164.08,231.22 162.56,231.22 162.56,224.7 162.53,224.7 161.01,229.31 160.24,229.31 158.74,224.7 158.7,224.7 158.7,231.22 "/>
<path class="st1" d="M164.96,231.22l2.39-10.7h1.27l2.39,10.7h-1.53l-0.46-2.29h-2.08l-0.46,2.29H164.96z M168.75,227.47l-0.76-3.88
	h-0.03l-0.75,3.88H168.75z"/>
<polygon class="st1" points="172.02,231.22 172.02,221.96 170.25,221.96 170.25,220.52 175.33,220.52 175.33,221.96 173.56,221.96 
	173.56,231.22 "/>
<rect x="176.13" y="220.52" class="st1" width="1.53" height="10.7"/>
<path class="st1" d="M180.63,228.69c0,0.38,0.1,0.65,0.3,0.83c0.21,0.17,0.45,0.26,0.74,0.26c0.28,0,0.52-0.09,0.73-0.26
	c0.2-0.18,0.31-0.46,0.31-0.83v-5.64c0-0.37-0.11-0.64-0.31-0.81c-0.21-0.18-0.45-0.26-0.73-0.26c-0.28,0-0.53,0.09-0.74,0.26
	c-0.2,0.17-0.3,0.44-0.3,0.81V228.69z M179.1,223.04c0-0.43,0.07-0.81,0.22-1.13c0.15-0.33,0.35-0.61,0.61-0.83
	c0.23-0.21,0.5-0.37,0.81-0.48c0.3-0.11,0.61-0.17,0.93-0.17s0.62,0.06,0.92,0.17c0.31,0.11,0.59,0.27,0.85,0.48
	c0.23,0.22,0.43,0.5,0.57,0.83c0.16,0.33,0.24,0.7,0.24,1.13v5.64c0,0.46-0.08,0.85-0.24,1.16c-0.15,0.32-0.34,0.58-0.57,0.79
	c-0.26,0.22-0.54,0.39-0.85,0.5c-0.3,0.11-0.6,0.16-0.92,0.16s-0.62-0.05-0.93-0.16c-0.31-0.11-0.58-0.28-0.81-0.5
	c-0.26-0.21-0.46-0.47-0.61-0.79c-0.15-0.32-0.22-0.71-0.22-1.16V223.04z"/>
<polygon class="st1" points="185.62,231.22 185.62,220.52 187.1,220.52 189.41,226.97 189.44,226.97 189.44,220.52 190.97,220.52 
	190.97,231.22 189.53,231.22 187.18,224.78 187.16,224.78 187.16,231.22 "/>
<polygon class="st1" points="196.29,231.22 196.29,221.96 194.52,221.96 194.52,220.52 199.6,220.52 199.6,221.96 197.83,221.96 
	197.83,231.22 "/>
<polygon class="st1" points="200.35,231.22 200.35,220.52 204.92,220.52 204.92,221.96 201.88,221.96 201.88,225.1 204.53,225.1 
	204.53,226.54 201.88,226.54 201.88,229.68 204.92,229.68 204.92,231.22 "/>
<path class="st1" d="M210.86,228.16v0.66c0,0.33-0.06,0.65-0.19,0.95c-0.12,0.29-0.29,0.55-0.52,0.78
	c-0.22,0.23-0.48,0.41-0.78,0.54c-0.29,0.13-0.61,0.2-0.95,0.2c-0.29,0-0.59-0.04-0.9-0.12c-0.3-0.08-0.57-0.22-0.8-0.42
	c-0.24-0.2-0.44-0.46-0.6-0.77c-0.16-0.32-0.24-0.72-0.24-1.22v-5.89c0-0.35,0.06-0.67,0.18-0.97c0.12-0.31,0.29-0.57,0.51-0.79
	c0.22-0.22,0.48-0.39,0.79-0.51c0.31-0.13,0.65-0.19,1.02-0.19c0.72,0,1.3,0.23,1.76,0.7c0.22,0.24,0.39,0.51,0.52,0.82
	c0.13,0.31,0.19,0.65,0.19,1.02v0.61h-1.54v-0.51c0-0.3-0.09-0.56-0.26-0.78c-0.17-0.22-0.4-0.33-0.69-0.33
	c-0.38,0-0.63,0.12-0.76,0.35c-0.12,0.24-0.18,0.54-0.18,0.9v5.47c0,0.31,0.07,0.58,0.2,0.79c0.13,0.21,0.38,0.31,0.72,0.31
	c0.1,0,0.21-0.02,0.32-0.05c0.12-0.04,0.23-0.09,0.33-0.17c0.09-0.09,0.16-0.2,0.21-0.33c0.07-0.14,0.1-0.32,0.1-0.54v-0.52H210.86z
	"/>
<polygon class="st1" points="212.2,231.22 212.2,220.52 213.73,220.52 213.73,225.1 215.63,225.1 215.63,220.52 217.15,220.52 
	217.15,231.22 215.63,231.22 215.63,226.45 213.73,226.45 213.73,231.22 "/>
<polygon class="st1" points="218.63,231.22 218.63,220.52 220.1,220.52 222.42,226.97 222.45,226.97 222.45,220.52 223.98,220.52 
	223.98,231.22 222.54,231.22 220.19,224.78 220.17,224.78 220.17,231.22 "/>
<path class="st1" d="M226.9,228.69c0,0.38,0.1,0.65,0.3,0.83c0.21,0.17,0.45,0.26,0.74,0.26c0.28,0,0.52-0.09,0.73-0.26
	c0.2-0.18,0.31-0.46,0.31-0.83v-5.64c0-0.37-0.11-0.64-0.31-0.81c-0.21-0.18-0.45-0.26-0.73-0.26c-0.28,0-0.53,0.09-0.74,0.26
	c-0.2,0.17-0.3,0.44-0.3,0.81V228.69z M225.37,223.04c0-0.43,0.07-0.81,0.22-1.13c0.15-0.33,0.35-0.61,0.61-0.83
	c0.23-0.21,0.5-0.37,0.81-0.48c0.3-0.11,0.61-0.17,0.93-0.17s0.62,0.06,0.92,0.17c0.31,0.11,0.59,0.27,0.85,0.48
	c0.23,0.22,0.43,0.5,0.57,0.83c0.16,0.33,0.24,0.7,0.24,1.13v5.64c0,0.46-0.08,0.85-0.24,1.16c-0.15,0.32-0.34,0.58-0.57,0.79
	c-0.26,0.22-0.54,0.39-0.85,0.5c-0.3,0.11-0.6,0.16-0.92,0.16s-0.62-0.05-0.93-0.16c-0.31-0.11-0.58-0.28-0.81-0.5
	c-0.26-0.21-0.46-0.47-0.61-0.79c-0.15-0.32-0.22-0.71-0.22-1.16V223.04z"/>
<polygon class="st1" points="231.96,231.22 231.96,220.52 233.48,220.52 233.48,229.68 236.53,229.68 236.53,231.22 "/>
<path class="st1" d="M239.04,228.69c0,0.38,0.1,0.65,0.3,0.83c0.21,0.17,0.45,0.26,0.74,0.26c0.28,0,0.52-0.09,0.73-0.26
	c0.2-0.18,0.31-0.46,0.31-0.83v-5.64c0-0.37-0.11-0.64-0.31-0.81c-0.21-0.18-0.45-0.26-0.73-0.26c-0.28,0-0.53,0.09-0.74,0.26
	c-0.2,0.17-0.3,0.44-0.3,0.81V228.69z M237.5,223.04c0-0.43,0.07-0.81,0.22-1.13c0.15-0.33,0.35-0.61,0.61-0.83
	c0.23-0.21,0.5-0.37,0.81-0.48c0.3-0.11,0.61-0.17,0.93-0.17s0.62,0.06,0.92,0.17c0.31,0.11,0.59,0.27,0.85,0.48
	c0.23,0.22,0.43,0.5,0.57,0.83c0.16,0.33,0.24,0.7,0.24,1.13v5.64c0,0.46-0.08,0.85-0.24,1.16c-0.15,0.32-0.34,0.58-0.57,0.79
	c-0.26,0.22-0.54,0.39-0.85,0.5c-0.3,0.11-0.6,0.16-0.92,0.16s-0.62-0.05-0.93-0.16c-0.31-0.11-0.58-0.28-0.81-0.5
	c-0.26-0.21-0.46-0.47-0.61-0.79c-0.15-0.32-0.22-0.71-0.22-1.16V223.04z"/>
<path class="st1" d="M244,223.04c0-0.43,0.07-0.81,0.22-1.13c0.15-0.33,0.35-0.61,0.61-0.83c0.23-0.21,0.5-0.37,0.81-0.48
	c0.3-0.11,0.61-0.17,0.93-0.17c0.31,0,0.62,0.06,0.92,0.17c0.31,0.11,0.59,0.27,0.85,0.48c0.23,0.22,0.43,0.5,0.57,0.83
	c0.16,0.33,0.24,0.7,0.24,1.13v0.54h-1.54v-0.54c0-0.37-0.11-0.64-0.31-0.81c-0.21-0.18-0.45-0.26-0.73-0.26
	c-0.28,0-0.53,0.09-0.74,0.26c-0.2,0.17-0.3,0.44-0.3,0.81v5.64c0,0.38,0.1,0.65,0.3,0.83c0.21,0.17,0.45,0.26,0.74,0.26
	c0.28,0,0.52-0.09,0.73-0.26c0.2-0.18,0.31-0.46,0.31-0.83v-2.01h-1.22v-1.35h2.76v3.36c0,0.46-0.08,0.85-0.24,1.16
	c-0.15,0.32-0.34,0.58-0.57,0.79c-0.26,0.22-0.54,0.39-0.85,0.5c-0.3,0.11-0.6,0.16-0.92,0.16c-0.31,0-0.62-0.05-0.93-0.16
	c-0.31-0.11-0.58-0.28-0.81-0.5c-0.26-0.21-0.46-0.47-0.61-0.79c-0.15-0.32-0.22-0.71-0.22-1.16V223.04z"/>
<polygon class="st1" points="252.01,231.22 252.01,226.69 249.91,220.52 251.53,220.52 252.77,224.77 252.8,224.77 254.03,220.52 
	255.65,220.52 253.55,226.69 253.55,231.22 "/>
<linearGradient id="SVGID_2_" gradientUnits="userSpaceOnUse" x1="76.5947" y1="29.7473" x2="182.0554" y2="155.4304">
	<stop  offset="0" style="stop-color:#FFFFFF"/>
	<stop  offset="0.3726" style="stop-color:#FDFEFF"/>
	<stop  offset="0.5069" style="stop-color:#F6FCFE"/>
	<stop  offset="0.6026" style="stop-color:#EBF8FD"/>
	<stop  offset="0.68" style="stop-color:#DAF3FB"/>
	<stop  offset="0.7463" style="stop-color:#C4ECF8"/>
	<stop  offset="0.805" style="stop-color:#A8E3F5"/>
	<stop  offset="0.8581" style="stop-color:#88D9F2"/>
	<stop  offset="0.9069" style="stop-color:#62CDEE"/>
	<stop  offset="0.9523" style="stop-color:#37BFE9"/>
	<stop  offset="0.9926" style="stop-color:#09B1E4"/>
	<stop  offset="1" style="stop-color:#00AEE3"/>
</linearGradient>
<path class="st2" d="M160.72,90.36c15.77,0.05,49.3,0.56,63.51,10.79c15.18-2.57,29.72-7.62,31.41-17.47l0,0
	c2.01-22.15-63.92-24.33-88.76-24.36c-5.74-0.01-125.64,0.1-125.64,0.1v1.95v19.1v0.32c0.05,1.7,0.94,9.83,13.7,9.83h32.65v116.48
	h0.02h32.88h0.02V90.36H160.72z"/>
<path class="st1" d="M231.73,99.64c-2.25,0.55-7.04,1.43-7.48,1.51c-0.01,0-0.01,0-0.02,0l0,0c-11.84,2.01-24.17,2.51-31.34,2.61
	h-58.95v21.43c0.06,1.8,1.06,9.61,13.32,9.76h19.34v72.13h32.9v-72.2c19.95-0.22,56.17-2.8,56.16-18.69
	c-0.01-16.25-0.01-27.68-0.02-32.51C254.23,91.88,243.9,96.68,231.73,99.64z"/>
<rect x="87.58" y="90.6" class="st1" width="32.92" height="116.48"/>
</svg>
