<?xml version="1.0" standalone="no"?>
<!DOCTYPE svg PUBLIC "-//W3C//DTD SVG 20010904//EN"
 "http://www.w3.org/TR/2001/REC-SVG-20010904/DTD/svg10.dtd">
<svg version="1.0" xmlns="http://www.w3.org/2000/svg"
 width="800.000000pt" height="600.000000pt" viewBox="0 0 800.000000 600.000000"
 preserveAspectRatio="xMidYMid meet">

<g transform="translate(0.000000,600.000000) scale(0.100000,-0.100000)"
fill="#000000" stroke="none">
<path d="M420 5010 l0 -990 140 0 140 0 0 217 c0 198 2 220 21 259 14 29 29
46 51 53 43 15 823 15 867 0 21 -7 38 -24 51 -50 18 -35 20 -59 20 -259 l0
-220 100 0 100 0 0 217 c0 198 2 220 21 259 14 29 29 46 51 53 41 15 823 15
865 1 16 -6 38 -25 49 -43 17 -29 19 -55 22 -259 l3 -228 125 0 124 0 0 260
c0 246 1 260 19 270 14 7 736 10 2265 10 2233 0 2246 0 2266 -20 19 -19 20
-33 20 -270 l0 -250 130 0 130 0 0 990 0 990 -3790 0 -3790 0 0 -990z m962
356 c-2 -47 -7 -74 -13 -70 -9 5 -10 129 -2 147 12 22 18 -9 15 -77z m-252 54
c0 -13 5 -18 14 -14 8 3 23 -4 32 -15 17 -20 18 -20 31 -1 9 12 23 18 41 16
25 -3 27 -7 30 -51 2 -26 -2 -53 -7 -58 -8 -8 -11 -7 -11 1 0 9 -5 10 -19 2
-16 -8 -23 -6 -34 10 -13 19 -14 19 -30 2 -10 -10 -27 -18 -40 -17 -20 1 -22
7 -25 73 -2 45 1 72 8 72 5 0 10 -9 10 -20z m-400 -55 c0 -37 -4 -65 -10 -65
-11 0 -14 113 -3 123 12 13 13 7 13 -58z m80 55 c0 -5 -4 -10 -10 -10 -5 0
-10 -24 -10 -54 0 -30 -4 -58 -10 -61 -6 -4 -10 17 -10 54 0 34 -4 61 -10 61
-5 0 -10 5 -10 10 0 6 14 10 30 10 17 0 30 -4 30 -10z m80 0 c0 -5 -4 -10 -10
-10 -5 0 -10 -25 -10 -55 0 -42 -3 -55 -15 -55 -12 0 -15 13 -15 55 0 30 -4
55 -10 55 -5 0 -10 5 -10 10 0 6 16 10 35 10 19 0 35 -4 35 -10z m71 -12 l0
-23 11 23 c6 12 17 22 25 22 17 0 17 -5 -4 -36 -15 -24 -15 -27 1 -56 13 -21
15 -33 8 -40 -8 -8 -15 -3 -24 17 -12 27 -13 27 -18 6 -10 -41 -25 -26 -28 28
-2 29 -1 60 2 67 8 22 26 16 27 -8z m5972 -2 c31 -29 42 -90 34 -185 -5 -54
-11 -70 -32 -88 -37 -33 -113 -32 -152 1 -26 23 -28 30 -32 116 -5 138 21 180
110 180 35 0 52 -6 72 -24z m782 -8 c26 -30 27 -35 23 -134 -5 -156 24 -144
-359 -144 l-318 0 -20 26 c-18 23 -21 41 -21 126 0 97 1 100 29 129 l29 29
305 0 305 0 27 -32z m-6635 3 c20 -13 18 -75 -3 -96 -17 -16 -19 -16 -37 0
-24 22 -26 68 -4 89 18 18 24 19 44 7z m258 -3 c19 -19 14 -30 -10 -23 l-23 7
23 -17 c25 -19 29 -47 7 -65 -12 -10 -18 -10 -30 0 -24 20 -19 42 8 36 l22 -6
-22 11 c-35 18 -29 63 8 68 3 1 10 -4 17 -11z m110 0 c19 -19 14 -30 -10 -23
l-23 7 23 -17 c38 -28 21 -86 -20 -64 -27 14 -24 42 5 35 l22 -6 -22 11 c-35
18 -29 63 8 68 3 1 10 -4 17 -11z m3698 -120 c0 -19 4 -40 8 -47 5 -7 3 -18
-3 -24 -8 -8 -11 -8 -11 1 0 7 -13 12 -30 12 -24 0 -33 6 -40 26 -6 14 -7 36
-4 50 15 59 78 45 80 -18z m1202 50 c5 -7 13 -34 16 -60 6 -40 5 -48 -8 -48
-9 0 -16 -4 -16 -10 0 -5 -7 -10 -15 -10 -8 0 -15 5 -15 10 0 6 -7 10 -16 10
-13 0 -14 8 -9 48 6 42 25 72 46 72 3 0 11 -6 17 -12z m-998 -15 c0 -13 22
-15 123 -15 36 0 37 0 37 -39 0 -38 -13 -52 -23 -26 -3 6 -6 0 -6 -15 -1 -34
-13 -36 -34 -5 l-16 22 0 -22 c-1 -26 -19 -31 -27 -8 -4 8 -12 15 -19 15 -7 0
-18 -7 -25 -15 -21 -26 -50 -19 -51 13 0 15 -3 21 -6 15 -2 -7 -16 -13 -29
-13 -13 0 -24 6 -25 13 0 10 -2 10 -6 0 -2 -7 -16 -13 -29 -13 -22 0 -24 4
-24 50 0 47 2 50 25 50 14 0 25 -6 25 -12 0 -19 74 -15 78 4 4 18 32 20 32 1z
m1264 -18 c0 -16 3 -32 6 -35 4 -3 10 -15 14 -27 6 -17 3 -23 -8 -23 -9 0 -16
5 -16 10 0 6 -9 10 -20 10 -11 0 -20 -7 -20 -16 0 -8 -4 -12 -10 -9 -14 9 -12
45 3 51 8 3 11 17 9 40 -4 33 -2 35 19 32 19 -2 24 -9 23 -33z m-1034 -20 c1
-19 2 -19 10 1 7 17 17 22 54 22 l46 1 0 -40 c0 -38 -2 -40 -27 -37 -23 2 -29
9 -32 33 l-4 30 -6 -29 c-5 -27 -10 -30 -49 -31 l-44 -2 7 36 c9 46 25 67 36
49 5 -7 9 -22 9 -33z m-4844 -111 c-5 -17 -3 -23 4 -19 5 3 10 0 10 -8 0 -8
-9 -17 -21 -20 -18 -5 -20 -2 -13 26 7 35 12 47 21 47 3 0 2 -12 -1 -26z m44
-34 c5 0 11 10 13 23 4 15 5 12 4 -8 -1 -19 -7 -30 -17 -30 -10 0 -16 11 -17
30 -1 20 0 23 4 8 2 -13 8 -23 13 -23z m44 13 c-10 -40 -14 -41 -14 -5 0 18 5
32 10 32 6 0 8 -11 4 -27z m30 0 c-10 -40 -14 -41 -14 -5 0 18 5 32 10 32 6 0
8 -11 4 -27z m23 -20 c-3 -10 -5 -2 -5 17 0 19 2 27 5 18 2 -10 2 -26 0 -35z
m51 20 c-4 -37 -38 -41 -38 -4 0 20 5 27 21 28 16 2 20 -3 17 -24z m32 -8 c0
-14 -4 -25 -10 -25 -5 0 -10 11 -10 25 0 14 5 25 10 25 6 0 10 -11 10 -25z"/>
<path d="M1134 5365 c-3 -8 -3 -19 1 -25 11 -18 25 -11 25 15 0 27 -17 34 -26
10z"/>
<path d="M1227 5373 c-13 -12 -7 -43 7 -43 16 0 25 19 18 38 -5 13 -15 16 -25
5z"/>
<path d="M6824 5311 c-11 -11 0 -16 36 -16 48 0 49 18 1 19 -18 1 -35 -1 -37
-3z"/>
<path d="M7431 5273 c0 -21 3 -31 6 -23 4 8 13 21 22 28 14 12 14 13 -3 8 -13
-5 -17 -2 -12 9 3 8 1 15 -4 15 -6 0 -10 -17 -9 -37z"/>
<path d="M7530 5300 c0 -5 5 -10 10 -10 6 0 10 -9 10 -20 0 -25 -20 -27 -21
-2 0 12 -2 13 -6 3 -3 -8 3 -20 13 -28 16 -12 17 -15 4 -23 -13 -8 -12 -10 3
-10 13 0 17 8 17 34 0 19 -3 41 -6 50 -7 18 -24 22 -24 6z"/>
<path d="M7267 5284 c-4 -4 -7 -17 -7 -28 1 -19 1 -20 11 -3 11 19 8 43 -4 31z"/>
<path d="M7352 5270 c0 -14 2 -19 5 -12 2 6 2 18 0 25 -3 6 -5 1 -5 -13z"/>
<path d="M7475 5277 c-25 -28 -24 -34 5 -35 26 -1 30 3 29 26 -2 24 -2 24 -6
5 -2 -13 -9 -23 -14 -23 -6 0 -7 9 -4 20 7 23 5 25 -10 7z"/>
<path d="M7300 5258 c0 -10 7 -18 15 -18 8 0 15 8 15 18 0 10 -7 19 -15 19 -8
0 -15 -9 -15 -19z"/>
<path d="M7571 5264 c0 -11 3 -14 6 -6 3 7 2 16 -1 19 -3 4 -6 -2 -5 -13z"/>
<path d="M7600 5251 c0 -11 5 -23 10 -26 6 -3 10 1 10 9 0 9 0 19 1 23 0 4 -4
9 -10 11 -6 2 -11 -5 -11 -17z"/>
<path d="M1043 5364 c-8 -20 13 -42 27 -28 12 12 3 44 -11 44 -5 0 -12 -7 -16
-16z"/>
<path d="M5090 5275 c0 -20 4 -26 18 -23 9 2 17 12 17 23 0 11 -8 21 -17 23
-14 3 -18 -3 -18 -23z"/>
<path d="M6316 5303 c-3 -3 -6 -17 -6 -29 0 -17 4 -22 15 -18 8 4 15 14 15 24
0 20 -13 33 -24 23z"/>
<path d="M5260 5266 c0 -9 5 -16 10 -16 6 0 10 4 10 9 0 6 -4 13 -10 16 -5 3
-10 -1 -10 -9z"/>
<path d="M5450 5265 c0 -8 5 -15 10 -15 6 0 10 7 10 15 0 8 -4 15 -10 15 -5 0
-10 -7 -10 -15z"/>
<path d="M5320 5260 c0 -5 5 -10 10 -10 6 0 10 5 10 10 0 6 -4 10 -10 10 -5 0
-10 -4 -10 -10z"/>
<path d="M5650 5264 c0 -8 5 -12 10 -9 6 4 8 11 5 16 -9 14 -15 11 -15 -7z"/>
<path d="M70 5020 l0 -190 135 0 135 0 0 190 0 190 -135 0 -135 0 0 -190z m40
-5 c0 -37 -4 -65 -10 -65 -6 0 -10 28 -10 65 0 37 4 65 10 65 6 0 10 -28 10
-65z m120 50 c0 -8 -7 -15 -15 -15 -11 0 -15 -12 -15 -50 0 -27 -4 -50 -10
-50 -5 0 -10 22 -10 49 0 40 -3 50 -20 54 -37 10 -21 27 25 27 33 0 45 -4 45
-15z m100 0 c0 -8 -7 -15 -15 -15 -11 0 -15 -12 -15 -50 0 -27 -4 -50 -10 -50
-5 0 -10 23 -10 50 0 38 -4 50 -15 50 -8 0 -15 7 -15 15 0 11 11 15 40 15 29
0 40 -4 40 -15z"/>
<path d="M7064 4226 c-6 -20 -8 -36 -4 -36 4 0 8 -6 7 -12 -1 -49 3 -58 31
-58 36 0 52 17 51 55 l-1 30 -14 -32 c-7 -17 -19 -35 -25 -39 -13 -7 -31 15
-22 29 9 14 11 57 2 57 -4 0 -9 9 -11 21 -2 16 -6 12 -14 -15z"/>
<path d="M7184 4244 c3 -9 6 -40 6 -70 0 -30 5 -54 10 -54 6 0 10 30 10 70 0
58 -3 70 -16 70 -11 0 -14 -5 -10 -16z"/>
<path d="M7236 4244 c-8 -22 2 -33 14 -14 8 12 11 13 22 2 11 -11 10 -16 -4
-26 -22 -16 -23 -26 -3 -26 16 0 21 -35 6 -45 -6 -3 -14 3 -20 12 -12 21 -24
13 -15 -11 8 -22 52 -21 56 1 2 10 1 40 -2 68 -4 41 -9 51 -26 53 -13 2 -24
-4 -28 -14z"/>
<path d="M7342 4215 c-28 -58 -28 -65 3 -65 17 0 25 -6 25 -17 0 -12 3 -14 11
-6 13 13 8 125 -6 130 -6 2 -21 -17 -33 -42z m28 -19 c0 -24 -16 -43 -26 -33
-8 7 7 57 17 57 5 0 9 -11 9 -24z"/>
<path d="M7420 4240 c-7 -14 -7 -20 0 -20 5 0 10 5 10 10 0 6 7 10 15 10 23 0
18 -39 -10 -76 -14 -18 -25 -35 -25 -38 0 -3 17 -5 38 -5 23 1 28 3 15 6 -28
5 -28 7 -2 50 14 22 19 42 15 58 -8 31 -41 33 -56 5z"/>
<path d="M7490 4252 c0 -4 4 -12 9 -17 6 -6 12 -35 14 -65 3 -51 3 -49 5 18 2
58 -1 72 -13 72 -8 0 -15 -4 -15 -8z"/>
<path d="M7381 3734 c0 -11 3 -14 6 -6 3 7 2 16 -1 19 -3 4 -6 -2 -5 -13z"/>
<path d="M7522 3738 c-6 -6 -11 -26 -11 -42 1 -24 3 -26 6 -8 2 12 11 22 18
22 7 0 16 -10 18 -22 4 -21 4 -21 6 3 2 35 -20 64 -37 47z"/>
<path d="M1103 3615 c0 -27 2 -38 4 -22 2 15 2 37 0 50 -2 12 -4 0 -4 -28z"/>
<path d="M2061 3610 l1 -45 8 35 c5 20 5 39 -1 45 -5 5 -9 -8 -8 -35z"/>
<path d="M2105 3619 c-5 -23 -9 -28 -16 -18 -7 11 -9 11 -9 -3 0 -27 18 -31
26 -6 7 22 7 22 15 3 6 -16 8 -14 8 12 1 43 -16 51 -24 12z"/>
<path d="M2201 3610 c-1 -44 -1 -44 15 -21 10 14 13 26 7 30 -6 3 -13 13 -16
21 -3 8 -6 -5 -6 -30z"/>
<path d="M2423 3615 c0 -22 2 -30 4 -17 2 12 2 30 0 40 -3 9 -5 -1 -4 -23z"/>
<path d="M851 3605 c1 -22 3 -32 6 -22 5 20 19 23 26 5 2 -7 4 2 4 20 0 21 -3
28 -9 20 -6 -10 -10 -10 -18 2 -7 11 -9 5 -9 -25z"/>
<path d="M922 3623 c9 -2 19 -16 21 -31 4 -24 4 -24 6 6 1 27 -2 32 -21 31
-16 -1 -18 -3 -6 -6z"/>
<path d="M970 3600 c0 -16 4 -30 9 -30 4 0 6 11 3 25 -2 15 0 25 7 25 14 0 15
-76 1 -83 -6 -3 -5 -4 2 -3 16 3 33 59 25 80 -4 9 -16 16 -27 16 -16 0 -20 -7
-20 -30z"/>
<path d="M1032 3600 c0 -19 2 -27 5 -17 2 9 2 25 0 35 -3 9 -5 1 -5 -18z"/>
<path d="M1055 3620 c-8 -13 5 -13 25 0 13 8 13 10 -2 10 -9 0 -20 -4 -23 -10z"/>
<path d="M1126 3614 c-3 -9 -1 -23 4 -32 8 -14 10 -14 9 -2 -4 46 17 57 24 13
4 -26 4 -26 6 5 1 25 -3 32 -18 32 -10 0 -22 -7 -25 -16z"/>
<path d="M1190 3605 c0 -14 2 -25 4 -25 2 0 6 11 8 25 3 14 1 25 -3 25 -5 0
-9 -11 -9 -25z"/>
<path d="M2140 3606 c0 -14 4 -27 9 -30 4 -3 6 6 3 19 -2 14 0 25 6 25 6 0 12
-12 14 -27 4 -23 6 -25 12 -10 11 24 0 47 -24 47 -15 0 -20 -7 -20 -24z"/>
<path d="M2260 3621 c0 -6 7 -8 16 -4 14 5 16 2 10 -23 -6 -22 -5 -26 4 -18
16 16 8 48 -13 52 -9 2 -17 -1 -17 -7z"/>
<path d="M2348 3605 c-3 -14 -1 -28 3 -31 5 -3 9 9 9 25 0 38 -6 40 -12 6z"/>
<path d="M2370 3626 c0 -2 7 -6 15 -10 8 -3 15 -1 15 4 0 6 -7 10 -15 10 -8 0
-15 -2 -15 -4z"/>
<path d="M2440 3606 c0 -14 4 -27 9 -30 4 -3 6 6 3 19 -2 14 0 25 6 25 6 0 13
-12 15 -27 4 -26 4 -26 6 5 1 26 -3 32 -19 32 -15 0 -20 -7 -20 -24z"/>
<path d="M2500 3605 c0 -14 2 -25 4 -25 2 0 6 11 8 25 3 14 1 25 -3 25 -5 0
-9 -11 -9 -25z"/>
<path d="M3431 3594 c0 -11 3 -14 6 -6 3 7 2 16 -1 19 -3 4 -6 -2 -5 -13z"/>
<path d="M1062 3593 c-8 -3 -10 -9 -3 -16 5 -7 11 -19 14 -27 2 -8 3 -2 1 13
-2 17 0 26 6 22 6 -3 10 -1 10 4 0 12 -7 13 -28 4z"/>
<path d="M2375 3589 c-4 -6 -5 -12 -2 -15 2 -3 7 2 10 11 7 17 1 20 -8 4z"/>
<path d="M910 3580 c0 -5 5 -10 11 -10 5 0 7 5 4 10 -3 6 -8 10 -11 10 -2 0
-4 -4 -4 -10z"/>
<path d="M3431 3494 c0 -11 3 -14 6 -6 3 7 2 16 -1 19 -3 4 -6 -2 -5 -13z"/>
<path d="M69 3483 c-10 -12 -14 -52 -14 -157 0 -78 3 -149 7 -158 6 -16 22
-18 121 -18 74 0 117 4 125 12 17 17 17 309 0 326 -8 8 -49 12 -119 12 -87 0
-109 -3 -120 -17z m119 -125 c-3 -38 -6 -43 -28 -43 -22 0 -25 5 -28 43 -3 41
-2 42 28 42 30 0 31 -1 28 -42z m60 15 c-2 -20 -9 -29 -25 -31 -20 -3 -23 1
-23 27 0 27 4 31 26 31 22 0 25 -4 22 -27z m0 -85 c-2 -36 -7 -44 -25 -46 -21
-3 -23 1 -23 42 0 43 2 46 26 46 23 0 25 -3 22 -42z m-60 -15 c-2 -22 -8 -28
-28 -28 -20 0 -26 6 -28 28 -3 24 0 27 28 27 28 0 31 -3 28 -27z"/>
<path d="M150 3354 c0 -31 23 -28 28 4 2 15 -2 22 -12 22 -11 0 -16 -9 -16
-26z"/>
<path d="M210 3370 c0 -5 5 -10 10 -10 6 0 10 5 10 10 0 6 -4 10 -10 10 -5 0
-10 -4 -10 -10z"/>
<path d="M210 3285 c0 -14 5 -25 10 -25 6 0 10 11 10 25 0 14 -4 25 -10 25 -5
0 -10 -11 -10 -25z"/>
<path d="M150 3270 c0 -5 4 -10 9 -10 6 0 13 5 16 10 3 6 -1 10 -9 10 -9 0
-16 -4 -16 -10z"/>
<path d="M3432 3410 c0 -14 2 -19 5 -12 2 6 2 18 0 25 -3 6 -5 1 -5 -13z"/>
<path d="M3432 3310 c0 -14 2 -19 5 -12 2 6 2 18 0 25 -3 6 -5 1 -5 -13z"/>
<path d="M3432 3210 c0 -14 2 -19 5 -12 2 6 2 18 0 25 -3 6 -5 1 -5 -13z"/>
<path d="M3432 3120 c0 -14 2 -19 5 -12 2 6 2 18 0 25 -3 6 -5 1 -5 -13z"/>
<path d="M3421 2944 c0 -11 3 -14 6 -6 3 7 2 16 -1 19 -3 4 -6 -2 -5 -13z"/>
<path d="M7430 2947 c0 -8 7 -17 15 -21 8 -3 15 -3 15 0 0 3 -7 12 -15 20 -13
13 -15 13 -15 1z"/>
<path d="M5551 2934 c0 -11 3 -14 6 -6 3 7 2 16 -1 19 -3 4 -6 -2 -5 -13z"/>
<path d="M5571 2934 c0 -11 3 -14 6 -6 3 7 2 16 -1 19 -3 4 -6 -2 -5 -13z"/>
<path d="M7492 2925 c0 -16 2 -22 5 -12 2 9 2 23 0 30 -3 6 -5 -1 -5 -18z"/>
<path d="M3341 2190 c1 -45 3 -49 9 -25 l7 30 8 -29 8 -29 12 24 13 23 5 -24
c2 -14 5 -5 6 23 1 54 -13 63 -24 15 l-7 -33 -19 40 -18 40 0 -55z"/>
<path d="M3492 2190 c0 -35 2 -48 7 -35 7 18 8 18 18 1 8 -14 9 -11 9 17 -1
26 -4 33 -13 25 -8 -6 -13 -1 -16 19 -2 15 -4 3 -5 -27z"/>
<path d="M3551 2192 c-1 -50 0 -53 22 -50 31 4 38 57 8 65 -11 3 -22 12 -24
22 -3 9 -5 -8 -6 -37z m34 -15 c0 -26 -20 -25 -23 2 -3 16 1 22 10 19 7 -3 13
-12 13 -21z"/>
<path d="M3733 2190 c0 -30 2 -43 4 -27 2 15 2 39 0 55 -2 15 -4 2 -4 -28z"/>
<path d="M3425 2191 c-9 -28 5 -51 31 -51 21 0 24 5 24 35 0 30 -3 35 -24 35
-15 0 -27 -7 -31 -19z m35 -16 c0 -14 -4 -25 -10 -25 -5 0 -10 11 -10 25 0 14
5 25 10 25 6 0 10 -11 10 -25z"/>
<path d="M3650 2182 c0 -31 -13 -43 -23 -22 -3 6 -4 5 -3 -2 2 -7 11 -13 22
-13 22 0 32 41 15 58 -8 8 -11 2 -11 -21z"/>
<path d="M3689 2196 c8 -10 9 -16 1 -21 -16 -10 -12 -35 6 -35 13 0 14 3 5 14
-8 10 -9 16 -1 21 16 10 12 35 -6 35 -13 0 -14 -3 -5 -14z"/>
<path d="M3755 2199 c-9 -14 3 -59 16 -59 6 0 6 7 -1 20 -6 11 -8 25 -5 30 12
19 24 10 28 -22 4 -32 4 -32 5 5 2 31 -1 37 -17 37 -11 0 -23 -5 -26 -11z"/>
<path d="M3827 2203 c-4 -3 -6 -20 -6 -37 2 -27 2 -28 6 -6 3 14 10 31 15 38
11 12 -3 18 -15 5z"/>
<path d="M2333 2145 c0 -27 2 -38 4 -22 2 15 2 37 0 50 -2 12 -4 0 -4 -28z"/>
<path d="M850 2139 c0 -33 3 -40 18 -37 12 2 18 14 20 41 3 32 0 37 -17 37
-18 0 -21 -6 -21 -41z m30 21 c0 -5 -4 -10 -10 -10 -5 0 -10 5 -10 10 0 6 5
10 10 10 6 0 10 -4 10 -10z m0 -35 c0 -8 -4 -15 -10 -15 -5 0 -10 7 -10 15 0
8 5 15 10 15 6 0 10 -7 10 -15z"/>
<path d="M1401 2150 c0 -33 1 -34 10 -11 6 16 6 28 -1 35 -7 7 -10 -1 -9 -24z"/>
<path d="M2062 2138 l1 -43 4 38 c2 20 9 37 15 37 6 0 8 -10 5 -23 -4 -12 -3
-28 1 -34 4 -7 8 5 9 27 2 34 -1 40 -18 40 -16 0 -19 -6 -17 -42z"/>
<path d="M916 2163 c-11 -12 -6 -22 8 -17 10 4 16 -3 19 -23 4 -28 4 -28 6 3
1 30 -18 51 -33 37z"/>
<path d="M977 2163 c-13 -13 -7 -52 11 -62 15 -9 15 -12 2 -21 -13 -8 -13 -10
1 -10 29 0 40 83 13 94 -19 7 -19 7 -27 -1z m23 -33 c0 -11 -4 -20 -10 -20 -5
0 -10 9 -10 20 0 11 5 20 10 20 6 0 10 -9 10 -20z"/>
<path d="M1056 2155 c-3 -9 1 -18 9 -21 8 -4 15 -11 15 -16 0 -6 -6 -8 -14 -5
-11 4 -11 1 -2 -18 l11 -24 7 27 c6 19 3 30 -7 38 -11 8 -12 13 -3 22 8 8 9
12 1 12 -6 0 -14 -7 -17 -15z"/>
<path d="M1112 2158 c-16 -16 -15 -30 2 -62 l14 -27 4 25 c4 17 1 23 -9 19 -8
-3 -13 2 -13 15 0 12 8 22 18 24 10 2 13 6 6 10 -6 4 -16 2 -22 -4z"/>
<path d="M1265 2151 c-7 -22 3 -51 17 -51 6 0 6 6 -2 14 -8 11 -9 20 -1 33 10
19 14 14 24 -32 3 -13 5 -9 6 11 1 21 -5 34 -15 38 -22 8 -22 8 -29 -13z"/>
<path d="M2120 2150 c-11 -20 -4 -50 11 -50 6 0 6 8 0 19 -10 18 -6 31 10 31
4 0 10 -12 12 -27 4 -27 4 -27 6 3 1 38 -23 53 -39 24z"/>
<path d="M2187 2164 c-4 -4 -7 -28 -6 -53 0 -25 3 -39 6 -31 4 8 13 20 21 26
7 5 12 21 10 34 -3 24 -19 36 -31 24z m23 -29 c0 -14 -4 -25 -10 -25 -11 0
-14 33 -3 43 11 11 13 8 13 -18z"/>
<path d="M2242 2149 c-12 -18 -11 -24 2 -37 20 -20 39 -4 34 29 -4 30 -20 34
-36 8z m28 -19 c0 -21 -15 -27 -25 -10 -7 12 2 30 16 30 5 0 9 -9 9 -20z"/>
<path d="M2303 2135 c0 -22 2 -30 4 -17 2 12 2 30 0 40 -3 9 -5 -1 -4 -23z"/>
<path d="M2360 2155 c-13 -15 -5 -55 11 -55 6 0 6 7 0 19 -10 18 -6 31 10 31
4 0 10 -12 12 -27 4 -27 4 -27 6 3 1 35 -20 51 -39 29z"/>
<path d="M2427 2163 c-4 -3 -7 -20 -6 -37 l1 -31 8 35 c9 36 8 45 -3 33z"/>
<path d="M1032 2130 c0 -19 2 -27 5 -17 2 9 2 25 0 35 -3 9 -5 1 -5 -18z"/>
<path d="M1150 2130 c0 -16 4 -30 9 -30 4 0 8 13 7 30 -1 39 -16 39 -16 0z"/>
<path d="M1210 2138 c0 -12 3 -18 7 -15 3 4 12 -1 20 -11 10 -12 9 -8 -2 16
-18 37 -25 40 -25 10z"/>
<path d="M1326 2139 c4 -13 7 -35 7 -49 -1 -20 0 -21 8 -7 11 18 2 64 -13 73
-7 4 -7 -2 -2 -17z"/>
<path d="M1351 2144 c0 -11 3 -14 6 -6 3 7 2 16 -1 19 -3 4 -6 -2 -5 -13z"/>
<path d="M1382 2130 c0 -19 2 -27 5 -17 2 9 2 25 0 35 -3 9 -5 1 -5 -18z"/>
<path d="M4230 1520 c0 -18 -4 -29 -10 -25 -6 3 -10 -4 -9 -17 0 -13 3 -17 6
-10 7 17 33 15 33 -3 0 -18 21 -20 37 -4 7 7 17 8 25 3 17 -11 38 -14 38 -5 0
13 72 5 81 -10 5 -8 9 -9 9 -3 0 8 46 11 153 10 l152 -1 3 28 c2 16 -2 29 -10
31 -7 3 -94 10 -193 15 -99 6 -210 14 -247 17 l-68 5 0 -31z"/>
<path d="M3973 1490 c0 -25 2 -35 4 -22 2 12 2 32 0 45 -2 12 -4 2 -4 -23z"/>
<path d="M4081 1498 c-1 -30 2 -36 14 -32 10 4 12 10 6 18 -5 6 -11 20 -14 31
-3 12 -5 4 -6 -17z"/>
<path d="M3777 1502 c1 -8 3 -23 3 -34 0 -27 5 -21 14 15 4 17 3 26 -3 23 -5
-3 -11 -3 -14 1 -2 5 -2 2 0 -5z"/>
<path d="M4011 1488 c-1 -30 3 -38 17 -38 11 0 13 3 5 8 -6 4 -13 21 -16 37
-4 27 -4 27 -6 -7z"/>
<path d="M6297 1485 c7 -49 13 -58 13 -19 0 16 -5 36 -10 44 -6 10 -7 2 -3
-25z"/>
<path d="M6401 1502 c-6 -11 -11 -27 -11 -34 1 -7 7 0 14 17 12 29 13 29 18 7
4 -13 0 -28 -9 -37 -13 -13 -13 -15 1 -15 9 0 17 8 17 18 4 49 -14 74 -30 44z"/>
<path d="M6469 1506 c7 -9 8 -17 2 -20 -5 -3 -12 0 -14 6 -3 7 -6 -2 -6 -19
-1 -27 3 -33 19 -33 11 0 20 4 20 10 0 5 -7 7 -15 4 -19 -8 -19 3 0 22 15 15
10 44 -7 44 -6 0 -6 -6 1 -14z"/>
<path d="M6584 1509 c-4 -7 -3 -9 4 -5 5 3 13 0 15 -6 4 -9 6 -10 6 -1 1 17
-16 25 -25 12z"/>
<path d="M6634 1509 c-4 -8 -3 -9 4 -5 8 5 12 0 12 -13 0 -11 -4 -23 -10 -26
-14 -9 -12 -25 3 -25 7 0 13 15 14 34 3 36 -10 55 -23 35z"/>
<path d="M4057 1503 c-4 -3 -7 -18 -6 -32 1 -26 1 -25 10 3 9 31 7 41 -4 29z"/>
<path d="M3444 1485 c-3 -8 -4 -20 -2 -27 3 -7 7 -1 10 15 6 29 1 36 -8 12z"/>
<path d="M3481 1493 c0 -4 4 -17 9 -28 8 -19 9 -19 9 2 1 12 -3 25 -9 28 -5 3
-10 3 -9 -2z"/>
<path d="M3824 1475 c1 -28 30 -25 34 3 2 19 1 19 -4 2 -7 -25 -21 -26 -27 -2
-3 13 -4 12 -3 -3z"/>
<path d="M3880 1489 c0 -5 5 -7 10 -4 6 3 10 8 10 11 0 2 -4 4 -10 4 -5 0 -10
-5 -10 -11z"/>
<path d="M3921 1478 c0 -16 1 -28 3 -28 19 0 36 16 36 34 -1 20 -1 20 -14 -4
l-14 -24 -5 24 c-4 24 -4 24 -6 -2z"/>
<path d="M4161 1483 c-1 -12 -7 -24 -13 -26 -10 -4 -10 -6 0 -6 15 -1 26 23
19 41 -3 7 -6 3 -6 -9z"/>
<path d="M6322 1480 c0 -14 2 -19 5 -12 2 6 2 18 0 25 -3 6 -5 1 -5 -13z"/>
<path d="M6699 1488 c-1 -7 -1 -18 0 -25 1 -6 -6 -14 -16 -16 -14 -4 -13 -5 4
-6 18 -1 22 4 21 29 -1 30 -7 41 -9 18z"/>
<path d="M6571 1474 c0 -11 3 -14 6 -6 3 7 2 16 -1 19 -3 4 -6 -2 -5 -13z"/>
<path d="M6342 1455 c-11 -12 -10 -15 3 -15 8 0 15 7 15 15 0 18 -2 18 -18 0z"/>
<path d="M6530 1450 c0 -6 7 -10 15 -10 8 0 15 2 15 4 0 2 -7 6 -15 10 -8 3
-15 1 -15 -4z"/>
<path d="M6590 1450 c-13 -8 -12 -10 3 -10 9 0 17 5 17 10 0 12 -1 12 -20 0z"/>
<path d="M5529 1438 c7 -9 9 -23 5 -30 -6 -10 -4 -11 7 0 11 10 10 15 -6 30
-17 15 -18 15 -6 0z"/>
<path d="M5565 1440 c-4 -6 -4 -14 -1 -17 3 -4 7 0 7 8 1 8 4 1 8 -16 5 -22 2
-32 -9 -37 -11 -6 -10 -7 5 -5 16 2 19 9 17 32 -4 35 -17 52 -27 35z"/>
<path d="M5613 1410 c0 -25 2 -35 4 -22 2 12 2 32 0 45 -2 12 -4 2 -4 -23z"/>
<path d="M5645 1439 c-4 -6 -5 -12 -2 -15 2 -3 7 2 10 11 7 17 1 20 -8 4z"/>
<path d="M5653 1400 c-8 -23 -8 -30 0 -30 7 0 13 14 14 30 3 38 0 38 -14 0z"/>
<path d="M5718 1400 c2 -16 6 -30 8 -30 2 0 4 14 4 30 0 17 -4 30 -8 30 -5 0
-7 -13 -4 -30z"/>
<path d="M5762 1400 c0 -19 2 -29 5 -21 4 10 7 10 13 1 5 -7 9 -2 12 14 3 15
1 29 -5 33 -5 3 -7 1 -3 -5 3 -6 2 -13 -3 -16 -5 -4 -12 2 -14 11 -3 10 -5 2
-5 -17z"/>
<path d="M5817 1405 c8 -41 9 -41 22 -4 9 26 9 29 -3 20 -11 -9 -15 -9 -20 1
-3 7 -3 0 1 -17z"/>
<path d="M7440 1415 c-10 -12 -10 -21 -2 -40 7 -14 16 -25 22 -25 7 0 4 7 -4
16 -19 19 -20 36 -4 52 7 7 9 12 6 12 -3 0 -11 -7 -18 -15z"/>
<path d="M3433 1393 c-7 -2 -13 -10 -13 -16 0 -8 4 -7 12 1 7 7 24 12 38 12
14 0 31 -5 38 -12 8 -8 12 -8 12 -1 0 20 -54 30 -87 16z"/>
<path d="M5515 1380 c-3 -5 1 -10 10 -10 9 0 13 5 10 10 -3 6 -8 10 -10 10 -2
0 -7 -4 -10 -10z"/>
<path d="M3887 1324 c-14 -14 -7 -53 11 -62 13 -7 287 -9 385 -3 14 1 18 8 15
34 l-3 32 -201 3 c-110 1 -203 -1 -207 -4z"/>
<path d="M4075 972 c-42 -5 -49 -15 -35 -56 10 -32 40 -51 40 -26 0 6 8 5 20
-2 15 -9 23 -10 28 -2 8 13 42 15 42 2 0 -4 8 -8 18 -8 14 0 15 2 2 10 -13 8
-13 10 2 10 9 0 20 -4 23 -10 9 -14 45 -12 45 3 0 9 3 8 9 -2 7 -11 10 -11 15
0 5 11 7 11 12 1 10 -21 34 6 34 39 0 22 -5 30 -22 33 -32 7 -197 12 -233 8z"/>
<path d="M3777 943 c-4 -3 -7 -19 -7 -35 0 -20 5 -28 18 -28 14 0 15 2 2 10
-13 9 -13 11 0 20 12 8 12 10 1 10 -11 0 -11 3 -1 15 12 14 0 22 -13 8z"/>
<path d="M3981 913 c1 -23 3 -29 6 -15 2 12 9 22 14 22 5 0 10 -10 10 -22 1
-19 2 -20 6 -5 3 11 -4 27 -16 38 l-21 20 1 -38z"/>
<path d="M3450 915 c-7 -8 -10 -25 -6 -40 11 -43 58 -27 55 18 0 7 -4 1 -10
-11 -11 -30 -34 -23 -34 9 0 17 5 24 17 23 10 -1 15 2 12 7 -8 13 -20 11 -34
-6z"/>
<path d="M3811 903 c1 -22 2 -23 6 -8 3 11 10 23 17 27 7 5 5 8 -6 8 -13 0
-18 -7 -17 -27z"/>
<path d="M3902 905 c0 -16 2 -22 5 -12 2 9 2 23 0 30 -3 6 -5 -1 -5 -18z"/>
<path d="M3930 905 c0 -18 5 -25 20 -25 15 0 20 7 20 25 0 18 -5 25 -20 25
-15 0 -20 -7 -20 -25z m30 0 c0 -8 -4 -15 -10 -15 -5 0 -10 7 -10 15 0 8 5 15
10 15 6 0 10 -7 10 -15z"/>
<path d="M6299 898 c4 -28 6 -29 9 -9 2 13 0 27 -5 32 -6 6 -7 -3 -4 -23z"/>
<path d="M6338 923 c7 -3 16 -2 19 1 4 3 -2 6 -13 5 -11 0 -14 -3 -6 -6z"/>
<path d="M6414 915 c8 -9 13 -22 10 -30 -7 -18 -24 -10 -24 12 0 9 -3 14 -6
10 -10 -9 6 -47 21 -47 7 0 15 8 17 18 6 27 -2 52 -18 52 -14 0 -14 -2 0 -15z"/>
<path d="M6453 893 c0 -21 2 -30 4 -20 3 9 9 17 14 17 5 0 9 5 9 11 0 5 -4 7
-10 4 -5 -3 -10 -2 -10 4 0 5 6 12 13 14 7 4 6 6 -4 6 -13 1 -17 -8 -16 -36z"/>
<path d="M6542 916 c7 -8 15 -12 17 -11 5 6 -10 25 -20 25 -5 0 -4 -6 3 -14z"/>
<path d="M6580 926 c0 -2 7 -6 15 -10 8 -3 15 -1 15 4 0 6 -7 10 -15 10 -8 0
-15 -2 -15 -4z"/>
<path d="M6639 921 c12 -8 13 -15 3 -38 -11 -26 -11 -27 3 -9 20 27 19 56 -2
56 -15 0 -15 -2 -4 -9z"/>
<path d="M6670 926 c0 -2 9 -6 20 -9 11 -3 20 -1 20 4 0 5 -9 9 -20 9 -11 0
-20 -2 -20 -4z"/>
<path d="M6320 890 c0 -11 4 -22 10 -25 6 -3 7 1 4 9 -3 9 -2 16 4 16 6 0 13
-6 15 -12 4 -8 6 -7 6 3 1 9 -8 19 -19 22 -15 4 -20 0 -20 -13z"/>
<path d="M6571 900 c0 -8 4 -22 9 -30 8 -13 11 -13 22 -1 10 11 10 12 0 7 -7
-5 -16 1 -21 16 -6 13 -10 16 -10 8z"/>
<path d="M6697 879 c4 -13 8 -18 11 -10 2 7 -1 18 -6 23 -8 8 -9 4 -5 -13z"/>
<path d="M6535 879 c-4 -6 -5 -12 -2 -15 2 -3 7 2 10 11 7 17 1 20 -8 4z"/>
<path d="M5490 856 c0 -2 7 -7 16 -10 8 -3 12 -2 9 4 -6 10 -25 14 -25 6z"/>
<path d="M5540 850 c0 -5 6 -9 13 -7 6 1 12 -7 12 -18 0 -11 -6 -19 -12 -17
-7 1 -13 -2 -13 -8 0 -16 27 -11 34 6 9 23 -2 54 -20 54 -8 0 -14 -4 -14 -10z"/>
<path d="M5590 825 c0 -29 3 -36 18 -33 11 2 17 13 17 33 0 20 -6 31 -17 33
-15 3 -18 -4 -18 -33z m30 0 c0 -14 -4 -25 -10 -25 -5 0 -10 11 -10 25 0 14 5
25 10 25 6 0 10 -11 10 -25z"/>
<path d="M5669 823 c5 -37 6 -37 9 -8 2 16 9 33 15 37 8 5 4 8 -8 8 -18 0 -20
-5 -16 -37z"/>
<path d="M5710 823 l1 -38 20 24 c22 27 21 44 -4 49 -14 3 -17 -4 -17 -35z
m25 17 c3 -5 1 -10 -4 -10 -6 0 -11 5 -11 10 0 6 2 10 4 10 3 0 8 -4 11 -10z"/>
<path d="M7445 849 c-11 -16 -1 -19 13 -3 7 8 8 14 3 14 -5 0 -13 -5 -16 -11z"/>
<path d="M7490 856 c0 -2 7 -9 15 -16 13 -11 14 -10 9 4 -5 14 -24 23 -24 12z"/>
<path d="M5790 841 c0 -7 -5 -9 -12 -5 -8 5 -9 2 -5 -10 4 -10 7 -23 8 -29 0
-7 5 1 10 17 4 17 6 32 4 35 -3 2 -5 -1 -5 -8z"/>
<path d="M7460 820 c0 -5 7 -7 15 -4 8 4 15 8 15 10 0 2 -7 4 -15 4 -8 0 -15
-4 -15 -10z"/>
<path d="M3453 813 c9 -2 25 -2 35 0 9 3 1 5 -18 5 -19 0 -27 -2 -17 -5z"/>
<path d="M7430 813 c0 -6 8 -17 18 -24 16 -13 16 -13 2 6 -8 11 -16 22 -17 24
-2 2 -3 0 -3 -6z"/>
<path d="M7475 800 c-3 -5 -1 -10 4 -10 6 0 11 5 11 10 0 6 -2 10 -4 10 -3 0
-8 -4 -11 -10z"/>
<path d="M3933 732 l-73 -3 0 -35 0 -34 268 2 267 3 3 32 3 32 -198 3 c-109 2
-231 2 -270 0z"/>
<path d="M1312 685 c0 -27 2 -44 5 -37 4 10 9 9 20 -5 13 -17 13 -16 4 4 -6
12 -8 29 -4 39 4 11 3 15 -5 10 -6 -3 -12 3 -15 16 -2 13 -5 1 -5 -27z"/>
<path d="M1363 685 c0 -27 2 -38 4 -22 2 15 2 37 0 50 -2 12 -4 0 -4 -28z"/>
<path d="M853 704 c-4 -10 1 -20 11 -26 11 -6 15 -17 11 -31 -5 -20 -5 -20 5
-4 9 14 8 22 -4 36 -12 13 -13 20 -4 29 9 9 9 12 0 12 -7 0 -15 -7 -19 -16z"/>
<path d="M2068 680 c5 -52 17 -52 19 0 0 25 -3 40 -11 40 -7 0 -10 -14 -8 -40z"/>
<path d="M2292 680 c0 -25 2 -36 5 -25 3 11 12 26 21 33 15 11 15 12 0 12 -9
0 -19 6 -21 13 -3 6 -5 -8 -5 -33z"/>
<path d="M2443 680 c0 -25 2 -35 4 -22 2 12 2 32 0 45 -2 12 -4 2 -4 -23z"/>
<path d="M2240 700 c0 -6 7 -10 15 -10 8 0 15 2 15 4 0 2 -7 6 -15 10 -8 3
-15 1 -15 -4z"/>
<path d="M2408 704 c-6 -5 7 -62 15 -70 2 -3 3 12 2 31 -2 37 -8 49 -17 39z"/>
<path d="M910 690 c0 -5 7 -7 17 -3 14 5 15 1 9 -28 -6 -34 -6 -34 10 -11 12
18 13 26 4 37 -14 17 -40 20 -40 5z"/>
<path d="M970 691 c0 -6 7 -8 15 -5 11 4 15 0 15 -16 0 -15 -5 -20 -14 -17
-10 4 -13 1 -9 -9 8 -22 35 4 31 30 -3 21 -38 37 -38 17z"/>
<path d="M1021 668 c1 -28 2 -30 7 -10 4 13 12 23 17 23 6 0 13 -10 17 -23 4
-14 6 -17 7 -6 2 28 -10 48 -30 48 -15 0 -19 -7 -18 -32z"/>
<path d="M1080 690 c0 -5 7 -7 15 -4 8 4 15 8 15 10 0 2 -7 4 -15 4 -8 0 -15
-4 -15 -10z"/>
<path d="M1126 683 c-4 -10 1 -24 13 -36 20 -20 20 -20 26 6 4 14 4 31 0 36
-10 17 -32 13 -39 -6z m34 -13 c0 -11 -4 -20 -10 -20 -5 0 -10 9 -10 20 0 11
5 20 10 20 6 0 10 -9 10 -20z"/>
<path d="M1191 684 c0 -11 3 -14 6 -6 3 7 2 16 -1 19 -3 4 -6 -2 -5 -13z"/>
<path d="M1250 679 c0 -13 5 -31 10 -39 7 -11 8 -5 4 20 -8 43 -14 51 -14 19z"/>
<path d="M1282 670 c0 -19 2 -27 5 -17 2 9 2 25 0 35 -3 9 -5 1 -5 -18z"/>
<path d="M1387 693 c-11 -10 -8 -38 4 -50 18 -18 39 -3 39 28 0 21 -5 29 -18
29 -10 0 -22 -3 -25 -7z m27 -12 c8 -13 -4 -42 -15 -35 -12 7 -12 44 0 44 6 0
12 -4 15 -9z"/>
<path d="M2113 684 c-3 -8 -1 -25 5 -37 9 -19 10 -17 5 12 -5 26 -3 33 8 29 8
-3 14 -14 14 -25 0 -12 3 -25 8 -29 4 -4 7 9 7 29 0 31 -4 37 -20 37 -11 0
-23 -7 -27 -16z"/>
<path d="M2177 693 c-10 -9 -9 -41 2 -47 4 -3 6 6 3 19 -2 15 0 25 7 25 6 0
11 -11 11 -25 0 -14 5 -25 10 -25 6 0 10 14 10 30 0 22 -5 30 -18 30 -10 0
-22 -3 -25 -7z"/>
<path d="M2350 679 c0 -13 5 -31 10 -39 7 -11 8 -5 4 20 -8 43 -14 51 -14 19z"/>
<path d="M2382 670 c0 -19 2 -27 5 -17 2 9 2 25 0 35 -3 9 -5 1 -5 -18z"/>
<path d="M2466 685 c-8 -23 1 -35 22 -28 15 6 16 5 2 -13 -14 -18 -14 -18 3
-5 21 17 19 55 -4 59 -9 2 -19 -4 -23 -13z m34 -5 c0 -5 -4 -10 -10 -10 -5 0
-10 5 -10 10 0 6 5 10 10 10 6 0 10 -4 10 -10z"/>
<path d="M2332 660 c0 -14 2 -19 5 -12 2 6 2 18 0 25 -3 6 -5 1 -5 -13z"/>
<path d="M1084 658 c-5 -7 -3 -8 6 -3 10 6 12 4 7 -9 -4 -10 -3 -15 3 -11 13
8 13 35 1 35 -6 0 -13 -5 -17 -12z"/>
<path d="M4148 404 c-5 -4 -8 -16 -8 -26 0 -10 -5 -18 -11 -18 -6 0 -9 -6 -6
-12 2 -7 10 -12 17 -10 6 1 14 -7 17 -18 5 -20 12 -21 127 -19 94 1 125 4 139
16 22 21 22 60 -1 72 -23 12 -264 26 -274 15z"/>
<path d="M3772 333 c1 -37 1 -37 5 -5 2 17 9 32 14 32 5 0 7 -12 4 -27 -5 -27
-5 -27 5 -5 11 27 6 42 -16 42 -10 0 -14 -11 -12 -37z"/>
<path d="M3827 353 c-4 -3 -7 -16 -6 -27 0 -19 1 -19 10 3 10 24 8 36 -4 24z"/>
<path d="M3880 349 c0 -5 5 -7 10 -4 6 3 14 -4 19 -17 6 -14 10 -17 10 -7 1
16 -17 39 -31 39 -4 0 -8 -5 -8 -11z"/>
<path d="M3933 337 c6 -14 15 -23 18 -21 4 2 10 -1 12 -6 3 -6 4 -5 3 2 -2 7
1 21 6 31 5 11 5 17 -2 17 -5 0 -10 -7 -10 -17 0 -15 -2 -14 -20 2 -19 17 -19
17 -7 -8z"/>
<path d="M3989 353 c0 -5 -2 -18 -5 -30 -2 -13 1 -23 6 -23 6 0 10 14 10 30 0
26 -9 44 -11 23z"/>
<path d="M4016 345 c4 -8 8 -15 10 -15 2 0 4 7 4 15 0 8 -4 15 -10 15 -5 0 -7
-7 -4 -15z"/>
<path d="M4052 348 c-15 -15 -15 -35 0 -44 7 -4 8 -3 4 5 -4 7 -5 19 -1 29 5
14 7 14 15 2 6 -9 10 -10 10 -3 0 18 -15 24 -28 11z"/>
<path d="M6297 323 c8 -50 13 -55 13 -10 0 20 -4 38 -9 42 -6 3 -7 -10 -4 -32z"/>
<path d="M6320 340 c0 -11 7 -20 15 -20 8 0 15 -7 15 -16 0 -11 -5 -14 -17 -9
-14 5 -15 3 -6 -6 6 -6 16 -8 22 -5 16 11 13 46 -4 46 -21 0 -19 18 3 23 13 4
11 5 -5 6 -17 1 -23 -5 -23 -19z"/>
<path d="M6400 351 c0 -5 -3 -18 -6 -28 -3 -10 1 -7 9 6 l15 24 7 -22 c9 -29
16 -23 8 7 -5 21 -33 32 -33 13z"/>
<path d="M6457 353 c-11 -11 -8 -71 4 -79 6 -3 15 0 20 7 12 19 11 25 -6 43
-17 17 -20 30 -5 21 6 -3 10 -1 10 4 0 12 -13 14 -23 4z m23 -54 c0 -5 -4 -9
-10 -9 -5 0 -10 7 -10 16 0 8 5 12 10 9 6 -3 10 -10 10 -16z"/>
<path d="M6530 351 c0 -6 5 -11 11 -11 6 0 9 -6 6 -12 -3 -7 -8 -21 -12 -30
-4 -10 -3 -18 2 -18 5 0 10 6 11 13 6 50 6 60 -5 64 -7 3 -13 0 -13 -6z"/>
<path d="M6574 335 c-3 -14 -4 -29 0 -32 3 -4 6 4 6 16 0 17 4 22 16 17 10 -4
14 -1 12 6 -8 23 -27 19 -34 -7z"/>
<path d="M6630 349 c0 -5 5 -7 10 -4 6 3 10 -3 10 -14 0 -11 -4 -23 -10 -26
-13 -8 -13 -25 1 -25 5 0 8 4 4 9 -3 5 -1 12 5 16 16 10 12 55 -5 55 -8 0 -15
-5 -15 -11z"/>
<path d="M6685 353 c6 -4 12 -21 13 -37 2 -22 -1 -27 -14 -22 -14 5 -15 4 -4
-9 18 -22 31 -8 27 32 -1 22 -8 38 -17 40 -9 3 -11 1 -5 -4z"/>
<path d="M3447 333 c-12 -11 -8 -40 8 -53 12 -10 18 -10 30 0 16 13 20 46 7
54 -4 2 -8 -8 -7 -22 0 -18 -5 -27 -15 -27 -10 0 -15 10 -15 28 1 30 1 30 -8
20z"/>
<path d="M6400 288 c0 -4 7 -8 15 -8 8 0 15 4 15 8 0 5 -7 9 -15 9 -8 0 -15
-4 -15 -9z"/>
<path d="M6590 290 c-13 -8 -12 -10 3 -10 9 0 17 5 17 10 0 12 -1 12 -20 0z"/>
<path d="M5485 280 c-3 -5 0 -10 9 -10 8 0 17 -6 19 -12 4 -8 6 -9 6 -2 1 18
-26 37 -34 24z"/>
<path d="M5534 277 c-3 -9 -4 -26 -1 -39 4 -21 4 -20 6 5 0 15 5 27 10 27 5 0
12 -12 14 -27 l4 -28 2 26 c1 32 -25 60 -35 36z"/>
<path d="M5584 266 c-3 -14 -4 -31 -1 -38 3 -7 6 -1 6 15 1 15 5 27 10 27 5 0
12 -12 14 -27 4 -22 4 -20 3 6 -1 41 -23 53 -32 17z"/>
<path d="M5664 274 c3 -9 6 -27 6 -41 0 -35 6 -26 13 20 5 29 3 37 -10 37 -10
0 -13 -6 -9 -16z"/>
<path d="M5710 286 c0 -4 7 -14 15 -22 8 -9 15 -11 15 -6 0 5 -7 15 -15 22 -8
7 -15 9 -15 6z"/>
<path d="M7452 270 c-12 -19 -11 -20 8 -8 16 10 24 10 40 0 19 -12 20 -11 8 8
-16 26 -40 26 -56 0z"/>
<path d="M5766 255 c8 -37 10 -39 17 -23 2 8 -2 23 -10 33 -13 19 -14 18 -7
-10z"/>
<path d="M7467 246 c-6 -16 1 -26 17 -26 6 0 4 5 -4 10 -10 6 -11 10 -2 10 6
0 12 5 12 10 0 15 -17 12 -23 -4z"/>
<path d="M5710 240 c0 -5 5 -10 11 -10 5 0 7 5 4 10 -3 6 -8 10 -11 10 -2 0
-4 -4 -4 -10z"/>
<path d="M3425 230 c-4 -6 -4 -14 -1 -17 3 -4 6 -1 6 5 0 15 76 16 83 2 3 -6
4 -5 3 2 -3 16 -82 23 -91 8z"/>
<path d="M7442 220 c19 -30 56 -33 72 -5 10 18 10 18 -3 3 -18 -24 -45 -22
-66 5 -17 22 -17 22 -3 -3z"/>
<path d="M5480 210 c0 -5 7 -10 16 -10 8 0 12 5 9 10 -3 6 -10 10 -16 10 -5 0
-9 -4 -9 -10z"/>
<path d="M3980 194 c-8 -1 -37 -6 -63 -9 -47 -6 -48 -7 -45 -38 3 -31 4 -32
48 -29 25 1 128 4 230 6 102 2 202 4 223 5 35 1 37 2 37 36 l0 35 -207 -1
c-115 -1 -215 -3 -223 -5z"/>
</g>
</svg>
